<svg width="24" height="24" viewBox="0 0 24 24" fill="none" xmlns="http://www.w3.org/2000/svg">
<path d="M17.5808 1.5H6.42269C3.70396 1.5 1.5 3.7036 1.5 6.42188V17.5781C1.5 20.2964 3.70396 22.5 6.42269 22.5H17.5808C20.2995 22.5 22.5035 20.2964 22.5035 17.5781V6.42188C22.5035 3.7036 20.2995 1.5 17.5808 1.5Z" fill="url(#paint0_radial_301_11537)"/>
<path d="M17.5808 1.5H6.42269C3.70396 1.5 1.5 3.7036 1.5 6.42188V17.5781C1.5 20.2964 3.70396 22.5 6.42269 22.5H17.5808C20.2995 22.5 22.5035 20.2964 22.5035 17.5781V6.42188C22.5035 3.7036 20.2995 1.5 17.5808 1.5Z" fill="url(#paint1_radial_301_11537)"/>
<path d="M12.0026 3.79688C9.77441 3.79688 9.49472 3.80664 8.61963 3.84642C7.74618 3.88645 7.14996 4.02468 6.62832 4.22754C6.08863 4.43705 5.6309 4.71735 5.1749 5.17344C4.71848 5.62945 4.43813 6.08711 4.22793 6.62646C4.02446 7.14818 3.88605 7.74455 3.84675 8.61744C3.80762 9.49247 3.79736 9.7722 3.79736 12.0001C3.79736 14.228 3.80721 14.5067 3.84692 15.3817C3.88712 16.255 4.02537 16.8511 4.2281 17.3726C4.43781 17.9122 4.71815 18.3699 5.17432 18.8258C5.63025 19.2822 6.08797 19.5631 6.62725 19.7726C7.14931 19.9755 7.74561 20.1137 8.61889 20.1537C9.49407 20.1935 9.77351 20.2033 12.0016 20.2033C14.23 20.2033 14.5088 20.1935 15.3839 20.1537C16.2574 20.1137 16.8542 19.9755 17.3763 19.7726C17.9157 19.5631 18.3728 19.2822 18.8286 18.8258C19.2851 18.3699 19.5653 17.9122 19.7756 17.3729C19.9773 16.8511 20.1158 16.2548 20.1568 15.3818C20.1961 14.5069 20.2063 14.228 20.2063 12.0001C20.2063 9.7722 20.1961 9.49263 20.1568 8.61761C20.1158 7.7443 19.9773 7.14826 19.7756 6.62671C19.5653 6.08711 19.2851 5.62945 18.8286 5.17344C18.3723 4.71718 17.9159 4.43688 17.3758 4.22762C16.8528 4.02468 16.2562 3.88637 15.3828 3.84642C14.5076 3.80664 14.229 3.79688 12 3.79688H12.0026ZM11.2666 5.27516C11.485 5.27483 11.7288 5.27516 12.0026 5.27516C14.1933 5.27516 14.4529 5.28304 15.3179 5.32233C16.1179 5.35891 16.5521 5.49254 16.8413 5.60484C17.2242 5.75348 17.4971 5.93125 17.7841 6.21844C18.0713 6.50555 18.249 6.77896 18.3981 7.1618C18.5104 7.45055 18.6442 7.88466 18.6806 8.68446C18.7199 9.54923 18.7285 9.80895 18.7285 11.9982C18.7285 14.1874 18.7199 14.4472 18.6806 15.3119C18.644 16.1117 18.5104 16.5458 18.3981 16.8347C18.2494 17.2175 18.0713 17.4901 17.7841 17.7771C17.497 18.0642 17.2243 18.2418 16.8413 18.3906C16.5524 18.5034 16.1179 18.6367 15.3179 18.6732C14.453 18.7125 14.1933 18.7211 12.0026 18.7211C9.81183 18.7211 9.55215 18.7125 8.68732 18.6732C7.88738 18.6363 7.4532 18.5027 7.16375 18.3904C6.78092 18.2417 6.50739 18.064 6.22023 17.7769C5.93307 17.4898 5.75536 17.217 5.60629 16.834C5.49397 16.5452 5.36015 16.1111 5.32373 15.3113C5.28443 14.4465 5.27655 14.1868 5.27655 11.9961C5.27655 9.80558 5.28443 9.54718 5.32373 8.68241C5.36032 7.88261 5.49397 7.4485 5.60629 7.15934C5.75504 6.7765 5.93307 6.50309 6.22031 6.21598C6.50747 5.92887 6.78092 5.75111 7.16383 5.60214C7.45304 5.48934 7.88738 5.35604 8.68732 5.31929C9.44418 5.28509 9.73749 5.27483 11.2666 5.27311V5.27516ZM16.3821 6.63721C15.8386 6.63721 15.3976 7.07772 15.3976 7.62125C15.3976 8.16471 15.8386 8.60563 16.3821 8.60563C16.9257 8.60563 17.3667 8.16471 17.3667 7.62125C17.3667 7.0778 16.9257 6.63688 16.3821 6.63688V6.63721ZM12.0026 7.78737C9.6758 7.78737 7.78926 9.67359 7.78926 12.0001C7.78926 14.3266 9.6758 16.2119 12.0026 16.2119C14.3295 16.2119 16.2153 14.3266 16.2153 12.0001C16.2153 9.67368 14.3293 7.78737 12.0024 7.78737H12.0026ZM12.0026 9.26565C13.513 9.26565 14.7375 10.4898 14.7375 12.0001C14.7375 13.5102 13.513 14.7345 12.0026 14.7345C10.4921 14.7345 9.26779 13.5102 9.26779 12.0001C9.26779 10.4898 10.4921 9.26565 12.0026 9.26565Z" fill="white"/>
<defs>
<radialGradient id="paint0_radial_301_11537" cx="0" cy="0" r="1" gradientUnits="userSpaceOnUse" gradientTransform="translate(7.07905 24.1174) rotate(-90) scale(20.8126 19.3605)">
<stop stop-color="#FFDD55"/>
<stop offset="0.1" stop-color="#FFDD55"/>
<stop offset="0.5" stop-color="#FF543E"/>
<stop offset="1" stop-color="#C837AB"/>
</radialGradient>
<radialGradient id="paint1_radial_301_11537" cx="0" cy="0" r="1" gradientUnits="userSpaceOnUse" gradientTransform="translate(-2.01817 3.01274) rotate(78.6792) scale(9.30339 38.3547)">
<stop stop-color="#3771C8"/>
<stop offset="0.128" stop-color="#3771C8"/>
<stop offset="1" stop-color="#6600FF" stop-opacity="0"/>
</radialGradient>
</defs>
</svg>
