<svg width="34" height="38" viewBox="0 0 34 38" fill="none" xmlns="http://www.w3.org/2000/svg">
<path d="M31.9004 6.0249C31.3915 7.75862 30.5947 9.8493 29.3047 12.0576C26.7758 16.3841 23.5564 19.1063 21.4063 20.6282C22.4242 19.0082 23.659 16.5528 24.1838 13.3795C24.3771 12.2067 24.4441 11.1202 24.4402 10.1592C22.8344 10.1592 21.2288 10.1592 19.623 10.1592C20.5186 9.26094 22.2386 7.28012 22.9724 4.24413C23.3867 2.53001 23.3512 1.03945 23.2367 0H30.2158C30.1133 0.772725 29.8608 1.98479 29.1467 3.31058C28.4405 4.62853 27.5726 5.50713 26.9809 6.02097H31.9004V6.0249Z" fill="#1FE5A0"/>
<path d="M32.1891 11.2575C31.8774 11.8969 31.5421 12.5245 31.1831 13.1403C29.8891 15.3565 28.3229 17.3727 26.4962 19.177V20.7617H26.4725C26.4725 21.5933 26.366 22.3895 26.1608 23.1465C26.1293 23.2877 26.0899 23.4329 26.0426 23.5623C25.9597 23.8565 25.8532 24.1546 25.723 24.4292C25.6717 24.5429 25.6243 24.6528 25.5769 24.7587C25.4112 25.0999 25.2338 25.4333 25.0404 25.7432C23.3598 28.4105 20.3889 30.1873 16.992 30.1873C13.5952 30.1873 10.6246 28.4105 8.93995 25.7432C8.73874 25.4255 8.56117 25.0999 8.4073 24.7587C8.35996 24.6528 8.29689 24.5351 8.26533 24.4292C8.13119 24.1428 8.02455 23.8565 7.9417 23.5623C7.89436 23.4329 7.85893 23.2877 7.82342 23.1465C7.61827 22.3895 7.51173 21.5933 7.51173 20.7617H7.49998V18.82H7.51173C7.51173 17.9885 7.61827 17.1922 7.82342 16.4352C7.85893 16.294 7.89436 16.1488 7.9417 16.0194C8.02455 15.7252 8.13119 15.4389 8.26533 15.1565C8.29689 15.0467 8.35996 14.929 8.4073 14.8231C8.56117 14.4779 8.73874 14.1602 8.93995 13.8385C10.6246 11.1713 13.5952 9.39436 16.992 9.39436C17.1064 9.39436 17.2169 9.39437 17.3274 9.40221L18.081 8.6452C19.0436 7.68028 20.306 6.04853 20.8623 3.74213C20.9688 3.30673 21.0438 2.8635 21.0912 2.42026C19.7774 2.0947 18.4044 1.92603 16.992 1.92603C14.0804 1.92603 11.3386 2.64775 8.93995 3.92647C8.16668 4.34225 7.42898 4.81688 6.72673 5.36211C2.64736 8.43339 0 13.3168 0 18.82V20.7617C0 26.5983 2.97875 31.7407 7.49998 34.7766C7.96552 35.0983 8.44285 35.3925 8.93995 35.6553C11.3386 36.934 14.0804 37.6557 16.992 37.6557C19.9036 37.6557 22.6457 36.934 25.0404 35.6553C25.5415 35.3807 26.0307 35.0983 26.4962 34.7649C31.0135 31.7406 33.9842 26.5983 33.9842 20.7617V18.82C33.9842 16.0939 33.3371 13.5286 32.1891 11.2575Z" fill="#261D44"/>
</svg>
