<svg width="24" height="24" viewBox="0 0 24 24" fill="none" xmlns="http://www.w3.org/2000/svg">
<path d="M11.9996 0C5.24149 0 0 4.95363 0 11.6396C0 15.1384 1.43508 18.1624 3.76797 20.2505C3.96488 20.4235 4.0849 20.673 4.08958 20.9322L4.15663 23.0682C4.17585 23.7499 4.88143 24.1915 5.50544 23.9177L7.88615 22.8666C8.08775 22.7752 8.31325 22.7611 8.52938 22.8188C9.62363 23.1212 10.7901 23.2796 12.0043 23.2796C18.7625 23.2796 24.004 18.326 24.004 11.6401C24.004 4.9541 18.7578 0 11.9996 0Z" fill="url(#paint0_radial_301_11546)"/>
<path d="M4.79528 15.0433L8.31853 9.45159C8.88018 8.55894 10.0799 8.34281 10.9201 8.97151L13.7232 11.0737C13.9824 11.266 14.3326 11.266 14.5919 11.069L18.3791 8.19373C18.8831 7.80976 19.5455 8.41454 19.2047 8.95229L15.6815 14.544C15.1198 15.4366 13.9201 15.6528 13.0753 15.0241L10.2721 12.9219C10.0129 12.7296 9.65797 12.7296 9.40339 12.9265L5.6162 15.8019C5.1169 16.1854 4.45445 15.581 4.79528 15.0433Z" fill="white"/>
<defs>
<radialGradient id="paint0_radial_301_11546" cx="0" cy="0" r="1" gradientUnits="userSpaceOnUse" gradientTransform="translate(4.6203 23.8689) scale(26.1493 26.1493)">
<stop stop-color="#0099FF"/>
<stop offset="0.6098" stop-color="#A033FF"/>
<stop offset="0.9348" stop-color="#FF5280"/>
<stop offset="1" stop-color="#FF7061"/>
</radialGradient>
</defs>
</svg>
