<svg width="24" height="24" viewBox="0 0 24 24" fill="none" xmlns="http://www.w3.org/2000/svg">
<g clip-path="url(#clip0_301_11534)">
<path d="M12.002 0C8.81959 0 5.76471 1.26506 3.51621 3.51469C1.26539 5.76521 0.000623485 8.81734 0 12C0 15.1813 1.26584 18.2357 3.51621 20.4853C5.76471 22.7349 8.81959 24 12.002 24C15.1844 24 18.2393 22.7349 20.4878 20.4853C22.7381 18.2357 24.004 15.1813 24.004 12C24.004 8.81869 22.7381 5.76431 20.4878 3.51469C18.2393 1.26506 15.1844 0 12.002 0Z" fill="url(#paint0_linear_301_11534)"/>
<path d="M5.43297 11.8733C8.9323 10.3493 11.2652 9.34448 12.4316 8.85904C15.7659 7.47285 16.4579 7.2321 16.9099 7.22395C17.0093 7.22235 17.2306 7.24692 17.375 7.36364C17.495 7.46207 17.5287 7.5952 17.5456 7.68867C17.5606 7.78204 17.5812 7.99485 17.5644 8.16098C17.3843 10.0585 16.6023 14.6631 16.2048 16.7884C16.0379 17.6877 15.7059 17.9892 15.3852 18.0186C14.6876 18.0827 14.1588 17.5581 13.4837 17.1158C12.4279 16.4234 11.8315 15.9925 10.8057 15.3169C9.62054 14.5362 10.3894 14.107 11.0645 13.4057C11.2408 13.2222 14.3126 10.4294 14.3707 10.176C14.3782 10.1444 14.3857 10.0262 14.3144 9.96398C14.2451 9.90154 14.1419 9.92292 14.0669 9.93979C13.96 9.96379 12.2741 11.079 9.00356 13.2854C8.52536 13.6142 8.09216 13.7745 7.7021 13.7661C7.27452 13.7569 6.44939 13.5239 5.83616 13.3247C5.08604 13.0804 4.48781 12.9512 4.54032 12.5363C4.56658 12.3203 4.86475 12.0992 5.43297 11.8733Z" fill="white"/>
</g>
<defs>
<linearGradient id="paint0_linear_301_11534" x1="1200.2" y1="0" x2="1200.2" y2="2400" gradientUnits="userSpaceOnUse">
<stop stop-color="#2AABEE"/>
<stop offset="1" stop-color="#229ED9"/>
</linearGradient>
<clipPath id="clip0_301_11534">
<rect width="24.004" height="24" fill="white"/>
</clipPath>
</defs>
</svg>
