<svg width="24" height="24" viewBox="0 0 24 24" fill="none" xmlns="http://www.w3.org/2000/svg">
<path d="M21.0131 2.34092C20.4166 1.79061 18.0061 0.0409966 12.6368 0.0172266C12.6368 0.0172266 6.305 -0.364533 3.21836 2.46625C1.50015 4.18453 0.89572 6.69874 0.831963 9.81584C0.768206 12.9329 0.685717 18.7746 6.3176 20.3585H6.32301L6.31941 22.7755C6.31941 22.7755 6.28338 23.754 6.9278 23.9535C7.7073 24.1956 8.16476 23.4519 8.90896 22.6502C9.31744 22.2101 9.88152 21.5636 10.3066 21.0695C14.1583 21.3936 17.1207 20.6528 17.4571 20.5433C18.2348 20.2912 22.6355 19.7275 23.3512 13.8863C24.09 7.86563 22.9939 4.05739 21.0131 2.34092Z" fill="white"/>
<path d="M19.7606 3.55625C19.2563 3.09814 17.0796 1.73065 12.5377 1.71084C12.5377 1.71084 7.15939 1.35754 4.54859 3.72192C3.0955 5.1564 2.60597 7.28957 2.5523 9.89274C2.49863 12.4959 2.22055 17.4689 6.98289 18.7917C6.98289 18.7917 6.96416 22.4836 6.962 22.8081C6.962 23.035 6.99802 23.1902 7.12769 23.2223C7.22099 23.245 7.36075 23.1967 7.47962 23.0782C8.2411 22.3136 10.679 19.373 10.679 19.373C13.9501 19.5866 16.5526 18.9408 16.8325 18.8493C17.4924 18.6372 21.0617 18.3307 21.6658 13.4521C22.29 8.42333 21.4363 4.99073 19.7606 3.55625Z" fill="#7360F2"/>
<path d="M14.847 9.67937C14.7879 8.48871 14.183 7.86337 13.0322 7.80334" stroke="white" stroke-width="0.683116" stroke-linecap="round" stroke-linejoin="round"/>
<path d="M16.4051 10.2029C16.4291 9.09359 16.1005 8.1668 15.4192 7.42249C14.7348 6.67554 13.7875 6.26425 12.5718 6.17529" stroke="white" stroke-width="0.683116" stroke-linecap="round" stroke-linejoin="round"/>
<path d="M17.9998 10.8258C17.9851 8.90088 17.4099 7.38489 16.274 6.27779C15.1381 5.17069 13.7255 4.61125 12.0361 4.59949" stroke="white" stroke-width="0.683116" stroke-linecap="round" stroke-linejoin="round"/>
<path d="M13.0923 13.7469C13.0923 13.7469 13.5192 13.7829 13.749 13.4999L14.1971 12.9362C14.4132 12.6567 14.9348 12.4785 15.4456 12.763C15.8283 12.9813 16.2 13.2185 16.559 13.4739C16.898 13.7232 17.5921 14.3023 17.5942 14.3023C17.9249 14.5814 18.0013 14.9912 17.7761 15.4234C17.7761 15.4259 17.7743 15.4303 17.7743 15.4324C17.5264 15.8622 17.2116 16.2498 16.8418 16.5806C16.8374 16.5827 16.8374 16.5849 16.8335 16.5871C16.5122 16.8555 16.1965 17.0081 15.8865 17.0448C15.8408 17.0528 15.7944 17.0557 15.7482 17.0535C15.6115 17.0548 15.4754 17.0339 15.3454 16.9915L15.3354 16.9768C14.8577 16.8421 14.0602 16.505 12.7321 15.7724C11.9636 15.3535 11.2319 14.8702 10.5449 14.3278C10.2006 14.0561 9.87214 13.7649 9.56119 13.4556L9.52805 13.4224L9.49491 13.3893L9.46177 13.3562C9.4506 13.3454 9.4398 13.3342 9.42863 13.323C9.11924 13.0121 8.82795 12.6837 8.5562 12.3395C8.0138 11.6527 7.53047 10.9212 7.1114 10.153C6.37873 8.82475 6.04157 8.02809 5.90685 7.54981L5.89209 7.53973C5.84986 7.40974 5.82905 7.27375 5.83049 7.13708C5.82797 7.09082 5.83075 7.04442 5.83878 6.99878C5.87744 6.68929 6.03029 6.37344 6.29732 6.05123C6.29948 6.04727 6.30165 6.04727 6.30381 6.04294C6.63459 5.67318 7.02224 5.35854 7.45216 5.11087C7.45432 5.11087 7.45864 5.10871 7.46116 5.10871C7.89341 4.88362 8.30333 4.95997 8.58214 5.28879C8.5843 5.29095 9.16244 5.98496 9.41062 6.32386C9.66609 6.6832 9.90341 7.0551 10.1217 7.43817C10.4062 7.9485 10.2279 8.47108 9.94841 8.68645L9.38469 9.13448C9.10012 9.36425 9.13758 9.79103 9.13758 9.79103C9.13758 9.79103 9.97255 12.9506 13.0923 13.7469Z" fill="white"/>
</svg>
