<svg width="24" height="24" viewBox="0 0 24 24" fill="none" xmlns="http://www.w3.org/2000/svg">
<g clip-path="url(#clip0_301_11551)">
<path d="M12.0496 0.5196C15.0941 0.520798 17.951 1.70588 20.1 3.85605C22.2483 6.00681 23.4316 8.86491 23.4304 11.9052C23.428 18.1783 18.3221 23.2825 12.0496 23.2825H12.0448C10.1404 23.2819 8.26835 22.8041 6.60612 21.8972L0.572825 23.4797L2.1877 17.5843C1.19144 15.8591 0.667535 13.9014 0.668135 11.8962C0.671132 5.62318 5.77591 0.5196 12.0496 0.5196ZM12.0496 -0.079834C5.44622 -0.079834 0.0716982 5.29229 0.068701 11.8962C0.0681016 13.9145 0.57762 15.9035 1.54391 17.664L-0.00562863 23.3221C-0.0619754 23.5289 -0.00442981 23.7494 0.146627 23.9017C0.26052 24.0168 0.414574 24.0797 0.572825 24.0797C0.623777 24.0797 0.674728 24.0731 0.725081 24.06L6.53179 22.5374C8.22699 23.4174 10.1272 23.8819 12.0448 23.8825C18.6529 23.8825 24.0275 18.5098 24.0305 11.9058C24.0317 8.70547 22.7866 5.69631 20.525 3.43285C18.2621 1.16879 15.2524 -0.0786351 12.0496 -0.079834Z" fill="#CFD8DC"/>
<path d="M0.54248 23.5608L2.15762 17.6654C1.1612 15.9402 0.637207 13.9825 0.637806 11.9774C0.640804 5.70429 5.74643 0.600708 12.0211 0.600708C15.0662 0.601907 17.9235 1.78699 20.0729 3.93716C22.2216 6.08792 23.4051 8.94602 23.4039 11.9863C23.4015 18.2594 18.2947 23.3636 12.0211 23.3636H12.0163C10.1116 23.363 8.23929 22.8852 6.57678 21.9783L0.54248 23.5608Z" fill="white"/>
<path d="M0.543157 23.8598C0.464018 23.8598 0.387278 23.8287 0.330323 23.7711C0.255381 23.695 0.226004 23.5841 0.254182 23.4816L1.83635 17.7054C0.855514 15.9635 0.338116 13.9854 0.339315 11.9773C0.341714 5.53814 5.58223 0.300293 12.0218 0.300293C15.1454 0.301492 18.0801 1.51774 20.2858 3.72486C22.4915 5.93257 23.7055 8.8662 23.7043 11.9856C23.7019 18.4242 18.4608 23.6626 12.0218 23.6626C10.1099 23.662 8.21838 23.1903 6.53969 22.2977L0.619297 23.8496C0.594117 23.8568 0.568937 23.8598 0.543157 23.8598Z" fill="white"/>
<path d="M18.7134 5.29398C16.9268 3.50646 14.552 2.5216 12.0244 2.521C6.80606 2.521 2.56197 6.76259 2.55957 11.9765C2.55897 13.7634 3.05898 15.5029 4.00624 17.0093L4.23167 17.3672L3.27541 20.8565L6.85642 19.9178L7.20235 20.1228C8.65442 20.9847 10.3199 21.4403 12.0178 21.4409H12.0214C17.2361 21.4409 21.4802 17.1987 21.482 11.9843C21.4826 9.45764 20.5 7.08149 18.7134 5.29398Z" fill="#40C351"/>
<path fill-rule="evenodd" clip-rule="evenodd" d="M9.17584 7.22104C8.963 6.74749 8.73878 6.7379 8.53554 6.72951C8.36947 6.72231 8.18001 6.72291 7.99056 6.72291C7.80111 6.72291 7.49295 6.79425 7.23215 7.07898C6.97136 7.36371 6.23633 8.05126 6.23633 9.45034C6.23633 10.8494 7.25553 12.2017 7.39762 12.3912C7.53971 12.5806 9.36529 15.5436 12.2562 16.6837C14.6586 17.6308 15.1478 17.4426 15.6694 17.3952C16.191 17.3479 17.3523 16.7077 17.5891 16.0435C17.8259 15.3793 17.8259 14.8105 17.7552 14.6918C17.6838 14.5731 17.4944 14.5024 17.2102 14.3597C16.926 14.217 15.5273 13.5295 15.2665 13.4348C15.0057 13.3401 14.8162 13.2927 14.6262 13.5774C14.4367 13.8616 13.8918 14.5024 13.7257 14.6918C13.5596 14.8818 13.3936 14.9058 13.1094 14.7631C12.8252 14.6205 11.9091 14.3207 10.8222 13.352C9.97681 12.5986 9.40606 11.6676 9.23999 11.3829C9.07392 11.0988 9.222 10.9447 9.36469 10.8027C9.49239 10.675 9.64887 10.4706 9.79156 10.3045C9.93365 10.1385 9.98101 10.0198 10.0757 9.83038C10.1705 9.64036 10.1231 9.47431 10.0518 9.33225C9.98161 9.18958 9.42884 7.78331 9.17584 7.22104Z" fill="white"/>
</g>
<defs>
<clipPath id="clip0_301_11551">
<rect width="24.004" height="24" fill="white"/>
</clipPath>
</defs>
</svg>
