<svg width="145" height="30" viewBox="0 0 145 30" fill="none" xmlns="http://www.w3.org/2000/svg">
<path d="M142.444 4.8C142.041 6.18125 141.409 7.84687 140.388 9.60625C138.384 13.0531 135.834 15.2219 134.131 16.4344C134.938 15.1437 135.916 13.1875 136.331 10.6594C136.484 9.725 136.537 8.85938 136.534 8.09376C135.262 8.09376 133.991 8.09376 132.719 8.09376C133.428 7.37813 134.791 5.80002 135.372 3.38127C135.7 2.01565 135.672 0.828125 135.581 0H141.109C141.028 0.615625 140.828 1.58127 140.262 2.63752C139.703 3.68752 139.016 4.38749 138.547 4.79687H142.444V4.8Z" fill="#8C64F0"/>
<path d="M20.9813 2.50635V22.3845C19.5719 21.7751 18.3844 20.747 17.5751 19.4563C17.4251 19.2095 17.2813 18.9438 17.1469 18.672C17.1094 18.5876 17.075 18.5001 17.0375 18.4063C16.9313 18.1876 16.8469 17.9501 16.7813 17.7157C16.7407 17.6126 16.7156 17.5001 16.6875 17.3876C16.525 16.7813 16.4406 16.147 16.4406 15.4876H10.4813C10.4813 16.1501 10.3969 16.7845 10.2344 17.3876C10.2062 17.5001 10.1782 17.6157 10.1407 17.7157C10.0751 17.9501 9.99059 18.1782 9.88434 18.4063C9.85621 18.4907 9.81243 18.5845 9.77493 18.672C9.64993 18.9438 9.5063 19.2001 9.34692 19.4563C8.53755 20.747 7.3532 21.7751 5.9407 22.3845V2.50635H0V28.947H2.96875C3.9875 28.947 4.98438 28.8376 5.9375 28.622C7.14062 28.3501 8.28747 27.9188 9.34372 27.3501C10.9375 26.4938 12.3343 25.322 13.4593 23.922C14.5812 25.3251 15.9812 26.4938 17.5719 27.3501C18.6281 27.9188 19.775 28.3501 20.9781 28.622C21.9375 28.8376 22.9312 28.947 23.9468 28.947H26.9156V2.50635H20.975H20.9813Z" fill="#261D44"/>
<path d="M51.2125 2.50635V11.9938C50.8437 11.7438 50.4626 11.5126 50.0688 11.3001C48.1688 10.2814 45.9968 9.70323 43.6937 9.70323C41.3906 9.70323 39.2156 10.2782 37.3187 11.3001C36.925 11.5126 36.5438 11.7438 36.1751 11.9938V2.50635H30.2344V28.9438H36.1751V23.1626H36.1844C36.1844 22.5001 36.2688 21.8689 36.4313 21.2626C36.4594 21.1501 36.4875 21.0345 36.525 20.9313C36.5906 20.6938 36.6751 20.4688 36.7813 20.2407C36.8094 20.1563 36.8563 20.0626 36.8938 19.9751C37.0156 19.7001 37.1594 19.447 37.3187 19.1907C38.65 17.0657 41.0031 15.6501 43.6937 15.6501C46.3843 15.6501 48.7376 17.0657 50.0688 19.1907C50.2188 19.4376 50.3625 19.7001 50.4938 19.9751C50.5313 20.0595 50.5687 20.1438 50.6062 20.2407C50.7094 20.4595 50.7938 20.6938 50.8626 20.9313C50.9001 21.0345 50.9281 21.1501 50.9563 21.2626C51.1156 21.8657 51.2032 22.5001 51.2032 23.1626H51.2125V28.9438H57.1532V2.50635H51.2125Z" fill="#261D44"/>
<path d="M66.4095 2.5531H60.4688V28.9906H66.4095V2.5531Z" fill="#261D44"/>
<path d="M114.163 2.55005H108.222V28.9875H114.163V2.55005Z" fill="#261D44"/>
<path d="M142.672 8.96877C142.425 9.47815 142.16 9.97816 141.875 10.4688C140.85 12.2344 139.61 13.8407 138.163 15.2782V16.5407H138.144C138.144 17.2032 138.06 17.8375 137.897 18.4407C137.872 18.5532 137.841 18.6688 137.803 18.7719C137.738 19.0063 137.653 19.2438 137.55 19.4625C137.51 19.5532 137.472 19.6407 137.435 19.725C137.303 19.9969 137.163 20.2625 137.01 20.5094C135.678 22.6344 133.325 24.05 130.635 24.05C127.944 24.05 125.591 22.6344 124.257 20.5094C124.097 20.2563 123.957 19.9969 123.835 19.725C123.797 19.6407 123.747 19.5469 123.722 19.4625C123.616 19.2344 123.532 19.0063 123.466 18.7719C123.428 18.6688 123.4 18.5532 123.372 18.4407C123.21 17.8375 123.125 17.2032 123.125 16.5407H123.116V14.9938H123.125C123.125 14.3313 123.21 13.6969 123.372 13.0938C123.4 12.9813 123.428 12.8657 123.466 12.7625C123.532 12.5282 123.616 12.3 123.722 12.075C123.747 11.9875 123.797 11.8938 123.835 11.8094C123.957 11.5344 124.097 11.2813 124.257 11.025C125.591 8.90005 127.944 7.4844 130.635 7.4844C130.725 7.4844 130.813 7.4844 130.9 7.49065L131.497 6.88755C132.26 6.1188 133.26 4.8188 133.7 2.9813C133.785 2.63443 133.844 2.2813 133.882 1.92818C132.841 1.6688 131.753 1.53442 130.635 1.53442C128.328 1.53442 126.157 2.10942 124.257 3.12817C123.644 3.45942 123.06 3.83755 122.504 4.27193C119.272 6.7188 117.175 10.6094 117.175 14.9938V16.5407C117.175 21.1907 119.535 25.2875 123.116 27.7063C123.485 27.9625 123.863 28.1969 124.257 28.4063C126.157 29.425 128.328 30 130.635 30C132.941 30 135.113 29.425 137.01 28.4063C137.407 28.1875 137.794 27.9625 138.163 27.6969C141.741 25.2875 144.094 21.1907 144.094 16.5407V14.9938C144.094 12.8219 143.581 10.7781 142.672 8.96877Z" fill="#261D44"/>
<path d="M102.194 13.553C103.695 13.553 104.913 12.3358 104.913 10.8342C104.913 9.33273 103.695 8.11548 102.194 8.11548C100.692 8.11548 99.4751 9.33273 99.4751 10.8342C99.4751 12.3358 100.692 13.553 102.194 13.553Z" fill="#261D44"/>
<path d="M93.2248 17.0157C95.4967 13.5063 96.0186 10.1282 96.1655 8.44698C96.2467 7.43448 96.2967 6.33447 96.2842 5.15947C96.2748 4.22197 96.2311 3.33447 96.1655 2.50635H69.7187V8.44698H90.2468C89.6999 12.5751 87.9217 15.1001 87.0186 16.2063C87.0186 16.2063 83.6155 20.3751 76.1905 22.2001C75.1405 22.4595 74.0311 22.6438 74.0311 22.6438C73.428 22.7438 73.0124 22.797 73.0124 22.797C71.9312 22.9313 70.8312 23.0001 69.7124 23.0001V28.9438H96.1592V23.0032H86.9593C88.3999 22.1563 91.0718 20.3313 93.2218 17.0157H93.2248Z" fill="#261D44"/>
</svg>
