<svg width="87" height="96" viewBox="0 0 87 96" fill="none" xmlns="http://www.w3.org/2000/svg">
<path d="M81.5898 28.7001C80.7998 30.3301 79.95 31.9301 79.04 33.5001C75.76 39.1501 71.7902 44.2901 67.1602 48.8901V52.9302H67.1001C67.1001 55.0502 66.8301 57.0801 66.3101 59.0101C66.2301 59.3701 66.1303 59.7402 66.0103 60.0702C65.8003 60.8202 65.5302 61.5802 65.2002 62.2802C65.0702 62.5702 64.9501 62.8501 64.8301 63.1201C64.4101 63.9901 63.9602 64.8401 63.4702 65.6301C59.2102 72.4301 51.6798 76.9601 43.0698 76.9601C34.4598 76.9601 26.9302 72.4301 22.6602 65.6301C22.1502 64.8201 21.7001 63.9901 21.3101 63.1201C21.1901 62.8501 21.0302 62.5502 20.9502 62.2802C20.6102 61.5502 20.3399 60.8202 20.1299 60.0702C20.0099 59.7402 19.9201 59.3701 19.8301 59.0101C19.3101 57.0801 19.04 55.0502 19.04 52.9302H19.0103V47.9801H19.04C19.04 45.8601 19.3101 43.8301 19.8301 41.9001C19.9201 41.5401 20.0099 41.1701 20.1299 40.8401C20.3399 40.0901 20.6102 39.3601 20.9502 38.6401C21.0302 38.3601 21.1901 38.0602 21.3101 37.7902C21.7001 36.9102 22.1502 36.1002 22.6602 35.2802C26.9302 28.4802 34.4598 23.9501 43.0698 23.9501C43.3598 23.9501 43.6399 23.9501 43.9199 23.9701L45.8301 22.0402C48.2701 19.5802 51.4699 15.4202 52.8799 9.54016C53.1499 8.43016 53.34 7.30017 53.46 6.17017C50.13 5.34017 46.6498 4.91016 43.0698 4.91016C35.6898 4.91016 28.7402 6.75013 22.6602 10.0101C20.7002 11.0701 18.8303 12.2802 17.0503 13.6702C6.71029 21.5002 0 33.9501 0 47.9801V52.9302C0 67.8102 7.55025 80.9202 19.0103 88.6602C20.1903 89.4802 21.4002 90.2301 22.6602 90.9001C28.7402 94.1601 35.6898 96.0001 43.0698 96.0001C50.4498 96.0001 57.4002 94.1601 63.4702 90.9001C64.7402 90.2001 65.9802 89.4801 67.1602 88.6301C78.6102 80.9201 86.1401 67.8102 86.1401 52.9302V47.9801C86.1401 41.0301 84.4998 34.4901 81.5898 28.7001Z" fill="#261D44"/>
<path d="M80.8579 15.36C79.5679 19.78 77.5483 25.11 74.2783 30.74C67.8683 41.77 59.7083 48.71 54.2583 52.59C56.8383 48.46 59.9683 42.2 61.2983 34.11C61.7883 31.12 61.9582 28.35 61.9482 25.9C57.8782 25.9 53.8083 25.9 49.7383 25.9C52.0083 23.61 56.368 18.5601 58.228 10.8201C59.278 6.45007 59.1879 2.65 58.8979 0H76.5879C76.3279 1.97 75.6879 5.06006 73.8779 8.44006C72.0879 11.8001 69.8882 14.04 68.3882 15.35H80.8579V15.36Z" fill="#1FE5A0"/>
</svg>
