<svg width="87" height="97" viewBox="0 0 87 97" fill="none" xmlns="http://www.w3.org/2000/svg">
<path d="M81.5898 28.7899C80.7998 30.4199 79.95 32.02 79.04 33.59C75.76 39.24 71.7902 44.38 67.1602 48.98V53.02H67.1001C67.1001 55.14 66.8301 57.17 66.3101 59.1C66.2301 59.46 66.1303 59.83 66.0103 60.16C65.8003 60.91 65.5302 61.67 65.2002 62.37C65.0702 62.66 64.9501 62.94 64.8301 63.21C64.4101 64.08 63.9602 64.93 63.4702 65.72C59.2102 72.52 51.6798 77.0499 43.0698 77.0499C34.4598 77.0499 26.9302 72.52 22.6602 65.72C22.1502 64.91 21.7001 64.08 21.3101 63.21C21.1901 62.94 21.0302 62.64 20.9502 62.37C20.6102 61.64 20.3399 60.91 20.1299 60.16C20.0099 59.83 19.9201 59.46 19.8301 59.1C19.3101 57.17 19.04 55.14 19.04 53.02H19.0103V48.0699H19.04C19.04 45.9499 19.3101 43.92 19.8301 41.99C19.9201 41.63 20.0099 41.2599 20.1299 40.9299C20.3399 40.1799 20.6102 39.45 20.9502 38.73C21.0302 38.45 21.1901 38.15 21.3101 37.88C21.7001 37 22.1502 36.19 22.6602 35.37C26.9302 28.57 34.4598 24.0399 43.0698 24.0399C43.3598 24.0399 43.6399 24.0399 43.9199 24.0599L45.8301 22.13C48.2701 19.67 51.4699 15.51 52.8799 9.63C53.1499 8.52 53.34 7.39001 53.46 6.26001C50.13 5.43001 46.6498 5 43.0698 5C35.6898 5 28.7402 6.83998 22.6602 10.1C20.7002 11.16 18.8303 12.37 17.0503 13.76C6.71029 21.59 0 34.0399 0 48.0699V53.02C0 67.9 7.55025 81.01 19.0103 88.75C20.1903 89.57 21.4002 90.32 22.6602 90.99C28.7402 94.25 35.6898 96.09 43.0698 96.09C50.4498 96.09 57.4002 94.25 63.4702 90.99C64.7402 90.29 65.9802 89.57 67.1602 88.72C78.6102 81.01 86.1401 67.9 86.1401 53.02V48.0699C86.1401 41.1199 84.4998 34.5799 81.5898 28.7899Z" fill="#EAEAE9"/>
<path d="M80.8579 15.4498C79.5679 19.8698 77.5483 25.1998 74.2783 30.8298C67.8683 41.8598 59.7083 48.7998 54.2583 52.6798C56.8383 48.5498 59.9683 42.2898 61.2983 34.1998C61.7883 31.2098 61.9582 28.4399 61.9482 25.9899C57.8782 25.9899 53.8083 25.9899 49.7383 25.9899C52.0083 23.6999 56.368 18.6499 58.228 10.9099C59.278 6.53991 59.1879 2.73984 58.8979 0.0898438H76.5879C76.3279 2.05984 75.6879 5.14991 73.8779 8.52991C72.0879 11.8899 69.8882 14.1298 68.3882 15.4398H80.8579V15.4498Z" fill="#1FE5A0"/>
</svg>
