<svg width="137" height="111" viewBox="0 0 137 111" fill="none" xmlns="http://www.w3.org/2000/svg">
<g filter="url(#filter0_bd_949_40064)">
<rect x="11" y="12" width="113" height="88" rx="10.2412" fill="#F3F6FD"/>
<rect x="11.4515" y="12.4515" width="112.097" height="87.0969" rx="9.78972" stroke="white" stroke-width="0.903056"/>
</g>
<g filter="url(#filter1_dd_949_40064)">
<rect x="17.8276" y="19.0703" width="98.9987" height="47.7925" rx="6.8275" fill="white" shape-rendering="crispEdges"/>
<path d="M39.1038 30.5011H39.795V36.8848H39.1038V30.5011ZM43.8455 30.5011C44.4315 30.5011 44.9549 30.6291 45.4158 30.8851C45.8823 31.1354 46.2465 31.5024 46.5082 31.986C46.7699 32.464 46.9008 33.0329 46.9008 33.6929C46.9008 34.3472 46.7671 34.9162 46.4997 35.3998C46.2322 35.8777 45.8653 36.2447 45.3987 36.5007C44.9379 36.7568 44.4173 36.8848 43.8369 36.8848H41.379V30.5011H43.8455ZM43.8369 36.2874C44.2978 36.2874 44.7074 36.1878 45.0659 35.9887C45.4243 35.7895 45.7031 35.4965 45.9022 35.1096C46.1071 34.717 46.2095 34.2448 46.2095 33.6929C46.2095 33.141 46.1099 32.6716 45.9108 32.2847C45.7116 31.8922 45.4329 31.5963 45.0744 31.3972C44.7217 31.198 44.3149 31.0985 43.854 31.0985H42.0703V36.2874H43.8369Z" fill="#344054"/>
<path d="M44.5265 48.984H43.2566L42.7548 51.0834H44.0861L43.9427 51.7286H42.6114L42.0993 53.8588H41.4234L41.9252 51.7286H40.3276L39.8258 53.8588H39.1396L39.6517 51.7286H38.392L38.5456 51.0834H39.8053L40.3071 48.984H38.986L39.1396 48.3388H40.4607L40.9728 46.1984H41.6487L41.1264 48.3388H42.7343L43.2463 46.1984H43.9223L43.4204 48.3388H44.6801L44.5265 48.984ZM42.0788 51.0834L42.5807 48.984H40.9728L40.4812 51.0834H42.0788ZM47.5974 46.1062C48.2802 46.1062 48.8093 46.2974 49.1848 46.6797C49.5672 47.0552 49.7583 47.5775 49.7583 48.2466C49.7583 48.8406 49.632 49.3629 49.3794 49.8135C49.1268 50.2641 48.7479 50.7523 48.2426 51.278L46.4504 53.1112H49.8607V53.8588H45.3546V53.2034L47.6077 50.8479C48.0856 50.3358 48.4236 49.9023 48.6216 49.5473C48.8264 49.1854 48.9288 48.7621 48.9288 48.2773C48.9288 47.8404 48.8127 47.4922 48.5806 47.2327C48.3553 46.9733 48.0276 46.8436 47.5974 46.8436C47.14 46.8436 46.7884 46.9835 46.5426 47.2635C46.3036 47.5434 46.1773 47.9394 46.1637 48.4514L45.3341 48.4105C45.3478 47.6799 45.5492 47.1133 45.9383 46.7104C46.3343 46.3076 46.8874 46.1062 47.5974 46.1062ZM53.1907 49.1786C53.6345 49.1786 54.0271 49.2742 54.3685 49.4653C54.7167 49.6497 54.9864 49.9194 55.1775 50.2744C55.3687 50.6294 55.4643 51.0493 55.4643 51.5341C55.4643 52.0052 55.3687 52.4251 55.1775 52.7937C54.9932 53.1556 54.7201 53.4389 54.3583 53.6438C54.0032 53.8486 53.5799 53.951 53.0883 53.951C52.3783 53.951 51.8184 53.7598 51.4088 53.3775C50.9991 52.9883 50.767 52.4558 50.7124 51.7799L51.5521 51.7286C51.6068 52.1997 51.7604 52.565 52.013 52.8245C52.2724 53.0839 52.6309 53.2136 53.0883 53.2136C53.5799 53.2136 53.9623 53.06 54.2354 52.7528C54.5085 52.4387 54.645 52.0359 54.645 51.5443C54.645 51.0596 54.505 50.6704 54.2251 50.3768C53.9452 50.0764 53.5765 49.9262 53.1191 49.9262C52.8528 49.9262 52.6104 49.9672 52.3919 50.0491C52.1803 50.131 51.972 50.2539 51.7672 50.4178H50.9889V46.1779H55.1775V46.9153H51.8184V49.6087C52.2144 49.322 52.6719 49.1786 53.1907 49.1786ZM58.7888 46.1062C59.4715 46.1062 60.0007 46.2974 60.3762 46.6797C60.7585 47.0552 60.9497 47.5775 60.9497 48.2466C60.9497 48.8406 60.8234 49.3629 60.5708 49.8135C60.3181 50.2641 59.9392 50.7523 59.434 51.278L57.6418 53.1112H61.0521V53.8588H56.546V53.2034L58.799 50.8479C59.277 50.3358 59.6149 49.9023 59.8129 49.5473C60.0177 49.1854 60.1201 48.7621 60.1201 48.2773C60.1201 47.8404 60.0041 47.4922 59.7719 47.2327C59.5466 46.9733 59.2189 46.8436 58.7888 46.8436C58.3313 46.8436 57.9797 46.9835 57.7339 47.2635C57.495 47.5434 57.3687 47.9394 57.355 48.4514L56.5255 48.4105C56.5391 47.6799 56.7405 47.1133 57.1297 46.7104C57.5257 46.3076 58.0787 46.1062 58.7888 46.1062ZM64.2695 46.1062C64.9522 46.1062 65.4813 46.2974 65.8568 46.6797C66.2392 47.0552 66.4304 47.5775 66.4304 48.2466C66.4304 48.8406 66.304 49.3629 66.0514 49.8135C65.7988 50.2641 65.4199 50.7523 64.9147 51.278L63.1224 53.1112H66.5328V53.8588H62.0266V53.2034L64.2797 50.8479C64.7576 50.3358 65.0956 49.9023 65.2936 49.5473C65.4984 49.1854 65.6008 48.7621 65.6008 48.2773C65.6008 47.8404 65.4847 47.4922 65.2526 47.2327C65.0273 46.9733 64.6996 46.8436 64.2695 46.8436C63.812 46.8436 63.4604 46.9835 63.2146 47.2635C62.9756 47.5434 62.8493 47.9394 62.8357 48.4514L62.0061 48.4105C62.0198 47.6799 62.2212 47.1133 62.6104 46.7104C63.0064 46.3076 63.5594 46.1062 64.2695 46.1062ZM69.9652 53.951C69.4804 53.951 69.0435 53.852 68.6543 53.654C68.272 53.4492 67.9681 53.159 67.7428 52.7835C67.5244 52.408 67.4151 51.9744 67.4151 51.4829C67.4151 50.8957 67.5858 50.3666 67.9272 49.8955L70.7333 46.1984H71.7164L69.5453 49.0659C69.7501 49.0318 69.9379 49.0147 70.1086 49.0147C70.566 49.0352 70.9757 49.1479 71.3375 49.3527C71.6994 49.5575 71.9827 49.8443 72.1875 50.2129C72.3992 50.5816 72.505 51.0049 72.505 51.4829C72.505 51.9744 72.3924 52.408 72.1671 52.7835C71.9486 53.159 71.6482 53.4492 71.2658 53.654C70.8835 53.852 70.4499 53.951 69.9652 53.951ZM68.2651 51.4624C68.2651 51.9949 68.4222 52.4216 68.7362 52.7425C69.0503 53.0566 69.46 53.2136 69.9652 53.2136C70.4568 53.2136 70.8596 53.0532 71.1737 52.7323C71.4945 52.4114 71.655 51.9881 71.655 51.4624C71.655 50.923 71.4945 50.4963 71.1737 50.1822C70.8596 49.8682 70.4568 49.7111 69.9652 49.7111C69.3712 49.7111 68.9206 49.9125 68.6133 50.3154C68.3812 50.6021 68.2651 50.9844 68.2651 51.4624ZM75.7806 46.1062C76.4565 46.1062 76.9891 46.294 77.3782 46.6695C77.7674 47.0382 77.962 47.5434 77.962 48.1852C77.962 48.6153 77.8562 48.9806 77.6445 49.281C77.4397 49.5746 77.1768 49.776 76.8559 49.8852C77.2451 49.9808 77.5592 50.189 77.7981 50.5099C78.0371 50.824 78.1566 51.2234 78.1566 51.7082C78.1566 52.3977 77.9415 52.9439 77.5114 53.3468C77.0813 53.7496 76.5112 53.951 75.8011 53.951C75.0774 53.951 74.5107 53.7564 74.101 53.3672C73.6914 52.9713 73.4593 52.4216 73.4046 51.7184L74.2444 51.6774C74.299 52.1622 74.4561 52.5411 74.7155 52.8142C74.975 53.0805 75.3368 53.2136 75.8011 53.2136C76.2722 53.2136 76.6409 53.0805 76.9072 52.8142C77.1803 52.5411 77.3168 52.169 77.3168 51.6979C77.3168 51.2337 77.1734 50.8786 76.8867 50.6328C76.5999 50.387 76.2142 50.2641 75.7294 50.2641H74.9818V49.537H75.7192C76.1356 49.537 76.4736 49.4141 76.7331 49.1683C76.9925 48.9225 77.1222 48.5948 77.1222 48.1852C77.1222 47.7619 76.9993 47.4342 76.7535 47.202C76.5146 46.9631 76.1903 46.8436 75.7806 46.8436C75.3573 46.8436 75.0193 46.9733 74.7667 47.2327C74.5209 47.4854 74.3844 47.8404 74.3571 48.2978L73.5275 48.2466C73.5617 47.5775 73.7733 47.0552 74.1625 46.6797C74.5585 46.2974 75.0979 46.1062 75.7806 46.1062Z" fill="#475467"/>
<g clip-path="url(#clip0_949_40064)">
<path d="M85.5336 51.6863C85.0034 51.6863 84.7383 51.6863 84.5292 51.5997C84.2503 51.4842 84.0288 51.2627 83.9133 50.9839C83.8267 50.7747 83.8267 50.5096 83.8267 49.9794V46.1105C83.8267 45.4732 83.8267 45.1546 83.9507 44.9112C84.0598 44.6971 84.2339 44.523 84.448 44.4139C84.6914 44.2899 85.0101 44.2899 85.6474 44.2899H89.5163C90.0465 44.2899 90.3116 44.2899 90.5207 44.3765C90.7995 44.492 91.0211 44.7135 91.1365 44.9923C91.2232 45.2014 91.2232 45.4665 91.2232 45.9967M89.6301 55.669H93.3852C94.0225 55.669 94.3411 55.669 94.5846 55.545C94.7987 55.4359 94.9727 55.2618 95.0818 55.0477C95.2059 54.8043 95.2059 54.4856 95.2059 53.8484V50.0932C95.2059 49.4559 95.2059 49.1373 95.0818 48.8939C94.9727 48.6798 94.7987 48.5057 94.5846 48.3966C94.3411 48.2726 94.0225 48.2726 93.3852 48.2726H89.6301C88.9928 48.2726 88.6741 48.2726 88.4307 48.3966C88.2166 48.5057 88.0425 48.6798 87.9334 48.8939C87.8094 49.1373 87.8094 49.4559 87.8094 50.0932V53.8484C87.8094 54.4856 87.8094 54.8043 87.9334 55.0477C88.0425 55.2618 88.2166 55.4359 88.4307 55.545C88.6741 55.669 88.9928 55.669 89.6301 55.669Z" stroke="#475467" stroke-width="0.853437" stroke-linecap="round" stroke-linejoin="round"/>
</g>
</g>
<path d="M40.312 87.08C39.9333 87.08 39.6027 87 39.32 86.84C39.0427 86.68 38.8293 86.456 38.68 86.168C38.5307 85.88 38.456 85.552 38.456 85.184C38.456 84.8107 38.5253 84.48 38.664 84.192C38.808 83.8987 39.0053 83.672 39.256 83.512C39.512 83.3467 39.8027 83.264 40.128 83.264C40.4 83.264 40.6427 83.3227 40.856 83.44C41.0747 83.5573 41.2427 83.72 41.36 83.928H41.416C41.3787 83.704 41.36 83.496 41.36 83.304L41.376 82.624C41.3813 82.272 41.2853 82.0053 41.088 81.824C40.8907 81.6427 40.6373 81.552 40.328 81.552C40.0293 81.552 39.7867 81.6347 39.6 81.8C39.4187 81.9653 39.3227 82.1653 39.312 82.4L38.48 82.376C38.4853 82.1093 38.568 81.864 38.728 81.64C38.888 81.416 39.1067 81.24 39.384 81.112C39.6667 80.9787 39.9787 80.912 40.32 80.912C40.672 80.912 40.9893 80.984 41.272 81.128C41.5547 81.2667 41.776 81.4667 41.936 81.728C42.096 81.9893 42.176 82.288 42.176 82.624V85.184C42.176 85.552 42.1013 85.88 41.952 86.168C41.8027 86.456 41.5867 86.68 41.304 86.84C41.0213 87 40.6907 87.08 40.312 87.08ZM39.296 85.176C39.296 85.5653 39.3893 85.8747 39.576 86.104C39.768 86.328 40.016 86.44 40.32 86.44C40.6293 86.44 40.88 86.3333 41.072 86.12C41.264 85.9067 41.36 85.6267 41.36 85.28V85.072C41.36 84.704 41.264 84.4187 41.072 84.216C40.88 84.008 40.6293 83.904 40.32 83.904C40.0053 83.904 39.7547 84.016 39.568 84.24C39.3867 84.464 39.296 84.776 39.296 85.176ZM43.5744 87C43.4464 86.68 43.3504 86.3813 43.2864 86.104C43.2224 85.8213 43.1904 85.5173 43.1904 85.192C43.1904 84.76 43.2624 84.4 43.4064 84.112C43.5504 83.824 43.7424 83.6107 43.9824 83.472C44.2224 83.3333 44.489 83.264 44.7824 83.264C45.0917 83.264 45.3637 83.3387 45.5984 83.488C45.833 83.6373 45.9957 83.88 46.0864 84.216H46.1424C46.233 83.8853 46.3957 83.6453 46.6304 83.496C46.8704 83.3413 47.1424 83.264 47.4464 83.264C47.7397 83.264 48.0037 83.3333 48.2384 83.472C48.4784 83.6053 48.6677 83.8107 48.8064 84.088C48.9504 84.3653 49.0224 84.7067 49.0224 85.112C49.0224 85.3573 49.001 85.5813 48.9584 85.784C48.9157 85.9867 48.849 86.1893 48.7584 86.392V86.408H49.7184L49.6624 87H47.8224C47.945 86.696 48.0357 86.4027 48.0944 86.12C48.153 85.8373 48.1824 85.5413 48.1824 85.232C48.1824 84.784 48.1024 84.4507 47.9424 84.232C47.7877 84.008 47.5824 83.896 47.3264 83.896C47.081 83.896 46.881 83.984 46.7264 84.16C46.577 84.3307 46.5024 84.6053 46.5024 84.984V86.096H45.7024V84.984C45.7024 84.6053 45.6277 84.3307 45.4784 84.16C45.329 83.984 45.1317 83.896 44.8864 83.896C44.625 83.896 44.4144 84.0053 44.2544 84.224C44.0944 84.4427 44.0144 84.776 44.0144 85.224C44.0144 85.528 44.0437 85.824 44.1024 86.112C44.161 86.3947 44.257 86.6907 44.3904 87H43.5744ZM52.0854 87.08C51.7068 87.08 51.3761 87 51.0934 86.84C50.8161 86.68 50.6028 86.456 50.4534 86.168C50.3041 85.88 50.2294 85.552 50.2294 85.184C50.2294 84.8107 50.2988 84.48 50.4374 84.192C50.5814 83.8987 50.7788 83.672 51.0294 83.512C51.2854 83.3467 51.5761 83.264 51.9014 83.264C52.1734 83.264 52.4161 83.3227 52.6294 83.44C52.8481 83.5573 53.0161 83.72 53.1334 83.928H53.1894C53.1521 83.704 53.1334 83.496 53.1334 83.304L53.1494 82.624C53.1548 82.272 53.0588 82.0053 52.8614 81.824C52.6641 81.6427 52.4108 81.552 52.1014 81.552C51.8028 81.552 51.5601 81.6347 51.3734 81.8C51.1921 81.9653 51.0961 82.1653 51.0854 82.4L50.2534 82.376C50.2588 82.1093 50.3414 81.864 50.5014 81.64C50.6614 81.416 50.8801 81.24 51.1574 81.112C51.4401 80.9787 51.7521 80.912 52.0934 80.912C52.4454 80.912 52.7628 80.984 53.0454 81.128C53.3281 81.2667 53.5494 81.4667 53.7094 81.728C53.8694 81.9893 53.9494 82.288 53.9494 82.624V85.184C53.9494 85.552 53.8748 85.88 53.7254 86.168C53.5761 86.456 53.3601 86.68 53.0774 86.84C52.7948 87 52.4641 87.08 52.0854 87.08ZM51.0694 85.176C51.0694 85.5653 51.1628 85.8747 51.3494 86.104C51.5414 86.328 51.7894 86.44 52.0934 86.44C52.4028 86.44 52.6534 86.3333 52.8454 86.12C53.0374 85.9067 53.1334 85.6267 53.1334 85.28V85.072C53.1334 84.704 53.0374 84.4187 52.8454 84.216C52.6534 84.008 52.4028 83.904 52.0934 83.904C51.7788 83.904 51.5281 84.016 51.3414 84.24C51.1601 84.464 51.0694 84.776 51.0694 85.176ZM56.895 83.344C56.8897 83.5147 56.9323 83.6613 57.023 83.784C57.119 83.9013 57.263 84.0453 57.455 84.216C57.6203 84.36 57.7537 84.488 57.855 84.6C57.9617 84.7067 58.0497 84.8453 58.119 85.016C58.1937 85.1813 58.231 85.3787 58.231 85.608C58.231 85.9067 58.1537 86.168 57.999 86.392C57.8443 86.6107 57.6337 86.7813 57.367 86.904C57.1003 87.0213 56.807 87.08 56.487 87.08C56.1617 87.08 55.8657 87.0213 55.599 86.904C55.3377 86.7867 55.1297 86.616 54.975 86.392C54.8257 86.168 54.751 85.904 54.751 85.6C54.751 85.4613 54.7697 85.336 54.807 85.224L55.607 85.256C55.591 85.336 55.583 85.4267 55.583 85.528C55.583 85.8107 55.6657 86.0347 55.831 86.2C55.9963 86.3653 56.215 86.448 56.487 86.448C56.759 86.448 56.9803 86.3707 57.151 86.216C57.3217 86.0613 57.407 85.8507 57.407 85.584C57.407 85.376 57.3537 85.2053 57.247 85.072C57.1457 84.9333 56.9883 84.7787 56.775 84.608C56.6097 84.4693 56.479 84.3493 56.383 84.248C56.287 84.1467 56.207 84.0213 56.143 83.872C56.0843 83.7227 56.0603 83.5467 56.071 83.344H56.895ZM59.4494 87C59.1934 86.3333 59.0654 85.5467 59.0654 84.64C59.0654 83.776 59.22 83.096 59.5294 82.6C59.8387 82.0987 60.2094 81.7467 60.6414 81.544C61.0734 81.336 61.5507 81.1893 62.0734 81.104L63.2814 80.912V81.656L62.0414 81.856C61.5827 81.9253 61.1907 82.0373 60.8654 82.192C60.54 82.3413 60.2654 82.568 60.0414 82.872C59.8227 83.176 59.6734 83.5787 59.5934 84.08H59.6334C59.7667 83.792 59.932 83.584 60.1294 83.456C60.3267 83.328 60.556 83.264 60.8174 83.264C61.0787 83.264 61.316 83.3413 61.5294 83.496C61.748 83.6507 61.8947 83.8907 61.9694 84.216H62.0174C62.108 83.8907 62.2734 83.6507 62.5134 83.496C62.7534 83.3413 63.0227 83.264 63.3214 83.264C63.6147 83.264 63.8787 83.3333 64.1134 83.472C64.3534 83.6107 64.5427 83.824 64.6814 84.112C64.8254 84.4 64.8974 84.76 64.8974 85.192C64.8974 85.512 64.8654 85.8107 64.8014 86.088C64.7374 86.3653 64.6414 86.6693 64.5134 87H63.6974C63.8254 86.6907 63.9187 86.3947 63.9774 86.112C64.036 85.824 64.068 85.528 64.0734 85.224C64.068 84.7813 63.9854 84.4507 63.8254 84.232C63.6654 84.008 63.4574 83.896 63.2014 83.896C62.956 83.896 62.756 83.984 62.6014 84.16C62.452 84.3307 62.3774 84.6053 62.3774 84.984V86.096H61.5774V84.984C61.5774 84.6053 61.5027 84.3307 61.3534 84.16C61.2094 83.984 61.0147 83.896 60.7694 83.896C60.508 83.896 60.2974 84.0053 60.1374 84.224C59.9774 84.4427 59.8974 84.776 59.8974 85.224C59.8974 85.528 59.9267 85.824 59.9854 86.112C60.044 86.3947 60.1374 86.6907 60.2654 87H59.4494ZM67.6476 87.08C67.2956 87.08 66.9809 87.0027 66.7036 86.848C66.4262 86.688 66.2076 86.464 66.0476 86.176C65.8876 85.888 65.8076 85.552 65.8076 85.168C65.8076 84.7893 65.8849 84.456 66.0396 84.168C66.1996 83.88 66.4182 83.6587 66.6956 83.504C66.9729 83.344 67.2849 83.264 67.6316 83.264C67.9302 83.264 68.1996 83.32 68.4396 83.432C68.6849 83.544 68.8822 83.712 69.0316 83.936H69.0876C69.4449 83.488 69.8796 83.264 70.3916 83.264C70.8396 83.264 71.2049 83.4267 71.4876 83.752C71.7756 84.072 71.9196 84.552 71.9196 85.192C71.9196 85.5227 71.8849 85.8267 71.8156 86.104C71.7516 86.3813 71.6529 86.68 71.5196 87H70.7196C70.8422 86.696 70.9329 86.4027 70.9916 86.12C71.0502 85.8373 71.0796 85.5413 71.0796 85.232C71.0796 84.784 70.9996 84.4533 70.8396 84.24C70.6796 84.0213 70.4636 83.912 70.1916 83.912C69.8556 83.912 69.5622 84.0533 69.3116 84.336C69.4236 84.592 69.4796 84.872 69.4796 85.176C69.4796 85.5547 69.3996 85.888 69.2396 86.176C69.0796 86.464 68.8609 86.688 68.5836 86.848C68.3062 87.0027 67.9942 87.08 67.6476 87.08ZM66.6476 85.176C66.6476 85.576 66.7382 85.888 66.9196 86.112C67.1009 86.3307 67.3436 86.44 67.6476 86.44C67.9462 86.44 68.1862 86.3307 68.3676 86.112C68.5489 85.888 68.6396 85.576 68.6396 85.176C68.6396 84.776 68.5489 84.464 68.3676 84.24C68.1862 84.0107 67.9462 83.896 67.6476 83.896C67.3436 83.896 67.1009 84.0107 66.9196 84.24C66.7382 84.464 66.6476 84.776 66.6476 85.176ZM74.6636 89.488C74.2742 89.488 73.9356 89.408 73.6476 89.248C73.3596 89.0933 73.1409 88.88 72.9916 88.608C72.8422 88.3413 72.7676 88.0427 72.7676 87.712C72.7676 87.5307 72.7889 87.3573 72.8316 87.192L73.6316 87.232C73.6049 87.3653 73.5916 87.4987 73.5916 87.632C73.5916 88.0053 73.6876 88.2987 73.8796 88.512C74.0716 88.7307 74.3329 88.84 74.6636 88.84C74.9942 88.84 75.2529 88.7333 75.4396 88.52C75.6316 88.312 75.7276 88.0267 75.7276 87.664C75.7276 87.3067 75.6342 87.0293 75.4476 86.832C75.2609 86.6347 74.9942 86.536 74.6476 86.536H74.4636V85.872H74.6556C74.9862 85.872 75.2342 85.7867 75.3996 85.616C75.5702 85.44 75.6556 85.2 75.6556 84.896C75.6556 84.6133 75.5649 84.384 75.3836 84.208C75.2076 84.0267 74.9756 83.936 74.6876 83.936C74.4102 83.936 74.1836 84.024 74.0076 84.2C73.8369 84.3707 73.7516 84.6027 73.7516 84.896C73.7516 84.976 73.7596 85.064 73.7756 85.16L72.9436 85.184C72.9222 85.056 72.9116 84.944 72.9116 84.848C72.9116 84.5387 72.9889 84.264 73.1436 84.024C73.2982 83.784 73.5116 83.5973 73.7836 83.464C74.0556 83.3307 74.3569 83.264 74.6876 83.264C75.0236 83.264 75.3276 83.3333 75.5996 83.472C75.8769 83.6107 76.0929 83.8 76.2476 84.04C76.4076 84.28 76.4876 84.552 76.4876 84.856C76.4876 85.1867 76.3996 85.4667 76.2236 85.696C76.0529 85.9253 75.7942 86.0853 75.4476 86.176V86.232C75.8049 86.3013 76.0796 86.472 76.2716 86.744C76.4689 87.0107 76.5676 87.3387 76.5676 87.728C76.5676 88.048 76.4902 88.3413 76.3356 88.608C76.1862 88.88 75.9676 89.0933 75.6796 89.248C75.3916 89.408 75.0529 89.488 74.6636 89.488ZM77.7766 87C77.6539 86.68 77.5579 86.3787 77.4886 86.096C77.4246 85.8133 77.3926 85.52 77.3926 85.216C77.3926 84.8053 77.4699 84.4533 77.6246 84.16C77.7846 83.8667 78.0032 83.6453 78.2806 83.496C78.5579 83.3413 78.8752 83.264 79.2326 83.264C79.5952 83.264 79.9152 83.3413 80.1926 83.496C80.4752 83.6453 80.6939 83.8667 80.8486 84.16C81.0086 84.4533 81.0886 84.8053 81.0886 85.216C81.0886 85.52 81.0539 85.8133 80.9846 86.096C80.9206 86.3733 80.8246 86.6747 80.6966 87H79.9286C80.0406 86.6747 80.1232 86.376 80.1766 86.104C80.2299 85.832 80.2566 85.5467 80.2566 85.248C80.2566 84.8213 80.1659 84.4907 79.9846 84.256C79.8032 84.016 79.5526 83.896 79.2326 83.896C78.9126 83.896 78.6619 84.016 78.4806 84.256C78.3046 84.4907 78.2166 84.8213 78.2166 85.248C78.2166 85.5413 78.2432 85.8267 78.2966 86.104C78.3499 86.3813 78.4352 86.68 78.5526 87H77.7766ZM83.8384 87.088C83.4651 87.088 83.1398 87.0107 82.8624 86.856C82.5851 86.7013 82.3718 86.4853 82.2224 86.208C82.0784 85.9307 82.0064 85.6107 82.0064 85.248V81H82.8224V85.288C82.8224 85.6507 82.9158 85.936 83.1024 86.144C83.2891 86.3467 83.5318 86.448 83.8304 86.448C84.1238 86.448 84.3638 86.3493 84.5504 86.152C84.7371 85.9493 84.8304 85.6933 84.8304 85.384C84.8304 85.1973 84.8091 85.0373 84.7664 84.904C84.7238 84.7707 84.6598 84.616 84.5744 84.44C84.4838 84.2427 84.4144 84.0667 84.3664 83.912C84.3238 83.7573 84.3078 83.568 84.3184 83.344H85.1344C85.1291 83.5253 85.1478 83.6853 85.1904 83.824C85.2331 83.9573 85.2971 84.1093 85.3824 84.28C85.4784 84.4773 85.5504 84.6587 85.5984 84.824C85.6464 84.9893 85.6704 85.192 85.6704 85.432C85.6704 85.7307 85.5958 86.0053 85.4464 86.256C85.3024 86.5067 85.0918 86.7093 84.8144 86.864C84.5371 87.0133 84.2118 87.088 83.8384 87.088ZM88.7038 81.016H89.5358V87H88.7038V81.016ZM93.2904 81.016C93.845 81.016 94.341 81.136 94.7784 81.376C95.221 81.6107 95.565 81.9547 95.8104 82.408C96.061 82.8613 96.1864 83.3947 96.1864 84.008C96.1864 84.6213 96.061 85.1547 95.8104 85.608C95.5597 86.056 95.213 86.4 94.7704 86.64C94.333 86.88 93.837 87 93.2824 87H90.9304V81.016H93.2904ZM93.2904 86.288C93.6957 86.288 94.053 86.2027 94.3624 86.032C94.677 85.856 94.9224 85.5973 95.0984 85.256C95.2744 84.9093 95.3624 84.4933 95.3624 84.008C95.3624 83.5227 95.2744 83.1093 95.0984 82.768C94.9277 82.4213 94.6877 82.1627 94.3784 81.992C94.069 81.816 93.709 81.728 93.2984 81.728H91.7624V86.288H93.2904Z" fill="#567088"/>
<g filter="url(#filter2_d_949_40064)">
<rect x="113" y="2" width="20.4825" height="20.4825" rx="10.2412" fill="white" shape-rendering="crispEdges"/>
<rect x="113.427" y="2.42672" width="19.6291" height="19.6291" rx="9.81453" stroke="#F04438" stroke-opacity="0.3" stroke-width="0.853437" shape-rendering="crispEdges"/>
<path d="M127.509 7.97461L118.975 16.509" stroke="#F04438" stroke-width="1.28016" stroke-linecap="round" stroke-linejoin="round"/>
<path d="M118.975 7.97461L127.509 16.509" stroke="#F04438" stroke-width="1.28016" stroke-linecap="round" stroke-linejoin="round"/>
</g>
<defs>
<filter id="filter0_bd_949_40064" x="1.96944" y="4.77555" width="131.061" height="106.061" filterUnits="userSpaceOnUse" color-interpolation-filters="sRGB">
<feFlood flood-opacity="0" result="BackgroundImageFix"/>
<feGaussianBlur in="BackgroundImageFix" stdDeviation="2.25764"/>
<feComposite in2="SourceAlpha" operator="in" result="effect1_backgroundBlur_949_40064"/>
<feColorMatrix in="SourceAlpha" type="matrix" values="0 0 0 0 0 0 0 0 0 0 0 0 0 0 0 0 0 0 127 0" result="hardAlpha"/>
<feOffset dy="1.80611"/>
<feGaussianBlur stdDeviation="4.51528"/>
<feComposite in2="hardAlpha" operator="out"/>
<feColorMatrix type="matrix" values="0 0 0 0 0.427451 0 0 0 0 0.509804 0 0 0 0 0.698039 0 0 0 0.3 0"/>
<feBlend mode="normal" in2="effect1_backgroundBlur_949_40064" result="effect2_dropShadow_949_40064"/>
<feBlend mode="normal" in="SourceGraphic" in2="effect2_dropShadow_949_40064" result="shape"/>
</filter>
<filter id="filter1_dd_949_40064" x="0.758894" y="12.0016" width="133.136" height="81.93" filterUnits="userSpaceOnUse" color-interpolation-filters="sRGB">
<feFlood flood-opacity="0" result="BackgroundImageFix"/>
<feColorMatrix in="SourceAlpha" type="matrix" values="0 0 0 0 0 0 0 0 0 0 0 0 0 0 0 0 0 0 127 0" result="hardAlpha"/>
<feMorphology radius="3.41375" operator="erode" in="SourceAlpha" result="effect1_dropShadow_949_40064"/>
<feOffset dy="6.8275"/>
<feGaussianBlur stdDeviation="3.41375"/>
<feComposite in2="hardAlpha" operator="out"/>
<feColorMatrix type="matrix" values="0 0 0 0 0.0627451 0 0 0 0 0.0941176 0 0 0 0 0.156863 0 0 0 0.03 0"/>
<feBlend mode="normal" in2="BackgroundImageFix" result="effect1_dropShadow_949_40064"/>
<feColorMatrix in="SourceAlpha" type="matrix" values="0 0 0 0 0 0 0 0 0 0 0 0 0 0 0 0 0 0 127 0" result="hardAlpha"/>
<feMorphology radius="3.41375" operator="erode" in="SourceAlpha" result="effect2_dropShadow_949_40064"/>
<feOffset dy="10"/>
<feGaussianBlur stdDeviation="10.2412"/>
<feComposite in2="hardAlpha" operator="out"/>
<feColorMatrix type="matrix" values="0 0 0 0 0.0627451 0 0 0 0 0.0941176 0 0 0 0 0.156863 0 0 0 0.08 0"/>
<feBlend mode="normal" in2="effect1_dropShadow_949_40064" result="effect2_dropShadow_949_40064"/>
<feBlend mode="normal" in="SourceGraphic" in2="effect2_dropShadow_949_40064" result="shape"/>
</filter>
<filter id="filter2_d_949_40064" x="109.586" y="0.293126" width="27.31" height="27.31" filterUnits="userSpaceOnUse" color-interpolation-filters="sRGB">
<feFlood flood-opacity="0" result="BackgroundImageFix"/>
<feColorMatrix in="SourceAlpha" type="matrix" values="0 0 0 0 0 0 0 0 0 0 0 0 0 0 0 0 0 0 127 0" result="hardAlpha"/>
<feOffset dy="1.70687"/>
<feGaussianBlur stdDeviation="1.70687"/>
<feComposite in2="hardAlpha" operator="out"/>
<feColorMatrix type="matrix" values="0 0 0 0 0 0 0 0 0 0 0 0 0 0 0 0 0 0 0.1 0"/>
<feBlend mode="normal" in2="BackgroundImageFix" result="effect1_dropShadow_949_40064"/>
<feBlend mode="normal" in="SourceGraphic" in2="effect1_dropShadow_949_40064" result="shape"/>
</filter>
<clipPath id="clip0_949_40064">
<rect width="13.655" height="13.655" fill="white" transform="translate(82.6888 43.1519)"/>
</clipPath>
</defs>
</svg>
