<svg width="130" height="112" viewBox="0 0 130 112" fill="none" xmlns="http://www.w3.org/2000/svg">
<g filter="url(#filter0_bd_949_40131)">
<rect x="10.9324" y="12.242" width="105.826" height="88" rx="10.2412" fill="#F3F6FD"/>
<rect x="11.3839" y="12.6935" width="104.923" height="87.0969" rx="9.78972" stroke="white" stroke-width="0.903056"/>
</g>
<g filter="url(#filter1_dd_949_40131)">
<rect x="17.7603" y="19.0703" width="92.1712" height="47.7925" rx="6.8275" fill="white" shape-rendering="crispEdges"/>
<path d="M43.3633 33.5537H84.3283C86.9206 33.5537 89.0222 35.6552 89.0222 38.2476V47.6873C89.0222 50.2796 86.9207 52.3812 84.3283 52.3812H43.3633C40.7709 52.3812 38.6694 50.2796 38.6694 47.6873V38.2476C38.6694 35.6552 40.7709 33.5537 43.3633 33.5537Z" fill="#FFF4ED"/>
<path d="M43.3633 33.5537H84.3283C86.9206 33.5537 89.0222 35.6552 89.0222 38.2476V47.6873C89.0222 50.2796 86.9207 52.3812 84.3283 52.3812H43.3633C40.7709 52.3812 38.6694 50.2796 38.6694 47.6873V38.2476C38.6694 35.6552 40.7709 33.5537 43.3633 33.5537Z" stroke="#BA24D5" stroke-width="0.853437"/>
<g clip-path="url(#clip0_949_40131)">
<path d="M47.7726 44.5313H46.6347V41.1176H47.7726V44.5313ZM48.9105 37.1349H45.4968V38.2728H48.9105V37.1349ZM43.2209 43.9624C43.221 42.9893 43.5776 42.0499 44.2233 41.3219C44.869 40.5939 45.759 40.1277 46.7251 40.0114C47.6912 39.8951 48.6665 40.1368 49.4665 40.6908C50.2665 41.2448 50.8359 42.0726 51.0669 43.0179L51.4083 42.6765C51.5903 42.4944 51.8122 42.375 52.0398 42.3124C51.8562 41.7522 51.5729 41.2298 51.2034 40.7705L52.0113 39.9626C51.7553 39.6724 51.4992 39.4107 51.2091 39.1603L50.4012 39.9796C49.5193 39.2628 48.4098 38.8417 47.2036 38.8417C45.8456 38.8417 44.5431 39.3812 43.5828 40.3415C42.6225 41.3018 42.083 42.6043 42.083 43.9624C42.083 46.5966 44.0744 48.7643 46.6347 49.0488V47.8996C44.7059 47.6207 43.2209 45.9708 43.2209 43.9624ZM47.7726 47.9223V49.0829H48.9333L52.4209 45.6009L51.2603 44.4346L47.7726 47.9223ZM53.3768 44.2298L52.6258 43.4787C52.512 43.3649 52.3243 43.3649 52.2161 43.4787L51.6586 44.0363L52.8192 45.197L53.3768 44.6394C53.4906 44.5313 53.4906 44.3436 53.3768 44.2298Z" fill="#BA24D5"/>
</g>
<path d="M60.3157 38.6416C60.8688 38.6416 61.3501 38.7952 61.7598 39.1024C62.1694 39.4028 62.4835 39.8466 62.702 40.4338C62.9273 41.021 63.0399 41.731 63.0399 42.564C63.0399 43.3901 62.9273 44.1002 62.702 44.6941C62.4835 45.2813 62.1694 45.7285 61.7598 46.0358C61.3501 46.3362 60.8688 46.4864 60.3157 46.4864C59.7627 46.4864 59.278 46.3362 58.8615 46.0358C58.4518 45.7285 58.1344 45.2813 57.9091 44.6941C57.6906 44.1002 57.5813 43.3901 57.5813 42.564C57.5813 41.731 57.6906 41.021 57.9091 40.4338C58.1344 39.8466 58.4518 39.4028 58.8615 39.1024C59.278 38.7952 59.7627 38.6416 60.3157 38.6416ZM58.4314 42.564C58.4314 43.6017 58.5918 44.3937 58.9127 44.9399C59.2336 45.4793 59.6979 45.749 60.3055 45.749C60.92 45.749 61.3877 45.4793 61.7086 44.9399C62.0363 44.3937 62.2001 43.6017 62.2001 42.564C62.2001 41.5194 62.0363 40.7274 61.7086 40.188C61.3877 39.6486 60.92 39.3789 60.3055 39.3789C59.6979 39.3789 59.2336 39.652 58.9127 40.1982C58.5918 40.7376 58.4314 41.5262 58.4314 42.564ZM66.8965 38.6416C67.4496 38.6416 67.9309 38.7952 68.3406 39.1024C68.7502 39.4028 69.0643 39.8466 69.2828 40.4338C69.5081 41.021 69.6207 41.731 69.6207 42.564C69.6207 43.3901 69.5081 44.1002 69.2828 44.6941C69.0643 45.2813 68.7502 45.7285 68.3406 46.0358C67.9309 46.3362 67.4496 46.4864 66.8965 46.4864C66.3435 46.4864 65.8588 46.3362 65.4423 46.0358C65.0326 45.7285 64.7152 45.2813 64.4899 44.6941C64.2714 44.1002 64.1621 43.3901 64.1621 42.564C64.1621 41.731 64.2714 41.021 64.4899 40.4338C64.7152 39.8466 65.0326 39.4028 65.4423 39.1024C65.8588 38.7952 66.3435 38.6416 66.8965 38.6416ZM65.0122 42.564C65.0122 43.6017 65.1726 44.3937 65.4935 44.9399C65.8144 45.4793 66.2787 45.749 66.8863 45.749C67.5008 45.749 67.9685 45.4793 68.2894 44.9399C68.6171 44.3937 68.7809 43.6017 68.7809 42.564C68.7809 41.5194 68.6171 40.7274 68.2894 40.188C67.9685 39.6486 67.5008 39.3789 66.8863 39.3789C66.2787 39.3789 65.8144 39.652 65.4935 40.1982C65.1726 40.7376 65.0122 41.5262 65.0122 42.564ZM71.1526 41.0892C71.3096 41.0892 71.4428 41.1439 71.552 41.2531C71.6612 41.3623 71.7159 41.4955 71.7159 41.6525C71.7159 41.8095 71.6612 41.9427 71.552 42.0519C71.4428 42.1611 71.3096 42.2158 71.1526 42.2158C71.0024 42.2158 70.8727 42.1611 70.7634 42.0519C70.661 41.9427 70.6098 41.8095 70.6098 41.6525C70.6098 41.4955 70.661 41.3623 70.7634 41.2531C70.8727 41.1439 71.0024 41.0892 71.1526 41.0892ZM70.6098 45.9333C70.6098 45.7763 70.661 45.6466 70.7634 45.5442C70.8658 45.4349 70.9956 45.3803 71.1526 45.3803C71.3096 45.3803 71.4428 45.4349 71.552 45.5442C71.6612 45.6466 71.7159 45.7763 71.7159 45.9333C71.7159 46.0904 71.6612 46.2235 71.552 46.3327C71.4428 46.4352 71.3096 46.4864 71.1526 46.4864C70.9956 46.4864 70.8658 46.4352 70.7634 46.3327C70.661 46.2235 70.6098 46.0904 70.6098 45.9333ZM75.5276 38.6416C76.0806 38.6416 76.562 38.7952 76.9716 39.1024C77.3813 39.4028 77.6953 39.8466 77.9138 40.4338C78.1391 41.021 78.2518 41.731 78.2518 42.564C78.2518 43.3901 78.1391 44.1002 77.9138 44.6941C77.6953 45.2813 77.3813 45.7285 76.9716 46.0358C76.562 46.3362 76.0806 46.4864 75.5276 46.4864C74.9746 46.4864 74.4898 46.3362 74.0733 46.0358C73.6637 45.7285 73.3462 45.2813 73.1209 44.6941C72.9024 44.1002 72.7932 43.3901 72.7932 42.564C72.7932 41.731 72.9024 41.021 73.1209 40.4338C73.3462 39.8466 73.6637 39.4028 74.0733 39.1024C74.4898 38.7952 74.9746 38.6416 75.5276 38.6416ZM73.6432 42.564C73.6432 43.6017 73.8037 44.3937 74.1245 44.9399C74.4454 45.4793 74.9097 45.749 75.5174 45.749C76.1318 45.749 76.5995 45.4793 76.9204 44.9399C77.2481 44.3937 77.412 43.6017 77.412 42.564C77.412 41.5194 77.2481 40.7274 76.9204 40.188C76.5995 39.6486 76.1318 39.3789 75.5174 39.3789C74.9097 39.3789 74.4454 39.652 74.1245 40.1982C73.8037 40.7376 73.6432 41.5262 73.6432 42.564ZM82.1084 38.6416C82.6614 38.6416 83.1428 38.7952 83.5524 39.1024C83.9621 39.4028 84.2761 39.8466 84.4946 40.4338C84.7199 41.021 84.8326 41.731 84.8326 42.564C84.8326 43.3901 84.7199 44.1002 84.4946 44.6941C84.2761 45.2813 83.9621 45.7285 83.5524 46.0358C83.1428 46.3362 82.6614 46.4864 82.1084 46.4864C81.5554 46.4864 81.0706 46.3362 80.6541 46.0358C80.2445 45.7285 79.927 45.2813 79.7017 44.6941C79.4832 44.1002 79.374 43.3901 79.374 42.564C79.374 41.731 79.4832 41.021 79.7017 40.4338C79.927 39.8466 80.2445 39.4028 80.6541 39.1024C81.0706 38.7952 81.5554 38.6416 82.1084 38.6416ZM80.224 42.564C80.224 43.6017 80.3845 44.3937 80.7053 44.9399C81.0262 45.4793 81.4905 45.749 82.0982 45.749C82.7126 45.749 83.1803 45.4793 83.5012 44.9399C83.8289 44.3937 83.9928 43.6017 83.9928 42.564C83.9928 41.5194 83.8289 40.7274 83.5012 40.188C83.1803 39.6486 82.7126 39.3789 82.0982 39.3789C81.4905 39.3789 81.0262 39.652 80.7053 40.1982C80.3845 40.7376 80.224 41.5262 80.224 42.564Z" fill="#BA24D5"/>
</g>
<path d="M24.84 87C24.584 86.3333 24.456 85.5467 24.456 84.64C24.456 83.776 24.6107 83.096 24.92 82.6C25.2293 82.0987 25.6 81.7467 26.032 81.544C26.464 81.336 26.9413 81.1893 27.464 81.104L28.672 80.912V81.656L27.432 81.856C26.9733 81.9253 26.5813 82.0373 26.256 82.192C25.9307 82.3413 25.656 82.568 25.432 82.872C25.2133 83.176 25.064 83.5787 24.984 84.08H25.024C25.1573 83.792 25.3227 83.584 25.52 83.456C25.7173 83.328 25.9467 83.264 26.208 83.264C26.4693 83.264 26.7067 83.3413 26.92 83.496C27.1387 83.6507 27.2853 83.8907 27.36 84.216H27.408C27.4987 83.8907 27.664 83.6507 27.904 83.496C28.144 83.3413 28.4133 83.264 28.712 83.264C29.0053 83.264 29.2693 83.3333 29.504 83.472C29.744 83.6107 29.9333 83.824 30.072 84.112C30.216 84.4 30.288 84.76 30.288 85.192C30.288 85.512 30.256 85.8107 30.192 86.088C30.128 86.3653 30.032 86.6693 29.904 87H29.088C29.216 86.6907 29.3093 86.3947 29.368 86.112C29.4267 85.824 29.4587 85.528 29.464 85.224C29.4587 84.7813 29.376 84.4507 29.216 84.232C29.056 84.008 28.848 83.896 28.592 83.896C28.3467 83.896 28.1467 83.984 27.992 84.16C27.8427 84.3307 27.768 84.6053 27.768 84.984V86.096H26.968V84.984C26.968 84.6053 26.8933 84.3307 26.744 84.16C26.6 83.984 26.4053 83.896 26.16 83.896C25.8987 83.896 25.688 84.0053 25.528 84.224C25.368 84.4427 25.288 84.776 25.288 85.224C25.288 85.528 25.3173 85.824 25.376 86.112C25.4347 86.3947 25.528 86.6907 25.656 87H24.84ZM32.9355 89.488C32.5462 89.488 32.2128 89.408 31.9355 89.248C31.6635 89.088 31.4555 88.8667 31.3115 88.584C31.1728 88.3067 31.1035 87.9893 31.1035 87.632C31.1035 87.376 31.1408 87.128 31.2155 86.888L32.0315 86.92C31.9728 87.128 31.9435 87.3467 31.9435 87.576C31.9435 87.9867 32.0288 88.3013 32.1995 88.52C32.3755 88.7387 32.6235 88.848 32.9435 88.848C33.2582 88.848 33.5008 88.7387 33.6715 88.52C33.8422 88.3013 33.9275 87.992 33.9275 87.592V85.04C33.9275 84.64 33.8422 84.352 33.6715 84.176C33.5062 83.9947 33.2875 83.904 33.0155 83.904C32.7542 83.904 32.5435 83.9893 32.3835 84.16C32.2288 84.3307 32.1515 84.5867 32.1515 84.928C32.1515 85.04 32.1675 85.192 32.1995 85.384L31.3595 85.408C31.3222 85.2373 31.3035 85.0613 31.3035 84.88C31.3035 84.5493 31.3755 84.264 31.5195 84.024C31.6688 83.7787 31.8715 83.592 32.1275 83.464C32.3835 83.3307 32.6742 83.264 32.9995 83.264C33.5222 83.264 33.9408 83.4187 34.2555 83.728C34.5755 84.0373 34.7355 84.4693 34.7355 85.024V87.6C34.7355 88.1707 34.5808 88.6267 34.2715 88.968C33.9622 89.3147 33.5168 89.488 32.9355 89.488ZM39.7689 89.432C39.7049 89.1067 39.5262 88.848 39.2329 88.656C38.9395 88.4693 38.5929 88.376 38.1929 88.376H38.0489C37.8355 88.376 37.6302 88.3947 37.4329 88.432C37.2355 88.4747 37.0275 88.544 36.8089 88.64L36.5609 88.12C36.8329 87.9973 37.1982 87.9253 37.6569 87.904V87.856C37.0755 87.7173 36.6115 87.4267 36.2649 86.984C35.9235 86.536 35.7529 85.9787 35.7529 85.312C35.7529 84.8533 35.8302 84.472 35.9849 84.168C36.1395 83.8587 36.3449 83.632 36.6009 83.488C36.8569 83.3387 37.1369 83.264 37.4409 83.264C37.8995 83.264 38.2809 83.4613 38.5849 83.856H38.6409C38.7902 83.6693 38.9795 83.5253 39.2089 83.424C39.4435 83.3173 39.7049 83.264 39.9929 83.264C40.3289 83.264 40.6302 83.3387 40.8969 83.488C41.1689 83.6373 41.3822 83.8507 41.5369 84.128C41.6915 84.4 41.7689 84.72 41.7689 85.088C41.7689 85.44 41.6915 85.7547 41.5369 86.032C41.3822 86.3093 41.1662 86.5253 40.8889 86.68C40.6169 86.8347 40.3102 86.912 39.9689 86.912C39.6275 86.912 39.3182 86.8347 39.0409 86.68C38.7689 86.5253 38.5555 86.3093 38.4009 86.032C38.2462 85.7547 38.1689 85.44 38.1689 85.088C38.1689 84.7627 38.2275 84.4827 38.3449 84.248C38.1209 84.024 37.8675 83.912 37.5849 83.912C37.2862 83.912 37.0435 84.024 36.8569 84.248C36.6755 84.472 36.5849 84.824 36.5849 85.304C36.5849 85.96 36.7582 86.4773 37.1049 86.856C37.4569 87.2347 37.9395 87.496 38.5529 87.64L38.8329 87.712C39.3289 87.8347 39.7289 88.04 40.0329 88.328C40.3422 88.6213 40.5235 88.9787 40.5769 89.4L39.7689 89.432ZM38.9929 85.088C38.9929 85.4453 39.0835 85.736 39.2649 85.96C39.4462 86.1787 39.6809 86.288 39.9689 86.288C40.2622 86.288 40.4969 86.1787 40.6729 85.96C40.8542 85.736 40.9449 85.4453 40.9449 85.088C40.9449 84.704 40.8569 84.408 40.6809 84.2C40.5049 83.9867 40.2675 83.88 39.9689 83.88C39.6755 83.88 39.4382 83.9867 39.2569 84.2C39.0809 84.4133 38.9929 84.7093 38.9929 85.088ZM44.7231 83.344C44.7178 83.5147 44.7605 83.6613 44.8511 83.784C44.9471 83.9013 45.0911 84.0453 45.2831 84.216C45.4485 84.36 45.5818 84.488 45.6831 84.6C45.7898 84.7067 45.8778 84.8453 45.9471 85.016C46.0218 85.1813 46.0591 85.3787 46.0591 85.608C46.0591 85.9067 45.9818 86.168 45.8271 86.392C45.6725 86.6107 45.4618 86.7813 45.1951 86.904C44.9285 87.0213 44.6351 87.08 44.3151 87.08C43.9898 87.08 43.6938 87.0213 43.4271 86.904C43.1658 86.7867 42.9578 86.616 42.8031 86.392C42.6538 86.168 42.5791 85.904 42.5791 85.6C42.5791 85.4613 42.5978 85.336 42.6351 85.224L43.4351 85.256C43.4191 85.336 43.4111 85.4267 43.4111 85.528C43.4111 85.8107 43.4938 86.0347 43.6591 86.2C43.8245 86.3653 44.0431 86.448 44.3151 86.448C44.5871 86.448 44.8085 86.3707 44.9791 86.216C45.1498 86.0613 45.2351 85.8507 45.2351 85.584C45.2351 85.376 45.1818 85.2053 45.0751 85.072C44.9738 84.9333 44.8165 84.7787 44.6031 84.608C44.4378 84.4693 44.3071 84.3493 44.2111 84.248C44.1151 84.1467 44.0351 84.0213 43.9711 83.872C43.9125 83.7227 43.8885 83.5467 43.8991 83.344H44.7231ZM48.5527 89.488C48.1634 89.488 47.83 89.408 47.5527 89.248C47.2807 89.088 47.0727 88.8667 46.9287 88.584C46.79 88.3067 46.7207 87.9893 46.7207 87.632C46.7207 87.376 46.758 87.128 46.8327 86.888L47.6487 86.92C47.59 87.128 47.5607 87.3467 47.5607 87.576C47.5607 87.9867 47.646 88.3013 47.8167 88.52C47.9927 88.7387 48.2407 88.848 48.5607 88.848C48.8754 88.848 49.118 88.7387 49.2887 88.52C49.4594 88.3013 49.5447 87.992 49.5447 87.592V85.072C49.5447 84.7093 49.454 84.424 49.2727 84.216C49.0914 84.008 48.8674 83.904 48.6007 83.904C48.35 83.904 48.1474 83.992 47.9927 84.168C47.8434 84.3387 47.7687 84.592 47.7687 84.928C47.7687 85.04 47.7847 85.192 47.8167 85.384L46.9767 85.408C46.9394 85.2373 46.9207 85.0613 46.9207 84.88C46.9207 84.5547 46.9847 84.2693 47.1127 84.024C47.2407 83.7787 47.414 83.592 47.6327 83.464C47.8514 83.3307 48.0967 83.264 48.3687 83.264C48.6354 83.264 48.8674 83.3227 49.0647 83.44C49.262 83.552 49.422 83.7147 49.5447 83.928H49.5927C49.5607 83.736 49.5447 83.528 49.5447 83.304V81.592H48.5847L48.6407 81H50.3527V87.6C50.3527 88.1707 50.198 88.6267 49.8887 88.968C49.5794 89.3147 49.134 89.488 48.5527 89.488ZM54.2089 89.48C53.6809 89.48 53.1983 89.36 52.7609 89.12C52.3289 88.8853 51.9823 88.5333 51.7209 88.064C51.4649 87.6 51.3369 87.04 51.3369 86.384C51.3369 85.776 51.4489 85.248 51.6729 84.8C51.8969 84.3467 52.2009 83.9947 52.5849 83.744C52.9689 83.488 53.4009 83.336 53.8809 83.288C53.8383 83.1173 53.8169 82.9467 53.8169 82.776V82.224H54.5929V82.776C54.5929 82.9467 54.5716 83.1173 54.5289 83.288C55.0089 83.336 55.4409 83.488 55.8249 83.744C56.2089 83.9947 56.5129 84.344 56.7369 84.792C56.9609 85.24 57.0729 85.7707 57.0729 86.384C57.0729 87.04 56.9449 87.6 56.6889 88.064C56.4329 88.5333 56.0863 88.8853 55.6489 89.12C55.2169 89.36 54.7369 89.48 54.2089 89.48ZM52.1849 86.384C52.1849 86.9227 52.2729 87.376 52.4489 87.744C52.6303 88.112 52.8729 88.3867 53.1769 88.568C53.4863 88.7547 53.8329 88.848 54.2169 88.848C54.5903 88.848 54.9289 88.7547 55.2329 88.568C55.5369 88.3867 55.7796 88.112 55.9609 87.744C56.1423 87.376 56.2329 86.9227 56.2329 86.384C56.2276 85.6267 56.0676 85.0427 55.7529 84.632C55.4436 84.2213 55.0249 83.984 54.4969 83.92C54.5663 84.1173 54.6009 84.3333 54.6009 84.568V86.296H53.8169V84.568C53.8169 84.3547 53.8489 84.1387 53.9129 83.92C53.3849 83.9893 52.9636 84.2293 52.6489 84.64C52.3343 85.0507 52.1796 85.632 52.1849 86.384ZM58.2453 87C58.1226 86.68 58.0266 86.3787 57.9573 86.096C57.8933 85.8133 57.8613 85.52 57.8613 85.216C57.8613 84.8053 57.9386 84.4533 58.0933 84.16C58.2533 83.8667 58.472 83.6453 58.7493 83.496C59.0266 83.3413 59.344 83.264 59.7013 83.264C60.064 83.264 60.384 83.3413 60.6613 83.496C60.944 83.6453 61.1626 83.8667 61.3173 84.16C61.4773 84.4533 61.5573 84.8053 61.5573 85.216C61.5573 85.52 61.5226 85.8133 61.4533 86.096C61.3893 86.3733 61.2933 86.6747 61.1653 87H60.3973C60.5093 86.6747 60.592 86.376 60.6453 86.104C60.6986 85.832 60.7253 85.5467 60.7253 85.248C60.7253 84.8213 60.6346 84.4907 60.4533 84.256C60.272 84.016 60.0213 83.896 59.7013 83.896C59.3813 83.896 59.1306 84.016 58.9493 84.256C58.7733 84.4907 58.6853 84.8213 58.6853 85.248C58.6853 85.5413 58.712 85.8267 58.7653 86.104C58.8186 86.3813 58.904 86.68 59.0213 87H58.2453ZM62.8088 87C62.5528 86.3333 62.4248 85.5467 62.4248 84.64C62.4248 83.776 62.5794 83.096 62.8888 82.6C63.1981 82.0987 63.5688 81.7467 64.0008 81.544C64.4328 81.336 64.9101 81.1893 65.4328 81.104L66.6408 80.912V81.656L65.4008 81.856C64.9421 81.9253 64.5501 82.0373 64.2248 82.192C63.8994 82.3413 63.6248 82.568 63.4008 82.872C63.1821 83.176 63.0328 83.5787 62.9528 84.08H62.9928C63.1261 83.792 63.2914 83.584 63.4888 83.456C63.6861 83.328 63.9154 83.264 64.1768 83.264C64.4381 83.264 64.6754 83.3413 64.8888 83.496C65.1074 83.6507 65.2541 83.8907 65.3288 84.216H65.3768C65.4674 83.8907 65.6328 83.6507 65.8728 83.496C66.1128 83.3413 66.3821 83.264 66.6808 83.264C66.9741 83.264 67.2381 83.3333 67.4728 83.472C67.7128 83.6107 67.9021 83.824 68.0408 84.112C68.1848 84.4 68.2568 84.76 68.2568 85.192C68.2568 85.512 68.2248 85.8107 68.1608 86.088C68.0968 86.3653 68.0008 86.6693 67.8728 87H67.0568C67.1848 86.6907 67.2781 86.3947 67.3368 86.112C67.3954 85.824 67.4274 85.528 67.4328 85.224C67.4274 84.7813 67.3448 84.4507 67.1848 84.232C67.0248 84.008 66.8168 83.896 66.5608 83.896C66.3154 83.896 66.1154 83.984 65.9608 84.16C65.8114 84.3307 65.7368 84.6053 65.7368 84.984V86.096H64.9368V84.984C64.9368 84.6053 64.8621 84.3307 64.7128 84.16C64.5688 83.984 64.3741 83.896 64.1288 83.896C63.8674 83.896 63.6568 84.0053 63.4968 84.224C63.3368 84.4427 63.2568 84.776 63.2568 85.224C63.2568 85.528 63.2861 85.824 63.3448 86.112C63.4034 86.3947 63.4968 86.6907 63.6248 87H62.8088ZM69.5669 86.04C69.7163 86.04 69.8416 86.0907 69.9429 86.192C70.0443 86.2933 70.0949 86.416 70.0949 86.56C70.0949 86.7093 70.0443 86.8347 69.9429 86.936C69.8416 87.032 69.7163 87.08 69.5669 87.08C69.4283 87.08 69.3083 87.0293 69.2069 86.928C69.1056 86.8267 69.0549 86.704 69.0549 86.56C69.0549 86.416 69.1056 86.2933 69.2069 86.192C69.3083 86.0907 69.4283 86.04 69.5669 86.04ZM74.8001 87.08C74.4215 87.08 74.0908 87 73.8081 86.84C73.5255 86.68 73.3095 86.456 73.1601 86.168C73.0108 85.88 72.9361 85.552 72.9361 85.184V81H73.7521L73.7441 83.304C73.7441 83.5333 73.7255 83.7413 73.6881 83.928H73.7441C73.8615 83.72 74.0268 83.56 74.2401 83.448C74.4535 83.3307 74.6961 83.2693 74.9681 83.264L75.4881 82.304L76.1361 82.504L75.5441 83.36C75.8855 83.4773 76.1548 83.6987 76.3521 84.024C76.5548 84.3493 76.6561 84.736 76.6561 85.184C76.6561 85.552 76.5815 85.88 76.4321 86.168C76.2828 86.456 76.0668 86.68 75.7841 86.84C75.5068 87 75.1788 87.08 74.8001 87.08ZM73.7521 85.28C73.7521 85.6267 73.8481 85.9067 74.0401 86.12C74.2321 86.3333 74.4828 86.44 74.7921 86.44C75.0961 86.44 75.3415 86.328 75.5281 86.104C75.7201 85.8747 75.8161 85.5653 75.8161 85.176C75.8161 84.776 75.7228 84.464 75.5361 84.24C75.3548 84.016 75.1068 83.904 74.7921 83.904C74.4828 83.904 74.2321 84.008 74.0401 84.216C73.8481 84.4187 73.7521 84.704 73.7521 85.072V85.28ZM79.6294 83.344C79.624 83.5147 79.6667 83.6613 79.7574 83.784C79.8534 83.9013 79.9974 84.0453 80.1894 84.216C80.3547 84.36 80.488 84.488 80.5894 84.6C80.696 84.7067 80.784 84.8453 80.8534 85.016C80.928 85.1813 80.9654 85.3787 80.9654 85.608C80.9654 85.9067 80.888 86.168 80.7334 86.392C80.5787 86.6107 80.368 86.7813 80.1014 86.904C79.8347 87.0213 79.5414 87.08 79.2214 87.08C78.896 87.08 78.6 87.0213 78.3334 86.904C78.072 86.7867 77.864 86.616 77.7094 86.392C77.56 86.168 77.4854 85.904 77.4854 85.6C77.4854 85.4613 77.504 85.336 77.5414 85.224L78.3414 85.256C78.3254 85.336 78.3174 85.4267 78.3174 85.528C78.3174 85.8107 78.4 86.0347 78.5654 86.2C78.7307 86.3653 78.9494 86.448 79.2214 86.448C79.4934 86.448 79.7147 86.3707 79.8854 86.216C80.056 86.0613 80.1414 85.8507 80.1414 85.584C80.1414 85.376 80.088 85.2053 79.9814 85.072C79.88 84.9333 79.7227 84.7787 79.5094 84.608C79.344 84.4693 79.2134 84.3493 79.1174 84.248C79.0214 84.1467 78.9414 84.0213 78.8774 83.872C78.8187 83.7227 78.7947 83.5467 78.8054 83.344H79.6294ZM83.6349 87.08C83.2563 87.08 82.9256 87 82.6429 86.84C82.3603 86.68 82.1443 86.456 81.9949 86.168C81.8456 85.88 81.7709 85.552 81.7709 85.184V82.464C81.7709 81.9893 81.9176 81.616 82.2109 81.344C82.5043 81.0667 82.9016 80.928 83.4029 80.928C83.5949 80.928 83.7976 80.9413 84.0109 80.968C84.2563 80.9893 84.4429 81 84.5709 81C84.8003 81 84.9949 80.9813 85.1549 80.944V81.656C85.0003 81.7147 84.8243 81.744 84.6269 81.744C84.4883 81.744 84.2909 81.7173 84.0349 81.664C84.0083 81.6587 83.9336 81.6453 83.8109 81.624C83.6936 81.6027 83.5763 81.592 83.4589 81.592C83.1869 81.592 82.9683 81.6667 82.8029 81.816C82.6429 81.9653 82.5656 82.184 82.5709 82.472L82.5869 83.304C82.5869 83.496 82.5683 83.704 82.5309 83.928H82.5869C82.7043 83.7147 82.8696 83.552 83.0829 83.44C83.3016 83.3227 83.5469 83.264 83.8189 83.264C84.1443 83.264 84.4323 83.3467 84.6829 83.512C84.9389 83.672 85.1363 83.8987 85.2749 84.192C85.4189 84.48 85.4909 84.8107 85.4909 85.184C85.4909 85.552 85.4163 85.88 85.2669 86.168C85.1176 86.456 84.9016 86.68 84.6189 86.84C84.3416 87 84.0136 87.08 83.6349 87.08ZM82.5869 85.28C82.5869 85.6267 82.6829 85.9067 82.8749 86.12C83.0669 86.3333 83.3176 86.44 83.6269 86.44C83.9309 86.44 84.1763 86.328 84.3629 86.104C84.5549 85.8747 84.6509 85.5653 84.6509 85.176C84.6509 84.776 84.5576 84.464 84.3709 84.24C84.1896 84.016 83.9416 83.904 83.6269 83.904C83.3176 83.904 83.0669 84.008 82.8749 84.216C82.6829 84.4187 82.5869 84.704 82.5869 85.072V85.28ZM88.1111 89.488C87.7271 89.488 87.3831 89.4027 87.0791 89.232C86.7805 89.0667 86.5458 88.8293 86.3751 88.52C86.2045 88.216 86.1191 87.864 86.1191 87.464C86.1191 87.096 86.1965 86.7627 86.3511 86.464C86.5058 86.16 86.7271 85.9173 87.0151 85.736C87.3031 85.5547 87.6418 85.456 88.0311 85.44C88.1111 85.4293 88.2045 85.4293 88.3111 85.44C88.4551 85.328 88.5698 85.208 88.6551 85.08C88.7458 84.9467 88.7911 84.792 88.7911 84.616C88.7911 84.3813 88.7245 84.2027 88.5911 84.08C88.4631 83.9573 88.2791 83.896 88.0391 83.896C87.8098 83.896 87.6258 83.9627 87.4871 84.096C87.3485 84.224 87.2738 84.4027 87.2631 84.632L86.4071 84.6C86.4338 84.2107 86.5938 83.8907 86.8871 83.64C87.1805 83.3893 87.5671 83.264 88.0471 83.264C88.3725 83.264 88.6551 83.32 88.8951 83.432C89.1351 83.544 89.3191 83.6987 89.4471 83.896C89.5751 84.088 89.6391 84.3067 89.6391 84.552C89.6391 84.776 89.5778 84.976 89.4551 85.152C89.3378 85.3227 89.1751 85.464 88.9671 85.576V85.632C89.3405 85.7813 89.6231 86.0187 89.8151 86.344C90.0071 86.664 90.1031 87.0347 90.1031 87.456C90.1031 87.856 90.0178 88.2107 89.8471 88.52C89.6765 88.8293 89.4391 89.0667 89.1351 89.232C88.8365 89.4027 88.4951 89.488 88.1111 89.488ZM86.9591 87.456C86.9591 87.888 87.0658 88.2267 87.2791 88.472C87.4925 88.7227 87.7698 88.848 88.1111 88.848C88.4471 88.848 88.7218 88.7227 88.9351 88.472C89.1538 88.2267 89.2631 87.888 89.2631 87.456C89.2631 87.0293 89.1538 86.6933 88.9351 86.448C88.7218 86.1973 88.4471 86.072 88.1111 86.072C87.7698 86.072 87.4925 86.1973 87.2791 86.448C87.0658 86.6933 86.9591 87.0293 86.9591 87.456ZM91.2541 87C90.9981 86.3333 90.8701 85.5467 90.8701 84.64C90.8701 83.776 91.0247 83.096 91.3341 82.6C91.6434 82.0987 92.0141 81.7467 92.4461 81.544C92.8781 81.336 93.3554 81.1893 93.8781 81.104L95.0861 80.912V81.656L93.8461 81.856C93.3874 81.9253 92.9954 82.0373 92.6701 82.192C92.3447 82.3413 92.0701 82.568 91.8461 82.872C91.6274 83.176 91.4781 83.5787 91.3981 84.08H91.4381C91.5714 83.792 91.7367 83.584 91.9341 83.456C92.1314 83.328 92.3607 83.264 92.6221 83.264C92.8834 83.264 93.1207 83.3413 93.3341 83.496C93.5527 83.6507 93.6994 83.8907 93.7741 84.216H93.8221C93.9127 83.8907 94.0781 83.6507 94.3181 83.496C94.5581 83.3413 94.8274 83.264 95.1261 83.264C95.4194 83.264 95.6834 83.3333 95.9181 83.472C96.1581 83.6107 96.3474 83.824 96.4861 84.112C96.6301 84.4 96.7021 84.76 96.7021 85.192C96.7021 85.512 96.6701 85.8107 96.6061 86.088C96.5421 86.3653 96.4461 86.6693 96.3181 87H95.5021C95.6301 86.6907 95.7234 86.3947 95.7821 86.112C95.8407 85.824 95.8727 85.528 95.8781 85.224C95.8727 84.7813 95.7901 84.4507 95.6301 84.232C95.4701 84.008 95.2621 83.896 95.0061 83.896C94.7607 83.896 94.5607 83.984 94.4061 84.16C94.2567 84.3307 94.1821 84.6053 94.1821 84.984V86.096H93.3821V84.984C93.3821 84.6053 93.3074 84.3307 93.1581 84.16C93.0141 83.984 92.8194 83.896 92.5741 83.896C92.3127 83.896 92.1021 84.0053 91.9421 84.224C91.7821 84.4427 91.7021 84.776 91.7021 85.224C91.7021 85.528 91.7314 85.824 91.7901 86.112C91.8487 86.3947 91.9421 86.6907 92.0701 87H91.2541ZM99.4683 87.08C99.0896 87.08 98.7589 87 98.4763 86.84C98.1989 86.68 97.9856 86.456 97.8363 86.168C97.6869 85.88 97.6123 85.552 97.6123 85.184C97.6123 84.8107 97.6816 84.48 97.8203 84.192C97.9643 83.8987 98.1616 83.672 98.4123 83.512C98.6683 83.3467 98.9589 83.264 99.2843 83.264C99.5616 83.264 99.8069 83.3227 100.02 83.44C100.239 83.5573 100.407 83.72 100.524 83.928H100.58C100.543 83.7413 100.524 83.5333 100.524 83.304L100.516 81H101.332V85.184C101.332 85.552 101.258 85.88 101.108 86.168C100.959 86.456 100.743 86.68 100.46 86.84C100.178 87 99.8469 87.08 99.4683 87.08ZM98.4523 85.176C98.4523 85.5653 98.5456 85.8747 98.7323 86.104C98.9243 86.328 99.1723 86.44 99.4763 86.44C99.7856 86.44 100.036 86.3333 100.228 86.12C100.42 85.9067 100.516 85.6267 100.516 85.28V85.072C100.516 84.704 100.42 84.4187 100.228 84.216C100.036 84.008 99.7856 83.904 99.4763 83.904C99.1616 83.904 98.9109 84.016 98.7243 84.24C98.5429 84.464 98.4523 84.776 98.4523 85.176ZM102.794 86.04C102.943 86.04 103.068 86.0907 103.17 86.192C103.271 86.2933 103.322 86.416 103.322 86.56C103.322 86.7093 103.271 86.8347 103.17 86.936C103.068 87.032 102.943 87.08 102.794 87.08C102.655 87.08 102.535 87.0293 102.434 86.928C102.332 86.8267 102.282 86.704 102.282 86.56C102.282 86.416 102.332 86.2933 102.434 86.192C102.535 86.0907 102.655 86.04 102.794 86.04Z" fill="#557186"/>
<g filter="url(#filter2_d_949_40131)">
<rect x="106" y="2" width="20.4825" height="20.4825" rx="10.2412" fill="white" shape-rendering="crispEdges"/>
<rect x="106.427" y="2.42672" width="19.6291" height="19.6291" rx="9.81453" stroke="#F04438" stroke-opacity="0.3" stroke-width="0.853437" shape-rendering="crispEdges"/>
<path d="M120.508 7.97443L111.974 16.5088" stroke="#F04438" stroke-width="1.28016" stroke-linecap="round" stroke-linejoin="round"/>
<path d="M111.974 7.97443L120.508 16.5088" stroke="#F04438" stroke-width="1.28016" stroke-linecap="round" stroke-linejoin="round"/>
</g>
<defs>
<filter id="filter0_bd_949_40131" x="1.90182" y="5.01756" width="123.887" height="106.061" filterUnits="userSpaceOnUse" color-interpolation-filters="sRGB">
<feFlood flood-opacity="0" result="BackgroundImageFix"/>
<feGaussianBlur in="BackgroundImageFix" stdDeviation="2.25764"/>
<feComposite in2="SourceAlpha" operator="in" result="effect1_backgroundBlur_949_40131"/>
<feColorMatrix in="SourceAlpha" type="matrix" values="0 0 0 0 0 0 0 0 0 0 0 0 0 0 0 0 0 0 127 0" result="hardAlpha"/>
<feOffset dy="1.80611"/>
<feGaussianBlur stdDeviation="4.51528"/>
<feComposite in2="hardAlpha" operator="out"/>
<feColorMatrix type="matrix" values="0 0 0 0 0.427451 0 0 0 0 0.509804 0 0 0 0 0.698039 0 0 0 0.3 0"/>
<feBlend mode="normal" in2="effect1_backgroundBlur_949_40131" result="effect2_dropShadow_949_40131"/>
<feBlend mode="normal" in="SourceGraphic" in2="effect2_dropShadow_949_40131" result="shape"/>
</filter>
<filter id="filter1_dd_949_40131" x="0.691512" y="12.0016" width="126.309" height="81.93" filterUnits="userSpaceOnUse" color-interpolation-filters="sRGB">
<feFlood flood-opacity="0" result="BackgroundImageFix"/>
<feColorMatrix in="SourceAlpha" type="matrix" values="0 0 0 0 0 0 0 0 0 0 0 0 0 0 0 0 0 0 127 0" result="hardAlpha"/>
<feMorphology radius="3.41375" operator="erode" in="SourceAlpha" result="effect1_dropShadow_949_40131"/>
<feOffset dy="6.8275"/>
<feGaussianBlur stdDeviation="3.41375"/>
<feComposite in2="hardAlpha" operator="out"/>
<feColorMatrix type="matrix" values="0 0 0 0 0.0627451 0 0 0 0 0.0941176 0 0 0 0 0.156863 0 0 0 0.03 0"/>
<feBlend mode="normal" in2="BackgroundImageFix" result="effect1_dropShadow_949_40131"/>
<feColorMatrix in="SourceAlpha" type="matrix" values="0 0 0 0 0 0 0 0 0 0 0 0 0 0 0 0 0 0 127 0" result="hardAlpha"/>
<feMorphology radius="3.41375" operator="erode" in="SourceAlpha" result="effect2_dropShadow_949_40131"/>
<feOffset dy="10"/>
<feGaussianBlur stdDeviation="10.2412"/>
<feComposite in2="hardAlpha" operator="out"/>
<feColorMatrix type="matrix" values="0 0 0 0 0.0627451 0 0 0 0 0.0941176 0 0 0 0 0.156863 0 0 0 0.08 0"/>
<feBlend mode="normal" in2="effect1_dropShadow_949_40131" result="effect2_dropShadow_949_40131"/>
<feBlend mode="normal" in="SourceGraphic" in2="effect2_dropShadow_949_40131" result="shape"/>
</filter>
<filter id="filter2_d_949_40131" x="102.586" y="0.293126" width="27.31" height="27.31" filterUnits="userSpaceOnUse" color-interpolation-filters="sRGB">
<feFlood flood-opacity="0" result="BackgroundImageFix"/>
<feColorMatrix in="SourceAlpha" type="matrix" values="0 0 0 0 0 0 0 0 0 0 0 0 0 0 0 0 0 0 127 0" result="hardAlpha"/>
<feOffset dy="1.70687"/>
<feGaussianBlur stdDeviation="1.70687"/>
<feComposite in2="hardAlpha" operator="out"/>
<feColorMatrix type="matrix" values="0 0 0 0 0 0 0 0 0 0 0 0 0 0 0 0 0 0 0.1 0"/>
<feBlend mode="normal" in2="BackgroundImageFix" result="effect1_dropShadow_949_40131"/>
<feBlend mode="normal" in="SourceGraphic" in2="effect1_dropShadow_949_40131" result="shape"/>
</filter>
<clipPath id="clip0_949_40131">
<rect width="11.9481" height="12.8016" fill="white" transform="translate(41.6562 36.5667)"/>
</clipPath>
</defs>
</svg>
