<svg width="171" height="112" viewBox="0 0 171 112" fill="none" xmlns="http://www.w3.org/2000/svg">
<g filter="url(#filter0_bd_949_40071)">
<rect x="11" y="13" width="147" height="88" rx="10.2412" fill="#F3F6FD"/>
<rect x="11.4515" y="13.4515" width="146.097" height="87.0969" rx="9.78972" stroke="white" stroke-width="0.903056"/>
</g>
<g filter="url(#filter1_dd_949_40071)">
<rect x="17.4033" y="20.0703" width="133.99" height="47.7925" rx="6.8275" fill="white" shape-rendering="crispEdges"/>
<path d="M40.301 37.9701C39.9368 37.9701 39.6097 37.8876 39.3195 37.7226C39.035 37.5576 38.8103 37.3215 38.6453 37.0143C38.4803 36.707 38.3978 36.3514 38.3978 35.9475C38.3978 35.5435 38.4775 35.1907 38.6368 34.8892C38.8018 34.582 39.0265 34.3458 39.311 34.1808C39.6012 34.0102 39.9283 33.9248 40.2924 33.9248C40.6054 33.9248 40.887 33.9874 41.1373 34.1126C41.3934 34.2321 41.5982 34.4141 41.7518 34.6588H41.803C42.0078 34.4027 42.2297 34.2178 42.4687 34.104C42.7077 33.9902 42.9523 33.9334 43.2027 33.9334C43.5042 33.9334 43.7773 34.0073 44.022 34.1552C44.2666 34.3032 44.4601 34.5279 44.6023 34.8295C44.7502 35.131 44.8242 35.5037 44.8242 35.9475C44.8242 36.2945 44.7872 36.6188 44.7132 36.9204C44.6393 37.2162 44.5283 37.5377 44.3804 37.8848H43.7147C43.857 37.5548 43.9594 37.2362 44.022 36.9289C44.0845 36.6217 44.1158 36.3002 44.1158 35.9645C44.1158 35.4695 44.0191 35.0997 43.8257 34.8551C43.6379 34.6047 43.3876 34.4796 43.0746 34.4796C42.665 34.4796 42.3065 34.6531 41.9993 35.0001C42.1302 35.3017 42.1956 35.6175 42.1956 35.9475C42.1956 36.3514 42.1131 36.707 41.9481 37.0143C41.7831 37.3215 41.5555 37.5576 41.2654 37.7226C40.9809 37.8876 40.6594 37.9701 40.301 37.9701ZM39.0976 35.9475C39.0976 36.414 39.2057 36.7781 39.4219 37.0399C39.6438 37.3016 39.9368 37.4324 40.301 37.4324C40.6537 37.4324 40.9382 37.3016 41.1544 37.0399C41.3763 36.7725 41.4872 36.4083 41.4872 35.9475C41.4872 35.4809 41.3763 35.1168 41.1544 34.8551C40.9382 34.5933 40.6537 34.4625 40.301 34.4625C39.9425 34.4625 39.6524 34.5962 39.4305 34.8636C39.2086 35.1253 39.0976 35.4866 39.0976 35.9475ZM47.897 34.0187C47.8913 34.2008 47.9396 34.3572 48.042 34.4881C48.1445 34.6189 48.3009 34.7726 48.5114 34.9489C48.6992 35.1083 48.8471 35.2476 48.9552 35.3671C49.0633 35.4809 49.1572 35.6288 49.2369 35.8109C49.3165 35.9873 49.3563 36.1921 49.3563 36.4254C49.3563 36.7326 49.2738 37.0057 49.1088 37.2447C48.9495 37.478 48.7333 37.6572 48.4602 37.7824C48.1871 37.9075 47.8884 37.9701 47.5641 37.9701C47.2284 37.9701 46.924 37.9075 46.6509 37.7824C46.3778 37.6572 46.1616 37.478 46.0023 37.2447C45.843 37.0057 45.7634 36.7241 45.7634 36.3998C45.7634 36.2575 45.7804 36.1267 45.8146 36.0072L46.4803 36.0328C46.4632 36.1238 46.4547 36.2263 46.4547 36.34C46.4547 36.6757 46.5542 36.9431 46.7534 37.1423C46.9582 37.3357 47.2256 37.4324 47.5556 37.4324C47.8799 37.4324 48.1445 37.3414 48.3493 37.1593C48.5598 36.9716 48.6651 36.7184 48.6651 36.3998C48.6651 36.1665 48.6053 35.9702 48.4858 35.8109C48.3663 35.6516 48.1871 35.4752 47.9482 35.2818C47.6921 35.0713 47.4987 34.8778 47.3678 34.7014C47.2427 34.5194 47.1886 34.2918 47.2057 34.0187H47.897ZM50.7174 37.8848C50.5809 37.532 50.4756 37.1593 50.4017 36.7668C50.3334 36.3685 50.2993 35.9133 50.2993 35.4013C50.2993 34.4625 50.4642 33.7285 50.7942 33.1994C51.1242 32.6646 51.5111 32.2919 51.9549 32.0814C52.4044 31.8709 52.9079 31.7144 53.4655 31.612L54.703 31.3986V32.0217L53.4058 32.2606C52.9165 32.346 52.4954 32.474 52.1427 32.6447C51.7899 32.8153 51.4884 33.0799 51.238 33.4384C50.9934 33.7968 50.8284 34.2776 50.743 34.8807H50.7772C51.0389 34.2434 51.4741 33.9248 52.0829 33.9248C52.3674 33.9248 52.6263 34.0102 52.8596 34.1808C53.0928 34.3458 53.2493 34.6047 53.329 34.9575H53.3802C53.4655 34.6047 53.6362 34.3458 53.8922 34.1808C54.1483 34.0102 54.4327 33.9248 54.7457 33.9248C55.0472 33.9248 55.3232 33.9988 55.5735 34.1467C55.8238 34.2946 56.023 34.5194 56.1709 34.8209C56.3188 35.1225 56.3928 35.4951 56.3928 35.9389C56.3928 36.2803 56.3587 36.5989 56.2904 36.8948C56.2221 37.1906 56.1168 37.5206 55.9746 37.8848H55.2833C55.5564 37.2418 55.693 36.5989 55.693 35.956C55.693 35.461 55.5963 35.0883 55.4028 34.838C55.215 34.5877 54.9704 34.4625 54.6688 34.4625C54.373 34.4625 54.134 34.5621 53.952 34.7612C53.7699 34.9603 53.6789 35.2818 53.6789 35.7256V36.9118H53.0132V35.7256C53.0132 35.2818 52.9221 34.9603 52.7401 34.7612C52.558 34.5621 52.3219 34.4625 52.0317 34.4625C51.7245 34.4625 51.4741 34.5877 51.2807 34.838C51.0929 35.0883 50.9991 35.461 50.9991 35.956C50.9991 36.5989 51.1356 37.2418 51.4087 37.8848H50.7174ZM57.784 37.8848C57.6474 37.532 57.5422 37.2049 57.4682 36.9033C57.3999 36.6018 57.3658 36.2917 57.3658 35.9731C57.3658 35.5463 57.4454 35.1794 57.6047 34.8721C57.7697 34.5649 57.9945 34.3316 58.279 34.1723C58.5691 34.0073 58.8991 33.9248 59.2689 33.9248C59.6331 33.9248 59.9602 34.0073 60.2504 34.1723C60.5406 34.3316 60.7653 34.5649 60.9246 34.8721C61.0896 35.1794 61.1721 35.5463 61.1721 35.9731C61.1721 36.2917 61.1351 36.5989 61.0612 36.8948C60.9929 37.1906 60.8905 37.5206 60.7539 37.8848H60.0968C60.2276 37.5263 60.3244 37.1992 60.3869 36.9033C60.4495 36.6075 60.4808 36.3002 60.4808 35.9816C60.4808 35.5094 60.3727 35.1395 60.1565 34.8721C59.9403 34.599 59.6445 34.4625 59.2689 34.4625C58.8934 34.4625 58.5976 34.599 58.3814 34.8721C58.1652 35.1395 58.0571 35.5094 58.0571 35.9816C58.0571 36.2945 58.0884 36.6046 58.1509 36.9118C58.2135 37.2134 58.3102 37.5377 58.4411 37.8848H57.784ZM66.2557 40.4792C66.1874 40.1094 66.0054 39.8164 65.7095 39.6002C65.4194 39.3897 65.078 39.2844 64.6854 39.2844H64.583C64.1278 39.2844 63.6812 39.3811 63.2431 39.5746L63.0297 39.1137C63.3142 38.9885 63.7011 38.9146 64.1904 38.8918V38.8406C63.5361 38.7041 63.0326 38.4054 62.6798 37.9445C62.3271 37.4837 62.1507 36.8777 62.1507 36.1267C62.1507 35.387 62.3072 34.838 62.6201 34.4796C62.933 34.1154 63.3284 33.9334 63.8064 33.9334C64.1307 33.9334 64.418 34.0159 64.6683 34.1808C64.9187 34.3402 65.0865 34.6019 65.1719 34.966H65.2231C65.3084 34.6076 65.4791 34.3458 65.7351 34.1808C65.9968 34.0159 66.2842 33.9334 66.5971 33.9334C66.8986 33.9334 67.1717 34.0073 67.4164 34.1552C67.6667 34.2975 67.8659 34.5165 68.0138 34.8124C68.1617 35.1026 68.2357 35.461 68.2357 35.8877C68.2357 36.2063 68.2129 36.5079 68.1674 36.7924C68.1219 37.0712 68.0536 37.3642 67.9626 37.6714L67.2713 37.6373C67.4477 37.1024 67.5359 36.525 67.5359 35.9048C67.5359 35.4382 67.4392 35.0826 67.2457 34.838C67.058 34.5933 66.8133 34.471 66.5118 34.471C66.2159 34.471 65.9769 34.5706 65.7949 34.7697C65.6185 34.9689 65.5303 35.2875 65.5303 35.7256V36.9118H64.8561V35.7256C64.8561 35.2818 64.7651 34.9632 64.583 34.7697C64.4066 34.5706 64.1733 34.471 63.8832 34.471C63.5702 34.471 63.3171 34.6047 63.1236 34.8721C62.9359 35.1339 62.842 35.5407 62.842 36.0925C62.842 36.8322 63.0127 37.4068 63.354 37.8165C63.7011 38.2261 64.2075 38.5049 64.8732 38.6529L65.1463 38.7126C65.664 38.8264 66.0765 39.0341 66.3837 39.3356C66.691 39.6428 66.8759 40.0127 66.9385 40.4451L66.2557 40.4792ZM69.6354 37.8848C69.4989 37.532 69.3936 37.2049 69.3196 36.9033C69.2514 36.6018 69.2172 36.2917 69.2172 35.9731C69.2172 35.5463 69.2969 35.1794 69.4562 34.8721C69.6212 34.5649 69.8459 34.3316 70.1304 34.1723C70.4206 34.0073 70.7506 33.9248 71.1204 33.9248C71.4845 33.9248 71.8117 34.0073 72.1018 34.1723C72.392 34.3316 72.6167 34.5649 72.776 34.8721C72.941 35.1794 73.0235 35.5463 73.0235 35.9731C73.0235 36.2917 72.9866 36.5989 72.9126 36.8948C72.8443 37.1906 72.7419 37.5206 72.6054 37.8848H71.9482C72.0791 37.5263 72.1758 37.1992 72.2384 36.9033C72.301 36.6075 72.3323 36.3002 72.3323 35.9816C72.3323 35.5094 72.2242 35.1395 72.008 34.8721C71.7918 34.599 71.4959 34.4625 71.1204 34.4625C70.7449 34.4625 70.449 34.599 70.2328 34.8721C70.0166 35.1395 69.9085 35.5094 69.9085 35.9816C69.9085 36.2945 69.9398 36.6046 70.0024 36.9118C70.065 37.2134 70.1617 37.5377 70.2925 37.8848H69.6354Z" fill="#344054"/>
<path d="M40.7123 46.2528C41.3951 46.2528 41.9242 46.4439 42.2997 46.8263C42.6821 47.2018 42.8732 47.7241 42.8732 48.3932C42.8732 48.9872 42.7469 49.5095 42.4943 49.9601C42.2417 50.4107 41.8628 50.8989 41.3575 51.4246L39.5653 53.2578H42.9756V54.0054H38.4695V53.35L40.7226 50.9945C41.2005 50.4824 41.5385 50.0489 41.7365 49.6938C41.9413 49.332 42.0437 48.9087 42.0437 48.4239C42.0437 47.987 41.9276 47.6388 41.6955 47.3793C41.4702 47.1199 41.1425 46.9901 40.7123 46.9901C40.2549 46.9901 39.9033 47.1301 39.6575 47.41C39.4185 47.69 39.2922 48.086 39.2786 48.598L38.449 48.5571C38.4627 47.8265 38.6641 47.2598 39.0532 46.857C39.4492 46.4542 40.0023 46.2528 40.7123 46.2528ZM46.6641 46.2528C47.2171 46.2528 47.6985 46.4064 48.1081 46.7136C48.5178 47.014 48.8318 47.4578 49.0503 48.045C49.2756 48.6322 49.3883 49.3422 49.3883 50.1752C49.3883 51.0013 49.2756 51.7114 49.0503 52.3054C48.8318 52.8925 48.5178 53.3397 48.1081 53.647C47.6985 53.9474 47.2171 54.0976 46.6641 54.0976C46.1111 54.0976 45.6263 53.9474 45.2098 53.647C44.8002 53.3397 44.4827 52.8925 44.2574 52.3054C44.0389 51.7114 43.9297 51.0013 43.9297 50.1752C43.9297 49.3422 44.0389 48.6322 44.2574 48.045C44.4827 47.4578 44.8002 47.014 45.2098 46.7136C45.6263 46.4064 46.1111 46.2528 46.6641 46.2528ZM44.7797 50.1752C44.7797 51.213 44.9401 52.0049 45.261 52.5511C45.5819 53.0905 46.0462 53.3602 46.6538 53.3602C47.2683 53.3602 47.736 53.0905 48.0569 52.5511C48.3846 52.0049 48.5485 51.213 48.5485 50.1752C48.5485 49.1306 48.3846 48.3386 48.0569 47.7992C47.736 47.2598 47.2683 46.9901 46.6538 46.9901C46.0462 46.9901 45.5819 47.2632 45.261 47.8094C44.9401 48.3488 44.7797 49.1374 44.7797 50.1752ZM52.7738 46.2528C53.4565 46.2528 53.9857 46.4439 54.3612 46.8263C54.7435 47.2018 54.9347 47.7241 54.9347 48.3932C54.9347 48.9872 54.8084 49.5095 54.5558 49.9601C54.3032 50.4107 53.9242 50.8989 53.419 51.4246L51.6268 53.2578H55.0371V54.0054H50.531V53.35L52.784 50.9945C53.262 50.4824 53.5999 50.0489 53.7979 49.6938C54.0027 49.332 54.1052 48.9087 54.1052 48.4239C54.1052 47.987 53.9891 47.6388 53.757 47.3793C53.5316 47.1199 53.2039 46.9901 52.7738 46.9901C52.3163 46.9901 51.9647 47.1301 51.7189 47.41C51.48 47.69 51.3537 48.086 51.34 48.598L50.5105 48.5571C50.5241 47.8265 50.7255 47.2598 51.1147 46.857C51.5107 46.4542 52.0637 46.2528 52.7738 46.2528ZM58.2442 46.2528C58.9201 46.2528 59.4527 46.4405 59.8419 46.816C60.231 47.1847 60.4256 47.69 60.4256 48.3318C60.4256 48.7619 60.3198 49.1272 60.1081 49.4276C59.9033 49.7211 59.6404 49.9226 59.3195 50.0318C59.7087 50.1274 60.0228 50.3356 60.2617 50.6565C60.5007 50.9706 60.6202 51.37 60.6202 51.8547C60.6202 52.5443 60.4051 53.0905 59.975 53.4933C59.5449 53.8962 58.9748 54.0976 58.2647 54.0976C57.541 54.0976 56.9743 53.903 56.5647 53.5138C56.155 53.1178 55.9229 52.5682 55.8682 51.865L56.708 51.824C56.7627 52.3088 56.9197 52.6877 57.1791 52.9608C57.4386 53.2271 57.8004 53.3602 58.2647 53.3602C58.7358 53.3602 59.1045 53.2271 59.3708 52.9608C59.6439 52.6877 59.7804 52.3156 59.7804 51.8445C59.7804 51.3802 59.637 51.0252 59.3503 50.7794C59.0635 50.5336 58.6778 50.4107 58.193 50.4107H57.4454V49.6836H58.1828C58.5992 49.6836 58.9372 49.5607 59.1967 49.3149C59.4561 49.0691 59.5858 48.7414 59.5858 48.3318C59.5858 47.9084 59.4629 47.5807 59.2171 47.3486C58.9782 47.1096 58.6539 46.9901 58.2442 46.9901C57.8209 46.9901 57.483 47.1199 57.2303 47.3793C56.9845 47.6319 56.848 47.987 56.8207 48.4444L55.9911 48.3932C56.0253 47.7241 56.2369 47.2018 56.6261 46.8263C57.0221 46.4439 57.5615 46.2528 58.2442 46.2528ZM63.843 46.3449H64.652L62.0508 54.6916H61.2212L63.843 46.3449ZM68.0667 46.2528C68.6197 46.2528 69.1011 46.4064 69.5107 46.7136C69.9204 47.014 70.2344 47.4578 70.4529 48.045C70.6782 48.6322 70.7909 49.3422 70.7909 50.1752C70.7909 51.0013 70.6782 51.7114 70.4529 52.3054C70.2344 52.8925 69.9204 53.3397 69.5107 53.647C69.1011 53.9474 68.6197 54.0976 68.0667 54.0976C67.5137 54.0976 67.0289 53.9474 66.6124 53.647C66.2028 53.3397 65.8853 52.8925 65.66 52.3054C65.4415 51.7114 65.3323 51.0013 65.3323 50.1752C65.3323 49.3422 65.4415 48.6322 65.66 48.045C65.8853 47.4578 66.2028 47.014 66.6124 46.7136C67.0289 46.4064 67.5137 46.2528 68.0667 46.2528ZM66.1823 50.1752C66.1823 51.213 66.3427 52.0049 66.6636 52.5511C66.9845 53.0905 67.4488 53.3602 68.0565 53.3602C68.6709 53.3602 69.1386 53.0905 69.4595 52.5511C69.7872 52.0049 69.9511 51.213 69.9511 50.1752C69.9511 49.1306 69.7872 48.3386 69.4595 47.7992C69.1386 47.2598 68.6709 46.9901 68.0565 46.9901C67.4488 46.9901 66.9845 47.2632 66.6636 47.8094C66.3427 48.3488 66.1823 49.1374 66.1823 50.1752ZM74.289 49.3252C74.7328 49.3252 75.1254 49.4207 75.4668 49.6119C75.815 49.7962 76.0847 50.0659 76.2759 50.421C76.467 50.776 76.5626 51.1959 76.5626 51.6806C76.5626 52.1517 76.467 52.5716 76.2759 52.9403C76.0915 53.3022 75.8184 53.5855 75.4566 53.7903C75.1015 53.9952 74.6782 54.0976 74.1866 54.0976C73.4766 54.0976 72.9167 53.9064 72.5071 53.5241C72.0974 53.1349 71.8653 52.6024 71.8107 51.9264L72.6504 51.8752C72.7051 52.3463 72.8587 52.7116 73.1113 52.971C73.3708 53.2305 73.7292 53.3602 74.1866 53.3602C74.6782 53.3602 75.0606 53.2066 75.3337 52.8993C75.6068 52.5853 75.7433 52.1825 75.7433 51.6909C75.7433 51.2061 75.6033 50.817 75.3234 50.5234C75.0435 50.223 74.6748 50.0728 74.2174 50.0728C73.9511 50.0728 73.7087 50.1137 73.4902 50.1957C73.2786 50.2776 73.0703 50.4005 72.8655 50.5643H72.0872V46.3245H76.2759V47.0618H72.9167V49.7553C73.3127 49.4685 73.7702 49.3252 74.289 49.3252ZM79.7949 46.3449H80.604L78.0027 54.6916H77.1732L79.7949 46.3449ZM83.5373 46.2528C84.2132 46.2528 84.7458 46.4405 85.1349 46.816C85.5241 47.1847 85.7187 47.69 85.7187 48.3318C85.7187 48.7619 85.6129 49.1272 85.4012 49.4276C85.1964 49.7211 84.9335 49.9226 84.6126 50.0318C85.0018 50.1274 85.3159 50.3356 85.5548 50.6565C85.7938 50.9706 85.9133 51.37 85.9133 51.8547C85.9133 52.5443 85.6982 53.0905 85.2681 53.4933C84.8379 53.8962 84.2678 54.0976 83.5578 54.0976C82.8341 54.0976 82.2674 53.903 81.8577 53.5138C81.4481 53.1178 81.2159 52.5682 81.1613 51.865L82.0011 51.824C82.0557 52.3088 82.2128 52.6877 82.4722 52.9608C82.7316 53.2271 83.0935 53.3602 83.5578 53.3602C84.0289 53.3602 84.3976 53.2271 84.6638 52.9608C84.9369 52.6877 85.0735 52.3156 85.0735 51.8445C85.0735 51.3802 84.9301 51.0252 84.6433 50.7794C84.3566 50.5336 83.9708 50.4107 83.4861 50.4107H82.7385V49.6836H83.4758C83.8923 49.6836 84.2303 49.5607 84.4897 49.3149C84.7492 49.0691 84.8789 48.7414 84.8789 48.3318C84.8789 47.9084 84.756 47.5807 84.5102 47.3486C84.2712 47.1096 83.9469 46.9901 83.5373 46.9901C83.114 46.9901 82.776 47.1199 82.5234 47.3793C82.2776 47.6319 82.1411 47.987 82.1138 48.4444L81.2842 48.3932C81.3184 47.7241 81.53 47.2018 81.9192 46.8263C82.3152 46.4439 82.8545 46.2528 83.5373 46.2528ZM88.3987 47.4305L86.9547 48.5775L86.5553 47.9323L88.6035 46.3245H89.218V54.0054H88.3987V47.4305ZM94.6494 47.4305L93.2054 48.5775L92.806 47.9323L94.8543 46.3245H95.4687V54.0054H94.6494V47.4305ZM99.4745 54.0976C98.9898 54.0976 98.5528 53.9986 98.1636 53.8006C97.7813 53.5958 97.4775 53.3056 97.2522 52.9301C97.0337 52.5546 96.9244 52.121 96.9244 51.6294C96.9244 51.0423 97.0951 50.5131 97.4365 50.042L100.243 46.3449H101.226L99.0546 49.2125C99.2594 49.1784 99.4472 49.1613 99.6179 49.1613C100.075 49.1818 100.485 49.2944 100.847 49.4993C101.209 49.7041 101.492 49.9908 101.697 50.3595C101.909 50.7282 102.014 51.1515 102.014 51.6294C102.014 52.121 101.902 52.5546 101.676 52.9301C101.458 53.3056 101.157 53.5958 100.775 53.8006C100.393 53.9986 99.9593 54.0976 99.4745 54.0976ZM97.7745 51.609C97.7745 52.1415 97.9315 52.5682 98.2456 52.8891C98.5596 53.2032 98.9693 53.3602 99.4745 53.3602C99.9661 53.3602 100.369 53.1998 100.683 52.8789C101.004 52.558 101.164 52.1347 101.164 51.609C101.164 51.0696 101.004 50.6429 100.683 50.3288C100.369 50.0147 99.9661 49.8577 99.4745 49.8577C98.8805 49.8577 98.4299 50.0591 98.1227 50.4619C97.8905 50.7487 97.7745 51.131 97.7745 51.609ZM103.447 48.7004C103.604 48.7004 103.737 48.7551 103.846 48.8643C103.955 48.9735 104.01 49.1067 104.01 49.2637C104.01 49.4207 103.955 49.5539 103.846 49.6631C103.737 49.7724 103.604 49.827 103.447 49.827C103.296 49.827 103.167 49.7724 103.057 49.6631C102.955 49.5539 102.904 49.4207 102.904 49.2637C102.904 49.1067 102.955 48.9735 103.057 48.8643C103.167 48.7551 103.296 48.7004 103.447 48.7004ZM102.904 53.5445C102.904 53.3875 102.955 53.2578 103.057 53.1554C103.16 53.0461 103.289 52.9915 103.447 52.9915C103.604 52.9915 103.737 53.0461 103.846 53.1554C103.955 53.2578 104.01 53.3875 104.01 53.5445C104.01 53.7016 103.955 53.8347 103.846 53.944C103.737 54.0464 103.604 54.0976 103.447 54.0976C103.289 54.0976 103.16 54.0464 103.057 53.944C102.955 53.8347 102.904 53.7016 102.904 53.5445ZM107.34 46.2528C108.016 46.2528 108.549 46.4405 108.938 46.816C109.327 47.1847 109.522 47.69 109.522 48.3318C109.522 48.7619 109.416 49.1272 109.204 49.4276C108.999 49.7211 108.736 49.9226 108.416 50.0318C108.805 50.1274 109.119 50.3356 109.358 50.6565C109.597 50.9706 109.716 51.37 109.716 51.8547C109.716 52.5443 109.501 53.0905 109.071 53.4933C108.641 53.8962 108.071 54.0976 107.361 54.0976C106.637 54.0976 106.07 53.903 105.661 53.5138C105.251 53.1178 105.019 52.5682 104.964 51.865L105.804 51.824C105.859 52.3088 106.016 52.6877 106.275 52.9608C106.535 53.2271 106.896 53.3602 107.361 53.3602C107.832 53.3602 108.2 53.2271 108.467 52.9608C108.74 52.6877 108.876 52.3156 108.876 51.8445C108.876 51.3802 108.733 51.0252 108.446 50.7794C108.159 50.5336 107.774 50.4107 107.289 50.4107H106.541V49.6836H107.279C107.695 49.6836 108.033 49.5607 108.293 49.3149C108.552 49.0691 108.682 48.7414 108.682 48.3318C108.682 47.9084 108.559 47.5807 108.313 47.3486C108.074 47.1096 107.75 46.9901 107.34 46.9901C106.917 46.9901 106.579 47.1199 106.326 47.3793C106.081 47.6319 105.944 47.987 105.917 48.4444L105.087 48.3932C105.121 47.7241 105.333 47.2018 105.722 46.8263C106.118 46.4439 106.657 46.2528 107.34 46.2528ZM113.502 46.2528C114.055 46.2528 114.537 46.4064 114.946 46.7136C115.356 47.014 115.67 47.4578 115.888 48.045C116.114 48.6322 116.226 49.3422 116.226 50.1752C116.226 51.0013 116.114 51.7114 115.888 52.3054C115.67 52.8925 115.356 53.3397 114.946 53.647C114.537 53.9474 114.055 54.0976 113.502 54.0976C112.949 54.0976 112.464 53.9474 112.048 53.647C111.638 53.3397 111.321 52.8925 111.096 52.3054C110.877 51.7114 110.768 51.0013 110.768 50.1752C110.768 49.3422 110.877 48.6322 111.096 48.045C111.321 47.4578 111.638 47.014 112.048 46.7136C112.464 46.4064 112.949 46.2528 113.502 46.2528ZM111.618 50.1752C111.618 51.213 111.778 52.0049 112.099 52.5511C112.42 53.0905 112.884 53.3602 113.492 53.3602C114.106 53.3602 114.574 53.0905 114.895 52.5511C115.223 52.0049 115.387 51.213 115.387 50.1752C115.387 49.1306 115.223 48.3386 114.895 47.7992C114.574 47.2598 114.106 46.9901 113.492 46.9901C112.884 46.9901 112.42 47.2632 112.099 47.8094C111.778 48.3488 111.618 49.1374 111.618 50.1752ZM117.758 48.7004C117.915 48.7004 118.048 48.7551 118.158 48.8643C118.267 48.9735 118.322 49.1067 118.322 49.2637C118.322 49.4207 118.267 49.5539 118.158 49.6631C118.048 49.7724 117.915 49.827 117.758 49.827C117.608 49.827 117.478 49.7724 117.369 49.6631C117.267 49.5539 117.215 49.4207 117.215 49.2637C117.215 49.1067 117.267 48.9735 117.369 48.8643C117.478 48.7551 117.608 48.7004 117.758 48.7004ZM117.215 53.5445C117.215 53.3875 117.267 53.2578 117.369 53.1554C117.472 53.0461 117.601 52.9915 117.758 52.9915C117.915 52.9915 118.048 53.0461 118.158 53.1554C118.267 53.2578 118.322 53.3875 118.322 53.5445C118.322 53.7016 118.267 53.8347 118.158 53.944C118.048 54.0464 117.915 54.0976 117.758 54.0976C117.601 54.0976 117.472 54.0464 117.369 53.944C117.267 53.8347 117.215 53.7016 117.215 53.5445ZM121.775 49.3252C122.219 49.3252 122.611 49.4207 122.953 49.6119C123.301 49.7962 123.57 50.0659 123.762 50.421C123.953 50.776 124.048 51.1959 124.048 51.6806C124.048 52.1517 123.953 52.5716 123.762 52.9403C123.577 53.3022 123.304 53.5855 122.942 53.7903C122.587 53.9952 122.164 54.0976 121.672 54.0976C120.962 54.0976 120.402 53.9064 119.993 53.5241C119.583 53.1349 119.351 52.6024 119.296 51.9264L120.136 51.8752C120.191 52.3463 120.344 52.7116 120.597 52.971C120.857 53.2305 121.215 53.3602 121.672 53.3602C122.164 53.3602 122.546 53.2066 122.819 52.8993C123.093 52.5853 123.229 52.1825 123.229 51.6909C123.229 51.2061 123.089 50.817 122.809 50.5234C122.529 50.223 122.161 50.0728 121.703 50.0728C121.437 50.0728 121.194 50.1137 120.976 50.1957C120.764 50.2776 120.556 50.4005 120.351 50.5643H119.573V46.3245H123.762V47.0618H120.402V49.7553C120.798 49.4685 121.256 49.3252 121.775 49.3252ZM127.588 54.0976C127.103 54.0976 126.666 53.9986 126.277 53.8006C125.895 53.5958 125.591 53.3056 125.366 52.9301C125.147 52.5546 125.038 52.121 125.038 51.6294C125.038 51.0423 125.209 50.5131 125.55 50.042L128.356 46.3449H129.339L127.168 49.2125C127.373 49.1784 127.561 49.1613 127.731 49.1613C128.189 49.1818 128.598 49.2944 128.96 49.4993C129.322 49.7041 129.605 49.9908 129.81 50.3595C130.022 50.7282 130.128 51.1515 130.128 51.6294C130.128 52.121 130.015 52.5546 129.79 52.9301C129.571 53.3056 129.271 53.5958 128.889 53.8006C128.506 53.9986 128.073 54.0976 127.588 54.0976ZM125.888 51.609C125.888 52.1415 126.045 52.5682 126.359 52.8891C126.673 53.2032 127.083 53.3602 127.588 53.3602C128.08 53.3602 128.482 53.1998 128.796 52.8789C129.117 52.558 129.278 52.1347 129.278 51.609C129.278 51.0696 129.117 50.6429 128.796 50.3288C128.482 50.0147 128.08 49.8577 127.588 49.8577C126.994 49.8577 126.543 50.0591 126.236 50.4619C126.004 50.7487 125.888 51.131 125.888 51.609Z" fill="#475467"/>
</g>
<g filter="url(#filter2_d_949_40071)">
<rect x="147" y="2" width="20.4825" height="20.4825" rx="10.2412" fill="white" shape-rendering="crispEdges"/>
<rect x="147.427" y="2.42672" width="19.6291" height="19.6291" rx="9.81453" stroke="#F04438" stroke-opacity="0.3" stroke-width="0.853437" shape-rendering="crispEdges"/>
<path d="M161.508 7.97461L152.974 16.509" stroke="#F04438" stroke-width="1.28016" stroke-linecap="round" stroke-linejoin="round"/>
<path d="M152.974 7.97461L161.508 16.509" stroke="#F04438" stroke-width="1.28016" stroke-linecap="round" stroke-linejoin="round"/>
</g>
<path d="M52.296 88.08C51.944 88.08 51.6293 88.0027 51.352 87.848C51.0747 87.688 50.856 87.464 50.696 87.176C50.536 86.888 50.456 86.552 50.456 86.168C50.456 85.7893 50.5333 85.456 50.688 85.168C50.848 84.88 51.0667 84.6587 51.344 84.504C51.6213 84.344 51.9333 84.264 52.28 84.264C52.5787 84.264 52.848 84.32 53.088 84.432C53.3333 84.544 53.5307 84.712 53.68 84.936H53.736C54.0933 84.488 54.528 84.264 55.04 84.264C55.488 84.264 55.8533 84.4267 56.136 84.752C56.424 85.072 56.568 85.552 56.568 86.192C56.568 86.5227 56.5333 86.8267 56.464 87.104C56.4 87.3813 56.3013 87.68 56.168 88H55.368C55.4907 87.696 55.5813 87.4027 55.64 87.12C55.6987 86.8373 55.728 86.5413 55.728 86.232C55.728 85.784 55.648 85.4533 55.488 85.24C55.328 85.0213 55.112 84.912 54.84 84.912C54.504 84.912 54.2107 85.0533 53.96 85.336C54.072 85.592 54.128 85.872 54.128 86.176C54.128 86.5547 54.048 86.888 53.888 87.176C53.728 87.464 53.5093 87.688 53.232 87.848C52.9547 88.0027 52.6427 88.08 52.296 88.08ZM51.296 86.176C51.296 86.576 51.3867 86.888 51.568 87.112C51.7493 87.3307 51.992 87.44 52.296 87.44C52.5947 87.44 52.8347 87.3307 53.016 87.112C53.1973 86.888 53.288 86.576 53.288 86.176C53.288 85.776 53.1973 85.464 53.016 85.24C52.8347 85.0107 52.5947 84.896 52.296 84.896C51.992 84.896 51.7493 85.0107 51.568 85.24C51.3867 85.464 51.296 85.776 51.296 86.176ZM59.5434 84.344C59.5381 84.5147 59.5808 84.6613 59.6714 84.784C59.7674 84.9013 59.9114 85.0453 60.1034 85.216C60.2688 85.36 60.4021 85.488 60.5034 85.6C60.6101 85.7067 60.6981 85.8453 60.7674 86.016C60.8421 86.1813 60.8794 86.3787 60.8794 86.608C60.8794 86.9067 60.8021 87.168 60.6474 87.392C60.4928 87.6107 60.2821 87.7813 60.0154 87.904C59.7488 88.0213 59.4554 88.08 59.1354 88.08C58.8101 88.08 58.5141 88.0213 58.2474 87.904C57.9861 87.7867 57.7781 87.616 57.6234 87.392C57.4741 87.168 57.3994 86.904 57.3994 86.6C57.3994 86.4613 57.4181 86.336 57.4554 86.224L58.2554 86.256C58.2394 86.336 58.2314 86.4267 58.2314 86.528C58.2314 86.8107 58.3141 87.0347 58.4794 87.2C58.6448 87.3653 58.8634 87.448 59.1354 87.448C59.4074 87.448 59.6288 87.3707 59.7994 87.216C59.9701 87.0613 60.0554 86.8507 60.0554 86.584C60.0554 86.376 60.0021 86.2053 59.8954 86.072C59.7941 85.9333 59.6368 85.7787 59.4234 85.608C59.2581 85.4693 59.1274 85.3493 59.0314 85.248C58.9354 85.1467 58.8554 85.0213 58.7914 84.872C58.7328 84.7227 58.7088 84.5467 58.7194 84.344H59.5434ZM62.0978 88C61.8418 87.3333 61.7138 86.5467 61.7138 85.64C61.7138 84.776 61.8685 84.096 62.1778 83.6C62.4871 83.0987 62.8578 82.7467 63.2898 82.544C63.7218 82.336 64.1991 82.1893 64.7218 82.104L65.9298 81.912V82.656L64.6898 82.856C64.2311 82.9253 63.8391 83.0373 63.5138 83.192C63.1885 83.3413 62.9138 83.568 62.6898 83.872C62.4711 84.176 62.3218 84.5787 62.2418 85.08H62.2818C62.4151 84.792 62.5805 84.584 62.7778 84.456C62.9751 84.328 63.2045 84.264 63.4658 84.264C63.7271 84.264 63.9645 84.3413 64.1778 84.496C64.3965 84.6507 64.5431 84.8907 64.6178 85.216H64.6658C64.7565 84.8907 64.9218 84.6507 65.1618 84.496C65.4018 84.3413 65.6711 84.264 65.9698 84.264C66.2631 84.264 66.5271 84.3333 66.7618 84.472C67.0018 84.6107 67.1911 84.824 67.3298 85.112C67.4738 85.4 67.5458 85.76 67.5458 86.192C67.5458 86.512 67.5138 86.8107 67.4498 87.088C67.3858 87.3653 67.2898 87.6693 67.1618 88H66.3458C66.4738 87.6907 66.5671 87.3947 66.6258 87.112C66.6845 86.824 66.7165 86.528 66.7218 86.224C66.7165 85.7813 66.6338 85.4507 66.4738 85.232C66.3138 85.008 66.1058 84.896 65.8498 84.896C65.6045 84.896 65.4045 84.984 65.2498 85.16C65.1005 85.3307 65.0258 85.6053 65.0258 85.984V87.096H64.2258V85.984C64.2258 85.6053 64.1511 85.3307 64.0018 85.16C63.8578 84.984 63.6631 84.896 63.4178 84.896C63.1565 84.896 62.9458 85.0053 62.7858 85.224C62.6258 85.4427 62.5458 85.776 62.5458 86.224C62.5458 86.528 62.5751 86.824 62.6338 87.112C62.6925 87.3947 62.7858 87.6907 62.9138 88H62.0978ZM68.8 88C68.6773 87.68 68.5813 87.3787 68.512 87.096C68.448 86.8133 68.416 86.52 68.416 86.216C68.416 85.8053 68.4933 85.4533 68.648 85.16C68.808 84.8667 69.0267 84.6453 69.304 84.496C69.5813 84.3413 69.8987 84.264 70.256 84.264C70.6187 84.264 70.9387 84.3413 71.216 84.496C71.4987 84.6453 71.7173 84.8667 71.872 85.16C72.032 85.4533 72.112 85.8053 72.112 86.216C72.112 86.52 72.0773 86.8133 72.008 87.096C71.944 87.3733 71.848 87.6747 71.72 88H70.952C71.064 87.6747 71.1467 87.376 71.2 87.104C71.2533 86.832 71.28 86.5467 71.28 86.248C71.28 85.8213 71.1893 85.4907 71.008 85.256C70.8267 85.016 70.576 84.896 70.256 84.896C69.936 84.896 69.6853 85.016 69.504 85.256C69.328 85.4907 69.24 85.8213 69.24 86.248C69.24 86.5413 69.2667 86.8267 69.32 87.104C69.3733 87.3813 69.4587 87.68 69.576 88H68.8ZM76.8034 90.432C76.7394 90.1067 76.5714 89.848 76.2994 89.656C76.0328 89.4693 75.7208 89.376 75.3634 89.376H75.2754C75.0621 89.376 74.8568 89.3947 74.6594 89.432C74.4621 89.4747 74.2514 89.544 74.0274 89.64L73.7794 89.12C74.0568 88.9973 74.4248 88.9253 74.8834 88.904V88.856C74.2808 88.7227 73.8114 88.4427 73.4754 88.016C73.1448 87.5947 72.9794 87.032 72.9794 86.328C72.9794 85.6347 73.1288 85.1173 73.4274 84.776C73.7314 84.4347 74.1128 84.264 74.5714 84.264C74.8808 84.264 75.1528 84.3387 75.3874 84.488C75.6221 84.6373 75.7848 84.8827 75.8754 85.224H75.9314C76.0221 84.8933 76.1874 84.6507 76.4274 84.496C76.6674 84.3413 76.9368 84.264 77.2354 84.264C77.5288 84.264 77.7928 84.3333 78.0274 84.472C78.2674 84.6053 78.4568 84.8133 78.5954 85.096C78.7394 85.3787 78.8114 85.728 78.8114 86.144C78.8114 86.416 78.7901 86.6827 78.7474 86.944C78.7048 87.2053 78.6408 87.4853 78.5554 87.784L77.7394 87.744C77.8941 87.2747 77.9714 86.752 77.9714 86.176C77.9714 85.7547 77.8914 85.4373 77.7314 85.224C77.5768 85.0107 77.3688 84.904 77.1074 84.904C76.8621 84.904 76.6648 84.992 76.5154 85.168C76.3661 85.3387 76.2914 85.6107 76.2914 85.984V87.096H75.4914V85.984C75.4914 85.6107 75.4168 85.3387 75.2674 85.168C75.1181 84.992 74.9234 84.904 74.6834 84.904C74.4168 84.904 74.2034 85.0213 74.0434 85.256C73.8834 85.4853 73.8034 85.8453 73.8034 86.336C73.8088 87.008 73.9688 87.5253 74.2834 87.888C74.6034 88.2453 75.0594 88.4907 75.6514 88.624L75.9154 88.696C76.4061 88.8133 76.7981 89.0187 77.0914 89.312C77.3848 89.6107 77.5581 89.9733 77.6114 90.4L76.8034 90.432ZM80.0578 88C79.9351 87.68 79.8391 87.3787 79.7698 87.096C79.7058 86.8133 79.6738 86.52 79.6738 86.216C79.6738 85.8053 79.7511 85.4533 79.9058 85.16C80.0658 84.8667 80.2845 84.6453 80.5618 84.496C80.8391 84.3413 81.1565 84.264 81.5138 84.264C81.8765 84.264 82.1965 84.3413 82.4738 84.496C82.7565 84.6453 82.9751 84.8667 83.1298 85.16C83.2898 85.4533 83.3698 85.8053 83.3698 86.216C83.3698 86.52 83.3351 86.8133 83.2658 87.096C83.2018 87.3733 83.1058 87.6747 82.9778 88H82.2098C82.3218 87.6747 82.4045 87.376 82.4578 87.104C82.5111 86.832 82.5378 86.5467 82.5378 86.248C82.5378 85.8213 82.4471 85.4907 82.2658 85.256C82.0845 85.016 81.8338 84.896 81.5138 84.896C81.1938 84.896 80.9431 85.016 80.7618 85.256C80.5858 85.4907 80.4978 85.8213 80.4978 86.248C80.4978 86.5413 80.5245 86.8267 80.5778 87.104C80.6311 87.3813 80.7165 87.68 80.8338 88H80.0578ZM90.1439 90.432C90.0799 90.1067 89.9012 89.848 89.6079 89.656C89.3145 89.4693 88.9679 89.376 88.5679 89.376H88.4239C88.2105 89.376 88.0052 89.3947 87.8079 89.432C87.6105 89.4747 87.4025 89.544 87.1839 89.64L86.9359 89.12C87.2079 88.9973 87.5732 88.9253 88.0319 88.904V88.856C87.4505 88.7173 86.9865 88.4267 86.6399 87.984C86.2985 87.536 86.1279 86.9787 86.1279 86.312C86.1279 85.8533 86.2052 85.472 86.3599 85.168C86.5145 84.8587 86.7199 84.632 86.9759 84.488C87.2319 84.3387 87.5119 84.264 87.8159 84.264C88.2745 84.264 88.6559 84.4613 88.9599 84.856H89.0159C89.1652 84.6693 89.3545 84.5253 89.5839 84.424C89.8185 84.3173 90.0799 84.264 90.3679 84.264C90.7039 84.264 91.0052 84.3387 91.2719 84.488C91.5439 84.6373 91.7572 84.8507 91.9119 85.128C92.0665 85.4 92.1439 85.72 92.1439 86.088C92.1439 86.44 92.0665 86.7547 91.9119 87.032C91.7572 87.3093 91.5412 87.5253 91.2639 87.68C90.9919 87.8347 90.6852 87.912 90.3439 87.912C90.0025 87.912 89.6932 87.8347 89.4159 87.68C89.1439 87.5253 88.9305 87.3093 88.7759 87.032C88.6212 86.7547 88.5439 86.44 88.5439 86.088C88.5439 85.7627 88.6025 85.4827 88.7199 85.248C88.4959 85.024 88.2425 84.912 87.9599 84.912C87.6612 84.912 87.4185 85.024 87.2319 85.248C87.0505 85.472 86.9599 85.824 86.9599 86.304C86.9599 86.96 87.1332 87.4773 87.4799 87.856C87.8319 88.2347 88.3145 88.496 88.9279 88.64L89.2079 88.712C89.7039 88.8347 90.1039 89.04 90.4079 89.328C90.7172 89.6213 90.8985 89.9787 90.9519 90.4L90.1439 90.432ZM89.3679 86.088C89.3679 86.4453 89.4585 86.736 89.6399 86.96C89.8212 87.1787 90.0559 87.288 90.3439 87.288C90.6372 87.288 90.8719 87.1787 91.0479 86.96C91.2292 86.736 91.3199 86.4453 91.3199 86.088C91.3199 85.704 91.2319 85.408 91.0559 85.2C90.8799 84.9867 90.6425 84.88 90.3439 84.88C90.0505 84.88 89.8132 84.9867 89.6319 85.2C89.4559 85.4133 89.3679 85.7093 89.3679 86.088ZM95.0981 84.344C95.0928 84.5147 95.1355 84.6613 95.2261 84.784C95.3221 84.9013 95.4661 85.0453 95.6581 85.216C95.8235 85.36 95.9568 85.488 96.0581 85.6C96.1648 85.7067 96.2528 85.8453 96.3221 86.016C96.3968 86.1813 96.4341 86.3787 96.4341 86.608C96.4341 86.9067 96.3568 87.168 96.2021 87.392C96.0475 87.6107 95.8368 87.7813 95.5701 87.904C95.3035 88.0213 95.0101 88.08 94.6901 88.08C94.3648 88.08 94.0688 88.0213 93.8021 87.904C93.5408 87.7867 93.3328 87.616 93.1781 87.392C93.0288 87.168 92.9541 86.904 92.9541 86.6C92.9541 86.4613 92.9728 86.336 93.0101 86.224L93.8101 86.256C93.7941 86.336 93.7861 86.4267 93.7861 86.528C93.7861 86.8107 93.8688 87.0347 94.0341 87.2C94.1995 87.3653 94.4181 87.448 94.6901 87.448C94.9621 87.448 95.1835 87.3707 95.3541 87.216C95.5248 87.0613 95.6101 86.8507 95.6101 86.584C95.6101 86.376 95.5568 86.2053 95.4501 86.072C95.3488 85.9333 95.1915 85.7787 94.9781 85.608C94.8128 85.4693 94.6821 85.3493 94.5861 85.248C94.4901 85.1467 94.4101 85.0213 94.3461 84.872C94.2875 84.7227 94.2635 84.5467 94.2741 84.344H95.0981ZM103.175 90.432C103.111 90.1067 102.932 89.848 102.639 89.656C102.346 89.4693 101.999 89.376 101.599 89.376H101.455C101.242 89.376 101.036 89.3947 100.839 89.432C100.642 89.4747 100.434 89.544 100.215 89.64L99.9671 89.12C100.239 88.9973 100.604 88.9253 101.063 88.904V88.856C100.482 88.7173 100.018 88.4267 99.6711 87.984C99.3298 87.536 99.1591 86.9787 99.1591 86.312C99.1591 85.8533 99.2365 85.472 99.3911 85.168C99.5458 84.8587 99.7511 84.632 100.007 84.488C100.263 84.3387 100.543 84.264 100.847 84.264C101.306 84.264 101.687 84.4613 101.991 84.856H102.047C102.196 84.6693 102.386 84.5253 102.615 84.424C102.85 84.3173 103.111 84.264 103.399 84.264C103.735 84.264 104.036 84.3387 104.303 84.488C104.575 84.6373 104.788 84.8507 104.943 85.128C105.098 85.4 105.175 85.72 105.175 86.088C105.175 86.44 105.098 86.7547 104.943 87.032C104.788 87.3093 104.572 87.5253 104.295 87.68C104.023 87.8347 103.716 87.912 103.375 87.912C103.034 87.912 102.724 87.8347 102.447 87.68C102.175 87.5253 101.962 87.3093 101.807 87.032C101.652 86.7547 101.575 86.44 101.575 86.088C101.575 85.7627 101.634 85.4827 101.751 85.248C101.527 85.024 101.274 84.912 100.991 84.912C100.692 84.912 100.45 85.024 100.263 85.248C100.082 85.472 99.9911 85.824 99.9911 86.304C99.9911 86.96 100.164 87.4773 100.511 87.856C100.863 88.2347 101.346 88.496 101.959 88.64L102.239 88.712C102.735 88.8347 103.135 89.04 103.439 89.328C103.748 89.6213 103.93 89.9787 103.983 90.4L103.175 90.432ZM102.399 86.088C102.399 86.4453 102.49 86.736 102.671 86.96C102.852 87.1787 103.087 87.288 103.375 87.288C103.668 87.288 103.903 87.1787 104.079 86.96C104.26 86.736 104.351 86.4453 104.351 86.088C104.351 85.704 104.263 85.408 104.087 85.2C103.911 84.9867 103.674 84.88 103.375 84.88C103.082 84.88 102.844 84.9867 102.663 85.2C102.487 85.4133 102.399 85.7093 102.399 86.088ZM106.473 88C106.217 87.3333 106.089 86.5467 106.089 85.64C106.089 84.776 106.243 84.096 106.553 83.6C106.862 83.0987 107.233 82.7467 107.665 82.544C108.097 82.336 108.574 82.1893 109.097 82.104L110.305 81.912V82.656L109.065 82.856C108.606 82.9253 108.214 83.0373 107.889 83.192C107.563 83.3413 107.289 83.568 107.065 83.872C106.846 84.176 106.697 84.5787 106.617 85.08H106.657C106.79 84.792 106.955 84.584 107.153 84.456C107.35 84.328 107.579 84.264 107.841 84.264C108.102 84.264 108.339 84.3413 108.553 84.496C108.771 84.6507 108.918 84.8907 108.993 85.216H109.041C109.131 84.8907 109.297 84.6507 109.537 84.496C109.777 84.3413 110.046 84.264 110.345 84.264C110.638 84.264 110.902 84.3333 111.137 84.472C111.377 84.6107 111.566 84.824 111.705 85.112C111.849 85.4 111.921 85.76 111.921 86.192C111.921 86.512 111.889 86.8107 111.825 87.088C111.761 87.3653 111.665 87.6693 111.537 88H110.721C110.849 87.6907 110.942 87.3947 111.001 87.112C111.059 86.824 111.091 86.528 111.097 86.224C111.091 85.7813 111.009 85.4507 110.849 85.232C110.689 85.008 110.481 84.896 110.225 84.896C109.979 84.896 109.779 84.984 109.625 85.16C109.475 85.3307 109.401 85.6053 109.401 85.984V87.096H108.601V85.984C108.601 85.6053 108.526 85.3307 108.377 85.16C108.233 84.984 108.038 84.896 107.793 84.896C107.531 84.896 107.321 85.0053 107.161 85.224C107.001 85.4427 106.921 85.776 106.921 86.224C106.921 86.528 106.95 86.824 107.009 87.112C107.067 87.3947 107.161 87.6907 107.289 88H106.473ZM113.215 88C113.087 87.68 112.991 87.3813 112.927 87.104C112.863 86.8213 112.831 86.5173 112.831 86.192C112.831 85.76 112.903 85.4 113.047 85.112C113.191 84.824 113.383 84.6107 113.623 84.472C113.863 84.3333 114.13 84.264 114.423 84.264C114.732 84.264 115.004 84.3387 115.239 84.488C115.474 84.6373 115.636 84.88 115.727 85.216H115.783C115.874 84.8853 116.036 84.6453 116.271 84.496C116.511 84.3413 116.783 84.264 117.087 84.264C117.38 84.264 117.644 84.3333 117.879 84.472C118.119 84.6053 118.308 84.8107 118.447 85.088C118.591 85.3653 118.663 85.7067 118.663 86.112C118.663 86.3573 118.642 86.5813 118.599 86.784C118.556 86.9867 118.49 87.1893 118.399 87.392V87.408H119.359L119.303 88H117.463C117.586 87.696 117.676 87.4027 117.735 87.12C117.794 86.8373 117.823 86.5413 117.823 86.232C117.823 85.784 117.743 85.4507 117.583 85.232C117.428 85.008 117.223 84.896 116.967 84.896C116.722 84.896 116.522 84.984 116.367 85.16C116.218 85.3307 116.143 85.6053 116.143 85.984V87.096H115.343V85.984C115.343 85.6053 115.268 85.3307 115.119 85.16C114.97 84.984 114.772 84.896 114.527 84.896C114.266 84.896 114.055 85.0053 113.895 85.224C113.735 85.4427 113.655 85.776 113.655 86.224C113.655 86.528 113.684 86.824 113.743 87.112C113.802 87.3947 113.898 87.6907 114.031 88H113.215Z" fill="#557186"/>
<defs>
<filter id="filter0_bd_949_40071" x="1.96944" y="5.77555" width="165.061" height="106.061" filterUnits="userSpaceOnUse" color-interpolation-filters="sRGB">
<feFlood flood-opacity="0" result="BackgroundImageFix"/>
<feGaussianBlur in="BackgroundImageFix" stdDeviation="2.25764"/>
<feComposite in2="SourceAlpha" operator="in" result="effect1_backgroundBlur_949_40071"/>
<feColorMatrix in="SourceAlpha" type="matrix" values="0 0 0 0 0 0 0 0 0 0 0 0 0 0 0 0 0 0 127 0" result="hardAlpha"/>
<feOffset dy="1.80611"/>
<feGaussianBlur stdDeviation="4.51528"/>
<feComposite in2="hardAlpha" operator="out"/>
<feColorMatrix type="matrix" values="0 0 0 0 0.427451 0 0 0 0 0.509804 0 0 0 0 0.698039 0 0 0 0.3 0"/>
<feBlend mode="normal" in2="effect1_backgroundBlur_949_40071" result="effect2_dropShadow_949_40071"/>
<feBlend mode="normal" in="SourceGraphic" in2="effect2_dropShadow_949_40071" result="shape"/>
</filter>
<filter id="filter1_dd_949_40071" x="0.334578" y="13.0016" width="168.127" height="81.93" filterUnits="userSpaceOnUse" color-interpolation-filters="sRGB">
<feFlood flood-opacity="0" result="BackgroundImageFix"/>
<feColorMatrix in="SourceAlpha" type="matrix" values="0 0 0 0 0 0 0 0 0 0 0 0 0 0 0 0 0 0 127 0" result="hardAlpha"/>
<feMorphology radius="3.41375" operator="erode" in="SourceAlpha" result="effect1_dropShadow_949_40071"/>
<feOffset dy="6.8275"/>
<feGaussianBlur stdDeviation="3.41375"/>
<feComposite in2="hardAlpha" operator="out"/>
<feColorMatrix type="matrix" values="0 0 0 0 0.0627451 0 0 0 0 0.0941176 0 0 0 0 0.156863 0 0 0 0.03 0"/>
<feBlend mode="normal" in2="BackgroundImageFix" result="effect1_dropShadow_949_40071"/>
<feColorMatrix in="SourceAlpha" type="matrix" values="0 0 0 0 0 0 0 0 0 0 0 0 0 0 0 0 0 0 127 0" result="hardAlpha"/>
<feMorphology radius="3.41375" operator="erode" in="SourceAlpha" result="effect2_dropShadow_949_40071"/>
<feOffset dy="10"/>
<feGaussianBlur stdDeviation="10.2412"/>
<feComposite in2="hardAlpha" operator="out"/>
<feColorMatrix type="matrix" values="0 0 0 0 0.0627451 0 0 0 0 0.0941176 0 0 0 0 0.156863 0 0 0 0.08 0"/>
<feBlend mode="normal" in2="effect1_dropShadow_949_40071" result="effect2_dropShadow_949_40071"/>
<feBlend mode="normal" in="SourceGraphic" in2="effect2_dropShadow_949_40071" result="shape"/>
</filter>
<filter id="filter2_d_949_40071" x="143.586" y="0.293126" width="27.31" height="27.31" filterUnits="userSpaceOnUse" color-interpolation-filters="sRGB">
<feFlood flood-opacity="0" result="BackgroundImageFix"/>
<feColorMatrix in="SourceAlpha" type="matrix" values="0 0 0 0 0 0 0 0 0 0 0 0 0 0 0 0 0 0 127 0" result="hardAlpha"/>
<feOffset dy="1.70687"/>
<feGaussianBlur stdDeviation="1.70687"/>
<feComposite in2="hardAlpha" operator="out"/>
<feColorMatrix type="matrix" values="0 0 0 0 0 0 0 0 0 0 0 0 0 0 0 0 0 0 0.1 0"/>
<feBlend mode="normal" in2="BackgroundImageFix" result="effect1_dropShadow_949_40071"/>
<feBlend mode="normal" in="SourceGraphic" in2="effect1_dropShadow_949_40071" result="shape"/>
</filter>
</defs>
</svg>
