<svg width="139" height="112" viewBox="0 0 139 112" fill="none" xmlns="http://www.w3.org/2000/svg">
<g filter="url(#filter0_bd_949_40076)">
<rect x="11.1428" y="12.2421" width="115.214" height="88" rx="10.2412" fill="#F3F6FD"/>
<rect x="11.5944" y="12.6936" width="114.311" height="87.0969" rx="9.78972" stroke="white" stroke-width="0.903056"/>
</g>
<g filter="url(#filter1_dd_949_40076)">
<rect x="17.9702" y="19.0703" width="101.559" height="47.7925" rx="6.8275" fill="white" shape-rendering="crispEdges"/>
<path d="M38.9818 33.1296C38.8395 32.6745 38.7684 32.2307 38.7684 31.7983C38.7684 31.3659 38.8907 31.0245 39.1354 30.7742C39.3857 30.5238 39.7129 30.3986 40.1168 30.3986C40.3956 30.3986 40.6374 30.4669 40.8423 30.6035C41.0471 30.74 41.1836 30.9392 41.2519 31.2009H41.3031C41.3714 30.9448 41.4994 30.7486 41.6872 30.612C41.8749 30.4698 42.0883 30.3986 42.3272 30.3986C42.8393 30.3986 43.2205 30.5978 43.4708 30.996L43.0356 31.3545C42.8421 31.0757 42.5861 30.9363 42.2675 30.9363C42.0684 30.9363 41.9091 31.0103 41.7896 31.1582C41.6758 31.3004 41.6189 31.4882 41.6189 31.7215V32.2421H40.9447V31.7215C40.9447 31.4882 40.8764 31.2976 40.7398 31.1497C40.609 30.996 40.4326 30.9192 40.2107 30.9192C39.9888 30.9192 39.8096 30.9932 39.6731 31.1411C39.5422 31.2834 39.4768 31.4939 39.4768 31.7727C39.4768 32.1368 39.5308 32.518 39.6389 32.9163L39.7755 33.4113C39.8324 33.6047 39.8722 33.8095 39.8949 34.0258H39.9462C40.0599 33.6844 40.2449 33.4312 40.5009 33.2662C40.7569 33.1012 41.0556 33.0187 41.397 33.0187C41.8977 33.0187 42.2846 33.1723 42.5577 33.4796C42.8365 33.7868 42.9759 34.1879 42.9759 34.6829C42.9759 35.1779 42.8791 35.7013 42.6857 36.2532L41.5677 39.4451H40.8423L38.9818 33.1296ZM41.2946 38.8391H41.3373L42.0541 36.0911C42.1964 35.5733 42.2675 35.1182 42.2675 34.7256C42.2675 34.3842 42.1793 34.1054 42.0029 33.8892C41.8322 33.6673 41.5648 33.5564 41.2007 33.5564C40.9162 33.5564 40.6744 33.6474 40.4753 33.8295C40.2818 34.0115 40.1851 34.2619 40.1851 34.5805C40.1851 34.7057 40.2079 34.8593 40.2534 35.0413L41.2946 38.8391ZM45.9423 39.5304C45.5497 39.5304 45.2083 39.4536 44.9182 39.3C44.6337 39.1464 44.4175 38.9359 44.2695 38.6684C44.1216 38.4067 44.0476 38.1137 44.0476 37.7894C44.0476 37.6642 44.0647 37.5419 44.0989 37.4224L44.756 37.4651C44.7389 37.5504 44.7304 37.6415 44.7304 37.7382C44.7304 38.1023 44.83 38.401 45.0291 38.6343C45.2282 38.8733 45.5326 38.9928 45.9423 38.9928C46.3349 38.9928 46.6478 38.8676 46.8811 38.6172C47.12 38.3669 47.2367 38.0056 47.231 37.5334L47.2054 36.5178C47.2054 36.3414 47.2224 36.1252 47.2566 35.8692H47.2054C47.0802 36.1138 46.8981 36.3016 46.6592 36.4324C46.4202 36.5633 46.1499 36.6287 45.8484 36.6287C45.325 36.6287 44.8982 36.4552 44.5682 36.1081C44.2383 35.7554 44.0733 35.2462 44.0733 34.5805C44.0733 34.3074 44.0989 34.0514 44.1501 33.8124C44.207 33.5734 44.3008 33.3089 44.4317 33.0187H45.1059C44.9751 33.3089 44.8869 33.5706 44.8413 33.8039C44.8015 34.0314 44.7816 34.2647 44.7816 34.5037C44.7816 35.0556 44.884 35.4567 45.0888 35.707C45.2994 35.9574 45.5838 36.0825 45.9423 36.0825C46.3064 36.0825 46.608 35.9631 46.8469 35.7241C47.0859 35.4851 47.2054 35.1494 47.2054 34.717V33.0187H47.8881V37.5334C47.8881 38.1592 47.7117 38.6485 47.359 39.0013C47.0119 39.354 46.5397 39.5304 45.9423 39.5304ZM51.1725 33.0187C51.1668 33.2008 51.2152 33.3572 51.3176 33.4881C51.42 33.6189 51.5765 33.7726 51.787 33.9489C51.9747 34.1083 52.1227 34.2476 52.2308 34.3671C52.3389 34.4809 52.4328 34.6288 52.5124 34.8109C52.5921 34.9873 52.6319 35.1921 52.6319 35.4254C52.6319 35.7326 52.5494 36.0057 52.3844 36.2447C52.2251 36.478 52.0089 36.6572 51.7358 36.7824C51.4627 36.9075 51.164 36.9701 50.8397 36.9701C50.504 36.9701 50.1996 36.9075 49.9265 36.7824C49.6534 36.6572 49.4372 36.478 49.2779 36.2447C49.1186 36.0057 49.0389 35.7241 49.0389 35.3998C49.0389 35.2575 49.056 35.1267 49.0901 35.0072L49.7558 35.0328C49.7387 35.1238 49.7302 35.2263 49.7302 35.34C49.7302 35.6757 49.8298 35.9431 50.0289 36.1423C50.2337 36.3357 50.5011 36.4324 50.8311 36.4324C51.1554 36.4324 51.42 36.3414 51.6248 36.1593C51.8354 35.9716 51.9406 35.7184 51.9406 35.3998C51.9406 35.1665 51.8809 34.9702 51.7614 34.8109C51.6419 34.6516 51.4627 34.4752 51.2237 34.2818C50.9677 34.0713 50.7742 33.8778 50.6434 33.7014C50.5182 33.5194 50.4642 33.2918 50.4812 33.0187H51.1725ZM53.993 36.8848C53.8564 36.532 53.7512 36.1593 53.6772 35.7668C53.6089 35.3685 53.5748 34.9133 53.5748 34.4013C53.5748 33.4625 53.7398 32.7285 54.0698 32.1994C54.3998 31.6646 54.7867 31.2919 55.2305 31.0814C55.68 30.8709 56.1835 30.7144 56.7411 30.612L57.9785 30.3986V31.0217L56.6813 31.2606C56.192 31.346 55.771 31.474 55.4182 31.6447C55.0655 31.8153 54.7639 32.0799 54.5136 32.4384C54.2689 32.7968 54.1039 33.2776 54.0186 33.8807H54.0527C54.3145 33.2434 54.7497 32.9248 55.3585 32.9248C55.643 32.9248 55.9018 33.0102 56.1351 33.1808C56.3684 33.3458 56.5249 33.6047 56.6045 33.9575H56.6557C56.7411 33.6047 56.9117 33.3458 57.1678 33.1808C57.4238 33.0102 57.7083 32.9248 58.0212 32.9248C58.3228 32.9248 58.5987 32.9988 58.849 33.1467C59.0994 33.2946 59.2985 33.5194 59.4465 33.8209C59.5944 34.1225 59.6683 34.4951 59.6683 34.9389C59.6683 35.2803 59.6342 35.5989 59.5659 35.8948C59.4977 36.1906 59.3924 36.5206 59.2502 36.8848H58.5589C58.832 36.2418 58.9685 35.5989 58.9685 34.956C58.9685 34.461 58.8718 34.0883 58.6784 33.838C58.4906 33.5877 58.246 33.4625 57.9444 33.4625C57.6485 33.4625 57.4096 33.5621 57.2275 33.7612C57.0455 33.9603 56.9544 34.2818 56.9544 34.7256V35.9118H56.2887V34.7256C56.2887 34.2818 56.1977 33.9603 56.0156 33.7612C55.8336 33.5621 55.5975 33.4625 55.3073 33.4625C55 33.4625 54.7497 33.5877 54.5563 33.838C54.3685 34.0883 54.2746 34.461 54.2746 34.956C54.2746 35.5989 54.4112 36.2418 54.6843 36.8848H53.993ZM61.0937 36.8848C60.9571 36.5149 60.8547 36.1849 60.7864 35.8948C60.7181 35.5989 60.684 35.2803 60.684 34.9389C60.684 34.4951 60.758 34.1225 60.9059 33.8209C61.0595 33.5194 61.2615 33.2946 61.5118 33.1467C61.7622 32.9988 62.0381 32.9248 62.3397 32.9248C62.664 32.9248 62.9513 33.0073 63.2016 33.1723C63.452 33.3316 63.6198 33.5933 63.7052 33.9575H63.7564C63.8417 33.6047 64.0124 33.3458 64.2684 33.1808C64.5302 33.0102 64.8175 32.9248 65.1304 32.9248C65.432 32.9248 65.7079 32.9988 65.9582 33.1467C66.2086 33.289 66.4077 33.5108 66.5557 33.8124C66.7036 34.1083 66.7775 34.4724 66.7775 34.9048C66.7775 35.4282 66.6666 35.9175 66.4447 36.3727V36.3898H67.4774L67.4262 36.8848H65.6681C65.8103 36.5548 65.9127 36.2362 65.9753 35.9289C66.0379 35.6217 66.0692 35.3002 66.0692 34.9645C66.0692 34.4638 65.9753 34.0883 65.7876 33.838C65.5998 33.5877 65.3523 33.4625 65.0451 33.4625C64.7492 33.4625 64.5102 33.5621 64.3282 33.7612C64.1518 33.9603 64.0636 34.2789 64.0636 34.717V35.9118H63.3894V34.717C63.3894 34.2732 63.2984 33.9546 63.1163 33.7612C62.9399 33.5621 62.7067 33.4625 62.4165 33.4625C62.1036 33.4625 61.8504 33.5877 61.6569 33.838C61.4692 34.0883 61.3753 34.461 61.3753 34.956C61.3753 35.5989 61.5118 36.2418 61.7849 36.8848H61.0937Z" fill="#344054"/>
<path d="M38.2393 49.9789C38.2393 53.8671 41.3919 57.0192 45.2801 57.0192C49.1684 57.0192 52.321 53.8671 52.321 49.9789C52.321 46.0906 49.1684 42.9386 45.2801 42.9386C41.3919 42.9386 38.2393 46.0906 38.2393 49.9789Z" fill="#F8F9FC"/>
<path d="M38.2393 49.9789C38.2393 53.8671 41.3919 57.0192 45.2801 57.0192C49.1684 57.0192 52.321 53.8671 52.321 49.9789C52.321 46.0906 49.1684 42.9386 45.2801 42.9386C41.3919 42.9386 38.2393 46.0906 38.2393 49.9789Z" stroke="#EAECF0" stroke-width="0.426719"/>
<path d="M48.6937 51.6768V52.7046C48.6941 52.8 48.6745 52.8945 48.6362 52.9819C48.5979 53.0693 48.5417 53.1478 48.4713 53.2123C48.4008 53.2768 48.3176 53.3259 48.2271 53.3565C48.1365 53.3871 48.0405 53.3984 47.9453 53.3898C46.889 53.2753 45.8743 52.915 44.9828 52.338C44.1533 51.812 43.4501 51.1102 42.9231 50.2824C42.3429 49.3886 41.9819 48.371 41.8692 47.312C41.8606 47.2173 41.8719 47.1218 41.9023 47.0317C41.9327 46.9415 41.9816 46.8587 42.0459 46.7884C42.1102 46.7181 42.1884 46.662 42.2756 46.6236C42.3627 46.5851 42.457 46.5652 42.5523 46.5652H43.5822C43.7488 46.5635 43.9103 46.6224 44.0366 46.7308C44.1629 46.8392 44.2454 46.9898 44.2687 47.1544C44.3122 47.4834 44.3928 47.8063 44.509 48.1172C44.5552 48.2398 44.5652 48.3731 44.5378 48.5012C44.5105 48.6293 44.4469 48.7469 44.3546 48.8401L43.9186 49.2752C44.4073 50.1329 45.1189 50.8431 45.9783 51.3308L46.4143 50.8957C46.5076 50.8036 46.6254 50.7401 46.7538 50.7128C46.8822 50.6854 47.0157 50.6954 47.1386 50.7415C47.4501 50.8575 47.7737 50.9379 48.1032 50.9813C48.27 51.0048 48.4223 51.0886 48.5311 51.2169C48.64 51.3451 48.6979 51.5088 48.6937 51.6768Z" fill="#47CD89"/>
<path d="M59.0956 53.0813C58.6449 53.0813 58.2387 52.9823 57.8768 52.7843C57.5218 52.5863 57.2385 52.303 57.0268 51.9343C56.822 51.5656 56.7196 51.1389 56.7196 50.6541C56.7196 50.0533 56.88 49.5447 57.2009 49.1282C56.7435 49.0121 56.3714 48.78 56.0846 48.4318C55.7979 48.0836 55.6545 47.6739 55.6545 47.2028C55.6545 46.8205 55.7467 46.4757 55.931 46.1685C56.1154 45.8612 56.368 45.6223 56.6889 45.4516C57.0098 45.2809 57.3716 45.1955 57.7744 45.1955C58.1704 45.1955 58.5255 45.2809 58.8395 45.4516C59.1604 45.6223 59.413 45.8544 59.5974 46.148C59.7817 46.4347 59.8739 46.7556 59.8739 47.1106C59.8739 47.534 59.7373 47.9163 59.4642 48.2577C60.0514 48.3396 60.5293 48.5956 60.898 49.0258C61.2735 49.4559 61.4613 49.9987 61.4613 50.6541C61.4613 51.1389 61.3555 51.5656 61.1438 51.9343C60.939 52.303 60.6556 52.5863 60.2938 52.7843C59.9388 52.9823 59.5393 53.0813 59.0956 53.0813ZM56.4738 47.2028C56.4738 47.592 56.5865 47.9129 56.8118 48.1655C57.0371 48.4181 57.3511 48.5683 57.754 48.6161C58.0271 48.4386 58.3445 48.3225 58.7064 48.2679C58.9385 47.9743 59.0546 47.6193 59.0546 47.2028C59.0546 46.8 58.9317 46.4723 58.6859 46.2197C58.4469 45.9602 58.1397 45.8305 57.7642 45.8305C57.3955 45.8305 57.0883 45.9602 56.8425 46.2197C56.5967 46.4723 56.4738 46.8 56.4738 47.2028ZM57.5594 50.6541C57.5594 51.2071 57.7027 51.6441 57.9895 51.965C58.2763 52.2791 58.6449 52.4361 59.0956 52.4361C59.5393 52.4361 59.9012 52.2791 60.1811 51.965C60.4679 51.6441 60.6113 51.2071 60.6113 50.6541C60.6113 50.1011 60.4679 49.6675 60.1811 49.3535C59.9012 49.0326 59.5393 48.8721 59.0956 48.8721C58.6449 48.8721 58.2763 49.0326 57.9895 49.3535C57.7027 49.6675 57.5594 50.1011 57.5594 50.6541ZM65.1345 48.3396C65.1277 48.5581 65.1857 48.7458 65.3086 48.9029C65.4315 49.0599 65.6193 49.2442 65.8719 49.4559C66.0972 49.6471 66.2747 49.8143 66.4044 49.9577C66.5342 50.0943 66.6468 50.2718 66.7424 50.4903C66.838 50.7019 66.8858 50.9477 66.8858 51.2276C66.8858 51.5963 66.7868 51.924 66.5888 52.2108C66.3976 52.4907 66.1382 52.7058 65.8105 52.856C65.4827 53.0062 65.1243 53.0813 64.7351 53.0813C64.3323 53.0813 63.967 53.0062 63.6393 52.856C63.3116 52.7058 63.0521 52.4907 62.861 52.2108C62.6698 51.924 62.5742 51.5861 62.5742 51.1969C62.5742 51.0262 62.5947 50.8692 62.6357 50.7258L63.4345 50.7565C63.414 50.8658 63.4038 50.9887 63.4038 51.1252C63.4038 51.528 63.5232 51.8489 63.7622 52.0879C64.008 52.32 64.3289 52.4361 64.7249 52.4361C65.114 52.4361 65.4315 52.3269 65.6773 52.1084C65.9299 51.8831 66.0562 51.5792 66.0562 51.1969C66.0562 50.917 65.9846 50.6814 65.8412 50.4903C65.6978 50.2991 65.4827 50.0874 65.196 49.8553C64.8887 49.6027 64.6566 49.3705 64.4996 49.1589C64.3494 48.9404 64.2845 48.6673 64.305 48.3396H65.1345ZM68.5191 52.9789C68.3552 52.5556 68.2289 52.1084 68.1402 51.6373C68.0582 51.1594 68.0173 50.6132 68.0173 49.9987C68.0173 48.8721 68.2153 47.9914 68.6113 47.3564C69.0073 46.7147 69.4715 46.2675 70.0041 46.0148C70.5435 45.7622 71.1477 45.5745 71.8168 45.4516L73.3018 45.1955V45.9431L71.7451 46.2299C71.1579 46.3323 70.6527 46.4859 70.2294 46.6908C69.8061 46.8956 69.4442 47.2131 69.1438 47.6432C68.8502 48.0733 68.6522 48.6502 68.5498 49.374H68.5908C68.9049 48.6093 69.4272 48.2269 70.1577 48.2269C70.4991 48.2269 70.8097 48.3294 71.0897 48.5342C71.3696 48.7322 71.5573 49.0428 71.6529 49.4661H71.7144C71.8168 49.0428 72.0216 48.7322 72.3288 48.5342C72.6361 48.3294 72.9775 48.2269 73.353 48.2269C73.7148 48.2269 74.046 48.3157 74.3464 48.4932C74.6468 48.6707 74.8857 48.9404 75.0633 49.3023C75.2408 49.6641 75.3295 50.1113 75.3295 50.6439C75.3295 51.0535 75.2886 51.4359 75.2066 51.7909C75.1247 52.1459 74.9984 52.5419 74.8277 52.9789H73.9982C74.3259 52.2074 74.4897 51.4359 74.4897 50.6644C74.4897 50.0704 74.3737 49.6232 74.1415 49.3228C73.9162 49.0223 73.6227 48.8721 73.2608 48.8721C72.9058 48.8721 72.619 48.9916 72.4005 49.2306C72.1821 49.4695 72.0728 49.8553 72.0728 50.3878V51.8114H71.274V50.3878C71.274 49.8553 71.1648 49.4695 70.9463 49.2306C70.7278 48.9916 70.4445 48.8721 70.0963 48.8721C69.7276 48.8721 69.4272 49.0223 69.195 49.3228C68.9697 49.6232 68.8571 50.0704 68.8571 50.6644C68.8571 51.4359 69.0209 52.2074 69.3486 52.9789H68.5191ZM76.9989 52.9789C76.8351 52.5556 76.7088 52.163 76.62 51.8011C76.5381 51.4393 76.4971 51.0672 76.4971 50.6848C76.4971 50.1728 76.5927 49.7324 76.7839 49.3637C76.9819 48.995 77.2516 48.7151 77.5929 48.5239C77.9411 48.3259 78.3371 48.2269 78.7809 48.2269C79.2179 48.2269 79.6105 48.3259 79.9587 48.5239C80.3069 48.7151 80.5765 48.995 80.7677 49.3637C80.9657 49.7324 81.0647 50.1728 81.0647 50.6848C81.0647 51.0672 81.0203 51.4359 80.9316 51.7909C80.8496 52.1459 80.7267 52.5419 80.5629 52.9789H79.7743C79.9313 52.5487 80.0474 52.1562 80.1225 51.8011C80.1976 51.4461 80.2352 51.0774 80.2352 50.6951C80.2352 50.1284 80.1054 49.6846 79.846 49.3637C79.5866 49.036 79.2315 48.8721 78.7809 48.8721C78.3303 48.8721 77.9753 49.036 77.7158 49.3637C77.4564 49.6846 77.3267 50.1284 77.3267 50.6951C77.3267 51.0706 77.3642 51.4427 77.4393 51.8114C77.5144 52.1732 77.6305 52.5624 77.7875 52.9789H76.9989Z" fill="#475467"/>
<path d="M89.3489 48.2726L92.7626 51.6863L96.1764 48.2726" stroke="#475467" stroke-width="1.28016" stroke-linecap="round" stroke-linejoin="round"/>
</g>
<path d="M55.48 83.552C55.3467 83.1093 55.28 82.6827 55.28 82.272C55.28 81.856 55.4 81.5253 55.64 81.28C55.8853 81.0347 56.208 80.912 56.608 80.912C56.8693 80.912 57.0987 80.976 57.296 81.104C57.4933 81.232 57.6293 81.416 57.704 81.656H57.76C57.8293 81.416 57.9547 81.232 58.136 81.104C58.3227 80.976 58.5307 80.912 58.76 80.912C59.2613 80.912 59.632 81.1173 59.872 81.528L59.32 81.92C59.1653 81.68 58.9493 81.56 58.672 81.56C58.5067 81.56 58.3733 81.6213 58.272 81.744C58.176 81.8667 58.128 82.024 58.128 82.216V82.68H57.336V82.216C57.336 82.0187 57.28 81.8587 57.168 81.736C57.056 81.608 56.9093 81.544 56.728 81.544C56.5467 81.544 56.4 81.6027 56.288 81.72C56.176 81.8373 56.12 82.0053 56.12 82.224C56.12 82.56 56.168 82.9013 56.264 83.248L56.392 83.704C56.44 83.864 56.4747 84.0507 56.496 84.264H56.552C56.6587 83.96 56.832 83.7307 57.072 83.576C57.312 83.4213 57.592 83.344 57.912 83.344C58.392 83.344 58.7627 83.4933 59.024 83.792C59.2907 84.0853 59.424 84.4667 59.424 84.936C59.424 85.4267 59.328 85.9227 59.136 86.424L58.04 89.4H57.216L55.48 83.552ZM57.736 88.632H57.792L58.4 86.192C58.5173 85.7333 58.576 85.344 58.576 85.024C58.576 84.7147 58.5013 84.4667 58.352 84.28C58.2027 84.088 57.9707 83.992 57.656 83.992C57.4107 83.992 57.2027 84.072 57.032 84.232C56.8667 84.3867 56.784 84.608 56.784 84.896C56.784 85.0347 56.8027 85.176 56.84 85.32L57.736 88.632ZM62.2324 89.488C61.8537 89.488 61.5257 89.416 61.2484 89.272C60.971 89.128 60.7604 88.928 60.6164 88.672C60.4724 88.4213 60.4004 88.136 60.4004 87.816C60.4004 87.704 60.4164 87.5867 60.4484 87.464L61.2404 87.512C61.2297 87.6293 61.2244 87.7147 61.2244 87.768C61.2244 88.0827 61.307 88.3387 61.4724 88.536C61.6377 88.7387 61.891 88.84 62.2324 88.84C62.5684 88.84 62.8324 88.7333 63.0244 88.52C63.2217 88.3067 63.3177 87.9973 63.3124 87.592L63.2964 86.72C63.291 86.5387 63.307 86.3307 63.3444 86.096H63.2964C63.179 86.3093 63.0137 86.4747 62.8004 86.592C62.587 86.704 62.3497 86.76 62.0884 86.76C61.5977 86.76 61.195 86.5973 60.8804 86.272C60.571 85.9467 60.4164 85.472 60.4164 84.848C60.4164 84.5653 60.4404 84.3147 60.4884 84.096C60.5417 83.872 60.627 83.6213 60.7444 83.344H61.5444C61.4324 83.6107 61.355 83.856 61.3124 84.08C61.275 84.304 61.2564 84.528 61.2564 84.752C61.2564 85.2267 61.3444 85.5733 61.5204 85.792C61.6964 86.0107 61.9337 86.12 62.2324 86.12C62.5417 86.12 62.795 86.016 62.9924 85.808C63.195 85.6 63.2964 85.3147 63.2964 84.952V83.344H64.1044V87.568C64.1044 88.1653 63.9364 88.6347 63.6004 88.976C63.2697 89.3173 62.8137 89.488 62.2324 89.488ZM67.2466 83.344C67.2412 83.5147 67.2839 83.6613 67.3746 83.784C67.4706 83.9013 67.6146 84.0453 67.8066 84.216C67.9719 84.36 68.1052 84.488 68.2066 84.6C68.3132 84.7067 68.4012 84.8453 68.4706 85.016C68.5452 85.1813 68.5826 85.3787 68.5826 85.608C68.5826 85.9067 68.5052 86.168 68.3506 86.392C68.1959 86.6107 67.9852 86.7813 67.7186 86.904C67.4519 87.0213 67.1586 87.08 66.8386 87.08C66.5132 87.08 66.2172 87.0213 65.9506 86.904C65.6892 86.7867 65.4812 86.616 65.3266 86.392C65.1772 86.168 65.1026 85.904 65.1026 85.6C65.1026 85.4613 65.1212 85.336 65.1586 85.224L65.9586 85.256C65.9426 85.336 65.9346 85.4267 65.9346 85.528C65.9346 85.8107 66.0172 86.0347 66.1826 86.2C66.3479 86.3653 66.5666 86.448 66.8386 86.448C67.1106 86.448 67.3319 86.3707 67.5026 86.216C67.6732 86.0613 67.7586 85.8507 67.7586 85.584C67.7586 85.376 67.7052 85.2053 67.5986 85.072C67.4972 84.9333 67.3399 84.7787 67.1266 84.608C66.9612 84.4693 66.8306 84.3493 66.7346 84.248C66.6386 84.1467 66.5586 84.0213 66.4946 83.872C66.4359 83.7227 66.4119 83.5467 66.4226 83.344H67.2466ZM69.8009 87C69.5449 86.3333 69.4169 85.5467 69.4169 84.64C69.4169 83.776 69.5716 83.096 69.8809 82.6C70.1903 82.0987 70.5609 81.7467 70.9929 81.544C71.4249 81.336 71.9023 81.1893 72.4249 81.104L73.6329 80.912V81.656L72.3929 81.856C71.9343 81.9253 71.5423 82.0373 71.2169 82.192C70.8916 82.3413 70.6169 82.568 70.3929 82.872C70.1743 83.176 70.0249 83.5787 69.9449 84.08H69.9849C70.1183 83.792 70.2836 83.584 70.4809 83.456C70.6783 83.328 70.9076 83.264 71.1689 83.264C71.4303 83.264 71.6676 83.3413 71.8809 83.496C72.0996 83.6507 72.2463 83.8907 72.3209 84.216H72.3689C72.4596 83.8907 72.6249 83.6507 72.8649 83.496C73.1049 83.3413 73.3743 83.264 73.6729 83.264C73.9663 83.264 74.2303 83.3333 74.4649 83.472C74.7049 83.6107 74.8943 83.824 75.0329 84.112C75.1769 84.4 75.2489 84.76 75.2489 85.192C75.2489 85.512 75.2169 85.8107 75.1529 86.088C75.0889 86.3653 74.9929 86.6693 74.8649 87H74.0489C74.1769 86.6907 74.2703 86.3947 74.3289 86.112C74.3876 85.824 74.4196 85.528 74.4249 85.224C74.4196 84.7813 74.3369 84.4507 74.1769 84.232C74.0169 84.008 73.8089 83.896 73.5529 83.896C73.3076 83.896 73.1076 83.984 72.9529 84.16C72.8036 84.3307 72.7289 84.6053 72.7289 84.984V86.096H71.9289V84.984C71.9289 84.6053 71.8543 84.3307 71.7049 84.16C71.5609 83.984 71.3663 83.896 71.1209 83.896C70.8596 83.896 70.6489 84.0053 70.4889 84.224C70.3289 84.4427 70.2489 84.776 70.2489 85.224C70.2489 85.528 70.2783 85.824 70.3369 86.112C70.3956 86.3947 70.4889 86.6907 70.6169 87H69.8009ZM76.5431 87C76.4151 86.68 76.3191 86.3813 76.2551 86.104C76.1911 85.8213 76.1591 85.5173 76.1591 85.192C76.1591 84.76 76.2311 84.4 76.3751 84.112C76.5191 83.824 76.7111 83.6107 76.9511 83.472C77.1911 83.3333 77.4578 83.264 77.7511 83.264C78.0605 83.264 78.3325 83.3387 78.5671 83.488C78.8018 83.6373 78.9645 83.88 79.0551 84.216H79.1111C79.2018 83.8853 79.3645 83.6453 79.5991 83.496C79.8391 83.3413 80.1111 83.264 80.4151 83.264C80.7085 83.264 80.9725 83.3333 81.2071 83.472C81.4471 83.6053 81.6365 83.8107 81.7751 84.088C81.9191 84.3653 81.9911 84.7067 81.9911 85.112C81.9911 85.3573 81.9698 85.5813 81.9271 85.784C81.8845 85.9867 81.8178 86.1893 81.7271 86.392V86.408H82.6871L82.6311 87H80.7911C80.9138 86.696 81.0045 86.4027 81.0631 86.12C81.1218 85.8373 81.1511 85.5413 81.1511 85.232C81.1511 84.784 81.0711 84.4507 80.9111 84.232C80.7565 84.008 80.5511 83.896 80.2951 83.896C80.0498 83.896 79.8498 83.984 79.6951 84.16C79.5458 84.3307 79.4711 84.6053 79.4711 84.984V86.096H78.6711V84.984C78.6711 84.6053 78.5965 84.3307 78.4471 84.16C78.2978 83.984 78.1005 83.896 77.8551 83.896C77.5938 83.896 77.3831 84.0053 77.2231 84.224C77.0631 84.4427 76.9831 84.776 76.9831 85.224C76.9831 85.528 77.0125 85.824 77.0711 86.112C77.1298 86.3947 77.2258 86.6907 77.3591 87H76.5431Z" fill="#557186"/>
<g filter="url(#filter2_d_949_40076)">
<rect x="115" y="2" width="20.4825" height="20.4825" rx="10.2412" fill="white" shape-rendering="crispEdges"/>
<rect x="115.427" y="2.42672" width="19.6291" height="19.6291" rx="9.81453" stroke="#F04438" stroke-opacity="0.3" stroke-width="0.853437" shape-rendering="crispEdges"/>
<path d="M129.509 7.97446L120.974 16.5088" stroke="#F04438" stroke-width="1.28016" stroke-linecap="round" stroke-linejoin="round"/>
<path d="M120.974 7.97446L129.509 16.5088" stroke="#F04438" stroke-width="1.28016" stroke-linecap="round" stroke-linejoin="round"/>
</g>
<defs>
<filter id="filter0_bd_949_40076" x="2.11226" y="5.01762" width="133.275" height="106.061" filterUnits="userSpaceOnUse" color-interpolation-filters="sRGB">
<feFlood flood-opacity="0" result="BackgroundImageFix"/>
<feGaussianBlur in="BackgroundImageFix" stdDeviation="2.25764"/>
<feComposite in2="SourceAlpha" operator="in" result="effect1_backgroundBlur_949_40076"/>
<feColorMatrix in="SourceAlpha" type="matrix" values="0 0 0 0 0 0 0 0 0 0 0 0 0 0 0 0 0 0 127 0" result="hardAlpha"/>
<feOffset dy="1.80611"/>
<feGaussianBlur stdDeviation="4.51528"/>
<feComposite in2="hardAlpha" operator="out"/>
<feColorMatrix type="matrix" values="0 0 0 0 0.427451 0 0 0 0 0.509804 0 0 0 0 0.698039 0 0 0 0.3 0"/>
<feBlend mode="normal" in2="effect1_backgroundBlur_949_40076" result="effect2_dropShadow_949_40076"/>
<feBlend mode="normal" in="SourceGraphic" in2="effect2_dropShadow_949_40076" result="shape"/>
</filter>
<filter id="filter1_dd_949_40076" x="0.901473" y="12.0016" width="135.697" height="81.93" filterUnits="userSpaceOnUse" color-interpolation-filters="sRGB">
<feFlood flood-opacity="0" result="BackgroundImageFix"/>
<feColorMatrix in="SourceAlpha" type="matrix" values="0 0 0 0 0 0 0 0 0 0 0 0 0 0 0 0 0 0 127 0" result="hardAlpha"/>
<feMorphology radius="3.41375" operator="erode" in="SourceAlpha" result="effect1_dropShadow_949_40076"/>
<feOffset dy="6.8275"/>
<feGaussianBlur stdDeviation="3.41375"/>
<feComposite in2="hardAlpha" operator="out"/>
<feColorMatrix type="matrix" values="0 0 0 0 0.0627451 0 0 0 0 0.0941176 0 0 0 0 0.156863 0 0 0 0.03 0"/>
<feBlend mode="normal" in2="BackgroundImageFix" result="effect1_dropShadow_949_40076"/>
<feColorMatrix in="SourceAlpha" type="matrix" values="0 0 0 0 0 0 0 0 0 0 0 0 0 0 0 0 0 0 127 0" result="hardAlpha"/>
<feMorphology radius="3.41375" operator="erode" in="SourceAlpha" result="effect2_dropShadow_949_40076"/>
<feOffset dy="10"/>
<feGaussianBlur stdDeviation="10.2412"/>
<feComposite in2="hardAlpha" operator="out"/>
<feColorMatrix type="matrix" values="0 0 0 0 0.0627451 0 0 0 0 0.0941176 0 0 0 0 0.156863 0 0 0 0.08 0"/>
<feBlend mode="normal" in2="effect1_dropShadow_949_40076" result="effect2_dropShadow_949_40076"/>
<feBlend mode="normal" in="SourceGraphic" in2="effect2_dropShadow_949_40076" result="shape"/>
</filter>
<filter id="filter2_d_949_40076" x="111.586" y="0.293126" width="27.31" height="27.31" filterUnits="userSpaceOnUse" color-interpolation-filters="sRGB">
<feFlood flood-opacity="0" result="BackgroundImageFix"/>
<feColorMatrix in="SourceAlpha" type="matrix" values="0 0 0 0 0 0 0 0 0 0 0 0 0 0 0 0 0 0 127 0" result="hardAlpha"/>
<feOffset dy="1.70687"/>
<feGaussianBlur stdDeviation="1.70687"/>
<feComposite in2="hardAlpha" operator="out"/>
<feColorMatrix type="matrix" values="0 0 0 0 0 0 0 0 0 0 0 0 0 0 0 0 0 0 0.1 0"/>
<feBlend mode="normal" in2="BackgroundImageFix" result="effect1_dropShadow_949_40076"/>
<feBlend mode="normal" in="SourceGraphic" in2="effect1_dropShadow_949_40076" result="shape"/>
</filter>
</defs>
</svg>
