<svg width="102" height="112" viewBox="0 0 102 112" fill="none" xmlns="http://www.w3.org/2000/svg">
<g filter="url(#filter0_bd_949_40140)">
<rect x="10.279" y="12.2421" width="78.5162" height="88" rx="10.2412" fill="#F3F6FD"/>
<rect x="10.7305" y="12.6936" width="77.6132" height="87.0969" rx="9.78972" stroke="white" stroke-width="0.903056"/>
</g>
<g filter="url(#filter1_dd_949_40140)">
<rect x="17.1064" y="19.0703" width="64.8612" height="47.7925" rx="6.8275" fill="white" shape-rendering="crispEdges"/>
<path d="M44.4386 31.3396H54.6354C58.2416 31.3396 61.1651 34.263 61.1651 37.8692V48.0661C61.1651 51.6723 58.2416 54.5957 54.6354 54.5957H44.4386C40.8323 54.5957 37.9089 51.6723 37.9089 48.0661V37.8692C37.9089 34.263 40.8323 31.3396 44.4386 31.3396Z" fill="white"/>
<path d="M44.4386 31.3396H54.6354C58.2416 31.3396 61.1651 34.263 61.1651 37.8692V48.0661C61.1651 51.6723 58.2416 54.5957 54.6354 54.5957H44.4386C40.8323 54.5957 37.9089 51.6723 37.9089 48.0661V37.8692C37.9089 34.263 40.8323 31.3396 44.4386 31.3396Z" stroke="#EBEBEB" stroke-width="0.640078"/>
<path d="M53.8041 38.7005L45.2698 47.2348M45.2698 47.2348H50.9594M45.2698 47.2348V41.5453" stroke="#079455" stroke-width="1.28016" stroke-linecap="round" stroke-linejoin="round"/>
</g>
<path d="M18.424 87.08C18.0453 87.08 17.7147 87 17.432 86.84C17.1493 86.68 16.9333 86.456 16.784 86.168C16.6347 85.88 16.56 85.552 16.56 85.184V82.464C16.56 81.9893 16.7067 81.616 17 81.344C17.2933 81.0667 17.6907 80.928 18.192 80.928C18.384 80.928 18.5867 80.9413 18.8 80.968C19.0453 80.9893 19.232 81 19.36 81C19.5893 81 19.784 80.9813 19.944 80.944V81.656C19.7893 81.7147 19.6133 81.744 19.416 81.744C19.2773 81.744 19.08 81.7173 18.824 81.664C18.7973 81.6587 18.7227 81.6453 18.6 81.624C18.4827 81.6027 18.3653 81.592 18.248 81.592C17.976 81.592 17.7573 81.6667 17.592 81.816C17.432 81.9653 17.3547 82.184 17.36 82.472L17.376 83.304C17.376 83.496 17.3573 83.704 17.32 83.928H17.376C17.4933 83.7147 17.6587 83.552 17.872 83.44C18.0907 83.3227 18.336 83.264 18.608 83.264C18.9333 83.264 19.2213 83.3467 19.472 83.512C19.728 83.672 19.9253 83.8987 20.064 84.192C20.208 84.48 20.28 84.8107 20.28 85.184C20.28 85.552 20.2053 85.88 20.056 86.168C19.9067 86.456 19.6907 86.68 19.408 86.84C19.1307 87 18.8027 87.08 18.424 87.08ZM17.376 85.28C17.376 85.6267 17.472 85.9067 17.664 86.12C17.856 86.3333 18.1067 86.44 18.416 86.44C18.72 86.44 18.9653 86.328 19.152 86.104C19.344 85.8747 19.44 85.5653 19.44 85.176C19.44 84.776 19.3467 84.464 19.16 84.24C18.9787 84.016 18.7307 83.904 18.416 83.904C18.1067 83.904 17.856 84.008 17.664 84.216C17.472 84.4187 17.376 84.704 17.376 85.072V85.28ZM23.2544 83.344C23.249 83.5147 23.2917 83.6613 23.3824 83.784C23.4784 83.9013 23.6224 84.0453 23.8144 84.216C23.9797 84.36 24.113 84.488 24.2144 84.6C24.321 84.7067 24.409 84.8453 24.4784 85.016C24.553 85.1813 24.5904 85.3787 24.5904 85.608C24.5904 85.9067 24.513 86.168 24.3584 86.392C24.2037 86.6107 23.993 86.7813 23.7264 86.904C23.4597 87.0213 23.1664 87.08 22.8464 87.08C22.521 87.08 22.225 87.0213 21.9584 86.904C21.697 86.7867 21.489 86.616 21.3344 86.392C21.185 86.168 21.1104 85.904 21.1104 85.6C21.1104 85.4613 21.129 85.336 21.1664 85.224L21.9664 85.256C21.9504 85.336 21.9424 85.4267 21.9424 85.528C21.9424 85.8107 22.025 86.0347 22.1904 86.2C22.3557 86.3653 22.5744 86.448 22.8464 86.448C23.1184 86.448 23.3397 86.3707 23.5104 86.216C23.681 86.0613 23.7664 85.8507 23.7664 85.584C23.7664 85.376 23.713 85.2053 23.6064 85.072C23.505 84.9333 23.3477 84.7787 23.1344 84.608C22.969 84.4693 22.8384 84.3493 22.7424 84.248C22.6464 84.1467 22.5664 84.0213 22.5024 83.872C22.4437 83.7227 22.4197 83.5467 22.4304 83.344H23.2544ZM27.2248 87.088C26.8621 87.088 26.5421 87.016 26.2648 86.872C25.9874 86.728 25.7714 86.5307 25.6168 86.28C25.4621 86.0293 25.3848 85.7467 25.3848 85.432C25.3848 85.2933 25.3981 85.1733 25.4248 85.072L26.2328 85.112C26.2168 85.1707 26.2088 85.264 26.2088 85.392C26.2088 85.6853 26.2968 85.936 26.4728 86.144C26.6488 86.3467 26.8968 86.448 27.2168 86.448C27.5368 86.448 27.7848 86.352 27.9608 86.16C28.1421 85.9627 28.2328 85.6933 28.2328 85.352C28.2328 85.0107 28.1421 84.7493 27.9608 84.568C27.7848 84.3813 27.5341 84.288 27.2088 84.288H26.8808V83.6H27.2488C27.5314 83.6 27.7368 83.544 27.8648 83.432C27.9981 83.32 28.0648 83.1573 28.0648 82.944C28.0648 82.7627 28.0141 82.6187 27.9128 82.512C27.8114 82.4053 27.6541 82.288 27.4408 82.16C27.2648 82.048 27.1234 81.9493 27.0168 81.864C26.9154 81.7787 26.8274 81.664 26.7528 81.52C26.6781 81.376 26.6408 81.2 26.6408 80.992L27.4888 80.952C27.4888 81.1227 27.5394 81.264 27.6408 81.376C27.7474 81.4827 27.9074 81.608 28.1208 81.752C28.3821 81.9173 28.5821 82.0827 28.7208 82.248C28.8594 82.408 28.9288 82.624 28.9288 82.896C28.9288 83.1573 28.8488 83.3787 28.6888 83.56C28.5341 83.736 28.2994 83.8613 27.9848 83.936V83.984C28.3101 84.0427 28.5714 84.2027 28.7688 84.464C28.9714 84.72 29.0728 85.04 29.0728 85.424C29.0728 85.7333 28.9981 86.016 28.8488 86.272C28.7048 86.5227 28.4914 86.7227 28.2088 86.872C27.9314 87.016 27.6034 87.088 27.2248 87.088ZM32.0513 83.344C32.0459 83.5147 32.0886 83.6613 32.1793 83.784C32.2753 83.9013 32.4193 84.0453 32.6113 84.216C32.7766 84.36 32.9099 84.488 33.0113 84.6C33.1179 84.7067 33.2059 84.8453 33.2753 85.016C33.3499 85.1813 33.3873 85.3787 33.3873 85.608C33.3873 85.9067 33.3099 86.168 33.1553 86.392C33.0006 86.6107 32.7899 86.7813 32.5233 86.904C32.2566 87.0213 31.9633 87.08 31.6432 87.08C31.3179 87.08 31.0219 87.0213 30.7553 86.904C30.4939 86.7867 30.2859 86.616 30.1313 86.392C29.9819 86.168 29.9073 85.904 29.9073 85.6C29.9073 85.4613 29.9259 85.336 29.9633 85.224L30.7633 85.256C30.7473 85.336 30.7393 85.4267 30.7393 85.528C30.7393 85.8107 30.8219 86.0347 30.9873 86.2C31.1526 86.3653 31.3713 86.448 31.6432 86.448C31.9153 86.448 32.1366 86.3707 32.3073 86.216C32.4779 86.0613 32.5633 85.8507 32.5633 85.584C32.5633 85.376 32.5099 85.2053 32.4033 85.072C32.3019 84.9333 32.1446 84.7787 31.9313 84.608C31.7659 84.4693 31.6353 84.3493 31.5393 84.248C31.4433 84.1467 31.3633 84.0213 31.2993 83.872C31.2406 83.7227 31.2166 83.5467 31.2273 83.344H32.0513ZM36.0728 87.088C35.6995 87.088 35.3741 87.0107 35.0968 86.856C34.8195 86.7013 34.6061 86.4853 34.4568 86.208C34.3128 85.9307 34.2408 85.6107 34.2408 85.248V81H35.0568V85.288C35.0568 85.6507 35.1501 85.936 35.3368 86.144C35.5235 86.3467 35.7661 86.448 36.0648 86.448C36.3581 86.448 36.5981 86.3493 36.7848 86.152C36.9715 85.9493 37.0648 85.6933 37.0648 85.384C37.0648 85.1973 37.0435 85.0373 37.0008 84.904C36.9581 84.7707 36.8941 84.616 36.8088 84.44C36.7181 84.2427 36.6488 84.0667 36.6008 83.912C36.5581 83.7573 36.5421 83.568 36.5528 83.344H37.3688C37.3635 83.5253 37.3821 83.6853 37.4248 83.824C37.4675 83.9573 37.5315 84.1093 37.6168 84.28C37.7128 84.4773 37.7848 84.6587 37.8328 84.824C37.8808 84.9893 37.9048 85.192 37.9048 85.432C37.9048 85.7307 37.8301 86.0053 37.6808 86.256C37.5368 86.5067 37.3261 86.7093 37.0488 86.864C36.7715 87.0133 36.4461 87.088 36.0728 87.088ZM40.8673 89.488C40.4566 89.488 40.1046 89.4053 39.8113 89.24C39.518 89.0747 39.294 88.8507 39.1393 88.568C38.99 88.2907 38.9153 87.9787 38.9153 87.632C38.9153 87.3707 38.9553 87.1227 39.0353 86.888L39.8433 86.92C39.7846 87.1653 39.7553 87.384 39.7553 87.576C39.7553 87.96 39.8513 88.2667 40.0433 88.496C40.2406 88.7307 40.5126 88.848 40.8593 88.848C41.19 88.848 41.454 88.728 41.6513 88.488C41.854 88.248 41.9553 87.9307 41.9553 87.536V84.664C41.9553 84.4187 41.8913 84.232 41.7633 84.104C41.6406 83.976 41.478 83.912 41.2753 83.912C41.0726 83.912 40.9073 83.976 40.7793 84.104C40.6566 84.232 40.5953 84.4187 40.5953 84.664V85.688H39.8033V84.64C39.8033 84.432 39.75 84.2747 39.6433 84.168C39.542 84.056 39.3953 84 39.2033 84C39.1553 84 39.0833 84.0053 38.9873 84.016C38.9073 84.032 38.8273 84.04 38.7473 84.04C38.6513 84.04 38.566 84.0267 38.4913 84V83.304C38.5713 83.3307 38.662 83.344 38.7633 83.344C38.822 83.344 38.9046 83.3387 39.0113 83.328C39.0913 83.312 39.1766 83.304 39.2673 83.304C39.4966 83.304 39.6913 83.3573 39.8513 83.464C40.0166 83.5707 40.1393 83.7653 40.2193 84.048H40.2753C40.35 83.7707 40.4966 83.5707 40.7153 83.448C40.934 83.3253 41.1713 83.264 41.4273 83.264C41.8326 83.264 42.1553 83.392 42.3953 83.648C42.6406 83.904 42.7633 84.232 42.7633 84.632V87.544C42.7633 88.1253 42.6033 88.5947 42.2833 88.952C41.9633 89.3093 41.4913 89.488 40.8673 89.488ZM45.7454 87.08C45.3668 87.08 45.0361 87 44.7534 86.84C44.4708 86.68 44.2548 86.456 44.1054 86.168C43.9561 85.88 43.8814 85.552 43.8814 85.184V81H44.6974L44.6894 83.304C44.6894 83.5333 44.6708 83.7413 44.6334 83.928H44.6894C44.8068 83.72 44.9721 83.56 45.1854 83.448C45.3988 83.3307 45.6414 83.2693 45.9134 83.264L46.4334 82.304L47.0814 82.504L46.4894 83.36C46.8308 83.4773 47.1001 83.6987 47.2974 84.024C47.5001 84.3493 47.6014 84.736 47.6014 85.184C47.6014 85.552 47.5268 85.88 47.3774 86.168C47.2281 86.456 47.0121 86.68 46.7294 86.84C46.4521 87 46.1241 87.08 45.7454 87.08ZM44.6974 85.28C44.6974 85.6267 44.7934 85.9067 44.9854 86.12C45.1774 86.3333 45.4281 86.44 45.7374 86.44C46.0414 86.44 46.2868 86.328 46.4734 86.104C46.6654 85.8747 46.7614 85.5653 46.7614 85.176C46.7614 84.776 46.6681 84.464 46.4814 84.24C46.3001 84.016 46.0521 83.904 45.7374 83.904C45.4281 83.904 45.1774 84.008 44.9854 84.216C44.7934 84.4187 44.6974 84.704 44.6974 85.072V85.28ZM48.9107 86.04C49.06 86.04 49.1854 86.0907 49.2867 86.192C49.388 86.2933 49.4387 86.416 49.4387 86.56C49.4387 86.7093 49.388 86.8347 49.2867 86.936C49.1854 87.032 49.06 87.08 48.9107 87.08C48.772 87.08 48.652 87.0293 48.5507 86.928C48.4494 86.8267 48.3987 86.704 48.3987 86.56C48.3987 86.416 48.4494 86.2933 48.5507 86.192C48.652 86.0907 48.772 86.04 48.9107 86.04ZM51.9013 81.016H52.7173L50.6773 87.536H49.8613L51.9013 81.016ZM55.4611 89.488C55.0504 89.488 54.6984 89.4053 54.4051 89.24C54.1117 89.0747 53.8877 88.8507 53.7331 88.568C53.5837 88.2907 53.5091 87.9787 53.5091 87.632C53.5091 87.3707 53.5491 87.1227 53.6291 86.888L54.4371 86.92C54.3784 87.1653 54.3491 87.384 54.3491 87.576C54.3491 87.96 54.4451 88.2667 54.6371 88.496C54.8344 88.7307 55.1064 88.848 55.4531 88.848C55.7837 88.848 56.0477 88.728 56.2451 88.488C56.4477 88.248 56.5491 87.9307 56.5491 87.536V84.664C56.5491 84.4187 56.4851 84.232 56.3571 84.104C56.2344 83.976 56.0717 83.912 55.8691 83.912C55.6664 83.912 55.5011 83.976 55.3731 84.104C55.2504 84.232 55.1891 84.4187 55.1891 84.664V85.688H54.3971V84.64C54.3971 84.432 54.3437 84.2747 54.2371 84.168C54.1357 84.056 53.9891 84 53.7971 84C53.7491 84 53.6771 84.0053 53.5811 84.016C53.5011 84.032 53.4211 84.04 53.3411 84.04C53.2451 84.04 53.1597 84.0267 53.0851 84V83.304C53.1651 83.3307 53.2557 83.344 53.3571 83.344C53.4157 83.344 53.4984 83.3387 53.6051 83.328C53.6851 83.312 53.7704 83.304 53.8611 83.304C54.0904 83.304 54.2851 83.3573 54.4451 83.464C54.6104 83.5707 54.7331 83.7653 54.8131 84.048H54.8691C54.9437 83.7707 55.0904 83.5707 55.3091 83.448C55.5277 83.3253 55.7651 83.264 56.0211 83.264C56.4264 83.264 56.7491 83.392 56.9891 83.648C57.2344 83.904 57.3571 84.232 57.3571 84.632V87.544C57.3571 88.1253 57.1971 88.5947 56.8771 88.952C56.5571 89.3093 56.0851 89.488 55.4611 89.488ZM60.1779 87.088C59.8152 87.088 59.4952 87.016 59.2179 86.872C58.9405 86.728 58.7245 86.5307 58.5699 86.28C58.4152 86.0293 58.3379 85.7467 58.3379 85.432C58.3379 85.2933 58.3512 85.1733 58.3779 85.072L59.1859 85.112C59.1699 85.1707 59.1619 85.264 59.1619 85.392C59.1619 85.6853 59.2499 85.936 59.4259 86.144C59.6019 86.3467 59.8499 86.448 60.1699 86.448C60.4899 86.448 60.7379 86.352 60.9139 86.16C61.0952 85.9627 61.1859 85.6933 61.1859 85.352C61.1859 85.0107 61.0952 84.7493 60.9139 84.568C60.7379 84.3813 60.4872 84.288 60.1619 84.288H59.8339V83.6H60.2019C60.4845 83.6 60.6899 83.544 60.8179 83.432C60.9512 83.32 61.0179 83.1573 61.0179 82.944C61.0179 82.7627 60.9672 82.6187 60.8659 82.512C60.7645 82.4053 60.6072 82.288 60.3939 82.16C60.2179 82.048 60.0765 81.9493 59.9699 81.864C59.8685 81.7787 59.7805 81.664 59.7059 81.52C59.6312 81.376 59.5939 81.2 59.5939 80.992L60.4419 80.952C60.4419 81.1227 60.4925 81.264 60.5939 81.376C60.7005 81.4827 60.8605 81.608 61.0739 81.752C61.3352 81.9173 61.5352 82.0827 61.6739 82.248C61.8125 82.408 61.8819 82.624 61.8819 82.896C61.8819 83.1573 61.8019 83.3787 61.6419 83.56C61.4872 83.736 61.2525 83.8613 60.9379 83.936V83.984C61.2632 84.0427 61.5245 84.2027 61.7219 84.464C61.9245 84.72 62.0259 85.04 62.0259 85.424C62.0259 85.7333 61.9512 86.016 61.8019 86.272C61.6579 86.5227 61.4445 86.7227 61.1619 86.872C60.8845 87.016 60.5565 87.088 60.1779 87.088ZM65.0044 83.344C64.999 83.5147 65.0417 83.6613 65.1324 83.784C65.2284 83.9013 65.3724 84.0453 65.5644 84.216C65.7297 84.36 65.863 84.488 65.9644 84.6C66.071 84.7067 66.159 84.8453 66.2284 85.016C66.303 85.1813 66.3404 85.3787 66.3404 85.608C66.3404 85.9067 66.263 86.168 66.1084 86.392C65.9537 86.6107 65.743 86.7813 65.4764 86.904C65.2097 87.0213 64.9164 87.08 64.5964 87.08C64.271 87.08 63.975 87.0213 63.7084 86.904C63.447 86.7867 63.239 86.616 63.0844 86.392C62.935 86.168 62.8604 85.904 62.8604 85.6C62.8604 85.4613 62.879 85.336 62.9164 85.224L63.7164 85.256C63.7004 85.336 63.6924 85.4267 63.6924 85.528C63.6924 85.8107 63.775 86.0347 63.9404 86.2C64.1057 86.3653 64.3244 86.448 64.5964 86.448C64.8684 86.448 65.0897 86.3707 65.2604 86.216C65.431 86.0613 65.5164 85.8507 65.5164 85.584C65.5164 85.376 65.463 85.2053 65.3564 85.072C65.255 84.9333 65.0977 84.7787 64.8844 84.608C64.719 84.4693 64.5884 84.3493 64.4924 84.248C64.3964 84.1467 64.3164 84.0213 64.2524 83.872C64.1937 83.7227 64.1697 83.5467 64.1804 83.344H65.0044ZM69.0259 87.088C68.6526 87.088 68.3273 87.0107 68.0499 86.856C67.7726 86.7013 67.5593 86.4853 67.4099 86.208C67.2659 85.9307 67.1939 85.6107 67.1939 85.248V81H68.0099V85.288C68.0099 85.6507 68.1033 85.936 68.2899 86.144C68.4766 86.3467 68.7193 86.448 69.0179 86.448C69.3113 86.448 69.5513 86.3493 69.7379 86.152C69.9246 85.9493 70.0179 85.6933 70.0179 85.384C70.0179 85.1973 69.9966 85.0373 69.9539 84.904C69.9113 84.7707 69.8473 84.616 69.7619 84.44C69.6713 84.2427 69.6019 84.0667 69.5539 83.912C69.5113 83.7573 69.4953 83.568 69.5059 83.344H70.3219C70.3166 83.5253 70.3353 83.6853 70.3779 83.824C70.4206 83.9573 70.4846 84.1093 70.5699 84.28C70.6659 84.4773 70.7379 84.6587 70.7859 84.824C70.8339 84.9893 70.8579 85.192 70.8579 85.432C70.8579 85.7307 70.7833 86.0053 70.6339 86.256C70.4899 86.5067 70.2793 86.7093 70.0019 86.864C69.7246 87.0133 69.3993 87.088 69.0259 87.088ZM73.8204 89.488C73.4098 89.488 73.0578 89.4053 72.7644 89.24C72.4711 89.0747 72.2471 88.8507 72.0924 88.568C71.9431 88.2907 71.8684 87.9787 71.8684 87.632C71.8684 87.3707 71.9084 87.1227 71.9884 86.888L72.7964 86.92C72.7378 87.1653 72.7084 87.384 72.7084 87.576C72.7084 87.96 72.8044 88.2667 72.9964 88.496C73.1938 88.7307 73.4658 88.848 73.8124 88.848C74.1431 88.848 74.4071 88.728 74.6044 88.488C74.8071 88.248 74.9084 87.9307 74.9084 87.536V84.664C74.9084 84.4187 74.8444 84.232 74.7164 84.104C74.5938 83.976 74.4311 83.912 74.2284 83.912C74.0258 83.912 73.8604 83.976 73.7324 84.104C73.6098 84.232 73.5484 84.4187 73.5484 84.664V85.688H72.7564V84.64C72.7564 84.432 72.7031 84.2747 72.5964 84.168C72.4951 84.056 72.3484 84 72.1564 84C72.1084 84 72.0364 84.0053 71.9404 84.016C71.8604 84.032 71.7804 84.04 71.7004 84.04C71.6044 84.04 71.5191 84.0267 71.4444 84V83.304C71.5244 83.3307 71.6151 83.344 71.7164 83.344C71.7751 83.344 71.8578 83.3387 71.9644 83.328C72.0444 83.312 72.1298 83.304 72.2204 83.304C72.4498 83.304 72.6444 83.3573 72.8044 83.464C72.9698 83.5707 73.0924 83.7653 73.1724 84.048H73.2284C73.3031 83.7707 73.4498 83.5707 73.6684 83.448C73.8871 83.3253 74.1244 83.264 74.3804 83.264C74.7858 83.264 75.1084 83.392 75.3484 83.648C75.5938 83.904 75.7164 84.232 75.7164 84.632V87.544C75.7164 88.1253 75.5564 88.5947 75.2364 88.952C74.9164 89.3093 74.4444 89.488 73.8204 89.488ZM78.6986 87.08C78.3199 87.08 77.9892 87 77.7066 86.84C77.4239 86.68 77.2079 86.456 77.0586 86.168C76.9092 85.88 76.8346 85.552 76.8346 85.184V81H77.6506L77.6426 83.304C77.6426 83.5333 77.6239 83.7413 77.5866 83.928H77.6426C77.7599 83.72 77.9252 83.56 78.1386 83.448C78.3519 83.3307 78.5946 83.2693 78.8666 83.264L79.3866 82.304L80.0346 82.504L79.4426 83.36C79.7839 83.4773 80.0532 83.6987 80.2506 84.024C80.4532 84.3493 80.5546 84.736 80.5546 85.184C80.5546 85.552 80.4799 85.88 80.3306 86.168C80.1812 86.456 79.9652 86.68 79.6826 86.84C79.4052 87 79.0772 87.08 78.6986 87.08ZM77.6506 85.28C77.6506 85.6267 77.7466 85.9067 77.9386 86.12C78.1306 86.3333 78.3812 86.44 78.6906 86.44C78.9946 86.44 79.2399 86.328 79.4266 86.104C79.6186 85.8747 79.7146 85.5653 79.7146 85.176C79.7146 84.776 79.6212 84.464 79.4346 84.24C79.2532 84.016 79.0052 83.904 78.6906 83.904C78.3812 83.904 78.1306 84.008 77.9386 84.216C77.7466 84.4187 77.6506 84.704 77.6506 85.072V85.28ZM81.8638 86.04C82.0131 86.04 82.1385 86.0907 82.2398 86.192C82.3411 86.2933 82.3918 86.416 82.3918 86.56C82.3918 86.7093 82.3411 86.8347 82.2398 86.936C82.1385 87.032 82.0131 87.08 81.8638 87.08C81.7251 87.08 81.6051 87.0293 81.5038 86.928C81.4025 86.8267 81.3518 86.704 81.3518 86.56C81.3518 86.416 81.4025 86.2933 81.5038 86.192C81.6051 86.0907 81.7251 86.04 81.8638 86.04Z" fill="#557186"/>
<g filter="url(#filter2_d_949_40140)">
<rect x="78" y="2" width="20.4825" height="20.4825" rx="10.2412" fill="white" shape-rendering="crispEdges"/>
<rect x="78.4267" y="2.42672" width="19.6291" height="19.6291" rx="9.81453" stroke="#F04438" stroke-opacity="0.3" stroke-width="0.853437" shape-rendering="crispEdges"/>
<path d="M92.5084 7.97446L83.9741 16.5088" stroke="#F04438" stroke-width="1.28016" stroke-linecap="round" stroke-linejoin="round"/>
<path d="M83.9741 7.97446L92.5084 16.5088" stroke="#F04438" stroke-width="1.28016" stroke-linecap="round" stroke-linejoin="round"/>
</g>
<defs>
<filter id="filter0_bd_949_40140" x="1.24843" y="5.01762" width="96.5774" height="106.061" filterUnits="userSpaceOnUse" color-interpolation-filters="sRGB">
<feFlood flood-opacity="0" result="BackgroundImageFix"/>
<feGaussianBlur in="BackgroundImageFix" stdDeviation="2.25764"/>
<feComposite in2="SourceAlpha" operator="in" result="effect1_backgroundBlur_949_40140"/>
<feColorMatrix in="SourceAlpha" type="matrix" values="0 0 0 0 0 0 0 0 0 0 0 0 0 0 0 0 0 0 127 0" result="hardAlpha"/>
<feOffset dy="1.80611"/>
<feGaussianBlur stdDeviation="4.51528"/>
<feComposite in2="hardAlpha" operator="out"/>
<feColorMatrix type="matrix" values="0 0 0 0 0.427451 0 0 0 0 0.509804 0 0 0 0 0.698039 0 0 0 0.3 0"/>
<feBlend mode="normal" in2="effect1_backgroundBlur_949_40140" result="effect2_dropShadow_949_40140"/>
<feBlend mode="normal" in="SourceGraphic" in2="effect2_dropShadow_949_40140" result="shape"/>
</filter>
<filter id="filter1_dd_949_40140" x="0.037703" y="12.0016" width="98.9987" height="81.93" filterUnits="userSpaceOnUse" color-interpolation-filters="sRGB">
<feFlood flood-opacity="0" result="BackgroundImageFix"/>
<feColorMatrix in="SourceAlpha" type="matrix" values="0 0 0 0 0 0 0 0 0 0 0 0 0 0 0 0 0 0 127 0" result="hardAlpha"/>
<feMorphology radius="3.41375" operator="erode" in="SourceAlpha" result="effect1_dropShadow_949_40140"/>
<feOffset dy="6.8275"/>
<feGaussianBlur stdDeviation="3.41375"/>
<feComposite in2="hardAlpha" operator="out"/>
<feColorMatrix type="matrix" values="0 0 0 0 0.0627451 0 0 0 0 0.0941176 0 0 0 0 0.156863 0 0 0 0.03 0"/>
<feBlend mode="normal" in2="BackgroundImageFix" result="effect1_dropShadow_949_40140"/>
<feColorMatrix in="SourceAlpha" type="matrix" values="0 0 0 0 0 0 0 0 0 0 0 0 0 0 0 0 0 0 127 0" result="hardAlpha"/>
<feMorphology radius="3.41375" operator="erode" in="SourceAlpha" result="effect2_dropShadow_949_40140"/>
<feOffset dy="10"/>
<feGaussianBlur stdDeviation="10.2412"/>
<feComposite in2="hardAlpha" operator="out"/>
<feColorMatrix type="matrix" values="0 0 0 0 0.0627451 0 0 0 0 0.0941176 0 0 0 0 0.156863 0 0 0 0.08 0"/>
<feBlend mode="normal" in2="effect1_dropShadow_949_40140" result="effect2_dropShadow_949_40140"/>
<feBlend mode="normal" in="SourceGraphic" in2="effect2_dropShadow_949_40140" result="shape"/>
</filter>
<filter id="filter2_d_949_40140" x="74.5863" y="0.293126" width="27.31" height="27.31" filterUnits="userSpaceOnUse" color-interpolation-filters="sRGB">
<feFlood flood-opacity="0" result="BackgroundImageFix"/>
<feColorMatrix in="SourceAlpha" type="matrix" values="0 0 0 0 0 0 0 0 0 0 0 0 0 0 0 0 0 0 127 0" result="hardAlpha"/>
<feOffset dy="1.70687"/>
<feGaussianBlur stdDeviation="1.70687"/>
<feComposite in2="hardAlpha" operator="out"/>
<feColorMatrix type="matrix" values="0 0 0 0 0 0 0 0 0 0 0 0 0 0 0 0 0 0 0.1 0"/>
<feBlend mode="normal" in2="BackgroundImageFix" result="effect1_dropShadow_949_40140"/>
<feBlend mode="normal" in="SourceGraphic" in2="effect1_dropShadow_949_40140" result="shape"/>
</filter>
</defs>
</svg>
