<svg width="185" height="111" viewBox="0 0 185 111" fill="none" xmlns="http://www.w3.org/2000/svg">
<g filter="url(#filter0_bd_949_40081)">
<rect x="10.7171" y="11.2421" width="161.3" height="88" rx="10.2412" fill="#F3F6FD"/>
<rect x="11.1686" y="11.6936" width="160.397" height="87.0969" rx="9.78972" stroke="white" stroke-width="0.903056"/>
</g>
<g filter="url(#filter1_dd_949_40081)">
<rect x="17.5449" y="18.0703" width="147.645" height="47.7925" rx="6.8275" fill="white" shape-rendering="crispEdges"/>
<rect x="38.4541" y="28.3115" width="26.4565" height="26.4565" rx="13.2283" fill="white"/>
<rect x="38.4541" y="28.3115" width="26.4565" height="26.4565" rx="13.2283" stroke="#D0D5DD" stroke-width="0.853437"/>
<path d="M58.5311 38.1082C58.3907 38.3981 58.2396 38.6825 58.0778 38.9617C57.4946 39.9663 56.7888 40.8801 55.9656 41.698V42.4163H55.9549C55.9549 42.7933 55.9069 43.1542 55.8144 43.4973C55.8002 43.5614 55.7824 43.6272 55.7611 43.6858C55.7238 43.8192 55.6757 43.9543 55.6171 44.0788C55.594 44.1303 55.5726 44.1801 55.5513 44.2281C55.4766 44.3828 55.3966 44.5339 55.3095 44.6744C54.5521 45.8834 53.2132 46.6888 51.6823 46.6888C50.1515 46.6888 48.8127 45.8834 48.0535 44.6744C47.9628 44.5304 47.8828 44.3828 47.8134 44.2281C47.7921 44.1801 47.7637 44.1268 47.7495 44.0788C47.689 43.949 47.641 43.8192 47.6036 43.6858C47.5823 43.6272 47.5663 43.5614 47.5503 43.4973C47.4579 43.1542 47.4098 42.7933 47.4098 42.4163H47.4045V41.5362H47.4098C47.4098 41.1593 47.4579 40.7984 47.5503 40.4552C47.5663 40.3912 47.5823 40.3254 47.6036 40.2667C47.641 40.1334 47.689 40.0036 47.7495 39.8756C47.7637 39.8258 47.7921 39.7725 47.8134 39.7245C47.8828 39.568 47.9628 39.424 48.0535 39.2782C48.8127 38.0691 50.1515 37.2637 51.6823 37.2637C51.7339 37.2637 51.7837 37.2637 51.8335 37.2673L52.1731 36.9241C52.6069 36.4867 53.1758 35.7471 53.4265 34.7016C53.4745 34.5043 53.5083 34.3034 53.5297 34.1024C52.9376 33.9549 52.3188 33.8784 51.6823 33.8784C50.3702 33.8784 49.1345 34.2056 48.0535 34.7852C47.705 34.9737 47.3725 35.1888 47.0561 35.4359C45.2176 36.8281 44.0245 39.0417 44.0245 41.5362V42.4163C44.0245 45.062 45.367 47.3929 47.4045 48.7691C47.6143 48.9149 47.8295 49.0482 48.0535 49.1674C49.1345 49.747 50.3702 50.0741 51.6823 50.0741C52.9945 50.0741 54.2302 49.747 55.3095 49.1674C55.5353 49.0429 55.7558 48.9149 55.9656 48.7638C58.0014 47.3929 59.3402 45.062 59.3402 42.4163V41.5362C59.3402 40.3005 59.0485 39.1377 58.5311 38.1082Z" fill="#261D44"/>
<path d="M58.401 35.7364C58.1717 36.5223 57.8126 37.4699 57.2312 38.4709C56.0915 40.4321 54.6406 41.666 53.6716 42.3559C54.1304 41.6215 54.6869 40.5085 54.9233 39.0701C55.0105 38.5385 55.0407 38.046 55.0389 37.6104C54.3153 37.6104 53.5916 37.6104 52.868 37.6104C53.2716 37.2032 54.0467 36.3054 54.3775 34.9292C54.5641 34.1522 54.5481 33.4766 54.4966 33.0054H57.6418C57.5956 33.3557 57.4818 33.9051 57.16 34.506C56.8417 35.1034 56.4506 35.5017 56.1839 35.7346H58.401V35.7364Z" fill="#8C64F0"/>
<path d="M75.4181 31.7039L72.9568 38.8848H72.1324L69.002 29.9476H70.0773L72.5625 37.2359L75.0239 29.9476H75.8244L78.3096 37.2359L80.7948 29.9476H81.8343L78.7158 38.8848H77.9034L75.4181 31.7039ZM88.9935 34.679H84.1784V38.8848H83.2106V29.9476H84.1784V33.8068H88.9935V29.9476H89.9851V38.8848H88.9935V34.679ZM92.1833 29.9476H93.1511V38.8848H92.1833V29.9476ZM101.211 38.0126V38.8848H94.6996V38.144L99.8731 30.8078H94.8788V29.9476H101.128V30.6884L95.9542 38.0126H101.211ZM102.815 37.7019C103.006 37.7019 103.161 37.7656 103.281 37.8931C103.408 38.0126 103.472 38.1639 103.472 38.3471C103.472 38.5303 103.408 38.6856 103.281 38.8131C103.161 38.9326 103.006 38.9923 102.815 38.9923C102.631 38.9923 102.48 38.9326 102.361 38.8131C102.241 38.6856 102.181 38.5303 102.181 38.3471C102.181 38.1639 102.241 38.0126 102.361 37.8931C102.48 37.7656 102.631 37.7019 102.815 37.7019ZM105.135 29.9476H106.103V38.8848H105.135V29.9476ZM112.383 29.84C113.219 29.84 113.976 30.0272 114.653 30.4016C115.33 30.768 115.864 31.2977 116.254 31.9907C116.644 32.6757 116.839 33.4842 116.839 34.4162C116.839 35.3481 116.644 36.1606 116.254 36.8536C115.864 37.5386 115.33 38.0683 114.653 38.4427C113.976 38.8091 113.219 38.9923 112.383 38.9923C111.538 38.9923 110.774 38.8091 110.089 38.4427C109.412 38.0683 108.874 37.5386 108.476 36.8536C108.085 36.1606 107.89 35.3481 107.89 34.4162C107.89 33.4842 108.085 32.6757 108.476 31.9907C108.874 31.2977 109.412 30.768 110.089 30.4016C110.774 30.0272 111.538 29.84 112.383 29.84ZM108.894 34.4162C108.894 35.1729 109.045 35.834 109.348 36.3996C109.651 36.9571 110.065 37.3873 110.59 37.69C111.124 37.9847 111.722 38.132 112.383 38.132C113.036 38.132 113.625 37.9847 114.151 37.69C114.677 37.3873 115.091 36.9571 115.394 36.3996C115.696 35.834 115.848 35.1729 115.848 34.4162C115.848 33.6515 115.696 32.9904 115.394 32.4328C115.091 31.8752 114.677 31.4491 114.151 31.1543C113.625 30.8516 113.036 30.7003 112.383 30.7003C111.722 30.7003 111.124 30.8516 110.59 31.1543C110.065 31.4491 109.651 31.8752 109.348 32.4328C109.045 32.9904 108.894 33.6515 108.894 34.4162Z" fill="#101828"/>
<path d="M71.5777 43.9596C72.2604 43.9596 72.7896 44.1508 73.1651 44.5331C73.5474 44.9086 73.7386 45.431 73.7386 46.1C73.7386 46.694 73.6123 47.2163 73.3597 47.667C73.107 48.1176 72.7281 48.6057 72.2229 49.1315L70.4307 50.9646H73.841V51.7122H69.3348V51.0568L71.5879 48.7013C72.0658 48.1893 72.4038 47.7557 72.6018 47.4007C72.8066 47.0388 72.909 46.6155 72.909 46.1308C72.909 45.6938 72.793 45.3456 72.5608 45.0862C72.3355 44.8267 72.0078 44.697 71.5777 44.697C71.1202 44.697 70.7686 44.837 70.5228 45.1169C70.2839 45.3968 70.1576 45.7928 70.1439 46.3049L69.3144 46.2639C69.328 45.5334 69.5294 44.9667 69.9186 44.5639C70.3146 44.161 70.8676 43.9596 71.5777 43.9596ZM77.0481 43.9596C77.724 43.9596 78.2566 44.1474 78.6457 44.5229C79.0349 44.8916 79.2295 45.3968 79.2295 46.0386C79.2295 46.4687 79.1237 46.834 78.912 47.1344C78.7072 47.428 78.4443 47.6294 78.1234 47.7386C78.5126 47.8342 78.8267 48.0425 79.0656 48.3634C79.3046 48.6774 79.4241 49.0768 79.4241 49.5616C79.4241 50.2512 79.209 50.7974 78.7789 51.2002C78.3487 51.603 77.7786 51.8044 77.0686 51.8044C76.3449 51.8044 75.7782 51.6098 75.3685 51.2207C74.9589 50.8247 74.7268 50.2751 74.6721 49.5718L75.5119 49.5309C75.5665 50.0156 75.7236 50.3945 75.983 50.6676C76.2425 50.9339 76.6043 51.0671 77.0686 51.0671C77.5397 51.0671 77.9084 50.9339 78.1746 50.6676C78.4477 50.3945 78.5843 50.0224 78.5843 49.5513C78.5843 49.0871 78.4409 48.732 78.1542 48.4863C77.8674 48.2405 77.4817 48.1176 76.9969 48.1176H76.2493V47.3904H76.9867C77.4031 47.3904 77.7411 47.2675 78.0005 47.0218C78.26 46.776 78.3897 46.4482 78.3897 46.0386C78.3897 45.6153 78.2668 45.2876 78.021 45.0554C77.7821 44.8165 77.4578 44.697 77.0481 44.697C76.6248 44.697 76.2868 44.8267 76.0342 45.0862C75.7884 45.3388 75.6519 45.6938 75.6246 46.1513L74.795 46.1C74.8292 45.431 75.0408 44.9086 75.43 44.5331C75.826 44.1508 76.3654 43.9596 77.0481 43.9596ZM83.2101 43.9596C83.7632 43.9596 84.2445 44.1132 84.6542 44.4205C85.0638 44.7209 85.3779 45.1647 85.5963 45.7518C85.8217 46.339 85.9343 47.0491 85.9343 47.882C85.9343 48.7082 85.8217 49.4182 85.5963 50.0122C85.3779 50.5994 85.0638 51.0466 84.6542 51.3538C84.2445 51.6542 83.7632 51.8044 83.2101 51.8044C82.6571 51.8044 82.1724 51.6542 81.7559 51.3538C81.3462 51.0466 81.0288 50.5994 80.8034 50.0122C80.585 49.4182 80.4757 48.7082 80.4757 47.882C80.4757 47.0491 80.585 46.339 80.8034 45.7518C81.0288 45.1647 81.3462 44.7209 81.7559 44.4205C82.1724 44.1132 82.6571 43.9596 83.2101 43.9596ZM81.3257 47.882C81.3257 48.9198 81.4862 49.7118 81.8071 50.258C82.128 50.7974 82.5922 51.0671 83.1999 51.0671C83.8144 51.0671 84.2821 50.7974 84.6029 50.258C84.9307 49.7118 85.0945 48.9198 85.0945 47.882C85.0945 46.8374 84.9307 46.0454 84.6029 45.5061C84.2821 44.9667 83.8144 44.697 83.1999 44.697C82.5922 44.697 82.128 44.9701 81.8071 45.5163C81.4862 46.0557 81.3257 46.8442 81.3257 47.882ZM89.3198 43.9596C90.0026 43.9596 90.5317 44.1508 90.9072 44.5331C91.2896 44.9086 91.4807 45.431 91.4807 46.1C91.4807 46.694 91.3544 47.2163 91.1018 47.667C90.8492 48.1176 90.4703 48.6057 89.965 49.1315L88.1728 50.9646H91.5832V51.7122H87.077V51.0568L89.3301 48.7013C89.808 48.1893 90.146 47.7557 90.344 47.4007C90.5488 47.0388 90.6512 46.6155 90.6512 46.1308C90.6512 45.6938 90.5351 45.3456 90.303 45.0862C90.0777 44.8267 89.75 44.697 89.3198 44.697C88.8624 44.697 88.5108 44.837 88.265 45.1169C88.026 45.3968 87.8997 45.7928 87.8861 46.3049L87.0565 46.2639C87.0702 45.5334 87.2716 44.9667 87.6608 44.5639C88.0568 44.161 88.6098 43.9596 89.3198 43.9596ZM94.9132 47.032C95.3569 47.032 95.7495 47.1276 96.0909 47.3188C96.4391 47.5031 96.7088 47.7728 96.9 48.1278C97.0911 48.4828 97.1867 48.9027 97.1867 49.3875C97.1867 49.8586 97.0911 50.2785 96.9 50.6472C96.7156 51.009 96.4425 51.2924 96.0807 51.4972C95.7256 51.702 95.3023 51.8044 94.8107 51.8044C94.1007 51.8044 93.5408 51.6133 93.1312 51.2309C92.7215 50.8417 92.4894 50.3092 92.4348 49.6333L93.2746 49.5821C93.3292 50.0532 93.4828 50.4184 93.7354 50.6779C93.9949 50.9373 94.3533 51.0671 94.8107 51.0671C95.3023 51.0671 95.6847 50.9134 95.9578 50.6062C96.2309 50.2921 96.3674 49.8893 96.3674 49.3977C96.3674 48.913 96.2275 48.5238 95.9475 48.2302C95.6676 47.9298 95.2989 47.7796 94.8415 47.7796C94.5752 47.7796 94.3328 47.8206 94.1143 47.9025C93.9027 47.9844 93.6945 48.1073 93.4896 48.2712H92.7113V44.0313H96.9V44.7687H93.5408V47.4621C93.9368 47.1754 94.3943 47.032 94.9132 47.032ZM100.726 51.8044C100.242 51.8044 99.8046 51.7054 99.4154 51.5074C99.033 51.3026 98.7292 51.0124 98.5039 50.6369C98.2854 50.2614 98.1762 49.8279 98.1762 49.3363C98.1762 48.7491 98.3469 48.22 98.6883 47.7489L101.494 44.0518H102.478L100.306 46.9193C100.511 46.8852 100.699 46.8681 100.87 46.8681C101.327 46.8886 101.737 47.0013 102.099 47.2061C102.46 47.4109 102.744 47.6977 102.949 48.0664C103.16 48.4351 103.266 48.8584 103.266 49.3363C103.266 49.8279 103.153 50.2614 102.928 50.6369C102.71 51.0124 102.409 51.3026 102.027 51.5074C101.645 51.7054 101.211 51.8044 100.726 51.8044ZM99.0262 49.3158C99.0262 49.8483 99.1833 50.2751 99.4973 50.596C99.8114 50.91 100.221 51.0671 100.726 51.0671C101.218 51.0671 101.621 50.9066 101.935 50.5857C102.256 50.2648 102.416 49.8415 102.416 49.3158C102.416 48.7764 102.256 48.3497 101.935 48.0356C101.621 47.7216 101.218 47.5645 100.726 47.5645C100.132 47.5645 99.6817 47.766 99.3744 48.1688C99.1423 48.4555 99.0262 48.8379 99.0262 49.3158ZM106.777 43.9596C107.207 43.9596 107.593 44.0416 107.935 44.2054C108.283 44.3624 108.556 44.5946 108.754 44.9018C108.959 45.2091 109.061 45.5709 109.061 45.9874C109.061 46.3902 108.962 46.7384 108.764 47.032C108.566 47.3256 108.317 47.5406 108.016 47.6772C108.371 47.8206 108.662 48.0595 108.887 48.3941C109.119 48.7286 109.235 49.1246 109.235 49.5821C109.235 50.0327 109.129 50.4287 108.918 50.7701C108.706 51.1046 108.412 51.3606 108.037 51.5381C107.668 51.7157 107.248 51.8044 106.777 51.8044C106.306 51.8044 105.883 51.7157 105.507 51.5381C105.139 51.3606 104.848 51.1046 104.637 50.7701C104.425 50.4287 104.319 50.0327 104.319 49.5821C104.319 49.1246 104.432 48.732 104.657 48.4043C104.883 48.0698 105.173 47.8274 105.528 47.6772C105.221 47.5406 104.971 47.3256 104.78 47.032C104.589 46.7384 104.493 46.3902 104.493 45.9874C104.493 45.5709 104.589 45.2091 104.78 44.9018C104.978 44.5946 105.251 44.3624 105.599 44.2054C105.948 44.0416 106.34 43.9596 106.777 43.9596ZM105.149 49.5616C105.149 50.019 105.303 50.3843 105.61 50.6574C105.924 50.9305 106.313 51.0671 106.777 51.0671C107.248 51.0671 107.638 50.9305 107.945 50.6574C108.252 50.3843 108.406 50.019 108.406 49.5616C108.406 49.0973 108.252 48.732 107.945 48.4658C107.644 48.1995 107.255 48.0664 106.777 48.0664C106.306 48.0664 105.917 48.1995 105.61 48.4658C105.303 48.732 105.149 49.0973 105.149 49.5616ZM105.323 46.0386C105.323 46.4414 105.46 46.7657 105.733 47.0115C106.013 47.2505 106.364 47.37 106.787 47.37C107.204 47.37 107.545 47.2505 107.812 47.0115C108.085 46.7657 108.221 46.4414 108.221 46.0386C108.221 45.6289 108.085 45.3046 107.812 45.0657C107.545 44.8199 107.204 44.697 106.787 44.697C106.364 44.697 106.013 44.8199 105.733 45.0657C105.46 45.3046 105.323 45.6289 105.323 46.0386ZM112.652 43.9596C113.328 43.9596 113.861 44.1474 114.25 44.5229C114.639 44.8916 114.834 45.3968 114.834 46.0386C114.834 46.4687 114.728 46.834 114.516 47.1344C114.312 47.428 114.049 47.6294 113.728 47.7386C114.117 47.8342 114.431 48.0425 114.67 48.3634C114.909 48.6774 115.028 49.0768 115.028 49.5616C115.028 50.2512 114.813 50.7974 114.383 51.2002C113.953 51.603 113.383 51.8044 112.673 51.8044C111.949 51.8044 111.383 51.6098 110.973 51.2207C110.563 50.8247 110.331 50.2751 110.276 49.5718L111.116 49.5309C111.171 50.0156 111.328 50.3945 111.587 50.6676C111.847 50.9339 112.209 51.0671 112.673 51.0671C113.144 51.0671 113.513 50.9339 113.779 50.6676C114.052 50.3945 114.189 50.0224 114.189 49.5513C114.189 49.0871 114.045 48.732 113.758 48.4863C113.472 48.2405 113.086 48.1176 112.601 48.1176H111.854V47.3904H112.591C113.007 47.3904 113.345 47.2675 113.605 47.0218C113.864 46.776 113.994 46.4482 113.994 46.0386C113.994 45.6153 113.871 45.2876 113.625 45.0554C113.386 44.8165 113.062 44.697 112.652 44.697C112.229 44.697 111.891 44.8267 111.639 45.0862C111.393 45.3388 111.256 45.6938 111.229 46.1513L110.399 46.1C110.433 45.431 110.645 44.9086 111.034 44.5331C111.43 44.1508 111.97 43.9596 112.652 43.9596ZM118.558 51.8044C118.074 51.8044 117.637 51.7054 117.248 51.5074C116.865 51.3026 116.561 51.0124 116.336 50.6369C116.118 50.2614 116.008 49.8279 116.008 49.3363C116.008 48.7491 116.179 48.22 116.52 47.7489L119.327 44.0518H120.31L118.139 46.9193C118.343 46.8852 118.531 46.8681 118.702 46.8681C119.159 46.8886 119.569 47.0013 119.931 47.2061C120.293 47.4109 120.576 47.6977 120.781 48.0664C120.992 48.4351 121.098 48.8584 121.098 49.3363C121.098 49.8279 120.986 50.2614 120.76 50.6369C120.542 51.0124 120.241 51.3026 119.859 51.5074C119.477 51.7054 119.043 51.8044 118.558 51.8044ZM116.858 49.3158C116.858 49.8483 117.015 50.2751 117.329 50.596C117.644 50.91 118.053 51.0671 118.558 51.0671C119.05 51.0671 119.453 50.9066 119.767 50.5857C120.088 50.2648 120.248 49.8415 120.248 49.3158C120.248 48.7764 120.088 48.3497 119.767 48.0356C119.453 47.7216 119.05 47.5645 118.558 47.5645C117.964 47.5645 117.514 47.766 117.207 48.1688C116.974 48.4555 116.858 48.8379 116.858 49.3158ZM124.384 43.9596C125.067 43.9596 125.596 44.1508 125.971 44.5331C126.354 44.9086 126.545 45.431 126.545 46.1C126.545 46.694 126.419 47.2163 126.166 47.667C125.913 48.1176 125.535 48.6057 125.029 49.1315L123.237 50.9646H126.647V51.7122H122.141V51.0568L124.394 48.7013C124.872 48.1893 125.21 47.7557 125.408 47.4007C125.613 47.0388 125.715 46.6155 125.715 46.1308C125.715 45.6938 125.599 45.3456 125.367 45.0862C125.142 44.8267 124.814 44.697 124.384 44.697C123.927 44.697 123.575 44.837 123.329 45.1169C123.09 45.3968 122.964 45.7928 122.95 46.3049L122.121 46.2639C122.134 45.5334 122.336 44.9667 122.725 44.5639C123.121 44.161 123.674 43.9596 124.384 43.9596Z" fill="#475467"/>
<path d="M134.579 47.0054L137.992 50.4191L141.406 47.0054" stroke="#475467" stroke-width="1.28016" stroke-linecap="round" stroke-linejoin="round"/>
</g>
<path d="M51.312 86.08C50.9333 86.08 50.6027 86 50.32 85.84C50.0427 85.68 49.8293 85.456 49.68 85.168C49.5307 84.88 49.456 84.552 49.456 84.184C49.456 83.8107 49.5253 83.48 49.664 83.192C49.808 82.8987 50.0053 82.672 50.256 82.512C50.512 82.3467 50.8027 82.264 51.128 82.264C51.4 82.264 51.6427 82.3227 51.856 82.44C52.0747 82.5573 52.2427 82.72 52.36 82.928H52.416C52.3787 82.704 52.36 82.496 52.36 82.304L52.376 81.624C52.3813 81.272 52.2853 81.0053 52.088 80.824C51.8907 80.6427 51.6373 80.552 51.328 80.552C51.0293 80.552 50.7867 80.6347 50.6 80.8C50.4187 80.9653 50.3227 81.1653 50.312 81.4L49.48 81.376C49.4853 81.1093 49.568 80.864 49.728 80.64C49.888 80.416 50.1067 80.24 50.384 80.112C50.6667 79.9787 50.9787 79.912 51.32 79.912C51.672 79.912 51.9893 79.984 52.272 80.128C52.5547 80.2667 52.776 80.4667 52.936 80.728C53.096 80.9893 53.176 81.288 53.176 81.624V84.184C53.176 84.552 53.1013 84.88 52.952 85.168C52.8027 85.456 52.5867 85.68 52.304 85.84C52.0213 86 51.6907 86.08 51.312 86.08ZM50.296 84.176C50.296 84.5653 50.3893 84.8747 50.576 85.104C50.768 85.328 51.016 85.44 51.32 85.44C51.6293 85.44 51.88 85.3333 52.072 85.12C52.264 84.9067 52.36 84.6267 52.36 84.28V84.072C52.36 83.704 52.264 83.4187 52.072 83.216C51.88 83.008 51.6293 82.904 51.32 82.904C51.0053 82.904 50.7547 83.016 50.568 83.24C50.3867 83.464 50.296 83.776 50.296 84.176ZM54.5744 86C54.4464 85.68 54.3504 85.3813 54.2864 85.104C54.2224 84.8213 54.1904 84.5173 54.1904 84.192C54.1904 83.76 54.2624 83.4 54.4064 83.112C54.5504 82.824 54.7424 82.6107 54.9824 82.472C55.2224 82.3333 55.489 82.264 55.7824 82.264C56.0917 82.264 56.3637 82.3387 56.5984 82.488C56.833 82.6373 56.9957 82.88 57.0864 83.216H57.1424C57.233 82.8853 57.3957 82.6453 57.6304 82.496C57.8704 82.3413 58.1424 82.264 58.4464 82.264C58.7397 82.264 59.0037 82.3333 59.2384 82.472C59.4784 82.6053 59.6677 82.8107 59.8064 83.088C59.9504 83.3653 60.0224 83.7067 60.0224 84.112C60.0224 84.3573 60.001 84.5813 59.9584 84.784C59.9157 84.9867 59.849 85.1893 59.7584 85.392V85.408H60.7184L60.6624 86H58.8224C58.945 85.696 59.0357 85.4027 59.0944 85.12C59.153 84.8373 59.1824 84.5413 59.1824 84.232C59.1824 83.784 59.1024 83.4507 58.9424 83.232C58.7877 83.008 58.5824 82.896 58.3264 82.896C58.081 82.896 57.881 82.984 57.7264 83.16C57.577 83.3307 57.5024 83.6053 57.5024 83.984V85.096H56.7024V83.984C56.7024 83.6053 56.6277 83.3307 56.4784 83.16C56.329 82.984 56.1317 82.896 55.8864 82.896C55.625 82.896 55.4144 83.0053 55.2544 83.224C55.0944 83.4427 55.0144 83.776 55.0144 84.224C55.0144 84.528 55.0437 84.824 55.1024 85.112C55.161 85.3947 55.257 85.6907 55.3904 86H54.5744ZM63.0854 86.08C62.7068 86.08 62.3761 86 62.0934 85.84C61.8161 85.68 61.6028 85.456 61.4534 85.168C61.3041 84.88 61.2294 84.552 61.2294 84.184C61.2294 83.8107 61.2988 83.48 61.4374 83.192C61.5814 82.8987 61.7788 82.672 62.0294 82.512C62.2854 82.3467 62.5761 82.264 62.9014 82.264C63.1734 82.264 63.4161 82.3227 63.6294 82.44C63.8481 82.5573 64.0161 82.72 64.1334 82.928H64.1894C64.1521 82.704 64.1334 82.496 64.1334 82.304L64.1494 81.624C64.1548 81.272 64.0588 81.0053 63.8614 80.824C63.6641 80.6427 63.4108 80.552 63.1014 80.552C62.8028 80.552 62.5601 80.6347 62.3734 80.8C62.1921 80.9653 62.0961 81.1653 62.0854 81.4L61.2534 81.376C61.2588 81.1093 61.3414 80.864 61.5014 80.64C61.6614 80.416 61.8801 80.24 62.1574 80.112C62.4401 79.9787 62.7521 79.912 63.0934 79.912C63.4454 79.912 63.7628 79.984 64.0454 80.128C64.3281 80.2667 64.5494 80.4667 64.7094 80.728C64.8694 80.9893 64.9494 81.288 64.9494 81.624V84.184C64.9494 84.552 64.8748 84.88 64.7254 85.168C64.5761 85.456 64.3601 85.68 64.0774 85.84C63.7948 86 63.4641 86.08 63.0854 86.08ZM62.0694 84.176C62.0694 84.5653 62.1628 84.8747 62.3494 85.104C62.5414 85.328 62.7894 85.44 63.0934 85.44C63.4028 85.44 63.6534 85.3333 63.8454 85.12C64.0374 84.9067 64.1334 84.6267 64.1334 84.28V84.072C64.1334 83.704 64.0374 83.4187 63.8454 83.216C63.6534 83.008 63.4028 82.904 63.0934 82.904C62.7788 82.904 62.5281 83.016 62.3414 83.24C62.1601 83.464 62.0694 83.776 62.0694 84.176ZM67.895 82.344C67.8897 82.5147 67.9323 82.6613 68.023 82.784C68.119 82.9013 68.263 83.0453 68.455 83.216C68.6203 83.36 68.7537 83.488 68.855 83.6C68.9617 83.7067 69.0497 83.8453 69.119 84.016C69.1937 84.1813 69.231 84.3787 69.231 84.608C69.231 84.9067 69.1537 85.168 68.999 85.392C68.8443 85.6107 68.6337 85.7813 68.367 85.904C68.1003 86.0213 67.807 86.08 67.487 86.08C67.1617 86.08 66.8657 86.0213 66.599 85.904C66.3377 85.7867 66.1297 85.616 65.975 85.392C65.8257 85.168 65.751 84.904 65.751 84.6C65.751 84.4613 65.7697 84.336 65.807 84.224L66.607 84.256C66.591 84.336 66.583 84.4267 66.583 84.528C66.583 84.8107 66.6657 85.0347 66.831 85.2C66.9963 85.3653 67.215 85.448 67.487 85.448C67.759 85.448 67.9803 85.3707 68.151 85.216C68.3217 85.0613 68.407 84.8507 68.407 84.584C68.407 84.376 68.3537 84.2053 68.247 84.072C68.1457 83.9333 67.9883 83.7787 67.775 83.608C67.6097 83.4693 67.479 83.3493 67.383 83.248C67.287 83.1467 67.207 83.0213 67.143 82.872C67.0843 82.7227 67.0603 82.5467 67.071 82.344H67.895ZM70.4494 86C70.1934 85.3333 70.0654 84.5467 70.0654 83.64C70.0654 82.776 70.22 82.096 70.5294 81.6C70.8387 81.0987 71.2094 80.7467 71.6414 80.544C72.0734 80.336 72.5507 80.1893 73.0734 80.104L74.2814 79.912V80.656L73.0414 80.856C72.5827 80.9253 72.1907 81.0373 71.8654 81.192C71.54 81.3413 71.2654 81.568 71.0414 81.872C70.8227 82.176 70.6734 82.5787 70.5934 83.08H70.6334C70.7667 82.792 70.932 82.584 71.1294 82.456C71.3267 82.328 71.556 82.264 71.8174 82.264C72.0787 82.264 72.316 82.3413 72.5294 82.496C72.748 82.6507 72.8947 82.8907 72.9694 83.216H73.0174C73.108 82.8907 73.2734 82.6507 73.5134 82.496C73.7534 82.3413 74.0227 82.264 74.3214 82.264C74.6147 82.264 74.8787 82.3333 75.1134 82.472C75.3534 82.6107 75.5427 82.824 75.6814 83.112C75.8254 83.4 75.8974 83.76 75.8974 84.192C75.8974 84.512 75.8654 84.8107 75.8014 85.088C75.7374 85.3653 75.6414 85.6693 75.5134 86H74.6974C74.8254 85.6907 74.9187 85.3947 74.9774 85.112C75.036 84.824 75.068 84.528 75.0734 84.224C75.068 83.7813 74.9854 83.4507 74.8254 83.232C74.6654 83.008 74.4574 82.896 74.2014 82.896C73.956 82.896 73.756 82.984 73.6014 83.16C73.452 83.3307 73.3774 83.6053 73.3774 83.984V85.096H72.5774V83.984C72.5774 83.6053 72.5027 83.3307 72.3534 83.16C72.2094 82.984 72.0147 82.896 71.7694 82.896C71.508 82.896 71.2974 83.0053 71.1374 83.224C70.9774 83.4427 70.8974 83.776 70.8974 84.224C70.8974 84.528 70.9267 84.824 70.9854 85.112C71.044 85.3947 71.1374 85.6907 71.2654 86H70.4494ZM78.6476 86.08C78.2956 86.08 77.9809 86.0027 77.7036 85.848C77.4262 85.688 77.2076 85.464 77.0476 85.176C76.8876 84.888 76.8076 84.552 76.8076 84.168C76.8076 83.7893 76.8849 83.456 77.0396 83.168C77.1996 82.88 77.4182 82.6587 77.6956 82.504C77.9729 82.344 78.2849 82.264 78.6316 82.264C78.9302 82.264 79.1996 82.32 79.4396 82.432C79.6849 82.544 79.8822 82.712 80.0316 82.936H80.0876C80.4449 82.488 80.8796 82.264 81.3916 82.264C81.8396 82.264 82.2049 82.4267 82.4876 82.752C82.7756 83.072 82.9196 83.552 82.9196 84.192C82.9196 84.5227 82.8849 84.8267 82.8156 85.104C82.7516 85.3813 82.6529 85.68 82.5196 86H81.7196C81.8422 85.696 81.9329 85.4027 81.9916 85.12C82.0502 84.8373 82.0796 84.5413 82.0796 84.232C82.0796 83.784 81.9996 83.4533 81.8396 83.24C81.6796 83.0213 81.4636 82.912 81.1916 82.912C80.8556 82.912 80.5622 83.0533 80.3116 83.336C80.4236 83.592 80.4796 83.872 80.4796 84.176C80.4796 84.5547 80.3996 84.888 80.2396 85.176C80.0796 85.464 79.8609 85.688 79.5836 85.848C79.3062 86.0027 78.9942 86.08 78.6476 86.08ZM77.6476 84.176C77.6476 84.576 77.7382 84.888 77.9196 85.112C78.1009 85.3307 78.3436 85.44 78.6476 85.44C78.9462 85.44 79.1862 85.3307 79.3676 85.112C79.5489 84.888 79.6396 84.576 79.6396 84.176C79.6396 83.776 79.5489 83.464 79.3676 83.24C79.1862 83.0107 78.9462 82.896 78.6476 82.896C78.3436 82.896 78.1009 83.0107 77.9196 83.24C77.7382 83.464 77.6476 83.776 77.6476 84.176ZM85.6636 88.488C85.2742 88.488 84.9356 88.408 84.6476 88.248C84.3596 88.0933 84.1409 87.88 83.9916 87.608C83.8422 87.3413 83.7676 87.0427 83.7676 86.712C83.7676 86.5307 83.7889 86.3573 83.8316 86.192L84.6316 86.232C84.6049 86.3653 84.5916 86.4987 84.5916 86.632C84.5916 87.0053 84.6876 87.2987 84.8796 87.512C85.0716 87.7307 85.3329 87.84 85.6636 87.84C85.9942 87.84 86.2529 87.7333 86.4396 87.52C86.6316 87.312 86.7276 87.0267 86.7276 86.664C86.7276 86.3067 86.6342 86.0293 86.4476 85.832C86.2609 85.6347 85.9942 85.536 85.6476 85.536H85.4636V84.872H85.6556C85.9862 84.872 86.2342 84.7867 86.3996 84.616C86.5702 84.44 86.6556 84.2 86.6556 83.896C86.6556 83.6133 86.5649 83.384 86.3836 83.208C86.2076 83.0267 85.9756 82.936 85.6876 82.936C85.4102 82.936 85.1836 83.024 85.0076 83.2C84.8369 83.3707 84.7516 83.6027 84.7516 83.896C84.7516 83.976 84.7596 84.064 84.7756 84.16L83.9436 84.184C83.9222 84.056 83.9116 83.944 83.9116 83.848C83.9116 83.5387 83.9889 83.264 84.1436 83.024C84.2982 82.784 84.5116 82.5973 84.7836 82.464C85.0556 82.3307 85.3569 82.264 85.6876 82.264C86.0236 82.264 86.3276 82.3333 86.5996 82.472C86.8769 82.6107 87.0929 82.8 87.2476 83.04C87.4076 83.28 87.4876 83.552 87.4876 83.856C87.4876 84.1867 87.3996 84.4667 87.2236 84.696C87.0529 84.9253 86.7942 85.0853 86.4476 85.176V85.232C86.8049 85.3013 87.0796 85.472 87.2716 85.744C87.4689 86.0107 87.5676 86.3387 87.5676 86.728C87.5676 87.048 87.4902 87.3413 87.3356 87.608C87.1862 87.88 86.9676 88.0933 86.6796 88.248C86.3916 88.408 86.0529 88.488 85.6636 88.488ZM88.7766 86C88.6539 85.68 88.5579 85.3787 88.4886 85.096C88.4246 84.8133 88.3926 84.52 88.3926 84.216C88.3926 83.8053 88.4699 83.4533 88.6246 83.16C88.7846 82.8667 89.0032 82.6453 89.2806 82.496C89.5579 82.3413 89.8752 82.264 90.2326 82.264C90.5952 82.264 90.9152 82.3413 91.1926 82.496C91.4752 82.6453 91.6939 82.8667 91.8486 83.16C92.0086 83.4533 92.0886 83.8053 92.0886 84.216C92.0886 84.52 92.0539 84.8133 91.9846 85.096C91.9206 85.3733 91.8246 85.6747 91.6966 86H90.9286C91.0406 85.6747 91.1232 85.376 91.1766 85.104C91.2299 84.832 91.2566 84.5467 91.2566 84.248C91.2566 83.8213 91.1659 83.4907 90.9846 83.256C90.8032 83.016 90.5526 82.896 90.2326 82.896C89.9126 82.896 89.6619 83.016 89.4806 83.256C89.3046 83.4907 89.2166 83.8213 89.2166 84.248C89.2166 84.5413 89.2432 84.8267 89.2966 85.104C89.3499 85.3813 89.4352 85.68 89.5526 86H88.7766ZM94.8384 86.088C94.4651 86.088 94.1398 86.0107 93.8624 85.856C93.5851 85.7013 93.3718 85.4853 93.2224 85.208C93.0784 84.9307 93.0064 84.6107 93.0064 84.248V80H93.8224V84.288C93.8224 84.6507 93.9158 84.936 94.1024 85.144C94.2891 85.3467 94.5318 85.448 94.8304 85.448C95.1238 85.448 95.3638 85.3493 95.5504 85.152C95.7371 84.9493 95.8304 84.6933 95.8304 84.384C95.8304 84.1973 95.8091 84.0373 95.7664 83.904C95.7238 83.7707 95.6598 83.616 95.5744 83.44C95.4838 83.2427 95.4144 83.0667 95.3664 82.912C95.3238 82.7573 95.3078 82.568 95.3184 82.344H96.1344C96.1291 82.5253 96.1478 82.6853 96.1904 82.824C96.2331 82.9573 96.2971 83.1093 96.3824 83.28C96.4784 83.4773 96.5504 83.6587 96.5984 83.824C96.6464 83.9893 96.6704 84.192 96.6704 84.432C96.6704 84.7307 96.5958 85.0053 96.4464 85.256C96.3024 85.5067 96.0918 85.7093 95.8144 85.864C95.5371 86.0133 95.2118 86.088 94.8384 86.088ZM101.32 86.08C100.941 86.08 100.61 86 100.328 85.84C100.05 85.68 99.8371 85.456 99.6878 85.168C99.5385 84.88 99.4638 84.552 99.4638 84.184C99.4638 83.8107 99.5331 83.48 99.6718 83.192C99.8158 82.8987 100.013 82.672 100.264 82.512C100.52 82.3467 100.81 82.264 101.136 82.264C101.408 82.264 101.65 82.3227 101.864 82.44C102.082 82.5573 102.25 82.72 102.368 82.928H102.424C102.386 82.704 102.368 82.496 102.368 82.304L102.384 81.624C102.389 81.272 102.293 81.0053 102.096 80.824C101.898 80.6427 101.645 80.552 101.336 80.552C101.037 80.552 100.794 80.6347 100.608 80.8C100.426 80.9653 100.33 81.1653 100.32 81.4L99.4878 81.376C99.4931 81.1093 99.5758 80.864 99.7358 80.64C99.8958 80.416 100.114 80.24 100.392 80.112C100.674 79.9787 100.986 79.912 101.328 79.912C101.68 79.912 101.997 79.984 102.28 80.128C102.562 80.2667 102.784 80.4667 102.944 80.728C103.104 80.9893 103.184 81.288 103.184 81.624V84.184C103.184 84.552 103.109 84.88 102.96 85.168C102.81 85.456 102.594 85.68 102.312 85.84C102.029 86 101.698 86.08 101.32 86.08ZM100.304 84.176C100.304 84.5653 100.397 84.8747 100.584 85.104C100.776 85.328 101.024 85.44 101.328 85.44C101.637 85.44 101.888 85.3333 102.08 85.12C102.272 84.9067 102.368 84.6267 102.368 84.28V84.072C102.368 83.704 102.272 83.4187 102.08 83.216C101.888 83.008 101.637 82.904 101.328 82.904C101.013 82.904 100.762 83.016 100.576 83.24C100.394 83.464 100.304 83.776 100.304 84.176ZM104.542 86C104.42 85.68 104.324 85.3787 104.254 85.096C104.19 84.8133 104.158 84.52 104.158 84.216C104.158 83.8053 104.236 83.4533 104.39 83.16C104.55 82.8667 104.769 82.6453 105.046 82.496C105.324 82.3413 105.641 82.264 105.998 82.264C106.361 82.264 106.681 82.3413 106.958 82.496C107.241 82.6453 107.46 82.8667 107.614 83.16C107.774 83.4533 107.854 83.8053 107.854 84.216C107.854 84.52 107.82 84.8133 107.75 85.096C107.686 85.3733 107.59 85.6747 107.462 86H106.694C106.806 85.6747 106.889 85.376 106.942 85.104C106.996 84.832 107.022 84.5467 107.022 84.248C107.022 83.8213 106.932 83.4907 106.75 83.256C106.569 83.016 106.318 82.896 105.998 82.896C105.678 82.896 105.428 83.016 105.246 83.256C105.07 83.4907 104.982 83.8213 104.982 84.248C104.982 84.5413 105.009 84.8267 105.062 85.104C105.116 85.3813 105.201 85.68 105.318 86H104.542ZM110.578 86.08C110.199 86.08 109.868 86 109.586 85.84C109.308 85.68 109.095 85.456 108.946 85.168C108.796 84.88 108.722 84.552 108.722 84.184C108.722 83.8107 108.791 83.48 108.93 83.192C109.074 82.8987 109.271 82.672 109.522 82.512C109.778 82.3467 110.068 82.264 110.394 82.264C110.666 82.264 110.908 82.3227 111.122 82.44C111.34 82.5573 111.508 82.72 111.626 82.928H111.682C111.644 82.704 111.626 82.496 111.626 82.304L111.642 81.624C111.647 81.272 111.551 81.0053 111.354 80.824C111.156 80.6427 110.903 80.552 110.594 80.552C110.295 80.552 110.052 80.6347 109.866 80.8C109.684 80.9653 109.588 81.1653 109.578 81.4L108.746 81.376C108.751 81.1093 108.834 80.864 108.994 80.64C109.154 80.416 109.372 80.24 109.65 80.112C109.932 79.9787 110.244 79.912 110.586 79.912C110.938 79.912 111.255 79.984 111.538 80.128C111.82 80.2667 112.042 80.4667 112.202 80.728C112.362 80.9893 112.442 81.288 112.442 81.624V84.184C112.442 84.552 112.367 84.88 112.218 85.168C112.068 85.456 111.852 85.68 111.57 85.84C111.287 86 110.956 86.08 110.578 86.08ZM109.562 84.176C109.562 84.5653 109.655 84.8747 109.842 85.104C110.034 85.328 110.282 85.44 110.586 85.44C110.895 85.44 111.146 85.3333 111.338 85.12C111.53 84.9067 111.626 84.6267 111.626 84.28V84.072C111.626 83.704 111.53 83.4187 111.338 83.216C111.146 83.008 110.895 82.904 110.586 82.904C110.271 82.904 110.02 83.016 109.834 83.24C109.652 83.464 109.562 83.776 109.562 84.176ZM117.28 88.432C117.216 88.1067 117.048 87.848 116.776 87.656C116.509 87.4693 116.197 87.376 115.84 87.376H115.752C115.539 87.376 115.333 87.3947 115.136 87.432C114.939 87.4747 114.728 87.544 114.504 87.64L114.256 87.12C114.533 86.9973 114.901 86.9253 115.36 86.904V86.856C114.757 86.7227 114.288 86.4427 113.952 86.016C113.621 85.5947 113.456 85.032 113.456 84.328C113.456 83.6347 113.605 83.1173 113.904 82.776C114.208 82.4347 114.589 82.264 115.048 82.264C115.357 82.264 115.629 82.3387 115.864 82.488C116.099 82.6373 116.261 82.8827 116.352 83.224H116.408C116.499 82.8933 116.664 82.6507 116.904 82.496C117.144 82.3413 117.413 82.264 117.712 82.264C118.005 82.264 118.269 82.3333 118.504 82.472C118.744 82.6053 118.933 82.8133 119.072 83.096C119.216 83.3787 119.288 83.728 119.288 84.144C119.288 84.416 119.267 84.6827 119.224 84.944C119.181 85.2053 119.117 85.4853 119.032 85.784L118.216 85.744C118.371 85.2747 118.448 84.752 118.448 84.176C118.448 83.7547 118.368 83.4373 118.208 83.224C118.053 83.0107 117.845 82.904 117.584 82.904C117.339 82.904 117.141 82.992 116.992 83.168C116.843 83.3387 116.768 83.6107 116.768 83.984V85.096H115.968V83.984C115.968 83.6107 115.893 83.3387 115.744 83.168C115.595 82.992 115.4 82.904 115.16 82.904C114.893 82.904 114.68 83.0213 114.52 83.256C114.36 83.4853 114.28 83.8453 114.28 84.336C114.285 85.008 114.445 85.5253 114.76 85.888C115.08 86.2453 115.536 86.4907 116.128 86.624L116.392 86.696C116.883 86.8133 117.275 87.0187 117.568 87.312C117.861 87.6107 118.035 87.9733 118.088 88.4L117.28 88.432ZM121.982 88.488C121.593 88.488 121.26 88.408 120.982 88.248C120.71 88.088 120.502 87.8667 120.358 87.584C120.22 87.3067 120.15 86.9893 120.15 86.632C120.15 86.376 120.188 86.128 120.262 85.888L121.078 85.92C121.02 86.128 120.99 86.3467 120.99 86.576C120.99 86.9867 121.076 87.3013 121.246 87.52C121.422 87.7387 121.67 87.848 121.99 87.848C122.305 87.848 122.548 87.7387 122.718 87.52C122.889 87.3013 122.974 86.992 122.974 86.592V84.04C122.974 83.64 122.889 83.352 122.718 83.176C122.553 82.9947 122.334 82.904 122.062 82.904C121.801 82.904 121.59 82.9893 121.43 83.16C121.276 83.3307 121.198 83.5867 121.198 83.928C121.198 84.04 121.214 84.192 121.246 84.384L120.406 84.408C120.369 84.2373 120.35 84.0613 120.35 83.88C120.35 83.5493 120.422 83.264 120.566 83.024C120.716 82.7787 120.918 82.592 121.174 82.464C121.43 82.3307 121.721 82.264 122.046 82.264C122.569 82.264 122.988 82.4187 123.302 82.728C123.622 83.0373 123.782 83.4693 123.782 84.024V86.6C123.782 87.1707 123.628 87.6267 123.318 87.968C123.009 88.3147 122.564 88.488 121.982 88.488ZM126.649 86.08C126.286 86.08 125.961 86.0027 125.673 85.848C125.385 85.688 125.158 85.464 124.993 85.176C124.828 84.888 124.745 84.5547 124.745 84.176C124.745 83.664 124.892 83.2373 125.185 82.896C125.484 82.5547 125.868 82.352 126.337 82.288V81.656C126.337 81.512 126.3 81.4 126.225 81.32C126.15 81.24 126.033 81.152 125.873 81.056C125.729 80.9707 125.614 80.8933 125.529 80.824C125.444 80.7493 125.372 80.6453 125.313 80.512C125.26 80.3787 125.236 80.208 125.241 80H126.049C126.044 80.176 126.084 80.3147 126.169 80.416C126.26 80.512 126.393 80.6107 126.569 80.712C126.761 80.824 126.905 80.936 127.001 81.048C127.097 81.16 127.145 81.32 127.145 81.528V82.32C127.566 82.4213 127.905 82.6373 128.161 82.968C128.422 83.2933 128.553 83.696 128.553 84.176C128.553 84.5547 128.47 84.888 128.305 85.176C128.14 85.464 127.91 85.688 127.617 85.848C127.329 86.0027 127.006 86.08 126.649 86.08ZM125.585 84.176C125.585 84.5707 125.681 84.88 125.873 85.104C126.07 85.328 126.329 85.44 126.649 85.44C126.964 85.44 127.22 85.328 127.417 85.104C127.614 84.88 127.713 84.5707 127.713 84.176C127.713 83.7813 127.614 83.472 127.417 83.248C127.22 83.0187 126.964 82.904 126.649 82.904C126.329 82.904 126.07 83.0187 125.873 83.248C125.681 83.472 125.585 83.7813 125.585 84.176ZM129.8 86C129.677 85.68 129.581 85.3787 129.512 85.096C129.448 84.8133 129.416 84.52 129.416 84.216C129.416 83.8053 129.493 83.4533 129.648 83.16C129.808 82.8667 130.027 82.6453 130.304 82.496C130.581 82.3413 130.899 82.264 131.256 82.264C131.619 82.264 131.939 82.3413 132.216 82.496C132.499 82.6453 132.717 82.8667 132.872 83.16C133.032 83.4533 133.112 83.8053 133.112 84.216C133.112 84.52 133.077 84.8133 133.008 85.096C132.944 85.3733 132.848 85.6747 132.72 86H131.952C132.064 85.6747 132.147 85.376 132.2 85.104C132.253 84.832 132.28 84.5467 132.28 84.248C132.28 83.8213 132.189 83.4907 132.008 83.256C131.827 83.016 131.576 82.896 131.256 82.896C130.936 82.896 130.685 83.016 130.504 83.256C130.328 83.4907 130.24 83.8213 130.24 84.248C130.24 84.5413 130.267 84.8267 130.32 85.104C130.373 85.3813 130.459 85.68 130.576 86H129.8Z" fill="#557186"/>
<g filter="url(#filter2_d_949_40081)">
<rect x="161" y="2" width="20.4825" height="20.4825" rx="10.2412" fill="white" shape-rendering="crispEdges"/>
<rect x="161.427" y="2.42672" width="19.6291" height="19.6291" rx="9.81453" stroke="#F04438" stroke-opacity="0.3" stroke-width="0.853437" shape-rendering="crispEdges"/>
<path d="M175.509 7.97446L166.974 16.5088" stroke="#F04438" stroke-width="1.28016" stroke-linecap="round" stroke-linejoin="round"/>
<path d="M166.974 7.97446L175.509 16.5088" stroke="#F04438" stroke-width="1.28016" stroke-linecap="round" stroke-linejoin="round"/>
</g>
<defs>
<filter id="filter0_bd_949_40081" x="1.68654" y="4.01762" width="179.361" height="106.061" filterUnits="userSpaceOnUse" color-interpolation-filters="sRGB">
<feFlood flood-opacity="0" result="BackgroundImageFix"/>
<feGaussianBlur in="BackgroundImageFix" stdDeviation="2.25764"/>
<feComposite in2="SourceAlpha" operator="in" result="effect1_backgroundBlur_949_40081"/>
<feColorMatrix in="SourceAlpha" type="matrix" values="0 0 0 0 0 0 0 0 0 0 0 0 0 0 0 0 0 0 127 0" result="hardAlpha"/>
<feOffset dy="1.80611"/>
<feGaussianBlur stdDeviation="4.51528"/>
<feComposite in2="hardAlpha" operator="out"/>
<feColorMatrix type="matrix" values="0 0 0 0 0.427451 0 0 0 0 0.509804 0 0 0 0 0.698039 0 0 0 0.3 0"/>
<feBlend mode="normal" in2="effect1_backgroundBlur_949_40081" result="effect2_dropShadow_949_40081"/>
<feBlend mode="normal" in="SourceGraphic" in2="effect2_dropShadow_949_40081" result="shape"/>
</filter>
<filter id="filter1_dd_949_40081" x="0.47618" y="11.0016" width="181.782" height="81.93" filterUnits="userSpaceOnUse" color-interpolation-filters="sRGB">
<feFlood flood-opacity="0" result="BackgroundImageFix"/>
<feColorMatrix in="SourceAlpha" type="matrix" values="0 0 0 0 0 0 0 0 0 0 0 0 0 0 0 0 0 0 127 0" result="hardAlpha"/>
<feMorphology radius="3.41375" operator="erode" in="SourceAlpha" result="effect1_dropShadow_949_40081"/>
<feOffset dy="6.8275"/>
<feGaussianBlur stdDeviation="3.41375"/>
<feComposite in2="hardAlpha" operator="out"/>
<feColorMatrix type="matrix" values="0 0 0 0 0.0627451 0 0 0 0 0.0941176 0 0 0 0 0.156863 0 0 0 0.03 0"/>
<feBlend mode="normal" in2="BackgroundImageFix" result="effect1_dropShadow_949_40081"/>
<feColorMatrix in="SourceAlpha" type="matrix" values="0 0 0 0 0 0 0 0 0 0 0 0 0 0 0 0 0 0 127 0" result="hardAlpha"/>
<feMorphology radius="3.41375" operator="erode" in="SourceAlpha" result="effect2_dropShadow_949_40081"/>
<feOffset dy="10"/>
<feGaussianBlur stdDeviation="10.2412"/>
<feComposite in2="hardAlpha" operator="out"/>
<feColorMatrix type="matrix" values="0 0 0 0 0.0627451 0 0 0 0 0.0941176 0 0 0 0 0.156863 0 0 0 0.08 0"/>
<feBlend mode="normal" in2="effect1_dropShadow_949_40081" result="effect2_dropShadow_949_40081"/>
<feBlend mode="normal" in="SourceGraphic" in2="effect2_dropShadow_949_40081" result="shape"/>
</filter>
<filter id="filter2_d_949_40081" x="157.586" y="0.293126" width="27.31" height="27.31" filterUnits="userSpaceOnUse" color-interpolation-filters="sRGB">
<feFlood flood-opacity="0" result="BackgroundImageFix"/>
<feColorMatrix in="SourceAlpha" type="matrix" values="0 0 0 0 0 0 0 0 0 0 0 0 0 0 0 0 0 0 127 0" result="hardAlpha"/>
<feOffset dy="1.70687"/>
<feGaussianBlur stdDeviation="1.70687"/>
<feComposite in2="hardAlpha" operator="out"/>
<feColorMatrix type="matrix" values="0 0 0 0 0 0 0 0 0 0 0 0 0 0 0 0 0 0 0.1 0"/>
<feBlend mode="normal" in2="BackgroundImageFix" result="effect1_dropShadow_949_40081"/>
<feBlend mode="normal" in="SourceGraphic" in2="effect1_dropShadow_949_40081" result="shape"/>
</filter>
</defs>
</svg>
