<svg width="130" height="112" viewBox="0 0 130 112" fill="none" xmlns="http://www.w3.org/2000/svg">
<g filter="url(#filter0_bd_949_40092)">
<rect x="10.9392" y="12.242" width="105.826" height="88" rx="10.2412" fill="#F3F6FD"/>
<rect x="11.3907" y="12.6935" width="104.923" height="87.0969" rx="9.78972" stroke="white" stroke-width="0.903056"/>
</g>
<g filter="url(#filter1_dd_949_40092)">
<rect x="17.7666" y="19.0703" width="92.1712" height="47.7925" rx="6.8275" fill="white" shape-rendering="crispEdges"/>
<path d="M43.3696 33.1259H84.3346C86.927 33.1259 89.0285 35.2275 89.0285 37.8198V47.2595C89.0285 49.8519 86.927 51.9534 84.3346 51.9534H43.3697C40.7773 51.9534 38.6757 49.8519 38.6757 47.2595V37.8198C38.6757 35.2275 40.7773 33.1259 43.3696 33.1259Z" fill="#FFFAEB"/>
<path d="M43.3696 33.1259H84.3346C86.927 33.1259 89.0285 35.2275 89.0285 37.8198V47.2595C89.0285 49.8519 86.927 51.9534 84.3346 51.9534H43.3697C40.7773 51.9534 38.6757 49.8519 38.6757 47.2595V37.8198C38.6757 35.2275 40.7773 33.1259 43.3696 33.1259Z" stroke="#FEC84B" stroke-width="0.853437"/>
<g clip-path="url(#clip0_949_40092)">
<path d="M52.591 43.0361C52.6073 42.8724 52.6156 42.7063 52.6156 42.5383C52.6156 39.7888 50.3867 37.5599 47.6373 37.5599C44.8878 37.5599 42.6589 39.7888 42.6589 42.5383C42.6589 45.2877 44.8878 47.5166 47.6373 47.5166C47.7207 47.5166 47.8037 47.5146 47.8862 47.5105C47.9697 47.5064 48.0527 47.5002 48.1351 47.492M47.6373 39.5512V42.5383L49.4984 43.4688" stroke="#FEC84B" stroke-width="0.853437"/>
<path d="M51.4773 46.3789L50.7175 45.7458C50.6047 45.6517 50.5482 45.6047 50.5077 45.5471C50.4717 45.4959 50.445 45.4389 50.4288 45.3787C50.4105 45.3106 50.4105 45.2371 50.4105 45.0902V44.6009M51.4773 46.3789L52.237 45.7458C52.3499 45.6517 52.4063 45.6047 52.4468 45.5471C52.4829 45.4959 52.5095 45.4389 52.5258 45.3787C52.544 45.3106 52.544 45.2371 52.544 45.0902V44.6009M51.4773 46.3789L50.7175 47.012C50.6047 47.106 50.5482 47.1531 50.5077 47.2107C50.4717 47.2618 50.445 47.3188 50.4288 47.3791C50.4105 47.4472 50.4105 47.5207 50.4105 47.6676V48.1569M51.4773 46.3789L52.237 47.012C52.3499 47.106 52.4063 47.1531 52.4468 47.2107C52.4829 47.2618 52.5095 47.3188 52.5258 47.3791C52.544 47.4472 52.544 47.5207 52.544 47.6676V48.1569M50.0549 44.6009H52.8997M50.0549 48.1569H52.8997" stroke="#FEC84B" stroke-width="0.853437"/>
</g>
<path d="M60.3228 38.2134C60.8758 38.2134 61.3571 38.3671 61.7668 38.6743C62.1764 38.9747 62.4905 39.4185 62.709 40.0057C62.9343 40.5928 63.0469 41.3029 63.0469 42.1358C63.0469 42.962 62.9343 43.672 62.709 44.266C62.4905 44.8532 62.1764 45.3004 61.7668 45.6076C61.3571 45.908 60.8758 46.0582 60.3228 46.0582C59.7697 46.0582 59.285 45.908 58.8685 45.6076C58.4589 45.3004 58.1414 44.8532 57.9161 44.266C57.6976 43.672 57.5884 42.962 57.5884 42.1358C57.5884 41.3029 57.6976 40.5928 57.9161 40.0057C58.1414 39.4185 58.4589 38.9747 58.8685 38.6743C59.285 38.3671 59.7697 38.2134 60.3228 38.2134ZM58.4384 42.1358C58.4384 43.1736 58.5988 43.9656 58.9197 44.5118C59.2406 45.0512 59.7049 45.3209 60.3125 45.3209C60.927 45.3209 61.3947 45.0512 61.7156 44.5118C62.0433 43.9656 62.2072 43.1736 62.2072 42.1358C62.2072 41.0912 62.0433 40.2992 61.7156 39.7599C61.3947 39.2205 60.927 38.9508 60.3125 38.9508C59.7049 38.9508 59.2406 39.2239 58.9197 39.7701C58.5988 40.3095 58.4384 41.0981 58.4384 42.1358ZM66.9036 38.2134C67.4566 38.2134 67.9379 38.3671 68.3476 38.6743C68.7572 38.9747 69.0713 39.4185 69.2898 40.0057C69.5151 40.5928 69.6277 41.3029 69.6277 42.1358C69.6277 42.962 69.5151 43.672 69.2898 44.266C69.0713 44.8532 68.7572 45.3004 68.3476 45.6076C67.9379 45.908 67.4566 46.0582 66.9036 46.0582C66.3505 46.0582 65.8658 45.908 65.4493 45.6076C65.0397 45.3004 64.7222 44.8532 64.4969 44.266C64.2784 43.672 64.1692 42.962 64.1692 42.1358C64.1692 41.3029 64.2784 40.5928 64.4969 40.0057C64.7222 39.4185 65.0397 38.9747 65.4493 38.6743C65.8658 38.3671 66.3505 38.2134 66.9036 38.2134ZM65.0192 42.1358C65.0192 43.1736 65.1796 43.9656 65.5005 44.5118C65.8214 45.0512 66.2857 45.3209 66.8933 45.3209C67.5078 45.3209 67.9755 45.0512 68.2964 44.5118C68.6241 43.9656 68.788 43.1736 68.788 42.1358C68.788 41.0912 68.6241 40.2992 68.2964 39.7599C67.9755 39.2205 67.5078 38.9508 66.8933 38.9508C66.2857 38.9508 65.8214 39.2239 65.5005 39.7701C65.1796 40.3095 65.0192 41.0981 65.0192 42.1358ZM71.1596 40.6611C71.3166 40.6611 71.4498 40.7157 71.559 40.825C71.6683 40.9342 71.7229 41.0673 71.7229 41.2244C71.7229 41.3814 71.6683 41.5145 71.559 41.6238C71.4498 41.733 71.3166 41.7876 71.1596 41.7876C71.0094 41.7876 70.8797 41.733 70.7704 41.6238C70.668 41.5145 70.6168 41.3814 70.6168 41.2244C70.6168 41.0673 70.668 40.9342 70.7704 40.825C70.8797 40.7157 71.0094 40.6611 71.1596 40.6611ZM70.6168 45.5052C70.6168 45.3482 70.668 45.2185 70.7704 45.116C70.8728 45.0068 71.0026 44.9522 71.1596 44.9522C71.3166 44.9522 71.4498 45.0068 71.559 45.116C71.6683 45.2185 71.7229 45.3482 71.7229 45.5052C71.7229 45.6622 71.6683 45.7954 71.559 45.9046C71.4498 46.007 71.3166 46.0582 71.1596 46.0582C71.0026 46.0582 70.8728 46.007 70.7704 45.9046C70.668 45.7954 70.6168 45.6622 70.6168 45.5052ZM75.5346 38.2134C76.0876 38.2134 76.569 38.3671 76.9786 38.6743C77.3883 38.9747 77.7023 39.4185 77.9208 40.0057C78.1461 40.5928 78.2588 41.3029 78.2588 42.1358C78.2588 42.962 78.1461 43.672 77.9208 44.266C77.7023 44.8532 77.3883 45.3004 76.9786 45.6076C76.569 45.908 76.0876 46.0582 75.5346 46.0582C74.9816 46.0582 74.4968 45.908 74.0804 45.6076C73.6707 45.3004 73.3532 44.8532 73.1279 44.266C72.9094 43.672 72.8002 42.962 72.8002 42.1358C72.8002 41.3029 72.9094 40.5928 73.1279 40.0057C73.3532 39.4185 73.6707 38.9747 74.0804 38.6743C74.4968 38.3671 74.9816 38.2134 75.5346 38.2134ZM73.6502 42.1358C73.6502 43.1736 73.8107 43.9656 74.1316 44.5118C74.4525 45.0512 74.9167 45.3209 75.5244 45.3209C76.1388 45.3209 76.6065 45.0512 76.9274 44.5118C77.2551 43.9656 77.419 43.1736 77.419 42.1358C77.419 41.0912 77.2551 40.2992 76.9274 39.7599C76.6065 39.2205 76.1388 38.9508 75.5244 38.9508C74.9167 38.9508 74.4525 39.2239 74.1316 39.7701C73.8107 40.3095 73.6502 41.0981 73.6502 42.1358ZM82.1154 38.2134C82.6684 38.2134 83.1498 38.3671 83.5594 38.6743C83.9691 38.9747 84.2831 39.4185 84.5016 40.0057C84.7269 40.5928 84.8396 41.3029 84.8396 42.1358C84.8396 42.962 84.7269 43.672 84.5016 44.266C84.2831 44.8532 83.9691 45.3004 83.5594 45.6076C83.1498 45.908 82.6684 46.0582 82.1154 46.0582C81.5624 46.0582 81.0776 45.908 80.6612 45.6076C80.2515 45.3004 79.934 44.8532 79.7087 44.266C79.4902 43.672 79.381 42.962 79.381 42.1358C79.381 41.3029 79.4902 40.5928 79.7087 40.0057C79.934 39.4185 80.2515 38.9747 80.6612 38.6743C81.0776 38.3671 81.5624 38.2134 82.1154 38.2134ZM80.231 42.1358C80.231 43.1736 80.3915 43.9656 80.7124 44.5118C81.0333 45.0512 81.4975 45.3209 82.1052 45.3209C82.7197 45.3209 83.1873 45.0512 83.5082 44.5118C83.8359 43.9656 83.9998 43.1736 83.9998 42.1358C83.9998 41.0912 83.8359 40.2992 83.5082 39.7599C83.1873 39.2205 82.7197 38.9508 82.1052 38.9508C81.4975 38.9508 81.0333 39.2239 80.7124 39.7701C80.3915 40.3095 80.231 41.0981 80.231 42.1358Z" fill="#FEC84B"/>
</g>
<path d="M31.808 89.432C31.7547 89.0747 31.5547 88.8107 31.208 88.64C30.8613 88.4747 30.4213 88.3867 29.888 88.376L29.536 88.368C29.184 88.3573 28.8373 88.3893 28.496 88.464C28.1547 88.5387 27.8533 88.6373 27.592 88.76L27.344 88.208C27.5307 88.128 27.7147 88.064 27.896 88.016C28.0773 87.968 28.296 87.936 28.552 87.92V87.872C28.1253 87.8187 27.7547 87.68 27.44 87.456C27.1253 87.232 26.8827 86.944 26.712 86.592C26.5413 86.24 26.456 85.8533 26.456 85.432C26.456 84.9413 26.5253 84.5333 26.664 84.208C26.808 83.8827 27 83.6453 27.24 83.496C27.48 83.3413 27.7467 83.264 28.04 83.264C28.328 83.264 28.5867 83.3387 28.816 83.488C29.0453 83.632 29.208 83.8667 29.304 84.192H29.36C29.44 83.8667 29.592 83.632 29.816 83.488C30.0453 83.3387 30.296 83.264 30.568 83.264C30.8453 83.264 31.104 83.3387 31.344 83.488C31.584 83.632 31.744 83.8667 31.824 84.192H31.88C31.9653 83.8667 32.12 83.632 32.344 83.488C32.5733 83.3387 32.8347 83.264 33.128 83.264C33.592 83.264 33.9653 83.4267 34.248 83.752C34.5307 84.072 34.672 84.536 34.672 85.144C34.672 85.416 34.6507 85.6827 34.608 85.944C34.5653 86.2053 34.5013 86.4853 34.416 86.784L33.6 86.744C33.7547 86.2747 33.832 85.7493 33.832 85.168C33.832 84.7627 33.7573 84.4533 33.608 84.24C33.4587 84.0267 33.2507 83.92 32.984 83.92C32.7387 83.92 32.544 84.0053 32.4 84.176C32.256 84.3413 32.184 84.6027 32.184 84.96V86.096H31.384V84.96C31.384 84.6027 31.304 84.3413 31.144 84.176C30.9893 84.0053 30.7973 83.92 30.568 83.92C30.3333 83.92 30.136 84.0053 29.976 84.176C29.8213 84.3413 29.744 84.6027 29.744 84.96V86.096H28.944V84.96C28.944 84.6027 28.872 84.3413 28.728 84.176C28.584 84.0053 28.3973 83.92 28.168 83.92C27.9067 83.92 27.6933 84.0347 27.528 84.264C27.368 84.4933 27.288 84.8827 27.288 85.432C27.288 86.0987 27.4907 86.6187 27.896 86.992C28.3067 87.36 28.8773 87.576 29.608 87.64L30.272 87.696C31.7387 87.8347 32.52 88.4027 32.616 89.4L31.808 89.432ZM35.9572 87C35.8292 86.68 35.7332 86.3813 35.6692 86.104C35.6052 85.8213 35.5732 85.5173 35.5732 85.192C35.5732 84.76 35.6452 84.4 35.7892 84.112C35.9332 83.824 36.1252 83.6107 36.3652 83.472C36.6052 83.3333 36.8719 83.264 37.1652 83.264C37.4745 83.264 37.7465 83.3387 37.9812 83.488C38.2159 83.6373 38.3785 83.88 38.4692 84.216H38.5252C38.6159 83.8853 38.7785 83.6453 39.0132 83.496C39.2532 83.3413 39.5252 83.264 39.8292 83.264C40.1225 83.264 40.3865 83.3333 40.6212 83.472C40.8612 83.6053 41.0505 83.8107 41.1892 84.088C41.3332 84.3653 41.4052 84.7067 41.4052 85.112C41.4052 85.3573 41.3839 85.5813 41.3412 85.784C41.2985 85.9867 41.2319 86.1893 41.1412 86.392V86.408H42.1012L42.0452 87H40.2052C40.3279 86.696 40.4185 86.4027 40.4772 86.12C40.5359 85.8373 40.5652 85.5413 40.5652 85.232C40.5652 84.784 40.4852 84.4507 40.3252 84.232C40.1705 84.008 39.9652 83.896 39.7092 83.896C39.4639 83.896 39.2639 83.984 39.1092 84.16C38.9599 84.3307 38.8852 84.6053 38.8852 84.984V86.096H38.0852V84.984C38.0852 84.6053 38.0105 84.3307 37.8612 84.16C37.7119 83.984 37.5145 83.896 37.2692 83.896C37.0079 83.896 36.7972 84.0053 36.6372 84.224C36.4772 84.4427 36.3972 84.776 36.3972 85.224C36.3972 85.528 36.4265 85.824 36.4852 86.112C36.5439 86.3947 36.6399 86.6907 36.7732 87H35.9572ZM46.6283 89.432C46.5643 89.1067 46.3856 88.848 46.0923 88.656C45.7989 88.4693 45.4523 88.376 45.0523 88.376H44.9083C44.6949 88.376 44.4896 88.3947 44.2923 88.432C44.0949 88.4747 43.8869 88.544 43.6683 88.64L43.4203 88.12C43.6923 87.9973 44.0576 87.9253 44.5163 87.904V87.856C43.9349 87.7173 43.4709 87.4267 43.1243 86.984C42.7829 86.536 42.6123 85.9787 42.6123 85.312C42.6123 84.8533 42.6896 84.472 42.8443 84.168C42.9989 83.8587 43.2043 83.632 43.4603 83.488C43.7163 83.3387 43.9963 83.264 44.3003 83.264C44.7589 83.264 45.1403 83.4613 45.4443 83.856H45.5003C45.6496 83.6693 45.8389 83.5253 46.0683 83.424C46.3029 83.3173 46.5643 83.264 46.8523 83.264C47.1883 83.264 47.4896 83.3387 47.7563 83.488C48.0283 83.6373 48.2416 83.8507 48.3963 84.128C48.5509 84.4 48.6283 84.72 48.6283 85.088C48.6283 85.44 48.5509 85.7547 48.3963 86.032C48.2416 86.3093 48.0256 86.5253 47.7483 86.68C47.4763 86.8347 47.1696 86.912 46.8283 86.912C46.4869 86.912 46.1776 86.8347 45.9003 86.68C45.6283 86.5253 45.4149 86.3093 45.2603 86.032C45.1056 85.7547 45.0283 85.44 45.0283 85.088C45.0283 84.7627 45.0869 84.4827 45.2043 84.248C44.9803 84.024 44.7269 83.912 44.4443 83.912C44.1456 83.912 43.9029 84.024 43.7163 84.248C43.5349 84.472 43.4443 84.824 43.4443 85.304C43.4443 85.96 43.6176 86.4773 43.9643 86.856C44.3163 87.2347 44.7989 87.496 45.4123 87.64L45.6923 87.712C46.1883 87.8347 46.5883 88.04 46.8923 88.328C47.2016 88.6213 47.3829 88.9787 47.4363 89.4L46.6283 89.432ZM45.8523 85.088C45.8523 85.4453 45.9429 85.736 46.1243 85.96C46.3056 86.1787 46.5403 86.288 46.8283 86.288C47.1216 86.288 47.3563 86.1787 47.5323 85.96C47.7136 85.736 47.8043 85.4453 47.8043 85.088C47.8043 84.704 47.7163 84.408 47.5403 84.2C47.3643 83.9867 47.1269 83.88 46.8283 83.88C46.5349 83.88 46.2976 83.9867 46.1163 84.2C45.9403 84.4133 45.8523 84.7093 45.8523 85.088ZM49.8859 87C49.7633 86.68 49.6673 86.3787 49.5979 86.096C49.5339 85.8133 49.5019 85.52 49.5019 85.216C49.5019 84.8053 49.5793 84.4533 49.7339 84.16C49.8939 83.8667 50.1126 83.6453 50.3899 83.496C50.6673 83.3413 50.9846 83.264 51.3419 83.264C51.7046 83.264 52.0246 83.3413 52.3019 83.496C52.5846 83.6453 52.8033 83.8667 52.9579 84.16C53.1179 84.4533 53.1979 84.8053 53.1979 85.216C53.1979 85.52 53.1633 85.8133 53.0939 86.096C53.0299 86.3733 52.9339 86.6747 52.8059 87H52.0379C52.1499 86.6747 52.2326 86.376 52.2859 86.104C52.3393 85.832 52.3659 85.5467 52.3659 85.248C52.3659 84.8213 52.2753 84.4907 52.0939 84.256C51.9126 84.016 51.6619 83.896 51.3419 83.896C51.0219 83.896 50.7713 84.016 50.5899 84.256C50.4139 84.4907 50.3259 84.8213 50.3259 85.248C50.3259 85.5413 50.3526 85.8267 50.4059 86.104C50.4593 86.3813 50.5446 86.68 50.6619 87H49.8859ZM55.9318 87.08C55.5531 87.08 55.2225 87 54.9398 86.84C54.6571 86.68 54.4411 86.456 54.2918 86.168C54.1425 85.88 54.0678 85.552 54.0678 85.184V82.464C54.0678 81.9893 54.2145 81.616 54.5078 81.344C54.8011 81.0667 55.1985 80.928 55.6998 80.928C55.8918 80.928 56.0945 80.9413 56.3078 80.968C56.5531 80.9893 56.7398 81 56.8678 81C57.0971 81 57.2918 80.9813 57.4518 80.944V81.656C57.2971 81.7147 57.1211 81.744 56.9238 81.744C56.7851 81.744 56.5878 81.7173 56.3318 81.664C56.3051 81.6587 56.2305 81.6453 56.1078 81.624C55.9905 81.6027 55.8731 81.592 55.7558 81.592C55.4838 81.592 55.2651 81.6667 55.0998 81.816C54.9398 81.9653 54.8625 82.184 54.8678 82.472L54.8838 83.304C54.8838 83.496 54.8651 83.704 54.8278 83.928H54.8838C55.0011 83.7147 55.1665 83.552 55.3798 83.44C55.5985 83.3227 55.8438 83.264 56.1158 83.264C56.4411 83.264 56.7291 83.3467 56.9798 83.512C57.2358 83.672 57.4331 83.8987 57.5718 84.192C57.7158 84.48 57.7878 84.8107 57.7878 85.184C57.7878 85.552 57.7131 85.88 57.5638 86.168C57.4145 86.456 57.1985 86.68 56.9158 86.84C56.6385 87 56.3105 87.08 55.9318 87.08ZM54.8838 85.28C54.8838 85.6267 54.9798 85.9067 55.1718 86.12C55.3638 86.3333 55.6145 86.44 55.9238 86.44C56.2278 86.44 56.4731 86.328 56.6598 86.104C56.8518 85.8747 56.9478 85.5653 56.9478 85.176C56.9478 84.776 56.8545 84.464 56.6678 84.24C56.4865 84.016 56.2385 83.904 55.9238 83.904C55.6145 83.904 55.3638 84.008 55.1718 84.216C54.9798 84.4187 54.8838 84.704 54.8838 85.072V85.28ZM59.0422 87C58.9195 86.68 58.8235 86.3787 58.7542 86.096C58.6902 85.8133 58.6582 85.52 58.6582 85.216C58.6582 84.8053 58.7355 84.4533 58.8902 84.16C59.0502 83.8667 59.2689 83.6453 59.5462 83.496C59.8235 83.3413 60.1409 83.264 60.4982 83.264C60.8609 83.264 61.1809 83.3413 61.4582 83.496C61.7409 83.6453 61.9595 83.8667 62.1142 84.16C62.2742 84.4533 62.3542 84.8053 62.3542 85.216C62.3542 85.52 62.3195 85.8133 62.2502 86.096C62.1862 86.3733 62.0902 86.6747 61.9622 87H61.1942C61.3062 86.6747 61.3889 86.376 61.4422 86.104C61.4955 85.832 61.5222 85.5467 61.5222 85.248C61.5222 84.8213 61.4315 84.4907 61.2502 84.256C61.0689 84.016 60.8182 83.896 60.4982 83.896C60.1782 83.896 59.9275 84.016 59.7462 84.256C59.5702 84.4907 59.4822 84.8213 59.4822 85.248C59.4822 85.5413 59.5089 85.8267 59.5622 86.104C59.6155 86.3813 59.7009 86.68 59.8182 87H59.0422ZM65.1041 87.088C64.7307 87.088 64.4054 87.0107 64.1281 86.856C63.8507 86.7013 63.6374 86.4853 63.4881 86.208C63.3441 85.9307 63.2721 85.6107 63.2721 85.248V81H64.0881V85.288C64.0881 85.6507 64.1814 85.936 64.3681 86.144C64.5547 86.3467 64.7974 86.448 65.0961 86.448C65.3894 86.448 65.6294 86.3493 65.8161 86.152C66.0027 85.9493 66.0961 85.6933 66.0961 85.384C66.0961 85.1973 66.0747 85.0373 66.0321 84.904C65.9894 84.7707 65.9254 84.616 65.8401 84.44C65.7494 84.2427 65.6801 84.0667 65.6321 83.912C65.5894 83.7573 65.5734 83.568 65.5841 83.344H66.4001C66.3947 83.5253 66.4134 83.6853 66.4561 83.824C66.4987 83.9573 66.5627 84.1093 66.6481 84.28C66.7441 84.4773 66.8161 84.6587 66.8641 84.824C66.9121 84.9893 66.9361 85.192 66.9361 85.432C66.9361 85.7307 66.8614 86.0053 66.7121 86.256C66.5681 86.5067 66.3574 86.7093 66.0801 86.864C65.8027 87.0133 65.4774 87.088 65.1041 87.088ZM71.7454 87.08C71.3668 87.08 71.0361 87 70.7534 86.84C70.4708 86.68 70.2548 86.456 70.1054 86.168C69.9561 85.88 69.8814 85.552 69.8814 85.184V81H70.6974L70.6894 83.304C70.6894 83.5333 70.6708 83.7413 70.6334 83.928H70.6894C70.8068 83.72 70.9721 83.56 71.1854 83.448C71.3988 83.3307 71.6414 83.2693 71.9134 83.264L72.4334 82.304L73.0814 82.504L72.4894 83.36C72.8308 83.4773 73.1001 83.6987 73.2974 84.024C73.5001 84.3493 73.6014 84.736 73.6014 85.184C73.6014 85.552 73.5268 85.88 73.3774 86.168C73.2281 86.456 73.0121 86.68 72.7294 86.84C72.4521 87 72.1241 87.08 71.7454 87.08ZM70.6974 85.28C70.6974 85.6267 70.7934 85.9067 70.9854 86.12C71.1774 86.3333 71.4281 86.44 71.7374 86.44C72.0414 86.44 72.2868 86.328 72.4734 86.104C72.6654 85.8747 72.7614 85.5653 72.7614 85.176C72.7614 84.776 72.6681 84.464 72.4814 84.24C72.3001 84.016 72.0521 83.904 71.7374 83.904C71.4281 83.904 71.1774 84.008 70.9854 84.216C70.7934 84.4187 70.6974 84.704 70.6974 85.072V85.28ZM76.5747 83.344C76.5694 83.5147 76.612 83.6613 76.7027 83.784C76.7987 83.9013 76.9427 84.0453 77.1347 84.216C77.3 84.36 77.4334 84.488 77.5347 84.6C77.6414 84.7067 77.7294 84.8453 77.7987 85.016C77.8734 85.1813 77.9107 85.3787 77.9107 85.608C77.9107 85.9067 77.8334 86.168 77.6787 86.392C77.524 86.6107 77.3134 86.7813 77.0467 86.904C76.78 87.0213 76.4867 87.08 76.1667 87.08C75.8414 87.08 75.5454 87.0213 75.2787 86.904C75.0174 86.7867 74.8094 86.616 74.6547 86.392C74.5054 86.168 74.4307 85.904 74.4307 85.6C74.4307 85.4613 74.4494 85.336 74.4867 85.224L75.2867 85.256C75.2707 85.336 75.2627 85.4267 75.2627 85.528C75.2627 85.8107 75.3454 86.0347 75.5107 86.2C75.676 86.3653 75.8947 86.448 76.1667 86.448C76.4387 86.448 76.66 86.3707 76.8307 86.216C77.0014 86.0613 77.0867 85.8507 77.0867 85.584C77.0867 85.376 77.0334 85.2053 76.9267 85.072C76.8254 84.9333 76.668 84.7787 76.4547 84.608C76.2894 84.4693 76.1587 84.3493 76.0627 84.248C75.9667 84.1467 75.8867 84.0213 75.8227 83.872C75.764 83.7227 75.74 83.5467 75.7507 83.344H76.5747ZM80.5803 87.08C80.2016 87.08 79.8709 87 79.5883 86.84C79.3056 86.68 79.0896 86.456 78.9403 86.168C78.7909 85.88 78.7163 85.552 78.7163 85.184V82.464C78.7163 81.9893 78.8629 81.616 79.1562 81.344C79.4496 81.0667 79.8469 80.928 80.3483 80.928C80.5403 80.928 80.7429 80.9413 80.9563 80.968C81.2016 80.9893 81.3883 81 81.5163 81C81.7456 81 81.9403 80.9813 82.1003 80.944V81.656C81.9456 81.7147 81.7696 81.744 81.5723 81.744C81.4336 81.744 81.2363 81.7173 80.9803 81.664C80.9536 81.6587 80.8789 81.6453 80.7563 81.624C80.6389 81.6027 80.5216 81.592 80.4043 81.592C80.1323 81.592 79.9136 81.6667 79.7483 81.816C79.5883 81.9653 79.5109 82.184 79.5163 82.472L79.5323 83.304C79.5323 83.496 79.5136 83.704 79.4763 83.928H79.5323C79.6496 83.7147 79.8149 83.552 80.0283 83.44C80.2469 83.3227 80.4923 83.264 80.7643 83.264C81.0896 83.264 81.3776 83.3467 81.6283 83.512C81.8843 83.672 82.0816 83.8987 82.2203 84.192C82.3643 84.48 82.4363 84.8107 82.4363 85.184C82.4363 85.552 82.3616 85.88 82.2123 86.168C82.0629 86.456 81.8469 86.68 81.5643 86.84C81.2869 87 80.9589 87.08 80.5803 87.08ZM79.5323 85.28C79.5323 85.6267 79.6283 85.9067 79.8203 86.12C80.0123 86.3333 80.2629 86.44 80.5723 86.44C80.8763 86.44 81.1216 86.328 81.3083 86.104C81.5003 85.8747 81.5963 85.5653 81.5963 85.176C81.5963 84.776 81.5029 84.464 81.3163 84.24C81.1349 84.016 80.8869 83.904 80.5723 83.904C80.2629 83.904 80.0123 84.008 79.8203 84.216C79.6283 84.4187 79.5323 84.704 79.5323 85.072V85.28ZM85.0564 89.488C84.6724 89.488 84.3284 89.4027 84.0244 89.232C83.7258 89.0667 83.4911 88.8293 83.3204 88.52C83.1498 88.216 83.0644 87.864 83.0644 87.464C83.0644 87.096 83.1418 86.7627 83.2964 86.464C83.4511 86.16 83.6724 85.9173 83.9604 85.736C84.2484 85.5547 84.5871 85.456 84.9764 85.44C85.0564 85.4293 85.1498 85.4293 85.2564 85.44C85.4004 85.328 85.5151 85.208 85.6004 85.08C85.6911 84.9467 85.7364 84.792 85.7364 84.616C85.7364 84.3813 85.6698 84.2027 85.5364 84.08C85.4084 83.9573 85.2244 83.896 84.9844 83.896C84.7551 83.896 84.5711 83.9627 84.4324 84.096C84.2938 84.224 84.2191 84.4027 84.2084 84.632L83.3524 84.6C83.3791 84.2107 83.5391 83.8907 83.8324 83.64C84.1258 83.3893 84.5124 83.264 84.9924 83.264C85.3178 83.264 85.6004 83.32 85.8404 83.432C86.0804 83.544 86.2644 83.6987 86.3924 83.896C86.5204 84.088 86.5844 84.3067 86.5844 84.552C86.5844 84.776 86.5231 84.976 86.4004 85.152C86.2831 85.3227 86.1204 85.464 85.9124 85.576V85.632C86.2858 85.7813 86.5684 86.0187 86.7604 86.344C86.9524 86.664 87.0484 87.0347 87.0484 87.456C87.0484 87.856 86.9631 88.2107 86.7924 88.52C86.6218 88.8293 86.3844 89.0667 86.0804 89.232C85.7818 89.4027 85.4404 89.488 85.0564 89.488ZM83.9044 87.456C83.9044 87.888 84.0111 88.2267 84.2244 88.472C84.4378 88.7227 84.7151 88.848 85.0564 88.848C85.3924 88.848 85.6671 88.7227 85.8804 88.472C86.0991 88.2267 86.2084 87.888 86.2084 87.456C86.2084 87.0293 86.0991 86.6933 85.8804 86.448C85.6671 86.1973 85.3924 86.072 85.0564 86.072C84.7151 86.072 84.4378 86.1973 84.2244 86.448C84.0111 86.6933 83.9044 87.0293 83.9044 87.456ZM88.1994 87C87.9434 86.3333 87.8154 85.5467 87.8154 84.64C87.8154 83.776 87.97 83.096 88.2794 82.6C88.5887 82.0987 88.9594 81.7467 89.3914 81.544C89.8234 81.336 90.3007 81.1893 90.8234 81.104L92.0314 80.912V81.656L90.7914 81.856C90.3327 81.9253 89.9407 82.0373 89.6154 82.192C89.29 82.3413 89.0154 82.568 88.7914 82.872C88.5727 83.176 88.4234 83.5787 88.3434 84.08H88.3834C88.5167 83.792 88.682 83.584 88.8794 83.456C89.0767 83.328 89.306 83.264 89.5674 83.264C89.8287 83.264 90.066 83.3413 90.2794 83.496C90.498 83.6507 90.6447 83.8907 90.7194 84.216H90.7674C90.858 83.8907 91.0234 83.6507 91.2634 83.496C91.5034 83.3413 91.7727 83.264 92.0714 83.264C92.3647 83.264 92.6287 83.3333 92.8634 83.472C93.1034 83.6107 93.2927 83.824 93.4314 84.112C93.5754 84.4 93.6474 84.76 93.6474 85.192C93.6474 85.512 93.6154 85.8107 93.5514 86.088C93.4874 86.3653 93.3914 86.6693 93.2634 87H92.4474C92.5754 86.6907 92.6687 86.3947 92.7274 86.112C92.786 85.824 92.818 85.528 92.8234 85.224C92.818 84.7813 92.7354 84.4507 92.5754 84.232C92.4154 84.008 92.2074 83.896 91.9514 83.896C91.706 83.896 91.506 83.984 91.3514 84.16C91.202 84.3307 91.1274 84.6053 91.1274 84.984V86.096H90.3274V84.984C90.3274 84.6053 90.2527 84.3307 90.1034 84.16C89.9594 83.984 89.7647 83.896 89.5194 83.896C89.258 83.896 89.0474 84.0053 88.8874 84.224C88.7274 84.4427 88.6474 84.776 88.6474 85.224C88.6474 85.528 88.6767 85.824 88.7354 86.112C88.794 86.3947 88.8874 86.6907 89.0154 87H88.1994ZM96.4136 87.08C96.0349 87.08 95.7042 87 95.4216 86.84C95.1442 86.68 94.9309 86.456 94.7816 86.168C94.6322 85.88 94.5576 85.552 94.5576 85.184C94.5576 84.8107 94.6269 84.48 94.7656 84.192C94.9096 83.8987 95.1069 83.672 95.3576 83.512C95.6136 83.3467 95.9042 83.264 96.2296 83.264C96.5069 83.264 96.7522 83.3227 96.9656 83.44C97.1842 83.5573 97.3522 83.72 97.4696 83.928H97.5256C97.4882 83.7413 97.4696 83.5333 97.4696 83.304L97.4616 81H98.2776V85.184C98.2776 85.552 98.2029 85.88 98.0536 86.168C97.9042 86.456 97.6882 86.68 97.4056 86.84C97.1229 87 96.7922 87.08 96.4136 87.08ZM95.3976 85.176C95.3976 85.5653 95.4909 85.8747 95.6776 86.104C95.8696 86.328 96.1176 86.44 96.4216 86.44C96.7309 86.44 96.9816 86.3333 97.1736 86.12C97.3656 85.9067 97.4616 85.6267 97.4616 85.28V85.072C97.4616 84.704 97.3656 84.4187 97.1736 84.216C96.9816 84.008 96.7309 83.904 96.4216 83.904C96.1069 83.904 95.8562 84.016 95.6696 84.24C95.4882 84.464 95.3976 84.776 95.3976 85.176ZM99.7388 86.04C99.8881 86.04 100.013 86.0907 100.115 86.192C100.216 86.2933 100.267 86.416 100.267 86.56C100.267 86.7093 100.216 86.8347 100.115 86.936C100.013 87.032 99.8881 87.08 99.7388 87.08C99.6001 87.08 99.4801 87.0293 99.3788 86.928C99.2775 86.8267 99.2268 86.704 99.2268 86.56C99.2268 86.416 99.2775 86.2933 99.3788 86.192C99.4801 86.0907 99.6001 86.04 99.7388 86.04Z" fill="#557186"/>
<g filter="url(#filter2_d_949_40092)">
<rect x="106" y="2" width="20.4825" height="20.4825" rx="10.2412" fill="white" shape-rendering="crispEdges"/>
<rect x="106.427" y="2.42672" width="19.6291" height="19.6291" rx="9.81453" stroke="#F04438" stroke-opacity="0.3" stroke-width="0.853437" shape-rendering="crispEdges"/>
<path d="M120.508 7.97446L111.974 16.5088" stroke="#F04438" stroke-width="1.28016" stroke-linecap="round" stroke-linejoin="round"/>
<path d="M111.974 7.97446L120.508 16.5088" stroke="#F04438" stroke-width="1.28016" stroke-linecap="round" stroke-linejoin="round"/>
</g>
<defs>
<filter id="filter0_bd_949_40092" x="1.90865" y="5.01756" width="123.887" height="106.061" filterUnits="userSpaceOnUse" color-interpolation-filters="sRGB">
<feFlood flood-opacity="0" result="BackgroundImageFix"/>
<feGaussianBlur in="BackgroundImageFix" stdDeviation="2.25764"/>
<feComposite in2="SourceAlpha" operator="in" result="effect1_backgroundBlur_949_40092"/>
<feColorMatrix in="SourceAlpha" type="matrix" values="0 0 0 0 0 0 0 0 0 0 0 0 0 0 0 0 0 0 127 0" result="hardAlpha"/>
<feOffset dy="1.80611"/>
<feGaussianBlur stdDeviation="4.51528"/>
<feComposite in2="hardAlpha" operator="out"/>
<feColorMatrix type="matrix" values="0 0 0 0 0.427451 0 0 0 0 0.509804 0 0 0 0 0.698039 0 0 0 0.3 0"/>
<feBlend mode="normal" in2="effect1_backgroundBlur_949_40092" result="effect2_dropShadow_949_40092"/>
<feBlend mode="normal" in="SourceGraphic" in2="effect2_dropShadow_949_40092" result="shape"/>
</filter>
<filter id="filter1_dd_949_40092" x="0.697859" y="12.0016" width="126.309" height="81.93" filterUnits="userSpaceOnUse" color-interpolation-filters="sRGB">
<feFlood flood-opacity="0" result="BackgroundImageFix"/>
<feColorMatrix in="SourceAlpha" type="matrix" values="0 0 0 0 0 0 0 0 0 0 0 0 0 0 0 0 0 0 127 0" result="hardAlpha"/>
<feMorphology radius="3.41375" operator="erode" in="SourceAlpha" result="effect1_dropShadow_949_40092"/>
<feOffset dy="6.8275"/>
<feGaussianBlur stdDeviation="3.41375"/>
<feComposite in2="hardAlpha" operator="out"/>
<feColorMatrix type="matrix" values="0 0 0 0 0.0627451 0 0 0 0 0.0941176 0 0 0 0 0.156863 0 0 0 0.03 0"/>
<feBlend mode="normal" in2="BackgroundImageFix" result="effect1_dropShadow_949_40092"/>
<feColorMatrix in="SourceAlpha" type="matrix" values="0 0 0 0 0 0 0 0 0 0 0 0 0 0 0 0 0 0 127 0" result="hardAlpha"/>
<feMorphology radius="3.41375" operator="erode" in="SourceAlpha" result="effect2_dropShadow_949_40092"/>
<feOffset dy="10"/>
<feGaussianBlur stdDeviation="10.2412"/>
<feComposite in2="hardAlpha" operator="out"/>
<feColorMatrix type="matrix" values="0 0 0 0 0.0627451 0 0 0 0 0.0941176 0 0 0 0 0.156863 0 0 0 0.08 0"/>
<feBlend mode="normal" in2="effect1_dropShadow_949_40092" result="effect2_dropShadow_949_40092"/>
<feBlend mode="normal" in="SourceGraphic" in2="effect2_dropShadow_949_40092" result="shape"/>
</filter>
<filter id="filter2_d_949_40092" x="102.586" y="0.293126" width="27.31" height="27.31" filterUnits="userSpaceOnUse" color-interpolation-filters="sRGB">
<feFlood flood-opacity="0" result="BackgroundImageFix"/>
<feColorMatrix in="SourceAlpha" type="matrix" values="0 0 0 0 0 0 0 0 0 0 0 0 0 0 0 0 0 0 127 0" result="hardAlpha"/>
<feOffset dy="1.70687"/>
<feGaussianBlur stdDeviation="1.70687"/>
<feComposite in2="hardAlpha" operator="out"/>
<feColorMatrix type="matrix" values="0 0 0 0 0 0 0 0 0 0 0 0 0 0 0 0 0 0 0.1 0"/>
<feBlend mode="normal" in2="BackgroundImageFix" result="effect1_dropShadow_949_40092"/>
<feBlend mode="normal" in="SourceGraphic" in2="effect1_dropShadow_949_40092" result="shape"/>
</filter>
<clipPath id="clip0_949_40092">
<rect width="11.9481" height="11.9481" fill="white" transform="translate(41.6628 36.5657)"/>
</clipPath>
</defs>
</svg>
