<svg width="130" height="112" viewBox="0 0 130 112" fill="none" xmlns="http://www.w3.org/2000/svg">
<g filter="url(#filter0_bd_949_40104)">
<rect x="10.6875" y="12.2421" width="105.826" height="88" rx="10.2412" fill="#F3F6FD"/>
<rect x="11.139" y="12.6936" width="104.923" height="87.0969" rx="9.78972" stroke="white" stroke-width="0.903056"/>
</g>
<g filter="url(#filter1_dd_949_40104)">
<rect x="17.5151" y="19.0703" width="92.1712" height="47.7925" rx="6.8275" fill="white" shape-rendering="crispEdges"/>
<path d="M43.1182 33.5537H84.0832C86.6755 33.5537 88.7771 35.6552 88.7771 38.2476V47.6873C88.7771 50.2796 86.6755 52.3812 84.0832 52.3812H43.1182C40.5258 52.3812 38.4243 50.2796 38.4243 47.6873V38.2476C38.4243 35.6552 40.5258 33.5537 43.1182 33.5537Z" fill="#FEF3F2"/>
<path d="M43.1182 33.5537H84.0832C86.6755 33.5537 88.7771 35.6552 88.7771 38.2476V47.6873C88.7771 50.2796 86.6755 52.3812 84.0832 52.3812H43.1182C40.5258 52.3812 38.4243 50.2796 38.4243 47.6873V38.2476C38.4243 35.6552 40.5258 33.5537 43.1182 33.5537Z" stroke="#F97066" stroke-width="0.853437"/>
<g clip-path="url(#clip0_949_40104)">
<path d="M47.3856 39.9789V42.966L49.377 43.9616M52.364 42.966C52.364 45.7154 50.1351 47.9443 47.3856 47.9443C44.6361 47.9443 42.4072 45.7154 42.4072 42.966C42.4072 40.2165 44.6361 37.9876 47.3856 37.9876C50.1351 37.9876 52.364 40.2165 52.364 42.966Z" stroke="#F97066" stroke-width="0.853437"/>
</g>
<path d="M60.0706 38.6416C60.6237 38.6416 61.105 38.7952 61.5146 39.1024C61.9243 39.4028 62.2384 39.8466 62.4568 40.4338C62.6821 41.021 62.7948 41.731 62.7948 42.564C62.7948 43.3901 62.6821 44.1002 62.4568 44.6941C62.2384 45.2813 61.9243 45.7285 61.5146 46.0358C61.105 46.3362 60.6237 46.4864 60.0706 46.4864C59.5176 46.4864 59.0329 46.3362 58.6164 46.0358C58.2067 45.7285 57.8892 45.2813 57.6639 44.6941C57.4455 44.1002 57.3362 43.3901 57.3362 42.564C57.3362 41.731 57.4455 41.021 57.6639 40.4338C57.8892 39.8466 58.2067 39.4028 58.6164 39.1024C59.0329 38.7952 59.5176 38.6416 60.0706 38.6416ZM58.1862 42.564C58.1862 43.6017 58.3467 44.3937 58.6676 44.9399C58.9885 45.4793 59.4527 45.749 60.0604 45.749C60.6749 45.749 61.1425 45.4793 61.4634 44.9399C61.7912 44.3937 61.955 43.6017 61.955 42.564C61.955 41.5194 61.7912 40.7274 61.4634 40.188C61.1425 39.6486 60.6749 39.3789 60.0604 39.3789C59.4527 39.3789 58.9885 39.652 58.6676 40.1982C58.3467 40.7376 58.1862 41.5262 58.1862 42.564ZM66.6514 38.6416C67.2045 38.6416 67.6858 38.7952 68.0954 39.1024C68.5051 39.4028 68.8192 39.8466 69.0376 40.4338C69.2629 41.021 69.3756 41.731 69.3756 42.564C69.3756 43.3901 69.2629 44.1002 69.0376 44.6941C68.8192 45.2813 68.5051 45.7285 68.0954 46.0358C67.6858 46.3362 67.2045 46.4864 66.6514 46.4864C66.0984 46.4864 65.6137 46.3362 65.1972 46.0358C64.7875 45.7285 64.47 45.2813 64.2447 44.6941C64.0263 44.1002 63.917 43.3901 63.917 42.564C63.917 41.731 64.0263 41.021 64.2447 40.4338C64.47 39.8466 64.7875 39.4028 65.1972 39.1024C65.6137 38.7952 66.0984 38.6416 66.6514 38.6416ZM64.767 42.564C64.767 43.6017 64.9275 44.3937 65.2484 44.9399C65.5693 45.4793 66.0335 45.749 66.6412 45.749C67.2557 45.749 67.7233 45.4793 68.0442 44.9399C68.372 44.3937 68.5358 43.6017 68.5358 42.564C68.5358 41.5194 68.372 40.7274 68.0442 40.188C67.7233 39.6486 67.2557 39.3789 66.6412 39.3789C66.0335 39.3789 65.5693 39.652 65.2484 40.1982C64.9275 40.7376 64.767 41.5262 64.767 42.564ZM70.9075 41.0892C71.0645 41.0892 71.1976 41.1439 71.3069 41.2531C71.4161 41.3623 71.4707 41.4955 71.4707 41.6525C71.4707 41.8095 71.4161 41.9427 71.3069 42.0519C71.1976 42.1611 71.0645 42.2158 70.9075 42.2158C70.7573 42.2158 70.6275 42.1611 70.5183 42.0519C70.4159 41.9427 70.3647 41.8095 70.3647 41.6525C70.3647 41.4955 70.4159 41.3623 70.5183 41.2531C70.6275 41.1439 70.7573 41.0892 70.9075 41.0892ZM70.3647 45.9333C70.3647 45.7763 70.4159 45.6466 70.5183 45.5442C70.6207 45.4349 70.7504 45.3803 70.9075 45.3803C71.0645 45.3803 71.1976 45.4349 71.3069 45.5442C71.4161 45.6466 71.4707 45.7763 71.4707 45.9333C71.4707 46.0904 71.4161 46.2235 71.3069 46.3327C71.1976 46.4352 71.0645 46.4864 70.9075 46.4864C70.7504 46.4864 70.6207 46.4352 70.5183 46.3327C70.4159 46.2235 70.3647 46.0904 70.3647 45.9333ZM75.2825 38.6416C75.8355 38.6416 76.3168 38.7952 76.7265 39.1024C77.1361 39.4028 77.4502 39.8466 77.6687 40.4338C77.894 41.021 78.0067 41.731 78.0067 42.564C78.0067 43.3901 77.894 44.1002 77.6687 44.6941C77.4502 45.2813 77.1361 45.7285 76.7265 46.0358C76.3168 46.3362 75.8355 46.4864 75.2825 46.4864C74.7295 46.4864 74.2447 46.3362 73.8282 46.0358C73.4186 45.7285 73.1011 45.2813 72.8758 44.6941C72.6573 44.1002 72.5481 43.3901 72.5481 42.564C72.5481 41.731 72.6573 41.021 72.8758 40.4338C73.1011 39.8466 73.4186 39.4028 73.8282 39.1024C74.2447 38.7952 74.7295 38.6416 75.2825 38.6416ZM73.3981 42.564C73.3981 43.6017 73.5585 44.3937 73.8794 44.9399C74.2003 45.4793 74.6646 45.749 75.2722 45.749C75.8867 45.749 76.3544 45.4793 76.6753 44.9399C77.003 44.3937 77.1669 43.6017 77.1669 42.564C77.1669 41.5194 77.003 40.7274 76.6753 40.188C76.3544 39.6486 75.8867 39.3789 75.2722 39.3789C74.6646 39.3789 74.2003 39.652 73.8794 40.1982C73.5585 40.7376 73.3981 41.5262 73.3981 42.564ZM81.8633 38.6416C82.4163 38.6416 82.8976 38.7952 83.3073 39.1024C83.7169 39.4028 84.031 39.8466 84.2495 40.4338C84.4748 41.021 84.5875 41.731 84.5875 42.564C84.5875 43.3901 84.4748 44.1002 84.2495 44.6941C84.031 45.2813 83.7169 45.7285 83.3073 46.0358C82.8976 46.3362 82.4163 46.4864 81.8633 46.4864C81.3103 46.4864 80.8255 46.3362 80.409 46.0358C79.9994 45.7285 79.6819 45.2813 79.4566 44.6941C79.2381 44.1002 79.1289 43.3901 79.1289 42.564C79.1289 41.731 79.2381 41.021 79.4566 40.4338C79.6819 39.8466 79.9994 39.4028 80.409 39.1024C80.8255 38.7952 81.3103 38.6416 81.8633 38.6416ZM79.9789 42.564C79.9789 43.6017 80.1393 44.3937 80.4602 44.9399C80.7811 45.4793 81.2454 45.749 81.853 45.749C82.4675 45.749 82.9352 45.4793 83.2561 44.9399C83.5838 44.3937 83.7477 43.6017 83.7477 42.564C83.7477 41.5194 83.5838 40.7274 83.2561 40.188C82.9352 39.6486 82.4675 39.3789 81.853 39.3789C81.2454 39.3789 80.7811 39.652 80.4602 40.1982C80.1393 40.7376 79.9789 41.5262 79.9789 42.564Z" fill="#F97066"/>
</g>
<path d="M26.312 87.08C25.9333 87.08 25.6027 87 25.32 86.84C25.0427 86.68 24.8293 86.456 24.68 86.168C24.5307 85.88 24.456 85.552 24.456 85.184C24.456 84.8107 24.5253 84.48 24.664 84.192C24.808 83.8987 25.0053 83.672 25.256 83.512C25.512 83.3467 25.8027 83.264 26.128 83.264C26.4 83.264 26.6427 83.3227 26.856 83.44C27.0747 83.5573 27.2427 83.72 27.36 83.928H27.416C27.3787 83.704 27.36 83.496 27.36 83.304L27.376 82.624C27.3813 82.272 27.2853 82.0053 27.088 81.824C26.8907 81.6427 26.6373 81.552 26.328 81.552C26.0293 81.552 25.7867 81.6347 25.6 81.8C25.4187 81.9653 25.3227 82.1653 25.312 82.4L24.48 82.376C24.4853 82.1093 24.568 81.864 24.728 81.64C24.888 81.416 25.1067 81.24 25.384 81.112C25.6667 80.9787 25.9787 80.912 26.32 80.912C26.672 80.912 26.9893 80.984 27.272 81.128C27.5547 81.2667 27.776 81.4667 27.936 81.728C28.096 81.9893 28.176 82.288 28.176 82.624V85.184C28.176 85.552 28.1013 85.88 27.952 86.168C27.8027 86.456 27.5867 86.68 27.304 86.84C27.0213 87 26.6907 87.08 26.312 87.08ZM25.296 85.176C25.296 85.5653 25.3893 85.8747 25.576 86.104C25.768 86.328 26.016 86.44 26.32 86.44C26.6293 86.44 26.88 86.3333 27.072 86.12C27.264 85.9067 27.36 85.6267 27.36 85.28V85.072C27.36 84.704 27.264 84.4187 27.072 84.216C26.88 84.008 26.6293 83.904 26.32 83.904C26.0053 83.904 25.7547 84.016 25.568 84.24C25.3867 84.464 25.296 84.776 25.296 85.176ZM29.5344 87C29.4117 86.68 29.3157 86.3787 29.2464 86.096C29.1824 85.8133 29.1504 85.52 29.1504 85.216C29.1504 84.8053 29.2277 84.4533 29.3824 84.16C29.5424 83.8667 29.761 83.6453 30.0384 83.496C30.3157 83.3413 30.633 83.264 30.9904 83.264C31.353 83.264 31.673 83.3413 31.9504 83.496C32.233 83.6453 32.4517 83.8667 32.6064 84.16C32.7664 84.4533 32.8464 84.8053 32.8464 85.216C32.8464 85.52 32.8117 85.8133 32.7424 86.096C32.6784 86.3733 32.5824 86.6747 32.4544 87H31.6864C31.7984 86.6747 31.881 86.376 31.9344 86.104C31.9877 85.832 32.0144 85.5467 32.0144 85.248C32.0144 84.8213 31.9237 84.4907 31.7424 84.256C31.561 84.016 31.3104 83.896 30.9904 83.896C30.6704 83.896 30.4197 84.016 30.2384 84.256C30.0624 84.4907 29.9744 84.8213 29.9744 85.248C29.9744 85.5413 30.001 85.8267 30.0544 86.104C30.1077 86.3813 30.193 86.68 30.3104 87H29.5344ZM35.5698 87.08C35.1911 87.08 34.8605 87 34.5778 86.84C34.3005 86.68 34.0871 86.456 33.9378 86.168C33.7885 85.88 33.7138 85.552 33.7138 85.184C33.7138 84.8107 33.7831 84.48 33.9218 84.192C34.0658 83.8987 34.2631 83.672 34.5138 83.512C34.7698 83.3467 35.0605 83.264 35.3858 83.264C35.6578 83.264 35.9005 83.3227 36.1138 83.44C36.3325 83.5573 36.5005 83.72 36.6178 83.928H36.6738C36.6365 83.704 36.6178 83.496 36.6178 83.304L36.6338 82.624C36.6391 82.272 36.5431 82.0053 36.3458 81.824C36.1485 81.6427 35.8951 81.552 35.5858 81.552C35.2871 81.552 35.0445 81.6347 34.8578 81.8C34.6765 81.9653 34.5805 82.1653 34.5698 82.4L33.7378 82.376C33.7431 82.1093 33.8258 81.864 33.9858 81.64C34.1458 81.416 34.3645 81.24 34.6418 81.112C34.9245 80.9787 35.2365 80.912 35.5778 80.912C35.9298 80.912 36.2471 80.984 36.5298 81.128C36.8125 81.2667 37.0338 81.4667 37.1938 81.728C37.3538 81.9893 37.4338 82.288 37.4338 82.624V85.184C37.4338 85.552 37.3591 85.88 37.2098 86.168C37.0605 86.456 36.8445 86.68 36.5618 86.84C36.2791 87 35.9485 87.08 35.5698 87.08ZM34.5538 85.176C34.5538 85.5653 34.6471 85.8747 34.8338 86.104C35.0258 86.328 35.2738 86.44 35.5778 86.44C35.8871 86.44 36.1378 86.3333 36.3298 86.12C36.5218 85.9067 36.6178 85.6267 36.6178 85.28V85.072C36.6178 84.704 36.5218 84.4187 36.3298 84.216C36.1378 84.008 35.8871 83.904 35.5778 83.904C35.2631 83.904 35.0125 84.016 34.8258 84.24C34.6445 84.464 34.5538 84.776 34.5538 85.176ZM38.8322 87C38.7042 86.68 38.6082 86.3813 38.5442 86.104C38.4802 85.8213 38.4482 85.5173 38.4482 85.192C38.4482 84.76 38.5202 84.4 38.6642 84.112C38.8082 83.824 39.0002 83.6107 39.2402 83.472C39.4802 83.3333 39.7469 83.264 40.0402 83.264C40.3495 83.264 40.6215 83.3387 40.8562 83.488C41.0909 83.6373 41.2535 83.88 41.3442 84.216H41.4002C41.4909 83.8853 41.6535 83.6453 41.8882 83.496C42.1282 83.3413 42.4002 83.264 42.7042 83.264C42.9975 83.264 43.2615 83.3333 43.4962 83.472C43.7362 83.6053 43.9255 83.8107 44.0642 84.088C44.2082 84.3653 44.2802 84.7067 44.2802 85.112C44.2802 85.3573 44.2589 85.5813 44.2162 85.784C44.1735 85.9867 44.1069 86.1893 44.0162 86.392V86.408H44.9762L44.9202 87H43.0802C43.2029 86.696 43.2935 86.4027 43.3522 86.12C43.4109 85.8373 43.4402 85.5413 43.4402 85.232C43.4402 84.784 43.3602 84.4507 43.2002 84.232C43.0455 84.008 42.8402 83.896 42.5842 83.896C42.3389 83.896 42.1389 83.984 41.9842 84.16C41.8349 84.3307 41.7602 84.6053 41.7602 84.984V86.096H40.9602V84.984C40.9602 84.6053 40.8855 84.3307 40.7362 84.16C40.5869 83.984 40.3895 83.896 40.1442 83.896C39.8829 83.896 39.6722 84.0053 39.5122 84.224C39.3522 84.4427 39.2722 84.776 39.2722 85.224C39.2722 85.528 39.3015 85.824 39.3602 86.112C39.4189 86.3947 39.5149 86.6907 39.6482 87H38.8322ZM45.2691 83.552C45.1357 83.1093 45.0691 82.6827 45.0691 82.272C45.0691 81.856 45.1891 81.5253 45.4291 81.28C45.6744 81.0347 45.9971 80.912 46.3971 80.912C46.6584 80.912 46.8877 80.976 47.0851 81.104C47.2824 81.232 47.4184 81.416 47.4931 81.656H47.5491C47.6184 81.416 47.7437 81.232 47.9251 81.104C48.1117 80.976 48.3197 80.912 48.5491 80.912C49.0504 80.912 49.4211 81.1173 49.6611 81.528L49.1091 81.92C48.9544 81.68 48.7384 81.56 48.4611 81.56C48.2957 81.56 48.1624 81.6213 48.0611 81.744C47.9651 81.8667 47.9171 82.024 47.9171 82.216V82.68H47.1251V82.216C47.1251 82.0187 47.0691 81.8587 46.9571 81.736C46.8451 81.608 46.6984 81.544 46.5171 81.544C46.3357 81.544 46.1891 81.6027 46.0771 81.72C45.9651 81.8373 45.9091 82.0053 45.9091 82.224C45.9091 82.56 45.9571 82.9013 46.0531 83.248L46.1811 83.704C46.2291 83.864 46.2637 84.0507 46.2851 84.264H46.3411C46.4477 83.96 46.6211 83.7307 46.8611 83.576C47.1011 83.4213 47.3811 83.344 47.7011 83.344C48.1811 83.344 48.5517 83.4933 48.8131 83.792C49.0797 84.0853 49.2131 84.4667 49.2131 84.936C49.2131 85.4267 49.1171 85.9227 48.9251 86.424L47.8291 89.4H47.0051L45.2691 83.552ZM47.5251 88.632H47.5811L48.1891 86.192C48.3064 85.7333 48.3651 85.344 48.3651 85.024C48.3651 84.7147 48.2904 84.4667 48.1411 84.28C47.9917 84.088 47.7597 83.992 47.4451 83.992C47.1997 83.992 46.9917 84.072 46.8211 84.232C46.6557 84.3867 46.5731 84.608 46.5731 84.896C46.5731 85.0347 46.5917 85.176 46.6291 85.32L47.5251 88.632ZM51.9433 89.488C51.554 89.488 51.2206 89.408 50.9433 89.248C50.6713 89.088 50.4633 88.8667 50.3193 88.584C50.1806 88.3067 50.1113 87.9893 50.1113 87.632C50.1113 87.376 50.1486 87.128 50.2233 86.888L51.0393 86.92C50.9806 87.128 50.9513 87.3467 50.9513 87.576C50.9513 87.9867 51.0366 88.3013 51.2073 88.52C51.3833 88.7387 51.6313 88.848 51.9513 88.848C52.266 88.848 52.5086 88.7387 52.6793 88.52C52.85 88.3013 52.9353 87.992 52.9353 87.592V85.04C52.9353 84.64 52.85 84.352 52.6793 84.176C52.514 83.9947 52.2953 83.904 52.0233 83.904C51.762 83.904 51.5513 83.9893 51.3913 84.16C51.2366 84.3307 51.1593 84.5867 51.1593 84.928C51.1593 85.04 51.1753 85.192 51.2073 85.384L50.3673 85.408C50.33 85.2373 50.3113 85.0613 50.3113 84.88C50.3113 84.5493 50.3833 84.264 50.5273 84.024C50.6766 83.7787 50.8793 83.592 51.1353 83.464C51.3913 83.3307 51.682 83.264 52.0073 83.264C52.53 83.264 52.9486 83.4187 53.2633 83.728C53.5833 84.0373 53.7433 84.4693 53.7433 85.024V87.6C53.7433 88.1707 53.5886 88.6267 53.2793 88.968C52.97 89.3147 52.5246 89.488 51.9433 89.488ZM55.1447 87C54.8887 86.3333 54.7607 85.5467 54.7607 84.64C54.7607 83.776 54.9154 83.096 55.2247 82.6C55.534 82.0987 55.9047 81.7467 56.3367 81.544C56.7687 81.336 57.246 81.1893 57.7687 81.104L58.9767 80.912V81.656L57.7367 81.856C57.278 81.9253 56.886 82.0373 56.5607 82.192C56.2354 82.3413 55.9607 82.568 55.7367 82.872C55.518 83.176 55.3687 83.5787 55.2887 84.08H55.3287C55.462 83.792 55.6274 83.584 55.8247 83.456C56.022 83.328 56.2514 83.264 56.5127 83.264C56.774 83.264 57.0114 83.3413 57.2247 83.496C57.4434 83.6507 57.59 83.8907 57.6647 84.216H57.7127C57.8034 83.8907 57.9687 83.6507 58.2087 83.496C58.4487 83.3413 58.718 83.264 59.0167 83.264C59.31 83.264 59.574 83.3333 59.8087 83.472C60.0487 83.6107 60.238 83.824 60.3767 84.112C60.5207 84.4 60.5927 84.76 60.5927 85.192C60.5927 85.512 60.5607 85.8107 60.4967 86.088C60.4327 86.3653 60.3367 86.6693 60.2087 87H59.3927C59.5207 86.6907 59.614 86.3947 59.6727 86.112C59.7314 85.824 59.7634 85.528 59.7687 85.224C59.7634 84.7813 59.6807 84.4507 59.5207 84.232C59.3607 84.008 59.1527 83.896 58.8967 83.896C58.6514 83.896 58.4514 83.984 58.2967 84.16C58.1474 84.3307 58.0727 84.6053 58.0727 84.984V86.096H57.2727V84.984C57.2727 84.6053 57.198 84.3307 57.0487 84.16C56.9047 83.984 56.71 83.896 56.4647 83.896C56.2034 83.896 55.9927 84.0053 55.8327 84.224C55.6727 84.4427 55.5927 84.776 55.5927 85.224C55.5927 85.528 55.622 85.824 55.6807 86.112C55.7394 86.3947 55.8327 86.6907 55.9607 87H55.1447ZM61.8469 87C61.7242 86.68 61.6282 86.3787 61.5589 86.096C61.4949 85.8133 61.4629 85.52 61.4629 85.216C61.4629 84.8053 61.5402 84.4533 61.6949 84.16C61.8549 83.8667 62.0735 83.6453 62.3509 83.496C62.6282 83.3413 62.9455 83.264 63.3029 83.264C63.6655 83.264 63.9855 83.3413 64.2629 83.496C64.5455 83.6453 64.7642 83.8667 64.9189 84.16C65.0789 84.4533 65.1589 84.8053 65.1589 85.216C65.1589 85.52 65.1242 85.8133 65.0549 86.096C64.9909 86.3733 64.8949 86.6747 64.7669 87H63.9989C64.1109 86.6747 64.1935 86.376 64.2469 86.104C64.3002 85.832 64.3269 85.5467 64.3269 85.248C64.3269 84.8213 64.2362 84.4907 64.0549 84.256C63.8735 84.016 63.6229 83.896 63.3029 83.896C62.9829 83.896 62.7322 84.016 62.5509 84.256C62.3749 84.4907 62.2869 84.8213 62.2869 85.248C62.2869 85.5413 62.3135 85.8267 62.3669 86.104C62.4202 86.3813 62.5055 86.68 62.6229 87H61.8469ZM67.9088 87.088C67.5354 87.088 67.2101 87.0107 66.9328 86.856C66.6554 86.7013 66.4421 86.4853 66.2928 86.208C66.1488 85.9307 66.0768 85.6107 66.0768 85.248V81H66.8928V85.288C66.8928 85.6507 66.9861 85.936 67.1728 86.144C67.3594 86.3467 67.6021 86.448 67.9008 86.448C68.1941 86.448 68.4341 86.3493 68.6208 86.152C68.8074 85.9493 68.9008 85.6933 68.9008 85.384C68.9008 85.1973 68.8794 85.0373 68.8368 84.904C68.7941 84.7707 68.7301 84.616 68.6448 84.44C68.5541 84.2427 68.4848 84.0667 68.4368 83.912C68.3941 83.7573 68.3781 83.568 68.3888 83.344H69.2048C69.1994 83.5253 69.2181 83.6853 69.2608 83.824C69.3034 83.9573 69.3674 84.1093 69.4528 84.28C69.5488 84.4773 69.6208 84.6587 69.6688 84.824C69.7168 84.9893 69.7408 85.192 69.7408 85.432C69.7408 85.7307 69.6661 86.0053 69.5168 86.256C69.3728 86.5067 69.1621 86.7093 68.8848 86.864C68.6074 87.0133 68.2821 87.088 67.9088 87.088ZM74.5501 87.08C74.1715 87.08 73.8408 87 73.5581 86.84C73.2755 86.68 73.0595 86.456 72.9101 86.168C72.7608 85.88 72.6861 85.552 72.6861 85.184V81H73.5021L73.4941 83.304C73.4941 83.5333 73.4755 83.7413 73.4381 83.928H73.4941C73.6115 83.72 73.7768 83.56 73.9901 83.448C74.2035 83.3307 74.4461 83.2693 74.7181 83.264L75.2381 82.304L75.8861 82.504L75.2941 83.36C75.6355 83.4773 75.9048 83.6987 76.1021 84.024C76.3048 84.3493 76.4061 84.736 76.4061 85.184C76.4061 85.552 76.3315 85.88 76.1821 86.168C76.0328 86.456 75.8168 86.68 75.5341 86.84C75.2568 87 74.9288 87.08 74.5501 87.08ZM73.5021 85.28C73.5021 85.6267 73.5981 85.9067 73.7901 86.12C73.9821 86.3333 74.2328 86.44 74.5421 86.44C74.8461 86.44 75.0915 86.328 75.2781 86.104C75.4701 85.8747 75.5661 85.5653 75.5661 85.176C75.5661 84.776 75.4728 84.464 75.2861 84.24C75.1048 84.016 74.8568 83.904 74.5421 83.904C74.2328 83.904 73.9821 84.008 73.7901 84.216C73.5981 84.4187 73.5021 84.704 73.5021 85.072V85.28ZM79.3794 83.344C79.374 83.5147 79.4167 83.6613 79.5074 83.784C79.6034 83.9013 79.7474 84.0453 79.9394 84.216C80.1047 84.36 80.238 84.488 80.3394 84.6C80.446 84.7067 80.534 84.8453 80.6034 85.016C80.678 85.1813 80.7154 85.3787 80.7154 85.608C80.7154 85.9067 80.638 86.168 80.4834 86.392C80.3287 86.6107 80.118 86.7813 79.8514 86.904C79.5847 87.0213 79.2914 87.08 78.9714 87.08C78.646 87.08 78.35 87.0213 78.0834 86.904C77.822 86.7867 77.614 86.616 77.4594 86.392C77.31 86.168 77.2354 85.904 77.2354 85.6C77.2354 85.4613 77.254 85.336 77.2914 85.224L78.0914 85.256C78.0754 85.336 78.0674 85.4267 78.0674 85.528C78.0674 85.8107 78.15 86.0347 78.3154 86.2C78.4807 86.3653 78.6994 86.448 78.9714 86.448C79.2434 86.448 79.4647 86.3707 79.6354 86.216C79.806 86.0613 79.8914 85.8507 79.8914 85.584C79.8914 85.376 79.838 85.2053 79.7314 85.072C79.63 84.9333 79.4727 84.7787 79.2594 84.608C79.094 84.4693 78.9634 84.3493 78.8674 84.248C78.7714 84.1467 78.6914 84.0213 78.6274 83.872C78.5687 83.7227 78.5447 83.5467 78.5554 83.344H79.3794ZM83.3849 87.08C83.0063 87.08 82.6756 87 82.3929 86.84C82.1103 86.68 81.8943 86.456 81.7449 86.168C81.5956 85.88 81.5209 85.552 81.5209 85.184V82.464C81.5209 81.9893 81.6676 81.616 81.9609 81.344C82.2543 81.0667 82.6516 80.928 83.1529 80.928C83.3449 80.928 83.5476 80.9413 83.7609 80.968C84.0063 80.9893 84.1929 81 84.3209 81C84.5503 81 84.7449 80.9813 84.9049 80.944V81.656C84.7503 81.7147 84.5743 81.744 84.3769 81.744C84.2383 81.744 84.0409 81.7173 83.7849 81.664C83.7583 81.6587 83.6836 81.6453 83.5609 81.624C83.4436 81.6027 83.3263 81.592 83.2089 81.592C82.9369 81.592 82.7183 81.6667 82.5529 81.816C82.3929 81.9653 82.3156 82.184 82.3209 82.472L82.3369 83.304C82.3369 83.496 82.3183 83.704 82.2809 83.928H82.3369C82.4543 83.7147 82.6196 83.552 82.8329 83.44C83.0516 83.3227 83.2969 83.264 83.5689 83.264C83.8943 83.264 84.1823 83.3467 84.4329 83.512C84.6889 83.672 84.8863 83.8987 85.0249 84.192C85.1689 84.48 85.2409 84.8107 85.2409 85.184C85.2409 85.552 85.1663 85.88 85.0169 86.168C84.8676 86.456 84.6516 86.68 84.3689 86.84C84.0916 87 83.7636 87.08 83.3849 87.08ZM82.3369 85.28C82.3369 85.6267 82.4329 85.9067 82.6249 86.12C82.8169 86.3333 83.0676 86.44 83.3769 86.44C83.6809 86.44 83.9263 86.328 84.1129 86.104C84.3049 85.8747 84.4009 85.5653 84.4009 85.176C84.4009 84.776 84.3076 84.464 84.1209 84.24C83.9396 84.016 83.6916 83.904 83.3769 83.904C83.0676 83.904 82.8169 84.008 82.6249 84.216C82.4329 84.4187 82.3369 84.704 82.3369 85.072V85.28ZM87.8611 89.488C87.4771 89.488 87.1331 89.4027 86.8291 89.232C86.5305 89.0667 86.2958 88.8293 86.1251 88.52C85.9545 88.216 85.8691 87.864 85.8691 87.464C85.8691 87.096 85.9465 86.7627 86.1011 86.464C86.2558 86.16 86.4771 85.9173 86.7651 85.736C87.0531 85.5547 87.3918 85.456 87.7811 85.44C87.8611 85.4293 87.9545 85.4293 88.0611 85.44C88.2051 85.328 88.3198 85.208 88.4051 85.08C88.4958 84.9467 88.5411 84.792 88.5411 84.616C88.5411 84.3813 88.4745 84.2027 88.3411 84.08C88.2131 83.9573 88.0291 83.896 87.7891 83.896C87.5598 83.896 87.3758 83.9627 87.2371 84.096C87.0985 84.224 87.0238 84.4027 87.0131 84.632L86.1571 84.6C86.1838 84.2107 86.3438 83.8907 86.6371 83.64C86.9305 83.3893 87.3171 83.264 87.7971 83.264C88.1225 83.264 88.4051 83.32 88.6451 83.432C88.8851 83.544 89.0691 83.6987 89.1971 83.896C89.3251 84.088 89.3891 84.3067 89.3891 84.552C89.3891 84.776 89.3278 84.976 89.2051 85.152C89.0878 85.3227 88.9251 85.464 88.7171 85.576V85.632C89.0905 85.7813 89.3731 86.0187 89.5651 86.344C89.7571 86.664 89.8531 87.0347 89.8531 87.456C89.8531 87.856 89.7678 88.2107 89.5971 88.52C89.4265 88.8293 89.1891 89.0667 88.8851 89.232C88.5865 89.4027 88.2451 89.488 87.8611 89.488ZM86.7091 87.456C86.7091 87.888 86.8158 88.2267 87.0291 88.472C87.2425 88.7227 87.5198 88.848 87.8611 88.848C88.1971 88.848 88.4718 88.7227 88.6851 88.472C88.9038 88.2267 89.0131 87.888 89.0131 87.456C89.0131 87.0293 88.9038 86.6933 88.6851 86.448C88.4718 86.1973 88.1971 86.072 87.8611 86.072C87.5198 86.072 87.2425 86.1973 87.0291 86.448C86.8158 86.6933 86.7091 87.0293 86.7091 87.456ZM91.0041 87C90.7481 86.3333 90.6201 85.5467 90.6201 84.64C90.6201 83.776 90.7747 83.096 91.0841 82.6C91.3934 82.0987 91.7641 81.7467 92.1961 81.544C92.6281 81.336 93.1054 81.1893 93.6281 81.104L94.8361 80.912V81.656L93.5961 81.856C93.1374 81.9253 92.7454 82.0373 92.4201 82.192C92.0947 82.3413 91.8201 82.568 91.5961 82.872C91.3774 83.176 91.2281 83.5787 91.1481 84.08H91.1881C91.3214 83.792 91.4867 83.584 91.6841 83.456C91.8814 83.328 92.1107 83.264 92.3721 83.264C92.6334 83.264 92.8707 83.3413 93.0841 83.496C93.3027 83.6507 93.4494 83.8907 93.5241 84.216H93.5721C93.6627 83.8907 93.8281 83.6507 94.0681 83.496C94.3081 83.3413 94.5774 83.264 94.8761 83.264C95.1694 83.264 95.4334 83.3333 95.6681 83.472C95.9081 83.6107 96.0974 83.824 96.2361 84.112C96.3801 84.4 96.4521 84.76 96.4521 85.192C96.4521 85.512 96.4201 85.8107 96.3561 86.088C96.2921 86.3653 96.1961 86.6693 96.0681 87H95.2521C95.3801 86.6907 95.4734 86.3947 95.5321 86.112C95.5907 85.824 95.6227 85.528 95.6281 85.224C95.6227 84.7813 95.5401 84.4507 95.3801 84.232C95.2201 84.008 95.0121 83.896 94.7561 83.896C94.5107 83.896 94.3107 83.984 94.1561 84.16C94.0067 84.3307 93.9321 84.6053 93.9321 84.984V86.096H93.1321V84.984C93.1321 84.6053 93.0574 84.3307 92.9081 84.16C92.7641 83.984 92.5694 83.896 92.3241 83.896C92.0627 83.896 91.8521 84.0053 91.6921 84.224C91.5321 84.4427 91.4521 84.776 91.4521 85.224C91.4521 85.528 91.4814 85.824 91.5401 86.112C91.5987 86.3947 91.6921 86.6907 91.8201 87H91.0041ZM99.2183 87.08C98.8396 87.08 98.5089 87 98.2263 86.84C97.9489 86.68 97.7356 86.456 97.5863 86.168C97.4369 85.88 97.3623 85.552 97.3623 85.184C97.3623 84.8107 97.4316 84.48 97.5703 84.192C97.7143 83.8987 97.9116 83.672 98.1623 83.512C98.4183 83.3467 98.7089 83.264 99.0343 83.264C99.3116 83.264 99.5569 83.3227 99.7703 83.44C99.9889 83.5573 100.157 83.72 100.274 83.928H100.33C100.293 83.7413 100.274 83.5333 100.274 83.304L100.266 81H101.082V85.184C101.082 85.552 101.008 85.88 100.858 86.168C100.709 86.456 100.493 86.68 100.21 86.84C99.9276 87 99.5969 87.08 99.2183 87.08ZM98.2023 85.176C98.2023 85.5653 98.2956 85.8747 98.4823 86.104C98.6743 86.328 98.9223 86.44 99.2263 86.44C99.5356 86.44 99.7863 86.3333 99.9783 86.12C100.17 85.9067 100.266 85.6267 100.266 85.28V85.072C100.266 84.704 100.17 84.4187 99.9783 84.216C99.7863 84.008 99.5356 83.904 99.2263 83.904C98.9116 83.904 98.6609 84.016 98.4743 84.24C98.2929 84.464 98.2023 84.776 98.2023 85.176ZM102.544 86.04C102.693 86.04 102.818 86.0907 102.92 86.192C103.021 86.2933 103.072 86.416 103.072 86.56C103.072 86.7093 103.021 86.8347 102.92 86.936C102.818 87.032 102.693 87.08 102.544 87.08C102.405 87.08 102.285 87.0293 102.184 86.928C102.082 86.8267 102.032 86.704 102.032 86.56C102.032 86.416 102.082 86.2933 102.184 86.192C102.285 86.0907 102.405 86.04 102.544 86.04Z" fill="#557186"/>
<g filter="url(#filter2_d_949_40104)">
<rect x="106" y="2" width="20.4825" height="20.4825" rx="10.2412" fill="white" shape-rendering="crispEdges"/>
<rect x="106.427" y="2.42672" width="19.6291" height="19.6291" rx="9.81453" stroke="#F04438" stroke-opacity="0.3" stroke-width="0.853437" shape-rendering="crispEdges"/>
<path d="M120.509 7.97461L111.975 16.509" stroke="#F04438" stroke-width="1.28016" stroke-linecap="round" stroke-linejoin="round"/>
<path d="M111.975 7.97461L120.509 16.509" stroke="#F04438" stroke-width="1.28016" stroke-linecap="round" stroke-linejoin="round"/>
</g>
<defs>
<filter id="filter0_bd_949_40104" x="1.65694" y="5.01762" width="123.887" height="106.061" filterUnits="userSpaceOnUse" color-interpolation-filters="sRGB">
<feFlood flood-opacity="0" result="BackgroundImageFix"/>
<feGaussianBlur in="BackgroundImageFix" stdDeviation="2.25764"/>
<feComposite in2="SourceAlpha" operator="in" result="effect1_backgroundBlur_949_40104"/>
<feColorMatrix in="SourceAlpha" type="matrix" values="0 0 0 0 0 0 0 0 0 0 0 0 0 0 0 0 0 0 127 0" result="hardAlpha"/>
<feOffset dy="1.80611"/>
<feGaussianBlur stdDeviation="4.51528"/>
<feComposite in2="hardAlpha" operator="out"/>
<feColorMatrix type="matrix" values="0 0 0 0 0.427451 0 0 0 0 0.509804 0 0 0 0 0.698039 0 0 0 0.3 0"/>
<feBlend mode="normal" in2="effect1_backgroundBlur_949_40104" result="effect2_dropShadow_949_40104"/>
<feBlend mode="normal" in="SourceGraphic" in2="effect2_dropShadow_949_40104" result="shape"/>
</filter>
<filter id="filter1_dd_949_40104" x="0.446394" y="12.0016" width="126.309" height="81.93" filterUnits="userSpaceOnUse" color-interpolation-filters="sRGB">
<feFlood flood-opacity="0" result="BackgroundImageFix"/>
<feColorMatrix in="SourceAlpha" type="matrix" values="0 0 0 0 0 0 0 0 0 0 0 0 0 0 0 0 0 0 127 0" result="hardAlpha"/>
<feMorphology radius="3.41375" operator="erode" in="SourceAlpha" result="effect1_dropShadow_949_40104"/>
<feOffset dy="6.8275"/>
<feGaussianBlur stdDeviation="3.41375"/>
<feComposite in2="hardAlpha" operator="out"/>
<feColorMatrix type="matrix" values="0 0 0 0 0.0627451 0 0 0 0 0.0941176 0 0 0 0 0.156863 0 0 0 0.03 0"/>
<feBlend mode="normal" in2="BackgroundImageFix" result="effect1_dropShadow_949_40104"/>
<feColorMatrix in="SourceAlpha" type="matrix" values="0 0 0 0 0 0 0 0 0 0 0 0 0 0 0 0 0 0 127 0" result="hardAlpha"/>
<feMorphology radius="3.41375" operator="erode" in="SourceAlpha" result="effect2_dropShadow_949_40104"/>
<feOffset dy="10"/>
<feGaussianBlur stdDeviation="10.2412"/>
<feComposite in2="hardAlpha" operator="out"/>
<feColorMatrix type="matrix" values="0 0 0 0 0.0627451 0 0 0 0 0.0941176 0 0 0 0 0.156863 0 0 0 0.08 0"/>
<feBlend mode="normal" in2="effect1_dropShadow_949_40104" result="effect2_dropShadow_949_40104"/>
<feBlend mode="normal" in="SourceGraphic" in2="effect2_dropShadow_949_40104" result="shape"/>
</filter>
<filter id="filter2_d_949_40104" x="102.586" y="0.293126" width="27.31" height="27.31" filterUnits="userSpaceOnUse" color-interpolation-filters="sRGB">
<feFlood flood-opacity="0" result="BackgroundImageFix"/>
<feColorMatrix in="SourceAlpha" type="matrix" values="0 0 0 0 0 0 0 0 0 0 0 0 0 0 0 0 0 0 127 0" result="hardAlpha"/>
<feOffset dy="1.70687"/>
<feGaussianBlur stdDeviation="1.70687"/>
<feComposite in2="hardAlpha" operator="out"/>
<feColorMatrix type="matrix" values="0 0 0 0 0 0 0 0 0 0 0 0 0 0 0 0 0 0 0.1 0"/>
<feBlend mode="normal" in2="BackgroundImageFix" result="effect1_dropShadow_949_40104"/>
<feBlend mode="normal" in="SourceGraphic" in2="effect1_dropShadow_949_40104" result="shape"/>
</filter>
<clipPath id="clip0_949_40104">
<rect width="11.9481" height="11.9481" fill="white" transform="translate(41.4111 36.9934)"/>
</clipPath>
</defs>
</svg>
