<svg width="129" height="112" viewBox="0 0 129 112" fill="none" xmlns="http://www.w3.org/2000/svg">
<g filter="url(#filter0_bd_949_40113)">
<rect x="10.4358" y="12.2422" width="105.826" height="88" rx="10.2412" fill="#F3F6FD"/>
<rect x="10.8873" y="12.6937" width="104.923" height="87.0969" rx="9.78972" stroke="white" stroke-width="0.903056"/>
</g>
<g filter="url(#filter1_dd_949_40113)">
<rect x="17.2632" y="19.0703" width="92.1712" height="47.7925" rx="6.8275" fill="white" shape-rendering="crispEdges"/>
<path d="M42.8662 33.5537H83.8312C86.4236 33.5537 88.5251 35.6552 88.5251 38.2476V47.6873C88.5251 50.2796 86.4236 52.3812 83.8312 52.3812H42.8662C40.2739 52.3812 38.1723 50.2796 38.1723 47.6873V38.2476C38.1723 35.6552 40.2739 33.5537 42.8662 33.5537Z" fill="#EFF4FF"/>
<path d="M42.8662 33.5537H83.8312C86.4236 33.5537 88.5251 35.6552 88.5251 38.2476V47.6873C88.5251 50.2796 86.4236 52.3812 83.8312 52.3812H42.8662C40.2739 52.3812 38.1723 50.2796 38.1723 47.6873V38.2476C38.1723 35.6552 40.2739 33.5537 42.8662 33.5537Z" stroke="#528BFF" stroke-width="0.853437"/>
<g clip-path="url(#clip0_949_40113)">
<path d="M52.509 43.4904C52.3464 45.0192 51.4806 46.4518 50.0482 47.2793C47.6682 48.6542 44.625 47.8383 43.2509 45.4569L43.1045 45.2032M42.6115 42.4444C42.7741 40.9156 43.6398 39.483 45.0723 38.6555C47.4522 37.2806 50.4955 38.0965 51.8696 40.4779L52.0159 40.7315M42.5804 46.5206L43.009 44.9203L44.6083 45.3491M50.5121 40.5857L52.1115 41.0145L52.54 39.4142M47.5603 40.3315V42.9674L49.0238 43.846" stroke="#528BFF" stroke-width="0.853437"/>
</g>
<path d="M59.819 38.6416C60.3721 38.6416 60.8534 38.7952 61.2631 39.1024C61.6727 39.4028 61.9868 39.8466 62.2053 40.4338C62.4306 41.021 62.5432 41.731 62.5432 42.564C62.5432 43.3901 62.4306 44.1002 62.2053 44.6941C61.9868 45.2813 61.6727 45.7285 61.2631 46.0358C60.8534 46.3362 60.3721 46.4864 59.819 46.4864C59.266 46.4864 58.7813 46.3362 58.3648 46.0358C57.9551 45.7285 57.6377 45.2813 57.4124 44.6941C57.1939 44.1002 57.0846 43.3901 57.0846 42.564C57.0846 41.731 57.1939 41.021 57.4124 40.4338C57.6377 39.8466 57.9551 39.4028 58.3648 39.1024C58.7813 38.7952 59.266 38.6416 59.819 38.6416ZM57.9347 42.564C57.9347 43.6017 58.0951 44.3937 58.416 44.9399C58.7369 45.4793 59.2012 45.749 59.8088 45.749C60.4233 45.749 60.891 45.4793 61.2119 44.9399C61.5396 44.3937 61.7034 43.6017 61.7034 42.564C61.7034 41.5194 61.5396 40.7274 61.2119 40.188C60.891 39.6486 60.4233 39.3789 59.8088 39.3789C59.2012 39.3789 58.7369 39.652 58.416 40.1982C58.0951 40.7376 57.9347 41.5262 57.9347 42.564ZM66.3998 38.6416C66.9529 38.6416 67.4342 38.7952 67.8439 39.1024C68.2535 39.4028 68.5676 39.8466 68.7861 40.4338C69.0114 41.021 69.124 41.731 69.124 42.564C69.124 43.3901 69.0114 44.1002 68.7861 44.6941C68.5676 45.2813 68.2535 45.7285 67.8439 46.0358C67.4342 46.3362 66.9529 46.4864 66.3998 46.4864C65.8468 46.4864 65.3621 46.3362 64.9456 46.0358C64.5359 45.7285 64.2185 45.2813 63.9932 44.6941C63.7747 44.1002 63.6654 43.3901 63.6654 42.564C63.6654 41.731 63.7747 41.021 63.9932 40.4338C64.2185 39.8466 64.5359 39.4028 64.9456 39.1024C65.3621 38.7952 65.8468 38.6416 66.3998 38.6416ZM64.5155 42.564C64.5155 43.6017 64.6759 44.3937 64.9968 44.9399C65.3177 45.4793 65.782 45.749 66.3896 45.749C67.0041 45.749 67.4718 45.4793 67.7927 44.9399C68.1204 44.3937 68.2842 43.6017 68.2842 42.564C68.2842 41.5194 68.1204 40.7274 67.7927 40.188C67.4718 39.6486 67.0041 39.3789 66.3896 39.3789C65.782 39.3789 65.3177 39.652 64.9968 40.1982C64.6759 40.7376 64.5155 41.5262 64.5155 42.564ZM70.6559 41.0892C70.8129 41.0892 70.946 41.1439 71.0553 41.2531C71.1645 41.3623 71.2191 41.4955 71.2191 41.6525C71.2191 41.8095 71.1645 41.9427 71.0553 42.0519C70.946 42.1611 70.8129 42.2158 70.6559 42.2158C70.5057 42.2158 70.376 42.1611 70.2667 42.0519C70.1643 41.9427 70.1131 41.8095 70.1131 41.6525C70.1131 41.4955 70.1643 41.3623 70.2667 41.2531C70.376 41.1439 70.5057 41.0892 70.6559 41.0892ZM70.1131 45.9333C70.1131 45.7763 70.1643 45.6466 70.2667 45.5442C70.3691 45.4349 70.4988 45.3803 70.6559 45.3803C70.8129 45.3803 70.946 45.4349 71.0553 45.5442C71.1645 45.6466 71.2191 45.7763 71.2191 45.9333C71.2191 46.0904 71.1645 46.2235 71.0553 46.3327C70.946 46.4352 70.8129 46.4864 70.6559 46.4864C70.4988 46.4864 70.3691 46.4352 70.2667 46.3327C70.1643 46.2235 70.1131 46.0904 70.1131 45.9333ZM75.0309 38.6416C75.5839 38.6416 76.0653 38.7952 76.4749 39.1024C76.8846 39.4028 77.1986 39.8466 77.4171 40.4338C77.6424 41.021 77.7551 41.731 77.7551 42.564C77.7551 43.3901 77.6424 44.1002 77.4171 44.6941C77.1986 45.2813 76.8846 45.7285 76.4749 46.0358C76.0653 46.3362 75.5839 46.4864 75.0309 46.4864C74.4779 46.4864 73.9931 46.3362 73.5766 46.0358C73.167 45.7285 72.8495 45.2813 72.6242 44.6941C72.4057 44.1002 72.2965 43.3901 72.2965 42.564C72.2965 41.731 72.4057 41.021 72.6242 40.4338C72.8495 39.8466 73.167 39.4028 73.5766 39.1024C73.9931 38.7952 74.4779 38.6416 75.0309 38.6416ZM73.1465 42.564C73.1465 43.6017 73.3069 44.3937 73.6278 44.9399C73.9487 45.4793 74.413 45.749 75.0207 45.749C75.6351 45.749 76.1028 45.4793 76.4237 44.9399C76.7514 44.3937 76.9153 43.6017 76.9153 42.564C76.9153 41.5194 76.7514 40.7274 76.4237 40.188C76.1028 39.6486 75.6351 39.3789 75.0207 39.3789C74.413 39.3789 73.9487 39.652 73.6278 40.1982C73.3069 40.7376 73.1465 41.5262 73.1465 42.564ZM81.6117 38.6416C82.1647 38.6416 82.6461 38.7952 83.0557 39.1024C83.4654 39.4028 83.7794 39.8466 83.9979 40.4338C84.2232 41.021 84.3359 41.731 84.3359 42.564C84.3359 43.3901 84.2232 44.1002 83.9979 44.6941C83.7794 45.2813 83.4654 45.7285 83.0557 46.0358C82.6461 46.3362 82.1647 46.4864 81.6117 46.4864C81.0587 46.4864 80.5739 46.3362 80.1574 46.0358C79.7478 45.7285 79.4303 45.2813 79.205 44.6941C78.9865 44.1002 78.8773 43.3901 78.8773 42.564C78.8773 41.731 78.9865 41.021 79.205 40.4338C79.4303 39.8466 79.7478 39.4028 80.1574 39.1024C80.5739 38.7952 81.0587 38.6416 81.6117 38.6416ZM79.7273 42.564C79.7273 43.6017 79.8878 44.3937 80.2086 44.9399C80.5295 45.4793 80.9938 45.749 81.6015 45.749C82.2159 45.749 82.6836 45.4793 83.0045 44.9399C83.3322 44.3937 83.4961 43.6017 83.4961 42.564C83.4961 41.5194 83.3322 40.7274 83.0045 40.188C82.6836 39.6486 82.2159 39.3789 81.6015 39.3789C80.9938 39.3789 80.5295 39.652 80.2086 40.1982C79.8878 40.7376 79.7273 41.5262 79.7273 42.564Z" fill="#528BFF"/>
</g>
<g filter="url(#filter2_d_949_40113)">
<rect x="105" y="2" width="20.4825" height="20.4825" rx="10.2412" fill="white" shape-rendering="crispEdges"/>
<rect x="105.427" y="2.42672" width="19.6291" height="19.6291" rx="9.81453" stroke="#F04438" stroke-opacity="0.3" stroke-width="0.853437" shape-rendering="crispEdges"/>
<path d="M119.509 7.97446L110.974 16.5088" stroke="#F04438" stroke-width="1.28016" stroke-linecap="round" stroke-linejoin="round"/>
<path d="M110.974 7.97446L119.509 16.5088" stroke="#F04438" stroke-width="1.28016" stroke-linecap="round" stroke-linejoin="round"/>
</g>
<path d="M24.472 89.432C24.408 89.1067 24.2293 88.848 23.936 88.656C23.6427 88.4693 23.296 88.376 22.896 88.376H22.752C22.5387 88.376 22.3333 88.3947 22.136 88.432C21.9387 88.4747 21.7307 88.544 21.512 88.64L21.264 88.12C21.536 87.9973 21.9013 87.9253 22.36 87.904V87.856C21.7787 87.7173 21.3147 87.4267 20.968 86.984C20.6267 86.536 20.456 85.9787 20.456 85.312C20.456 84.8533 20.5333 84.472 20.688 84.168C20.8427 83.8587 21.048 83.632 21.304 83.488C21.56 83.3387 21.84 83.264 22.144 83.264C22.6027 83.264 22.984 83.4613 23.288 83.856H23.344C23.4933 83.6693 23.6827 83.5253 23.912 83.424C24.1467 83.3173 24.408 83.264 24.696 83.264C25.032 83.264 25.3333 83.3387 25.6 83.488C25.872 83.6373 26.0853 83.8507 26.24 84.128C26.3947 84.4 26.472 84.72 26.472 85.088C26.472 85.44 26.3947 85.7547 26.24 86.032C26.0853 86.3093 25.8693 86.5253 25.592 86.68C25.32 86.8347 25.0133 86.912 24.672 86.912C24.3307 86.912 24.0213 86.8347 23.744 86.68C23.472 86.5253 23.2587 86.3093 23.104 86.032C22.9493 85.7547 22.872 85.44 22.872 85.088C22.872 84.7627 22.9307 84.4827 23.048 84.248C22.824 84.024 22.5707 83.912 22.288 83.912C21.9893 83.912 21.7467 84.024 21.56 84.248C21.3787 84.472 21.288 84.824 21.288 85.304C21.288 85.96 21.4613 86.4773 21.808 86.856C22.16 87.2347 22.6427 87.496 23.256 87.64L23.536 87.712C24.032 87.8347 24.432 88.04 24.736 88.328C25.0453 88.6213 25.2267 88.9787 25.28 89.4L24.472 89.432ZM23.696 85.088C23.696 85.4453 23.7867 85.736 23.968 85.96C24.1493 86.1787 24.384 86.288 24.672 86.288C24.9653 86.288 25.2 86.1787 25.376 85.96C25.5573 85.736 25.648 85.4453 25.648 85.088C25.648 84.704 25.56 84.408 25.384 84.2C25.208 83.9867 24.9707 83.88 24.672 83.88C24.3787 83.88 24.1413 83.9867 23.96 84.2C23.784 84.4133 23.696 84.7093 23.696 85.088ZM29.4263 83.344C29.4209 83.5147 29.4636 83.6613 29.5543 83.784C29.6503 83.9013 29.7943 84.0453 29.9863 84.216C30.1516 84.36 30.2849 84.488 30.3863 84.6C30.4929 84.7067 30.5809 84.8453 30.6503 85.016C30.7249 85.1813 30.7623 85.3787 30.7623 85.608C30.7623 85.9067 30.6849 86.168 30.5303 86.392C30.3756 86.6107 30.1649 86.7813 29.8983 86.904C29.6316 87.0213 29.3383 87.08 29.0182 87.08C28.6929 87.08 28.3969 87.0213 28.1303 86.904C27.8689 86.7867 27.6609 86.616 27.5063 86.392C27.3569 86.168 27.2823 85.904 27.2823 85.6C27.2823 85.4613 27.3009 85.336 27.3383 85.224L28.1383 85.256C28.1223 85.336 28.1143 85.4267 28.1143 85.528C28.1143 85.8107 28.1969 86.0347 28.3623 86.2C28.5276 86.3653 28.7463 86.448 29.0182 86.448C29.2903 86.448 29.5116 86.3707 29.6823 86.216C29.8529 86.0613 29.9383 85.8507 29.9383 85.584C29.9383 85.376 29.8849 85.2053 29.7783 85.072C29.6769 84.9333 29.5196 84.7787 29.3063 84.608C29.1409 84.4693 29.0103 84.3493 28.9143 84.248C28.8183 84.1467 28.7383 84.0213 28.6743 83.872C28.6156 83.7227 28.5916 83.5467 28.6023 83.344H29.4263ZM33.4526 87.08C33.074 87.08 32.7433 87 32.4606 86.84C32.1833 86.68 31.97 86.456 31.8206 86.168C31.6713 85.88 31.5966 85.552 31.5966 85.184C31.5966 84.8107 31.666 84.48 31.8046 84.192C31.9486 83.8987 32.146 83.672 32.3966 83.512C32.6526 83.3467 32.9433 83.264 33.2686 83.264C33.5406 83.264 33.7833 83.3227 33.9966 83.44C34.2153 83.5573 34.3833 83.72 34.5006 83.928H34.5566C34.5193 83.704 34.5006 83.496 34.5006 83.304L34.5166 82.624C34.522 82.272 34.426 82.0053 34.2286 81.824C34.0313 81.6427 33.778 81.552 33.4686 81.552C33.17 81.552 32.9273 81.6347 32.7406 81.8C32.5593 81.9653 32.4633 82.1653 32.4526 82.4L31.6206 82.376C31.626 82.1093 31.7086 81.864 31.8686 81.64C32.0286 81.416 32.2473 81.24 32.5246 81.112C32.8073 80.9787 33.1193 80.912 33.4606 80.912C33.8126 80.912 34.13 80.984 34.4126 81.128C34.6953 81.2667 34.9166 81.4667 35.0766 81.728C35.2366 81.9893 35.3166 82.288 35.3166 82.624V85.184C35.3166 85.552 35.242 85.88 35.0926 86.168C34.9433 86.456 34.7273 86.68 34.4446 86.84C34.162 87 33.8313 87.08 33.4526 87.08ZM32.4366 85.176C32.4366 85.5653 32.53 85.8747 32.7166 86.104C32.9086 86.328 33.1566 86.44 33.4606 86.44C33.77 86.44 34.0206 86.3333 34.2126 86.12C34.4046 85.9067 34.5006 85.6267 34.5006 85.28V85.072C34.5006 84.704 34.4046 84.4187 34.2126 84.216C34.0206 84.008 33.77 83.904 33.4606 83.904C33.146 83.904 32.8953 84.016 32.7086 84.24C32.5273 84.464 32.4366 84.776 32.4366 85.176ZM38.547 89.488C38.1363 89.488 37.7843 89.4053 37.491 89.24C37.1977 89.0747 36.9737 88.8507 36.819 88.568C36.6697 88.2907 36.595 87.9787 36.595 87.632C36.595 87.3707 36.635 87.1227 36.715 86.888L37.523 86.92C37.4643 87.1653 37.435 87.384 37.435 87.576C37.435 87.96 37.531 88.2667 37.723 88.496C37.9203 88.7307 38.1923 88.848 38.539 88.848C38.8697 88.848 39.1337 88.728 39.331 88.488C39.5337 88.248 39.635 87.9307 39.635 87.536V84.664C39.635 84.4187 39.571 84.232 39.443 84.104C39.3203 83.976 39.1577 83.912 38.955 83.912C38.7523 83.912 38.587 83.976 38.459 84.104C38.3363 84.232 38.275 84.4187 38.275 84.664V85.688H37.483V84.64C37.483 84.432 37.4297 84.2747 37.323 84.168C37.2217 84.056 37.075 84 36.883 84C36.835 84 36.763 84.0053 36.667 84.016C36.587 84.032 36.507 84.04 36.427 84.04C36.331 84.04 36.2457 84.0267 36.171 84V83.304C36.251 83.3307 36.3417 83.344 36.443 83.344C36.5017 83.344 36.5843 83.3387 36.691 83.328C36.771 83.312 36.8563 83.304 36.947 83.304C37.1763 83.304 37.371 83.3573 37.531 83.464C37.6963 83.5707 37.819 83.7653 37.899 84.048H37.955C38.0297 83.7707 38.1763 83.5707 38.395 83.448C38.6137 83.3253 38.851 83.264 39.107 83.264C39.5123 83.264 39.835 83.392 40.075 83.648C40.3203 83.904 40.443 84.232 40.443 84.632V87.544C40.443 88.1253 40.283 88.5947 39.963 88.952C39.643 89.3093 39.171 89.488 38.547 89.488ZM43.2936 87.08C42.9203 87.08 42.5923 87 42.3096 86.84C42.0323 86.68 41.819 86.4587 41.6696 86.176C41.5203 85.8933 41.4456 85.5733 41.4456 85.216C41.4456 84.8587 41.515 84.5387 41.6536 84.256C41.7976 83.9733 41.995 83.752 42.2456 83.592C42.5016 83.432 42.7923 83.352 43.1176 83.352C43.3896 83.352 43.6323 83.4107 43.8456 83.528C44.0643 83.6453 44.2323 83.808 44.3496 84.016H44.4056C44.3736 83.808 44.3576 83.6 44.3576 83.392L44.3656 82.248C44.3656 82.024 44.307 81.8507 44.1896 81.728C44.0776 81.6053 43.931 81.544 43.7496 81.544C43.5683 81.544 43.4216 81.608 43.3096 81.736C43.1976 81.8587 43.1416 82.0187 43.1416 82.216V82.68H42.3496V82.216C42.3496 82.024 42.299 81.8667 42.1976 81.744C42.1016 81.6213 41.971 81.56 41.8056 81.56C41.5336 81.56 41.3203 81.68 41.1656 81.92L40.6296 81.544C40.7576 81.3413 40.9203 81.1867 41.1176 81.08C41.315 80.968 41.5336 80.912 41.7736 80.912C42.003 80.912 42.2083 80.976 42.3896 81.104C42.571 81.232 42.6963 81.416 42.7656 81.656H42.8216C42.8963 81.416 43.0323 81.232 43.2296 81.104C43.427 80.976 43.659 80.912 43.9256 80.912C44.299 80.912 44.5976 81.0293 44.8216 81.264C45.051 81.4933 45.1656 81.7947 45.1656 82.168V85.224C45.1656 85.5813 45.0883 85.9013 44.9336 86.184C44.7843 86.4613 44.5683 86.68 44.2856 86.84C44.003 87 43.6723 87.08 43.2936 87.08ZM42.2776 85.224C42.2776 85.592 42.3736 85.888 42.5656 86.112C42.7576 86.3307 43.003 86.44 43.3016 86.44C43.611 86.44 43.8616 86.336 44.0536 86.128C44.2456 85.92 44.3416 85.6533 44.3416 85.328V85.12C44.3416 84.768 44.2456 84.4933 44.0536 84.296C43.8616 84.0933 43.611 83.992 43.3016 83.992C42.9923 83.992 42.7443 84.104 42.5576 84.328C42.371 84.5467 42.2776 84.8453 42.2776 85.224ZM48.1138 83.344C48.1084 83.5147 48.1511 83.6613 48.2418 83.784C48.3378 83.9013 48.4818 84.0453 48.6738 84.216C48.8391 84.36 48.9724 84.488 49.0738 84.6C49.1804 84.7067 49.2684 84.8453 49.3378 85.016C49.4124 85.1813 49.4498 85.3787 49.4498 85.608C49.4498 85.9067 49.3724 86.168 49.2178 86.392C49.0631 86.6107 48.8524 86.7813 48.5858 86.904C48.3191 87.0213 48.0258 87.08 47.7057 87.08C47.3804 87.08 47.0844 87.0213 46.8178 86.904C46.5564 86.7867 46.3484 86.616 46.1938 86.392C46.0444 86.168 45.9698 85.904 45.9698 85.6C45.9698 85.4613 45.9884 85.336 46.0258 85.224L46.8258 85.256C46.8098 85.336 46.8018 85.4267 46.8018 85.528C46.8018 85.8107 46.8844 86.0347 47.0498 86.2C47.2151 86.3653 47.4338 86.448 47.7057 86.448C47.9778 86.448 48.1991 86.3707 48.3698 86.216C48.5404 86.0613 48.6258 85.8507 48.6258 85.584C48.6258 85.376 48.5724 85.2053 48.4658 85.072C48.3644 84.9333 48.2071 84.7787 47.9938 84.608C47.8284 84.4693 47.6978 84.3493 47.6018 84.248C47.5058 84.1467 47.4258 84.0213 47.3618 83.872C47.3031 83.7227 47.2791 83.5467 47.2898 83.344H48.1138ZM52.0073 89.488C51.618 89.488 51.2793 89.408 50.9913 89.248C50.7033 89.0933 50.4846 88.88 50.3353 88.608C50.186 88.3413 50.1113 88.0427 50.1113 87.712C50.1113 87.5307 50.1326 87.3573 50.1753 87.192L50.9753 87.232C50.9486 87.3653 50.9353 87.4987 50.9353 87.632C50.9353 88.0053 51.0313 88.2987 51.2233 88.512C51.4153 88.7307 51.6766 88.84 52.0073 88.84C52.338 88.84 52.5966 88.7333 52.7833 88.52C52.9753 88.312 53.0713 88.0267 53.0713 87.664C53.0713 87.3067 52.978 87.0293 52.7913 86.832C52.6046 86.6347 52.338 86.536 51.9913 86.536H51.8073V85.872H51.9993C52.33 85.872 52.578 85.7867 52.7433 85.616C52.914 85.44 52.9993 85.2 52.9993 84.896C52.9993 84.6133 52.9086 84.384 52.7273 84.208C52.5513 84.0267 52.3193 83.936 52.0313 83.936C51.754 83.936 51.5273 84.024 51.3513 84.2C51.1806 84.3707 51.0953 84.6027 51.0953 84.896C51.0953 84.976 51.1033 85.064 51.1193 85.16L50.2873 85.184C50.266 85.056 50.2553 84.944 50.2553 84.848C50.2553 84.5387 50.3326 84.264 50.4873 84.024C50.642 83.784 50.8553 83.5973 51.1273 83.464C51.3993 83.3307 51.7006 83.264 52.0313 83.264C52.3673 83.264 52.6713 83.3333 52.9433 83.472C53.2206 83.6107 53.4366 83.8 53.5913 84.04C53.7513 84.28 53.8313 84.552 53.8313 84.856C53.8313 85.1867 53.7433 85.4667 53.5673 85.696C53.3966 85.9253 53.138 86.0853 52.7913 86.176V86.232C53.1486 86.3013 53.4233 86.472 53.6153 86.744C53.8126 87.0107 53.9113 87.3387 53.9113 87.728C53.9113 88.048 53.834 88.3413 53.6793 88.608C53.53 88.88 53.3113 89.0933 53.0233 89.248C52.7353 89.408 52.3966 89.488 52.0073 89.488ZM56.5683 89.488C56.179 89.488 55.8456 89.408 55.5683 89.248C55.2963 89.088 55.0883 88.8667 54.9443 88.584C54.8056 88.3067 54.7363 87.9893 54.7363 87.632C54.7363 87.376 54.7736 87.128 54.8483 86.888L55.6643 86.92C55.6056 87.128 55.5763 87.3467 55.5763 87.576C55.5763 87.9867 55.6616 88.3013 55.8323 88.52C56.0083 88.7387 56.2563 88.848 56.5763 88.848C56.891 88.848 57.1336 88.7387 57.3043 88.52C57.475 88.3013 57.5603 87.992 57.5603 87.592V85.04C57.5603 84.64 57.475 84.352 57.3043 84.176C57.139 83.9947 56.9203 83.904 56.6483 83.904C56.387 83.904 56.1763 83.9893 56.0163 84.16C55.8616 84.3307 55.7843 84.5867 55.7843 84.928C55.7843 85.04 55.8003 85.192 55.8323 85.384L54.9923 85.408C54.955 85.2373 54.9363 85.0613 54.9363 84.88C54.9363 84.5493 55.0083 84.264 55.1523 84.024C55.3016 83.7787 55.5043 83.592 55.7603 83.464C56.0163 83.3307 56.307 83.264 56.6323 83.264C57.155 83.264 57.5736 83.4187 57.8883 83.728C58.2083 84.0373 58.3683 84.4693 58.3683 85.024V87.6C58.3683 88.1707 58.2136 88.6267 57.9043 88.968C57.595 89.3147 57.1496 89.488 56.5683 89.488ZM61.235 87.08C60.8723 87.08 60.547 87.0027 60.259 86.848C59.971 86.688 59.7443 86.464 59.579 86.176C59.4137 85.888 59.331 85.5547 59.331 85.176C59.331 84.664 59.4777 84.2373 59.771 83.896C60.0697 83.5547 60.4537 83.352 60.923 83.288V82.656C60.923 82.512 60.8857 82.4 60.811 82.32C60.7363 82.24 60.619 82.152 60.459 82.056C60.315 81.9707 60.2003 81.8933 60.115 81.824C60.0297 81.7493 59.9577 81.6453 59.899 81.512C59.8457 81.3787 59.8217 81.208 59.827 81H60.635C60.6297 81.176 60.6697 81.3147 60.755 81.416C60.8457 81.512 60.979 81.6107 61.155 81.712C61.347 81.824 61.491 81.936 61.587 82.048C61.683 82.16 61.731 82.32 61.731 82.528V83.32C62.1523 83.4213 62.491 83.6373 62.747 83.968C63.0083 84.2933 63.139 84.696 63.139 85.176C63.139 85.5547 63.0563 85.888 62.891 86.176C62.7257 86.464 62.4963 86.688 62.203 86.848C61.915 87.0027 61.5923 87.08 61.235 87.08ZM60.171 85.176C60.171 85.5707 60.267 85.88 60.459 86.104C60.6563 86.328 60.915 86.44 61.235 86.44C61.5497 86.44 61.8057 86.328 62.003 86.104C62.2003 85.88 62.299 85.5707 62.299 85.176C62.299 84.7813 62.2003 84.472 62.003 84.248C61.8057 84.0187 61.5497 83.904 61.235 83.904C60.915 83.904 60.6563 84.0187 60.459 84.248C60.267 84.472 60.171 84.7813 60.171 85.176ZM64.3859 87C64.2633 86.68 64.1673 86.3787 64.0979 86.096C64.0339 85.8133 64.0019 85.52 64.0019 85.216C64.0019 84.8053 64.0793 84.4533 64.2339 84.16C64.3939 83.8667 64.6126 83.6453 64.8899 83.496C65.1673 83.3413 65.4846 83.264 65.8419 83.264C66.2046 83.264 66.5246 83.3413 66.8019 83.496C67.0846 83.6453 67.3033 83.8667 67.4579 84.16C67.6179 84.4533 67.6979 84.8053 67.6979 85.216C67.6979 85.52 67.6633 85.8133 67.5939 86.096C67.5299 86.3733 67.4339 86.6747 67.3059 87H66.5379C66.6499 86.6747 66.7326 86.376 66.7859 86.104C66.8393 85.832 66.8659 85.5467 66.8659 85.248C66.8659 84.8213 66.7753 84.4907 66.5939 84.256C66.4126 84.016 66.1619 83.896 65.8419 83.896C65.5219 83.896 65.2713 84.016 65.0899 84.256C64.9139 84.4907 64.8259 84.8213 64.8259 85.248C64.8259 85.5413 64.8526 85.8267 64.9059 86.104C64.9593 86.3813 65.0446 86.68 65.1619 87H64.3859ZM70.4478 87.088C70.0745 87.088 69.7491 87.0107 69.4718 86.856C69.1945 86.7013 68.9811 86.4853 68.8318 86.208C68.6878 85.9307 68.6158 85.6107 68.6158 85.248V81H69.4318V85.288C69.4318 85.6507 69.5251 85.936 69.7118 86.144C69.8985 86.3467 70.1411 86.448 70.4398 86.448C70.7331 86.448 70.9731 86.3493 71.1598 86.152C71.3465 85.9493 71.4398 85.6933 71.4398 85.384C71.4398 85.1973 71.4185 85.0373 71.3758 84.904C71.3331 84.7707 71.2691 84.616 71.1838 84.44C71.0931 84.2427 71.0238 84.0667 70.9758 83.912C70.9331 83.7573 70.9171 83.568 70.9278 83.344H71.7438C71.7385 83.5253 71.7571 83.6853 71.7998 83.824C71.8425 83.9573 71.9065 84.1093 71.9918 84.28C72.0878 84.4773 72.1598 84.6587 72.2078 84.824C72.2558 84.9893 72.2798 85.192 72.2798 85.432C72.2798 85.7307 72.2051 86.0053 72.0558 86.256C71.9118 86.5067 71.7011 86.7093 71.4238 86.864C71.1465 87.0133 70.8211 87.088 70.4478 87.088ZM77.0892 87.08C76.7105 87.08 76.3799 87 76.0972 86.84C75.8145 86.68 75.5985 86.456 75.4492 86.168C75.2999 85.88 75.2252 85.552 75.2252 85.184V81H76.0412L76.0332 83.304C76.0332 83.5333 76.0145 83.7413 75.9772 83.928H76.0332C76.1505 83.72 76.3159 83.56 76.5292 83.448C76.7425 83.3307 76.9852 83.2693 77.2572 83.264L77.7772 82.304L78.4252 82.504L77.8332 83.36C78.1745 83.4773 78.4439 83.6987 78.6412 84.024C78.8439 84.3493 78.9452 84.736 78.9452 85.184C78.9452 85.552 78.8705 85.88 78.7212 86.168C78.5719 86.456 78.3559 86.68 78.0732 86.84C77.7959 87 77.4679 87.08 77.0892 87.08ZM76.0412 85.28C76.0412 85.6267 76.1372 85.9067 76.3292 86.12C76.5212 86.3333 76.7719 86.44 77.0812 86.44C77.3852 86.44 77.6305 86.328 77.8172 86.104C78.0092 85.8747 78.1052 85.5653 78.1052 85.176C78.1052 84.776 78.0119 84.464 77.8252 84.24C77.6439 84.016 77.3959 83.904 77.0812 83.904C76.7719 83.904 76.5212 84.008 76.3292 84.216C76.1372 84.4187 76.0412 84.704 76.0412 85.072V85.28ZM81.9184 83.344C81.9131 83.5147 81.9558 83.6613 82.0464 83.784C82.1424 83.9013 82.2864 84.0453 82.4784 84.216C82.6438 84.36 82.7771 84.488 82.8784 84.6C82.9851 84.7067 83.0731 84.8453 83.1424 85.016C83.2171 85.1813 83.2544 85.3787 83.2544 85.608C83.2544 85.9067 83.1771 86.168 83.0224 86.392C82.8678 86.6107 82.6571 86.7813 82.3904 86.904C82.1238 87.0213 81.8304 87.08 81.5104 87.08C81.1851 87.08 80.8891 87.0213 80.6224 86.904C80.3611 86.7867 80.1531 86.616 79.9984 86.392C79.8491 86.168 79.7744 85.904 79.7744 85.6C79.7744 85.4613 79.7931 85.336 79.8304 85.224L80.6304 85.256C80.6144 85.336 80.6064 85.4267 80.6064 85.528C80.6064 85.8107 80.6891 86.0347 80.8544 86.2C81.0198 86.3653 81.2384 86.448 81.5104 86.448C81.7824 86.448 82.0038 86.3707 82.1744 86.216C82.3451 86.0613 82.4304 85.8507 82.4304 85.584C82.4304 85.376 82.3771 85.2053 82.2704 85.072C82.1691 84.9333 82.0118 84.7787 81.7984 84.608C81.6331 84.4693 81.5024 84.3493 81.4064 84.248C81.3104 84.1467 81.2304 84.0213 81.1664 83.872C81.1078 83.7227 81.0838 83.5467 81.0944 83.344H81.9184ZM85.924 87.08C85.5453 87.08 85.2147 87 84.932 86.84C84.6493 86.68 84.4333 86.456 84.284 86.168C84.1347 85.88 84.06 85.552 84.06 85.184V82.464C84.06 81.9893 84.2067 81.616 84.5 81.344C84.7933 81.0667 85.1907 80.928 85.692 80.928C85.884 80.928 86.0867 80.9413 86.3 80.968C86.5453 80.9893 86.732 81 86.86 81C87.0893 81 87.284 80.9813 87.444 80.944V81.656C87.2893 81.7147 87.1133 81.744 86.916 81.744C86.7773 81.744 86.58 81.7173 86.324 81.664C86.2973 81.6587 86.2227 81.6453 86.1 81.624C85.9827 81.6027 85.8653 81.592 85.748 81.592C85.476 81.592 85.2573 81.6667 85.092 81.816C84.932 81.9653 84.8547 82.184 84.86 82.472L84.876 83.304C84.876 83.496 84.8573 83.704 84.82 83.928H84.876C84.9933 83.7147 85.1587 83.552 85.372 83.44C85.5907 83.3227 85.836 83.264 86.108 83.264C86.4333 83.264 86.7213 83.3467 86.972 83.512C87.228 83.672 87.4253 83.8987 87.564 84.192C87.708 84.48 87.78 84.8107 87.78 85.184C87.78 85.552 87.7053 85.88 87.556 86.168C87.4067 86.456 87.1907 86.68 86.908 86.84C86.6307 87 86.3027 87.08 85.924 87.08ZM84.876 85.28C84.876 85.6267 84.972 85.9067 85.164 86.12C85.356 86.3333 85.6067 86.44 85.916 86.44C86.22 86.44 86.4653 86.328 86.652 86.104C86.844 85.8747 86.94 85.5653 86.94 85.176C86.94 84.776 86.8467 84.464 86.66 84.24C86.4787 84.016 86.2307 83.904 85.916 83.904C85.6067 83.904 85.356 84.008 85.164 84.216C84.972 84.4187 84.876 84.704 84.876 85.072V85.28ZM90.4002 89.488C90.0162 89.488 89.6722 89.4027 89.3682 89.232C89.0695 89.0667 88.8349 88.8293 88.6642 88.52C88.4935 88.216 88.4082 87.864 88.4082 87.464C88.4082 87.096 88.4855 86.7627 88.6402 86.464C88.7949 86.16 89.0162 85.9173 89.3042 85.736C89.5922 85.5547 89.9309 85.456 90.3202 85.44C90.4002 85.4293 90.4935 85.4293 90.6002 85.44C90.7442 85.328 90.8589 85.208 90.9442 85.08C91.0349 84.9467 91.0802 84.792 91.0802 84.616C91.0802 84.3813 91.0135 84.2027 90.8802 84.08C90.7522 83.9573 90.5682 83.896 90.3282 83.896C90.0989 83.896 89.9149 83.9627 89.7762 84.096C89.6375 84.224 89.5629 84.4027 89.5522 84.632L88.6962 84.6C88.7229 84.2107 88.8829 83.8907 89.1762 83.64C89.4695 83.3893 89.8562 83.264 90.3362 83.264C90.6615 83.264 90.9442 83.32 91.1842 83.432C91.4242 83.544 91.6082 83.6987 91.7362 83.896C91.8642 84.088 91.9282 84.3067 91.9282 84.552C91.9282 84.776 91.8669 84.976 91.7442 85.152C91.6269 85.3227 91.4642 85.464 91.2562 85.576V85.632C91.6295 85.7813 91.9122 86.0187 92.1042 86.344C92.2962 86.664 92.3922 87.0347 92.3922 87.456C92.3922 87.856 92.3069 88.2107 92.1362 88.52C91.9655 88.8293 91.7282 89.0667 91.4242 89.232C91.1255 89.4027 90.7842 89.488 90.4002 89.488ZM89.2482 87.456C89.2482 87.888 89.3549 88.2267 89.5682 88.472C89.7815 88.7227 90.0589 88.848 90.4002 88.848C90.7362 88.848 91.0109 88.7227 91.2242 88.472C91.4429 88.2267 91.5522 87.888 91.5522 87.456C91.5522 87.0293 91.4429 86.6933 91.2242 86.448C91.0109 86.1973 90.7362 86.072 90.4002 86.072C90.0589 86.072 89.7815 86.1973 89.5682 86.448C89.3549 86.6933 89.2482 87.0293 89.2482 87.456ZM93.5431 87C93.2871 86.3333 93.1591 85.5467 93.1591 84.64C93.1591 83.776 93.3138 83.096 93.6231 82.6C93.9325 82.0987 94.3031 81.7467 94.7351 81.544C95.1671 81.336 95.6445 81.1893 96.1671 81.104L97.3751 80.912V81.656L96.1351 81.856C95.6765 81.9253 95.2845 82.0373 94.9591 82.192C94.6338 82.3413 94.3591 82.568 94.1351 82.872C93.9165 83.176 93.7671 83.5787 93.6871 84.08H93.7271C93.8605 83.792 94.0258 83.584 94.2231 83.456C94.4205 83.328 94.6498 83.264 94.9111 83.264C95.1725 83.264 95.4098 83.3413 95.6231 83.496C95.8418 83.6507 95.9885 83.8907 96.0631 84.216H96.1111C96.2018 83.8907 96.3671 83.6507 96.6071 83.496C96.8471 83.3413 97.1165 83.264 97.4151 83.264C97.7085 83.264 97.9725 83.3333 98.2071 83.472C98.4471 83.6107 98.6365 83.824 98.7751 84.112C98.9191 84.4 98.9911 84.76 98.9911 85.192C98.9911 85.512 98.9591 85.8107 98.8951 86.088C98.8311 86.3653 98.7351 86.6693 98.6071 87H97.7911C97.9191 86.6907 98.0125 86.3947 98.0711 86.112C98.1298 85.824 98.1618 85.528 98.1671 85.224C98.1618 84.7813 98.0791 84.4507 97.9191 84.232C97.7591 84.008 97.5511 83.896 97.2951 83.896C97.0498 83.896 96.8498 83.984 96.6951 84.16C96.5458 84.3307 96.4711 84.6053 96.4711 84.984V86.096H95.6711V84.984C95.6711 84.6053 95.5965 84.3307 95.4471 84.16C95.3031 83.984 95.1085 83.896 94.8631 83.896C94.6018 83.896 94.3911 84.0053 94.2311 84.224C94.0711 84.4427 93.9911 84.776 93.9911 85.224C93.9911 85.528 94.0205 85.824 94.0791 86.112C94.1378 86.3947 94.2311 86.6907 94.3591 87H93.5431ZM101.757 87.08C101.379 87.08 101.048 87 100.765 86.84C100.488 86.68 100.275 86.456 100.125 86.168C99.976 85.88 99.9013 85.552 99.9013 85.184C99.9013 84.8107 99.9706 84.48 100.109 84.192C100.253 83.8987 100.451 83.672 100.701 83.512C100.957 83.3467 101.248 83.264 101.573 83.264C101.851 83.264 102.096 83.3227 102.309 83.44C102.528 83.5573 102.696 83.72 102.813 83.928H102.869C102.832 83.7413 102.813 83.5333 102.813 83.304L102.805 81H103.621V85.184C103.621 85.552 103.547 85.88 103.397 86.168C103.248 86.456 103.032 86.68 102.749 86.84C102.467 87 102.136 87.08 101.757 87.08ZM100.741 85.176C100.741 85.5653 100.835 85.8747 101.021 86.104C101.213 86.328 101.461 86.44 101.765 86.44C102.075 86.44 102.325 86.3333 102.517 86.12C102.709 85.9067 102.805 85.6267 102.805 85.28V85.072C102.805 84.704 102.709 84.4187 102.517 84.216C102.325 84.008 102.075 83.904 101.765 83.904C101.451 83.904 101.2 84.016 101.013 84.24C100.832 84.464 100.741 84.776 100.741 85.176ZM105.083 86.04C105.232 86.04 105.357 86.0907 105.459 86.192C105.56 86.2933 105.611 86.416 105.611 86.56C105.611 86.7093 105.56 86.8347 105.459 86.936C105.357 87.032 105.232 87.08 105.083 87.08C104.944 87.08 104.824 87.0293 104.723 86.928C104.621 86.8267 104.571 86.704 104.571 86.56C104.571 86.416 104.621 86.2933 104.723 86.192C104.824 86.0907 104.944 86.04 105.083 86.04Z" fill="#557186"/>
<defs>
<filter id="filter0_bd_949_40113" x="1.40523" y="5.01777" width="123.887" height="106.061" filterUnits="userSpaceOnUse" color-interpolation-filters="sRGB">
<feFlood flood-opacity="0" result="BackgroundImageFix"/>
<feGaussianBlur in="BackgroundImageFix" stdDeviation="2.25764"/>
<feComposite in2="SourceAlpha" operator="in" result="effect1_backgroundBlur_949_40113"/>
<feColorMatrix in="SourceAlpha" type="matrix" values="0 0 0 0 0 0 0 0 0 0 0 0 0 0 0 0 0 0 127 0" result="hardAlpha"/>
<feOffset dy="1.80611"/>
<feGaussianBlur stdDeviation="4.51528"/>
<feComposite in2="hardAlpha" operator="out"/>
<feColorMatrix type="matrix" values="0 0 0 0 0.427451 0 0 0 0 0.509804 0 0 0 0 0.698039 0 0 0 0.3 0"/>
<feBlend mode="normal" in2="effect1_backgroundBlur_949_40113" result="effect2_dropShadow_949_40113"/>
<feBlend mode="normal" in="SourceGraphic" in2="effect2_dropShadow_949_40113" result="shape"/>
</filter>
<filter id="filter1_dd_949_40113" x="0.194441" y="12.0016" width="126.309" height="81.93" filterUnits="userSpaceOnUse" color-interpolation-filters="sRGB">
<feFlood flood-opacity="0" result="BackgroundImageFix"/>
<feColorMatrix in="SourceAlpha" type="matrix" values="0 0 0 0 0 0 0 0 0 0 0 0 0 0 0 0 0 0 127 0" result="hardAlpha"/>
<feMorphology radius="3.41375" operator="erode" in="SourceAlpha" result="effect1_dropShadow_949_40113"/>
<feOffset dy="6.8275"/>
<feGaussianBlur stdDeviation="3.41375"/>
<feComposite in2="hardAlpha" operator="out"/>
<feColorMatrix type="matrix" values="0 0 0 0 0.0627451 0 0 0 0 0.0941176 0 0 0 0 0.156863 0 0 0 0.03 0"/>
<feBlend mode="normal" in2="BackgroundImageFix" result="effect1_dropShadow_949_40113"/>
<feColorMatrix in="SourceAlpha" type="matrix" values="0 0 0 0 0 0 0 0 0 0 0 0 0 0 0 0 0 0 127 0" result="hardAlpha"/>
<feMorphology radius="3.41375" operator="erode" in="SourceAlpha" result="effect2_dropShadow_949_40113"/>
<feOffset dy="10"/>
<feGaussianBlur stdDeviation="10.2412"/>
<feComposite in2="hardAlpha" operator="out"/>
<feColorMatrix type="matrix" values="0 0 0 0 0.0627451 0 0 0 0 0.0941176 0 0 0 0 0.156863 0 0 0 0.08 0"/>
<feBlend mode="normal" in2="effect1_dropShadow_949_40113" result="effect2_dropShadow_949_40113"/>
<feBlend mode="normal" in="SourceGraphic" in2="effect2_dropShadow_949_40113" result="shape"/>
</filter>
<filter id="filter2_d_949_40113" x="101.586" y="0.293126" width="27.31" height="27.31" filterUnits="userSpaceOnUse" color-interpolation-filters="sRGB">
<feFlood flood-opacity="0" result="BackgroundImageFix"/>
<feColorMatrix in="SourceAlpha" type="matrix" values="0 0 0 0 0 0 0 0 0 0 0 0 0 0 0 0 0 0 127 0" result="hardAlpha"/>
<feOffset dy="1.70687"/>
<feGaussianBlur stdDeviation="1.70687"/>
<feComposite in2="hardAlpha" operator="out"/>
<feColorMatrix type="matrix" values="0 0 0 0 0 0 0 0 0 0 0 0 0 0 0 0 0 0 0.1 0"/>
<feBlend mode="normal" in2="BackgroundImageFix" result="effect1_dropShadow_949_40113"/>
<feBlend mode="normal" in="SourceGraphic" in2="effect1_dropShadow_949_40113" result="shape"/>
</filter>
<clipPath id="clip0_949_40113">
<rect width="11.9481" height="11.9481" fill="white" transform="translate(41.1595 36.9934)"/>
</clipPath>
</defs>
</svg>
