<svg width="131" height="112" viewBox="0 0 131 112" fill="none" xmlns="http://www.w3.org/2000/svg">
<g filter="url(#filter0_bd_949_40122)">
<rect x="11.184" y="12.242" width="105.826" height="88" rx="10.2412" fill="#F3F6FD"/>
<rect x="11.6355" y="12.6935" width="104.923" height="87.0969" rx="9.78972" stroke="white" stroke-width="0.903056"/>
</g>
<g filter="url(#filter1_dd_949_40122)">
<rect x="18.0117" y="19.0703" width="92.1712" height="47.7925" rx="6.8275" fill="white" shape-rendering="crispEdges"/>
<path d="M43.6148 33.5537H84.5797C87.1721 33.5537 89.2736 35.6552 89.2736 38.2476V47.6873C89.2736 50.2796 87.1721 52.3812 84.5797 52.3812H43.6148C41.0224 52.3812 38.9209 50.2796 38.9209 47.6873V38.2476C38.9209 35.6552 41.0224 33.5537 43.6148 33.5537Z" fill="#FFF4ED"/>
<path d="M43.6148 33.5537H84.5797C87.1721 33.5537 89.2736 35.6552 89.2736 38.2476V47.6873C89.2736 50.2796 87.1721 52.3812 84.5797 52.3812H43.6148C41.0224 52.3812 38.9209 50.2796 38.9209 47.6873V38.2476C38.9209 35.6552 41.0224 33.5537 43.6148 33.5537Z" stroke="#FF692E" stroke-width="0.853437"/>
<g clip-path="url(#clip0_949_40122)">
<path d="M50.5495 45.3541V47.9491M53.263 43.3902C53.2793 43.2287 53.2876 43.0649 53.2876 42.8992C53.2876 40.1877 51.0587 37.9895 48.3092 37.9895C45.5597 37.9895 43.3308 40.1877 43.3308 42.8992C43.3308 45.6108 45.5597 47.809 48.3092 47.809C48.3927 47.809 48.4757 47.8069 48.5581 47.8029C48.6416 47.7988 48.7246 47.7928 48.807 47.7847M48.3092 39.9534V42.8992L50.1703 43.8169M52.5764 45.3541V47.9491" stroke="#FF692E" stroke-width="0.853437"/>
</g>
<path d="M60.5675 38.6416C61.1205 38.6416 61.6018 38.7952 62.0115 39.1024C62.4211 39.4028 62.7352 39.8466 62.9537 40.4338C63.179 41.021 63.2916 41.731 63.2916 42.564C63.2916 43.3901 63.179 44.1002 62.9537 44.6941C62.7352 45.2813 62.4211 45.7285 62.0115 46.0358C61.6018 46.3362 61.1205 46.4864 60.5675 46.4864C60.0144 46.4864 59.5297 46.3362 59.1132 46.0358C58.7035 45.7285 58.3861 45.2813 58.1608 44.6941C57.9423 44.1002 57.833 43.3901 57.833 42.564C57.833 41.731 57.9423 41.021 58.1608 40.4338C58.3861 39.8466 58.7035 39.4028 59.1132 39.1024C59.5297 38.7952 60.0144 38.6416 60.5675 38.6416ZM58.6831 42.564C58.6831 43.6017 58.8435 44.3937 59.1644 44.9399C59.4853 45.4793 59.9496 45.749 60.5572 45.749C61.1717 45.749 61.6394 45.4793 61.9603 44.9399C62.288 44.3937 62.4518 43.6017 62.4518 42.564C62.4518 41.5194 62.288 40.7274 61.9603 40.188C61.6394 39.6486 61.1717 39.3789 60.5572 39.3789C59.9496 39.3789 59.4853 39.652 59.1644 40.1982C58.8435 40.7376 58.6831 41.5262 58.6831 42.564ZM67.1483 38.6416C67.7013 38.6416 68.1826 38.7952 68.5923 39.1024C69.0019 39.4028 69.316 39.8466 69.5345 40.4338C69.7598 41.021 69.8724 41.731 69.8724 42.564C69.8724 43.3901 69.7598 44.1002 69.5345 44.6941C69.316 45.2813 69.0019 45.7285 68.5923 46.0358C68.1826 46.3362 67.7013 46.4864 67.1483 46.4864C66.5952 46.4864 66.1105 46.3362 65.694 46.0358C65.2843 45.7285 64.9669 45.2813 64.7416 44.6941C64.5231 44.1002 64.4138 43.3901 64.4138 42.564C64.4138 41.731 64.5231 41.021 64.7416 40.4338C64.9669 39.8466 65.2843 39.4028 65.694 39.1024C66.1105 38.7952 66.5952 38.6416 67.1483 38.6416ZM65.2639 42.564C65.2639 43.6017 65.4243 44.3937 65.7452 44.9399C66.0661 45.4793 66.5304 45.749 67.138 45.749C67.7525 45.749 68.2202 45.4793 68.5411 44.9399C68.8688 44.3937 69.0326 43.6017 69.0326 42.564C69.0326 41.5194 68.8688 40.7274 68.5411 40.188C68.2202 39.6486 67.7525 39.3789 67.138 39.3789C66.5304 39.3789 66.0661 39.652 65.7452 40.1982C65.4243 40.7376 65.2639 41.5262 65.2639 42.564ZM71.4043 41.0892C71.5613 41.0892 71.6945 41.1439 71.8037 41.2531C71.9129 41.3623 71.9676 41.4955 71.9676 41.6525C71.9676 41.8095 71.9129 41.9427 71.8037 42.0519C71.6945 42.1611 71.5613 42.2158 71.4043 42.2158C71.2541 42.2158 71.1244 42.1611 71.0151 42.0519C70.9127 41.9427 70.8615 41.8095 70.8615 41.6525C70.8615 41.4955 70.9127 41.3623 71.0151 41.2531C71.1244 41.1439 71.2541 41.0892 71.4043 41.0892ZM70.8615 45.9333C70.8615 45.7763 70.9127 45.6466 71.0151 45.5442C71.1175 45.4349 71.2473 45.3803 71.4043 45.3803C71.5613 45.3803 71.6945 45.4349 71.8037 45.5442C71.9129 45.6466 71.9676 45.7763 71.9676 45.9333C71.9676 46.0904 71.9129 46.2235 71.8037 46.3327C71.6945 46.4352 71.5613 46.4864 71.4043 46.4864C71.2473 46.4864 71.1175 46.4352 71.0151 46.3327C70.9127 46.2235 70.8615 46.0904 70.8615 45.9333ZM75.7793 38.6416C76.3323 38.6416 76.8137 38.7952 77.2233 39.1024C77.633 39.4028 77.947 39.8466 78.1655 40.4338C78.3908 41.021 78.5035 41.731 78.5035 42.564C78.5035 43.3901 78.3908 44.1002 78.1655 44.6941C77.947 45.2813 77.633 45.7285 77.2233 46.0358C76.8137 46.3362 76.3323 46.4864 75.7793 46.4864C75.2263 46.4864 74.7415 46.3362 74.325 46.0358C73.9154 45.7285 73.5979 45.2813 73.3726 44.6941C73.1541 44.1002 73.0449 43.3901 73.0449 42.564C73.0449 41.731 73.1541 41.021 73.3726 40.4338C73.5979 39.8466 73.9154 39.4028 74.325 39.1024C74.7415 38.7952 75.2263 38.6416 75.7793 38.6416ZM73.8949 42.564C73.8949 43.6017 74.0554 44.3937 74.3763 44.9399C74.6971 45.4793 75.1614 45.749 75.7691 45.749C76.3835 45.749 76.8512 45.4793 77.1721 44.9399C77.4998 44.3937 77.6637 43.6017 77.6637 42.564C77.6637 41.5194 77.4998 40.7274 77.1721 40.188C76.8512 39.6486 76.3835 39.3789 75.7691 39.3789C75.1614 39.3789 74.6971 39.652 74.3763 40.1982C74.0554 40.7376 73.8949 41.5262 73.8949 42.564ZM82.3601 38.6416C82.9131 38.6416 83.3945 38.7952 83.8041 39.1024C84.2138 39.4028 84.5278 39.8466 84.7463 40.4338C84.9716 41.021 85.0843 41.731 85.0843 42.564C85.0843 43.3901 84.9716 44.1002 84.7463 44.6941C84.5278 45.2813 84.2138 45.7285 83.8041 46.0358C83.3945 46.3362 82.9131 46.4864 82.3601 46.4864C81.8071 46.4864 81.3223 46.3362 80.9058 46.0358C80.4962 45.7285 80.1787 45.2813 79.9534 44.6941C79.7349 44.1002 79.6257 43.3901 79.6257 42.564C79.6257 41.731 79.7349 41.021 79.9534 40.4338C80.1787 39.8466 80.4962 39.4028 80.9058 39.1024C81.3223 38.7952 81.8071 38.6416 82.3601 38.6416ZM80.4757 42.564C80.4757 43.6017 80.6362 44.3937 80.9571 44.9399C81.2779 45.4793 81.7422 45.749 82.3499 45.749C82.9643 45.749 83.432 45.4793 83.7529 44.9399C84.0806 44.3937 84.2445 43.6017 84.2445 42.564C84.2445 41.5194 84.0806 40.7274 83.7529 40.188C83.432 39.6486 82.9643 39.3789 82.3499 39.3789C81.7422 39.3789 81.2779 39.652 80.9571 40.1982C80.6362 40.7376 80.4757 41.5262 80.4757 42.564Z" fill="#FF692E"/>
</g>
<path d="M26.528 87.08C26.1547 87.08 25.8267 87 25.544 86.84C25.2667 86.68 25.0533 86.4587 24.904 86.176C24.7547 85.8933 24.68 85.5733 24.68 85.216C24.68 84.8587 24.7493 84.5387 24.888 84.256C25.032 83.9733 25.2293 83.752 25.48 83.592C25.736 83.432 26.0267 83.352 26.352 83.352C26.624 83.352 26.8667 83.4107 27.08 83.528C27.2987 83.6453 27.4667 83.808 27.584 84.016H27.64C27.608 83.808 27.592 83.6 27.592 83.392L27.6 82.248C27.6 82.024 27.5413 81.8507 27.424 81.728C27.312 81.6053 27.1653 81.544 26.984 81.544C26.8027 81.544 26.656 81.608 26.544 81.736C26.432 81.8587 26.376 82.0187 26.376 82.216V82.68H25.584V82.216C25.584 82.024 25.5333 81.8667 25.432 81.744C25.336 81.6213 25.2053 81.56 25.04 81.56C24.768 81.56 24.5547 81.68 24.4 81.92L23.864 81.544C23.992 81.3413 24.1547 81.1867 24.352 81.08C24.5493 80.968 24.768 80.912 25.008 80.912C25.2373 80.912 25.4427 80.976 25.624 81.104C25.8053 81.232 25.9307 81.416 26 81.656H26.056C26.1307 81.416 26.2667 81.232 26.464 81.104C26.6613 80.976 26.8933 80.912 27.16 80.912C27.5333 80.912 27.832 81.0293 28.056 81.264C28.2853 81.4933 28.4 81.7947 28.4 82.168V85.224C28.4 85.5813 28.3227 85.9013 28.168 86.184C28.0187 86.4613 27.8027 86.68 27.52 86.84C27.2373 87 26.9067 87.08 26.528 87.08ZM25.512 85.224C25.512 85.592 25.608 85.888 25.8 86.112C25.992 86.3307 26.2373 86.44 26.536 86.44C26.8453 86.44 27.096 86.336 27.288 86.128C27.48 85.92 27.576 85.6533 27.576 85.328V85.12C27.576 84.768 27.48 84.4933 27.288 84.296C27.096 84.0933 26.8453 83.992 26.536 83.992C26.2267 83.992 25.9787 84.104 25.792 84.328C25.6053 84.5467 25.512 84.8453 25.512 85.224ZM30.9902 89.488C30.6009 89.488 30.2675 89.408 29.9902 89.248C29.7182 89.088 29.5102 88.8667 29.3662 88.584C29.2275 88.3067 29.1582 87.9893 29.1582 87.632C29.1582 87.376 29.1955 87.128 29.2702 86.888L30.0862 86.92C30.0275 87.128 29.9982 87.3467 29.9982 87.576C29.9982 87.9867 30.0835 88.3013 30.2542 88.52C30.4302 88.7387 30.6782 88.848 30.9982 88.848C31.3129 88.848 31.5555 88.7387 31.7262 88.52C31.8969 88.3013 31.9822 87.992 31.9822 87.592V85.04C31.9822 84.64 31.8969 84.352 31.7262 84.176C31.5609 83.9947 31.3422 83.904 31.0702 83.904C30.8089 83.904 30.5982 83.9893 30.4382 84.16C30.2835 84.3307 30.2062 84.5867 30.2062 84.928C30.2062 85.04 30.2222 85.192 30.2542 85.384L29.4142 85.408C29.3769 85.2373 29.3582 85.0613 29.3582 84.88C29.3582 84.5493 29.4302 84.264 29.5742 84.024C29.7235 83.7787 29.9262 83.592 30.1822 83.464C30.4382 83.3307 30.7289 83.264 31.0542 83.264C31.5769 83.264 31.9955 83.4187 32.3102 83.728C32.6302 84.0373 32.7902 84.4693 32.7902 85.024V87.6C32.7902 88.1707 32.6355 88.6267 32.3262 88.968C32.0169 89.3147 31.5715 89.488 30.9902 89.488ZM35.5996 89.488C35.2209 89.488 34.8929 89.416 34.6156 89.272C34.3382 89.128 34.1276 88.928 33.9836 88.672C33.8396 88.4213 33.7676 88.136 33.7676 87.816C33.7676 87.704 33.7836 87.5867 33.8156 87.464L34.6076 87.512C34.5969 87.6293 34.5916 87.7147 34.5916 87.768C34.5916 88.0827 34.6742 88.3387 34.8396 88.536C35.0049 88.7387 35.2582 88.84 35.5996 88.84C35.9356 88.84 36.1996 88.7333 36.3916 88.52C36.5889 88.3067 36.6849 87.9973 36.6796 87.592L36.6636 86.72C36.6582 86.5387 36.6742 86.3307 36.7116 86.096H36.6636C36.5462 86.3093 36.3809 86.4747 36.1676 86.592C35.9542 86.704 35.7169 86.76 35.4556 86.76C34.9649 86.76 34.5622 86.5973 34.2476 86.272C33.9382 85.9467 33.7836 85.472 33.7836 84.848C33.7836 84.5653 33.8076 84.3147 33.8556 84.096C33.9089 83.872 33.9942 83.6213 34.1116 83.344H34.9116C34.7996 83.6107 34.7222 83.856 34.6796 84.08C34.6422 84.304 34.6236 84.528 34.6236 84.752C34.6236 85.2267 34.7116 85.5733 34.8876 85.792C35.0636 86.0107 35.3009 86.12 35.5996 86.12C35.9089 86.12 36.1622 86.016 36.3596 85.808C36.5622 85.6 36.6636 85.3147 36.6636 84.952V83.344H37.4716V87.568C37.4716 88.1653 37.3036 88.6347 36.9676 88.976C36.6369 89.3173 36.1809 89.488 35.5996 89.488ZM38.9338 87C38.8058 86.68 38.7098 86.3813 38.6458 86.104C38.5818 85.8213 38.5498 85.5173 38.5498 85.192C38.5498 84.76 38.6218 84.4 38.7658 84.112C38.9098 83.824 39.1018 83.6107 39.3418 83.472C39.5818 83.3333 39.8484 83.264 40.1418 83.264C40.4511 83.264 40.7231 83.3387 40.9578 83.488C41.1924 83.6373 41.3551 83.88 41.4458 84.216H41.5018C41.5924 83.8853 41.7551 83.6453 41.9898 83.496C42.2298 83.3413 42.5018 83.264 42.8058 83.264C43.0991 83.264 43.3631 83.3333 43.5978 83.472C43.8378 83.6053 44.0271 83.8107 44.1658 84.088C44.3098 84.3653 44.3818 84.7067 44.3818 85.112C44.3818 85.3573 44.3604 85.5813 44.3178 85.784C44.2751 85.9867 44.2084 86.1893 44.1178 86.392V86.408H45.0778L45.0218 87H43.1818C43.3044 86.696 43.3951 86.4027 43.4538 86.12C43.5124 85.8373 43.5418 85.5413 43.5418 85.232C43.5418 84.784 43.4618 84.4507 43.3018 84.232C43.1471 84.008 42.9418 83.896 42.6858 83.896C42.4404 83.896 42.2404 83.984 42.0858 84.16C41.9364 84.3307 41.8618 84.6053 41.8618 84.984V86.096H41.0618V84.984C41.0618 84.6053 40.9871 84.3307 40.8378 84.16C40.6884 83.984 40.4911 83.896 40.2458 83.896C39.9844 83.896 39.7738 84.0053 39.6138 84.224C39.4538 84.4427 39.3738 84.776 39.3738 85.224C39.3738 85.528 39.4031 85.824 39.4618 86.112C39.5204 86.3947 39.6164 86.6907 39.7498 87H38.9338ZM47.4995 89.488C47.1102 89.488 46.7715 89.408 46.4835 89.248C46.1955 89.0933 45.9768 88.88 45.8275 88.608C45.6782 88.3413 45.6035 88.0427 45.6035 87.712C45.6035 87.5307 45.6248 87.3573 45.6675 87.192L46.4675 87.232C46.4408 87.3653 46.4275 87.4987 46.4275 87.632C46.4275 88.0053 46.5235 88.2987 46.7155 88.512C46.9075 88.7307 47.1688 88.84 47.4995 88.84C47.8302 88.84 48.0888 88.7333 48.2755 88.52C48.4675 88.312 48.5635 88.0267 48.5635 87.664C48.5635 87.3067 48.4702 87.0293 48.2835 86.832C48.0968 86.6347 47.8302 86.536 47.4835 86.536H47.2995V85.872H47.4915C47.8222 85.872 48.0702 85.7867 48.2355 85.616C48.4062 85.44 48.4915 85.2 48.4915 84.896C48.4915 84.6133 48.4008 84.384 48.2195 84.208C48.0435 84.0267 47.8115 83.936 47.5235 83.936C47.2462 83.936 47.0195 84.024 46.8435 84.2C46.6728 84.3707 46.5875 84.6027 46.5875 84.896C46.5875 84.976 46.5955 85.064 46.6115 85.16L45.7795 85.184C45.7582 85.056 45.7475 84.944 45.7475 84.848C45.7475 84.5387 45.8248 84.264 45.9795 84.024C46.1342 83.784 46.3475 83.5973 46.6195 83.464C46.8915 83.3307 47.1928 83.264 47.5235 83.264C47.8595 83.264 48.1635 83.3333 48.4355 83.472C48.7128 83.6107 48.9288 83.8 49.0835 84.04C49.2435 84.28 49.3235 84.552 49.3235 84.856C49.3235 85.1867 49.2355 85.4667 49.0595 85.696C48.8888 85.9253 48.6302 86.0853 48.2835 86.176V86.232C48.6408 86.3013 48.9155 86.472 49.1075 86.744C49.3048 87.0107 49.4035 87.3387 49.4035 87.728C49.4035 88.048 49.3262 88.3413 49.1715 88.608C49.0222 88.88 48.8035 89.0933 48.5155 89.248C48.2275 89.408 47.8888 89.488 47.4995 89.488ZM52.1037 87.08C51.725 87.08 51.3944 87 51.1117 86.84C50.829 86.68 50.613 86.456 50.4637 86.168C50.3144 85.88 50.2397 85.552 50.2397 85.184V82.464C50.2397 81.9893 50.3864 81.616 50.6797 81.344C50.973 81.0667 51.3704 80.928 51.8717 80.928C52.0637 80.928 52.2664 80.9413 52.4797 80.968C52.725 80.9893 52.9117 81 53.0397 81C53.269 81 53.4637 80.9813 53.6237 80.944V81.656C53.469 81.7147 53.293 81.744 53.0957 81.744C52.957 81.744 52.7597 81.7173 52.5037 81.664C52.477 81.6587 52.4024 81.6453 52.2797 81.624C52.1624 81.6027 52.045 81.592 51.9277 81.592C51.6557 81.592 51.437 81.6667 51.2717 81.816C51.1117 81.9653 51.0344 82.184 51.0397 82.472L51.0557 83.304C51.0557 83.496 51.037 83.704 50.9997 83.928H51.0557C51.173 83.7147 51.3384 83.552 51.5517 83.44C51.7704 83.3227 52.0157 83.264 52.2877 83.264C52.613 83.264 52.901 83.3467 53.1517 83.512C53.4077 83.672 53.605 83.8987 53.7437 84.192C53.8877 84.48 53.9597 84.8107 53.9597 85.184C53.9597 85.552 53.885 85.88 53.7357 86.168C53.5864 86.456 53.3704 86.68 53.0877 86.84C52.8104 87 52.4824 87.08 52.1037 87.08ZM51.0557 85.28C51.0557 85.6267 51.1517 85.9067 51.3437 86.12C51.5357 86.3333 51.7864 86.44 52.0957 86.44C52.3997 86.44 52.645 86.328 52.8317 86.104C53.0237 85.8747 53.1197 85.5653 53.1197 85.176C53.1197 84.776 53.0264 84.464 52.8397 84.24C52.6584 84.016 52.4104 83.904 52.0957 83.904C51.7864 83.904 51.5357 84.008 51.3437 84.216C51.1517 84.4187 51.0557 84.704 51.0557 85.072V85.28ZM56.5605 89.488C56.1712 89.488 55.8378 89.408 55.5605 89.248C55.2885 89.088 55.0805 88.8667 54.9365 88.584C54.7978 88.3067 54.7285 87.9893 54.7285 87.632C54.7285 87.376 54.7658 87.128 54.8405 86.888L55.6565 86.92C55.5978 87.128 55.5685 87.3467 55.5685 87.576C55.5685 87.9867 55.6538 88.3013 55.8245 88.52C56.0005 88.7387 56.2485 88.848 56.5685 88.848C56.8832 88.848 57.1258 88.7387 57.2965 88.52C57.4672 88.3013 57.5525 87.992 57.5525 87.592V85.04C57.5525 84.64 57.4672 84.352 57.2965 84.176C57.1312 83.9947 56.9125 83.904 56.6405 83.904C56.3792 83.904 56.1685 83.9893 56.0085 84.16C55.8538 84.3307 55.7765 84.5867 55.7765 84.928C55.7765 85.04 55.7925 85.192 55.8245 85.384L54.9845 85.408C54.9472 85.2373 54.9285 85.0613 54.9285 84.88C54.9285 84.5493 55.0005 84.264 55.1445 84.024C55.2938 83.7787 55.4965 83.592 55.7525 83.464C56.0085 83.3307 56.2992 83.264 56.6245 83.264C57.1472 83.264 57.5658 83.4187 57.8805 83.728C58.2005 84.0373 58.3605 84.4693 58.3605 85.024V87.6C58.3605 88.1707 58.2058 88.6267 57.8965 88.968C57.5872 89.3147 57.1418 89.488 56.5605 89.488ZM61.2272 87.08C60.8645 87.08 60.5392 87.0027 60.2512 86.848C59.9632 86.688 59.7365 86.464 59.5712 86.176C59.4059 85.888 59.3232 85.5547 59.3232 85.176C59.3232 84.664 59.4699 84.2373 59.7632 83.896C60.0619 83.5547 60.4459 83.352 60.9152 83.288V82.656C60.9152 82.512 60.8779 82.4 60.8032 82.32C60.7285 82.24 60.6112 82.152 60.4512 82.056C60.3072 81.9707 60.1925 81.8933 60.1072 81.824C60.0219 81.7493 59.9499 81.6453 59.8912 81.512C59.8379 81.3787 59.8139 81.208 59.8192 81H60.6272C60.6219 81.176 60.6619 81.3147 60.7472 81.416C60.8379 81.512 60.9712 81.6107 61.1472 81.712C61.3392 81.824 61.4832 81.936 61.5792 82.048C61.6752 82.16 61.7232 82.32 61.7232 82.528V83.32C62.1445 83.4213 62.4832 83.6373 62.7392 83.968C63.0005 84.2933 63.1312 84.696 63.1312 85.176C63.1312 85.5547 63.0485 85.888 62.8832 86.176C62.7179 86.464 62.4885 86.688 62.1952 86.848C61.9072 87.0027 61.5845 87.08 61.2272 87.08ZM60.1632 85.176C60.1632 85.5707 60.2592 85.88 60.4512 86.104C60.6485 86.328 60.9072 86.44 61.2272 86.44C61.5419 86.44 61.7979 86.328 61.9952 86.104C62.1925 85.88 62.2912 85.5707 62.2912 85.176C62.2912 84.7813 62.1925 84.472 61.9952 84.248C61.7979 84.0187 61.5419 83.904 61.2272 83.904C60.9072 83.904 60.6485 84.0187 60.4512 84.248C60.2592 84.472 60.1632 84.7813 60.1632 85.176ZM64.3781 87C64.2555 86.68 64.1595 86.3787 64.0901 86.096C64.0261 85.8133 63.9941 85.52 63.9941 85.216C63.9941 84.8053 64.0715 84.4533 64.2261 84.16C64.3861 83.8667 64.6048 83.6453 64.8821 83.496C65.1595 83.3413 65.4768 83.264 65.8341 83.264C66.1968 83.264 66.5168 83.3413 66.7941 83.496C67.0768 83.6453 67.2955 83.8667 67.4501 84.16C67.6101 84.4533 67.6901 84.8053 67.6901 85.216C67.6901 85.52 67.6555 85.8133 67.5861 86.096C67.5221 86.3733 67.4261 86.6747 67.2981 87H66.5301C66.6421 86.6747 66.7248 86.376 66.7781 86.104C66.8315 85.832 66.8581 85.5467 66.8581 85.248C66.8581 84.8213 66.7675 84.4907 66.5861 84.256C66.4048 84.016 66.1541 83.896 65.8341 83.896C65.5141 83.896 65.2635 84.016 65.0821 84.256C64.9061 84.4907 64.8181 84.8213 64.8181 85.248C64.8181 85.5413 64.8448 85.8267 64.8981 86.104C64.9515 86.3813 65.0368 86.68 65.1541 87H64.3781ZM70.44 87.088C70.0667 87.088 69.7413 87.0107 69.464 86.856C69.1867 86.7013 68.9733 86.4853 68.824 86.208C68.68 85.9307 68.608 85.6107 68.608 85.248V81H69.424V85.288C69.424 85.6507 69.5173 85.936 69.704 86.144C69.8907 86.3467 70.1333 86.448 70.432 86.448C70.7253 86.448 70.9653 86.3493 71.152 86.152C71.3387 85.9493 71.432 85.6933 71.432 85.384C71.432 85.1973 71.4107 85.0373 71.368 84.904C71.3253 84.7707 71.2613 84.616 71.176 84.44C71.0853 84.2427 71.016 84.0667 70.968 83.912C70.9253 83.7573 70.9093 83.568 70.92 83.344H71.736C71.7307 83.5253 71.7493 83.6853 71.792 83.824C71.8347 83.9573 71.8987 84.1093 71.984 84.28C72.08 84.4773 72.152 84.6587 72.2 84.824C72.248 84.9893 72.272 85.192 72.272 85.432C72.272 85.7307 72.1973 86.0053 72.048 86.256C71.904 86.5067 71.6933 86.7093 71.416 86.864C71.1387 87.0133 70.8133 87.088 70.44 87.088ZM77.0814 87.08C76.7027 87.08 76.372 87 76.0894 86.84C75.8067 86.68 75.5907 86.456 75.4414 86.168C75.292 85.88 75.2174 85.552 75.2174 85.184V81H76.0334L76.0254 83.304C76.0254 83.5333 76.0067 83.7413 75.9694 83.928H76.0254C76.1427 83.72 76.308 83.56 76.5214 83.448C76.7347 83.3307 76.9774 83.2693 77.2494 83.264L77.7694 82.304L78.4174 82.504L77.8254 83.36C78.1667 83.4773 78.436 83.6987 78.6334 84.024C78.836 84.3493 78.9374 84.736 78.9374 85.184C78.9374 85.552 78.8627 85.88 78.7134 86.168C78.564 86.456 78.348 86.68 78.0654 86.84C77.788 87 77.46 87.08 77.0814 87.08ZM76.0334 85.28C76.0334 85.6267 76.1294 85.9067 76.3214 86.12C76.5134 86.3333 76.764 86.44 77.0734 86.44C77.3774 86.44 77.6227 86.328 77.8094 86.104C78.0014 85.8747 78.0974 85.5653 78.0974 85.176C78.0974 84.776 78.004 84.464 77.8174 84.24C77.636 84.016 77.388 83.904 77.0734 83.904C76.764 83.904 76.5134 84.008 76.3214 84.216C76.1294 84.4187 76.0334 84.704 76.0334 85.072V85.28ZM81.9106 83.344C81.9053 83.5147 81.948 83.6613 82.0386 83.784C82.1346 83.9013 82.2786 84.0453 82.4706 84.216C82.636 84.36 82.7693 84.488 82.8706 84.6C82.9773 84.7067 83.0653 84.8453 83.1346 85.016C83.2093 85.1813 83.2466 85.3787 83.2466 85.608C83.2466 85.9067 83.1693 86.168 83.0146 86.392C82.86 86.6107 82.6493 86.7813 82.3826 86.904C82.116 87.0213 81.8226 87.08 81.5026 87.08C81.1773 87.08 80.8813 87.0213 80.6146 86.904C80.3533 86.7867 80.1453 86.616 79.9906 86.392C79.8413 86.168 79.7666 85.904 79.7666 85.6C79.7666 85.4613 79.7853 85.336 79.8226 85.224L80.6226 85.256C80.6066 85.336 80.5986 85.4267 80.5986 85.528C80.5986 85.8107 80.6813 86.0347 80.8466 86.2C81.012 86.3653 81.2306 86.448 81.5026 86.448C81.7746 86.448 81.996 86.3707 82.1666 86.216C82.3373 86.0613 82.4226 85.8507 82.4226 85.584C82.4226 85.376 82.3693 85.2053 82.2626 85.072C82.1613 84.9333 82.004 84.7787 81.7906 84.608C81.6253 84.4693 81.4946 84.3493 81.3986 84.248C81.3026 84.1467 81.2226 84.0213 81.1586 83.872C81.1 83.7227 81.076 83.5467 81.0866 83.344H81.9106ZM85.9162 87.08C85.5375 87.08 85.2069 87 84.9242 86.84C84.6415 86.68 84.4255 86.456 84.2762 86.168C84.1269 85.88 84.0522 85.552 84.0522 85.184V82.464C84.0522 81.9893 84.1989 81.616 84.4922 81.344C84.7855 81.0667 85.1829 80.928 85.6842 80.928C85.8762 80.928 86.0789 80.9413 86.2922 80.968C86.5375 80.9893 86.7242 81 86.8522 81C87.0815 81 87.2762 80.9813 87.4362 80.944V81.656C87.2815 81.7147 87.1055 81.744 86.9082 81.744C86.7695 81.744 86.5722 81.7173 86.3162 81.664C86.2895 81.6587 86.2149 81.6453 86.0922 81.624C85.9749 81.6027 85.8575 81.592 85.7402 81.592C85.4682 81.592 85.2495 81.6667 85.0842 81.816C84.9242 81.9653 84.8469 82.184 84.8522 82.472L84.8682 83.304C84.8682 83.496 84.8495 83.704 84.8122 83.928H84.8682C84.9855 83.7147 85.1509 83.552 85.3642 83.44C85.5829 83.3227 85.8282 83.264 86.1002 83.264C86.4255 83.264 86.7135 83.3467 86.9642 83.512C87.2202 83.672 87.4175 83.8987 87.5562 84.192C87.7002 84.48 87.7722 84.8107 87.7722 85.184C87.7722 85.552 87.6975 85.88 87.5482 86.168C87.3989 86.456 87.1829 86.68 86.9002 86.84C86.6229 87 86.2949 87.08 85.9162 87.08ZM84.8682 85.28C84.8682 85.6267 84.9642 85.9067 85.1562 86.12C85.3482 86.3333 85.5989 86.44 85.9082 86.44C86.2122 86.44 86.4575 86.328 86.6442 86.104C86.8362 85.8747 86.9322 85.5653 86.9322 85.176C86.9322 84.776 86.8389 84.464 86.6522 84.24C86.4709 84.016 86.2229 83.904 85.9082 83.904C85.5989 83.904 85.3482 84.008 85.1562 84.216C84.9642 84.4187 84.8682 84.704 84.8682 85.072V85.28ZM90.3924 89.488C90.0084 89.488 89.6644 89.4027 89.3604 89.232C89.0617 89.0667 88.827 88.8293 88.6564 88.52C88.4857 88.216 88.4004 87.864 88.4004 87.464C88.4004 87.096 88.4777 86.7627 88.6324 86.464C88.787 86.16 89.0084 85.9173 89.2964 85.736C89.5844 85.5547 89.923 85.456 90.3124 85.44C90.3924 85.4293 90.4857 85.4293 90.5924 85.44C90.7364 85.328 90.851 85.208 90.9364 85.08C91.027 84.9467 91.0724 84.792 91.0724 84.616C91.0724 84.3813 91.0057 84.2027 90.8724 84.08C90.7444 83.9573 90.5604 83.896 90.3204 83.896C90.091 83.896 89.907 83.9627 89.7684 84.096C89.6297 84.224 89.555 84.4027 89.5444 84.632L88.6884 84.6C88.715 84.2107 88.875 83.8907 89.1684 83.64C89.4617 83.3893 89.8484 83.264 90.3284 83.264C90.6537 83.264 90.9364 83.32 91.1764 83.432C91.4164 83.544 91.6004 83.6987 91.7284 83.896C91.8564 84.088 91.9204 84.3067 91.9204 84.552C91.9204 84.776 91.859 84.976 91.7364 85.152C91.619 85.3227 91.4564 85.464 91.2484 85.576V85.632C91.6217 85.7813 91.9044 86.0187 92.0964 86.344C92.2884 86.664 92.3844 87.0347 92.3844 87.456C92.3844 87.856 92.299 88.2107 92.1284 88.52C91.9577 88.8293 91.7204 89.0667 91.4164 89.232C91.1177 89.4027 90.7764 89.488 90.3924 89.488ZM89.2404 87.456C89.2404 87.888 89.347 88.2267 89.5604 88.472C89.7737 88.7227 90.051 88.848 90.3924 88.848C90.7284 88.848 91.003 88.7227 91.2164 88.472C91.435 88.2267 91.5444 87.888 91.5444 87.456C91.5444 87.0293 91.435 86.6933 91.2164 86.448C91.003 86.1973 90.7284 86.072 90.3924 86.072C90.051 86.072 89.7737 86.1973 89.5604 86.448C89.347 86.6933 89.2404 87.0293 89.2404 87.456ZM93.5353 87C93.2793 86.3333 93.1513 85.5467 93.1513 84.64C93.1513 83.776 93.306 83.096 93.6153 82.6C93.9246 82.0987 94.2953 81.7467 94.7273 81.544C95.1593 81.336 95.6366 81.1893 96.1593 81.104L97.3673 80.912V81.656L96.1273 81.856C95.6686 81.9253 95.2766 82.0373 94.9513 82.192C94.626 82.3413 94.3513 82.568 94.1273 82.872C93.9086 83.176 93.7593 83.5787 93.6793 84.08H93.7193C93.8526 83.792 94.018 83.584 94.2153 83.456C94.4126 83.328 94.642 83.264 94.9033 83.264C95.1646 83.264 95.402 83.3413 95.6153 83.496C95.834 83.6507 95.9806 83.8907 96.0553 84.216H96.1033C96.194 83.8907 96.3593 83.6507 96.5993 83.496C96.8393 83.3413 97.1086 83.264 97.4073 83.264C97.7006 83.264 97.9646 83.3333 98.1993 83.472C98.4393 83.6107 98.6286 83.824 98.7673 84.112C98.9113 84.4 98.9833 84.76 98.9833 85.192C98.9833 85.512 98.9513 85.8107 98.8873 86.088C98.8233 86.3653 98.7273 86.6693 98.5993 87H97.7833C97.9113 86.6907 98.0046 86.3947 98.0633 86.112C98.122 85.824 98.154 85.528 98.1593 85.224C98.154 84.7813 98.0713 84.4507 97.9113 84.232C97.7513 84.008 97.5433 83.896 97.2873 83.896C97.042 83.896 96.842 83.984 96.6873 84.16C96.538 84.3307 96.4633 84.6053 96.4633 84.984V86.096H95.6633V84.984C95.6633 84.6053 95.5886 84.3307 95.4393 84.16C95.2953 83.984 95.1006 83.896 94.8553 83.896C94.594 83.896 94.3833 84.0053 94.2233 84.224C94.0633 84.4427 93.9833 84.776 93.9833 85.224C93.9833 85.528 94.0126 85.824 94.0713 86.112C94.13 86.3947 94.2233 86.6907 94.3513 87H93.5353ZM101.75 87.08C101.371 87.08 101.04 87 100.758 86.84C100.48 86.68 100.267 86.456 100.118 86.168C99.9682 85.88 99.8935 85.552 99.8935 85.184C99.8935 84.8107 99.9628 84.48 100.102 84.192C100.246 83.8987 100.443 83.672 100.694 83.512C100.95 83.3467 101.24 83.264 101.566 83.264C101.843 83.264 102.088 83.3227 102.302 83.44C102.52 83.5573 102.688 83.72 102.806 83.928H102.862C102.824 83.7413 102.806 83.5333 102.806 83.304L102.798 81H103.614V85.184C103.614 85.552 103.539 85.88 103.39 86.168C103.24 86.456 103.024 86.68 102.742 86.84C102.459 87 102.128 87.08 101.75 87.08ZM100.734 85.176C100.734 85.5653 100.827 85.8747 101.014 86.104C101.206 86.328 101.454 86.44 101.758 86.44C102.067 86.44 102.318 86.3333 102.51 86.12C102.702 85.9067 102.798 85.6267 102.798 85.28V85.072C102.798 84.704 102.702 84.4187 102.51 84.216C102.318 84.008 102.067 83.904 101.758 83.904C101.443 83.904 101.192 84.016 101.006 84.24C100.824 84.464 100.734 84.776 100.734 85.176ZM105.075 86.04C105.224 86.04 105.349 86.0907 105.451 86.192C105.552 86.2933 105.603 86.416 105.603 86.56C105.603 86.7093 105.552 86.8347 105.451 86.936C105.349 87.032 105.224 87.08 105.075 87.08C104.936 87.08 104.816 87.0293 104.715 86.928C104.613 86.8267 104.563 86.704 104.563 86.56C104.563 86.416 104.613 86.2933 104.715 86.192C104.816 86.0907 104.936 86.04 105.075 86.04Z" fill="#557186"/>
<g filter="url(#filter2_d_949_40122)">
<rect x="107" y="2" width="20.4825" height="20.4825" rx="10.2412" fill="white" shape-rendering="crispEdges"/>
<rect x="107.427" y="2.42672" width="19.6291" height="19.6291" rx="9.81453" stroke="#F04438" stroke-opacity="0.3" stroke-width="0.853437" shape-rendering="crispEdges"/>
<path d="M121.508 7.97446L112.974 16.5088" stroke="#F04438" stroke-width="1.28016" stroke-linecap="round" stroke-linejoin="round"/>
<path d="M112.974 7.97446L121.508 16.5088" stroke="#F04438" stroke-width="1.28016" stroke-linecap="round" stroke-linejoin="round"/>
</g>
<defs>
<filter id="filter0_bd_949_40122" x="2.1534" y="5.01756" width="123.887" height="106.061" filterUnits="userSpaceOnUse" color-interpolation-filters="sRGB">
<feFlood flood-opacity="0" result="BackgroundImageFix"/>
<feGaussianBlur in="BackgroundImageFix" stdDeviation="2.25764"/>
<feComposite in2="SourceAlpha" operator="in" result="effect1_backgroundBlur_949_40122"/>
<feColorMatrix in="SourceAlpha" type="matrix" values="0 0 0 0 0 0 0 0 0 0 0 0 0 0 0 0 0 0 127 0" result="hardAlpha"/>
<feOffset dy="1.80611"/>
<feGaussianBlur stdDeviation="4.51528"/>
<feComposite in2="hardAlpha" operator="out"/>
<feColorMatrix type="matrix" values="0 0 0 0 0.427451 0 0 0 0 0.509804 0 0 0 0 0.698039 0 0 0 0.3 0"/>
<feBlend mode="normal" in2="effect1_backgroundBlur_949_40122" result="effect2_dropShadow_949_40122"/>
<feBlend mode="normal" in="SourceGraphic" in2="effect2_dropShadow_949_40122" result="shape"/>
</filter>
<filter id="filter1_dd_949_40122" x="0.942976" y="12.0016" width="126.309" height="81.93" filterUnits="userSpaceOnUse" color-interpolation-filters="sRGB">
<feFlood flood-opacity="0" result="BackgroundImageFix"/>
<feColorMatrix in="SourceAlpha" type="matrix" values="0 0 0 0 0 0 0 0 0 0 0 0 0 0 0 0 0 0 127 0" result="hardAlpha"/>
<feMorphology radius="3.41375" operator="erode" in="SourceAlpha" result="effect1_dropShadow_949_40122"/>
<feOffset dy="6.8275"/>
<feGaussianBlur stdDeviation="3.41375"/>
<feComposite in2="hardAlpha" operator="out"/>
<feColorMatrix type="matrix" values="0 0 0 0 0.0627451 0 0 0 0 0.0941176 0 0 0 0 0.156863 0 0 0 0.03 0"/>
<feBlend mode="normal" in2="BackgroundImageFix" result="effect1_dropShadow_949_40122"/>
<feColorMatrix in="SourceAlpha" type="matrix" values="0 0 0 0 0 0 0 0 0 0 0 0 0 0 0 0 0 0 127 0" result="hardAlpha"/>
<feMorphology radius="3.41375" operator="erode" in="SourceAlpha" result="effect2_dropShadow_949_40122"/>
<feOffset dy="10"/>
<feGaussianBlur stdDeviation="10.2412"/>
<feComposite in2="hardAlpha" operator="out"/>
<feColorMatrix type="matrix" values="0 0 0 0 0.0627451 0 0 0 0 0.0941176 0 0 0 0 0.156863 0 0 0 0.08 0"/>
<feBlend mode="normal" in2="effect1_dropShadow_949_40122" result="effect2_dropShadow_949_40122"/>
<feBlend mode="normal" in="SourceGraphic" in2="effect2_dropShadow_949_40122" result="shape"/>
</filter>
<filter id="filter2_d_949_40122" x="103.586" y="0.293126" width="27.31" height="27.31" filterUnits="userSpaceOnUse" color-interpolation-filters="sRGB">
<feFlood flood-opacity="0" result="BackgroundImageFix"/>
<feColorMatrix in="SourceAlpha" type="matrix" values="0 0 0 0 0 0 0 0 0 0 0 0 0 0 0 0 0 0 127 0" result="hardAlpha"/>
<feOffset dy="1.70687"/>
<feGaussianBlur stdDeviation="1.70687"/>
<feComposite in2="hardAlpha" operator="out"/>
<feColorMatrix type="matrix" values="0 0 0 0 0 0 0 0 0 0 0 0 0 0 0 0 0 0 0.1 0"/>
<feBlend mode="normal" in2="BackgroundImageFix" result="effect1_dropShadow_949_40122"/>
<feBlend mode="normal" in="SourceGraphic" in2="effect1_dropShadow_949_40122" result="shape"/>
</filter>
<clipPath id="clip0_949_40122">
<rect width="11.9481" height="11.9481" fill="white" transform="translate(41.908 36.9934)"/>
</clipPath>
</defs>
</svg>
