<svg width="500" height="500" viewBox="0 0 500 500" fill="none" xmlns="http://www.w3.org/2000/svg">
<g clip-path="url(#clip0_301_11779)">
<path d="M500 0H0V500H500V0Z" fill="white"/>
<path d="M68.1898 269C100.87 237.53 98.3698 220.79 91.6698 178.86C88.3998 158.4 62.3798 178.45 53.0998 209.46C43.3598 242 50.8098 285.73 68.1898 268.99V269Z" fill="#F3EDFF"/>
<path d="M174.68 428C170.36 435.69 110.75 452.13 110.31 429.48C109.94 410.41 153.28 416.09 169.18 422.78C164.44 418.14 159.9 413.36 155.54 408.6C151.37 404.04 147.36 399.35 143.51 394.54C134.16 400.5 76.7298 401.94 81.3298 380.57C85.0098 363.47 119.7 375.06 136.18 384.93C130.39 377.04 124.99 368.87 119.98 360.46C113.08 366.41 51.8998 364.35 58.1598 342.69C63.3998 324.6 102.18 342.2 115.86 353.34C110.74 344.22 106.05 334.85 101.79 325.28C93.0698 329.88 34.1698 319.84 43.0998 299.43C50.4898 282.55 85.2598 303.73 98.0998 316.67C95.8698 311.27 93.7798 305.8 91.7998 300.3C82.6098 296.55 52.1598 245.29 73.4698 238.87C93.6098 232.8 99.1098 286.01 94.8798 298.1C97.0898 304.33 99.4798 310.48 102.04 316.57C102.79 299.57 116.89 256.6 133.92 266.09C153.1 276.78 114.78 320.97 104.88 323.19C109.07 332.62 113.7 341.84 118.74 350.83C117.73 333.09 126.12 290.77 143.84 297.8C163.98 305.79 132.88 353.41 122.9 358.03C128.98 368.24 135.63 378.11 142.86 387.57C139.42 372.65 144.3 323.65 163.65 329.8C184.98 336.58 154.7 389.41 146.06 391.72C150.01 396.7 154.11 401.57 158.39 406.31C162.23 410.55 166.24 414.81 170.42 418.95C164.26 402.09 159.9 359.74 178.78 361.19C200.37 362.84 184.83 417.49 176.67 424.91C184.46 432.06 192.79 438.64 201.68 443.88C203.73 445.09 201.52 448.05 199.49 446.85C190.64 441.63 182.39 435.1 174.66 428.01L174.68 428Z" fill="#C8C1E8"/>
<path d="M265.74 446.29C267.84 432.53 270.73 418.89 274.38 405.45C278.02 392.04 282.44 378.85 287.56 365.93C292.7 352.99 298.55 340.33 305.09 328.04C311.61 315.77 318.82 303.87 326.68 292.41C334.52 280.98 343 270 352.08 259.53C353.23 258.2 354.39 256.88 355.56 255.57C357.09 253.86 354.34 251.59 352.82 253.29C343.47 263.78 334.71 274.8 326.62 286.28C318.55 297.74 311.11 309.65 304.36 321.93C297.62 334.19 291.56 346.82 286.23 359.75C280.86 372.77 276.23 386.09 272.34 399.62C268.48 413.06 265.37 426.72 263.06 440.52C262.77 442.25 262.49 443.99 262.23 445.72C261.88 447.98 265.4 448.54 265.75 446.27L265.74 446.29Z" fill="#DAD4F8"/>
<path d="M322.34 299.3C319.73 272.1 326.93 231.8 327.57 205.01C328.28 175.45 332.41 143.68 357.4 126.55C363.92 122.08 372.23 118.75 381.45 119.98C394.4 121.71 405.71 132.3 410.1 143.21C414.49 154.12 413.33 165.22 411.24 175.63C401.02 226.46 369.15 270.79 322.34 299.3Z" fill="#DAD4F8"/>
<path d="M283.06 373.03C265.12 354.23 247.09 319.94 231.91 299.56C215.16 277.07 199.75 250.93 208.99 223.63C211.4 216.51 215.86 209.19 223.69 204.76C234.69 198.53 249.61 199.88 259.38 205.48C269.15 211.08 274.76 220.05 279.23 229.04C301.1 272.95 302.47 324.57 283.06 373.04" fill="#DAD4F8"/>
<path d="M269.37 412.6C283.49 386.69 313.96 352.33 330.64 327.99C349.05 301.13 371.73 273.47 403.61 266.83C411.92 265.1 421.1 265.06 428.32 269.54C438.45 275.84 441.84 289.67 439.06 301.27C436.28 312.88 428.6 322.64 420.53 331.43C381.11 374.35 326.92 403.45 269.37 412.59" fill="#DAD4F8"/>
<path d="M258.85 447.66C275.88 442.98 292.39 434.15 307.56 424.5C308.22 424.95 309.19 425.57 310.42 426.25C312.93 427.68 316.54 429.46 320.88 431.09C325.22 432.71 330.31 434.2 335.76 435.25C341.23 436.32 347.07 436.94 352.91 437.17C358.77 437.34 364.63 437.1 370.15 436.39C372.92 436.04 375.58 435.58 378.12 435.05C380.65 434.52 383.04 433.85 385.27 433.2C387.49 432.53 389.51 431.81 391.35 431.1C393.15 430.38 394.73 429.68 396.02 429.04C398.63 427.77 400.13 426.78 400.13 426.78C400.13 426.78 398.7 425.68 396.18 424.26C394.92 423.53 393.38 422.73 391.62 421.9C389.87 421.07 387.87 420.24 385.71 419.41C383.54 418.62 381.19 417.79 378.69 417.11C376.19 416.41 373.56 415.77 370.82 415.25C365.36 414.17 359.52 413.56 353.67 413.36C347.82 413.21 341.94 413.44 336.43 414.17C330.91 414.86 325.75 416.02 321.3 417.36C319.12 418.02 317.12 418.73 315.33 419.43C316.46 418.66 317.6 417.9 318.72 417.13C329.58 409.72 339.94 401.68 349.87 393.16C350.39 393.47 350.99 393.82 351.68 394.22C354.2 395.66 357.81 397.44 362.15 399.05C366.49 400.67 371.57 402.16 377.03 403.22C382.48 404.29 388.33 404.92 394.18 405.14C400.04 405.32 405.9 405.09 411.41 404.36C414.17 404.01 416.84 403.56 419.39 403.01C421.92 402.48 424.32 401.81 426.55 401.16C428.78 400.49 430.8 399.77 432.62 399.07C434.42 398.34 436 397.64 437.31 397C439.92 395.73 441.42 394.74 441.42 394.74C441.42 394.74 439.98 393.64 437.48 392.22C436.2 391.49 434.67 390.69 432.92 389.86C431.16 389.03 429.17 388.19 426.99 387.37C424.82 386.58 422.48 385.76 419.98 385.07C417.48 384.37 414.84 383.75 412.11 383.22C406.65 382.15 400.81 381.53 394.96 381.34C389.1 381.18 383.23 381.41 377.72 382.13C372.2 382.84 367.03 383.99 362.59 385.33C360.27 386.03 358.15 386.79 356.26 387.52C365.77 378.98 374.84 369.99 383.49 360.57C384.11 360.72 384.82 360.9 385.64 361.08C388.49 361.67 392.47 362.28 397.09 362.51C401.72 362.75 407.01 362.63 412.54 361.98C418.06 361.35 423.82 360.18 429.47 358.61C435.11 357.01 440.63 355.01 445.67 352.65C448.2 351.49 450.6 350.25 452.85 348.96C455.11 347.69 457.19 346.33 459.11 345.04C461.01 343.71 462.75 342.43 464.26 341.2C465.76 339.96 467.07 338.82 468.1 337.82C470.2 335.83 471.33 334.42 471.33 334.42C471.33 334.42 469.64 333.81 466.8 333.2C465.38 332.9 463.68 332.6 461.74 332.34C459.82 332.08 457.67 331.88 455.35 331.74C453.04 331.66 450.54 331.58 447.96 331.68C445.37 331.77 442.67 331.97 439.9 332.28C434.38 332.92 428.62 334.1 422.99 335.68C417.35 337.29 411.85 339.3 406.8 341.66C401.85 343.94 397.37 346.56 393.6 349.12C400.57 340.95 407.25 332.53 413.65 323.88C415.94 322.45 418.7 320.52 421.65 318.07C425.21 315.09 429.01 311.41 432.63 307.19C436.28 302.98 439.71 298.22 442.79 293.23C445.85 288.24 448.55 283.02 450.66 277.86C451.72 275.29 452.64 272.75 453.43 270.28C454.22 267.82 454.83 265.4 455.37 263.14C455.88 260.88 456.27 258.75 456.54 256.83C456.81 254.9 456.99 253.19 457.07 251.74C457.28 248.85 457.13 247.05 457.13 247.05C457.13 247.05 455.48 247.75 452.99 249.23C451.73 249.97 450.28 250.9 448.69 252.02C447.1 253.13 445.37 254.44 443.59 255.93C441.82 257.43 439.95 259.06 438.11 260.89C436.27 262.71 434.42 264.69 432.61 266.79C428.97 271 425.55 275.78 422.47 280.76C419.45 285.76 416.75 290.99 414.64 296.14C412.51 301.29 410.96 306.34 409.93 310.86C408.89 315.38 408.39 319.37 408.2 322.26C408.13 323.24 408.11 324.08 408.1 324.79C397.74 338.59 386.6 351.83 374.69 364.29C375.68 361.76 376.77 358.49 377.7 354.71C378.8 350.2 379.67 344.98 380.09 339.44C380.51 333.89 380.44 328.02 379.97 322.19C379.46 316.35 378.54 310.56 377.16 305.17C376.48 302.46 375.72 299.86 374.89 297.41C374.06 294.96 373.13 292.65 372.22 290.52C371.27 288.4 370.33 286.46 369.41 284.75C368.48 283.04 367.6 281.55 366.81 280.33C365.26 277.9 364.09 276.53 364.09 276.53C364.09 276.53 363.16 278.07 362.04 280.74C361.46 282.08 360.85 283.7 360.22 285.54C359.61 287.39 359.01 289.46 358.44 291.7C357.92 293.96 357.37 296.39 356.98 298.95C356.58 301.5 356.26 304.2 356.06 306.97C355.64 312.53 355.71 318.4 356.21 324.23C356.74 330.07 357.68 335.86 359.04 341.26C360.38 346.65 362.14 351.65 364 355.91C365.85 360.16 367.82 363.67 369.38 366.1C369.93 366.96 370.43 367.7 370.86 368.27C358.75 380.59 345.88 392.12 332.18 402.59C332.4 402.09 332.65 401.54 332.92 400.91C334.04 398.24 335.37 394.45 336.47 389.94C337.58 385.43 338.45 380.22 338.87 374.67C339.29 369.12 339.23 363.25 338.75 357.4C338.24 351.56 337.31 345.77 335.94 340.36C335.27 337.68 334.51 335.07 333.67 332.62C332.85 330.17 331.9 327.86 331 325.73C330.06 323.6 329.12 321.66 328.19 319.96C327.27 318.25 326.39 316.76 325.59 315.53C324.03 313.11 322.86 311.73 322.86 311.73C322.86 311.73 321.94 313.27 320.82 315.95C320.25 317.28 319.64 318.9 319.01 320.75C318.4 322.6 317.79 324.67 317.24 326.92C316.7 329.17 316.16 331.6 315.78 334.16C315.37 336.72 315.05 339.42 314.85 342.19C314.44 347.73 314.51 353.6 315 359.44C315.52 365.28 316.46 371.08 317.82 376.48C319.17 381.87 320.92 386.87 322.78 391.11C324.64 395.36 326.6 398.86 328.16 401.3C328.93 402.51 329.61 403.46 330.09 404.11C324.82 408.09 319.44 411.92 313.92 415.56C307.16 420.03 300.1 424.51 292.81 428.64C293.11 428.02 293.46 427.26 293.83 426.36C294.97 423.68 296.3 419.9 297.38 415.4C298.5 410.9 299.38 405.67 299.78 400.14C300.21 394.58 300.15 388.71 299.66 382.87C299.16 377.03 298.24 371.25 296.88 365.85C296.21 363.14 295.43 360.54 294.59 358.09C293.77 355.64 292.82 353.33 291.92 351.2C290.99 349.09 290.04 347.14 289.11 345.43C288.18 343.72 287.3 342.23 286.52 341.02C284.96 338.58 283.79 337.21 283.79 337.21C283.79 337.21 282.87 338.76 281.73 341.42C281.17 342.76 280.55 344.38 279.93 346.22C279.31 348.07 278.72 350.14 278.14 352.39C277.62 354.64 277.07 357.09 276.7 359.63C276.29 362.19 275.97 364.88 275.77 367.65C275.35 373.21 275.43 379.07 275.92 384.91C276.46 390.74 277.37 396.54 278.75 401.95C280.09 407.34 281.86 412.33 283.7 416.58C285.56 420.84 287.53 424.33 289.1 426.78C289.88 428.02 290.57 428.99 291.06 429.64C280.36 435.59 269.17 440.73 257.65 443.89C255.19 444.58 256.34 448.38 258.8 447.7L258.85 447.66Z" fill="#C8C1E8"/>
<path d="M184.38 96.8001C189.12 96.8001 192.97 100.64 192.97 105.39C192.97 106.97 194.25 108.25 195.83 108.25C197.41 108.25 198.69 106.97 198.69 105.39C198.69 97.4901 192.28 91.0801 184.38 91.0801C182.8 91.0801 181.52 92.3601 181.52 93.9401C181.52 95.5201 182.8 96.8001 184.38 96.8001Z" fill="#8C64F0"/>
<path d="M184.38 85.3501C195.45 85.3501 204.41 94.3201 204.41 105.38C204.41 106.96 205.69 108.24 207.27 108.24C208.85 108.24 210.13 106.96 210.13 105.38C210.13 91.1501 198.6 79.6201 184.37 79.6201C182.79 79.6201 181.51 80.9001 181.51 82.4801C181.51 84.0601 182.79 85.3401 184.37 85.3401L184.38 85.3501Z" fill="#8C64F0"/>
<path d="M209.42 119.44C209.1 118.51 208.32 117.8 207.36 117.58L190.19 113.66C189.24 113.45 188.25 113.73 187.56 114.4C187.16 114.77 187.13 114.8 185.27 118.35C179.1 115.51 174.15 110.54 171.33 104.35C174.96 102.52 174.99 102.52 175.37 102.09C176.05 101.4 176.33 100.4 176.11 99.4601L172.19 82.4901C171.97 81.5301 171.26 80.7501 170.33 80.4301C169.66 80.1901 168.97 80.0201 168.27 79.9101C167.55 79.7401 166.81 79.6501 166.07 79.6201C158.8 79.6201 152.9 85.5101 152.9 92.7901C152.93 117.12 172.65 136.84 196.98 136.87C204.25 136.87 210.15 130.98 210.15 123.7C210.15 122.97 210.09 122.24 209.98 121.52C209.86 120.81 209.68 120.11 209.44 119.43L209.42 119.44Z" fill="#454975"/>
<path d="M349.67 104.83H314.5C307.21 104.83 301.25 98.8701 301.25 91.5801C301.25 84.2901 307.21 78.3301 314.5 78.3301H349.67C356.96 78.3301 362.92 84.2901 362.92 91.5801C362.92 98.8701 356.96 104.83 349.67 104.83Z" fill="#454975"/>
<path d="M352.969 108.9C352.969 110.52 351.659 111.83 350.039 111.83C348.419 111.83 347.109 110.52 347.109 108.9C347.109 107.28 348.419 105.97 350.039 105.97C351.659 105.97 352.969 107.28 352.969 108.9Z" fill="#454975"/>
<path d="M324.4 91.2199C324.4 93.3399 322.68 95.0599 320.56 95.0599C318.44 95.0599 316.72 93.3399 316.72 91.2199C316.72 89.0999 318.44 87.3799 320.56 87.3799C322.68 87.3799 324.4 89.0999 324.4 91.2199Z" fill="white"/>
<path d="M335.93 91.2199C335.93 93.3399 334.21 95.0599 332.09 95.0599C329.97 95.0599 328.25 93.3399 328.25 91.2199C328.25 89.0999 329.97 87.3799 332.09 87.3799C334.21 87.3799 335.93 89.0999 335.93 91.2199Z" fill="white"/>
<path d="M347.46 91.2199C347.46 93.3399 345.74 95.0599 343.62 95.0599C341.5 95.0599 339.78 93.3399 339.78 91.2199C339.78 89.0999 341.5 87.3799 343.62 87.3799C345.74 87.3799 347.46 89.0999 347.46 91.2199Z" fill="white"/>
<path d="M298.41 135.62H333.58C340.87 135.62 346.83 129.66 346.83 122.37C346.83 115.08 340.87 109.12 333.58 109.12H298.41C291.12 109.12 285.16 115.08 285.16 122.37C285.16 129.66 291.12 135.62 298.41 135.62Z" fill="#8C64F0"/>
<path d="M295.1 139.69C295.1 141.31 296.41 142.62 298.03 142.62C299.65 142.62 300.96 141.31 300.96 139.69C300.96 138.07 299.65 136.76 298.03 136.76C296.41 136.76 295.1 138.07 295.1 139.69Z" fill="#8C64F0"/>
<path d="M308.3 122.13C308.3 124.25 306.58 125.97 304.46 125.97C302.34 125.97 300.62 124.25 300.62 122.13C300.62 120.01 302.34 118.29 304.46 118.29C306.58 118.29 308.3 120.01 308.3 122.13Z" fill="white"/>
<path d="M319.829 122.13C319.829 124.25 318.109 125.97 315.989 125.97C313.869 125.97 312.149 124.25 312.149 122.13C312.149 120.01 313.869 118.29 315.989 118.29C318.109 118.29 319.829 120.01 319.829 122.13Z" fill="white"/>
<path d="M331.36 122.13C331.36 124.25 329.64 125.97 327.52 125.97C325.4 125.97 323.68 124.25 323.68 122.13C323.68 120.01 325.4 118.29 327.52 118.29C329.64 118.29 331.36 120.01 331.36 122.13Z" fill="white"/>
<path d="M246.63 214.7C245.41 217.84 243.37 220.36 240.97 221.99C237.9 224.1 234.24 224.77 230.93 223.49C225.03 221.21 222.49 213.55 225.27 206.41C228.03 199.27 235.06 195.33 240.97 197.62C241 197.63 241.04 197.64 241.07 197.66C246.91 200 249.4 207.6 246.65 214.69L246.63 214.7Z" fill="#A6AFE2"/>
<path d="M101.91 204.04C108.09 213.46 126.08 240.82 136.17 255.65C128.52 269.97 112.5 277.89 112.5 277.89C112.5 277.89 104.22 255.73 99.8602 243.73C95.5002 231.73 92.1202 222.39 92.2502 216.26C92.2702 215.41 92.9602 215.13 93.4302 215.03L92.7702 213.84C91.9702 212.39 92.5402 210.56 94.0302 209.82C94.9802 209.35 96.0502 209.48 96.8802 210.02L95.6602 208.04C94.6502 206.41 95.0502 204.27 96.5902 203.12C98.3002 201.84 100.73 202.25 101.9 204.04H101.91Z" fill="#FFB8B8"/>
<path d="M107.65 242.09C107.84 234.64 114.51 228.76 117.06 227.12L117.95 228.5C114.68 230.6 109.44 236.15 109.29 242.13L107.65 242.09Z" fill="#F18B8B"/>
<path d="M96.9803 209.985L96.272 210.398L105.904 226.915L106.612 226.502L96.9803 209.985Z" fill="#F18B8B"/>
<path d="M93.5137 215.121L92.7744 215.476L100.429 231.424L101.168 231.069L93.5137 215.121Z" fill="#F18B8B"/>
<path d="M270.45 228.42L270.49 229.05L270.86 248.27L271.8 297.08L213.36 281.37L241.51 262.85L241.23 255.5L240.28 229.97C239.94 221.68 246.36 214.66 254.65 214.24C262.96 213.85 269.98 220.22 270.47 228.42H270.45Z" fill="#FFB8B8"/>
<path d="M270.45 228.42L270.49 229.05L270.86 248.27C267.84 249.89 264.7 251.29 261.55 252.55C256.48 254.58 251.98 256.01 246.5 256.02C244.74 256.02 242.91 256 241.23 255.5L240.28 229.97C239.94 221.68 246.36 214.66 254.65 214.24C262.96 213.85 269.98 220.22 270.47 228.42H270.45Z" fill="#F18B8B"/>
<path d="M282.9 218.42C278.57 228.9 275.31 232.98 271.75 231.86C261.5 249.41 247.4 256.02 234.82 252.61C224.61 249.87 225.14 235 228 221.53C228.68 218.42 229.47 215.36 230.27 212.56C231.6 208 233.79 201.73 236.85 194.7C228.77 169.65 253.03 164.16 269.04 182.41C269.89 181.78 270.81 181.31 271.76 181.07C275.99 179.87 280.74 183.02 284.3 194.68C291.62 202.71 287.24 207.93 282.89 218.41L282.9 218.42Z" fill="#454975"/>
<path d="M277.19 194.01C275.86 191.55 273.4 188.5 269.05 182.41C269.9 181.78 270.82 181.31 271.77 181.07C273.87 185.01 276.86 191.15 277.19 194.01Z" fill="#3B3E63"/>
<path d="M279.55 222.03C274.64 231.92 267.03 227.47 266.35 223.5C262.37 229.3 259.79 230.79 258.02 230.97C256.25 231.16 251.32 228.04 249.2 227.36C247.06 226.65 236.39 229.75 228.04 221.55L228.01 221.53C228.69 218.42 229.48 215.36 230.28 212.56C231.61 208 233.8 201.73 236.86 194.7C241.39 188.95 255.22 177.87 271.41 206.39C270.11 211.89 269.19 216.12 268.02 218.94C275.92 209.4 284.47 212.16 279.56 222.02L279.55 222.03Z" fill="#FFB8B8"/>
<path d="M269.23 220.679C269.59 219.729 270.13 218.849 270.83 218.099C271.5 217.329 272.33 216.679 273.26 216.199C274.19 215.719 275.25 215.389 276.37 215.449C276.92 215.459 277.5 215.609 277.99 215.929C278.48 216.239 278.84 216.809 278.76 217.339C278.46 216.899 278.06 216.719 277.66 216.669C277.26 216.599 276.85 216.649 276.43 216.729C275.6 216.919 274.79 217.249 274 217.659C273.21 218.059 272.43 218.549 271.65 219.059C270.86 219.569 270.11 220.149 269.21 220.679H269.23Z" fill="#F18B8B"/>
<path d="M270.22 219.58C270.59 219.13 271.15 218.82 271.73 218.67C272.31 218.52 272.94 218.51 273.55 218.67C274.15 218.83 274.74 219.16 275.11 219.7C275.49 220.23 275.57 220.9 275.42 221.46C275.08 220.32 274.32 219.7 273.34 219.47C272.86 219.34 272.35 219.3 271.82 219.32C271.3 219.35 270.77 219.41 270.22 219.59V219.58Z" fill="#F18B8B"/>
<path d="M241.64 209.47C236.74 215.89 230.92 218.6 230.18 220.31C229.44 222.02 231.99 225.38 238.32 226.53C242.07 224.16 239.03 220.27 241.64 209.47Z" fill="#F18B8B"/>
<path d="M253.55 212.09C253.64 213.59 252.72 214.87 251.5 214.95C250.28 215.02 249.21 213.86 249.12 212.36C249.03 210.86 249.95 209.58 251.17 209.5C252.39 209.43 253.46 210.59 253.55 212.09Z" fill="#454975"/>
<path d="M237.69 210.599C237.41 212.079 236.2 213.089 235 212.859C233.8 212.629 233.05 211.239 233.33 209.759C233.61 208.279 234.82 207.269 236.02 207.499C237.22 207.729 237.97 209.119 237.69 210.599Z" fill="#454975"/>
<path d="M254.07 198.519C258.49 198.649 260.58 203.869 261.25 206.709C261.58 208.109 260.65 208.489 259.91 207.179C258.99 205.569 256.5 202.659 253.69 201.549C251.7 200.759 252.36 198.469 254.08 198.519H254.07Z" fill="#454975"/>
<path d="M241.44 196.349C237.71 194.819 234.59 197.469 233.01 199.679C232.18 200.849 232.8 202.009 234.06 201.189C235.61 200.179 237.39 198.929 240.41 199.219C242.54 199.419 243.03 196.999 241.44 196.349Z" fill="#454975"/>
<path d="M201.22 416.21C214.62 420.92 228.44 423.76 251.39 421.6C264.8 378.29 266.95 274.26 267.39 268.46C256.88 272.5 243.9 274.85 238.41 262.06C212.11 291.71 201.06 337.01 201.21 416.21H201.22Z" fill="white"/>
<path d="M271.03 257.37C256.82 265.57 247.87 290.48 245.51 328.53C243.15 366.58 240.23 401.35 241.19 412.7C242.16 424.05 245.54 442.38 265.88 444.01C286.22 445.64 316.22 446.69 316.22 446.69C316.22 446.69 292.3 299.86 291.49 291.07C290.68 282.28 287.74 268.5 271.02 257.37H271.03Z" fill="#6569A8"/>
<path d="M440.18 421.199C430.82 414.939 403.61 396.709 388.87 386.489C374.49 394.009 366.42 409.959 366.42 409.959C366.42 409.959 388.51 418.439 400.47 422.909C412.43 427.379 421.74 430.839 427.87 430.759C428.72 430.749 429.01 430.059 429.11 429.589L430.3 430.259C431.75 431.079 433.58 430.519 434.33 429.029C434.8 428.089 434.69 427.009 434.16 426.169L436.13 427.409C437.76 428.429 439.89 428.049 441.06 426.519C442.36 424.819 441.96 422.389 440.19 421.199H440.18Z" fill="#FFB8B8"/>
<path d="M396.5 392.569L429.98 401.199C431.92 401.699 433.1 403.639 432.66 405.589C432.2 407.629 430.14 408.879 428.12 408.349L408.11 403.139C408.11 403.139 392.26 400.419 396.49 392.569H396.5Z" fill="#FFB8B8"/>
<path d="M406.19 414.439C404.92 414.849 403.58 415.099 402.18 415.119L402.15 413.479C408.13 413.379 413.73 408.189 415.85 404.949L417.22 405.849C415.87 407.909 411.69 412.669 406.17 414.449L406.19 414.439Z" fill="#F18B8B"/>
<path d="M417.741 416.287L417.322 416.992L433.754 426.768L434.173 426.063L417.741 416.287Z" fill="#F18B8B"/>
<path d="M413.125 421.688L412.764 422.424L428.645 430.217L429.006 429.481L413.125 421.688Z" fill="#F18B8B"/>
<path d="M271.03 257.369C289.4 270.379 295.1 279.729 300.62 291.089C306.15 302.449 326.92 339.699 333.09 347.589C339.27 355.489 388.87 386.479 388.87 386.479L362.38 415.719C362.38 415.719 311.6 393.349 301.85 382.819C292.09 372.279 270.53 333.099 271.03 257.359V257.369Z" fill="#6569A8"/>
<path d="M241.37 259.74L241.56 264.61C230.47 276.81 221.87 298.3 217.13 325.88C211.74 357.11 209.67 390.32 209.46 417.81C209.34 436.72 191.86 436.48 183.22 430.03C185.06 405.14 192.26 345.07 196.16 326.72C199.9 309.14 207.48 258.06 241.38 259.75L241.37 259.74Z" fill="#6569A8"/>
<path d="M241.39 260.05L241.45 261.44C223.9 268.31 214.54 301.51 214.54 301.51C214.54 301.51 203.61 335.82 193.58 343.74C174.12 359.13 159.61 355.05 148.65 343.41C142.86 337.26 106.33 278.96 106.33 278.96L136.21 255.26L170.05 300.71C170.05 300.71 198.76 280.22 209.58 272.25C219.35 265.03 227.66 259.92 241.38 260.04L241.39 260.05Z" fill="#6569A8"/>
<path d="M276.327 324.916L274.799 325.512L293.204 372.742L294.732 372.147L276.327 324.916Z" fill="#BB4344"/>
<path d="M202.411 305.439L194.414 330.756L195.978 331.25L203.975 305.933L202.411 305.439Z" fill="#DAD4F8"/>
<path d="M104.74 222.94L74.0601 192.26V218.54C74.0601 223.62 78.1801 227.74 83.2601 227.74H126.21C131.29 227.74 135.41 223.62 135.41 218.54V192.26L104.73 222.94H104.74Z" fill="#3E4169"/>
<path d="M135.42 192.27V187.87C135.42 182.79 131.3 178.67 126.22 178.67H83.2698C78.1898 178.67 74.0698 182.79 74.0698 187.87V192.27L104.75 222.95L135.43 192.27H135.42Z" fill="#454975"/>
<path d="M129.54 195.92C135.781 195.92 140.84 190.861 140.84 184.62C140.84 178.379 135.781 173.32 129.54 173.32C123.299 173.32 118.24 178.379 118.24 184.62C118.24 190.861 123.299 195.92 129.54 195.92Z" fill="#8C64F0"/>
<path d="M101.22 207.359H81.0801V211.859H101.22V207.359Z" fill="#A6AFE2"/>
<path d="M130.15 247.969L121.82 214.409C121.34 212.469 119.4 211.259 117.45 211.689C115.41 212.129 114.14 214.179 114.65 216.199L119.69 236.249C119.69 236.249 122.27 252.119 130.16 247.969H130.15Z" fill="#FFB8B8"/>
<path d="M242.22 230.12C242.21 230.17 242.22 230.23 242.2 230.28C240.98 239.98 229.42 240.97 228.57 229.12C228.51 228.51 228.49 227.85 228.51 227.17C231.7 227.29 239.38 229.24 242.22 230.12Z" fill="#F18B8B"/>
<path d="M242.22 230.12C242.21 230.17 242.22 230.23 242.2 230.28C240.89 230.61 239.47 230.82 237.96 230.9C234.17 231.09 230.74 230.38 228.57 229.13C228.51 228.52 228.49 227.86 228.51 227.18C231.7 227.3 239.38 229.25 242.22 230.13V230.12Z" fill="#F3EDFF"/>
<path d="M284.82 223.63C283.6 226.77 281.56 229.29 279.16 230.92C276.09 233.03 272.43 233.7 269.12 232.42C263.22 230.14 260.68 222.48 263.46 215.34C266.22 208.2 273.25 204.26 279.16 206.55C279.19 206.56 279.23 206.57 279.26 206.59C285.1 208.93 287.59 216.53 284.84 223.62L284.82 223.63Z" fill="#A6AFE2"/>
<path d="M275.5 206.72C280 200.39 274.9 188.15 269.04 182.41C269.04 182.41 266.92 180.1 266.21 179.54C267.53 179.56 268.01 179.79 269.35 180.82C270.69 181.84 288.49 192.61 281.68 209.12C281.68 209.12 275.85 208.16 275.5 206.73V206.72Z" fill="#A6AFE2"/>
<path d="M284.82 223.63C283.6 226.77 281.56 229.29 279.16 230.92C270.91 232.78 264.43 224.51 270.08 214.75C272.56 210.48 275.85 207.86 279.24 206.59C285.08 208.93 287.57 216.53 284.82 223.62V223.63Z" fill="#BBC3ED"/>
<path d="M268.08 226.5C263.09 231.49 253.29 232.03 245.54 232.15C244.79 232.16 244.18 232.74 244.13 233.49C244.07 234.35 244.78 235.06 245.64 235.02C257.42 234.37 264.74 233.62 269.74 228.26L268.08 226.5Z" fill="#A6AFE2"/>
<path d="M245.58 236.56C247.253 236.56 248.61 235.203 248.61 233.53C248.61 231.857 247.253 230.5 245.58 230.5C243.906 230.5 242.55 231.857 242.55 233.53C242.55 235.203 243.906 236.56 245.58 236.56Z" fill="#8C64F0"/>
<path d="M150.23 143.35C156.41 143.35 161.42 138.34 161.42 132.16C161.42 125.98 156.41 120.97 150.23 120.97C144.05 120.97 139.04 125.98 139.04 132.16C139.04 138.34 144.05 143.35 150.23 143.35Z" fill="#DAD4F8"/>
<path d="M267.9 96.9797C267.9 99.5097 265.85 101.57 263.31 101.57C260.77 101.57 258.72 99.5197 258.72 96.9797C258.72 94.4397 260.77 92.3896 263.31 92.3896C265.85 92.3896 267.9 94.4397 267.9 96.9797Z" fill="#DAD4F8"/>
<path d="M216.87 164.95C218.681 164.95 220.15 163.481 220.15 161.67C220.15 159.858 218.681 158.39 216.87 158.39C215.058 158.39 213.59 159.858 213.59 161.67C213.59 163.481 215.058 164.95 216.87 164.95Z" fill="#DAD4F8"/>
<path d="M311.68 265.2C311.68 267.19 310.07 268.81 308.07 268.81C306.07 268.81 304.46 267.2 304.46 265.2C304.46 263.2 306.07 261.59 308.07 261.59C310.07 261.59 311.68 263.2 311.68 265.2Z" fill="#DAD4F8"/>
<path d="M329.9 332.59V402.02C329.9 408.88 324.34 414.45 317.47 414.45H194.26C187.4 414.45 181.85 408.88 181.85 402.02V332.59C181.85 325.73 187.41 320.16 194.26 320.16H317.47C324.34 320.16 329.9 325.73 329.9 332.59Z" fill="#454975"/>
<path d="M288.339 414.45H243.709L242.129 362.24H269.609L288.339 414.45Z" fill="#393C61"/>
<path d="M302.539 436.46H279.239L269.609 362.24H242.129L232.499 436.46H209.199C207.269 436.46 205.709 438.02 205.709 439.95V443.38H306.009V439.95C306.009 438.02 304.449 436.46 302.519 436.46H302.539ZM265.939 399.44C265.939 405 261.429 409.51 255.869 409.51C250.309 409.51 245.799 405 245.799 399.44V395.24C245.799 389.68 250.309 385.17 255.869 385.17C261.429 385.17 265.939 389.68 265.939 395.24V399.44Z" fill="#A6AFE2"/>
<path d="M255.75 397.93C232.54 397.93 240.64 426.62 240.64 442.7" stroke="#F3EDFF" stroke-width="2.17" stroke-miterlimit="10"/>
<path d="M370.64 177.36C365.36 177.36 360.37 178.02 355.94 179.19C353.67 179.79 352.08 181.83 352.08 184.18V222.79C352.08 226.07 355.11 228.49 358.32 227.81C362.13 227 366.29 226.55 370.65 226.55C377.52 226.55 383.92 227.66 389.23 229.57V180.39C383.92 178.48 377.52 177.37 370.65 177.37L370.64 177.36Z" fill="#454975"/>
<path d="M407.79 177.36C400.92 177.36 394.52 178.47 389.21 180.38V229.56C394.52 227.65 400.92 226.54 407.79 226.54C412.14 226.54 416.3 226.99 420.12 227.8C423.33 228.48 426.36 226.07 426.36 222.78V184.17C426.36 181.82 424.77 179.78 422.5 179.18C418.06 178.01 413.07 177.35 407.8 177.35L407.79 177.36Z" fill="#3E4169"/>
<path d="M425.34 448.11H72.5697C71.2397 448.11 70.1597 447.02 70.1597 445.7C70.1597 444.37 71.2497 443.28 72.5697 443.28H425.34C426.67 443.28 427.75 444.37 427.75 445.7C427.75 447.03 426.66 448.11 425.34 448.11Z" fill="#454975"/>
</g>
<defs>
<clipPath id="clip0_301_11779">
<rect width="500" height="500" fill="white"/>
</clipPath>
</defs>
</svg>
