<svg width="402" height="515" viewBox="0 0 402 515" fill="none" xmlns="http://www.w3.org/2000/svg">
<g clip-path="url(#clip0_335_12514)">
<path d="M0.000152588 473.495H44.2656V473.852H0.000152588V473.495Z" fill="#EBEBEB"/>
<path d="M67.3192 477.378H78.9336V477.735H67.3192V477.378Z" fill="#EBEBEB"/>
<path d="M45.6022 460.245H71.25V460.602H45.6022V460.245Z" fill="#EBEBEB"/>
<path d="M344.079 462.644H401.804V463.001H344.079V462.644Z" fill="#EBEBEB"/>
<path d="M323.711 462.644H332.171V463.001H323.711V462.644Z" fill="#EBEBEB"/>
<path d="M171 468.669H296.205V469.026H171V468.669Z" fill="#EBEBEB"/>
<path d="M101.039 120.508L101.105 120.622L101.065 120.608L101.039 120.508Z" fill="#F0F0F0"/>
<path d="M155.301 277.191L153.243 281.66L148.618 282.374L151.96 285.858L151.171 290.769L155.301 288.442L159.431 290.769L158.642 285.858L161.983 282.374L157.359 281.66L155.301 277.191Z" fill="#8C64F0"/>
<path d="M282.217 52.7751L280.159 57.2441L275.534 57.9579L278.876 61.4417L278.087 66.3389L282.217 64.0259L286.347 66.3389L285.558 61.4417L288.899 57.9579L284.275 57.2441L282.217 52.7751Z" fill="#8C64F0"/>
<path d="M376.228 199.664L374.169 204.118L369.558 204.846L372.886 208.316L372.111 213.227L376.228 210.914L380.357 213.227L379.569 208.316L382.91 204.846L378.299 204.118L376.228 199.664Z" fill="#8C64F0"/>
<path d="M198.765 137.185L197.495 139.954L194.635 140.397L196.706 142.539L196.212 145.58L198.765 144.138L201.317 145.58L200.823 142.539L202.895 140.397L200.048 139.954L198.765 137.185Z" fill="#8C64F0"/>
<path d="M148.129 172.084L146.859 174.854L143.999 175.297L146.071 177.438L145.576 180.48L148.129 179.037L150.682 180.48L150.187 177.438L152.259 175.297L149.412 174.854L148.129 172.084Z" fill="#8C64F0"/>
<path d="M120.432 361.772L119.162 364.542L116.302 364.984L118.373 367.126L117.879 370.167L120.432 368.725L122.984 370.167L122.503 367.126L124.562 364.984L121.715 364.542L120.432 361.772Z" fill="#8C64F0"/>
<path d="M19.2168 208.145L17.9471 210.914L15.087 211.357L17.1586 213.499L16.6641 216.54L19.2168 215.098L21.7696 216.54L21.2751 213.499L23.3467 211.357L20.4865 210.914L19.2168 208.145Z" fill="#8C64F0"/>
<path d="M193.365 311.929L192.096 314.699L189.235 315.141L191.307 317.283L190.813 320.324L193.365 318.896L195.918 320.324L195.437 317.283L197.495 315.141L194.648 314.699L193.365 311.929Z" fill="#8C64F0"/>
<path d="M225.803 75.1338L224.52 77.9037L221.673 78.3463L223.731 80.4879L223.25 83.5291L225.803 82.087L228.356 83.5291L227.861 80.4879L229.933 78.3463L227.072 77.9037L225.803 75.1338Z" fill="#8C64F0"/>
<path d="M359.829 270.095L359.08 271.709L357.423 271.966L358.626 273.208L358.345 274.978L359.829 274.15L361.312 274.978L361.032 273.208L362.234 271.966L360.564 271.709L359.829 270.095Z" fill="#8C64F0"/>
<path d="M182.633 72.7637L181.885 74.377L180.227 74.634L181.43 75.8905L181.136 77.6466L182.633 76.8185L184.117 77.6466L183.823 75.8905L185.025 74.634L183.368 74.377L182.633 72.7637Z" fill="#8C64F0"/>
<path d="M245.115 391.27L244.366 392.869L242.709 393.126L243.912 394.383L243.631 396.153L245.115 395.311L246.598 396.153L246.318 394.383L247.521 393.126L245.85 392.869L245.115 391.27Z" fill="#8C64F0"/>
<path d="M84.773 315.669L84.0379 317.269L82.3672 317.526L83.5701 318.782L83.2894 320.552L84.773 319.71L86.2565 320.552L85.9758 318.782L87.1787 317.526L85.5214 317.269L84.773 315.669Z" fill="#8C64F0"/>
<path d="M44.4048 172.084L43.6563 173.683L41.9991 173.94L43.2019 175.197L42.9213 176.953L44.4048 176.125L45.8883 176.953L45.6077 175.197L46.8105 173.94L45.1533 173.683L44.4048 172.084Z" fill="#8C64F0"/>
<path d="M207.025 247.822L206.276 249.421L204.619 249.678L205.822 250.935L205.541 252.705L207.025 251.863L208.508 252.705L208.227 250.935L209.417 249.678L207.76 249.421L207.025 247.822Z" fill="#8C64F0"/>
<path d="M364.546 91.5815L361.9 97.3354L355.952 98.2492L360.256 102.732L359.24 109.043L364.546 106.059L369.865 109.043L368.85 102.732L373.153 98.2492L367.206 97.3354L364.546 91.5815Z" fill="#8C64F0"/>
<g opacity="0.7">
<path d="M155.301 277.191L153.243 281.66L148.618 282.374L151.96 285.858L151.171 290.769L155.301 288.442L159.431 290.769L158.642 285.858L161.983 282.374L157.359 281.66L155.301 277.191Z" fill="white"/>
<path d="M282.217 52.7751L280.159 57.2441L275.534 57.9579L278.876 61.4417L278.087 66.3389L282.217 64.0259L286.347 66.3389L285.558 61.4417L288.899 57.9579L284.275 57.2441L282.217 52.7751Z" fill="white"/>
<path d="M376.228 199.664L374.169 204.118L369.558 204.846L372.886 208.316L372.111 213.227L376.228 210.914L380.357 213.227L379.569 208.316L382.91 204.846L378.299 204.118L376.228 199.664Z" fill="white"/>
<path d="M198.765 137.185L197.495 139.954L194.635 140.397L196.706 142.539L196.212 145.58L198.765 144.138L201.317 145.58L200.823 142.539L202.895 140.397L200.048 139.954L198.765 137.185Z" fill="white"/>
<path d="M148.13 172.084L146.86 174.854L144 175.297L146.072 177.438L145.577 180.48L148.13 179.037L150.683 180.48L150.188 177.438L152.26 175.297L149.413 174.854L148.13 172.084Z" fill="white"/>
<path d="M120.432 361.772L119.162 364.542L116.302 364.984L118.373 367.126L117.879 370.167L120.432 368.725L122.984 370.167L122.503 367.126L124.562 364.984L121.715 364.542L120.432 361.772Z" fill="white"/>
<path d="M19.2168 208.145L17.9471 210.914L15.087 211.357L17.1586 213.499L16.6641 216.54L19.2168 215.098L21.7696 216.54L21.2751 213.499L23.3467 211.357L20.4865 210.914L19.2168 208.145Z" fill="white"/>
<path d="M193.365 311.929L192.096 314.699L189.235 315.141L191.307 317.283L190.813 320.324L193.365 318.896L195.918 320.324L195.437 317.283L197.495 315.141L194.648 314.699L193.365 311.929Z" fill="white"/>
<path d="M225.803 75.1338L224.52 77.9037L221.673 78.3463L223.731 80.4879L223.25 83.5291L225.803 82.087L228.356 83.5291L227.861 80.4879L229.933 78.3463L227.072 77.9037L225.803 75.1338Z" fill="white"/>
<path d="M359.829 270.095L359.08 271.709L357.423 271.966L358.626 273.208L358.345 274.978L359.829 274.15L361.312 274.978L361.032 273.208L362.234 271.966L360.564 271.709L359.829 270.095Z" fill="white"/>
<path d="M182.633 72.7637L181.885 74.377L180.227 74.634L181.43 75.8905L181.136 77.6466L182.633 76.8185L184.117 77.6466L183.823 75.8905L185.025 74.634L183.368 74.377L182.633 72.7637Z" fill="white"/>
<path d="M245.115 391.27L244.366 392.869L242.709 393.126L243.912 394.383L243.631 396.153L245.115 395.311L246.598 396.153L246.318 394.383L247.521 393.126L245.85 392.869L245.115 391.27Z" fill="white"/>
<path d="M84.773 315.669L84.0379 317.269L82.3672 317.526L83.5701 318.782L83.2894 320.552L84.773 319.71L86.2565 320.552L85.9758 318.782L87.1787 317.526L85.5214 317.269L84.773 315.669Z" fill="white"/>
<path d="M44.4048 172.084L43.6563 173.683L41.9991 173.94L43.2019 175.197L42.9213 176.953L44.4048 176.125L45.8883 176.953L45.6077 175.197L46.8105 173.94L45.1533 173.683L44.4048 172.084Z" fill="white"/>
<path d="M207.025 247.822L206.276 249.421L204.619 249.678L205.822 250.935L205.541 252.705L207.025 251.863L208.508 252.705L208.227 250.935L209.417 249.678L207.76 249.421L207.025 247.822Z" fill="white"/>
<path d="M364.546 91.5815L361.9 97.3354L355.952 98.2492L360.256 102.732L359.24 109.043L364.546 106.059L369.865 109.043L368.85 102.732L373.153 98.2492L367.206 97.3354L364.546 91.5815Z" fill="white"/>
</g>
<path d="M201 513C89.9908 513 0 505.837 0 497C0 488.163 89.9908 481 201 481C312.009 481 402 488.163 402 497C402 505.837 312.009 513 201 513Z" fill="#F5F5F5"/>
<path d="M139.784 203.69L130.509 203.362C130.509 203.362 128.731 202.077 127.275 201.777C125.818 201.477 112.105 208.473 111.864 208.973C111.637 209.473 117.358 219.167 118.293 219.239C119.229 219.31 129.72 213.228 130.749 212.571C131.779 211.914 132.273 210.629 132.273 210.629L141.321 211.857L139.784 203.69Z" fill="#E4897B"/>
<path d="M134.185 212.357C134.185 212.357 171.581 220.224 180.749 217.582C185.24 216.283 194.836 213.028 203.484 210.044C209.231 208.045 214.55 206.175 217.651 205.075C219.428 204.447 220.471 204.076 220.471 204.076L214.189 193.696L209.765 186.386C200.102 190.526 181.779 203.705 176.138 204.076C170.498 204.447 136.31 201.22 136.31 201.22L134.185 212.357Z" fill="#8C64F0"/>
<path opacity="0.3" d="M203.483 210.043C209.23 208.045 214.55 206.174 217.65 205.075L214.189 193.696C214.189 193.696 204.446 201.334 203.483 210.043Z" fill="black"/>
<path d="M327.004 477.45L341.278 491.199L353.521 489.629L337.028 470.297L327.004 477.45Z" fill="#E4897B"/>
<path d="M90.2266 477.721L74.4422 489.429L62.4804 486.216L81.1248 469.269L90.2266 477.721Z" fill="#E4897B"/>
<path d="M331.589 362.986C332.992 372.78 321.364 389.728 321.364 389.728L292.108 346.424V389.728C292.108 389.728 267.449 380.319 257.572 364.499C247.695 348.68 223.999 303.519 225.215 288.271C226.431 273.022 247.602 233.958 247.602 233.958L305.5 288.271C305.5 288.271 327.713 335.887 331.589 363V362.986Z" fill="#8C64F0"/>
<path opacity="0.3" d="M331.589 362.986C332.992 372.78 321.364 389.728 321.364 389.728L292.108 346.424V389.728C292.108 389.728 267.449 380.319 257.572 364.499C247.695 348.68 223.999 303.519 225.215 288.271C226.431 273.022 247.602 233.958 247.602 233.958L305.5 288.271C305.5 288.271 327.713 335.887 331.589 363V362.986Z" fill="black"/>
<path d="M254.19 168.881C249.178 169.253 235.599 171.466 231.884 176.548C228.168 181.631 227.112 194.767 235.171 200.135C243.231 205.504 259.643 189.784 259.496 179.647C259.349 169.51 254.19 168.896 254.19 168.896V168.881Z" fill="#263238"/>
<path d="M73.1327 476.022L84.8406 487.244C84.8406 487.244 165.593 426.464 221.112 368.183C232.873 355.847 243.499 343.611 251.986 332.103C251.986 332.103 250.649 394.225 251.986 405.905C253.335 417.569 335.104 487.244 335.104 487.244L346.384 475.565C346.384 475.565 282.231 407.404 280.828 397.238C279.411 387.072 292.816 336.615 296.331 309.502C299.86 282.388 286.815 245.866 286.815 245.866L232.539 251.12L228.663 282.774C228.663 282.774 164.711 387.229 73.1327 476.022Z" fill="#263238"/>
<path d="M340.356 488.815H353.908C354.363 488.815 354.764 489.158 354.857 489.629L357.049 500.237C357.236 501.194 356.675 502.122 355.779 502.322C355.659 502.35 355.539 502.364 355.418 502.364C351.035 502.293 347.84 502.008 342.334 502.008C338.939 502.008 328.715 502.393 324.037 502.393C319.359 502.393 318.744 497.453 320.656 496.996C329.249 494.997 335.718 492.227 338.471 489.586C338.979 489.086 339.648 488.815 340.343 488.829L340.356 488.815Z" fill="#263238"/>
<path d="M62.8186 483.09L75.0745 489.243C75.4888 489.457 75.7027 489.943 75.6091 490.414L73.3771 501.008C73.1633 501.95 72.2812 502.536 71.399 502.322C71.2788 502.293 71.1719 502.25 71.0516 502.193C67.1222 500.137 64.3423 498.424 59.357 495.911C56.2831 494.369 46.8873 490.057 42.6506 487.93C38.4138 485.802 39.8305 481.048 41.7417 481.519C50.3222 483.618 57.2721 484.046 60.8138 482.918C61.4687 482.704 62.1904 482.761 62.8052 483.09H62.8186Z" fill="#263238"/>
<path d="M230.174 259.673L289.381 252.591L290.17 260.115L230.134 266.526L230.174 259.673Z" fill="black"/>
<path d="M271.409 264.847L269.297 265.1L267.896 251.734L270.008 251.481L271.409 264.847Z" fill="#263238"/>
<path d="M241.446 268.447L239.334 268.7L237.933 255.334L240.045 255.081L241.446 268.447Z" fill="#263238"/>
<path d="M257.91 263.562L246.966 264.871L246.082 256.443L257.027 255.133L257.91 263.562Z" fill="white"/>
<path d="M230.267 260.701C223.959 211.671 211.716 186.257 211.716 186.257C238.58 176.234 274.8 168.867 274.8 168.867C284.57 195.609 288.405 233.859 289.688 254.362L230.267 260.701Z" fill="#263238"/>
<path opacity="0.8" d="M230.267 260.701C223.959 211.671 211.716 186.257 211.716 186.257C238.58 176.234 274.8 168.867 274.8 168.867C284.57 195.609 288.405 233.859 289.688 254.362L230.267 260.701Z" fill="white"/>
<path d="M238.968 182.973C238.968 182.973 251.264 179.76 254.324 173.136C251.852 171.851 249.914 169.009 248.403 165.511C248.002 164.598 247.628 163.627 247.294 162.627C246.372 159.943 245.664 157.045 245.129 154.261C244.568 151.434 244.193 148.721 243.953 146.479L242.149 149.563L233.742 163.969C234.263 164.869 234.758 165.797 235.172 166.739C236.001 168.524 236.589 170.352 236.669 172.165C236.722 173.136 236.629 174.092 236.348 175.049C236.081 175.963 235.64 176.876 234.998 177.747C234.183 178.832 233.06 179.86 231.537 180.831C230.895 183.901 238.968 182.973 238.968 182.973Z" fill="#E4897B"/>
<path opacity="0.2" d="M235.172 166.739C236 168.524 236.588 170.352 236.669 172.165C236.722 173.136 236.629 174.092 236.348 175.049C241.828 172.779 245.623 167.31 247.294 162.627C246.372 159.943 245.663 157.045 245.129 154.261C244.073 152.647 243.03 151.105 242.148 149.563L233.742 163.969C234.263 164.869 234.757 165.797 235.172 166.739Z" fill="black"/>
<path d="M250.034 168.167L240.104 180.874L236.214 175.677L232.245 179.789C230.828 181.26 230.802 183.759 232.192 185.8L236.148 191.626L240.772 184.43L247.308 188.442L258.922 172.608L250.034 168.153V168.167Z" fill="#263238"/>
<path opacity="0.7" d="M250.034 168.167L240.104 180.874L236.214 175.677L232.245 179.789C230.828 181.26 230.802 183.759 232.192 185.8L236.148 191.626L240.772 184.43L247.308 188.442L258.922 172.608L250.034 168.153V168.167Z" fill="white"/>
<path d="M214.99 131.688C211.355 135.886 213.667 147.765 221.94 153.347C230.213 158.93 228.462 129.304 228.462 129.304C228.462 129.304 217.316 129.018 214.99 131.688Z" fill="#263238"/>
<path d="M245.664 164.455C242.175 170.609 236.001 172.579 230.467 171.109C226.899 170.166 223.598 167.796 221.419 164.212C221.125 163.741 220.858 163.242 220.617 162.728C216.14 153.261 213.895 136.328 223.157 129.289C229.719 124.221 238.901 125.806 243.646 132.83C245.009 134.815 245.891 137.128 246.252 139.569C248.11 150.863 249.7 157.416 245.664 164.441V164.455Z" fill="#E4897B"/>
<path d="M231.082 146.708C231.336 147.593 231.001 148.464 230.44 148.607C229.879 148.75 229.277 148.121 229.064 147.208C228.863 146.308 229.157 145.451 229.705 145.309C230.253 145.166 230.868 145.78 231.082 146.708Z" fill="#263238"/>
<path d="M221.473 149.149C221.727 150.035 221.379 150.906 220.831 151.048C220.283 151.191 219.669 150.563 219.455 149.649C219.254 148.75 219.548 147.893 220.096 147.75C220.644 147.607 221.272 148.278 221.473 149.149Z" fill="#263238"/>
<path d="M224.626 148.821C224.225 151.862 223.437 154.818 222.287 157.616C223.664 158.216 225.228 158.144 226.551 157.402L224.626 148.821Z" fill="#DE5753"/>
<path d="M216.928 145.651C217.115 145.709 217.316 145.651 217.449 145.509C218.345 144.495 219.641 143.995 220.938 144.152C221.218 144.209 221.486 144.024 221.539 143.724C221.593 143.424 221.419 143.139 221.138 143.081C219.508 142.839 217.864 143.453 216.728 144.723C216.527 144.938 216.514 145.28 216.714 145.494C216.781 145.551 216.848 145.594 216.928 145.637V145.651Z" fill="#263238"/>
<path d="M232.071 142.125C232.165 142.096 232.258 142.039 232.325 141.954C232.459 141.682 232.365 141.354 232.111 141.211C230.654 140.369 228.903 140.34 227.42 141.125C227.179 141.268 227.086 141.611 227.233 141.868C227.38 142.125 227.687 142.211 227.928 142.068C229.117 141.482 230.494 141.539 231.643 142.196C231.79 142.239 231.951 142.211 232.071 142.125Z" fill="#263238"/>
<path d="M235.492 127.604L235.599 129.303C237.27 129.875 238.713 134.9 238.352 136.999C237.577 141.482 240.932 147.522 244.394 149.506C244.394 149.506 244.166 147.679 245.677 147.822C247.187 147.964 248.43 157.473 246.438 162.528C246.438 162.528 249.94 157.616 250.595 147.25C251.196 137.656 250.141 129.974 247.762 126.791L235.506 127.619L235.492 127.604Z" fill="#263238"/>
<path d="M252.841 147.579C252.239 150.392 250.622 152.847 248.337 154.389C245.289 156.402 242.777 153.761 242.777 150.135C242.804 146.908 244.381 141.882 247.856 141.354C251.331 140.84 253.549 144.109 252.854 147.579H252.841Z" fill="#E4897B"/>
<path d="M227.834 160.115C228.797 161.328 230.053 163.77 230.053 163.77C230.28 163.684 230.507 163.599 230.735 163.513C233.795 162.314 234.838 160.686 235.078 159.23C235.199 158.43 235.078 157.688 234.905 157.116C234.704 156.445 234.423 156.017 234.423 156.017C233.154 157.688 230.387 159.044 228.877 159.701C228.249 159.986 227.834 160.129 227.834 160.129V160.115Z" fill="#263238"/>
<path d="M228.877 159.686L229.558 160.743C232.432 159.601 234.316 158.401 234.904 157.102C234.704 156.431 234.423 156.003 234.423 156.003C233.153 157.673 230.387 159.03 228.877 159.686Z" fill="white"/>
<path d="M230.734 163.513C233.795 162.313 234.838 160.686 235.078 159.229C234.049 159.686 232.859 160.343 231.937 161.285C231.229 161.999 230.895 162.785 230.748 163.513H230.734Z" fill="#DE5753"/>
<path d="M240.464 171.165C236.415 174.735 230.895 174.121 227.834 170.88C225.255 168.153 223.544 163.755 224.413 161.771C226.231 157.63 229.425 158.301 229.425 158.301C229.425 158.301 230.574 155.517 232.726 154.732C234.878 153.947 237.671 154.061 239.609 155.631C242.79 158.23 245.263 166.939 240.478 171.165H240.464ZM234.891 155.417C231.109 155.717 229.919 158.944 229.919 158.944C229.919 158.944 225.014 158.501 225.856 163.755C226.685 168.852 230.628 170.423 232.151 168.538C233.675 166.639 231.403 164.855 231.403 164.855L233.287 163.57C233.795 166.354 236.936 168.624 238.687 165.711C240.438 162.799 238.687 155.103 234.905 155.403L234.891 155.417Z" fill="#263238"/>
<path d="M238.42 129.875C236.041 129.375 232.245 128.104 227.166 132.059C222.088 136.014 220.644 137.185 217.463 133.287C214.296 129.375 214.67 117.938 222.275 115.111C229.88 112.284 237.658 121.465 237.658 121.465C237.658 121.465 251.144 122.265 250.409 135.686L238.407 129.875H238.42Z" fill="#263238"/>
<path d="M239.649 184.301L248.056 178.461C248.056 178.461 250.061 178.833 248.35 184.615C248.35 184.615 249.86 188.427 249.753 189.898C249.646 191.368 240.451 187.77 240.451 187.77C240.451 187.77 233.862 193.796 233.074 193.71C232.285 193.624 233.02 187.057 233.02 187.057C233.02 187.057 231.43 183.716 231.884 183.116C232.339 182.516 239.649 184.315 239.649 184.315V184.301Z" fill="#263238"/>
<path d="M243.793 244.739C243.793 244.739 318.13 311.358 331.575 362.929C331.268 360.859 321.979 300.421 287.684 231.289C287.684 231.289 288.499 218.125 285.96 200.578C285.051 194.281 283.701 187.414 281.736 180.389C280.6 176.349 279.251 172.237 277.66 168.167L260.152 170.095C260.152 170.095 252.681 225.649 243.793 244.739Z" fill="#8C64F0"/>
<path d="M229.772 178.562C229.772 178.562 225.642 215.369 247.588 243.611C247.588 243.611 234.29 261.686 228.649 282.774L225.201 288.257L228.155 251.135C228.155 251.135 218.011 223.279 209.764 186.386L229.785 178.576L229.772 178.562Z" fill="#8C64F0"/>
<path d="M254.19 168.881C254.19 168.881 264.575 167.039 270.135 181.46H262.169L266.272 191.097C266.272 191.097 258.213 224.25 245.048 241.826C245.048 241.826 257.825 174.921 254.203 168.881H254.19Z" fill="#263238"/>
<path d="M248.002 244.453C248.002 244.453 226.725 202.091 231.884 176.534C231.884 176.534 224.132 182.887 220.47 194.181L224.412 192.625L220.47 206.331C220.47 206.331 234.891 236.557 248.002 244.453Z" fill="#263238"/>
<path d="M66.9038 256.603C66.9038 256.603 75.2303 262.143 89.1568 262.143C103.083 262.143 111.864 256.603 111.864 256.603L108.523 219.966L107.748 211.414L70.9134 210.5C70.9134 212.785 70.7663 215.869 70.5258 219.352C69.5367 234.244 66.9038 256.603 66.9038 256.603Z" fill="#263238"/>
<path d="M70.5262 219.352C74.0146 220.994 80.8174 223.45 90.0929 223.45C98.2456 223.45 104.634 221.551 108.523 219.966L107.748 211.414L70.9138 210.5C70.9138 212.785 70.7668 215.869 70.5262 219.352Z" fill="#8C64F0"/>
<path d="M89.1576 219.381C71.6858 219.381 57.5222 216.23 57.5222 212.342C57.5222 208.455 71.6858 205.303 89.1576 205.303C106.629 205.303 120.793 208.455 120.793 212.342C120.793 216.23 106.629 219.381 89.1576 219.381Z" fill="#263238"/>
<path opacity="0.2" d="M89.1576 219.381C71.6858 219.381 57.5222 216.23 57.5222 212.342C57.5222 208.455 71.6858 205.303 89.1576 205.303C106.629 205.303 120.793 208.455 120.793 212.342C120.793 216.23 106.629 219.381 89.1576 219.381Z" fill="white"/>
<path opacity="0.5" d="M70.9144 210.501C70.9144 212.742 79.0806 214.556 89.1579 214.556C99.2353 214.556 107.401 212.742 107.401 210.501C107.401 208.259 99.2353 206.446 89.1579 206.446C79.0806 206.446 70.9144 208.259 70.9144 210.501Z" fill="black"/>
<path opacity="0.3" d="M221.111 368.183C232.873 355.847 243.498 343.611 251.985 332.104L254.257 304.89L240.785 292.754C240.785 292.754 241.787 301.221 246.278 307.432L221.111 368.183Z" fill="black"/>
<path opacity="0.3" d="M285.96 200.578C285.051 194.281 283.701 187.414 281.737 180.389L277.66 179.632C277.66 179.632 274.84 192.239 285.96 200.578Z" fill="black"/>
<path d="M302.265 139.255L298.95 130.003C298.95 130.003 297.226 128.618 296.491 127.248C295.756 125.877 297.48 109.743 297.841 109.343C298.215 108.944 308.653 111.571 309.014 112.499C309.388 113.412 307.424 126.005 307.17 127.248C306.929 128.504 305.94 129.418 305.94 129.418L309.977 138.156L302.251 139.269L302.265 139.255Z" fill="#E4897B"/>
<path d="M277.66 168.167C285.064 167.924 307.264 172.165 308.68 168.167C310.084 164.169 299.512 135.757 299.512 135.757L308.801 133.287C308.801 133.287 327.351 171.751 324.184 179.632C321.016 187.513 282.832 188.427 282.832 188.427C282.832 188.427 279.771 187.942 277.66 179.632C275.548 171.323 277.66 168.167 277.66 168.167Z" fill="#8C64F0"/>
<path d="M301.249 118.852L303.094 116.068L237.845 68.095L237.163 69.1087L301.249 118.852Z" fill="#263238"/>
<path d="M18.502 90.4978C18.502 78.6237 28.1278 68.9978 40.002 68.9978V68.9978C51.8761 68.9978 61.502 78.6237 61.502 90.4978V93.4297C61.502 105.304 51.8761 114.93 40.002 114.93V114.93C28.1278 114.93 18.502 105.304 18.502 93.4297V90.4978Z" fill="#DCD0FA" fill-opacity="0.15"/>
<g clip-path="url(#clip1_335_12514)">
<path d="M40.0019 81.2146C37.1512 81.2146 34.4148 82.3478 32.4007 84.3629C30.3845 86.3788 29.2515 89.1128 29.251 91.9637C29.251 94.8134 30.3849 97.5494 32.4007 99.5645C34.4148 101.58 37.1512 102.713 40.0019 102.713C42.8525 102.713 45.589 101.58 47.6031 99.5645C49.6189 97.5494 50.7528 94.8134 50.7528 91.9637C50.7528 89.114 49.6189 86.378 47.6031 84.3629C45.589 82.3478 42.8525 81.2146 40.0019 81.2146Z" fill="url(#paint0_linear_335_12514)"/>
<path d="M34.1174 91.8501C37.252 90.4849 39.3417 89.5849 40.3865 89.15C43.3733 87.9083 43.9931 87.6927 44.398 87.6854C44.487 87.6839 44.6852 87.7059 44.8146 87.8105C44.9221 87.8987 44.9523 88.0179 44.9674 88.1016C44.9809 88.1853 44.9993 88.3759 44.9842 88.5247C44.823 90.2244 44.1225 94.3491 43.7663 96.2528C43.6168 97.0583 43.3195 97.3284 43.0323 97.3548C42.4074 97.4122 41.9337 96.9423 41.3289 96.5461C40.3832 95.9258 39.849 95.5399 38.9301 94.9347C37.8685 94.2354 38.5572 93.8509 39.1619 93.2228C39.3198 93.0583 42.0714 90.5566 42.1235 90.3297C42.1302 90.3013 42.1369 90.1955 42.0731 90.1398C42.0109 90.0838 41.9185 90.103 41.8513 90.1181C41.7556 90.1396 40.2454 91.1386 37.3158 93.1149C36.8875 93.4095 36.4994 93.5531 36.15 93.5456C35.767 93.5373 35.0279 93.3286 34.4786 93.1502C33.8066 92.9314 33.2708 92.8156 33.3178 92.4439C33.3413 92.2505 33.6084 92.0524 34.1174 91.8501Z" fill="white"/>
</g>
<path d="M95.001 196.177C95.001 192.311 98.1352 189.177 102.002 189.177V189.177C105.868 189.177 109.002 192.311 109.002 196.177V197.132C109.002 200.998 105.868 204.133 102.002 204.133V204.133C98.1352 204.133 95.001 200.998 95.001 197.132V196.177Z" fill="#FAF8FE"/>
<path d="M103.629 193.592H100.374C99.5813 193.592 98.9385 194.235 98.9385 195.028V198.282C98.9385 199.075 99.5813 199.717 100.374 199.717H103.629C104.422 199.717 105.064 199.075 105.064 198.282V195.028C105.064 194.235 104.422 193.592 103.629 193.592Z" fill="url(#paint1_radial_335_12514)"/>
<path d="M103.629 193.592H100.374C99.5813 193.592 98.9385 194.235 98.9385 195.028V198.282C98.9385 199.075 99.5813 199.717 100.374 199.717H103.629C104.422 199.717 105.064 199.075 105.064 198.282V195.028C105.064 194.235 104.422 193.592 103.629 193.592Z" fill="url(#paint2_radial_335_12514)"/>
<path d="M102.002 194.262C101.352 194.262 101.27 194.265 101.015 194.277C100.76 194.288 100.586 194.329 100.434 194.388C100.277 194.449 100.143 194.531 100.01 194.664C99.8771 194.797 99.7953 194.93 99.734 195.088C99.6746 195.24 99.6343 195.414 99.6228 195.668C99.6114 195.923 99.6084 196.005 99.6084 196.655C99.6084 197.305 99.6113 197.386 99.6229 197.641C99.6346 197.896 99.6749 198.07 99.734 198.222C99.7952 198.379 99.877 198.513 100.01 198.646C100.143 198.779 100.276 198.861 100.434 198.922C100.586 198.981 100.76 199.021 101.015 199.033C101.27 199.045 101.351 199.047 102.001 199.047C102.651 199.047 102.733 199.045 102.988 199.033C103.243 199.021 103.417 198.981 103.569 198.922C103.726 198.861 103.86 198.779 103.993 198.646C104.126 198.513 104.207 198.379 104.269 198.222C104.328 198.07 104.368 197.896 104.38 197.641C104.391 197.386 104.394 197.305 104.394 196.655C104.394 196.005 104.391 195.923 104.38 195.668C104.368 195.414 104.328 195.24 104.269 195.088C104.207 194.93 104.126 194.797 103.993 194.664C103.859 194.531 103.726 194.449 103.569 194.388C103.416 194.329 103.242 194.288 102.987 194.277C102.732 194.265 102.651 194.262 102.001 194.262H102.002ZM101.787 194.693C101.851 194.693 101.922 194.693 102.002 194.693C102.641 194.693 102.716 194.696 102.969 194.707C103.202 194.718 103.329 194.757 103.413 194.79C103.525 194.833 103.604 194.885 103.688 194.968C103.772 195.052 103.823 195.132 103.867 195.244C103.9 195.328 103.939 195.454 103.949 195.688C103.961 195.94 103.963 196.016 103.963 196.654C103.963 197.293 103.961 197.369 103.949 197.621C103.939 197.854 103.9 197.981 103.867 198.065C103.824 198.177 103.772 198.256 103.688 198.34C103.604 198.423 103.525 198.475 103.413 198.519C103.329 198.552 103.202 198.59 102.969 198.601C102.716 198.613 102.641 198.615 102.002 198.615C101.363 198.615 101.287 198.613 101.035 198.601C100.801 198.59 100.675 198.551 100.59 198.519C100.479 198.475 100.399 198.423 100.315 198.34C100.231 198.256 100.179 198.176 100.136 198.065C100.103 197.98 100.064 197.854 100.054 197.621C100.042 197.368 100.04 197.293 100.04 196.654C100.04 196.015 100.042 195.939 100.054 195.687C100.064 195.454 100.103 195.327 100.136 195.243C100.179 195.131 100.231 195.052 100.315 194.968C100.399 194.884 100.479 194.832 100.59 194.789C100.675 194.756 100.801 194.717 101.035 194.706C101.255 194.696 101.341 194.693 101.787 194.693V194.693ZM103.279 195.091C103.12 195.091 102.992 195.219 102.992 195.378C102.992 195.536 103.12 195.665 103.279 195.665C103.437 195.665 103.566 195.536 103.566 195.378C103.566 195.219 103.437 195.091 103.279 195.091V195.091ZM102.002 195.426C101.323 195.426 100.773 195.976 100.773 196.655C100.773 197.333 101.323 197.883 102.002 197.883C102.68 197.883 103.23 197.333 103.23 196.655C103.23 195.976 102.68 195.426 102.002 195.426H102.002ZM102.002 195.857C102.442 195.857 102.799 196.214 102.799 196.655C102.799 197.095 102.442 197.452 102.002 197.452C101.561 197.452 101.204 197.095 101.204 196.655C101.204 196.214 101.561 195.857 102.002 195.857Z" fill="white"/>
<path d="M77.001 175.812C77.001 171.393 80.583 167.811 85.0016 167.811V167.811C89.4203 167.811 93.0023 171.393 93.0023 175.812V176.903C93.0023 181.322 89.4203 184.904 85.0016 184.904V184.904C80.583 184.904 77.001 181.322 77.001 176.903V175.812Z" fill="#FAF8FE"/>
<g clip-path="url(#clip2_335_12514)">
<path d="M85.0177 172.531C86.0325 172.531 86.9848 172.926 87.7011 173.643C88.4173 174.36 88.8117 175.312 88.8113 176.326C88.8105 178.417 87.1085 180.118 85.0177 180.118H85.0161C84.3813 180.118 83.7573 179.959 83.2032 179.656L81.1921 180.184L81.7304 178.219C81.3983 177.644 81.2237 176.991 81.2239 176.323C81.2248 174.232 82.9264 172.531 85.0177 172.531ZM85.0177 172.331C82.8165 172.331 81.025 174.122 81.024 176.323C81.0238 176.996 81.1937 177.659 81.5158 178.245L80.9993 180.131C80.9805 180.2 80.9997 180.274 81.05 180.325C81.088 180.363 81.1393 180.384 81.1921 180.384C81.2091 180.384 81.226 180.382 81.2428 180.377L83.1784 179.87C83.7435 180.163 84.3769 180.318 85.0161 180.318C87.2188 180.318 89.0103 178.527 89.0113 176.326C89.0117 175.259 88.5967 174.256 87.8428 173.502C87.0885 172.747 86.0853 172.331 85.0177 172.331Z" fill="#CFD8DC"/>
<path d="M81.1816 180.211L81.72 178.246C81.3879 177.671 81.2132 177.018 81.2134 176.35C81.2144 174.259 82.9163 172.558 85.0079 172.558C86.0229 172.558 86.9753 172.953 87.6918 173.67C88.408 174.387 88.8025 175.339 88.8021 176.353C88.8013 178.444 87.099 180.145 85.0079 180.145H85.0063C84.3714 180.145 83.7472 179.986 83.1931 179.683L81.1816 180.211Z" fill="white"/>
<path d="M81.1819 180.311C81.1555 180.311 81.1299 180.3 81.1109 180.281C81.0859 180.256 81.0761 180.219 81.0855 180.185L81.6129 178.259C81.286 177.679 81.1135 177.019 81.1139 176.35C81.1147 174.203 82.8616 172.458 85.0081 172.458C86.0493 172.458 87.0275 172.863 87.7627 173.599C88.498 174.335 88.9027 175.313 88.9023 176.353C88.9015 178.499 87.1544 180.245 85.0081 180.245C84.3708 180.245 83.7403 180.088 83.1807 179.79L81.2072 180.307C81.1989 180.31 81.1905 180.311 81.1819 180.311Z" fill="white"/>
<path d="M87.2386 174.122C86.6431 173.526 85.8515 173.198 85.0089 173.198C83.2695 173.198 81.8548 174.612 81.854 176.35C81.8538 176.945 82.0205 177.525 82.3362 178.027L82.4114 178.146L82.0926 179.31L83.2863 178.997L83.4016 179.065C83.8856 179.352 84.4408 179.504 85.0067 179.504H85.0079C86.7462 179.504 88.1609 178.09 88.1615 176.352C88.1617 175.51 87.8341 174.718 87.2386 174.122Z" fill="#40C351"/>
<path fill-rule="evenodd" clip-rule="evenodd" d="M84.0594 174.764C83.9885 174.607 83.9137 174.603 83.846 174.601C83.7906 174.598 83.7275 174.598 83.6643 174.598C83.6012 174.598 83.4985 174.622 83.4115 174.717C83.3246 174.812 83.0796 175.041 83.0796 175.508C83.0796 175.974 83.4193 176.425 83.4667 176.488C83.5141 176.551 84.1226 177.539 85.0862 177.919C85.887 178.234 86.0501 178.172 86.2239 178.156C86.3978 178.14 86.7849 177.927 86.8638 177.705C86.9428 177.484 86.9428 177.294 86.9192 177.255C86.8954 177.215 86.8323 177.192 86.7375 177.144C86.6428 177.096 86.1766 176.867 86.0896 176.836C86.0027 176.804 85.9396 176.788 85.8762 176.883C85.8131 176.978 85.6314 177.192 85.576 177.255C85.5207 177.318 85.4653 177.326 85.3706 177.278C85.2759 177.231 84.9705 177.131 84.6082 176.808C84.3264 176.557 84.1362 176.247 84.0808 176.152C84.0255 176.057 84.0748 176.006 84.1224 175.958C84.1649 175.916 84.2171 175.848 84.2647 175.792C84.312 175.737 84.3278 175.697 84.3594 175.634C84.391 175.571 84.3752 175.516 84.3514 175.468C84.328 175.421 84.1438 174.952 84.0594 174.764Z" fill="white"/>
</g>
<path d="M101.001 159.788C101.001 155.369 104.583 151.787 109.002 151.787V151.787C113.42 151.787 117.002 155.369 117.002 159.788V160.879C117.002 165.297 113.42 168.879 109.002 168.879V168.879C104.583 168.879 101.001 165.297 101.001 160.879V159.788Z" fill="#FAF8FE"/>
<path d="M105.801 157.333H112.202C112.642 157.333 113.002 157.693 113.002 158.133V162.933C113.002 163.373 112.642 163.733 112.202 163.733H105.801C105.361 163.733 105.001 163.373 105.001 162.933V158.133C105.001 157.693 105.361 157.333 105.801 157.333Z" fill="#CA678F"/>
<path d="M112.336 158.533L109.002 160.867L105.668 158.533" fill="#CA678F"/>
<path d="M112.336 158.533L109.002 160.867L105.668 158.533" stroke="white" stroke-width="0.6" stroke-linecap="round" stroke-linejoin="round"/>
<path d="M96.001 88.9408C96.001 81.7605 101.822 75.9397 109.002 75.9397V75.9397C116.182 75.9397 122.003 81.7605 122.003 88.9408V90.7137C122.003 97.894 116.182 103.715 109.002 103.715V103.715C101.822 103.715 96.001 97.894 96.001 90.7137V88.9408Z" fill="#FAF8FE"/>
<g clip-path="url(#clip3_335_12514)">
<path d="M113.883 84.5951C113.56 84.2971 112.254 83.3494 109.346 83.3365C109.346 83.3365 105.916 83.1297 104.244 84.663C103.313 85.5938 102.986 86.9556 102.951 88.6441C102.917 90.3325 102.872 93.4967 105.923 94.3547H105.926L105.924 95.6639C105.924 95.6639 105.904 96.1939 106.253 96.302C106.676 96.4331 106.923 96.0302 107.327 95.596C107.548 95.3576 107.853 95.0074 108.084 94.7398C110.17 94.9153 111.775 94.5141 111.957 94.4548C112.378 94.3182 114.762 94.0129 115.149 90.8489C115.55 87.5877 114.956 85.5249 113.883 84.5951Z" fill="white"/>
<path d="M113.204 85.2534C112.931 85.0052 111.752 84.2645 109.292 84.2538C109.292 84.2538 106.379 84.0624 104.965 85.3431C104.177 86.1201 103.912 87.2756 103.883 88.6856C103.854 90.0957 103.704 92.7894 106.283 93.5059C106.283 93.5059 106.273 95.5057 106.272 95.6815C106.272 95.8044 106.291 95.8884 106.362 95.9058C106.412 95.9181 106.488 95.892 106.552 95.8278C106.965 95.4136 108.285 93.8208 108.285 93.8208C110.057 93.9365 111.467 93.5867 111.618 93.5371C111.976 93.4222 113.909 93.2562 114.236 90.6136C114.575 87.8897 114.112 86.0304 113.204 85.2534Z" fill="#7360F2"/>
<path d="M110.543 88.5701C110.511 87.9252 110.183 87.5865 109.56 87.554" stroke="white" stroke-width="0.370021" stroke-linecap="round" stroke-linejoin="round"/>
<path d="M111.387 88.8537C111.4 88.2529 111.222 87.7509 110.853 87.3477C110.482 86.9431 109.969 86.7203 109.311 86.6721" stroke="white" stroke-width="0.370021" stroke-linecap="round" stroke-linejoin="round"/>
<path d="M112.251 89.1909C112.243 88.1483 111.931 87.3271 111.316 86.7274C110.701 86.1278 109.936 85.8247 109.021 85.8184" stroke="white" stroke-width="0.370021" stroke-linecap="round" stroke-linejoin="round"/>
<path d="M109.593 90.7734C109.593 90.7734 109.824 90.7929 109.948 90.6396L110.191 90.3343C110.308 90.1829 110.591 90.0863 110.867 90.2405C111.075 90.3587 111.276 90.4872 111.47 90.6255C111.654 90.7605 112.03 91.0742 112.031 91.0742C112.21 91.2254 112.252 91.4474 112.13 91.6815C112.13 91.6829 112.129 91.6852 112.129 91.6864C111.994 91.9192 111.824 92.1291 111.624 92.3083C111.621 92.3095 111.621 92.3107 111.619 92.3118C111.445 92.4572 111.274 92.5399 111.106 92.5598C111.081 92.5641 111.056 92.5657 111.031 92.5645C110.957 92.5652 110.884 92.5538 110.813 92.5309L110.808 92.5229C110.549 92.4499 110.117 92.2674 109.398 91.8706C108.981 91.6436 108.585 91.3819 108.213 91.0881C108.026 90.9409 107.848 90.7832 107.68 90.6156L107.662 90.5977L107.644 90.5797L107.626 90.5618C107.62 90.5559 107.614 90.5499 107.608 90.5438C107.441 90.3754 107.283 90.1975 107.136 90.011C106.842 89.639 106.58 89.2428 106.353 88.8267C105.956 88.1072 105.774 87.6757 105.701 87.4167L105.693 87.4112C105.67 87.3408 105.658 87.2671 105.659 87.1931C105.658 87.168 105.659 87.1429 105.664 87.1182C105.685 86.9505 105.767 86.7795 105.912 86.6049C105.913 86.6028 105.914 86.6028 105.916 86.6004C106.095 86.4001 106.305 86.2297 106.538 86.0956C106.539 86.0956 106.541 86.0944 106.542 86.0944C106.777 85.9725 106.999 86.0138 107.15 86.1919C107.151 86.1931 107.464 86.569 107.598 86.7526C107.737 86.9472 107.865 87.1487 107.984 87.3562C108.138 87.6326 108.041 87.9157 107.89 88.0323L107.584 88.275C107.43 88.3995 107.451 88.6306 107.451 88.6306C107.451 88.6306 107.903 90.3421 109.593 90.7734Z" fill="white"/>
</g>
<path d="M121.5 130.433C121.5 121.872 128.44 114.932 137.001 114.932V114.932C145.562 114.932 152.503 121.872 152.503 130.433V132.547C152.503 141.108 145.562 148.048 137.001 148.048V148.048C128.44 148.048 121.5 141.108 121.5 132.547V130.433Z" fill="#FAF8FE"/>
<path d="M137 123.74C132.635 123.74 129.25 126.939 129.25 131.257C129.25 133.517 130.177 135.47 131.683 136.818C131.811 136.93 131.888 137.091 131.891 137.259L131.934 138.638C131.947 139.078 132.403 139.364 132.806 139.187L134.343 138.508C134.473 138.449 134.619 138.44 134.759 138.477C135.465 138.672 136.219 138.775 137.003 138.775C141.367 138.775 144.753 135.576 144.753 131.258C144.753 126.94 141.364 123.74 137 123.74Z" fill="url(#paint3_radial_335_12514)"/>
<path d="M132.347 133.456L134.623 129.844C134.985 129.268 135.76 129.128 136.303 129.534L138.113 130.892C138.28 131.016 138.507 131.016 138.674 130.889L141.12 129.032C141.445 128.784 141.873 129.174 141.653 129.522L139.378 133.133C139.015 133.71 138.24 133.849 137.695 133.443L135.884 132.085C135.717 131.961 135.488 131.961 135.323 132.088L132.877 133.945C132.555 134.193 132.127 133.803 132.347 133.456Z" fill="white"/>
<path d="M80.501 130.774C80.501 124.975 85.2024 120.273 91.0018 120.273V120.273C96.8013 120.273 101.503 124.975 101.503 130.774V132.206C101.503 138.006 96.8013 142.707 91.0018 142.707V142.707C85.2024 142.707 80.501 138.006 80.501 132.206V130.774Z" fill="#FAF8FE"/>
<path d="M88.796 132.12V128.865H86.801C86.2235 128.865 85.751 129.337 85.751 129.915V133.065C85.751 133.642 86.2235 134.115 86.801 134.115H87.326V135.69L88.901 134.115H91.526C92.1035 134.115 92.576 133.642 92.576 133.065V132.109C92.5415 132.117 92.5063 132.121 92.471 132.121H88.796V132.12ZM95.201 126.24H90.476C89.8985 126.24 89.426 126.712 89.426 127.29V131.49H93.101L94.676 133.065V131.49H95.201C95.7785 131.49 96.251 131.018 96.251 130.44V127.29C96.251 126.712 95.7785 126.24 95.201 126.24Z" fill="#F670C7"/>
<path d="M42.002 153.242C42.002 147.719 46.4791 143.242 52.002 143.242V143.242C57.5248 143.242 62.002 147.719 62.002 153.242V154.606C62.002 160.128 57.5248 164.606 52.002 164.606V164.606C46.4791 164.606 42.002 160.128 42.002 154.606V153.242Z" fill="#FAF8FE"/>
<path d="M57.0013 156.411V157.916C57.0019 158.056 56.9732 158.194 56.9171 158.322C56.861 158.45 56.7787 158.565 56.6756 158.659C56.5724 158.754 56.4506 158.826 56.3179 158.871C56.1853 158.915 56.0447 158.932 55.9053 158.919C54.3582 158.752 52.8722 158.224 51.5665 157.379C50.3518 156.609 49.3219 155.581 48.55 154.368C47.7003 153.059 47.1715 151.569 47.0065 150.018C46.994 149.879 47.0105 149.74 47.055 149.608C47.0996 149.476 47.1712 149.354 47.2653 149.251C47.3594 149.148 47.474 149.066 47.6017 149.01C47.7294 148.954 47.8674 148.924 48.007 148.924H49.5153C49.7593 148.922 49.9958 149.008 50.1808 149.167C50.3658 149.326 50.4866 149.546 50.5208 149.787C50.5844 150.269 50.7025 150.742 50.8727 151.197C50.9404 151.377 50.955 151.572 50.9149 151.76C50.8748 151.947 50.7816 152.12 50.6465 152.256L50.008 152.893C50.7237 154.149 51.7658 155.19 53.0245 155.904L53.663 155.267C53.7997 155.132 53.9723 155.039 54.1603 154.999C54.3483 154.959 54.5439 154.973 54.7238 155.041C55.18 155.211 55.6539 155.329 56.1366 155.392C56.3808 155.426 56.6038 155.549 56.7633 155.737C56.9227 155.925 57.0074 156.165 57.0013 156.411Z" fill="#47CD89"/>
<ellipse cx="111.5" cy="166.209" rx="2.5" ry="2.67068" fill="#EAF1FF"/>
<ellipse cx="76.5" cy="198.257" rx="1.5" ry="1.60241" fill="#C5D7FF"/>
<path d="M147.395 76.8866C147.493 76.8776 147.617 76.8532 147.871 76.8137C148.209 76.7609 148.69 76.6973 149.332 76.6364C150.614 76.5529 152.551 76.5465 154.954 77.2421C157.33 77.9294 160.217 79.3646 162.664 82.2051C165.074 84.9947 167.04 89.2042 167.055 94.1474L167.059 95.0844L167.343 94.1972C167.64 93.2904 167.94 92.3213 168.532 91.5214C169.083 90.7089 169.887 90.053 170.853 89.8012C171.806 89.5453 172.862 89.6674 173.854 89.9979C174.856 90.3232 175.833 90.8456 176.773 91.4509L176.693 91.3395C177.359 94.4236 178.721 97.5497 180.789 100.32C182.853 103.082 185.651 105.472 189.016 106.882L189.989 107.285L189.226 106.515C185.012 102.287 182.925 94.9649 184.89 88.2826L184.682 88.4541C186.694 88.4158 188.9 89.4832 190.612 91.0739L190.871 91.3114L190.984 90.9767C191.65 89.0357 192.676 87.1748 194.075 85.6806C195.478 84.1719 197.328 83.1556 199.382 83.0199C203.46 82.5585 207.789 83.4251 211.525 85.6655L212.226 86.0945L211.866 85.3306C210.835 83.1323 210.869 80.4533 211.689 78.104C212.505 75.7454 214.028 73.6291 216.025 72.2097C218.035 70.7945 220.44 70.0126 222.888 69.7549C225.349 69.5013 227.855 69.7335 230.319 70.2831L231.064 70.4426L230.575 69.8275C229.402 68.3716 228.249 66.8671 227.257 65.2313C226.287 63.5946 225.432 61.8047 225.131 59.8716C224.799 57.9446 225.063 55.9108 225.937 54.1521C226.798 52.3892 228.124 50.8885 229.665 49.7134C232.003 47.9829 234.176 45.9965 236.794 45.0525L238.954 44.2812L236.689 44.5167C234.099 44.7854 231.508 44.0786 229.198 42.877C226.883 41.6659 224.806 39.9857 223.033 38.0535C219.499 34.1693 217.801 28.6191 218.331 23.4279L217.835 23.3295C217.276 25.8541 215.542 27.9364 213.471 29.1678C211.391 30.4043 208.921 30.8829 206.634 30.4118C204.33 29.951 202.241 28.6681 200.579 26.9749C198.918 25.2817 197.649 23.1987 196.867 20.9515L196.476 19.8399L196.404 21.0287C196.06 27.0009 191.791 32.1609 186.749 33.4094C181.672 34.6786 176.293 32.3316 173.503 28.2291L172.66 26.9933L173.139 28.4311C174.239 31.7358 173.76 35.3231 172.47 38.2662C171.18 41.2332 169.14 43.6537 166.815 45.3646C164.49 47.0992 161.936 48.2365 159.451 49.0409C156.957 49.8504 154.505 50.3426 152.17 50.7294L151.863 50.7761L152.082 51.001C155.499 54.4168 156.815 59.0701 156.704 62.9047C156.609 66.815 155.091 69.9161 153.527 71.996C151.945 74.11 150.302 75.2848 149.164 75.979C148.595 76.3141 148.143 76.5438 147.822 76.6962C147.584 76.8116 147.466 76.8693 147.373 76.9115C147.466 76.8693 147.598 76.8158 147.854 76.714C148.163 76.6051 148.615 76.3754 149.203 76.0538C150.35 75.3784 152.026 74.2213 153.652 72.1054C155.247 70.0194 156.808 66.8925 156.928 62.919C157.064 59.0212 155.754 54.2912 152.275 50.7776L152.2 51.0533C154.54 50.6759 157.01 50.1972 159.532 49.396C162.048 48.5855 164.624 47.4473 167.006 45.6911C169.389 43.9587 171.48 41.4833 172.808 38.4573C174.137 35.4552 174.656 31.7466 173.52 28.3049L173.161 28.5163C176.045 32.7582 181.566 35.2042 186.843 33.9026C192.085 32.5978 196.501 27.3024 196.867 21.0854L196.414 21.1574C197.221 23.4753 198.523 25.6237 200.241 27.3815C201.953 29.1299 204.13 30.4711 206.529 30.9613C208.938 31.4703 211.525 30.9723 213.696 29.6698C215.868 28.3911 217.714 26.1939 218.315 23.4859L217.819 23.3876C217.259 28.7427 219.008 34.4341 222.645 38.4525C224.456 40.4358 226.575 42.1525 228.962 43.3939C231.331 44.6217 234.022 45.3672 236.733 45.0886L236.623 44.5435C233.881 45.5358 231.674 47.5666 229.362 49.2816C227.769 50.4877 226.387 52.0578 225.472 53.9138C224.552 55.7605 224.258 57.9581 224.616 59.9797C224.939 62.0218 225.823 63.8678 226.821 65.5368C227.832 67.21 229.004 68.7282 230.182 70.1934L230.429 69.743C227.924 69.1808 225.36 68.9462 222.845 69.2068C220.33 69.4674 217.845 70.2718 215.752 71.748C213.655 73.2386 212.078 75.4481 211.226 77.9135C210.369 80.3695 210.337 83.2062 211.431 85.55L211.776 85.2005C207.944 82.9069 203.516 82.0254 199.345 82.5051C198.306 82.6165 197.232 82.8585 196.293 83.3624C195.341 83.8622 194.497 84.5294 193.762 85.3163C192.294 86.8757 191.251 88.7945 190.561 90.7987L190.933 90.7015C189.117 89.0389 186.855 87.9308 184.681 87.9664L184.52 87.9637L184.468 88.1285C182.462 95.0181 184.612 102.485 188.951 106.823L189.166 106.465C185.87 105.1 183.119 102.755 181.089 100.059C179.049 97.3445 177.703 94.2703 177.034 91.2484L177.018 91.1726L176.954 91.1371C175.995 90.5183 174.996 89.9969 173.954 89.659C172.92 89.3159 171.806 89.1915 170.773 89.4699C169.736 89.7391 168.863 90.4601 168.283 91.3265C167.661 92.1802 167.363 93.1732 167.063 94.1183L167.351 94.1682C167.31 89.1304 165.297 84.8752 162.829 82.0594C160.336 79.1969 157.4 77.7782 154.998 77.1064C152.569 76.4262 150.615 76.4667 149.326 76.5793C148.68 76.6547 148.19 76.7235 147.888 76.8034C147.622 76.8626 147.489 76.8921 147.387 76.9156L147.395 76.8866Z" fill="#858D9D"/>
<path d="M234.301 69.9884C234.365 69.914 233.568 69.1878 232.636 67.7359C231.71 66.2934 230.72 64.0216 230.544 61.3564C230.368 58.6912 231.057 56.2854 231.782 54.7244C232.505 53.1395 233.208 52.3109 233.13 52.2473C233.107 52.2244 232.903 52.4052 232.595 52.7818C232.287 53.1584 231.87 53.7452 231.457 54.5375C230.62 56.1033 229.845 58.5845 230.022 61.3835C230.207 64.1774 231.307 66.5306 232.336 67.9496C232.855 68.6685 233.331 69.1932 233.692 69.5172C234.054 69.8412 234.27 69.9945 234.291 69.9697L234.301 69.9884Z" fill="#858D9D"/>
<path d="M215.559 82.4616C215.652 82.4432 215.47 81.5377 215.694 80.1129C215.906 78.7077 216.647 76.7587 218.234 75.3855C219.834 74.0165 221.777 73.6657 223.109 73.7473C224.459 73.8186 225.252 74.2055 225.285 74.1132C225.31 74.0739 224.556 73.542 223.135 73.3542C221.745 73.1602 219.644 73.4701 217.904 74.9454C216.174 76.4395 215.449 78.5743 215.321 80.0524C215.181 81.5741 215.51 82.478 215.545 82.4573L215.559 82.4616Z" fill="#858D9D"/>
<path d="M149.048 71.5708C149.048 71.5708 149.312 71.44 149.706 71.0741C150.099 70.7082 150.619 70.1218 151.133 69.2822C152.159 67.6413 153.06 64.8057 152.408 61.7497C151.739 58.7039 149.762 56.5748 148.162 55.577C147.36 55.0615 146.651 54.7715 146.144 54.6306C145.637 54.4897 145.35 54.4638 145.342 54.4928C145.306 54.5995 146.451 54.8278 147.964 55.9011C149.449 56.942 151.267 59.0062 151.898 61.8671C152.507 64.729 151.722 67.4353 150.816 69.0662C149.908 70.7355 148.969 71.4833 149.044 71.5614L149.048 71.5708Z" fill="#858D9D"/>
<path d="M158.406 45.2654C158.406 45.2654 158.685 45.3204 159.185 45.2703C159.684 45.2202 160.408 45.0745 161.255 44.7466C162.937 44.1105 165.173 42.5135 166.465 39.8381C167.743 37.1584 167.653 34.2839 167.155 32.4549C166.914 31.5233 166.605 30.8145 166.355 30.3519C166.105 29.8892 165.917 29.6582 165.896 29.683C165.808 29.7346 166.428 30.7361 166.805 32.5512C167.194 34.3466 167.211 37.0569 166.003 39.5853C164.782 42.1095 162.71 43.6708 161.121 44.3747C159.515 45.1128 158.397 45.1606 158.406 45.2654Z" fill="#858D9D"/>
<path d="M165.911 67.441C166.041 67.3302 166.192 67.2398 166.365 67.1699C166.637 67.0601 166.895 67.0657 167.138 67.1868C167.385 67.3062 167.587 67.5802 167.744 68.0089C167.834 68.255 167.903 68.5361 167.953 68.8522C168.011 69.5155 168.088 70.1396 168.183 70.7244C168.284 71.3117 168.401 71.8903 168.534 72.4602C168.668 73.0343 168.81 73.5834 168.959 74.1076C169.114 74.6344 169.313 75.2894 169.557 76.0725C169.022 76.0594 168.666 75.811 168.489 75.3272C168.328 74.8079 168.184 74.2647 168.057 73.6975C167.931 73.1344 167.772 72.349 167.578 71.341C167.389 70.3314 167.269 69.7054 167.218 69.4629C167.129 68.934 167.056 68.5932 167 68.4404C166.948 68.2961 166.888 68.1861 166.823 68.1103C166.662 67.9559 166.487 67.917 166.298 67.9936C166.157 68.0501 166.021 68.1613 165.887 68.3272C165.752 68.4888 165.607 68.6935 165.452 68.9412C165.295 69.1848 165.178 69.3491 165.1 69.434C164.838 69.4957 164.673 69.431 164.603 69.24C164.547 69.0872 164.553 68.8828 164.62 68.6268C164.69 68.3649 164.756 68.1825 164.817 68.0796C164.975 67.787 165.125 67.5099 165.266 67.2485C165.407 66.9871 165.515 66.7461 165.591 66.5257C165.669 66.2994 165.705 66.0948 165.7 65.9119C165.701 65.8382 165.686 65.759 165.655 65.6741C165.583 65.5034 165.477 65.3685 165.337 65.2693C165.195 65.1659 165.028 65.1482 164.835 65.2162C164.522 65.3427 164.295 65.5316 164.155 65.7829C164.014 66.0299 163.895 66.3334 163.8 66.6934C163.703 67.0491 163.615 67.2694 163.538 67.3544C163.49 67.393 163.456 67.4165 163.436 67.4248C163.337 67.4647 163.242 67.4446 163.151 67.3644C163.06 67.2841 162.988 67.1719 162.935 67.0276C162.898 66.9257 162.878 66.8244 162.874 66.7237C162.849 66.5 162.875 66.2483 162.953 65.9687C163.03 65.689 163.152 65.4329 163.318 65.2004C163.604 64.7927 163.967 64.4998 164.409 64.3218C164.672 64.2153 164.941 64.1871 165.215 64.2373C165.765 64.2785 166.175 64.6682 166.445 65.4066C166.531 65.6832 166.529 65.9617 166.438 66.2422C166.345 66.5183 166.169 66.9179 165.911 67.441Z" fill="#261D44"/>
<path d="M173.908 60.8622C174.006 61.1392 174.174 61.5272 174.411 62.0262C174.649 62.5252 174.868 62.9442 175.068 63.2834C175.548 64.0952 175.923 64.8847 176.194 65.6519C176.624 66.8665 176.792 68.0955 176.699 69.3389C176.612 70.5849 176.19 71.7913 175.435 72.9582C175.289 73.1992 175.05 73.5174 174.719 73.913C174.394 74.3113 173.98 74.7535 173.478 75.2397C172.976 75.7259 172.369 76.2338 171.656 76.7633C170.944 77.2928 170.161 77.7841 169.308 78.2372C169.133 78.2862 168.984 78.2859 168.863 78.2361C168.747 78.1889 168.671 78.1121 168.633 78.0056C168.597 77.9033 168.598 77.8009 168.638 77.6984C168.677 77.5959 168.751 77.5207 168.862 77.4729C169.551 77.1707 170.241 76.7711 170.932 76.2742C171.621 75.7832 172.227 75.2927 172.751 74.8027C173.275 74.3127 173.627 73.9407 173.805 73.6869C174.339 73.0769 174.752 72.4992 175.044 71.9539C175.337 71.4085 175.532 70.9155 175.631 70.4747C175.731 70.0382 175.78 69.5973 175.778 69.152C175.766 67.7991 175.611 66.7007 175.313 65.8568C175.238 65.6437 174.996 65.1658 174.587 64.4231C174.604 64.5766 174.543 64.7456 174.406 64.9299C174.271 65.1085 174.108 65.2348 173.918 65.3089C173.682 65.4008 173.451 65.3793 173.224 65.2446C172.997 65.1098 172.807 64.825 172.653 64.3903C172.604 64.2496 172.571 64.1436 172.555 64.0722C172.667 64.3876 172.707 64.6944 172.676 64.9926C172.643 65.2865 172.551 65.5403 172.401 65.7541C172.253 65.962 172.071 66.1078 171.856 66.1916C171.607 66.2884 171.342 66.2899 171.059 66.1964C170.779 66.0969 170.502 65.8799 170.228 65.5452C169.959 65.209 169.722 64.7532 169.519 64.1778C169.469 64.0372 169.407 63.8286 169.333 63.552C169.313 63.4966 169.331 63.4339 169.386 63.3639C169.446 63.2922 169.525 63.2371 169.625 63.1984C169.902 63.0904 170.11 63.2324 170.249 63.6245C170.372 63.974 170.517 64.296 170.682 64.5904C170.852 64.8832 171.023 65.1075 171.195 65.2632C171.368 65.419 171.521 65.4711 171.653 65.4195C171.943 65.3067 172.095 64.7361 172.108 63.7079C172.056 63.5588 172.127 63.4463 172.321 63.3705C172.504 63.2996 172.653 63.3554 172.769 63.538C172.917 63.9557 173.121 64.2615 173.383 64.4554C173.647 64.6434 173.879 64.6987 174.078 64.6213C174.277 64.544 174.374 64.3533 174.37 64.0493C173.814 63.01 173.473 62.343 173.345 62.0485C173.175 61.5669 173.114 61.1882 173.162 60.9123C173.211 60.6365 173.322 60.4647 173.496 60.397C173.587 60.3615 173.676 60.3586 173.762 60.3882C173.846 60.4136 173.903 60.4689 173.933 60.5541C173.968 60.6521 173.959 60.7548 173.908 60.8622Z" fill="#261D44"/>
<path d="M177.12 61.6597C177.057 61.5868 177.013 61.5141 176.988 61.4414C176.949 61.326 176.952 61.2278 177 61.147C177.045 61.0618 177.112 61.0027 177.199 60.9695C177.319 60.9237 177.408 60.9409 177.463 61.0212C178.126 61.4026 178.733 61.4882 179.285 61.2781C179.642 61.1421 179.903 60.9122 180.069 60.5881C180.234 60.264 180.264 59.9481 180.158 59.6403C180.062 59.3624 179.862 59.1486 179.556 58.9988C179.251 58.8491 178.842 58.7993 178.328 58.8497C177.78 58.9905 177.468 58.9498 177.392 58.7275C177.344 58.5907 177.399 58.4275 177.554 58.2378C177.713 58.0465 177.924 57.9011 178.186 57.8015C178.489 57.6862 178.787 57.6719 179.08 57.7586C180.105 58.1178 180.735 58.6372 180.969 59.3169C181.092 59.6717 181.096 60.0377 180.981 60.4148C180.871 60.7904 180.67 61.1279 180.379 61.4274C180.088 61.7268 179.757 61.9469 179.388 62.0875C179.006 62.2329 178.616 62.2748 178.219 62.2131C177.825 62.1456 177.459 61.9611 177.12 61.6597Z" fill="#261D44"/>
<path d="M183.93 60.1678C183.845 59.963 183.759 59.7272 183.672 59.4604C183.548 59.0774 183.44 58.6741 183.349 58.2504C183.262 57.8253 183.207 57.4681 183.183 57.179C183.133 56.5244 183.185 56.0234 183.338 55.6759C183.495 55.3269 183.725 55.0987 184.026 54.9914C184.343 54.878 184.716 54.8965 185.143 55.0468C185.572 55.1912 185.975 55.4268 186.352 55.7533C186.727 56.0756 187.007 56.4199 187.192 56.7863C187.153 56.7234 187.11 56.621 187.064 56.479C186.96 56.1606 186.947 55.8317 187.023 55.4924C187.104 55.1516 187.249 54.8524 187.459 54.595C187.672 54.3317 187.913 54.1524 188.18 54.0569C188.477 53.951 188.764 53.9785 189.04 54.1392C189.315 54.2957 189.544 54.6054 189.727 55.0682C189.607 54.6982 189.569 54.3466 189.615 54.0134C189.659 53.6759 189.77 53.3844 189.947 53.1388C190.122 52.9034 190.342 52.7387 190.605 52.6448C190.902 52.5389 191.214 52.5451 191.542 52.6635C191.874 52.7804 192.196 53.0399 192.509 53.4422C192.82 53.8401 193.085 54.3747 193.303 55.0459C193.401 55.3471 193.469 55.5846 193.507 55.7584C193.529 55.8272 193.503 55.9039 193.427 55.9883C193.355 56.067 193.258 56.1279 193.137 56.1712C192.802 56.2905 192.56 56.1199 192.411 55.6595C192.204 55.0227 191.949 54.4894 191.646 54.0597C191.347 53.6285 191.076 53.4562 190.834 53.5427C190.491 53.6649 190.293 54.319 190.24 55.5047C190.265 55.5822 190.252 55.6565 190.2 55.7277C190.147 55.7946 190.073 55.8452 189.977 55.8795C189.751 55.96 189.576 55.8952 189.451 55.6851C189.342 55.3494 189.194 55.1144 189.005 54.9799C188.821 54.8439 188.631 54.811 188.434 54.8811C188.162 54.978 187.958 55.2383 187.82 55.6619C187.681 56.0812 187.665 56.6415 187.771 57.3429C187.804 57.4851 187.797 57.6097 187.753 57.7168C187.708 57.824 187.644 57.8924 187.561 57.9222C187.419 57.9729 187.283 57.9134 187.153 57.7437C186.717 57.222 186.248 56.7914 185.746 56.452C185.247 56.1068 184.855 55.9848 184.57 56.0863C184.002 56.2891 184.027 57.3846 184.645 59.3728C185.037 60.2363 185.457 60.9317 185.903 61.459C186.356 61.9892 186.803 62.3674 187.245 62.5938C187.69 62.8288 188.116 62.9554 188.523 62.9734C188.935 62.99 189.314 62.9364 189.661 62.8126C190.779 62.3899 191.617 61.9613 192.176 61.5267C192.737 61.1008 193.103 60.7061 193.275 60.3425C193.542 60.1607 193.778 60.0332 193.983 59.9602C194.247 59.8662 194.46 59.8478 194.623 59.9048C194.786 59.9618 194.89 60.0592 194.935 60.1969C194.991 60.369 194.946 60.5121 194.802 60.6262C194.346 61.0767 193.941 61.4467 193.587 61.7362C193.235 62.03 192.786 62.3436 192.241 62.6772C191.697 63.0108 191.015 63.3691 190.197 63.7521C189.496 63.9781 188.747 64.0147 187.951 63.8617C187.156 63.7131 186.397 63.3307 185.675 62.7146C184.952 62.0986 184.37 61.2496 183.93 60.1678Z" fill="#261D44"/>
<path d="M195.718 53.674C195.657 53.5991 195.616 53.525 195.593 53.4515C195.556 53.3348 195.563 53.2369 195.613 53.1576C195.661 53.074 195.729 53.017 195.817 52.9866C195.939 52.9447 196.027 52.9648 196.08 53.0469C196.731 53.4497 197.335 53.555 197.893 53.3629C198.254 53.2386 198.522 53.0172 198.697 52.6986C198.871 52.38 198.91 52.0652 198.813 51.7541C198.726 51.4732 198.532 51.2529 198.231 51.0933C197.93 50.9337 197.523 50.8706 197.008 50.9043C196.456 51.0273 196.146 50.9764 196.076 50.7517C196.032 50.6135 196.091 50.452 196.252 50.2675C196.417 50.0814 196.632 49.9429 196.896 49.8519C197.203 49.7464 197.501 49.7418 197.791 49.8381C198.805 50.2304 199.42 50.7701 199.634 51.4572C199.746 51.8158 199.739 52.1818 199.614 52.5551C199.493 52.9269 199.282 53.2578 198.982 53.5477C198.682 53.8376 198.345 54.0468 197.972 54.1754C197.586 54.3083 197.196 54.3375 196.801 54.263C196.409 54.1826 196.048 53.9863 195.718 53.674Z" fill="#261D44"/>
<path d="M202.898 51.1558C202.838 51.0804 202.797 51.0059 202.774 50.9323C202.739 50.8153 202.746 50.7174 202.796 50.6385C202.845 50.5553 202.914 50.4989 203.002 50.4693C203.124 50.4283 203.212 50.4491 203.265 50.5317C203.912 50.9397 204.516 51.05 205.075 50.8623C205.437 50.741 205.706 50.5218 205.883 50.2046C206.061 49.8875 206.102 49.5729 206.007 49.261C205.922 48.9795 205.729 48.7576 205.43 48.5955C205.13 48.4335 204.723 48.3671 204.208 48.3966C203.656 48.5151 203.345 48.4617 203.277 48.2365C203.235 48.0978 203.295 47.9369 203.457 47.7536C203.623 47.5689 203.839 47.4322 204.104 47.3433C204.411 47.2403 204.709 47.2381 204.999 47.3367C206.01 47.7374 206.621 48.282 206.83 48.9708C206.939 49.3304 206.929 49.6963 206.801 50.0686C206.678 50.4394 206.465 50.7686 206.163 51.056C205.861 51.3435 205.522 51.55 205.148 51.6755C204.761 51.8053 204.37 51.8313 203.976 51.7536C203.585 51.6701 203.225 51.4708 202.898 51.1558Z" fill="#261D44"/>
<path d="M210.663 49.4306C210.486 49.4886 210.329 49.4828 210.193 49.4131C210.057 49.3434 209.968 49.239 209.928 49.1C209.885 48.9567 209.902 48.8177 209.978 48.6833C210.049 48.5458 210.175 48.4474 210.356 48.3879C210.545 48.3257 210.706 48.3302 210.838 48.4013C210.964 48.4694 211.049 48.5751 211.091 48.7185C211.132 48.8575 211.117 48.9958 211.046 49.1332C210.976 49.2706 210.848 49.3698 210.663 49.4306Z" fill="#261D44"/>
<path d="M214.251 48.2409C214.074 48.2982 213.917 48.2917 213.781 48.2215C213.645 48.1512 213.557 48.0465 213.517 47.9073C213.475 47.7638 213.493 47.6249 213.569 47.4908C213.64 47.3536 213.766 47.2557 213.948 47.197C214.138 47.1355 214.298 47.1406 214.43 47.2123C214.556 47.2809 214.64 47.387 214.682 47.5305C214.722 47.6697 214.707 47.8079 214.636 47.9451C214.565 48.0822 214.436 48.1808 214.251 48.2409Z" fill="#261D44"/>
<path d="M217.837 47.0688C217.659 47.1254 217.503 47.1183 217.367 47.0475C217.232 46.9767 217.144 46.8716 217.104 46.7323C217.063 46.5886 217.081 46.4498 217.158 46.3159C217.23 46.1791 217.356 46.0816 217.538 46.0237C217.728 45.963 217.889 45.9688 218.02 46.0409C218.146 46.1101 218.229 46.2165 218.27 46.3602C218.31 46.4996 218.294 46.6377 218.223 46.7746C218.151 46.9114 218.023 47.0095 217.837 47.0688Z" fill="#261D44"/>
</g>
<defs>
<linearGradient id="paint0_linear_335_12514" x1="1104.34" y1="81.2146" x2="1104.34" y2="2231.04" gradientUnits="userSpaceOnUse">
<stop stop-color="#2AABEE"/>
<stop offset="1" stop-color="#229ED9"/>
</linearGradient>
<radialGradient id="paint1_radial_335_12514" cx="0" cy="0" r="1" gradientUnits="userSpaceOnUse" gradientTransform="translate(100.566 200.189) rotate(-90) scale(6.07033 5.64682)">
<stop stop-color="#FFDD55"/>
<stop offset="0.1" stop-color="#FFDD55"/>
<stop offset="0.5" stop-color="#FF543E"/>
<stop offset="1" stop-color="#C837AB"/>
</radialGradient>
<radialGradient id="paint2_radial_335_12514" cx="0" cy="0" r="1" gradientUnits="userSpaceOnUse" gradientTransform="translate(97.9123 194.034) rotate(78.6792) scale(2.71349 11.1868)">
<stop stop-color="#3771C8"/>
<stop offset="0.128" stop-color="#3771C8"/>
<stop offset="1" stop-color="#6600FF" stop-opacity="0"/>
</radialGradient>
<radialGradient id="paint3_radial_335_12514" cx="0" cy="0" r="1" gradientUnits="userSpaceOnUse" gradientTransform="translate(132.234 139.155) scale(16.8881 16.8881)">
<stop stop-color="#0099FF"/>
<stop offset="0.6098" stop-color="#A033FF"/>
<stop offset="0.9348" stop-color="#FF5280"/>
<stop offset="1" stop-color="#FF7061"/>
</radialGradient>
<clipPath id="clip0_335_12514">
<rect width="402" height="515" fill="white" transform="matrix(-1 0 0 1 402 0)"/>
</clipPath>
<clipPath id="clip1_335_12514">
<rect width="21.5018" height="21.4982" fill="white" transform="translate(29.251 81.2146)"/>
</clipPath>
<clipPath id="clip2_335_12514">
<rect width="8.00133" height="8" fill="white" transform="translate(81.001 172.357)"/>
</clipPath>
<clipPath id="clip3_335_12514">
<rect width="13.0022" height="13" fill="white" transform="translate(102.501 83.3271)"/>
</clipPath>
</defs>
</svg>
