<svg width="369" height="228" viewBox="0 0 369 228" fill="none" xmlns="http://www.w3.org/2000/svg">
<g filter="url(#filter0_dd_956_40356)">
<g clip-path="url(#clip0_956_40356)">
<path d="M64.9828 40.1218C64.9828 35.0721 69.0764 30.9785 74.1261 30.9785H324.805C329.855 30.9785 333.949 35.0721 333.949 40.1218V144.508C333.949 149.558 329.855 153.651 324.805 153.651H74.1261C69.0764 153.651 64.9828 149.558 64.9828 144.508V40.1218Z" fill="white"/>
<path d="M89.365 134.984C88.9828 134.984 88.6098 134.946 88.2493 134.875L88.1753 135.249C87.3756 135.091 86.6322 134.776 85.9782 134.338L86.1901 134.021C85.5668 133.604 85.03 133.067 84.6127 132.444L84.2961 132.656C83.8583 132.002 83.5436 131.259 83.3854 130.459L83.7592 130.385C83.6878 130.024 83.6504 129.651 83.6504 129.269V127.729H83.2694V124.65H83.6504V121.57H83.2694V118.491H83.6504V115.411H83.2694V112.332H83.6504V109.252H83.2694V106.173H83.6504V103.093H83.2694V100.014H83.6504V96.9342H83.2694V93.8547H83.6504V90.7752H83.2694V87.6957H83.6504V84.6161H83.2694V81.5366H83.6504V78.4571H83.2694V75.3776H83.6504V72.298H83.2694V69.2185H83.6504V66.139H83.2694V63.0595H83.6504V59.98H83.2694V56.9004H83.6504V55.3607C83.6504 54.9785 83.6878 54.6055 83.7592 54.245L83.3854 54.1711C83.5436 53.3714 83.8583 52.6279 84.2961 51.9739L84.6127 52.1858C85.03 51.5625 85.5668 51.0257 86.1901 50.6084L85.9782 50.2918C86.6322 49.854 87.3756 49.5394 88.1753 49.3812L88.2493 49.7549C88.6098 49.6836 88.9828 49.6461 89.365 49.6461H90.8941V49.2651H93.9525V49.6461H97.0108V49.2651H100.069V49.6461H103.128V49.2651H106.186V49.6461H109.244V49.2651H112.303V49.6461H115.361V49.2651H118.419V49.6461H121.478V49.2651H124.536V49.6461H127.594V49.2651H130.653V49.6461H133.711V49.2651H136.769V49.6461H139.828V49.2651H142.886V49.6461H145.945V49.2651H149.003V49.6461H152.061V49.2651H155.12V49.6461H158.178V49.2651H161.236V49.6461H164.295V49.2651H167.353V49.6461H170.411V49.2651H173.47V49.6461H176.528V49.2651H179.586V49.6461H182.645V49.2651H185.703V49.6461H188.762V49.2651H191.82V49.6461H194.878V49.2651H197.937V49.6461H200.995V49.2651H204.053V49.6461H207.112V49.2651H210.17V49.6461H213.228V49.2651H216.287V49.6461H219.345V49.2651H222.403V49.6461H225.462V49.2651H228.52V49.6461H231.579V49.2651H234.637V49.6461H237.695V49.2651H240.754V49.6461H243.812V49.2651H246.87V49.6461H249.929V49.2651H252.987V49.6461H256.045V49.2651H259.104V49.6461H262.162V49.2651H265.22V49.6461H268.279V49.2651H271.337V49.6461H274.395V49.2651H277.454V49.6461H280.512V49.2651H283.57V49.6461H286.629V49.2651H289.687V49.6461H292.745V49.2651H295.804V49.6461H298.862V49.2651H301.921V49.6461H304.979V49.2651H308.037V49.6461H309.567C309.949 49.6461 310.322 49.6836 310.682 49.7549L310.756 49.3812C311.556 49.5394 312.299 49.854 312.953 50.2918L312.741 50.6084C313.365 51.0257 313.902 51.5625 314.319 52.1858L314.635 51.9739C315.073 52.6279 315.388 53.3714 315.546 54.1711L315.172 54.245C315.244 54.6055 315.281 54.9785 315.281 55.3607V56.9004H315.662V59.98H315.281V63.0595H315.662V66.139H315.281V69.2185H315.662V72.2981H315.281V75.3776H315.662V78.4571H315.281V81.5366H315.662V84.6161H315.281V87.6957H315.662V90.7752H315.281V93.8547H315.662V96.9342H315.281V100.014H315.662V103.093H315.281V106.173H315.662V109.252H315.281V112.332H315.662V115.411H315.281V118.491H315.662V121.57H315.281V124.65H315.662V127.729H315.281V129.269C315.281 129.651 315.244 130.024 315.172 130.385L315.546 130.459C315.388 131.259 315.073 132.002 314.635 132.656L314.319 132.444C313.902 133.067 313.365 133.604 312.741 134.021L312.953 134.338C312.299 134.776 311.556 135.091 310.756 135.249L310.682 134.875C310.322 134.946 309.949 134.984 309.567 134.984H308.037V135.365H304.979V134.984H301.921V135.365H298.862V134.984H295.804V135.365H292.746V134.984H289.687V135.365H286.629V134.984H283.571V135.365H280.512V134.984H277.454V135.365H274.395V134.984H271.337V135.365H268.279V134.984H265.22V135.365H262.162V134.984H259.104V135.365H256.045V134.984H252.987V135.365H249.929V134.984H246.87V135.365H243.812V134.984H240.754V135.365H237.695V134.984H234.637V135.365H231.578V134.984H228.52V135.365H225.462V134.984H222.403V135.365H219.345V134.984H216.287V135.365H213.228V134.984H210.17V135.365H207.112V134.984H204.053V135.365H200.995V134.984H197.937V135.365H194.878V134.984H191.82V135.365H188.761V134.984H185.703V135.365H182.645V134.984H179.586V135.365H176.528V134.984H173.47V135.365H170.411V134.984H167.353V135.365H164.295V134.984H161.236V135.365H158.178V134.984H155.12V135.365H152.061V134.984H149.003V135.365H145.945V134.984H142.886V135.365H139.828V134.984H136.77V135.365H133.711V134.984H130.653V135.365H127.594V134.984H124.536V135.365H121.478V134.984H118.419V135.365H115.361V134.984H112.303V135.365H109.244V134.984H106.186V135.365H103.128V134.984H100.069V135.365H97.011V134.984H93.9526V135.365H90.8943V134.984H89.365Z" stroke="#2E90FA" stroke-opacity="0.4" stroke-width="0.761943" stroke-dasharray="3.05 3.05"/>
<path d="M207.999 89.8151H194.589C193.221 89.8151 192.112 88.7064 192.112 87.3388V69.0522C192.112 67.6845 193.221 66.5759 194.589 66.5759H203.732C203.775 66.5759 203.817 66.5932 203.848 66.624L210.427 73.2028C210.458 73.2337 210.475 73.2755 210.475 73.3191V87.3388C210.475 88.7064 209.366 89.8151 207.999 89.8151Z" stroke="#D0D5DD" stroke-width="1.14292"/>
<path d="M203.732 66.3091V70.2712C203.732 71.9544 205.097 73.319 206.78 73.319H210.742" stroke="#D0D5DD" stroke-width="1.14292"/>
<rect x="202.894" y="80.8628" width="13.715" height="13.715" rx="6.85749" fill="#2E90FA"/>
<path d="M212.966 87.7203V89.2204C212.966 89.8205 212.966 90.1205 212.849 90.3497C212.747 90.5513 212.583 90.7152 212.381 90.818C212.152 90.9348 211.852 90.9348 211.252 90.9348H208.252C207.652 90.9348 207.352 90.9348 207.122 90.818C206.921 90.7152 206.757 90.5513 206.654 90.3497C206.537 90.1205 206.537 89.8205 206.537 89.2204V87.7203M211.18 85.9345L209.752 84.5059M209.752 84.5059L208.323 85.9345M209.752 84.5059V88.7918" stroke="white" stroke-width="0.64289" stroke-linecap="round" stroke-linejoin="round"/>
<path d="M121.179 109.545C121.179 109.14 121.267 108.784 121.445 108.478C121.623 108.173 121.872 107.934 122.192 107.764C122.512 107.593 122.882 107.508 123.301 107.508C123.892 107.508 124.379 107.664 124.763 107.977C125.147 108.283 125.339 108.692 125.339 109.204C125.339 109.865 124.933 110.388 124.123 110.772V110.836C124.756 110.857 125.246 111.085 125.595 111.519C125.943 111.945 126.117 112.507 126.117 113.204C126.117 113.602 126.071 113.997 125.979 114.388C125.886 114.779 125.755 115.192 125.584 115.625H124.56C124.852 114.808 124.997 114.025 124.997 113.279C124.997 112.696 124.88 112.255 124.645 111.956C124.411 111.65 124.084 111.497 123.664 111.497C123.244 111.497 122.907 111.632 122.651 111.903C122.395 112.173 122.267 112.557 122.267 113.055V115.625H121.179V109.545ZM122.267 111.529C122.359 111.351 122.469 111.206 122.597 111.092C122.732 110.971 122.903 110.857 123.109 110.751C123.508 110.53 123.796 110.31 123.973 110.089C124.158 109.862 124.251 109.602 124.251 109.311C124.251 109.019 124.162 108.788 123.984 108.617C123.806 108.446 123.568 108.361 123.269 108.361C122.963 108.361 122.715 108.461 122.523 108.66C122.331 108.859 122.238 109.143 122.245 109.513L122.267 110.697C122.267 110.953 122.242 111.231 122.192 111.529H122.267ZM130.072 110.751C130.065 110.978 130.122 111.174 130.243 111.337C130.371 111.494 130.563 111.686 130.819 111.913C131.039 112.105 131.217 112.276 131.352 112.425C131.494 112.568 131.612 112.752 131.704 112.98C131.804 113.2 131.853 113.464 131.853 113.769C131.853 114.168 131.75 114.516 131.544 114.815C131.338 115.106 131.057 115.334 130.701 115.497C130.346 115.654 129.955 115.732 129.528 115.732C129.094 115.732 128.7 115.654 128.344 115.497C127.995 115.341 127.718 115.113 127.512 114.815C127.313 114.516 127.213 114.164 127.213 113.759C127.213 113.574 127.238 113.407 127.288 113.257L128.355 113.3C128.333 113.407 128.323 113.528 128.323 113.663C128.323 114.04 128.433 114.338 128.653 114.559C128.874 114.779 129.165 114.889 129.528 114.889C129.891 114.889 130.186 114.786 130.413 114.58C130.641 114.374 130.755 114.093 130.755 113.737C130.755 113.46 130.684 113.232 130.541 113.055C130.406 112.87 130.196 112.664 129.912 112.436C129.692 112.251 129.517 112.091 129.389 111.956C129.261 111.821 129.155 111.654 129.069 111.455C128.991 111.255 128.959 111.021 128.973 110.751H130.072ZM135.718 110.751C135.711 110.978 135.768 111.174 135.889 111.337C136.017 111.494 136.209 111.686 136.465 111.913C136.685 112.105 136.863 112.276 136.998 112.425C137.14 112.568 137.258 112.752 137.35 112.98C137.45 113.2 137.5 113.464 137.5 113.769C137.5 114.168 137.396 114.516 137.19 114.815C136.984 115.106 136.703 115.334 136.348 115.497C135.992 115.654 135.601 115.732 135.174 115.732C134.74 115.732 134.346 115.654 133.99 115.497C133.642 115.341 133.364 115.113 133.158 114.815C132.959 114.516 132.859 114.164 132.859 113.759C132.859 113.574 132.884 113.407 132.934 113.257L134.001 113.3C133.979 113.407 133.969 113.528 133.969 113.663C133.969 114.04 134.079 114.338 134.299 114.559C134.52 114.779 134.811 114.889 135.174 114.889C135.537 114.889 135.832 114.786 136.06 114.58C136.287 114.374 136.401 114.093 136.401 113.737C136.401 113.46 136.33 113.232 136.188 113.055C136.052 112.87 135.843 112.664 135.558 112.436C135.338 112.251 135.163 112.091 135.035 111.956C134.907 111.821 134.801 111.654 134.715 111.455C134.637 111.255 134.605 111.021 134.619 110.751H135.718ZM141.007 118.943C140.495 118.943 140.036 118.829 139.631 118.602C139.232 118.381 138.919 118.065 138.692 117.652C138.464 117.247 138.35 116.778 138.35 116.244C138.35 115.753 138.454 115.309 138.66 114.911C138.866 114.505 139.161 114.182 139.545 113.94C139.929 113.698 140.381 113.567 140.9 113.545C141.007 113.531 141.131 113.531 141.273 113.545C141.465 113.396 141.618 113.236 141.732 113.065C141.853 112.888 141.913 112.681 141.913 112.447C141.913 112.134 141.824 111.896 141.647 111.732C141.476 111.568 141.231 111.487 140.911 111.487C140.605 111.487 140.359 111.576 140.175 111.753C139.99 111.924 139.89 112.162 139.876 112.468L138.734 112.425C138.77 111.906 138.983 111.479 139.375 111.145C139.766 110.811 140.281 110.644 140.921 110.644C141.355 110.644 141.732 110.719 142.052 110.868C142.372 111.017 142.617 111.223 142.788 111.487C142.959 111.743 143.044 112.034 143.044 112.361C143.044 112.66 142.962 112.927 142.799 113.161C142.642 113.389 142.425 113.577 142.148 113.727V113.801C142.646 114.001 143.023 114.317 143.279 114.751C143.535 115.177 143.663 115.672 143.663 116.234C143.663 116.767 143.549 117.24 143.321 117.652C143.094 118.065 142.777 118.381 142.372 118.602C141.974 118.829 141.519 118.943 141.007 118.943ZM139.471 116.234C139.471 116.81 139.613 117.261 139.897 117.588C140.182 117.922 140.551 118.09 141.007 118.09C141.455 118.09 141.821 117.922 142.105 117.588C142.397 117.261 142.543 116.81 142.543 116.234C142.543 115.665 142.397 115.217 142.105 114.889C141.821 114.555 141.455 114.388 141.007 114.388C140.551 114.388 140.182 114.555 139.897 114.889C139.613 115.217 139.471 115.665 139.471 116.234ZM149.926 118.868C149.84 118.435 149.602 118.09 149.211 117.834C148.82 117.585 148.358 117.46 147.824 117.46H147.632C147.348 117.46 147.074 117.485 146.811 117.535C146.548 117.592 146.27 117.684 145.979 117.812L145.648 117.119C146.011 116.955 146.498 116.859 147.11 116.831V116.767C146.334 116.582 145.716 116.194 145.253 115.604C144.798 115.007 144.571 114.264 144.571 113.375C144.571 112.763 144.674 112.255 144.88 111.849C145.086 111.437 145.36 111.135 145.701 110.943C146.043 110.743 146.416 110.644 146.822 110.644C147.433 110.644 147.942 110.907 148.347 111.433H148.422C148.621 111.184 148.873 110.992 149.179 110.857C149.492 110.715 149.84 110.644 150.224 110.644C150.672 110.644 151.074 110.743 151.43 110.943C151.792 111.142 152.077 111.426 152.283 111.796C152.489 112.159 152.593 112.585 152.593 113.076C152.593 113.545 152.489 113.965 152.283 114.335C152.077 114.705 151.789 114.993 151.419 115.199C151.056 115.405 150.648 115.508 150.192 115.508C149.737 115.508 149.325 115.405 148.955 115.199C148.592 114.993 148.308 114.705 148.102 114.335C147.895 113.965 147.792 113.545 147.792 113.076C147.792 112.642 147.87 112.269 148.027 111.956C147.728 111.657 147.39 111.508 147.014 111.508C146.615 111.508 146.292 111.657 146.043 111.956C145.801 112.255 145.68 112.724 145.68 113.364C145.68 114.239 145.911 114.929 146.374 115.433C146.843 115.938 147.486 116.287 148.304 116.479L148.678 116.575C149.339 116.738 149.872 117.012 150.278 117.396C150.69 117.787 150.932 118.264 151.003 118.826L149.926 118.868ZM148.891 113.076C148.891 113.552 149.012 113.94 149.254 114.239C149.495 114.53 149.808 114.676 150.192 114.676C150.584 114.676 150.896 114.53 151.131 114.239C151.373 113.94 151.494 113.552 151.494 113.076C151.494 112.564 151.376 112.169 151.142 111.892C150.907 111.608 150.591 111.465 150.192 111.465C149.801 111.465 149.485 111.608 149.243 111.892C149.008 112.176 148.891 112.571 148.891 113.076ZM156.065 118.943C155.546 118.943 155.101 118.836 154.731 118.623C154.369 118.41 154.091 118.115 153.899 117.738C153.715 117.368 153.622 116.945 153.622 116.468C153.622 116.127 153.672 115.796 153.771 115.476L154.859 115.519C154.781 115.796 154.742 116.088 154.742 116.394C154.742 116.941 154.856 117.361 155.083 117.652C155.318 117.944 155.649 118.09 156.076 118.09C156.495 118.09 156.819 117.944 157.046 117.652C157.274 117.361 157.388 116.948 157.388 116.415V113.012C157.388 112.479 157.274 112.095 157.046 111.86C156.826 111.618 156.534 111.497 156.172 111.497C155.823 111.497 155.542 111.611 155.329 111.839C155.123 112.066 155.019 112.408 155.019 112.863C155.019 113.012 155.041 113.215 155.083 113.471L153.963 113.503C153.914 113.275 153.889 113.04 153.889 112.799C153.889 112.358 153.985 111.977 154.177 111.657C154.376 111.33 154.646 111.081 154.987 110.911C155.329 110.733 155.716 110.644 156.15 110.644C156.847 110.644 157.405 110.85 157.825 111.263C158.252 111.675 158.465 112.251 158.465 112.991V116.426C158.465 117.186 158.259 117.794 157.846 118.25C157.434 118.712 156.84 118.943 156.065 118.943ZM162.202 115.732C161.733 115.732 161.313 115.629 160.943 115.423C160.574 115.209 160.282 114.911 160.069 114.527C159.855 114.143 159.749 113.695 159.749 113.183C159.749 112.678 159.852 112.233 160.058 111.849C160.271 111.465 160.563 111.17 160.933 110.964C161.302 110.751 161.719 110.644 162.181 110.644C162.579 110.644 162.938 110.719 163.258 110.868C163.585 111.017 163.848 111.241 164.048 111.54H164.122C164.599 110.943 165.178 110.644 165.861 110.644C166.458 110.644 166.945 110.861 167.322 111.295C167.706 111.721 167.898 112.361 167.898 113.215C167.898 113.656 167.852 114.061 167.76 114.431C167.674 114.801 167.543 115.199 167.365 115.625H166.298C166.462 115.22 166.583 114.829 166.661 114.452C166.739 114.075 166.778 113.681 166.778 113.268C166.778 112.671 166.672 112.23 166.458 111.945C166.245 111.654 165.957 111.508 165.594 111.508C165.146 111.508 164.755 111.696 164.421 112.073C164.57 112.415 164.645 112.788 164.645 113.193C164.645 113.698 164.538 114.143 164.325 114.527C164.112 114.911 163.82 115.209 163.45 115.423C163.08 115.629 162.664 115.732 162.202 115.732ZM160.869 113.193C160.869 113.727 160.99 114.143 161.231 114.441C161.473 114.733 161.797 114.879 162.202 114.879C162.6 114.879 162.92 114.733 163.162 114.441C163.404 114.143 163.525 113.727 163.525 113.193C163.525 112.66 163.404 112.244 163.162 111.945C162.92 111.64 162.6 111.487 162.202 111.487C161.797 111.487 161.473 111.64 161.231 111.945C160.99 112.244 160.869 112.66 160.869 113.193ZM176.36 118.943C175.742 118.943 175.197 118.836 174.728 118.623C174.266 118.417 173.907 118.132 173.651 117.77C173.402 117.407 173.277 117.009 173.277 116.575L174.387 116.468C174.387 116.966 174.565 117.357 174.92 117.642C175.276 117.933 175.752 118.079 176.35 118.079C176.926 118.079 177.374 117.933 177.694 117.642C178.021 117.35 178.184 116.977 178.184 116.522C178.184 116.138 178.092 115.828 177.907 115.593C177.722 115.352 177.477 115.213 177.171 115.177L176.915 115.135L177.011 114.26H177.246C177.644 114.26 177.957 114.125 178.184 113.855C178.412 113.584 178.526 113.257 178.526 112.873C178.526 112.447 178.408 112.112 178.174 111.871C177.939 111.629 177.637 111.508 177.267 111.508C176.812 111.508 176.435 111.657 176.136 111.956C176.293 112.269 176.371 112.635 176.371 113.055C176.371 113.531 176.268 113.958 176.062 114.335C175.855 114.705 175.571 114.993 175.208 115.199C174.845 115.405 174.437 115.508 173.981 115.508C173.519 115.508 173.107 115.405 172.744 115.199C172.381 114.993 172.097 114.705 171.891 114.335C171.684 113.958 171.581 113.531 171.581 113.055C171.581 112.578 171.681 112.159 171.88 111.796C172.086 111.426 172.367 111.142 172.723 110.943C173.085 110.743 173.494 110.644 173.949 110.644C174.333 110.644 174.682 110.715 174.995 110.857C175.308 110.992 175.56 111.184 175.752 111.433H175.816C176.229 110.907 176.798 110.644 177.523 110.644C177.9 110.644 178.248 110.733 178.568 110.911C178.895 111.081 179.155 111.33 179.347 111.657C179.539 111.977 179.635 112.351 179.635 112.777C179.635 113.232 179.493 113.645 179.208 114.015C178.931 114.377 178.54 114.612 178.035 114.719V114.783C178.426 114.882 178.735 115.092 178.963 115.412C179.191 115.732 179.304 116.116 179.304 116.564C179.304 117.005 179.187 117.403 178.952 117.759C178.718 118.122 178.376 118.41 177.928 118.623C177.48 118.836 176.958 118.943 176.36 118.943ZM172.669 113.055C172.669 113.545 172.787 113.94 173.021 114.239C173.263 114.53 173.58 114.676 173.971 114.676C174.362 114.676 174.678 114.53 174.92 114.239C175.162 113.94 175.283 113.542 175.283 113.044C175.283 112.553 175.162 112.169 174.92 111.892C174.685 111.608 174.369 111.465 173.971 111.465C173.58 111.465 173.263 111.608 173.021 111.892C172.787 112.176 172.669 112.564 172.669 113.055ZM183.481 110.751C183.474 110.978 183.531 111.174 183.652 111.337C183.78 111.494 183.972 111.686 184.228 111.913C184.448 112.105 184.626 112.276 184.761 112.425C184.903 112.568 185.021 112.752 185.113 112.98C185.213 113.2 185.262 113.464 185.262 113.769C185.262 114.168 185.159 114.516 184.953 114.815C184.747 115.106 184.466 115.334 184.11 115.497C183.755 115.654 183.364 115.732 182.937 115.732C182.503 115.732 182.108 115.654 181.753 115.497C181.404 115.341 181.127 115.113 180.921 114.815C180.722 114.516 180.622 114.164 180.622 113.759C180.622 113.574 180.647 113.407 180.697 113.257L181.764 113.3C181.742 113.407 181.732 113.528 181.732 113.663C181.732 114.04 181.842 114.338 182.062 114.559C182.283 114.779 182.574 114.889 182.937 114.889C183.3 114.889 183.595 114.786 183.822 114.58C184.05 114.374 184.164 114.093 184.164 113.737C184.164 113.46 184.093 113.232 183.95 113.055C183.815 112.87 183.605 112.664 183.321 112.436C183.101 112.251 182.926 112.091 182.798 111.956C182.67 111.821 182.564 111.654 182.478 111.455C182.4 111.255 182.368 111.021 182.382 110.751H183.481ZM186.834 115.625C186.67 115.199 186.542 114.797 186.45 114.42C186.364 114.043 186.322 113.652 186.322 113.247C186.322 112.699 186.425 112.23 186.631 111.839C186.844 111.447 187.136 111.152 187.506 110.953C187.875 110.747 188.299 110.644 188.775 110.644C189.259 110.644 189.685 110.747 190.055 110.953C190.432 111.152 190.724 111.447 190.93 111.839C191.143 112.23 191.25 112.699 191.25 113.247C191.25 113.652 191.204 114.043 191.111 114.42C191.026 114.79 190.898 115.192 190.727 115.625H189.703C189.852 115.192 189.963 114.793 190.034 114.431C190.105 114.068 190.141 113.688 190.141 113.289C190.141 112.72 190.02 112.28 189.778 111.967C189.536 111.647 189.202 111.487 188.775 111.487C188.348 111.487 188.014 111.647 187.772 111.967C187.538 112.28 187.42 112.72 187.42 113.289C187.42 113.681 187.456 114.061 187.527 114.431C187.598 114.801 187.712 115.199 187.868 115.625H186.834ZM199.543 118.868C199.472 118.392 199.205 118.04 198.743 117.812C198.281 117.592 197.694 117.474 196.983 117.46L196.513 117.45C196.044 117.435 195.582 117.478 195.127 117.578C194.672 117.677 194.27 117.809 193.921 117.972L193.591 117.236C193.84 117.13 194.085 117.044 194.327 116.98C194.568 116.916 194.86 116.874 195.201 116.852V116.788C194.632 116.717 194.138 116.532 193.719 116.234C193.299 115.935 192.975 115.551 192.748 115.081C192.52 114.612 192.407 114.097 192.407 113.535C192.407 112.88 192.499 112.336 192.684 111.903C192.876 111.469 193.132 111.152 193.452 110.953C193.772 110.747 194.128 110.644 194.519 110.644C194.903 110.644 195.248 110.743 195.553 110.943C195.859 111.135 196.076 111.447 196.204 111.881H196.279C196.385 111.447 196.588 111.135 196.887 110.943C197.193 110.743 197.527 110.644 197.889 110.644C198.259 110.644 198.604 110.743 198.924 110.943C199.244 111.135 199.458 111.447 199.564 111.881H199.639C199.753 111.447 199.959 111.135 200.258 110.943C200.563 110.743 200.912 110.644 201.303 110.644C201.922 110.644 202.419 110.861 202.796 111.295C203.173 111.721 203.362 112.34 203.362 113.151C203.362 113.513 203.333 113.869 203.276 114.217C203.22 114.566 203.134 114.939 203.02 115.337L201.932 115.284C202.139 114.658 202.242 113.958 202.242 113.183C202.242 112.642 202.142 112.23 201.943 111.945C201.744 111.661 201.467 111.519 201.111 111.519C200.784 111.519 200.524 111.632 200.332 111.86C200.14 112.08 200.044 112.429 200.044 112.905V114.42H198.978V112.905C198.978 112.429 198.871 112.08 198.658 111.86C198.451 111.632 198.195 111.519 197.889 111.519C197.577 111.519 197.313 111.632 197.1 111.86C196.894 112.08 196.791 112.429 196.791 112.905V114.42H195.724V112.905C195.724 112.429 195.628 112.08 195.436 111.86C195.244 111.632 194.995 111.519 194.689 111.519C194.341 111.519 194.056 111.672 193.836 111.977C193.623 112.283 193.516 112.802 193.516 113.535C193.516 114.424 193.786 115.117 194.327 115.615C194.874 116.106 195.635 116.394 196.609 116.479L197.495 116.554C199.45 116.738 200.492 117.496 200.62 118.826L199.543 118.868ZM205.022 115.625C204.859 115.199 204.731 114.797 204.638 114.42C204.553 114.043 204.51 113.652 204.51 113.247C204.51 112.699 204.613 112.23 204.819 111.839C205.033 111.447 205.324 111.152 205.694 110.953C206.064 110.747 206.487 110.644 206.964 110.644C207.447 110.644 207.874 110.747 208.244 110.953C208.62 111.152 208.912 111.447 209.118 111.839C209.332 112.23 209.438 112.699 209.438 113.247C209.438 113.652 209.392 114.043 209.3 114.42C209.214 114.79 209.086 115.192 208.916 115.625H207.892C208.041 115.192 208.151 114.793 208.222 114.431C208.293 114.068 208.329 113.688 208.329 113.289C208.329 112.72 208.208 112.28 207.966 111.967C207.724 111.647 207.39 111.487 206.964 111.487C206.537 111.487 206.203 111.647 205.961 111.967C205.726 112.28 205.609 112.72 205.609 113.289C205.609 113.681 205.644 114.061 205.715 114.431C205.787 114.801 205.9 115.199 206.057 115.625H205.022ZM215.868 110.751C215.861 110.978 215.918 111.174 216.039 111.337C216.167 111.494 216.359 111.686 216.615 111.913C216.835 112.105 217.013 112.276 217.148 112.425C217.29 112.568 217.408 112.752 217.5 112.98C217.6 113.2 217.649 113.464 217.649 113.769C217.649 114.168 217.546 114.516 217.34 114.815C217.134 115.106 216.853 115.334 216.497 115.497C216.142 115.654 215.751 115.732 215.324 115.732C214.89 115.732 214.496 115.654 214.14 115.497C213.792 115.341 213.514 115.113 213.308 114.815C213.109 114.516 213.009 114.164 213.009 113.759C213.009 113.574 213.034 113.407 213.084 113.257L214.151 113.3C214.129 113.407 214.119 113.528 214.119 113.663C214.119 114.04 214.229 114.338 214.449 114.559C214.67 114.779 214.961 114.889 215.324 114.889C215.687 114.889 215.982 114.786 216.209 114.58C216.437 114.374 216.551 114.093 216.551 113.737C216.551 113.46 216.48 113.232 216.337 113.055C216.202 112.87 215.993 112.664 215.708 112.436C215.488 112.251 215.313 112.091 215.185 111.956C215.057 111.821 214.951 111.654 214.865 111.455C214.787 111.255 214.755 111.021 214.769 110.751H215.868ZM221.209 115.732C220.704 115.732 220.263 115.625 219.886 115.412C219.509 115.199 219.221 114.9 219.022 114.516C218.823 114.132 218.724 113.695 218.724 113.204V109.577C218.724 108.944 218.919 108.446 219.31 108.084C219.701 107.714 220.231 107.529 220.9 107.529C221.156 107.529 221.426 107.547 221.71 107.582C222.038 107.611 222.286 107.625 222.457 107.625C222.763 107.625 223.023 107.6 223.236 107.55V108.5C223.03 108.578 222.795 108.617 222.532 108.617C222.347 108.617 222.084 108.582 221.742 108.51C221.707 108.503 221.607 108.486 221.444 108.457C221.287 108.429 221.131 108.414 220.974 108.414C220.612 108.414 220.32 108.514 220.1 108.713C219.886 108.912 219.783 109.204 219.79 109.588L219.812 110.697C219.812 110.953 219.787 111.231 219.737 111.529H219.812C219.968 111.245 220.189 111.028 220.473 110.879C220.765 110.722 221.092 110.644 221.454 110.644C221.888 110.644 222.272 110.754 222.606 110.975C222.948 111.188 223.211 111.49 223.396 111.881C223.588 112.265 223.684 112.706 223.684 113.204C223.684 113.695 223.584 114.132 223.385 114.516C223.186 114.9 222.898 115.199 222.521 115.412C222.151 115.625 221.714 115.732 221.209 115.732ZM219.812 113.332C219.812 113.794 219.94 114.168 220.196 114.452C220.452 114.737 220.786 114.879 221.198 114.879C221.604 114.879 221.931 114.729 222.18 114.431C222.436 114.125 222.564 113.713 222.564 113.193C222.564 112.66 222.439 112.244 222.19 111.945C221.949 111.647 221.618 111.497 221.198 111.497C220.786 111.497 220.452 111.636 220.196 111.913C219.94 112.184 219.812 112.564 219.812 113.055V113.332Z" fill="#344054"/>
<path d="M232.233 110.687C232.233 110.914 232.29 111.11 232.404 111.273C232.525 111.43 232.706 111.608 232.948 111.807C233.168 111.992 233.343 112.159 233.471 112.308C233.606 112.457 233.72 112.646 233.812 112.873C233.912 113.101 233.961 113.375 233.961 113.695C233.961 114.114 233.848 114.481 233.62 114.793C233.4 115.099 233.097 115.334 232.713 115.497C232.336 115.661 231.92 115.743 231.465 115.743C230.747 115.743 230.157 115.569 229.694 115.22C229.232 114.865 229.001 114.37 229.001 113.737C229.001 113.552 229.026 113.371 229.076 113.193L230.612 113.257C230.59 113.371 230.58 113.485 230.58 113.599C230.58 113.883 230.658 114.114 230.815 114.292C230.971 114.463 231.191 114.548 231.476 114.548C231.746 114.548 231.963 114.466 232.127 114.303C232.29 114.139 232.372 113.919 232.372 113.641C232.372 113.414 232.311 113.225 232.191 113.076C232.07 112.92 231.885 112.745 231.636 112.553C231.408 112.376 231.227 112.216 231.092 112.073C230.957 111.924 230.847 111.736 230.761 111.508C230.676 111.28 230.644 111.007 230.665 110.687H232.233ZM235.379 115.625C235.222 115.227 235.098 114.843 235.005 114.473C234.92 114.097 234.877 113.702 234.877 113.289C234.877 112.706 234.988 112.208 235.208 111.796C235.436 111.383 235.745 111.074 236.136 110.868C236.534 110.662 236.993 110.559 237.512 110.559C238.302 110.559 238.938 110.793 239.422 111.263C239.905 111.732 240.147 112.408 240.147 113.289C240.147 113.702 240.101 114.097 240.008 114.473C239.923 114.843 239.802 115.227 239.646 115.625H238.206C238.334 115.213 238.426 114.836 238.483 114.495C238.54 114.153 238.568 113.777 238.568 113.364C238.568 112.845 238.476 112.45 238.291 112.18C238.113 111.91 237.854 111.775 237.512 111.775C237.178 111.775 236.918 111.913 236.733 112.191C236.556 112.461 236.467 112.852 236.467 113.364C236.467 113.762 236.495 114.139 236.552 114.495C236.616 114.843 236.709 115.22 236.829 115.625H235.379ZM241.672 115.625C241.523 115.241 241.402 114.779 241.309 114.239C241.217 113.698 241.171 113.09 241.171 112.415C241.178 110.8 241.58 109.648 242.376 108.958C243.18 108.262 244.157 107.846 245.309 107.71L247.016 107.508V108.894L245.341 109.097C244.403 109.211 243.681 109.449 243.176 109.812C242.671 110.175 242.34 110.722 242.184 111.455H242.269C242.604 110.857 243.094 110.559 243.741 110.559C244.076 110.559 244.381 110.665 244.659 110.879C244.936 111.085 245.121 111.391 245.213 111.796H245.309C245.445 111.383 245.669 111.074 245.982 110.868C246.302 110.662 246.675 110.559 247.102 110.559C247.507 110.559 247.873 110.655 248.2 110.847C248.535 111.031 248.798 111.327 248.99 111.732C249.189 112.13 249.288 112.628 249.288 113.225C249.288 113.659 249.246 114.065 249.16 114.441C249.075 114.818 248.951 115.213 248.787 115.625H247.251C247.407 115.234 247.521 114.857 247.592 114.495C247.67 114.132 247.71 113.752 247.71 113.353C247.71 112.813 247.628 112.415 247.464 112.159C247.301 111.903 247.084 111.775 246.814 111.775C246.558 111.775 246.355 111.874 246.206 112.073C246.063 112.265 245.992 112.564 245.992 112.969V114.452H244.467V112.969C244.467 112.564 244.392 112.265 244.243 112.073C244.101 111.874 243.901 111.775 243.645 111.775C243.368 111.775 243.148 111.903 242.984 112.159C242.828 112.408 242.749 112.806 242.749 113.353C242.749 113.752 242.785 114.132 242.856 114.495C242.934 114.857 243.052 115.234 243.208 115.625H241.672ZM250.54 109.684C250.54 109.015 250.757 108.486 251.191 108.094C251.624 107.703 252.193 107.508 252.897 107.508C253.317 107.508 253.694 107.582 254.028 107.732C254.369 107.874 254.636 108.08 254.828 108.35C255.027 108.614 255.127 108.919 255.127 109.268C255.127 109.908 254.778 110.406 254.081 110.761V110.857C254.665 110.943 255.098 111.188 255.383 111.593C255.667 111.992 255.81 112.525 255.81 113.193C255.81 113.969 255.635 114.779 255.287 115.625H253.847C254.089 114.843 254.209 114.079 254.209 113.332C254.209 112.287 253.865 111.764 253.175 111.764C252.84 111.764 252.574 111.878 252.375 112.105C252.183 112.326 252.087 112.635 252.087 113.033V115.625H250.54V109.684ZM252.087 111.327C252.172 111.199 252.264 111.088 252.364 110.996C252.464 110.903 252.584 110.811 252.727 110.719C253.011 110.548 253.221 110.367 253.356 110.175C253.498 109.975 253.569 109.744 253.569 109.481C253.569 109.232 253.502 109.04 253.367 108.905C253.232 108.763 253.057 108.692 252.844 108.692C252.616 108.692 252.428 108.77 252.279 108.926C252.136 109.076 252.069 109.296 252.076 109.588L252.087 110.452C252.101 110.743 252.072 111.035 252.001 111.327H252.087ZM257.338 115.625C257.182 115.227 257.057 114.843 256.965 114.473C256.879 114.097 256.837 113.702 256.837 113.289C256.837 112.706 256.947 112.208 257.168 111.796C257.395 111.383 257.704 111.074 258.096 110.868C258.494 110.662 258.952 110.559 259.472 110.559C260.261 110.559 260.897 110.793 261.381 111.263C261.865 111.732 262.106 112.408 262.106 113.289C262.106 113.702 262.06 114.097 261.968 114.473C261.882 114.843 261.762 115.227 261.605 115.625H260.165C260.293 115.213 260.385 114.836 260.442 114.495C260.499 114.153 260.528 113.777 260.528 113.364C260.528 112.845 260.435 112.45 260.25 112.18C260.073 111.91 259.813 111.775 259.472 111.775C259.137 111.775 258.878 111.913 258.693 112.191C258.515 112.461 258.426 112.852 258.426 113.364C258.426 113.762 258.455 114.139 258.512 114.495C258.576 114.843 258.668 115.22 258.789 115.625H257.338ZM265.628 118.943C265.073 118.943 264.597 118.833 264.199 118.612C263.807 118.399 263.509 118.1 263.302 117.716C263.103 117.339 263.004 116.902 263.004 116.404C263.004 116.042 263.061 115.704 263.174 115.391L264.711 115.465C264.639 115.778 264.604 116.063 264.604 116.319C264.604 116.788 264.693 117.14 264.871 117.375C265.048 117.617 265.297 117.738 265.617 117.738C265.93 117.738 266.176 117.62 266.353 117.386C266.531 117.151 266.62 116.806 266.62 116.351V112.948C266.62 112.536 266.538 112.237 266.375 112.052C266.211 111.867 265.994 111.775 265.724 111.775C265.461 111.775 265.251 111.867 265.095 112.052C264.938 112.23 264.86 112.496 264.86 112.852C264.86 113.016 264.881 113.24 264.924 113.524L263.324 113.577C263.274 113.264 263.249 112.991 263.249 112.756C263.249 112.315 263.352 111.928 263.558 111.593C263.765 111.259 264.053 111.003 264.423 110.825C264.792 110.647 265.212 110.559 265.681 110.559C266.165 110.559 266.595 110.655 266.972 110.847C267.349 111.039 267.644 111.319 267.857 111.689C268.071 112.052 268.177 112.486 268.177 112.991V116.362C268.177 117.144 267.957 117.77 267.516 118.239C267.082 118.708 266.453 118.943 265.628 118.943ZM271.952 115.743C271.454 115.743 271.006 115.636 270.608 115.423C270.217 115.209 269.908 114.907 269.68 114.516C269.452 114.125 269.339 113.67 269.339 113.151C269.339 112.639 269.449 112.187 269.669 111.796C269.897 111.405 270.206 111.103 270.597 110.889C270.989 110.669 271.426 110.559 271.91 110.559C272.336 110.559 272.72 110.633 273.062 110.783C273.403 110.932 273.673 111.156 273.872 111.455H273.958C274.406 110.864 274.982 110.569 275.686 110.569C276.297 110.569 276.795 110.79 277.179 111.231C277.563 111.672 277.755 112.347 277.755 113.257C277.755 113.698 277.709 114.104 277.616 114.473C277.524 114.843 277.392 115.227 277.222 115.625H275.696C275.86 115.22 275.977 114.84 276.048 114.484C276.127 114.129 276.166 113.748 276.166 113.343C276.166 112.304 275.846 111.785 275.206 111.785C274.893 111.785 274.612 111.91 274.363 112.159C274.491 112.457 274.555 112.792 274.555 113.161C274.555 113.681 274.438 114.136 274.203 114.527C273.975 114.918 273.662 115.22 273.264 115.433C272.873 115.64 272.436 115.743 271.952 115.743ZM270.939 113.161C270.939 113.602 271.028 113.944 271.205 114.185C271.383 114.42 271.632 114.537 271.952 114.537C272.265 114.537 272.51 114.42 272.688 114.185C272.866 113.944 272.955 113.602 272.955 113.161C272.955 112.72 272.866 112.379 272.688 112.137C272.51 111.888 272.265 111.764 271.952 111.764C271.632 111.764 271.383 111.888 271.205 112.137C271.028 112.379 270.939 112.72 270.939 113.161Z" fill="#344054"/>
<path d="M228.564 116.959H278.288V117.492H228.564V116.959Z" fill="#344054"/>
</g>
<path d="M74.1261 31.3595H324.805C329.645 31.3595 333.568 35.2825 333.568 40.1218V144.508C333.568 149.347 329.645 153.27 324.805 153.27H74.1261C69.2868 153.27 65.3638 149.347 65.3638 144.508V40.1218C65.3638 35.2825 69.2868 31.3595 74.1261 31.3595Z" stroke="#EAECF0" stroke-width="0.761943"/>
</g>
<g filter="url(#filter1_d_956_40356)">
<rect x="36.0306" y="4.31055" width="58.7808" height="58.7808" rx="29.3904" fill="#2E90FA" shape-rendering="crispEdges"/>
<path d="M76.8873 46.6003C76.8873 44.6 76.8873 43.5999 76.6404 42.7861C76.0846 40.9538 74.6507 39.5199 72.8184 38.9641C72.0046 38.7172 71.0045 38.7172 69.0042 38.7172H61.8379C59.8376 38.7172 58.8375 38.7172 58.0237 38.9641C56.1914 39.5199 54.7575 40.9538 54.2017 42.7861C53.9548 43.5999 53.9548 44.6 53.9548 46.6003M71.8708 27.251C71.8708 30.8131 68.9831 33.7008 65.4211 33.7008C61.859 33.7008 58.9713 30.8131 58.9713 27.251C58.9713 23.6889 61.859 20.8013 65.4211 20.8013C68.9831 20.8013 71.8708 23.6889 71.8708 27.251Z" stroke="white" stroke-width="2.86655" stroke-linecap="round" stroke-linejoin="round"/>
</g>
<g filter="url(#filter2_dd_956_40356)">
<rect x="64.9828" y="158.984" width="268.966" height="44.9547" rx="9.14332" fill="white" shape-rendering="crispEdges"/>
<rect x="65.3638" y="159.365" width="268.204" height="44.1927" rx="8.76235" stroke="#EAECF0" stroke-width="0.761943" shape-rendering="crispEdges"/>
<path d="M94.8501 193.081H81.4399C80.0722 193.081 78.9635 191.973 78.9635 190.605V172.318C78.9635 170.951 80.0722 169.842 81.4399 169.842H90.5832C90.6268 169.842 90.6686 169.859 90.6994 169.89L97.2782 176.469C97.3091 176.5 97.3264 176.542 97.3264 176.585V190.605C97.3264 191.973 96.2177 193.081 94.8501 193.081Z" stroke="#D0D5DD" stroke-width="1.14292"/>
<path d="M90.5835 169.576V173.538C90.5835 175.222 91.948 176.586 93.6313 176.586H97.5934" stroke="#D0D5DD" stroke-width="1.14292"/>
<path d="M72.8748 180.62C72.8748 179.778 73.5571 179.096 74.3987 179.096H90.9226C91.7642 179.096 92.4465 179.778 92.4465 180.62V189.62C92.4465 190.461 91.7642 191.143 90.9226 191.143H74.3987C73.5571 191.143 72.8748 190.461 72.8748 189.62V180.62Z" fill="#D92D20"/>
<path d="M75.6754 187.62V182.078H77.8616C78.2819 182.078 78.64 182.158 78.9358 182.319C79.2317 182.478 79.4571 182.699 79.6123 182.982C79.7692 183.263 79.8477 183.588 79.8477 183.956C79.8477 184.324 79.7683 184.649 79.6096 184.93C79.4508 185.211 79.2208 185.431 78.9196 185.588C78.6201 185.745 78.2576 185.823 77.8319 185.823H76.4384V184.884H77.6425C77.8679 184.884 78.0537 184.845 78.1999 184.768C78.3478 184.688 78.4578 184.579 78.53 184.44C78.6039 184.3 78.6409 184.138 78.6409 183.956C78.6409 183.772 78.6039 183.611 78.53 183.474C78.4578 183.336 78.3478 183.228 78.1999 183.152C78.0519 183.075 77.8643 183.036 77.6371 183.036H76.847V187.62H75.6754ZM82.573 187.62H80.6087V182.078H82.5893C83.1467 182.078 83.6265 182.189 84.0287 182.411C84.431 182.631 84.7404 182.948 84.9568 183.361C85.1751 183.774 85.2842 184.268 85.2842 184.844C85.2842 185.421 85.1751 185.917 84.9568 186.332C84.7404 186.747 84.4292 187.065 84.0233 187.287C83.6193 187.509 83.1358 187.62 82.573 187.62ZM81.7803 186.616H82.5243C82.8707 186.616 83.162 186.554 83.3983 186.432C83.6364 186.307 83.815 186.115 83.934 185.855C84.0549 185.594 84.1153 185.257 84.1153 184.844C84.1153 184.434 84.0549 184.099 83.934 183.84C83.815 183.58 83.6373 183.389 83.401 183.266C83.1647 183.143 82.8734 183.082 82.527 183.082H81.7803V186.616ZM86.1521 187.62V182.078H89.8211V183.044H87.3237V184.365H89.5776V185.331H87.3237V187.62H86.1521Z" fill="white"/>
<path d="M112.763 175.693C112.69 175.321 112.485 175.026 112.15 174.806C111.815 174.593 111.419 174.486 110.961 174.486H110.797C110.553 174.486 110.318 174.508 110.093 174.55C109.867 174.599 109.63 174.678 109.38 174.788L109.096 174.194C109.407 174.053 109.825 173.971 110.349 173.947V173.892C109.684 173.733 109.154 173.401 108.758 172.895C108.368 172.383 108.173 171.746 108.173 170.984C108.173 170.46 108.261 170.024 108.438 169.677C108.615 169.323 108.849 169.064 109.142 168.9C109.435 168.729 109.755 168.644 110.102 168.644C110.626 168.644 111.062 168.869 111.41 169.32H111.474C111.644 169.107 111.861 168.942 112.123 168.827C112.391 168.705 112.69 168.644 113.019 168.644C113.403 168.644 113.747 168.729 114.052 168.9C114.363 169.07 114.607 169.314 114.783 169.631C114.96 169.942 115.049 170.308 115.049 170.728C115.049 171.131 114.96 171.49 114.783 171.807C114.607 172.124 114.36 172.371 114.043 172.548C113.732 172.725 113.381 172.813 112.991 172.813C112.601 172.813 112.248 172.725 111.931 172.548C111.62 172.371 111.376 172.124 111.199 171.807C111.022 171.49 110.934 171.131 110.934 170.728C110.934 170.356 111.001 170.036 111.135 169.768C110.879 169.512 110.59 169.384 110.267 169.384C109.925 169.384 109.648 169.512 109.435 169.768C109.227 170.024 109.124 170.427 109.124 170.975C109.124 171.725 109.322 172.316 109.718 172.749C110.12 173.182 110.672 173.48 111.373 173.645L111.693 173.727C112.26 173.868 112.717 174.102 113.064 174.431C113.418 174.767 113.625 175.175 113.686 175.657L112.763 175.693ZM111.876 170.728C111.876 171.137 111.979 171.469 112.187 171.725C112.394 171.975 112.662 172.1 112.991 172.1C113.327 172.1 113.595 171.975 113.796 171.725C114.003 171.469 114.107 171.137 114.107 170.728C114.107 170.289 114.006 169.951 113.805 169.713C113.604 169.47 113.333 169.348 112.991 169.348C112.656 169.348 112.385 169.47 112.178 169.713C111.976 169.957 111.876 170.296 111.876 170.728ZM116.532 172.914C116.385 172.548 116.276 172.206 116.203 171.89C116.129 171.566 116.093 171.219 116.093 170.847C116.093 170.353 116.175 169.942 116.34 169.613C116.504 169.284 116.724 169.04 116.998 168.881C117.272 168.723 117.577 168.644 117.912 168.644C118.266 168.644 118.577 168.729 118.845 168.9C119.113 169.07 119.299 169.348 119.403 169.732H119.467C119.57 169.354 119.756 169.079 120.024 168.909C120.299 168.732 120.61 168.644 120.957 168.644C121.292 168.644 121.594 168.723 121.862 168.881C122.137 169.034 122.353 169.268 122.511 169.585C122.676 169.902 122.758 170.292 122.758 170.756C122.758 171.036 122.734 171.292 122.685 171.524C122.636 171.755 122.56 171.987 122.457 172.219V172.237H123.554L123.49 172.914H121.387C121.527 172.566 121.631 172.231 121.698 171.908C121.765 171.585 121.798 171.246 121.798 170.893C121.798 170.381 121.707 170 121.524 169.75C121.347 169.494 121.113 169.366 120.82 169.366C120.54 169.366 120.311 169.467 120.134 169.668C119.963 169.863 119.878 170.177 119.878 170.609V171.88H118.964V170.609C118.964 170.177 118.878 169.863 118.708 169.668C118.537 169.467 118.312 169.366 118.031 169.366C117.733 169.366 117.492 169.491 117.309 169.741C117.126 169.991 117.035 170.372 117.035 170.884C117.035 171.231 117.068 171.57 117.135 171.899C117.202 172.222 117.312 172.56 117.464 172.914H116.532ZM127.376 168.671C127.516 168.939 127.617 169.183 127.678 169.403C127.739 169.616 127.769 169.848 127.769 170.097C127.769 170.445 127.678 170.75 127.495 171.012C127.312 171.274 127.062 171.454 126.745 171.551V171.615C127.19 171.694 127.54 171.917 127.796 172.283C128.053 172.642 128.181 173.06 128.181 173.535C128.181 173.956 128.095 174.334 127.924 174.669C127.754 175.01 127.504 175.276 127.175 175.465C126.852 175.66 126.465 175.757 126.014 175.757C125.569 175.757 125.188 175.666 124.871 175.483C124.554 175.306 124.313 175.062 124.148 174.751C123.984 174.447 123.901 174.102 123.901 173.718C123.901 173.517 123.926 173.322 123.975 173.133L124.889 173.179C124.858 173.349 124.843 173.496 124.843 173.618C124.843 174.056 124.944 174.398 125.145 174.642C125.352 174.892 125.639 175.017 126.004 175.017C126.388 175.017 126.687 174.879 126.9 174.605C127.114 174.337 127.22 173.965 127.22 173.49C127.22 173.045 127.111 172.685 126.891 172.411C126.678 172.136 126.376 171.999 125.986 171.999H125.694V171.24H125.849C126.184 171.24 126.428 171.134 126.58 170.92C126.739 170.707 126.818 170.436 126.818 170.107C126.818 169.869 126.785 169.643 126.718 169.43C126.657 169.217 126.565 168.985 126.443 168.735L127.376 168.671ZM131.689 175.757C131.219 175.757 130.817 175.663 130.482 175.474C130.147 175.285 129.89 175.029 129.714 174.706C129.543 174.389 129.458 174.032 129.458 173.636C129.458 173.337 129.503 173.054 129.595 172.786L130.518 172.822C130.451 173.103 130.418 173.352 130.418 173.572C130.418 174.011 130.527 174.361 130.747 174.623C130.972 174.892 131.283 175.026 131.68 175.026C132.057 175.026 132.359 174.889 132.585 174.614C132.816 174.34 132.932 173.977 132.932 173.526V170.244C132.932 169.963 132.859 169.75 132.713 169.604C132.573 169.457 132.387 169.384 132.155 169.384C131.923 169.384 131.734 169.457 131.588 169.604C131.448 169.75 131.378 169.963 131.378 170.244V171.414H130.473V170.216C130.473 169.979 130.412 169.799 130.29 169.677C130.174 169.549 130.006 169.485 129.787 169.485C129.732 169.485 129.65 169.491 129.54 169.503C129.449 169.521 129.357 169.531 129.266 169.531C129.156 169.531 129.058 169.515 128.973 169.485V168.689C129.065 168.72 129.168 168.735 129.284 168.735C129.351 168.735 129.446 168.729 129.567 168.717C129.659 168.699 129.756 168.689 129.86 168.689C130.122 168.689 130.345 168.75 130.527 168.872C130.716 168.994 130.857 169.217 130.948 169.54H131.012C131.097 169.223 131.265 168.994 131.515 168.854C131.765 168.714 132.036 168.644 132.329 168.644C132.792 168.644 133.161 168.79 133.435 169.083C133.715 169.375 133.856 169.75 133.856 170.207V173.535C133.856 174.2 133.673 174.736 133.307 175.145C132.941 175.553 132.402 175.757 131.689 175.757ZM137.144 173.005C136.711 173.005 136.333 172.914 136.01 172.731C135.693 172.548 135.449 172.292 135.278 171.963C135.108 171.634 135.022 171.259 135.022 170.838C135.022 170.411 135.102 170.033 135.26 169.704C135.425 169.369 135.65 169.11 135.937 168.927C136.229 168.738 136.561 168.644 136.933 168.644C137.244 168.644 137.522 168.711 137.765 168.845C138.015 168.979 138.207 169.165 138.341 169.403H138.405C138.363 169.147 138.341 168.909 138.341 168.689L138.36 167.912C138.366 167.51 138.256 167.205 138.031 166.998C137.805 166.791 137.515 166.687 137.162 166.687C136.821 166.687 136.543 166.781 136.33 166.97C136.123 167.159 136.013 167.388 136.001 167.656L135.05 167.629C135.056 167.324 135.15 167.044 135.333 166.788C135.516 166.532 135.766 166.33 136.083 166.184C136.406 166.032 136.763 165.956 137.153 165.956C137.555 165.956 137.918 166.038 138.241 166.202C138.564 166.361 138.817 166.589 139 166.888C139.183 167.187 139.274 167.528 139.274 167.912V170.838C139.274 171.259 139.189 171.634 139.018 171.963C138.847 172.292 138.6 172.548 138.277 172.731C137.954 172.914 137.576 173.005 137.144 173.005ZM135.982 170.829C135.982 171.274 136.089 171.627 136.302 171.89C136.522 172.146 136.805 172.274 137.153 172.274C137.506 172.274 137.793 172.152 138.012 171.908C138.232 171.664 138.341 171.344 138.341 170.948V170.71C138.341 170.289 138.232 169.963 138.012 169.732C137.793 169.494 137.506 169.375 137.153 169.375C136.793 169.375 136.507 169.503 136.293 169.759C136.086 170.015 135.982 170.372 135.982 170.829ZM142.231 175.757C141.786 175.757 141.405 175.666 141.089 175.483C140.778 175.3 140.54 175.047 140.375 174.724C140.217 174.407 140.138 174.044 140.138 173.636C140.138 173.343 140.18 173.06 140.266 172.786L141.198 172.822C141.131 173.06 141.098 173.31 141.098 173.572C141.098 174.041 141.195 174.401 141.39 174.651C141.591 174.901 141.875 175.026 142.241 175.026C142.6 175.026 142.878 174.901 143.073 174.651C143.268 174.401 143.365 174.047 143.365 173.59V170.673C143.365 170.216 143.268 169.887 143.073 169.686C142.884 169.479 142.634 169.375 142.323 169.375C142.024 169.375 141.783 169.473 141.601 169.668C141.424 169.863 141.335 170.155 141.335 170.545C141.335 170.673 141.354 170.847 141.39 171.067L140.43 171.094C140.388 170.899 140.366 170.698 140.366 170.491C140.366 170.113 140.448 169.787 140.613 169.512C140.784 169.232 141.015 169.019 141.308 168.872C141.601 168.72 141.933 168.644 142.305 168.644C142.902 168.644 143.38 168.82 143.74 169.174C144.106 169.527 144.289 170.021 144.289 170.655V173.599C144.289 174.252 144.112 174.773 143.758 175.163C143.405 175.559 142.896 175.757 142.231 175.757ZM147.638 173.005C147.205 173.005 146.828 172.914 146.504 172.731C146.181 172.548 145.935 172.292 145.764 171.963C145.593 171.634 145.508 171.259 145.508 170.838V167.729C145.508 167.187 145.675 166.76 146.011 166.449C146.346 166.132 146.8 165.974 147.373 165.974C147.592 165.974 147.824 165.989 148.068 166.02C148.348 166.044 148.562 166.056 148.708 166.056C148.97 166.056 149.193 166.035 149.375 165.992V166.806C149.199 166.873 148.998 166.906 148.772 166.906C148.613 166.906 148.388 166.876 148.095 166.815C148.065 166.809 147.98 166.794 147.839 166.769C147.705 166.745 147.571 166.733 147.437 166.733C147.126 166.733 146.876 166.818 146.687 166.989C146.504 167.159 146.416 167.409 146.422 167.738L146.44 168.689C146.44 168.909 146.419 169.147 146.376 169.403H146.44C146.575 169.159 146.763 168.973 147.007 168.845C147.257 168.711 147.538 168.644 147.849 168.644C148.22 168.644 148.549 168.738 148.836 168.927C149.129 169.11 149.354 169.369 149.513 169.704C149.677 170.033 149.759 170.411 149.759 170.838C149.759 171.259 149.674 171.634 149.503 171.963C149.333 172.292 149.086 172.548 148.763 172.731C148.446 172.914 148.071 173.005 147.638 173.005ZM146.44 170.948C146.44 171.344 146.55 171.664 146.77 171.908C146.989 172.152 147.276 172.274 147.629 172.274C147.977 172.274 148.257 172.146 148.47 171.89C148.69 171.627 148.799 171.274 148.799 170.829C148.799 170.372 148.693 170.015 148.479 169.759C148.272 169.503 147.989 169.375 147.629 169.375C147.276 169.375 146.989 169.494 146.77 169.732C146.55 169.963 146.44 170.289 146.44 170.71V170.948ZM153.991 175.748C153.387 175.748 152.836 175.611 152.336 175.337C151.842 175.068 151.446 174.666 151.147 174.13C150.855 173.599 150.709 172.959 150.709 172.21C150.709 171.515 150.837 170.911 151.093 170.399C151.349 169.881 151.696 169.479 152.135 169.192C152.574 168.9 153.067 168.726 153.616 168.671C153.567 168.476 153.543 168.281 153.543 168.086V167.455H154.43V168.086C154.43 168.281 154.405 168.476 154.357 168.671C154.905 168.726 155.399 168.9 155.838 169.192C156.277 169.479 156.624 169.878 156.88 170.39C157.136 170.902 157.264 171.509 157.264 172.21C157.264 172.959 157.118 173.599 156.825 174.13C156.533 174.666 156.137 175.068 155.637 175.337C155.143 175.611 154.594 175.748 153.991 175.748ZM151.678 172.21C151.678 172.825 151.778 173.343 151.979 173.764C152.187 174.184 152.464 174.498 152.811 174.706C153.165 174.919 153.561 175.026 154 175.026C154.427 175.026 154.814 174.919 155.161 174.706C155.509 174.498 155.786 174.184 155.993 173.764C156.201 173.343 156.304 172.825 156.304 172.21C156.298 171.344 156.115 170.677 155.756 170.207C155.402 169.738 154.924 169.467 154.32 169.393C154.399 169.619 154.439 169.866 154.439 170.134V172.109H153.543V170.134C153.543 169.89 153.58 169.643 153.653 169.393C153.049 169.473 152.568 169.747 152.208 170.216C151.848 170.686 151.672 171.35 151.678 172.21ZM158.604 172.914C158.464 172.548 158.354 172.203 158.275 171.88C158.202 171.557 158.165 171.222 158.165 170.875C158.165 170.405 158.254 170.003 158.43 169.668C158.613 169.332 158.863 169.079 159.18 168.909C159.497 168.732 159.86 168.644 160.268 168.644C160.683 168.644 161.049 168.732 161.365 168.909C161.689 169.079 161.938 169.332 162.115 169.668C162.298 170.003 162.39 170.405 162.39 170.875C162.39 171.222 162.35 171.557 162.271 171.88C162.198 172.197 162.088 172.542 161.942 172.914H161.064C161.192 172.542 161.286 172.2 161.347 171.89C161.408 171.579 161.439 171.253 161.439 170.911C161.439 170.424 161.335 170.046 161.128 169.777C160.92 169.503 160.634 169.366 160.268 169.366C159.903 169.366 159.616 169.503 159.409 169.777C159.208 170.046 159.107 170.424 159.107 170.911C159.107 171.246 159.138 171.573 159.199 171.89C159.259 172.206 159.357 172.548 159.491 172.914H158.604ZM167.809 173.014C167.383 173.014 167.011 172.926 166.694 172.749C166.377 172.572 166.133 172.325 165.962 172.008C165.798 171.691 165.715 171.326 165.715 170.911V166.056H166.648V170.957C166.648 171.371 166.755 171.698 166.968 171.935C167.181 172.167 167.459 172.283 167.8 172.283C168.135 172.283 168.41 172.17 168.623 171.944C168.836 171.713 168.943 171.42 168.943 171.067C168.943 170.853 168.919 170.67 168.87 170.518C168.821 170.366 168.748 170.189 168.65 169.988C168.547 169.762 168.468 169.561 168.413 169.384C168.364 169.207 168.346 168.991 168.358 168.735H169.291C169.284 168.942 169.306 169.125 169.355 169.284C169.403 169.436 169.476 169.61 169.574 169.805C169.684 170.03 169.766 170.238 169.821 170.427C169.876 170.616 169.903 170.847 169.903 171.121C169.903 171.463 169.818 171.777 169.647 172.063C169.483 172.35 169.242 172.581 168.925 172.758C168.608 172.929 168.236 173.014 167.809 173.014ZM173.294 168.735C173.288 168.93 173.337 169.098 173.44 169.238C173.55 169.372 173.714 169.537 173.934 169.732C174.123 169.896 174.275 170.043 174.391 170.171C174.513 170.292 174.614 170.451 174.693 170.646C174.778 170.835 174.821 171.061 174.821 171.323C174.821 171.664 174.732 171.963 174.556 172.219C174.379 172.469 174.138 172.664 173.833 172.804C173.529 172.938 173.193 173.005 172.828 173.005C172.456 173.005 172.117 172.938 171.813 172.804C171.514 172.67 171.276 172.475 171.099 172.219C170.929 171.963 170.843 171.661 170.843 171.313C170.843 171.155 170.865 171.012 170.907 170.884L171.822 170.92C171.804 171.012 171.794 171.115 171.794 171.231C171.794 171.554 171.889 171.81 172.078 171.999C172.267 172.188 172.517 172.283 172.828 172.283C173.138 172.283 173.391 172.194 173.586 172.018C173.782 171.841 173.879 171.6 173.879 171.295C173.879 171.057 173.818 170.862 173.696 170.71C173.58 170.552 173.401 170.375 173.157 170.18C172.968 170.021 172.818 169.884 172.709 169.768C172.599 169.652 172.508 169.509 172.434 169.339C172.367 169.168 172.34 168.967 172.352 168.735H173.294ZM177.927 173.005C177.494 173.005 177.116 172.914 176.793 172.731C176.47 172.548 176.223 172.292 176.052 171.963C175.882 171.634 175.796 171.259 175.796 170.838V166.056H176.729L176.72 168.689C176.72 168.951 176.698 169.189 176.656 169.403H176.72C176.854 169.165 177.043 168.982 177.287 168.854C177.531 168.72 177.808 168.65 178.119 168.644L178.713 167.546L179.454 167.775L178.777 168.753C179.167 168.887 179.475 169.14 179.701 169.512C179.932 169.884 180.048 170.326 180.048 170.838C180.048 171.259 179.963 171.634 179.792 171.963C179.621 172.292 179.374 172.548 179.051 172.731C178.734 172.914 178.36 173.005 177.927 173.005ZM176.729 170.948C176.729 171.344 176.839 171.664 177.058 171.908C177.278 172.152 177.564 172.274 177.918 172.274C178.265 172.274 178.545 172.146 178.759 171.89C178.978 171.627 179.088 171.274 179.088 170.829C179.088 170.372 178.981 170.015 178.768 169.759C178.561 169.503 178.277 169.375 177.918 169.375C177.564 169.375 177.278 169.494 177.058 169.732C176.839 169.963 176.729 170.289 176.729 170.71V170.948ZM182.957 175.757C182.512 175.757 182.131 175.666 181.814 175.483C181.503 175.3 181.265 175.047 181.101 174.724C180.942 174.407 180.863 174.044 180.863 173.636C180.863 173.343 180.906 173.06 180.991 172.786L181.924 172.822C181.856 173.06 181.823 173.31 181.823 173.572C181.823 174.041 181.92 174.401 182.116 174.651C182.317 174.901 182.6 175.026 182.966 175.026C183.325 175.026 183.603 174.901 183.798 174.651C183.993 174.401 184.09 174.047 184.09 173.59V170.673C184.09 170.216 183.993 169.887 183.798 169.686C183.609 169.479 183.359 169.375 183.048 169.375C182.749 169.375 182.509 169.473 182.326 169.668C182.149 169.863 182.061 170.155 182.061 170.545C182.061 170.673 182.079 170.847 182.116 171.067L181.155 171.094C181.113 170.899 181.091 170.698 181.091 170.491C181.091 170.113 181.174 169.787 181.338 169.512C181.509 169.232 181.741 169.019 182.033 168.872C182.326 168.72 182.658 168.644 183.03 168.644C183.627 168.644 184.106 168.82 184.465 169.174C184.831 169.527 185.014 170.021 185.014 170.655V173.599C185.014 174.252 184.837 174.773 184.484 175.163C184.13 175.559 183.621 175.757 182.957 175.757ZM192.294 175.693C192.233 175.285 192.004 174.983 191.608 174.788C191.212 174.599 190.709 174.498 190.099 174.486L189.697 174.477C189.295 174.465 188.898 174.501 188.508 174.587C188.118 174.672 187.774 174.785 187.475 174.925L187.192 174.294C187.405 174.203 187.615 174.13 187.823 174.075C188.03 174.02 188.28 173.983 188.572 173.965V173.91C188.085 173.849 187.661 173.691 187.301 173.435C186.942 173.179 186.664 172.85 186.469 172.447C186.274 172.045 186.177 171.603 186.177 171.121C186.177 170.561 186.256 170.094 186.414 169.723C186.579 169.351 186.798 169.079 187.073 168.909C187.347 168.732 187.652 168.644 187.987 168.644C188.316 168.644 188.612 168.729 188.874 168.9C189.136 169.064 189.322 169.332 189.432 169.704H189.496C189.587 169.332 189.761 169.064 190.017 168.9C190.279 168.729 190.566 168.644 190.876 168.644C191.193 168.644 191.489 168.729 191.763 168.9C192.038 169.064 192.22 169.332 192.312 169.704H192.376C192.473 169.332 192.65 169.064 192.906 168.9C193.168 168.729 193.467 168.644 193.802 168.644C194.333 168.644 194.759 168.83 195.082 169.201C195.405 169.567 195.567 170.097 195.567 170.792C195.567 171.103 195.543 171.408 195.494 171.707C195.445 172.005 195.372 172.325 195.274 172.667L194.342 172.621C194.518 172.085 194.607 171.484 194.607 170.82C194.607 170.356 194.522 170.003 194.351 169.759C194.18 169.515 193.942 169.393 193.638 169.393C193.357 169.393 193.135 169.491 192.97 169.686C192.806 169.875 192.723 170.174 192.723 170.582V171.88H191.809V170.582C191.809 170.174 191.718 169.875 191.535 169.686C191.358 169.491 191.139 169.393 190.876 169.393C190.608 169.393 190.383 169.491 190.2 169.686C190.023 169.875 189.935 170.174 189.935 170.582V171.88H189.02V170.582C189.02 170.174 188.938 169.875 188.773 169.686C188.609 169.491 188.396 169.393 188.133 169.393C187.835 169.393 187.591 169.524 187.402 169.787C187.219 170.049 187.128 170.494 187.128 171.121C187.128 171.883 187.359 172.478 187.823 172.904C188.292 173.325 188.944 173.572 189.779 173.645L190.538 173.709C192.214 173.868 193.107 174.517 193.217 175.657L192.294 175.693ZM196.99 172.914C196.85 172.548 196.74 172.203 196.661 171.88C196.588 171.557 196.551 171.222 196.551 170.875C196.551 170.405 196.64 170.003 196.816 169.668C196.999 169.332 197.249 169.079 197.566 168.909C197.883 168.732 198.246 168.644 198.654 168.644C199.069 168.644 199.434 168.732 199.751 168.909C200.074 169.079 200.324 169.332 200.501 169.668C200.684 170.003 200.775 170.405 200.775 170.875C200.775 171.222 200.736 171.557 200.657 171.88C200.583 172.197 200.474 172.542 200.327 172.914H199.45C199.578 172.542 199.672 172.2 199.733 171.89C199.794 171.579 199.824 171.253 199.824 170.911C199.824 170.424 199.721 170.046 199.514 169.777C199.306 169.503 199.02 169.366 198.654 169.366C198.288 169.366 198.002 169.503 197.795 169.777C197.594 170.046 197.493 170.424 197.493 170.911C197.493 171.246 197.523 171.573 197.584 171.89C197.645 172.206 197.743 172.548 197.877 172.914H196.99Z" fill="#344054"/>
<rect x="107.651" y="182.009" width="217.154" height="3.80972" rx="1.90486" fill="#D9D9D9"/>
<rect x="107.651" y="182.009" width="155.436" height="3.80972" rx="1.90486" fill="#2E90FA"/>
<path d="M109.754 190.092C110.283 190.092 110.689 190.234 110.973 190.519C111.263 190.798 111.408 191.189 111.408 191.692C111.408 192.129 111.316 192.513 111.133 192.843C110.951 193.173 110.676 193.526 110.31 193.902L109.084 195.167H111.469V195.868H108.07V195.258L109.709 193.513C110.044 193.158 110.277 192.855 110.41 192.607C110.547 192.358 110.615 192.066 110.615 191.73C110.615 191.446 110.542 191.22 110.394 191.052C110.247 190.885 110.039 190.801 109.77 190.801C109.465 190.801 109.236 190.895 109.084 191.083C108.931 191.266 108.85 191.527 108.84 191.867L108.055 191.829C108.065 191.286 108.218 190.862 108.512 190.557C108.807 190.247 109.221 190.092 109.754 190.092ZM112.559 194.953C112.701 194.953 112.821 195.002 112.917 195.098C113.014 195.195 113.062 195.311 113.062 195.449C113.062 195.591 113.014 195.71 112.917 195.807C112.821 195.898 112.701 195.944 112.559 195.944C112.427 195.944 112.313 195.896 112.216 195.799C112.12 195.703 112.071 195.586 112.071 195.449C112.071 195.311 112.12 195.195 112.216 195.098C112.313 195.002 112.427 194.953 112.559 194.953ZM114.798 191.174L113.823 191.928L113.464 191.311L114.996 190.153H115.583V195.868H114.798V191.174ZM118.47 192.347C118.8 192.347 119.095 192.419 119.354 192.561C119.613 192.698 119.816 192.901 119.964 193.17C120.111 193.435 120.185 193.749 120.185 194.115C120.185 194.476 120.111 194.796 119.964 195.075C119.821 195.35 119.613 195.563 119.339 195.715C119.065 195.868 118.742 195.944 118.371 195.944C117.828 195.944 117.401 195.799 117.091 195.51C116.781 195.22 116.611 194.821 116.581 194.313L117.365 194.268C117.396 194.572 117.495 194.811 117.663 194.984C117.835 195.151 118.071 195.235 118.371 195.235C118.696 195.235 118.948 195.134 119.125 194.93C119.303 194.727 119.392 194.461 119.392 194.13C119.392 193.8 119.301 193.539 119.118 193.346C118.94 193.148 118.699 193.048 118.394 193.048C118.069 193.048 117.774 193.153 117.51 193.361H116.779V190.153H119.964V190.854H117.563V192.607C117.833 192.434 118.135 192.347 118.47 192.347ZM125.575 191.898C126.017 191.898 126.37 192.04 126.635 192.325C126.904 192.609 127.038 192.988 127.038 193.46V195.868H126.292V193.612C126.292 193.297 126.213 193.051 126.056 192.873C125.903 192.69 125.69 192.599 125.415 192.599C125.131 192.599 124.902 192.695 124.73 192.888C124.562 193.082 124.478 193.323 124.478 193.612V195.868H123.732V193.612C123.732 193.297 123.653 193.051 123.495 192.873C123.338 192.69 123.125 192.599 122.855 192.599C122.571 192.599 122.342 192.695 122.17 192.888C122.002 193.082 121.918 193.323 121.918 193.612V195.868H121.171V191.974H121.88V192.508C121.971 192.335 122.114 192.19 122.307 192.073C122.5 191.956 122.736 191.898 123.015 191.898C123.305 191.898 123.559 191.964 123.777 192.096C124.001 192.223 124.174 192.403 124.295 192.637C124.412 192.414 124.58 192.236 124.798 192.104C125.022 191.967 125.281 191.898 125.575 191.898ZM129.032 192.515C129.143 192.332 129.311 192.185 129.534 192.073C129.763 191.956 130.027 191.898 130.327 191.898C130.688 191.898 131.01 191.982 131.295 192.149C131.579 192.312 131.803 192.548 131.965 192.858C132.128 193.163 132.209 193.518 132.209 193.925C132.209 194.331 132.128 194.687 131.965 194.991C131.803 195.296 131.579 195.532 131.295 195.7C131.01 195.863 130.688 195.944 130.327 195.944C130.017 195.944 129.745 195.883 129.512 195.761C129.283 195.639 129.11 195.482 128.994 195.289V195.868H128.285V189.947H129.032V192.515ZM129.032 194.031C129.032 194.433 129.141 194.745 129.359 194.969C129.578 195.187 129.865 195.296 130.22 195.296C130.581 195.296 130.876 195.177 131.104 194.938C131.338 194.694 131.455 194.356 131.455 193.925C131.455 193.493 131.338 193.158 131.104 192.919C130.876 192.675 130.581 192.553 130.22 192.553C129.865 192.553 129.578 192.662 129.359 192.881C129.141 193.099 129.032 193.409 129.032 193.81V194.031Z" fill="#344054" fill-opacity="0.6"/>
<path d="M310.745 195.868L313.328 190.854H310.456V190.153H314.205V190.793L311.614 195.868H310.745ZM318.144 194.588H317.161V195.868H316.46V194.588H313.983V193.94L316.544 190.153H317.161V193.879H318.144V194.588ZM316.46 193.879V191.471L314.799 193.879H316.46ZM319.878 190.092C320.249 190.092 320.551 190.217 320.785 190.465C321.019 190.714 321.136 191.047 321.136 191.464C321.136 191.88 321.019 192.213 320.785 192.462C320.551 192.711 320.249 192.835 319.878 192.835C319.64 192.835 319.424 192.779 319.231 192.668C319.038 192.556 318.885 192.396 318.774 192.187C318.667 191.979 318.614 191.738 318.614 191.464C318.614 191.189 318.667 190.948 318.774 190.74C318.885 190.532 319.035 190.372 319.223 190.26C319.416 190.148 319.635 190.092 319.878 190.092ZM319.162 191.464C319.162 191.723 319.228 191.928 319.36 192.081C319.497 192.233 319.67 192.309 319.878 192.309C320.087 192.309 320.257 192.236 320.389 192.088C320.521 191.936 320.587 191.728 320.587 191.464C320.587 191.205 320.521 191.001 320.389 190.854C320.257 190.702 320.087 190.626 319.878 190.626C319.665 190.626 319.492 190.702 319.36 190.854C319.228 191.001 319.162 191.205 319.162 191.464ZM323.193 190.168H323.917L319.947 195.868H319.215L323.193 190.168ZM321.997 194.565C321.997 194.148 322.113 193.818 322.347 193.574C322.586 193.325 322.891 193.201 323.261 193.201C323.632 193.201 323.934 193.325 324.168 193.574C324.402 193.818 324.519 194.148 324.519 194.565C324.519 194.839 324.463 195.08 324.351 195.289C324.244 195.497 324.094 195.659 323.901 195.776C323.713 195.888 323.5 195.944 323.261 195.944C323.023 195.944 322.807 195.888 322.614 195.776C322.421 195.659 322.268 195.497 322.157 195.289C322.05 195.08 321.997 194.839 321.997 194.565ZM322.545 194.565C322.545 194.824 322.611 195.03 322.743 195.182C322.88 195.334 323.053 195.411 323.261 195.411C323.47 195.411 323.637 195.337 323.764 195.19C323.896 195.037 323.962 194.829 323.962 194.565C323.962 194.301 323.896 194.095 323.764 193.948C323.637 193.8 323.47 193.727 323.261 193.727C323.048 193.727 322.875 193.8 322.743 193.948C322.611 194.095 322.545 194.301 322.545 194.565Z" fill="#344054"/>
</g>
<defs>
<filter id="filter0_dd_956_40356" x="49.7439" y="30.9785" width="299.444" height="153.151" filterUnits="userSpaceOnUse" color-interpolation-filters="sRGB">
<feFlood flood-opacity="0" result="BackgroundImageFix"/>
<feColorMatrix in="SourceAlpha" type="matrix" values="0 0 0 0 0 0 0 0 0 0 0 0 0 0 0 0 0 0 127 0" result="hardAlpha"/>
<feMorphology radius="3.04777" operator="erode" in="SourceAlpha" result="effect1_dropShadow_956_40356"/>
<feOffset dy="6.09555"/>
<feGaussianBlur stdDeviation="3.04777"/>
<feComposite in2="hardAlpha" operator="out"/>
<feColorMatrix type="matrix" values="0 0 0 0 0.0627451 0 0 0 0 0.0941176 0 0 0 0 0.156863 0 0 0 0.03 0"/>
<feBlend mode="normal" in2="BackgroundImageFix" result="effect1_dropShadow_956_40356"/>
<feColorMatrix in="SourceAlpha" type="matrix" values="0 0 0 0 0 0 0 0 0 0 0 0 0 0 0 0 0 0 127 0" result="hardAlpha"/>
<feMorphology radius="3.04777" operator="erode" in="SourceAlpha" result="effect2_dropShadow_956_40356"/>
<feOffset dy="15.2389"/>
<feGaussianBlur stdDeviation="9.14332"/>
<feComposite in2="hardAlpha" operator="out"/>
<feColorMatrix type="matrix" values="0 0 0 0 0.0627451 0 0 0 0 0.0941176 0 0 0 0 0.156863 0 0 0 0.08 0"/>
<feBlend mode="normal" in2="effect1_dropShadow_956_40356" result="effect2_dropShadow_956_40356"/>
<feBlend mode="normal" in="SourceGraphic" in2="effect2_dropShadow_956_40356" result="shape"/>
</filter>
<filter id="filter1_d_956_40356" x="27.0521" y="0.719117" width="73.1465" height="73.1465" filterUnits="userSpaceOnUse" color-interpolation-filters="sRGB">
<feFlood flood-opacity="0" result="BackgroundImageFix"/>
<feColorMatrix in="SourceAlpha" type="matrix" values="0 0 0 0 0 0 0 0 0 0 0 0 0 0 0 0 0 0 127 0" result="hardAlpha"/>
<feOffset dx="-1.79572" dy="3.59143"/>
<feGaussianBlur stdDeviation="3.59143"/>
<feComposite in2="hardAlpha" operator="out"/>
<feColorMatrix type="matrix" values="0 0 0 0 0.301961 0 0 0 0 0.407843 0 0 0 0 0.529412 0 0 0 0.12 0"/>
<feBlend mode="normal" in2="BackgroundImageFix" result="effect1_dropShadow_956_40356"/>
<feBlend mode="normal" in="SourceGraphic" in2="effect1_dropShadow_956_40356" result="shape"/>
</filter>
<filter id="filter2_dd_956_40356" x="47.8391" y="142.603" width="303.253" height="79.242" filterUnits="userSpaceOnUse" color-interpolation-filters="sRGB">
<feFlood flood-opacity="0" result="BackgroundImageFix"/>
<feColorMatrix in="SourceAlpha" type="matrix" values="0 0 0 0 0 0 0 0 0 0 0 0 0 0 0 0 0 0 127 0" result="hardAlpha"/>
<feMorphology radius="3.04777" operator="erode" in="SourceAlpha" result="effect1_dropShadow_956_40356"/>
<feOffset dy="6.85749"/>
<feGaussianBlur stdDeviation="4.80024"/>
<feComposite in2="hardAlpha" operator="out"/>
<feColorMatrix type="matrix" values="0 0 0 0 0.0627451 0 0 0 0 0.0941176 0 0 0 0 0.156863 0 0 0 0.03 0"/>
<feBlend mode="normal" in2="BackgroundImageFix" result="effect1_dropShadow_956_40356"/>
<feColorMatrix in="SourceAlpha" type="matrix" values="0 0 0 0 0 0 0 0 0 0 0 0 0 0 0 0 0 0 127 0" result="hardAlpha"/>
<feMorphology radius="3.04777" operator="erode" in="SourceAlpha" result="effect2_dropShadow_956_40356"/>
<feOffset dy="0.761943"/>
<feGaussianBlur stdDeviation="10.0957"/>
<feComposite in2="hardAlpha" operator="out"/>
<feColorMatrix type="matrix" values="0 0 0 0 0.0627451 0 0 0 0 0.0941176 0 0 0 0 0.156863 0 0 0 0.04 0"/>
<feBlend mode="normal" in2="effect1_dropShadow_956_40356" result="effect2_dropShadow_956_40356"/>
<feBlend mode="normal" in="SourceGraphic" in2="effect2_dropShadow_956_40356" result="shape"/>
</filter>
<clipPath id="clip0_956_40356">
<path d="M64.9828 40.1218C64.9828 35.0721 69.0764 30.9785 74.1261 30.9785H324.805C329.855 30.9785 333.949 35.0721 333.949 40.1218V144.508C333.949 149.558 329.855 153.651 324.805 153.651H74.1261C69.0764 153.651 64.9828 149.558 64.9828 144.508V40.1218Z" fill="white"/>
</clipPath>
</defs>
</svg>
