<svg width="369" height="228" viewBox="0 0 369 228" fill="none" xmlns="http://www.w3.org/2000/svg">
<g filter="url(#filter0_dd_956_40413)">
<g clip-path="url(#clip0_956_40413)">
<rect x="39.0183" y="34.0254" width="263.466" height="120.164" rx="8.95636" fill="white"/>
<path d="M62.9019 135.904C62.5276 135.904 62.1622 135.867 61.8091 135.797L61.7366 136.163C60.9533 136.008 60.225 135.7 59.5844 135.271L59.792 134.961C59.1814 134.552 58.6556 134.027 58.2468 133.416L57.9367 133.624C57.5078 132.983 57.1997 132.255 57.0447 131.471L57.4108 131.399C57.3409 131.046 57.3042 130.68 57.3042 130.306V128.798H56.931V125.781H57.3042V122.765H56.931V119.748H57.3042V116.732H56.931V113.715H57.3042V110.699H56.931V107.682H57.3042V104.665H56.931V101.649H57.3042V98.6323H56.931V95.6158H57.3042V92.5992H56.931V89.5827H57.3042V86.5661H56.931V83.5496H57.3042V80.533H56.931V77.5165H57.3042V74.4999H56.931V71.4834H57.3042V68.4668H56.931V65.4503H57.3042V62.4337H56.931V59.4172H57.3042V57.9089C57.3042 57.5346 57.3409 57.1692 57.4108 56.816L57.0447 56.7436C57.1997 55.9602 57.5078 55.232 57.9367 54.5914L58.2468 54.799C58.6556 54.1884 59.1814 53.6626 59.792 53.2538L59.5844 52.9437C60.225 52.5148 60.9533 52.2066 61.7366 52.0516L61.8091 52.4177C62.1622 52.3479 62.5276 52.3112 62.9019 52.3112H64.3998V51.938H67.3957V52.3112H70.3915V51.938H73.3873V52.3112H76.3831V51.938H79.3789V52.3112H82.3748V51.938H85.3706V52.3112H88.3664V51.938H91.3622V52.3112H94.358V51.938H97.3539V52.3112H100.35V51.938H103.345V52.3112H106.341V51.938H109.337V52.3112H112.333V51.938H115.329V52.3112H118.325V51.938H121.32V52.3112H124.316V51.938H127.312V52.3112H130.308V51.938H133.304V52.3112H136.299V51.938H139.295V52.3112H142.291V51.938H145.287V52.3112H148.283V51.938H151.279V52.3112H154.274V51.938H157.27V52.3112H160.266V51.938H163.262V52.3112H166.258V51.938H169.254V52.3112H172.249V51.938H175.245V52.3112H178.241V51.938H181.237V52.3112H184.233V51.938H187.228V52.3112H190.224V51.938H193.22V52.3112H196.216V51.938H199.212V52.3112H202.208V51.938H205.203V52.3112H208.199V51.938H211.195V52.3112H214.191V51.938H217.187V52.3112H220.182V51.938H223.178V52.3112H226.174V51.938H229.17V52.3112H232.166V51.938H235.162V52.3112H238.157V51.938H241.153V52.3112H244.149V51.938H247.145V52.3112H250.141V51.938H253.136V52.3112H256.132V51.938H259.128V52.3112H262.124V51.938H265.12V52.3112H268.116V51.938H271.111V52.3112H274.107V51.938H277.103V52.3112H278.601C278.975 52.3112 279.341 52.3479 279.694 52.4177L279.766 52.0516C280.55 52.2066 281.278 52.5148 281.918 52.9437L281.711 53.2538C282.321 53.6626 282.847 54.1884 283.256 54.799L283.566 54.5914C283.995 55.232 284.303 55.9602 284.458 56.7436L284.092 56.816C284.162 57.1692 284.199 57.5346 284.199 57.9089V59.4172H284.572V62.4337H284.199V65.4503H284.572V68.4668H284.199V71.4834H284.572V74.4999H284.199V77.5165H284.572V80.533H284.199V83.5496H284.572V86.5661H284.199V89.5827H284.572V92.5992H284.199V95.6158H284.572V98.6323H284.199V101.649H284.572V104.665H284.199V107.682H284.572V110.699H284.199V113.715H284.572V116.732H284.199V119.748H284.572V122.765H284.199V125.781H284.572V128.798H284.199V130.306C284.199 130.68 284.162 131.046 284.092 131.399L284.458 131.471C284.303 132.255 283.995 132.983 283.566 133.624L283.256 133.416C282.847 134.027 282.321 134.552 281.711 134.961L281.918 135.271C281.278 135.7 280.55 136.008 279.766 136.163L279.694 135.797C279.341 135.867 278.975 135.904 278.601 135.904H277.103V136.277H274.107V135.904H271.111V136.277H268.115V135.904H265.12V136.277H262.124V135.904H259.128V136.277H256.132V135.904H253.136V136.277H250.141V135.904H247.145V136.277H244.149V135.904H241.153V136.277H238.157V135.904H235.161V136.277H232.166V135.904H229.17V136.277H226.174V135.904H223.178V136.277H220.182V135.904H217.187V136.277H214.191V135.904H211.195V136.277H208.199V135.904H205.203V136.277H202.207V135.904H199.212V136.277H196.216V135.904H193.22V136.277H190.224V135.904H187.228V136.277H184.233V135.904H181.237V136.277H178.241V135.904H175.245V136.277H172.249V135.904H169.253V136.277H166.258V135.904H163.262V136.277H160.266V135.904H157.27V136.277H154.274V135.904H151.279V136.277H148.283V135.904H145.287V136.277H142.291V135.904H139.295V136.277H136.299V135.904H133.304V136.277H130.308V135.904H127.312V136.277H124.316V135.904H121.32V136.277H118.325V135.904H115.329V136.277H112.333V135.904H109.337V136.277H106.341V135.904H103.345V136.277H100.35V135.904H97.3538V136.277H94.358V135.904H91.3622V136.277H88.3664V135.904H85.3706V136.277H82.3747V135.904H79.3789V136.277H76.3831V135.904H73.3873V136.277H70.3915V135.904H67.3956V136.277H64.3998V135.904H62.9019Z" stroke="#8C64F0" stroke-opacity="0.4" stroke-width="0.746363" stroke-dasharray="2.99 2.99"/>
<path d="M179.11 91.526H165.974C164.635 91.526 163.549 90.44 163.549 89.1003V71.1876C163.549 69.8479 164.635 68.7619 165.974 68.7619H174.931C174.974 68.7619 175.014 68.7789 175.045 68.8091L181.489 75.2534C181.519 75.2836 181.536 75.3245 181.536 75.3672V89.1003C181.536 90.44 180.45 91.526 179.11 91.526Z" stroke="#D0D5DD" stroke-width="1.11954"/>
<path d="M174.931 68.501V72.3821C174.931 74.0309 176.267 75.3675 177.916 75.3675H181.797" stroke="#D0D5DD" stroke-width="1.11954"/>
<rect x="174.11" y="82.7559" width="13.4345" height="13.4345" rx="6.71727" fill="#8C64F0"/>
<path d="M183.976 89.4734V90.9428C183.976 91.5306 183.976 91.8246 183.862 92.0491C183.761 92.2466 183.601 92.4071 183.403 92.5077C183.179 92.6221 182.885 92.6221 182.297 92.6221H179.358C178.77 92.6221 178.476 92.6221 178.252 92.5077C178.054 92.4071 177.894 92.2466 177.793 92.0491C177.679 91.8246 177.679 91.5306 177.679 90.9428V89.4734M182.227 87.7241L180.828 86.3247M180.828 86.3247L179.428 87.7241M180.828 86.3247V90.523" stroke="white" stroke-width="0.629744" stroke-linecap="round" stroke-linejoin="round"/>
<path d="M94.0537 111.057C94.0537 110.66 94.1407 110.312 94.3149 110.012C94.489 109.713 94.7328 109.479 95.0463 109.312C95.3598 109.145 95.722 109.061 96.133 109.061C96.7112 109.061 97.1884 109.215 97.5645 109.521C97.9407 109.821 98.1288 110.221 98.1288 110.723C98.1288 111.371 97.7317 111.883 96.9376 112.259V112.322C97.5576 112.342 98.0382 112.565 98.3796 112.99C98.7209 113.408 98.8916 113.959 98.8916 114.641C98.8916 115.031 98.8463 115.418 98.7557 115.801C98.6652 116.184 98.5363 116.588 98.3691 117.013H97.366C97.6516 116.212 97.7944 115.446 97.7944 114.714C97.7944 114.143 97.6795 113.711 97.4496 113.419C97.2197 113.119 96.8993 112.969 96.4883 112.969C96.0773 112.969 95.7464 113.102 95.4956 113.366C95.2448 113.631 95.1195 114.007 95.1195 114.495V117.013H94.0537V111.057ZM95.1195 113.001C95.21 112.827 95.318 112.684 95.4434 112.572C95.5757 112.454 95.7429 112.342 95.9449 112.238C96.335 112.022 96.6172 111.806 96.7913 111.59C96.9724 111.367 97.063 111.113 97.063 110.827C97.063 110.542 96.9759 110.315 96.8018 110.148C96.6276 109.981 96.3942 109.897 96.1017 109.897C95.8021 109.897 95.5583 109.995 95.3702 110.19C95.1822 110.385 95.0916 110.664 95.0986 111.026L95.1195 112.186C95.1195 112.436 95.0951 112.708 95.0463 113.001H95.1195ZM102.765 112.238C102.758 112.461 102.814 112.652 102.933 112.813C103.058 112.966 103.246 113.154 103.497 113.377C103.713 113.565 103.887 113.732 104.019 113.878C104.159 114.018 104.273 114.199 104.364 114.422C104.462 114.638 104.51 114.896 104.51 115.195C104.51 115.585 104.409 115.926 104.207 116.219C104.005 116.505 103.73 116.728 103.382 116.888C103.034 117.041 102.65 117.118 102.232 117.118C101.807 117.118 101.421 117.041 101.073 116.888C100.731 116.735 100.46 116.512 100.258 116.219C100.063 115.926 99.965 115.582 99.965 115.185C99.965 115.003 99.9894 114.84 100.038 114.693L101.083 114.735C101.062 114.84 101.052 114.958 101.052 115.091C101.052 115.46 101.16 115.752 101.376 115.968C101.592 116.184 101.877 116.292 102.232 116.292C102.588 116.292 102.877 116.191 103.1 115.989C103.323 115.787 103.434 115.512 103.434 115.164C103.434 114.892 103.364 114.669 103.225 114.495C103.093 114.314 102.887 114.112 102.609 113.889C102.393 113.708 102.222 113.551 102.097 113.419C101.971 113.286 101.867 113.123 101.783 112.928C101.706 112.733 101.675 112.503 101.689 112.238H102.765ZM108.296 112.238C108.289 112.461 108.345 112.652 108.463 112.813C108.589 112.966 108.777 113.154 109.027 113.377C109.243 113.565 109.418 113.732 109.55 113.878C109.689 114.018 109.804 114.199 109.895 114.422C109.992 114.638 110.041 114.896 110.041 115.195C110.041 115.585 109.94 115.926 109.738 116.219C109.536 116.505 109.261 116.728 108.912 116.888C108.564 117.041 108.181 117.118 107.763 117.118C107.338 117.118 106.952 117.041 106.603 116.888C106.262 116.735 105.99 116.512 105.788 116.219C105.593 115.926 105.496 115.582 105.496 115.185C105.496 115.003 105.52 114.84 105.569 114.693L106.614 114.735C106.593 114.84 106.582 114.958 106.582 115.091C106.582 115.46 106.69 115.752 106.906 115.968C107.122 116.184 107.408 116.292 107.763 116.292C108.118 116.292 108.407 116.191 108.63 115.989C108.853 115.787 108.965 115.512 108.965 115.164C108.965 114.892 108.895 114.669 108.756 114.495C108.623 114.314 108.418 114.112 108.139 113.889C107.923 113.708 107.753 113.551 107.627 113.419C107.502 113.286 107.397 113.123 107.314 112.928C107.237 112.733 107.206 112.503 107.22 112.238H108.296ZM113.476 120.263C112.975 120.263 112.525 120.151 112.128 119.928C111.738 119.713 111.432 119.403 111.209 118.999C110.986 118.601 110.874 118.142 110.874 117.619C110.874 117.139 110.975 116.703 111.177 116.313C111.38 115.916 111.669 115.599 112.045 115.362C112.421 115.125 112.863 114.997 113.372 114.976C113.476 114.962 113.598 114.962 113.738 114.976C113.926 114.829 114.075 114.673 114.187 114.505C114.305 114.331 114.364 114.129 114.364 113.899C114.364 113.593 114.277 113.359 114.103 113.199C113.936 113.039 113.696 112.959 113.382 112.959C113.083 112.959 112.842 113.046 112.661 113.22C112.48 113.387 112.383 113.621 112.369 113.92L111.251 113.878C111.285 113.37 111.494 112.952 111.878 112.625C112.261 112.297 112.766 112.133 113.393 112.133C113.818 112.133 114.187 112.207 114.5 112.353C114.814 112.499 115.054 112.701 115.221 112.959C115.388 113.21 115.472 113.495 115.472 113.816C115.472 114.108 115.392 114.37 115.232 114.599C115.078 114.822 114.866 115.007 114.594 115.153V115.226C115.082 115.421 115.451 115.731 115.702 116.156C115.953 116.574 116.078 117.058 116.078 117.609C116.078 118.131 115.967 118.594 115.744 118.999C115.521 119.403 115.211 119.713 114.814 119.928C114.424 120.151 113.978 120.263 113.476 120.263ZM111.972 117.609C111.972 118.173 112.111 118.615 112.39 118.936C112.668 119.263 113.03 119.427 113.476 119.427C113.915 119.427 114.274 119.263 114.553 118.936C114.838 118.615 114.981 118.173 114.981 117.609C114.981 117.051 114.838 116.613 114.553 116.292C114.274 115.965 113.915 115.801 113.476 115.801C113.03 115.801 112.668 115.965 112.39 116.292C112.111 116.613 111.972 117.051 111.972 117.609ZM122.213 120.19C122.129 119.765 121.896 119.427 121.513 119.176C121.13 118.932 120.677 118.81 120.155 118.81H119.966C119.688 118.81 119.42 118.835 119.162 118.884C118.904 118.939 118.632 119.03 118.347 119.155L118.023 118.476C118.378 118.316 118.855 118.222 119.454 118.194V118.131C118.695 117.95 118.089 117.57 117.636 116.992C117.191 116.407 116.968 115.679 116.968 114.808C116.968 114.209 117.069 113.711 117.271 113.314C117.473 112.91 117.741 112.614 118.075 112.426C118.41 112.231 118.775 112.133 119.172 112.133C119.771 112.133 120.27 112.391 120.667 112.907H120.74C120.935 112.663 121.182 112.475 121.482 112.342C121.788 112.203 122.129 112.133 122.506 112.133C122.944 112.133 123.338 112.231 123.686 112.426C124.042 112.621 124.32 112.9 124.522 113.262C124.724 113.617 124.825 114.035 124.825 114.516C124.825 114.976 124.724 115.387 124.522 115.749C124.32 116.111 124.038 116.393 123.676 116.595C123.321 116.797 122.92 116.898 122.474 116.898C122.028 116.898 121.624 116.797 121.262 116.595C120.907 116.393 120.628 116.111 120.426 115.749C120.224 115.387 120.123 114.976 120.123 114.516C120.123 114.091 120.2 113.725 120.353 113.419C120.061 113.126 119.73 112.98 119.36 112.98C118.97 112.98 118.653 113.126 118.41 113.419C118.173 113.711 118.054 114.171 118.054 114.798C118.054 115.655 118.281 116.331 118.733 116.825C119.193 117.32 119.824 117.661 120.625 117.849L120.99 117.943C121.638 118.103 122.161 118.372 122.558 118.748C122.962 119.131 123.199 119.598 123.268 120.148L122.213 120.19ZM121.199 114.516C121.199 114.983 121.318 115.362 121.555 115.655C121.792 115.94 122.098 116.083 122.474 116.083C122.857 116.083 123.164 115.94 123.394 115.655C123.631 115.362 123.749 114.983 123.749 114.516C123.749 114.014 123.634 113.628 123.404 113.356C123.174 113.077 122.864 112.938 122.474 112.938C122.091 112.938 121.781 113.077 121.544 113.356C121.314 113.635 121.199 114.021 121.199 114.516ZM128.227 120.263C127.718 120.263 127.283 120.158 126.921 119.949C126.565 119.74 126.294 119.451 126.105 119.082C125.924 118.72 125.834 118.305 125.834 117.839C125.834 117.504 125.883 117.18 125.98 116.867L127.046 116.909C126.969 117.18 126.931 117.466 126.931 117.766C126.931 118.302 127.042 118.713 127.265 118.999C127.495 119.284 127.819 119.427 128.237 119.427C128.648 119.427 128.965 119.284 129.188 118.999C129.411 118.713 129.522 118.309 129.522 117.786V114.453C129.522 113.931 129.411 113.555 129.188 113.325C128.972 113.088 128.686 112.969 128.331 112.969C127.99 112.969 127.715 113.081 127.506 113.304C127.304 113.527 127.203 113.861 127.203 114.307C127.203 114.453 127.224 114.652 127.265 114.902L126.168 114.934C126.119 114.711 126.095 114.481 126.095 114.244C126.095 113.812 126.189 113.44 126.377 113.126C126.572 112.806 126.837 112.562 127.171 112.395C127.506 112.221 127.885 112.133 128.31 112.133C128.993 112.133 129.54 112.335 129.951 112.74C130.369 113.144 130.578 113.708 130.578 114.432V117.797C130.578 118.542 130.376 119.138 129.972 119.584C129.568 120.036 128.986 120.263 128.227 120.263ZM134.238 117.118C133.779 117.118 133.368 117.017 133.005 116.815C132.643 116.606 132.358 116.313 132.149 115.937C131.94 115.561 131.835 115.122 131.835 114.62C131.835 114.126 131.936 113.69 132.138 113.314C132.347 112.938 132.633 112.649 132.995 112.447C133.357 112.238 133.765 112.133 134.217 112.133C134.608 112.133 134.959 112.207 135.273 112.353C135.593 112.499 135.851 112.719 136.046 113.011H136.119C136.586 112.426 137.154 112.133 137.822 112.133C138.408 112.133 138.885 112.346 139.254 112.771C139.63 113.189 139.818 113.816 139.818 114.652C139.818 115.084 139.773 115.481 139.682 115.843C139.599 116.205 139.47 116.595 139.296 117.013H138.251C138.411 116.616 138.529 116.233 138.606 115.864C138.683 115.495 138.721 115.108 138.721 114.704C138.721 114.119 138.617 113.687 138.408 113.408C138.199 113.123 137.916 112.98 137.561 112.98C137.122 112.98 136.739 113.164 136.412 113.534C136.558 113.868 136.631 114.234 136.631 114.631C136.631 115.125 136.527 115.561 136.318 115.937C136.109 116.313 135.823 116.606 135.461 116.815C135.099 117.017 134.691 117.118 134.238 117.118ZM132.932 114.631C132.932 115.153 133.051 115.561 133.288 115.853C133.524 116.139 133.841 116.282 134.238 116.282C134.628 116.282 134.942 116.139 135.179 115.853C135.416 115.561 135.534 115.153 135.534 114.631C135.534 114.108 135.416 113.701 135.179 113.408C134.942 113.109 134.628 112.959 134.238 112.959C133.841 112.959 133.524 113.109 133.288 113.408C133.051 113.701 132.932 114.108 132.932 114.631ZM148.107 120.263C147.501 120.263 146.968 120.158 146.508 119.949C146.055 119.747 145.704 119.469 145.453 119.113C145.209 118.758 145.087 118.368 145.087 117.943L146.174 117.839C146.174 118.326 146.348 118.709 146.696 118.988C147.045 119.274 147.511 119.416 148.097 119.416C148.661 119.416 149.1 119.274 149.413 118.988C149.734 118.702 149.894 118.337 149.894 117.891C149.894 117.515 149.803 117.212 149.622 116.982C149.441 116.745 149.201 116.609 148.901 116.574L148.65 116.533L148.744 115.676H148.974C149.364 115.676 149.671 115.543 149.894 115.279C150.117 115.014 150.228 114.693 150.228 114.317C150.228 113.899 150.113 113.572 149.883 113.335C149.653 113.098 149.357 112.98 148.995 112.98C148.549 112.98 148.18 113.126 147.888 113.419C148.041 113.725 148.117 114.084 148.117 114.495C148.117 114.962 148.016 115.38 147.814 115.749C147.612 116.111 147.334 116.393 146.979 116.595C146.623 116.797 146.223 116.898 145.777 116.898C145.324 116.898 144.92 116.797 144.565 116.595C144.209 116.393 143.931 116.111 143.729 115.749C143.527 115.38 143.426 114.962 143.426 114.495C143.426 114.028 143.523 113.617 143.718 113.262C143.92 112.9 144.196 112.621 144.544 112.426C144.899 112.231 145.3 112.133 145.746 112.133C146.122 112.133 146.463 112.203 146.77 112.342C147.076 112.475 147.323 112.663 147.511 112.907H147.574C147.978 112.391 148.535 112.133 149.246 112.133C149.615 112.133 149.956 112.221 150.27 112.395C150.59 112.562 150.845 112.806 151.033 113.126C151.221 113.44 151.315 113.805 151.315 114.223C151.315 114.669 151.176 115.073 150.897 115.435C150.625 115.791 150.242 116.021 149.748 116.125V116.188C150.131 116.285 150.434 116.491 150.657 116.804C150.879 117.118 150.991 117.494 150.991 117.933C150.991 118.365 150.876 118.755 150.646 119.103C150.416 119.458 150.082 119.74 149.643 119.949C149.204 120.158 148.692 120.263 148.107 120.263ZM144.492 114.495C144.492 114.976 144.607 115.362 144.836 115.655C145.073 115.94 145.383 116.083 145.766 116.083C146.15 116.083 146.46 115.94 146.696 115.655C146.933 115.362 147.052 114.972 147.052 114.485C147.052 114.004 146.933 113.628 146.696 113.356C146.466 113.077 146.157 112.938 145.766 112.938C145.383 112.938 145.073 113.077 144.836 113.356C144.607 113.635 144.492 114.014 144.492 114.495ZM155.082 112.238C155.075 112.461 155.131 112.652 155.249 112.813C155.375 112.966 155.563 113.154 155.814 113.377C156.03 113.565 156.204 113.732 156.336 113.878C156.475 114.018 156.59 114.199 156.681 114.422C156.778 114.638 156.827 114.896 156.827 115.195C156.827 115.585 156.726 115.926 156.524 116.219C156.322 116.505 156.047 116.728 155.699 116.888C155.35 117.041 154.967 117.118 154.549 117.118C154.124 117.118 153.738 117.041 153.389 116.888C153.048 116.735 152.776 116.512 152.574 116.219C152.379 115.926 152.282 115.582 152.282 115.185C152.282 115.003 152.306 114.84 152.355 114.693L153.4 114.735C153.379 114.84 153.369 114.958 153.369 115.091C153.369 115.46 153.476 115.752 153.692 115.968C153.908 116.184 154.194 116.292 154.549 116.292C154.905 116.292 155.194 116.191 155.417 115.989C155.639 115.787 155.751 115.512 155.751 115.164C155.751 114.892 155.681 114.669 155.542 114.495C155.41 114.314 155.204 114.112 154.925 113.889C154.709 113.708 154.539 113.551 154.413 113.419C154.288 113.286 154.184 113.123 154.1 112.928C154.023 112.733 153.992 112.503 154.006 112.238H155.082ZM158.366 117.013C158.206 116.595 158.081 116.202 157.99 115.832C157.907 115.463 157.865 115.08 157.865 114.683C157.865 114.147 157.966 113.687 158.168 113.304C158.377 112.921 158.662 112.632 159.025 112.436C159.387 112.234 159.801 112.133 160.268 112.133C160.742 112.133 161.16 112.234 161.522 112.436C161.891 112.632 162.177 112.921 162.379 113.304C162.588 113.687 162.692 114.147 162.692 114.683C162.692 115.08 162.647 115.463 162.556 115.832C162.473 116.195 162.347 116.588 162.18 117.013H161.177C161.323 116.588 161.431 116.198 161.501 115.843C161.571 115.488 161.606 115.115 161.606 114.725C161.606 114.168 161.487 113.736 161.25 113.429C161.013 113.116 160.686 112.959 160.268 112.959C159.85 112.959 159.523 113.116 159.286 113.429C159.056 113.736 158.941 114.168 158.941 114.725C158.941 115.108 158.976 115.481 159.045 115.843C159.115 116.205 159.227 116.595 159.38 117.013H158.366ZM170.816 120.19C170.746 119.723 170.485 119.378 170.032 119.155C169.579 118.939 169.004 118.824 168.308 118.81L167.848 118.8C167.388 118.786 166.936 118.828 166.49 118.925C166.044 119.023 165.65 119.152 165.309 119.312L164.985 118.591C165.229 118.487 165.469 118.403 165.706 118.34C165.943 118.278 166.228 118.236 166.563 118.215V118.152C166.006 118.082 165.521 117.901 165.11 117.609C164.699 117.316 164.382 116.94 164.16 116.48C163.937 116.021 163.825 115.515 163.825 114.965C163.825 114.324 163.916 113.791 164.097 113.366C164.285 112.942 164.536 112.632 164.849 112.436C165.163 112.234 165.511 112.133 165.894 112.133C166.27 112.133 166.608 112.231 166.908 112.426C167.207 112.614 167.42 112.921 167.545 113.346H167.618C167.723 112.921 167.921 112.614 168.214 112.426C168.513 112.231 168.841 112.133 169.196 112.133C169.558 112.133 169.896 112.231 170.21 112.426C170.523 112.614 170.732 112.921 170.837 113.346H170.91C171.021 112.921 171.223 112.614 171.516 112.426C171.815 112.231 172.157 112.133 172.54 112.133C173.146 112.133 173.633 112.346 174.003 112.771C174.372 113.189 174.556 113.795 174.556 114.589C174.556 114.944 174.529 115.293 174.473 115.634C174.417 115.975 174.333 116.341 174.222 116.731L173.156 116.679C173.358 116.066 173.459 115.38 173.459 114.62C173.459 114.091 173.362 113.687 173.167 113.408C172.972 113.13 172.7 112.99 172.352 112.99C172.031 112.99 171.777 113.102 171.589 113.325C171.401 113.541 171.307 113.882 171.307 114.349V115.832H170.262V114.349C170.262 113.882 170.157 113.541 169.948 113.325C169.746 113.102 169.496 112.99 169.196 112.99C168.89 112.99 168.632 113.102 168.423 113.325C168.221 113.541 168.12 113.882 168.12 114.349V115.832H167.075V114.349C167.075 113.882 166.981 113.541 166.793 113.325C166.605 113.102 166.361 112.99 166.061 112.99C165.72 112.99 165.441 113.14 165.225 113.44C165.016 113.739 164.912 114.248 164.912 114.965C164.912 115.836 165.177 116.515 165.706 117.003C166.242 117.483 166.988 117.766 167.942 117.849L168.809 117.922C170.725 118.103 171.746 118.845 171.871 120.148L170.816 120.19ZM176.183 117.013C176.023 116.595 175.897 116.202 175.807 115.832C175.723 115.463 175.681 115.08 175.681 114.683C175.681 114.147 175.782 113.687 175.984 113.304C176.193 112.921 176.479 112.632 176.841 112.436C177.203 112.234 177.618 112.133 178.085 112.133C178.558 112.133 178.976 112.234 179.338 112.436C179.708 112.632 179.993 112.921 180.195 113.304C180.404 113.687 180.509 114.147 180.509 114.683C180.509 115.08 180.463 115.463 180.373 115.832C180.289 116.195 180.164 116.588 179.997 117.013H178.994C179.14 116.588 179.248 116.198 179.318 115.843C179.387 115.488 179.422 115.115 179.422 114.725C179.422 114.168 179.304 113.736 179.067 113.429C178.83 113.116 178.502 112.959 178.085 112.959C177.667 112.959 177.339 113.116 177.102 113.429C176.872 113.736 176.757 114.168 176.757 114.725C176.757 115.108 176.792 115.481 176.862 115.843C176.932 116.205 177.043 116.595 177.196 117.013H176.183ZM186.807 112.238C186.8 112.461 186.856 112.652 186.974 112.813C187.1 112.966 187.288 113.154 187.538 113.377C187.754 113.565 187.929 113.732 188.061 113.878C188.2 114.018 188.315 114.199 188.406 114.422C188.503 114.638 188.552 114.896 188.552 115.195C188.552 115.585 188.451 115.926 188.249 116.219C188.047 116.505 187.772 116.728 187.423 116.888C187.075 117.041 186.692 117.118 186.274 117.118C185.849 117.118 185.463 117.041 185.114 116.888C184.773 116.735 184.501 116.512 184.299 116.219C184.104 115.926 184.007 115.582 184.007 115.185C184.007 115.003 184.031 114.84 184.08 114.693L185.125 114.735C185.104 114.84 185.093 114.958 185.093 115.091C185.093 115.46 185.201 115.752 185.417 115.968C185.633 116.184 185.919 116.292 186.274 116.292C186.629 116.292 186.918 116.191 187.141 115.989C187.364 115.787 187.476 115.512 187.476 115.164C187.476 114.892 187.406 114.669 187.267 114.495C187.134 114.314 186.929 114.112 186.65 113.889C186.434 113.708 186.264 113.551 186.138 113.419C186.013 113.286 185.908 113.123 185.825 112.928C185.748 112.733 185.717 112.503 185.731 112.238H186.807ZM192.039 117.118C191.544 117.118 191.112 117.013 190.743 116.804C190.374 116.595 190.092 116.303 189.897 115.926C189.702 115.55 189.604 115.122 189.604 114.641V111.089C189.604 110.469 189.796 109.981 190.179 109.626C190.562 109.263 191.081 109.082 191.736 109.082C191.987 109.082 192.251 109.1 192.53 109.135C192.85 109.162 193.094 109.176 193.261 109.176C193.561 109.176 193.815 109.152 194.024 109.103V110.033C193.822 110.11 193.592 110.148 193.334 110.148C193.153 110.148 192.896 110.113 192.561 110.044C192.526 110.037 192.429 110.019 192.269 109.991C192.115 109.964 191.962 109.95 191.809 109.95C191.454 109.95 191.168 110.047 190.952 110.242C190.743 110.437 190.642 110.723 190.649 111.099L190.67 112.186C190.67 112.436 190.646 112.708 190.597 113.001H190.67C190.823 112.722 191.039 112.51 191.318 112.363C191.603 112.21 191.924 112.133 192.279 112.133C192.704 112.133 193.08 112.241 193.408 112.457C193.742 112.666 194 112.962 194.181 113.346C194.369 113.722 194.463 114.154 194.463 114.641C194.463 115.122 194.365 115.55 194.17 115.926C193.975 116.303 193.693 116.595 193.324 116.804C192.962 117.013 192.533 117.118 192.039 117.118ZM190.67 114.767C190.67 115.219 190.795 115.585 191.046 115.864C191.297 116.142 191.624 116.282 192.028 116.282C192.425 116.282 192.746 116.135 192.99 115.843C193.24 115.543 193.366 115.139 193.366 114.631C193.366 114.108 193.244 113.701 193 113.408C192.763 113.116 192.439 112.969 192.028 112.969C191.624 112.969 191.297 113.105 191.046 113.377C190.795 113.642 190.67 114.014 190.67 114.495V114.767Z" fill="#344054"/>
<path d="M202.838 112.175C202.838 112.398 202.893 112.59 203.005 112.75C203.123 112.903 203.301 113.077 203.538 113.272C203.754 113.454 203.924 113.617 204.05 113.764C204.182 113.91 204.293 114.094 204.384 114.317C204.482 114.54 204.53 114.808 204.53 115.122C204.53 115.533 204.419 115.892 204.196 116.198C203.98 116.498 203.684 116.728 203.308 116.888C202.939 117.048 202.531 117.128 202.085 117.128C201.382 117.128 200.803 116.957 200.351 116.616C199.898 116.268 199.671 115.784 199.671 115.164C199.671 114.983 199.696 114.805 199.745 114.631L201.249 114.693C201.228 114.805 201.218 114.916 201.218 115.028C201.218 115.306 201.295 115.533 201.448 115.707C201.601 115.874 201.817 115.958 202.096 115.958C202.36 115.958 202.573 115.878 202.733 115.717C202.893 115.557 202.973 115.341 202.973 115.07C202.973 114.847 202.914 114.662 202.796 114.516C202.677 114.363 202.496 114.192 202.252 114.004C202.029 113.83 201.852 113.673 201.719 113.534C201.587 113.387 201.479 113.203 201.396 112.98C201.312 112.757 201.281 112.489 201.302 112.175H202.838ZM205.919 117.013C205.765 116.623 205.644 116.247 205.553 115.885C205.469 115.515 205.428 115.129 205.428 114.725C205.428 114.154 205.536 113.666 205.752 113.262C205.974 112.858 206.277 112.555 206.661 112.353C207.051 112.151 207.5 112.05 208.009 112.05C208.782 112.05 209.405 112.28 209.879 112.74C210.353 113.199 210.589 113.861 210.589 114.725C210.589 115.129 210.544 115.515 210.454 115.885C210.37 116.247 210.252 116.623 210.098 117.013H208.688C208.813 116.609 208.904 116.24 208.959 115.906C209.015 115.571 209.043 115.202 209.043 114.798C209.043 114.289 208.952 113.903 208.771 113.638C208.597 113.373 208.343 113.241 208.009 113.241C207.681 113.241 207.427 113.377 207.246 113.649C207.072 113.913 206.985 114.296 206.985 114.798C206.985 115.188 207.012 115.557 207.068 115.906C207.131 116.247 207.221 116.616 207.34 117.013H205.919ZM212.083 117.013C211.937 116.637 211.819 116.184 211.728 115.655C211.637 115.125 211.592 114.53 211.592 113.868C211.599 112.287 211.993 111.158 212.773 110.483C213.56 109.8 214.518 109.392 215.646 109.26L217.318 109.061V110.42L215.678 110.618C214.758 110.73 214.051 110.963 213.557 111.318C213.062 111.674 212.738 112.21 212.585 112.928H212.668C212.996 112.342 213.476 112.05 214.11 112.05C214.438 112.05 214.737 112.154 215.009 112.363C215.281 112.565 215.462 112.865 215.552 113.262H215.646C215.779 112.858 215.998 112.555 216.305 112.353C216.618 112.151 216.984 112.05 217.402 112.05C217.799 112.05 218.158 112.144 218.478 112.332C218.805 112.513 219.063 112.802 219.251 113.199C219.446 113.589 219.544 114.077 219.544 114.662C219.544 115.087 219.502 115.484 219.419 115.853C219.335 116.223 219.213 116.609 219.053 117.013H217.548C217.701 116.63 217.813 116.261 217.882 115.906C217.959 115.55 217.997 115.178 217.997 114.788C217.997 114.258 217.917 113.868 217.757 113.617C217.597 113.366 217.384 113.241 217.12 113.241C216.869 113.241 216.67 113.339 216.524 113.534C216.385 113.722 216.315 114.014 216.315 114.411V115.864H214.821V114.411C214.821 114.014 214.748 113.722 214.601 113.534C214.462 113.339 214.267 113.241 214.016 113.241C213.745 113.241 213.529 113.366 213.368 113.617C213.215 113.861 213.139 114.251 213.139 114.788C213.139 115.178 213.173 115.55 213.243 115.906C213.32 116.261 213.435 116.63 213.588 117.013H212.083ZM220.77 111.193C220.77 110.538 220.982 110.019 221.407 109.636C221.832 109.253 222.389 109.061 223.079 109.061C223.49 109.061 223.859 109.135 224.187 109.281C224.521 109.42 224.782 109.622 224.97 109.887C225.165 110.145 225.263 110.444 225.263 110.786C225.263 111.412 224.922 111.9 224.239 112.248V112.342C224.81 112.426 225.235 112.666 225.514 113.063C225.792 113.454 225.932 113.976 225.932 114.631C225.932 115.39 225.761 116.184 225.42 117.013H224.009C224.246 116.247 224.364 115.498 224.364 114.767C224.364 113.743 224.027 113.231 223.351 113.231C223.023 113.231 222.762 113.342 222.567 113.565C222.379 113.781 222.285 114.084 222.285 114.474V117.013H220.77V111.193ZM222.285 112.802C222.369 112.677 222.459 112.569 222.557 112.478C222.654 112.388 222.773 112.297 222.912 112.207C223.191 112.039 223.396 111.862 223.528 111.674C223.668 111.479 223.737 111.252 223.737 110.995C223.737 110.751 223.671 110.563 223.539 110.43C223.407 110.291 223.236 110.221 223.027 110.221C222.804 110.221 222.619 110.298 222.473 110.451C222.334 110.597 222.268 110.813 222.275 111.099L222.285 111.945C222.299 112.231 222.271 112.517 222.201 112.802H222.285ZM227.429 117.013C227.276 116.623 227.154 116.247 227.063 115.885C226.98 115.515 226.938 115.129 226.938 114.725C226.938 114.154 227.046 113.666 227.262 113.262C227.485 112.858 227.788 112.555 228.171 112.353C228.561 112.151 229.01 112.05 229.519 112.05C230.292 112.05 230.916 112.28 231.389 112.74C231.863 113.199 232.1 113.861 232.1 114.725C232.1 115.129 232.055 115.515 231.964 115.885C231.88 116.247 231.762 116.623 231.609 117.013H230.198C230.324 116.609 230.414 116.24 230.47 115.906C230.526 115.571 230.553 115.202 230.553 114.798C230.553 114.289 230.463 113.903 230.282 113.638C230.108 113.373 229.853 113.241 229.519 113.241C229.192 113.241 228.937 113.377 228.756 113.649C228.582 113.913 228.495 114.296 228.495 114.798C228.495 115.188 228.523 115.557 228.579 115.906C228.641 116.247 228.732 116.616 228.85 117.013H227.429ZM235.549 120.263C235.006 120.263 234.539 120.155 234.149 119.939C233.766 119.73 233.473 119.437 233.271 119.061C233.076 118.692 232.979 118.264 232.979 117.776C232.979 117.421 233.035 117.09 233.146 116.783L234.651 116.856C234.581 117.163 234.546 117.442 234.546 117.692C234.546 118.152 234.633 118.497 234.807 118.727C234.982 118.964 235.225 119.082 235.539 119.082C235.845 119.082 236.086 118.967 236.26 118.737C236.434 118.507 236.521 118.17 236.521 117.724V114.39C236.521 113.986 236.441 113.694 236.281 113.513C236.121 113.332 235.908 113.241 235.643 113.241C235.386 113.241 235.18 113.332 235.027 113.513C234.874 113.687 234.797 113.948 234.797 114.296C234.797 114.457 234.818 114.676 234.86 114.955L233.292 115.007C233.244 114.7 233.219 114.432 233.219 114.202C233.219 113.77 233.32 113.391 233.522 113.063C233.724 112.736 234.006 112.485 234.369 112.311C234.731 112.137 235.142 112.05 235.602 112.05C236.075 112.05 236.497 112.144 236.866 112.332C237.235 112.52 237.524 112.795 237.733 113.157C237.942 113.513 238.047 113.938 238.047 114.432V117.734C238.047 118.5 237.831 119.113 237.399 119.573C236.974 120.033 236.357 120.263 235.549 120.263ZM241.744 117.128C241.257 117.128 240.818 117.024 240.428 116.815C240.045 116.606 239.742 116.31 239.519 115.926C239.296 115.543 239.184 115.098 239.184 114.589C239.184 114.087 239.292 113.645 239.508 113.262C239.731 112.879 240.034 112.583 240.417 112.374C240.8 112.158 241.229 112.05 241.702 112.05C242.12 112.05 242.497 112.123 242.831 112.269C243.165 112.416 243.43 112.635 243.625 112.928H243.709C244.148 112.349 244.712 112.06 245.401 112.06C246.001 112.06 246.488 112.276 246.864 112.708C247.24 113.14 247.429 113.802 247.429 114.693C247.429 115.125 247.383 115.522 247.293 115.885C247.202 116.247 247.073 116.623 246.906 117.013H245.412C245.572 116.616 245.687 116.243 245.757 115.895C245.833 115.547 245.872 115.174 245.872 114.777C245.872 113.76 245.558 113.252 244.931 113.252C244.625 113.252 244.35 113.373 244.106 113.617C244.231 113.91 244.294 114.237 244.294 114.599C244.294 115.108 244.179 115.554 243.949 115.937C243.726 116.32 243.42 116.616 243.03 116.825C242.646 117.027 242.218 117.128 241.744 117.128ZM240.752 114.599C240.752 115.031 240.839 115.366 241.013 115.603C241.187 115.832 241.431 115.947 241.744 115.947C242.051 115.947 242.291 115.832 242.465 115.603C242.639 115.366 242.726 115.031 242.726 114.599C242.726 114.168 242.639 113.833 242.465 113.596C242.291 113.353 242.051 113.231 241.744 113.231C241.431 113.231 241.187 113.353 241.013 113.596C240.839 113.833 240.752 114.168 240.752 114.599Z" fill="#344054"/>
<path d="M199.243 118.319H247.951V118.842H199.243V118.319Z" fill="#344054"/>
</g>
<rect x="39.3915" y="34.3986" width="262.72" height="119.418" rx="8.58318" stroke="#EAECF0" stroke-width="0.746363"/>
</g>
<g filter="url(#filter1_dd_956_40413)">
<rect x="39.0183" y="159.414" width="263.466" height="44.0354" rx="8.95636" fill="white" shape-rendering="crispEdges"/>
<rect x="39.3915" y="159.787" width="262.72" height="43.2891" rx="8.58318" stroke="#EAECF0" stroke-width="0.746363" shape-rendering="crispEdges"/>
<path d="M68.2757 192.814H55.1398C53.8001 192.814 52.7141 191.728 52.7141 190.388V172.475C52.7141 171.136 53.8001 170.05 55.1397 170.05H64.0961C64.1388 170.05 64.1797 170.066 64.2099 170.097L70.6543 176.541C70.6845 176.571 70.7014 176.612 70.7014 176.655V190.388C70.7014 191.728 69.6154 192.814 68.2757 192.814Z" stroke="#D0D5DD" stroke-width="1.11954"/>
<path d="M64.0957 169.789V173.67C64.0957 175.318 65.4323 176.655 67.0812 176.655H70.9622" stroke="#D0D5DD" stroke-width="1.11954"/>
<path d="M47.4912 180.514C47.4912 179.689 48.1595 179.021 48.9839 179.021H65.4767C66.3011 179.021 66.9694 179.689 66.9694 180.514V189.514C66.9694 190.338 66.3011 191.006 65.4767 191.006H48.9839C48.1595 191.006 47.4912 190.338 47.4912 189.514V180.514Z" fill="#4D6887"/>
<path d="M51.5501 182.086V187.514H50.4025V182.086H51.5501ZM52.4943 182.086H53.9097L55.4045 185.733H55.4681L56.963 182.086H58.3783V187.514H57.2651V183.981H57.2201L55.8153 187.487H55.0573L53.6526 183.967H53.6075V187.514H52.4943V182.086ZM62.9232 183.84C62.886 183.711 62.8339 183.597 62.7668 183.498C62.6996 183.398 62.6175 183.313 62.5203 183.244C62.4249 183.173 62.3153 183.119 62.1916 183.082C62.0697 183.045 61.9345 183.026 61.7861 183.026C61.5087 183.026 61.2649 183.095 61.0546 183.233C60.8461 183.371 60.6835 183.572 60.5669 183.835C60.4503 184.096 60.392 184.416 60.392 184.794C60.392 185.172 60.4494 185.494 60.5643 185.759C60.6791 186.024 60.8417 186.226 61.0519 186.366C61.2622 186.504 61.5105 186.573 61.7967 186.573C62.0565 186.573 62.2782 186.527 62.462 186.435C62.6475 186.341 62.7889 186.21 62.886 186.04C62.985 185.87 63.0345 185.67 63.0345 185.438L63.2677 185.473H61.8683V184.609H64.1397V185.293C64.1397 185.77 64.039 186.18 63.8376 186.522C63.6361 186.863 63.3587 187.127 63.0053 187.312C62.6519 187.496 62.2473 187.588 61.7914 187.588C61.2825 187.588 60.8355 187.476 60.4503 187.251C60.0651 187.025 59.7647 186.704 59.5491 186.289C59.3353 185.872 59.2284 185.377 59.2284 184.805C59.2284 184.365 59.2921 183.973 59.4193 183.628C59.5483 183.282 59.7285 182.988 59.96 182.748C60.1914 182.508 60.4609 182.325 60.7683 182.2C61.0758 182.074 61.4089 182.011 61.7676 182.011C62.075 182.011 62.3613 182.056 62.6263 182.147C62.8913 182.235 63.1264 182.36 63.3313 182.523C63.5381 182.685 63.7068 182.879 63.8376 183.103C63.9683 183.326 64.0522 183.572 64.0893 183.84H62.9232Z" fill="white"/>
<path d="M85.8212 175.832C85.7495 175.468 85.5495 175.178 85.2211 174.963C84.8927 174.754 84.5046 174.65 84.0568 174.65H83.8956C83.6567 174.65 83.4268 174.671 83.2059 174.713C82.985 174.76 82.7521 174.838 82.5073 174.945L82.2297 174.363C82.5342 174.226 82.9432 174.145 83.4567 174.121V174.068C82.8059 173.912 82.2864 173.587 81.8983 173.091C81.5162 172.59 81.3251 171.966 81.3251 171.22C81.3251 170.706 81.4117 170.279 81.5848 169.939C81.758 169.593 81.9879 169.339 82.2745 169.178C82.5611 169.01 82.8745 168.927 83.2149 168.927C83.7284 168.927 84.1553 169.148 84.4956 169.59H84.5583C84.7255 169.381 84.9375 169.219 85.1942 169.106C85.457 168.986 85.7495 168.927 86.072 168.927C86.4481 168.927 86.7855 169.01 87.084 169.178C87.3885 169.345 87.6274 169.584 87.8005 169.894C87.9737 170.199 88.0603 170.557 88.0603 170.969C88.0603 171.363 87.9737 171.715 87.8005 172.026C87.6274 172.336 87.3856 172.578 87.0751 172.751C86.7706 172.924 86.4272 173.011 86.0451 173.011C85.663 173.011 85.3166 172.924 85.0062 172.751C84.7016 172.578 84.4628 172.336 84.2896 172.026C84.1165 171.715 84.0299 171.363 84.0299 170.969C84.0299 170.605 84.0956 170.291 84.2269 170.028C83.9762 169.778 83.6926 169.652 83.3761 169.652C83.0417 169.652 82.77 169.778 82.5611 170.028C82.3581 170.279 82.2565 170.673 82.2565 171.211C82.2565 171.945 82.4506 172.524 82.8387 172.948C83.2328 173.372 83.7732 173.665 84.4598 173.826L84.7733 173.906C85.3286 174.044 85.7764 174.274 86.1167 174.596C86.4631 174.925 86.6661 175.325 86.7258 175.796L85.8212 175.832ZM84.9524 170.969C84.9524 171.369 85.0539 171.694 85.2569 171.945C85.4599 172.19 85.7227 172.312 86.0451 172.312C86.3735 172.312 86.6362 172.19 86.8332 171.945C87.0363 171.694 87.1378 171.369 87.1378 170.969C87.1378 170.539 87.0392 170.208 86.8422 169.975C86.6452 169.736 86.3795 169.616 86.0451 169.616C85.7167 169.616 85.451 169.736 85.248 169.975C85.0509 170.213 84.9524 170.545 84.9524 170.969ZM89.5131 173.109C89.3698 172.751 89.2623 172.417 89.1907 172.106C89.119 171.79 89.0832 171.449 89.0832 171.085C89.0832 170.602 89.1638 170.199 89.325 169.876C89.4862 169.554 89.7012 169.315 89.9699 169.16C90.2386 169.004 90.5371 168.927 90.8655 168.927C91.2118 168.927 91.5163 169.01 91.779 169.178C92.0418 169.345 92.2239 169.616 92.3254 169.993H92.3881C92.4896 169.622 92.6717 169.354 92.9344 169.186C93.2031 169.013 93.5076 168.927 93.848 168.927C94.1764 168.927 94.4719 169.004 94.7346 169.16C95.0033 169.309 95.2153 169.539 95.3705 169.849C95.5318 170.16 95.6124 170.542 95.6124 170.996C95.6124 171.27 95.5885 171.521 95.5407 171.748C95.4929 171.975 95.4183 172.202 95.3168 172.429V172.447H96.3916L96.3289 173.109H94.2689C94.4062 172.769 94.5077 172.441 94.5734 172.124C94.6391 171.808 94.6719 171.476 94.6719 171.13C94.6719 170.628 94.5824 170.255 94.4033 170.01C94.2301 169.76 94.0002 169.634 93.7136 169.634C93.439 169.634 93.215 169.733 93.0419 169.93C92.8747 170.121 92.7911 170.428 92.7911 170.852V172.097H91.8955V170.852C91.8955 170.428 91.8119 170.121 91.6447 169.93C91.4775 169.733 91.2566 169.634 90.9819 169.634C90.6894 169.634 90.4535 169.757 90.2744 170.002C90.0953 170.246 90.0057 170.62 90.0057 171.121C90.0057 171.461 90.0385 171.793 90.1042 172.115C90.1699 172.432 90.2774 172.763 90.4266 173.109H89.5131ZM100.136 168.954C100.273 169.216 100.371 169.455 100.431 169.67C100.491 169.879 100.521 170.106 100.521 170.351C100.521 170.691 100.431 170.99 100.252 171.246C100.073 171.503 99.828 171.679 99.5175 171.775V171.838C99.9534 171.915 100.297 172.133 100.548 172.491C100.798 172.844 100.924 173.253 100.924 173.718C100.924 174.13 100.84 174.501 100.673 174.829C100.506 175.163 100.261 175.423 99.9385 175.608C99.622 175.799 99.2429 175.895 98.801 175.895C98.3652 175.895 97.992 175.805 97.6815 175.626C97.371 175.453 97.1352 175.214 96.9739 174.91C96.8127 174.611 96.7321 174.274 96.7321 173.898C96.7321 173.7 96.756 173.509 96.8038 173.324L97.6994 173.369C97.6696 173.536 97.6546 173.68 97.6546 173.799C97.6546 174.229 97.7531 174.563 97.9502 174.802C98.1532 175.047 98.4338 175.169 98.7921 175.169C99.1683 175.169 99.4608 175.035 99.6698 174.766C99.8788 174.504 99.9833 174.139 99.9833 173.674C99.9833 173.238 99.8758 172.885 99.6609 172.617C99.4519 172.348 99.1563 172.214 98.7742 172.214H98.4876V171.47H98.6398C98.9682 171.47 99.2071 171.366 99.3563 171.157C99.5116 170.948 99.5892 170.682 99.5892 170.36C99.5892 170.127 99.5564 169.906 99.4907 169.697C99.431 169.488 99.3414 169.261 99.222 169.016L100.136 168.954ZM104.36 175.895C103.9 175.895 103.506 175.802 103.178 175.617C102.849 175.432 102.599 175.181 102.426 174.865C102.258 174.554 102.175 174.205 102.175 173.817C102.175 173.524 102.22 173.247 102.309 172.984L103.214 173.02C103.148 173.294 103.115 173.539 103.115 173.754C103.115 174.184 103.223 174.527 103.438 174.784C103.659 175.047 103.963 175.178 104.351 175.178C104.721 175.178 105.017 175.044 105.238 174.775C105.465 174.507 105.578 174.151 105.578 173.709V170.494C105.578 170.219 105.507 170.01 105.363 169.867C105.226 169.724 105.044 169.652 104.817 169.652C104.59 169.652 104.405 169.724 104.262 169.867C104.124 170.01 104.056 170.219 104.056 170.494V171.641H103.169V170.467C103.169 170.234 103.109 170.058 102.99 169.939C102.876 169.813 102.712 169.751 102.497 169.751C102.443 169.751 102.363 169.757 102.255 169.769C102.166 169.787 102.076 169.796 101.987 169.796C101.879 169.796 101.784 169.781 101.7 169.751V168.972C101.79 169.001 101.891 169.016 102.005 169.016C102.07 169.016 102.163 169.01 102.282 168.998C102.372 168.98 102.467 168.972 102.569 168.972C102.826 168.972 103.044 169.031 103.223 169.151C103.408 169.27 103.545 169.488 103.635 169.804H103.697C103.781 169.494 103.945 169.27 104.19 169.133C104.435 168.995 104.7 168.927 104.987 168.927C105.441 168.927 105.802 169.07 106.071 169.357C106.345 169.643 106.483 170.01 106.483 170.458V173.718C106.483 174.369 106.304 174.895 105.945 175.295C105.587 175.695 105.059 175.895 104.36 175.895ZM109.704 173.199C109.28 173.199 108.909 173.109 108.593 172.93C108.282 172.751 108.044 172.5 107.876 172.178C107.709 171.855 107.626 171.488 107.626 171.076C107.626 170.658 107.703 170.288 107.859 169.966C108.02 169.637 108.241 169.384 108.521 169.204C108.808 169.019 109.133 168.927 109.498 168.927C109.802 168.927 110.074 168.992 110.313 169.124C110.557 169.255 110.745 169.437 110.877 169.67H110.939C110.898 169.419 110.877 169.186 110.877 168.972L110.895 168.21C110.901 167.816 110.793 167.518 110.572 167.315C110.351 167.112 110.068 167.01 109.721 167.01C109.387 167.01 109.115 167.103 108.906 167.288C108.703 167.473 108.596 167.697 108.584 167.959L107.653 167.933C107.658 167.634 107.751 167.359 107.93 167.109C108.109 166.858 108.354 166.661 108.665 166.517C108.981 166.368 109.33 166.294 109.712 166.294C110.107 166.294 110.462 166.374 110.778 166.535C111.095 166.691 111.343 166.915 111.522 167.207C111.701 167.5 111.79 167.834 111.79 168.21V171.076C111.79 171.488 111.707 171.855 111.54 172.178C111.372 172.5 111.131 172.751 110.814 172.93C110.498 173.109 110.127 173.199 109.704 173.199ZM108.566 171.067C108.566 171.503 108.671 171.85 108.88 172.106C109.094 172.357 109.372 172.482 109.712 172.482C110.059 172.482 110.339 172.363 110.554 172.124C110.769 171.885 110.877 171.572 110.877 171.184V170.951C110.877 170.539 110.769 170.219 110.554 169.993C110.339 169.76 110.059 169.643 109.712 169.643C109.36 169.643 109.08 169.769 108.871 170.019C108.668 170.27 108.566 170.62 108.566 171.067ZM114.687 175.895C114.251 175.895 113.878 175.805 113.568 175.626C113.263 175.447 113.03 175.199 112.869 174.883C112.714 174.572 112.636 174.217 112.636 173.817C112.636 173.53 112.678 173.253 112.762 172.984L113.675 173.02C113.61 173.253 113.577 173.497 113.577 173.754C113.577 174.214 113.672 174.566 113.863 174.811C114.06 175.056 114.338 175.178 114.696 175.178C115.049 175.178 115.32 175.056 115.511 174.811C115.702 174.566 115.798 174.22 115.798 173.772V170.915C115.798 170.467 115.702 170.145 115.511 169.948C115.326 169.745 115.081 169.643 114.777 169.643C114.484 169.643 114.248 169.739 114.069 169.93C113.896 170.121 113.81 170.408 113.81 170.79C113.81 170.915 113.827 171.085 113.863 171.3L112.923 171.327C112.881 171.136 112.86 170.939 112.86 170.736C112.86 170.366 112.941 170.046 113.102 169.778C113.269 169.503 113.496 169.294 113.783 169.151C114.069 169.001 114.395 168.927 114.759 168.927C115.344 168.927 115.813 169.1 116.165 169.446C116.523 169.793 116.702 170.276 116.702 170.897V173.781C116.702 174.42 116.529 174.931 116.183 175.313C115.837 175.701 115.338 175.895 114.687 175.895ZM119.984 173.199C119.56 173.199 119.189 173.109 118.873 172.93C118.556 172.751 118.315 172.5 118.147 172.178C117.98 171.855 117.897 171.488 117.897 171.076V168.031C117.897 167.5 118.061 167.082 118.389 166.777C118.718 166.467 119.163 166.311 119.724 166.311C119.939 166.311 120.166 166.326 120.404 166.356C120.679 166.38 120.888 166.392 121.031 166.392C121.288 166.392 121.506 166.371 121.685 166.329V167.127C121.512 167.192 121.315 167.225 121.094 167.225C120.939 167.225 120.718 167.195 120.431 167.135C120.401 167.13 120.318 167.115 120.181 167.091C120.049 167.067 119.918 167.055 119.786 167.055C119.482 167.055 119.237 167.138 119.052 167.306C118.873 167.473 118.786 167.718 118.792 168.04L118.81 168.972C118.81 169.186 118.789 169.419 118.748 169.67H118.81C118.942 169.431 119.127 169.249 119.366 169.124C119.61 168.992 119.885 168.927 120.19 168.927C120.554 168.927 120.876 169.019 121.157 169.204C121.443 169.384 121.664 169.637 121.82 169.966C121.981 170.288 122.061 170.658 122.061 171.076C122.061 171.488 121.978 171.855 121.811 172.178C121.643 172.5 121.402 172.751 121.085 172.93C120.775 173.109 120.407 173.199 119.984 173.199ZM118.81 171.184C118.81 171.572 118.918 171.885 119.133 172.124C119.348 172.363 119.628 172.482 119.975 172.482C120.315 172.482 120.59 172.357 120.799 172.106C121.014 171.85 121.121 171.503 121.121 171.067C121.121 170.62 121.016 170.27 120.808 170.019C120.604 169.769 120.327 169.643 119.975 169.643C119.628 169.643 119.348 169.76 119.133 169.993C118.918 170.219 118.81 170.539 118.81 170.951V171.184ZM126.206 175.886C125.615 175.886 125.075 175.752 124.585 175.483C124.102 175.22 123.714 174.826 123.421 174.301C123.134 173.781 122.991 173.154 122.991 172.42C122.991 171.739 123.116 171.148 123.367 170.646C123.618 170.139 123.958 169.745 124.388 169.464C124.818 169.178 125.302 169.007 125.839 168.954C125.791 168.763 125.768 168.571 125.768 168.38V167.762H126.636V168.38C126.636 168.571 126.612 168.763 126.565 168.954C127.102 169.007 127.586 169.178 128.016 169.464C128.445 169.745 128.786 170.136 129.037 170.637C129.287 171.139 129.413 171.733 129.413 172.42C129.413 173.154 129.269 173.781 128.983 174.301C128.696 174.826 128.308 175.22 127.819 175.483C127.335 175.752 126.797 175.886 126.206 175.886ZM123.94 172.42C123.94 173.023 124.039 173.53 124.236 173.942C124.439 174.354 124.711 174.662 125.051 174.865C125.397 175.074 125.785 175.178 126.215 175.178C126.633 175.178 127.012 175.074 127.353 174.865C127.693 174.662 127.965 174.354 128.168 173.942C128.371 173.53 128.472 173.023 128.472 172.42C128.466 171.572 128.287 170.918 127.935 170.458C127.589 169.999 127.12 169.733 126.529 169.661C126.606 169.882 126.645 170.124 126.645 170.387V172.321H125.768V170.387C125.768 170.148 125.803 169.906 125.875 169.661C125.284 169.739 124.812 170.007 124.46 170.467C124.108 170.927 123.934 171.578 123.94 172.42ZM130.725 173.109C130.588 172.751 130.48 172.414 130.403 172.097C130.331 171.781 130.295 171.452 130.295 171.112C130.295 170.652 130.382 170.258 130.555 169.93C130.734 169.601 130.979 169.354 131.29 169.186C131.6 169.013 131.955 168.927 132.355 168.927C132.761 168.927 133.12 169.013 133.43 169.186C133.747 169.354 133.991 169.601 134.165 169.93C134.344 170.258 134.433 170.652 134.433 171.112C134.433 171.452 134.394 171.781 134.317 172.097C134.245 172.408 134.138 172.745 133.994 173.109H133.135C133.26 172.745 133.352 172.411 133.412 172.106C133.472 171.802 133.502 171.482 133.502 171.148C133.502 170.67 133.4 170.3 133.197 170.037C132.994 169.769 132.714 169.634 132.355 169.634C131.997 169.634 131.716 169.769 131.513 170.037C131.316 170.3 131.218 170.67 131.218 171.148C131.218 171.476 131.248 171.796 131.307 172.106C131.367 172.417 131.463 172.751 131.594 173.109H130.725ZM139.742 173.208C139.324 173.208 138.96 173.121 138.649 172.948C138.339 172.775 138.1 172.533 137.933 172.223C137.772 171.912 137.691 171.554 137.691 171.148V166.392H138.605V171.193C138.605 171.599 138.709 171.918 138.918 172.151C139.127 172.378 139.399 172.491 139.733 172.491C140.062 172.491 140.33 172.381 140.539 172.16C140.748 171.933 140.853 171.647 140.853 171.3C140.853 171.091 140.829 170.912 140.781 170.763C140.733 170.614 140.662 170.44 140.566 170.243C140.465 170.022 140.387 169.825 140.333 169.652C140.286 169.479 140.268 169.267 140.28 169.016H141.193C141.187 169.219 141.208 169.398 141.256 169.554C141.304 169.703 141.375 169.873 141.471 170.064C141.578 170.285 141.659 170.488 141.713 170.673C141.766 170.858 141.793 171.085 141.793 171.354C141.793 171.688 141.71 171.996 141.542 172.276C141.381 172.557 141.145 172.784 140.835 172.957C140.524 173.124 140.16 173.208 139.742 173.208ZM145.115 169.016C145.109 169.207 145.156 169.372 145.258 169.509C145.365 169.64 145.527 169.801 145.742 169.993C145.927 170.154 146.076 170.297 146.189 170.422C146.309 170.542 146.407 170.697 146.485 170.888C146.568 171.073 146.61 171.294 146.61 171.551C146.61 171.885 146.524 172.178 146.351 172.429C146.177 172.673 145.942 172.865 145.643 173.002C145.344 173.133 145.016 173.199 144.658 173.199C144.294 173.199 143.962 173.133 143.664 173.002C143.371 172.871 143.138 172.679 142.965 172.429C142.798 172.178 142.714 171.882 142.714 171.542C142.714 171.387 142.735 171.246 142.777 171.121L143.673 171.157C143.655 171.246 143.646 171.348 143.646 171.461C143.646 171.778 143.738 172.029 143.923 172.214C144.108 172.399 144.353 172.491 144.658 172.491C144.962 172.491 145.21 172.405 145.401 172.232C145.592 172.058 145.688 171.823 145.688 171.524C145.688 171.291 145.628 171.1 145.509 170.951C145.395 170.796 145.219 170.622 144.98 170.431C144.795 170.276 144.649 170.142 144.541 170.028C144.434 169.915 144.344 169.775 144.273 169.607C144.207 169.44 144.18 169.243 144.192 169.016H145.115ZM149.653 173.199C149.229 173.199 148.859 173.109 148.542 172.93C148.226 172.751 147.984 172.5 147.817 172.178C147.649 171.855 147.566 171.488 147.566 171.076V166.392H148.479L148.47 168.972C148.47 169.228 148.45 169.461 148.408 169.67H148.47C148.602 169.437 148.787 169.258 149.026 169.133C149.265 169.001 149.536 168.933 149.841 168.927L150.423 167.852L151.148 168.076L150.486 169.034C150.868 169.166 151.169 169.413 151.39 169.778C151.617 170.142 151.731 170.575 151.731 171.076C151.731 171.488 151.647 171.855 151.48 172.178C151.313 172.5 151.071 172.751 150.754 172.93C150.444 173.109 150.077 173.199 149.653 173.199ZM148.479 171.184C148.479 171.572 148.587 171.885 148.802 172.124C149.017 172.363 149.297 172.482 149.644 172.482C149.984 172.482 150.259 172.357 150.468 172.106C150.683 171.85 150.79 171.503 150.79 171.067C150.79 170.62 150.686 170.27 150.477 170.019C150.274 169.769 149.996 169.643 149.644 169.643C149.297 169.643 149.017 169.76 148.802 169.993C148.587 170.219 148.479 170.539 148.479 170.951V171.184ZM154.58 175.895C154.144 175.895 153.771 175.805 153.46 175.626C153.156 175.447 152.923 175.199 152.762 174.883C152.606 174.572 152.529 174.217 152.529 173.817C152.529 173.53 152.571 173.253 152.654 172.984L153.568 173.02C153.502 173.253 153.469 173.497 153.469 173.754C153.469 174.214 153.565 174.566 153.756 174.811C153.953 175.056 154.231 175.178 154.589 175.178C154.941 175.178 155.213 175.056 155.404 174.811C155.595 174.566 155.69 174.22 155.69 173.772V170.915C155.69 170.467 155.595 170.145 155.404 169.948C155.219 169.745 154.974 169.643 154.669 169.643C154.377 169.643 154.141 169.739 153.962 169.93C153.789 170.121 153.702 170.408 153.702 170.79C153.702 170.915 153.72 171.085 153.756 171.3L152.815 171.327C152.774 171.136 152.753 170.939 152.753 170.736C152.753 170.366 152.833 170.046 152.995 169.778C153.162 169.503 153.389 169.294 153.675 169.151C153.962 169.001 154.287 168.927 154.651 168.927C155.237 168.927 155.705 169.1 156.058 169.446C156.416 169.793 156.595 170.276 156.595 170.897V173.781C156.595 174.42 156.422 174.931 156.076 175.313C155.729 175.701 155.231 175.895 154.58 175.895ZM163.726 175.832C163.666 175.432 163.442 175.136 163.054 174.945C162.666 174.76 162.173 174.662 161.576 174.65L161.182 174.641C160.788 174.629 160.4 174.665 160.018 174.748C159.636 174.832 159.298 174.942 159.006 175.08L158.728 174.462C158.937 174.372 159.143 174.301 159.346 174.247C159.549 174.193 159.794 174.157 160.081 174.139V174.086C159.603 174.026 159.188 173.871 158.836 173.62C158.483 173.369 158.212 173.047 158.021 172.653C157.83 172.259 157.734 171.826 157.734 171.354C157.734 170.805 157.812 170.348 157.967 169.984C158.128 169.619 158.343 169.354 158.612 169.186C158.88 169.013 159.179 168.927 159.507 168.927C159.83 168.927 160.119 169.01 160.376 169.178C160.633 169.339 160.815 169.601 160.922 169.966H160.985C161.075 169.601 161.245 169.339 161.496 169.178C161.752 169.01 162.033 168.927 162.338 168.927C162.648 168.927 162.938 169.01 163.206 169.178C163.475 169.339 163.654 169.601 163.744 169.966H163.806C163.902 169.601 164.075 169.339 164.326 169.178C164.583 169.01 164.875 168.927 165.204 168.927C165.723 168.927 166.141 169.109 166.457 169.473C166.774 169.831 166.932 170.351 166.932 171.032C166.932 171.336 166.908 171.635 166.861 171.927C166.813 172.22 166.741 172.533 166.646 172.868L165.732 172.823C165.905 172.297 165.992 171.709 165.992 171.058C165.992 170.605 165.908 170.258 165.741 170.019C165.574 169.781 165.341 169.661 165.042 169.661C164.768 169.661 164.55 169.757 164.389 169.948C164.227 170.133 164.147 170.425 164.147 170.826V172.097H163.251V170.826C163.251 170.425 163.162 170.133 162.982 169.948C162.809 169.757 162.594 169.661 162.338 169.661C162.075 169.661 161.854 169.757 161.675 169.948C161.502 170.133 161.415 170.425 161.415 170.826V172.097H160.519V170.826C160.519 170.425 160.439 170.133 160.278 169.948C160.116 169.757 159.907 169.661 159.651 169.661C159.358 169.661 159.119 169.79 158.934 170.046C158.755 170.303 158.665 170.739 158.665 171.354C158.665 172.1 158.892 172.682 159.346 173.1C159.806 173.512 160.445 173.754 161.263 173.826L162.006 173.889C163.648 174.044 164.523 174.68 164.63 175.796L163.726 175.832ZM168.326 173.109C168.189 172.751 168.081 172.414 168.004 172.097C167.932 171.781 167.896 171.452 167.896 171.112C167.896 170.652 167.983 170.258 168.156 169.93C168.335 169.601 168.58 169.354 168.89 169.186C169.201 169.013 169.556 168.927 169.956 168.927C170.362 168.927 170.721 169.013 171.031 169.186C171.348 169.354 171.592 169.601 171.765 169.93C171.945 170.258 172.034 170.652 172.034 171.112C172.034 171.452 171.995 171.781 171.918 172.097C171.846 172.408 171.739 172.745 171.595 173.109H170.735C170.861 172.745 170.953 172.411 171.013 172.106C171.073 171.802 171.103 171.482 171.103 171.148C171.103 170.67 171.001 170.3 170.798 170.037C170.595 169.769 170.315 169.634 169.956 169.634C169.598 169.634 169.317 169.769 169.114 170.037C168.917 170.3 168.819 170.67 168.819 171.148C168.819 171.476 168.849 171.796 168.908 172.106C168.968 172.417 169.064 172.751 169.195 173.109H168.326Z" fill="#344054"/>
<rect x="80.8141" y="182.08" width="212.713" height="3.73182" rx="1.86591" fill="#D9D9D9"/>
<rect x="80.8141" y="182.08" width="191.069" height="3.73182" rx="1.86591" fill="#8C64F0"/>
<path d="M82.874 190.14C83.3915 190.14 83.7896 190.28 84.0682 190.558C84.3518 190.832 84.4937 191.215 84.4937 191.708C84.4937 192.136 84.4041 192.511 84.225 192.835C84.0458 193.158 83.7771 193.504 83.4189 193.872L82.2172 195.111H84.5534V195.798H81.2246V195.201L82.8293 193.492C83.1577 193.143 83.3866 192.847 83.5159 192.603C83.6503 192.36 83.7174 192.073 83.7174 191.745C83.7174 191.466 83.6453 191.245 83.501 191.081C83.3567 190.917 83.1527 190.835 82.889 190.835C82.5904 190.835 82.3665 190.927 82.2172 191.111C82.068 191.29 81.9884 191.546 81.9784 191.879L81.2097 191.842C81.2196 191.31 81.3689 190.894 81.6575 190.596C81.9461 190.292 82.3516 190.14 82.874 190.14ZM85.6215 194.902C85.7608 194.902 85.8777 194.949 85.9723 195.044C86.0668 195.139 86.1141 195.253 86.1141 195.387C86.1141 195.527 86.0668 195.644 85.9723 195.738C85.8777 195.828 85.7608 195.872 85.6215 195.872C85.4921 195.872 85.3802 195.825 85.2856 195.731C85.1911 195.636 85.1438 195.522 85.1438 195.387C85.1438 195.253 85.1911 195.139 85.2856 195.044C85.3802 194.949 85.4921 194.902 85.6215 194.902ZM87.8144 191.2L86.8591 191.939L86.5083 191.335L88.0085 190.2H88.5832V195.798H87.8144V191.2ZM91.4117 192.35C91.7352 192.35 92.0238 192.419 92.2775 192.559C92.5313 192.693 92.7303 192.892 92.8746 193.156C93.0189 193.414 93.0911 193.723 93.0911 194.081C93.0911 194.434 93.0189 194.748 92.8746 195.022C92.7353 195.29 92.5313 195.499 92.2626 195.649C91.9939 195.798 91.6779 195.872 91.3147 195.872C90.7823 195.872 90.3643 195.731 90.0608 195.447C89.7573 195.163 89.5906 194.773 89.5608 194.275L90.3295 194.23C90.3594 194.529 90.4564 194.763 90.6206 194.932C90.7898 195.096 91.0211 195.178 91.3147 195.178C91.6332 195.178 91.8795 195.079 92.0536 194.88C92.2278 194.681 92.3148 194.42 92.3148 194.096C92.3148 193.773 92.2253 193.516 92.0462 193.327C91.872 193.133 91.6357 193.036 91.3371 193.036C91.0187 193.036 90.7301 193.138 90.4713 193.342H89.7548V190.2H92.8746V190.887H90.5236V192.603C90.7873 192.434 91.0833 192.35 91.4117 192.35ZM98.3718 191.909C98.8046 191.909 99.1505 192.049 99.4092 192.327C99.6729 192.606 99.8048 192.977 99.8048 193.439V195.798H99.0733V193.589C99.0733 193.28 98.9962 193.039 98.842 192.865C98.6927 192.686 98.4837 192.596 98.215 192.596C97.9364 192.596 97.7125 192.69 97.5433 192.88C97.3791 193.069 97.297 193.305 97.297 193.589V195.798H96.5656V193.589C96.5656 193.28 96.4884 193.039 96.3342 192.865C96.1799 192.686 95.971 192.596 95.7072 192.596C95.4286 192.596 95.2047 192.69 95.0355 192.88C94.8713 193.069 94.7892 193.305 94.7892 193.589V195.798H94.0578V191.984H94.7519V192.506C94.8415 192.337 94.9808 192.195 95.1699 192.081C95.3589 191.967 95.5903 191.909 95.864 191.909C96.1476 191.909 96.3964 191.974 96.6103 192.103C96.8293 192.228 96.9984 192.404 97.1179 192.633C97.2323 192.414 97.3965 192.24 97.6105 192.111C97.8294 191.976 98.0832 191.909 98.3718 191.909ZM101.757 192.514C101.867 192.335 102.031 192.19 102.25 192.081C102.474 191.967 102.732 191.909 103.026 191.909C103.379 191.909 103.695 191.991 103.974 192.156C104.253 192.315 104.471 192.546 104.631 192.85C104.79 193.148 104.87 193.497 104.87 193.895C104.87 194.293 104.79 194.641 104.631 194.94C104.471 195.238 104.253 195.469 103.974 195.634C103.695 195.793 103.379 195.872 103.026 195.872C102.723 195.872 102.456 195.813 102.227 195.693C102.004 195.574 101.834 195.42 101.72 195.231V195.798H101.026V189.999H101.757V192.514ZM101.757 193.999C101.757 194.392 101.864 194.698 102.078 194.917C102.292 195.131 102.573 195.238 102.922 195.238C103.275 195.238 103.563 195.121 103.787 194.887C104.016 194.648 104.131 194.318 104.131 193.895C104.131 193.472 104.016 193.143 103.787 192.909C103.563 192.671 103.275 192.551 102.922 192.551C102.573 192.551 102.292 192.658 102.078 192.872C101.864 193.086 101.757 193.39 101.757 193.783V193.999Z" fill="#344054" fill-opacity="0.6"/>
<path d="M280.124 190.14C280.483 190.14 280.806 190.215 281.095 190.364C281.383 190.514 281.61 190.728 281.774 191.006C281.938 191.28 282.02 191.598 282.02 191.962C282.02 192.389 281.891 192.78 281.632 193.133L279.662 195.798H278.743L280.274 193.738C280.174 193.758 280.057 193.768 279.923 193.768C279.599 193.743 279.311 193.653 279.057 193.499C278.803 193.345 278.604 193.136 278.46 192.872C278.316 192.603 278.243 192.3 278.243 191.962C278.243 191.598 278.323 191.28 278.482 191.006C278.646 190.728 278.87 190.514 279.154 190.364C279.443 190.215 279.766 190.14 280.124 190.14ZM279.027 191.991C279.027 192.345 279.129 192.626 279.333 192.835C279.537 193.039 279.803 193.141 280.132 193.141C280.51 193.141 280.803 193.009 281.012 192.745C281.162 192.551 281.236 192.3 281.236 191.991C281.236 191.638 281.134 191.357 280.93 191.148C280.726 190.939 280.46 190.835 280.132 190.835C279.803 190.835 279.537 190.939 279.333 191.148C279.129 191.357 279.027 191.638 279.027 191.991ZM284.772 190.14C285.18 190.14 285.536 190.252 285.839 190.476C286.148 190.695 286.384 191.021 286.548 191.454C286.718 191.882 286.802 192.399 286.802 193.006C286.802 193.609 286.718 194.126 286.548 194.559C286.384 194.987 286.148 195.313 285.839 195.537C285.536 195.761 285.18 195.872 284.772 195.872C284.364 195.872 284.006 195.761 283.697 195.537C283.394 195.313 283.157 194.987 282.988 194.559C282.824 194.131 282.742 193.613 282.742 193.006C282.742 192.399 282.824 191.882 282.988 191.454C283.157 191.021 283.394 190.695 283.697 190.476C284.006 190.252 284.364 190.14 284.772 190.14ZM283.533 193.006C283.533 193.718 283.638 194.258 283.847 194.626C284.056 194.994 284.362 195.178 284.765 195.178C285.178 195.178 285.489 194.994 285.698 194.626C285.911 194.258 286.018 193.718 286.018 193.006C286.018 192.295 285.911 191.755 285.698 191.387C285.489 191.019 285.178 190.835 284.765 190.835C284.362 190.835 284.056 191.019 283.847 191.387C283.638 191.755 283.533 192.295 283.533 193.006ZM288.702 190.14C289.065 190.14 289.361 190.262 289.59 190.506C289.819 190.75 289.933 191.076 289.933 191.484C289.933 191.892 289.819 192.218 289.59 192.462C289.361 192.705 289.065 192.827 288.702 192.827C288.468 192.827 288.256 192.773 288.067 192.663C287.878 192.554 287.729 192.397 287.619 192.193C287.515 191.989 287.463 191.753 287.463 191.484C287.463 191.215 287.515 190.979 287.619 190.775C287.729 190.571 287.876 190.414 288.06 190.305C288.249 190.195 288.463 190.14 288.702 190.14ZM288 191.484C288 191.738 288.065 191.939 288.194 192.088C288.328 192.238 288.498 192.312 288.702 192.312C288.906 192.312 289.072 192.24 289.202 192.096C289.331 191.947 289.396 191.743 289.396 191.484C289.396 191.23 289.331 191.031 289.202 190.887C289.072 190.738 288.906 190.663 288.702 190.663C288.493 190.663 288.323 190.738 288.194 190.887C288.065 191.031 288 191.23 288 191.484ZM291.948 190.215H292.657L288.769 195.798H288.052L291.948 190.215ZM290.776 194.522C290.776 194.114 290.891 193.79 291.12 193.551C291.354 193.307 291.652 193.186 292.015 193.186C292.379 193.186 292.675 193.307 292.904 193.551C293.132 193.79 293.247 194.114 293.247 194.522C293.247 194.79 293.192 195.027 293.083 195.231C292.978 195.435 292.831 195.594 292.642 195.708C292.458 195.818 292.249 195.872 292.015 195.872C291.782 195.872 291.57 195.818 291.381 195.708C291.192 195.594 291.043 195.435 290.933 195.231C290.829 195.027 290.776 194.79 290.776 194.522ZM291.314 194.522C291.314 194.775 291.378 194.977 291.508 195.126C291.642 195.275 291.811 195.35 292.015 195.35C292.219 195.35 292.384 195.278 292.508 195.134C292.637 194.984 292.702 194.78 292.702 194.522C292.702 194.263 292.637 194.061 292.508 193.917C292.384 193.773 292.219 193.701 292.015 193.701C291.806 193.701 291.637 193.773 291.508 193.917C291.378 194.061 291.314 194.263 291.314 194.522Z" fill="#344054"/>
</g>
<g filter="url(#filter2_d_956_40413)">
<rect x="271.883" y="4.1709" width="57.5789" height="57.5789" rx="28.7894" fill="#8C64F0" shape-rendering="crispEdges"/>
<path d="M288.037 31.5561H292.249C292.994 31.5561 293.708 31.852 294.235 32.3786C294.761 32.9052 295.057 33.6194 295.057 34.3641V38.576C295.057 39.3207 294.761 40.0349 294.235 40.5615C293.708 41.0881 292.994 41.3839 292.249 41.3839H290.845C290.1 41.3839 289.386 41.0881 288.86 40.5615C288.333 40.0349 288.037 39.3207 288.037 38.576V31.5561ZM288.037 31.5561C288.037 29.8968 288.364 28.2537 288.999 26.7207C289.634 25.1876 290.565 23.7947 291.738 22.6213C292.911 21.448 294.304 20.5173 295.837 19.8822C297.37 19.2472 299.013 18.9204 300.673 18.9204C302.332 18.9204 303.975 19.2472 305.508 19.8822C307.041 20.5173 308.434 21.448 309.608 22.6213C310.781 23.7947 311.712 25.1876 312.347 26.7207C312.982 28.2537 313.309 29.8968 313.309 31.5561M313.309 31.5561V38.576C313.309 39.3207 313.013 40.0349 312.486 40.5615C311.96 41.0881 311.245 41.3839 310.501 41.3839H309.097C308.352 41.3839 307.638 41.0881 307.111 40.5615C306.585 40.0349 306.289 39.3207 306.289 38.576V34.3641C306.289 33.6194 306.585 32.9052 307.111 32.3786C307.638 31.852 308.352 31.5561 309.097 31.5561H313.309Z" stroke="white" stroke-width="2.80794" stroke-linecap="round" stroke-linejoin="round"/>
<path d="M313.309 38.5767V41.3846C313.309 42.874 312.717 44.3024 311.664 45.3556C310.611 46.4088 309.182 47.0005 307.693 47.0005H300.673" stroke="white" stroke-width="2.80794" stroke-linecap="round" stroke-linejoin="round"/>
</g>
<defs>
<filter id="filter0_dd_956_40413" x="22.2251" y="17.9786" width="297.053" height="153.751" filterUnits="userSpaceOnUse" color-interpolation-filters="sRGB">
<feFlood flood-opacity="0" result="BackgroundImageFix"/>
<feColorMatrix in="SourceAlpha" type="matrix" values="0 0 0 0 0 0 0 0 0 0 0 0 0 0 0 0 0 0 127 0" result="hardAlpha"/>
<feMorphology radius="2.98545" operator="erode" in="SourceAlpha" result="effect1_dropShadow_956_40413"/>
<feOffset dy="6.71727"/>
<feGaussianBlur stdDeviation="4.70209"/>
<feComposite in2="hardAlpha" operator="out"/>
<feColorMatrix type="matrix" values="0 0 0 0 0.0627451 0 0 0 0 0.0941176 0 0 0 0 0.156863 0 0 0 0.03 0"/>
<feBlend mode="normal" in2="BackgroundImageFix" result="effect1_dropShadow_956_40413"/>
<feColorMatrix in="SourceAlpha" type="matrix" values="0 0 0 0 0 0 0 0 0 0 0 0 0 0 0 0 0 0 127 0" result="hardAlpha"/>
<feMorphology radius="2.98545" operator="erode" in="SourceAlpha" result="effect2_dropShadow_956_40413"/>
<feOffset dy="0.746363"/>
<feGaussianBlur stdDeviation="9.88931"/>
<feComposite in2="hardAlpha" operator="out"/>
<feColorMatrix type="matrix" values="0 0 0 0 0.0627451 0 0 0 0 0.0941176 0 0 0 0 0.156863 0 0 0 0.04 0"/>
<feBlend mode="normal" in2="effect1_dropShadow_956_40413" result="effect2_dropShadow_956_40413"/>
<feBlend mode="normal" in="SourceGraphic" in2="effect2_dropShadow_956_40413" result="shape"/>
</filter>
<filter id="filter1_dd_956_40413" x="22.2251" y="143.367" width="297.053" height="77.622" filterUnits="userSpaceOnUse" color-interpolation-filters="sRGB">
<feFlood flood-opacity="0" result="BackgroundImageFix"/>
<feColorMatrix in="SourceAlpha" type="matrix" values="0 0 0 0 0 0 0 0 0 0 0 0 0 0 0 0 0 0 127 0" result="hardAlpha"/>
<feMorphology radius="2.98545" operator="erode" in="SourceAlpha" result="effect1_dropShadow_956_40413"/>
<feOffset dy="6.71727"/>
<feGaussianBlur stdDeviation="4.70209"/>
<feComposite in2="hardAlpha" operator="out"/>
<feColorMatrix type="matrix" values="0 0 0 0 0.0627451 0 0 0 0 0.0941176 0 0 0 0 0.156863 0 0 0 0.03 0"/>
<feBlend mode="normal" in2="BackgroundImageFix" result="effect1_dropShadow_956_40413"/>
<feColorMatrix in="SourceAlpha" type="matrix" values="0 0 0 0 0 0 0 0 0 0 0 0 0 0 0 0 0 0 127 0" result="hardAlpha"/>
<feMorphology radius="2.98545" operator="erode" in="SourceAlpha" result="effect2_dropShadow_956_40413"/>
<feOffset dy="0.746363"/>
<feGaussianBlur stdDeviation="9.88931"/>
<feComposite in2="hardAlpha" operator="out"/>
<feColorMatrix type="matrix" values="0 0 0 0 0.0627451 0 0 0 0 0.0941176 0 0 0 0 0.156863 0 0 0 0.04 0"/>
<feBlend mode="normal" in2="effect1_dropShadow_956_40413" result="effect2_dropShadow_956_40413"/>
<feBlend mode="normal" in="SourceGraphic" in2="effect2_dropShadow_956_40413" result="shape"/>
</filter>
<filter id="filter2_d_956_40413" x="263.088" y="0.652906" width="71.6508" height="71.6511" filterUnits="userSpaceOnUse" color-interpolation-filters="sRGB">
<feFlood flood-opacity="0" result="BackgroundImageFix"/>
<feColorMatrix in="SourceAlpha" type="matrix" values="0 0 0 0 0 0 0 0 0 0 0 0 0 0 0 0 0 0 127 0" result="hardAlpha"/>
<feOffset dx="-1.759" dy="3.51799"/>
<feGaussianBlur stdDeviation="3.51799"/>
<feComposite in2="hardAlpha" operator="out"/>
<feColorMatrix type="matrix" values="0 0 0 0 0.301961 0 0 0 0 0.407843 0 0 0 0 0.529412 0 0 0 0.12 0"/>
<feBlend mode="normal" in2="BackgroundImageFix" result="effect1_dropShadow_956_40413"/>
<feBlend mode="normal" in="SourceGraphic" in2="effect1_dropShadow_956_40413" result="shape"/>
</filter>
<clipPath id="clip0_956_40413">
<rect x="39.0183" y="34.0254" width="263.466" height="120.164" rx="8.95636" fill="white"/>
</clipPath>
</defs>
</svg>
