<svg width="369" height="224" viewBox="0 0 369 224" fill="none" xmlns="http://www.w3.org/2000/svg">
<g filter="url(#filter0_dd_956_40575)">
<path d="M43.8442 43.8364C43.8442 39.056 47.7195 35.1807 52.5 35.1807H260.959C265.739 35.1807 269.615 39.056 269.615 43.8364V184.492C269.615 189.273 265.739 193.148 260.959 193.148H52.5C47.7195 193.148 43.8442 189.273 43.8442 184.492V43.8364Z" fill="white" shape-rendering="crispEdges"/>
<path d="M52.5 35.4307H260.959C265.601 35.4307 269.365 39.194 269.365 43.8364V184.492C269.365 189.135 265.601 192.898 260.959 192.898H52.5C47.8576 192.898 44.0942 189.134 44.0942 184.492V43.8364C44.0942 39.194 47.8576 35.4307 52.5 35.4307Z" stroke="black" stroke-opacity="0.2" stroke-width="0.5" shape-rendering="crispEdges"/>
<g clip-path="url(#clip0_956_40575)">
<path d="M88.3749 66.7709C88.6158 66.1917 89.4364 66.1917 89.6773 66.7709L92.5915 73.7775C92.693 74.0217 92.9227 74.1885 93.1863 74.2097L100.75 74.8161C101.376 74.8662 101.629 75.6466 101.153 76.0547L95.3898 80.9914C95.189 81.1635 95.1012 81.4334 95.1626 81.6907L96.9233 89.0721C97.0689 89.6823 96.4051 90.1646 95.8697 89.8376L89.3937 85.882C89.168 85.7442 88.8842 85.7442 88.6585 85.882L82.1825 89.8376C81.6471 90.1646 80.9833 89.6823 81.1288 89.0721L82.8896 81.6907C82.9509 81.4334 82.8632 81.1635 82.6624 80.9914L76.8992 76.0547C76.4228 75.6466 76.6764 74.8662 77.3017 74.8161L84.8659 74.2097C85.1295 74.1885 85.3591 74.0217 85.4607 73.7775L88.3749 66.7709Z" fill="#F2F4F7"/>
<g clip-path="url(#clip1_956_40575)">
<path d="M88.3749 66.7709C88.6158 66.1917 89.4364 66.1917 89.6773 66.7709L92.5915 73.7775C92.693 74.0217 92.9227 74.1885 93.1863 74.2097L100.75 74.8161C101.376 74.8662 101.629 75.6466 101.153 76.0547L95.3898 80.9914C95.189 81.1635 95.1012 81.4334 95.1626 81.6907L96.9233 89.0721C97.0689 89.6823 96.4051 90.1646 95.8697 89.8376L89.3937 85.882C89.168 85.7442 88.8842 85.7442 88.6585 85.882L82.1825 89.8376C81.6471 90.1646 80.9833 89.6823 81.1288 89.0721L82.8896 81.6907C82.9509 81.4334 82.8632 81.1635 82.6624 80.9914L76.8992 76.0547C76.4228 75.6466 76.6764 74.8662 77.3017 74.8161L84.8659 74.2097C85.1295 74.1885 85.3591 74.0217 85.4607 73.7775L88.3749 66.7709Z" fill="#FDB022"/>
</g>
</g>
<g clip-path="url(#clip2_956_40575)">
<path d="M122.227 66.7709C122.468 66.1917 123.288 66.1917 123.529 66.7709L126.443 73.7775C126.545 74.0217 126.774 74.1885 127.038 74.2097L134.602 74.8161C135.228 74.8662 135.481 75.6466 135.005 76.0547L129.242 80.9914C129.041 81.1635 128.953 81.4334 129.014 81.6907L130.775 89.0721C130.921 89.6823 130.257 90.1646 129.722 89.8376L123.246 85.882C123.02 85.7442 122.736 85.7442 122.51 85.882L116.034 89.8376C115.499 90.1646 114.835 89.6823 114.981 89.0721L116.741 81.6907C116.803 81.4334 116.715 81.1635 116.514 80.9914L110.751 76.0547C110.275 75.6466 110.528 74.8662 111.153 74.8161L118.718 74.2097C118.981 74.1885 119.211 74.0217 119.313 73.7775L122.227 66.7709Z" fill="#F2F4F7"/>
<g clip-path="url(#clip3_956_40575)">
<path d="M122.227 66.7709C122.468 66.1917 123.288 66.1917 123.529 66.7709L126.443 73.7775C126.545 74.0217 126.774 74.1885 127.038 74.2097L134.602 74.8161C135.228 74.8662 135.481 75.6466 135.005 76.0547L129.242 80.9914C129.041 81.1635 128.953 81.4334 129.014 81.6907L130.775 89.0721C130.921 89.6823 130.257 90.1646 129.722 89.8376L123.246 85.882C123.02 85.7442 122.736 85.7442 122.51 85.882L116.034 89.8376C115.499 90.1646 114.835 89.6823 114.981 89.0721L116.741 81.6907C116.803 81.4334 116.715 81.1635 116.514 80.9914L110.751 76.0547C110.275 75.6466 110.528 74.8662 111.153 74.8161L118.718 74.2097C118.981 74.1885 119.211 74.0217 119.313 73.7775L122.227 66.7709Z" fill="#FDB022"/>
</g>
</g>
<g clip-path="url(#clip4_956_40575)">
<path d="M156.079 66.7709C156.32 66.1917 157.14 66.1917 157.381 66.7709L160.295 73.7775C160.397 74.0217 160.626 74.1885 160.89 74.2097L168.454 74.8161C169.08 74.8662 169.333 75.6466 168.857 76.0547L163.094 80.9914C162.893 81.1635 162.805 81.4334 162.866 81.6907L164.627 89.0721C164.773 89.6823 164.109 90.1646 163.573 89.8376L157.097 85.882C156.872 85.7442 156.588 85.7442 156.362 85.882L149.886 89.8376C149.351 90.1646 148.687 89.6823 148.833 89.0721L150.593 81.6907C150.655 81.4334 150.567 81.1635 150.366 80.9914L144.603 76.0547C144.127 75.6466 144.38 74.8662 145.005 74.8161L152.57 74.2097C152.833 74.1885 153.063 74.0217 153.164 73.7775L156.079 66.7709Z" fill="#F2F4F7"/>
<g clip-path="url(#clip5_956_40575)">
<path d="M156.079 66.7709C156.32 66.1917 157.14 66.1917 157.381 66.7709L160.295 73.7775C160.397 74.0217 160.626 74.1885 160.89 74.2097L168.454 74.8161C169.08 74.8662 169.333 75.6466 168.857 76.0547L163.094 80.9914C162.893 81.1635 162.805 81.4334 162.866 81.6907L164.627 89.0721C164.773 89.6823 164.109 90.1646 163.573 89.8376L157.097 85.882C156.872 85.7442 156.588 85.7442 156.362 85.882L149.886 89.8376C149.351 90.1646 148.687 89.6823 148.833 89.0721L150.593 81.6907C150.655 81.4334 150.567 81.1635 150.366 80.9914L144.603 76.0547C144.127 75.6466 144.38 74.8662 145.005 74.8161L152.57 74.2097C152.833 74.1885 153.063 74.0217 153.164 73.7775L156.079 66.7709Z" fill="#FDB022"/>
</g>
</g>
<g clip-path="url(#clip6_956_40575)">
<path d="M189.93 66.7709C190.171 66.1917 190.992 66.1917 191.233 66.7709L194.147 73.7775C194.249 74.0217 194.478 74.1885 194.742 74.2097L202.306 74.8161C202.931 74.8662 203.185 75.6466 202.708 76.0547L196.945 80.9914C196.745 81.1635 196.657 81.4334 196.718 81.6907L198.479 89.0721C198.624 89.6823 197.961 90.1646 197.425 89.8376L190.949 85.882C190.724 85.7442 190.44 85.7442 190.214 85.882L183.738 89.8376C183.203 90.1646 182.539 89.6823 182.684 89.0721L184.445 81.6907C184.506 81.4334 184.419 81.1635 184.218 80.9914L178.455 76.0547C177.978 75.6466 178.232 74.8662 178.857 74.8161L186.421 74.2097C186.685 74.1885 186.915 74.0217 187.016 73.7775L189.93 66.7709Z" fill="#F2F4F7"/>
<g clip-path="url(#clip7_956_40575)">
<path d="M189.93 66.7709C190.171 66.1917 190.992 66.1917 191.233 66.7709L194.147 73.7775C194.249 74.0217 194.478 74.1885 194.742 74.2097L202.306 74.8161C202.931 74.8662 203.185 75.6466 202.708 76.0547L196.945 80.9914C196.745 81.1635 196.657 81.4334 196.718 81.6907L198.479 89.0721C198.624 89.6823 197.961 90.1646 197.425 89.8376L190.949 85.882C190.724 85.7442 190.44 85.7442 190.214 85.882L183.738 89.8376C183.203 90.1646 182.539 89.6823 182.684 89.0721L184.445 81.6907C184.506 81.4334 184.419 81.1635 184.218 80.9914L178.455 76.0547C177.978 75.6466 178.232 74.8662 178.857 74.8161L186.421 74.2097C186.685 74.1885 186.915 74.0217 187.016 73.7775L189.93 66.7709Z" fill="#FDB022"/>
</g>
</g>
<g clip-path="url(#clip8_956_40575)">
<path d="M223.782 66.7709C224.023 66.1917 224.844 66.1917 225.085 66.7709L227.999 73.7775C228.101 74.0217 228.33 74.1885 228.594 74.2097L236.158 74.8161C236.783 74.8662 237.037 75.6466 236.56 76.0547L230.797 80.9914C230.596 81.1635 230.509 81.4334 230.57 81.6907L232.331 89.0721C232.476 89.6823 231.813 90.1646 231.277 89.8376L224.801 85.882C224.575 85.7442 224.292 85.7442 224.066 85.882L217.59 89.8376C217.055 90.1646 216.391 89.6823 216.536 89.0721L218.297 81.6907C218.358 81.4334 218.271 81.1635 218.07 80.9914L212.307 76.0547C211.83 75.6466 212.084 74.8662 212.709 74.8161L220.273 74.2097C220.537 74.1885 220.767 74.0217 220.868 73.7775L223.782 66.7709Z" fill="#F2F4F7"/>
<g clip-path="url(#clip9_956_40575)">
<path d="M223.782 66.7709C224.023 66.1917 224.844 66.1917 225.085 66.7709L227.999 73.7775C228.101 74.0217 228.33 74.1885 228.594 74.2097L236.158 74.8161C236.783 74.8662 237.037 75.6466 236.56 76.0547L230.797 80.9914C230.596 81.1635 230.509 81.4334 230.57 81.6907L232.331 89.0721C232.476 89.6823 231.813 90.1646 231.277 89.8376L224.801 85.882C224.575 85.7442 224.292 85.7442 224.066 85.882L217.59 89.8376C217.055 90.1646 216.391 89.6823 216.536 89.0721L218.297 81.6907C218.358 81.4334 218.271 81.1635 218.07 80.9914L212.307 76.0547C211.83 75.6466 212.084 74.8662 212.709 74.8161L220.273 74.2097C220.537 74.1885 220.767 74.0217 220.868 73.7775L223.782 66.7709Z" fill="#F3F4F5"/>
</g>
</g>
<g filter="url(#filter1_d_956_40575)">
<path d="M68.3694 122.459C68.3694 119.272 70.9529 116.688 74.1399 116.688H239.32C242.507 116.688 245.091 119.272 245.091 122.459V164.295C245.091 167.482 242.507 170.066 239.32 170.066H74.1399C70.9529 170.066 68.3694 167.482 68.3694 164.295V122.459Z" fill="white"/>
<path d="M74.1399 117.049H239.32C242.308 117.049 244.73 119.471 244.73 122.459V164.295C244.73 167.283 242.308 169.705 239.32 169.705H74.1399C71.1521 169.705 68.73 167.283 68.73 164.295V122.459C68.73 119.471 71.1521 117.049 74.1399 117.049Z" stroke="#D0D5DD" stroke-width="0.721312"/>
<path d="M81.203 132.709C80.7991 132.709 80.4442 132.623 80.1383 132.45C79.8383 132.277 79.6074 132.037 79.4459 131.731C79.2843 131.425 79.2035 131.079 79.2035 130.693C79.2035 130.306 79.2785 129.96 79.4286 129.654C79.5844 129.348 79.7979 129.109 80.0691 128.935C80.3461 128.762 80.6606 128.676 81.0126 128.676C81.3069 128.676 81.5694 128.739 81.8002 128.866C82.0368 128.993 82.2186 129.169 82.3455 129.394H82.4061C82.3715 129.169 82.3542 128.944 82.3542 128.719L82.3629 127.481C82.3629 127.239 82.2994 127.051 82.1724 126.919C82.0512 126.786 81.8926 126.72 81.6964 126.72C81.5002 126.72 81.3415 126.789 81.2203 126.927C81.0991 127.06 81.0385 127.233 81.0385 127.447V127.949H80.1816V127.447C80.1816 127.239 80.1268 127.069 80.0172 126.936C79.9133 126.803 79.7719 126.737 79.593 126.737C79.2987 126.737 79.0679 126.867 78.9006 127.126L78.3206 126.72C78.4591 126.5 78.6351 126.333 78.8486 126.218C79.0621 126.096 79.2987 126.036 79.5584 126.036C79.8065 126.036 80.0287 126.105 80.2249 126.244C80.4211 126.382 80.5567 126.581 80.6317 126.841H80.6923C80.7731 126.581 80.9202 126.382 81.1337 126.244C81.3472 126.105 81.5983 126.036 81.8868 126.036C82.2907 126.036 82.6139 126.163 82.8562 126.417C83.1044 126.665 83.2284 126.991 83.2284 127.395V130.701C83.2284 131.088 83.1448 131.434 82.9774 131.74C82.8158 132.04 82.5821 132.277 82.2763 132.45C81.9705 132.623 81.6127 132.709 81.203 132.709ZM80.1037 130.701C80.1037 131.099 80.2076 131.42 80.4153 131.662C80.6231 131.899 80.8885 132.017 81.2116 132.017C81.5463 132.017 81.8175 131.904 82.0253 131.679C82.233 131.454 82.3369 131.166 82.3369 130.814V130.589C82.3369 130.208 82.233 129.911 82.0253 129.697C81.8175 129.478 81.5463 129.368 81.2116 129.368C80.877 129.368 80.6086 129.489 80.4067 129.732C80.2047 129.968 80.1037 130.292 80.1037 130.701ZM86.0309 135.315C85.6097 135.315 85.249 135.228 84.949 135.055C84.6547 134.882 84.4296 134.642 84.2738 134.337C84.1238 134.037 84.0488 133.693 84.0488 133.307C84.0488 133.03 84.0892 132.761 84.1699 132.502L85.0528 132.536C84.9894 132.761 84.9576 132.998 84.9576 133.246C84.9576 133.69 85.0499 134.031 85.2346 134.267C85.425 134.504 85.6934 134.622 86.0396 134.622C86.38 134.622 86.6426 134.504 86.8273 134.267C87.0119 134.031 87.1042 133.696 87.1042 133.263V130.502C87.1042 130.069 87.0119 129.758 86.8273 129.567C86.6484 129.371 86.4118 129.273 86.1175 129.273C85.8347 129.273 85.6068 129.365 85.4337 129.55C85.2663 129.735 85.1827 130.012 85.1827 130.381C85.1827 130.502 85.2 130.667 85.2346 130.874L84.3257 130.9C84.2854 130.716 84.2652 130.525 84.2652 130.329C84.2652 129.971 84.3431 129.663 84.4989 129.403C84.6604 129.137 84.8797 128.935 85.1567 128.797C85.4337 128.653 85.7482 128.581 86.1002 128.581C86.6657 128.581 87.1187 128.748 87.4591 129.083C87.8054 129.417 87.9785 129.885 87.9785 130.485V133.272C87.9785 133.889 87.8111 134.383 87.4764 134.752C87.1417 135.127 86.6599 135.315 86.0309 135.315ZM92.9137 135.315C92.4117 135.315 91.9703 135.228 91.5894 135.055C91.2143 134.888 90.9229 134.657 90.7152 134.363C90.5132 134.068 90.4122 133.745 90.4122 133.393L91.3124 133.307C91.3124 133.711 91.4567 134.028 91.7452 134.259C92.0337 134.495 92.4203 134.614 92.9051 134.614C93.3725 134.614 93.736 134.495 93.9957 134.259C94.2611 134.022 94.3939 133.719 94.3939 133.35C94.3939 133.038 94.3188 132.787 94.1688 132.597C94.0188 132.401 93.8197 132.288 93.5716 132.259L93.3638 132.225L93.4417 131.515H93.6322C93.9553 131.515 94.2092 131.405 94.3939 131.186C94.5785 130.967 94.6708 130.701 94.6708 130.39C94.6708 130.043 94.5756 129.772 94.3852 129.576C94.1948 129.38 93.9495 129.282 93.6495 129.282C93.2802 129.282 92.9743 129.403 92.732 129.645C92.8589 129.899 92.9224 130.196 92.9224 130.537C92.9224 130.923 92.8387 131.27 92.6714 131.575C92.504 131.876 92.2732 132.109 91.9789 132.277C91.6846 132.444 91.3528 132.528 90.9835 132.528C90.6084 132.528 90.2737 132.444 89.9794 132.277C89.6851 132.109 89.4543 131.876 89.287 131.575C89.1196 131.27 89.036 130.923 89.036 130.537C89.036 130.15 89.1167 129.81 89.2783 129.515C89.4457 129.215 89.6736 128.985 89.9621 128.823C90.2564 128.661 90.5882 128.581 90.9575 128.581C91.2691 128.581 91.5519 128.638 91.8058 128.754C92.0597 128.863 92.2645 129.019 92.4203 129.221H92.4723C92.807 128.794 93.2686 128.581 93.8572 128.581C94.163 128.581 94.4458 128.653 94.7055 128.797C94.9709 128.935 95.1815 129.137 95.3373 129.403C95.4931 129.663 95.571 129.965 95.571 130.312C95.571 130.681 95.4556 131.016 95.2248 131.316C94.9998 131.61 94.6824 131.801 94.2727 131.887V131.939C94.5901 132.02 94.8411 132.19 95.0257 132.45C95.2104 132.709 95.3027 133.021 95.3027 133.385C95.3027 133.742 95.2075 134.065 95.0171 134.354C94.8266 134.648 94.5497 134.882 94.1861 135.055C93.8226 135.228 93.3984 135.315 92.9137 135.315ZM89.9188 130.537C89.9188 130.935 90.0141 131.255 90.2045 131.498C90.4007 131.734 90.6575 131.852 90.9748 131.852C91.2922 131.852 91.549 131.734 91.7452 131.498C91.9414 131.255 92.0395 130.932 92.0395 130.528C92.0395 130.13 91.9414 129.818 91.7452 129.593C91.5548 129.362 91.298 129.247 90.9748 129.247C90.6575 129.247 90.4007 129.362 90.2045 129.593C90.0141 129.824 89.9188 130.139 89.9188 130.537ZM98.6918 128.667C98.686 128.852 98.7322 129.01 98.8303 129.143C98.9341 129.27 99.0899 129.426 99.2977 129.611C99.4766 129.766 99.6208 129.905 99.7305 130.026C99.8459 130.141 99.9411 130.292 100.016 130.476C100.097 130.655 100.137 130.869 100.137 131.117C100.137 131.44 100.054 131.723 99.8863 131.965C99.7189 132.202 99.491 132.386 99.2025 132.519C98.9139 132.646 98.5966 132.709 98.2503 132.709C97.8983 132.709 97.5781 132.646 97.2895 132.519C97.0068 132.392 96.7817 132.207 96.6144 131.965C96.4528 131.723 96.372 131.437 96.372 131.108C96.372 130.958 96.3922 130.822 96.4326 130.701L97.2982 130.736C97.2809 130.822 97.2722 130.921 97.2722 131.03C97.2722 131.336 97.3617 131.578 97.5406 131.757C97.7194 131.936 97.956 132.026 98.2503 132.026C98.5446 132.026 98.7841 131.942 98.9688 131.775C99.1534 131.607 99.2457 131.379 99.2457 131.091C99.2457 130.866 99.188 130.681 99.0726 130.537C98.963 130.387 98.7928 130.219 98.5619 130.035C98.383 129.885 98.2417 129.755 98.1378 129.645C98.0339 129.536 97.9474 129.4 97.8781 129.238C97.8147 129.077 97.7887 128.886 97.8002 128.667H98.6918ZM103.043 132.718C102.639 132.718 102.287 132.634 101.987 132.467C101.687 132.3 101.456 132.066 101.295 131.766C101.139 131.466 101.061 131.12 101.061 130.727V126.131H101.944V130.77C101.944 131.163 102.045 131.472 102.247 131.697C102.449 131.916 102.711 132.026 103.034 132.026C103.352 132.026 103.611 131.919 103.813 131.705C104.015 131.486 104.116 131.209 104.116 130.874C104.116 130.672 104.093 130.499 104.047 130.355C104.001 130.211 103.932 130.043 103.839 129.853C103.741 129.639 103.666 129.449 103.614 129.282C103.568 129.114 103.551 128.909 103.562 128.667H104.445C104.439 128.863 104.46 129.036 104.506 129.186C104.552 129.331 104.621 129.495 104.714 129.68C104.817 129.893 104.895 130.09 104.947 130.268C104.999 130.447 105.025 130.667 105.025 130.926C105.025 131.249 104.944 131.547 104.783 131.818C104.627 132.089 104.399 132.308 104.099 132.476C103.799 132.637 103.447 132.718 103.043 132.718ZM107.772 135.315C107.35 135.315 106.99 135.228 106.69 135.055C106.395 134.882 106.17 134.642 106.015 134.337C105.865 134.037 105.79 133.693 105.79 133.307C105.79 133.03 105.83 132.761 105.911 132.502L106.794 132.536C106.73 132.761 106.698 132.998 106.698 133.246C106.698 133.69 106.791 134.031 106.975 134.267C107.166 134.504 107.434 134.622 107.78 134.622C108.121 134.622 108.383 134.504 108.568 134.267C108.753 134.031 108.845 133.696 108.845 133.263V130.502C108.845 130.069 108.753 129.758 108.568 129.567C108.389 129.371 108.153 129.273 107.858 129.273C107.576 129.273 107.348 129.365 107.174 129.55C107.007 129.735 106.923 130.012 106.923 130.381C106.923 130.502 106.941 130.667 106.975 130.874L106.067 130.9C106.026 130.716 106.006 130.525 106.006 130.329C106.006 129.971 106.084 129.663 106.24 129.403C106.401 129.137 106.62 128.935 106.897 128.797C107.174 128.653 107.489 128.581 107.841 128.581C108.406 128.581 108.859 128.748 109.2 129.083C109.546 129.417 109.719 129.885 109.719 130.485V133.272C109.719 133.889 109.552 134.383 109.217 134.752C108.883 135.127 108.401 135.315 107.772 135.315ZM112.821 132.709C112.429 132.709 112.077 132.626 111.765 132.458C111.453 132.285 111.208 132.043 111.029 131.731C110.85 131.42 110.761 131.059 110.761 130.649C110.761 130.095 110.92 129.634 111.237 129.264C111.56 128.895 111.976 128.676 112.483 128.607V127.923C112.483 127.767 112.443 127.646 112.362 127.559C112.281 127.473 112.154 127.377 111.981 127.274C111.825 127.181 111.701 127.098 111.609 127.023C111.517 126.942 111.439 126.829 111.375 126.685C111.318 126.541 111.292 126.356 111.297 126.131H112.172C112.166 126.321 112.209 126.471 112.302 126.581C112.4 126.685 112.544 126.792 112.734 126.901C112.942 127.023 113.098 127.144 113.202 127.265C113.306 127.386 113.358 127.559 113.358 127.784V128.641C113.813 128.751 114.18 128.985 114.457 129.342C114.74 129.694 114.881 130.13 114.881 130.649C114.881 131.059 114.792 131.42 114.613 131.731C114.434 132.043 114.186 132.285 113.868 132.458C113.557 132.626 113.208 132.709 112.821 132.709ZM111.67 130.649C111.67 131.076 111.774 131.411 111.981 131.653C112.195 131.896 112.475 132.017 112.821 132.017C113.161 132.017 113.438 131.896 113.652 131.653C113.865 131.411 113.972 131.076 113.972 130.649C113.972 130.222 113.865 129.888 113.652 129.645C113.438 129.397 113.161 129.273 112.821 129.273C112.475 129.273 112.195 129.397 111.981 129.645C111.774 129.888 111.67 130.222 111.67 130.649ZM118.091 128.667C118.085 128.852 118.131 129.01 118.23 129.143C118.333 129.27 118.489 129.426 118.697 129.611C118.876 129.766 119.02 129.905 119.13 130.026C119.245 130.141 119.34 130.292 119.415 130.476C119.496 130.655 119.537 130.869 119.537 131.117C119.537 131.44 119.453 131.723 119.286 131.965C119.118 132.202 118.89 132.386 118.602 132.519C118.313 132.646 117.996 132.709 117.65 132.709C117.298 132.709 116.977 132.646 116.689 132.519C116.406 132.392 116.181 132.207 116.014 131.965C115.852 131.723 115.771 131.437 115.771 131.108C115.771 130.958 115.792 130.822 115.832 130.701L116.698 130.736C116.68 130.822 116.672 130.921 116.672 131.03C116.672 131.336 116.761 131.578 116.94 131.757C117.119 131.936 117.355 132.026 117.65 132.026C117.944 132.026 118.183 131.942 118.368 131.775C118.553 131.607 118.645 131.379 118.645 131.091C118.645 130.866 118.587 130.681 118.472 130.537C118.362 130.387 118.192 130.219 117.961 130.035C117.782 129.885 117.641 129.755 117.537 129.645C117.433 129.536 117.347 129.4 117.277 129.238C117.214 129.077 117.188 128.886 117.2 128.667H118.091Z" fill="#344054" fill-opacity="0.3"/>
</g>
</g>
<g filter="url(#filter2_bd_956_40575)">
<rect x="256.631" y="6.32812" width="77.0034" height="88.7213" rx="9.86295" fill="#8C64F0" fill-opacity="0.05" shape-rendering="crispEdges"/>
<rect x="257.049" y="6.74662" width="76.1664" height="87.8843" rx="9.44445" stroke="#8C64F0" stroke-opacity="0.8" stroke-width="0.836994" shape-rendering="crispEdges"/>
<g clip-path="url(#clip10_956_40575)">
<path d="M276.719 33.112C276.719 27.5649 281.216 23.0681 286.763 23.0681H303.503C309.05 23.0681 313.546 27.5649 313.546 33.112V33.112C313.546 38.6591 309.05 43.156 303.503 43.156H286.763C281.216 43.156 276.719 38.6591 276.719 33.112V33.112Z" fill="#8C64F0"/>
<g filter="url(#filter3_dd_956_40575)">
<path d="M295.133 33.1121C295.133 28.4895 298.88 24.7422 303.503 24.7422V24.7422C308.125 24.7422 311.872 28.4895 311.872 33.1121V33.1121C311.872 37.7347 308.125 41.4821 303.503 41.4821V41.4821C298.88 41.4821 295.133 37.7347 295.133 33.1121V33.1121Z" fill="white"/>
</g>
</g>
<g clip-path="url(#clip11_956_40575)">
<path d="M276.719 68.2656C276.719 62.7185 281.216 58.2217 286.763 58.2217H303.503C309.05 58.2217 313.546 62.7185 313.546 68.2656V68.2656C313.546 73.8127 309.05 78.3095 303.503 78.3095H286.763C281.216 78.3095 276.719 73.8127 276.719 68.2656V68.2656Z" fill="#F2F4F7"/>
<g filter="url(#filter4_dd_956_40575)">
<path d="M278.393 68.2657C278.393 63.6431 282.14 59.8958 286.763 59.8958V59.8958C291.385 59.8958 295.133 63.6431 295.133 68.2657V68.2657C295.133 72.8883 291.385 76.6356 286.763 76.6356V76.6356C282.14 76.6356 278.393 72.8883 278.393 68.2657V68.2657Z" fill="white"/>
</g>
</g>
<path d="M286.763 58.5823H303.503C308.85 58.5823 313.186 62.9177 313.186 68.2656C313.186 73.6135 308.85 77.9489 303.503 77.9489H286.763C281.415 77.9489 277.079 73.6135 277.079 68.2656C277.079 62.9177 281.415 58.5823 286.763 58.5823Z" stroke="#8C64F0" stroke-opacity="0.3" stroke-width="0.721312"/>
</g>
<defs>
<filter id="filter0_dd_956_40575" x="29.418" y="27.7544" width="254.623" height="186.82" filterUnits="userSpaceOnUse" color-interpolation-filters="sRGB">
<feFlood flood-opacity="0" result="BackgroundImageFix"/>
<feColorMatrix in="SourceAlpha" type="matrix" values="0 0 0 0 0 0 0 0 0 0 0 0 0 0 0 0 0 0 127 0" result="hardAlpha"/>
<feMorphology radius="2.88525" operator="erode" in="SourceAlpha" result="effect1_dropShadow_956_40575"/>
<feOffset dy="5.77049"/>
<feGaussianBlur stdDeviation="2.88525"/>
<feComposite in2="hardAlpha" operator="out"/>
<feColorMatrix type="matrix" values="0 0 0 0 0.0627451 0 0 0 0 0.0941176 0 0 0 0 0.156863 0 0 0 0.03 0"/>
<feBlend mode="normal" in2="BackgroundImageFix" result="effect1_dropShadow_956_40575"/>
<feColorMatrix in="SourceAlpha" type="matrix" values="0 0 0 0 0 0 0 0 0 0 0 0 0 0 0 0 0 0 127 0" result="hardAlpha"/>
<feMorphology radius="2.88525" operator="erode" in="SourceAlpha" result="effect2_dropShadow_956_40575"/>
<feOffset dy="7"/>
<feGaussianBlur stdDeviation="8.65574"/>
<feComposite in2="hardAlpha" operator="out"/>
<feColorMatrix type="matrix" values="0 0 0 0 0.0627451 0 0 0 0 0.0941176 0 0 0 0 0.156863 0 0 0 0.08 0"/>
<feBlend mode="normal" in2="effect1_dropShadow_956_40575" result="effect2_dropShadow_956_40575"/>
<feBlend mode="normal" in="SourceGraphic" in2="effect2_dropShadow_956_40575" result="shape"/>
</filter>
<filter id="filter1_d_956_40575" x="66.9268" y="115.967" width="179.607" height="56.2622" filterUnits="userSpaceOnUse" color-interpolation-filters="sRGB">
<feFlood flood-opacity="0" result="BackgroundImageFix"/>
<feColorMatrix in="SourceAlpha" type="matrix" values="0 0 0 0 0 0 0 0 0 0 0 0 0 0 0 0 0 0 127 0" result="hardAlpha"/>
<feOffset dy="0.721312"/>
<feGaussianBlur stdDeviation="0.721312"/>
<feComposite in2="hardAlpha" operator="out"/>
<feColorMatrix type="matrix" values="0 0 0 0 0.0627451 0 0 0 0 0.0941176 0 0 0 0 0.156863 0 0 0 0.05 0"/>
<feBlend mode="normal" in2="BackgroundImageFix" result="effect1_dropShadow_956_40575"/>
<feBlend mode="normal" in="SourceGraphic" in2="effect1_dropShadow_956_40575" result="shape"/>
</filter>
<filter id="filter2_bd_956_40575" x="246.768" y="-2.04181" width="95.2363" height="108.927" filterUnits="userSpaceOnUse" color-interpolation-filters="sRGB">
<feFlood flood-opacity="0" result="BackgroundImageFix"/>
<feGaussianBlur in="BackgroundImageFix" stdDeviation="4.18497"/>
<feComposite in2="SourceAlpha" operator="in" result="effect1_backgroundBlur_956_40575"/>
<feColorMatrix in="SourceAlpha" type="matrix" values="0 0 0 0 0 0 0 0 0 0 0 0 0 0 0 0 0 0 127 0" result="hardAlpha"/>
<feOffset dx="-1.97259" dy="3.94518"/>
<feGaussianBlur stdDeviation="3.94518"/>
<feComposite in2="hardAlpha" operator="out"/>
<feColorMatrix type="matrix" values="0 0 0 0 0.301961 0 0 0 0 0.407843 0 0 0 0 0.529412 0 0 0 0.12 0"/>
<feBlend mode="normal" in2="effect1_backgroundBlur_956_40575" result="effect2_dropShadow_956_40575"/>
<feBlend mode="normal" in="SourceGraphic" in2="effect2_dropShadow_956_40575" result="shape"/>
</filter>
<filter id="filter3_dd_956_40575" x="292.622" y="23.0682" width="21.7618" height="21.762" filterUnits="userSpaceOnUse" color-interpolation-filters="sRGB">
<feFlood flood-opacity="0" result="BackgroundImageFix"/>
<feColorMatrix in="SourceAlpha" type="matrix" values="0 0 0 0 0 0 0 0 0 0 0 0 0 0 0 0 0 0 127 0" result="hardAlpha"/>
<feOffset dy="0.836994"/>
<feGaussianBlur stdDeviation="0.836994"/>
<feComposite in2="hardAlpha" operator="out"/>
<feColorMatrix type="matrix" values="0 0 0 0 0.0627451 0 0 0 0 0.0941176 0 0 0 0 0.156863 0 0 0 0.06 0"/>
<feBlend mode="normal" in2="BackgroundImageFix" result="effect1_dropShadow_956_40575"/>
<feColorMatrix in="SourceAlpha" type="matrix" values="0 0 0 0 0 0 0 0 0 0 0 0 0 0 0 0 0 0 127 0" result="hardAlpha"/>
<feOffset dy="0.836994"/>
<feGaussianBlur stdDeviation="1.25549"/>
<feComposite in2="hardAlpha" operator="out"/>
<feColorMatrix type="matrix" values="0 0 0 0 0.0627451 0 0 0 0 0.0941176 0 0 0 0 0.156863 0 0 0 0.1 0"/>
<feBlend mode="normal" in2="effect1_dropShadow_956_40575" result="effect2_dropShadow_956_40575"/>
<feBlend mode="normal" in="SourceGraphic" in2="effect2_dropShadow_956_40575" result="shape"/>
</filter>
<filter id="filter4_dd_956_40575" x="275.882" y="58.2218" width="21.7618" height="21.762" filterUnits="userSpaceOnUse" color-interpolation-filters="sRGB">
<feFlood flood-opacity="0" result="BackgroundImageFix"/>
<feColorMatrix in="SourceAlpha" type="matrix" values="0 0 0 0 0 0 0 0 0 0 0 0 0 0 0 0 0 0 127 0" result="hardAlpha"/>
<feOffset dy="0.836994"/>
<feGaussianBlur stdDeviation="0.836994"/>
<feComposite in2="hardAlpha" operator="out"/>
<feColorMatrix type="matrix" values="0 0 0 0 0.0627451 0 0 0 0 0.0941176 0 0 0 0 0.156863 0 0 0 0.06 0"/>
<feBlend mode="normal" in2="BackgroundImageFix" result="effect1_dropShadow_956_40575"/>
<feColorMatrix in="SourceAlpha" type="matrix" values="0 0 0 0 0 0 0 0 0 0 0 0 0 0 0 0 0 0 127 0" result="hardAlpha"/>
<feOffset dy="0.836994"/>
<feGaussianBlur stdDeviation="1.25549"/>
<feComposite in2="hardAlpha" operator="out"/>
<feColorMatrix type="matrix" values="0 0 0 0 0.0627451 0 0 0 0 0.0941176 0 0 0 0 0.156863 0 0 0 0.1 0"/>
<feBlend mode="normal" in2="effect1_dropShadow_956_40575" result="effect2_dropShadow_956_40575"/>
<feBlend mode="normal" in="SourceGraphic" in2="effect2_dropShadow_956_40575" result="shape"/>
</filter>
<clipPath id="clip0_956_40575">
<rect width="28.2099" height="28.2099" fill="white" transform="translate(74.9211 64.5)"/>
</clipPath>
<clipPath id="clip1_956_40575">
<rect width="28.2099" height="28.2099" fill="white" transform="translate(74.9211 64.5)"/>
</clipPath>
<clipPath id="clip2_956_40575">
<rect width="28.2099" height="28.2099" fill="white" transform="translate(108.773 64.5)"/>
</clipPath>
<clipPath id="clip3_956_40575">
<rect width="28.2099" height="28.2099" fill="white" transform="translate(108.773 64.5)"/>
</clipPath>
<clipPath id="clip4_956_40575">
<rect width="28.2099" height="28.2099" fill="white" transform="translate(142.625 64.5)"/>
</clipPath>
<clipPath id="clip5_956_40575">
<rect width="28.2099" height="28.2099" fill="white" transform="translate(142.625 64.5)"/>
</clipPath>
<clipPath id="clip6_956_40575">
<rect width="28.2099" height="28.2099" fill="white" transform="translate(176.477 64.5)"/>
</clipPath>
<clipPath id="clip7_956_40575">
<rect width="28.2099" height="28.2099" fill="white" transform="translate(176.477 64.5)"/>
</clipPath>
<clipPath id="clip8_956_40575">
<rect width="28.2099" height="28.2099" fill="white" transform="translate(210.329 64.5)"/>
</clipPath>
<clipPath id="clip9_956_40575">
<rect width="28.2099" height="28.2099" fill="white" transform="translate(210.329 64.5)"/>
</clipPath>
<clipPath id="clip10_956_40575">
<path d="M276.719 33.112C276.719 27.5649 281.216 23.0681 286.763 23.0681H303.503C309.05 23.0681 313.546 27.5649 313.546 33.112V33.112C313.546 38.6591 309.05 43.156 303.503 43.156H286.763C281.216 43.156 276.719 38.6591 276.719 33.112V33.112Z" fill="white"/>
</clipPath>
<clipPath id="clip11_956_40575">
<path d="M276.719 68.2656C276.719 62.7185 281.216 58.2217 286.763 58.2217H303.503C309.05 58.2217 313.546 62.7185 313.546 68.2656V68.2656C313.546 73.8127 309.05 78.3095 303.503 78.3095H286.763C281.216 78.3095 276.719 73.8127 276.719 68.2656V68.2656Z" fill="white"/>
</clipPath>
</defs>
</svg>
