<svg width="369" height="248" viewBox="0 0 369 248" fill="none" xmlns="http://www.w3.org/2000/svg">
<g filter="url(#filter0_dd_956_40771)">
<path d="M26.937 34.084C26.937 28.5148 31.4518 24 37.021 24H331.979C337.548 24 342.063 28.5148 342.063 34.084V213.916C342.063 219.485 337.548 224 331.979 224H37.0211C31.4518 224 26.937 219.485 26.937 213.916V34.084Z" fill="white" shape-rendering="crispEdges"/>
<path d="M37.021 24.4202H331.979C337.316 24.4202 341.643 28.7468 341.643 34.084V213.916C341.643 219.253 337.316 223.58 331.979 223.58H37.0211C31.6839 223.58 27.3572 219.253 27.3572 213.916V34.084C27.3572 28.7468 31.6838 24.4202 37.021 24.4202Z" stroke="black" stroke-opacity="0.1" stroke-width="0.840336" shape-rendering="crispEdges"/>
<rect x="43.3247" y="44.1675" width="33.6134" height="33.6134" rx="16.8067" fill="white"/>
<rect x="43.7449" y="44.5876" width="32.7731" height="32.7731" rx="16.3866" stroke="black" stroke-opacity="0.1" stroke-width="0.840336"/>
<path d="M69.5722 55.4039C69.3786 55.8034 69.1703 56.1955 68.9472 56.5803C68.1433 57.9651 67.1703 59.2249 66.0355 60.3524V61.3426H66.0208C66.0208 61.8622 65.9546 62.3597 65.8272 62.8328C65.8075 62.921 65.7831 63.0117 65.7537 63.0926C65.7022 63.2764 65.636 63.4627 65.5551 63.6343C65.5233 63.7053 65.4938 63.774 65.4644 63.8401C65.3615 64.0534 65.2512 64.2617 65.1311 64.4553C64.087 66.122 62.2413 67.2323 60.131 67.2323C58.0207 67.2323 56.1752 66.122 55.1287 64.4553C55.0037 64.2568 54.8933 64.0534 54.7978 63.8401C54.7683 63.774 54.7292 63.7004 54.7096 63.6343C54.6262 63.4553 54.56 63.2764 54.5085 63.0926C54.4791 63.0117 54.4571 62.921 54.435 62.8328C54.3076 62.3597 54.2414 61.8622 54.2414 61.3426H54.2341V60.1293H54.2414C54.2414 59.6097 54.3076 59.1122 54.435 58.6392C54.4571 58.5509 54.4791 58.4602 54.5085 58.3793C54.56 58.1955 54.6262 58.0166 54.7096 57.8401C54.7292 57.7715 54.7683 57.698 54.7978 57.6318C54.8933 57.4161 55.0037 57.2176 55.1287 57.0166C56.1752 55.35 58.0207 54.2396 60.131 54.2396C60.2021 54.2396 60.2708 54.2396 60.3394 54.2445L60.8076 53.7715C61.4056 53.1686 62.1899 52.149 62.5354 50.7078C62.6016 50.4357 62.6482 50.1588 62.6776 49.8818C61.8614 49.6784 61.0085 49.573 60.131 49.573C58.3222 49.573 56.6189 50.024 55.1287 50.823C54.6483 51.0828 54.19 51.3794 53.7537 51.7201C51.2194 53.6392 49.5747 56.6906 49.5747 60.1293V61.3426C49.5747 64.9897 51.4253 68.2029 54.2341 70.0999C54.5233 70.3009 54.8198 70.4847 55.1287 70.649C56.6189 71.448 58.3222 71.8989 60.131 71.8989C61.9398 71.8989 63.6434 71.448 65.1311 70.649C65.4424 70.4774 65.7463 70.3009 66.0355 70.0926C68.8419 68.2029 70.6875 64.9897 70.6875 61.3426V60.1293C70.6875 58.4259 70.2854 56.823 69.5722 55.4039Z" fill="#261D44"/>
<path d="M69.3929 52.1343C69.0767 53.2177 68.5817 54.524 67.7802 55.9039C66.2091 58.6074 64.2091 60.3083 62.8733 61.2593C63.5057 60.2471 64.2729 58.7128 64.5988 56.7299C64.7189 55.9971 64.7606 55.3182 64.7581 54.7177C63.7606 54.7177 62.7631 54.7177 61.7655 54.7177C62.3219 54.1564 63.3904 52.9187 63.8463 51.0216C64.1037 49.9505 64.0816 49.0191 64.0105 48.3696H68.3463C68.2826 48.8525 68.1257 49.6098 67.6821 50.4383C67.2434 51.2618 66.7042 51.8108 66.3366 52.1319H69.3929V52.1343Z" fill="#8C64F0"/>
<path d="M67.9054 73.5791C67.9054 76.2477 70.0687 78.4111 72.7373 78.4111C75.4059 78.4111 77.5693 76.2477 77.5693 73.5791C77.5693 70.9105 75.4059 68.7472 72.7373 68.7472C70.0687 68.7472 67.9054 70.9105 67.9054 73.5791Z" fill="#17B26A"/>
<path d="M67.9054 73.5791C67.9054 76.2477 70.0687 78.4111 72.7373 78.4111C75.4059 78.4111 77.5693 76.2477 77.5693 73.5791C77.5693 70.9105 75.4059 68.7472 72.7373 68.7472C70.0687 68.7472 67.9054 70.9105 67.9054 73.5791Z" stroke="white" stroke-width="1.2605"/>
<path d="M86.6012 60.9739H292.484C296.196 60.9739 299.206 63.9837 299.206 67.6966V99.6293C299.206 103.342 296.196 106.352 292.484 106.352H93.3239C89.611 106.352 86.6012 103.342 86.6012 99.6293V60.9739Z" fill="#F04438" fill-opacity="0.05"/>
<path d="M99.5798 80.1587C99.1361 80.1587 98.7395 80.0612 98.3899 79.8663C98.0403 79.6646 97.7647 79.3822 97.563 79.0192C97.3613 78.6562 97.2605 78.2327 97.2605 77.7486C97.2605 77.2713 97.3579 76.8511 97.5529 76.4881C97.7546 76.1251 98.0302 75.8461 98.3798 75.6511C98.7294 75.4495 99.1226 75.3486 99.5596 75.3486C99.9361 75.3486 100.276 75.4192 100.578 75.5604C100.887 75.7016 101.136 75.9133 101.324 76.1957H101.395C101.845 75.631 102.393 75.3486 103.039 75.3486C103.603 75.3486 104.064 75.5537 104.42 75.9637C104.783 76.3671 104.965 76.9721 104.965 77.7789C104.965 78.1957 104.921 78.5789 104.834 78.9284C104.753 79.278 104.629 79.6545 104.46 80.0579H103.452C103.607 79.6747 103.721 79.3049 103.795 78.9486C103.869 78.5923 103.906 78.2192 103.906 77.8293C103.906 77.2646 103.805 76.8478 103.603 76.5789C103.402 76.3032 103.129 76.1654 102.787 76.1654C102.363 76.1654 101.993 76.3436 101.677 76.6999C101.818 77.0226 101.889 77.3755 101.889 77.7587C101.889 78.236 101.788 78.6562 101.587 79.0192C101.385 79.3822 101.109 79.6646 100.76 79.8663C100.41 80.0612 100.017 80.1587 99.5798 80.1587ZM98.3193 77.7587C98.3193 78.2629 98.4336 78.6562 98.6621 78.9385C98.8907 79.2142 99.1966 79.352 99.5798 79.352C99.9563 79.352 100.259 79.2142 100.487 78.9385C100.716 78.6562 100.83 78.2629 100.83 77.7587C100.83 77.2545 100.716 76.8612 100.487 76.5789C100.259 76.2898 99.9563 76.1453 99.5798 76.1453C99.1966 76.1453 98.8907 76.2898 98.6621 76.5789C98.4336 76.8612 98.3193 77.2545 98.3193 77.7587ZM108.343 83.194C107.852 83.194 107.432 83.0932 107.082 82.8915C106.739 82.6898 106.477 82.4108 106.296 82.0545C106.121 81.7049 106.034 81.3049 106.034 80.8545C106.034 80.5318 106.081 80.2192 106.175 79.9167L107.203 79.957C107.129 80.2192 107.092 80.4948 107.092 80.7839C107.092 81.3016 107.2 81.6982 107.415 81.9738C107.637 82.2495 107.95 82.3873 108.353 82.3873C108.75 82.3873 109.055 82.2495 109.271 81.9738C109.486 81.6982 109.593 81.3083 109.593 80.8041V77.6276C109.593 77.1705 109.479 76.8108 109.25 76.5486C109.022 76.2864 108.739 76.1553 108.403 76.1553C108.087 76.1553 107.832 76.2663 107.637 76.4881C107.449 76.7032 107.355 77.0226 107.355 77.4461C107.355 77.5873 107.375 77.7789 107.415 78.0209L106.356 78.0511C106.309 77.836 106.286 77.6142 106.286 77.3856C106.286 76.9755 106.366 76.6158 106.528 76.3066C106.689 75.9974 106.908 75.7621 107.183 75.6007C107.459 75.4327 107.768 75.3486 108.111 75.3486C108.447 75.3486 108.739 75.4226 108.988 75.5705C109.237 75.7116 109.439 75.9167 109.593 76.1856H109.654C109.613 75.9436 109.593 75.6814 109.593 75.399V73.2411H108.383L108.454 72.4948H110.612V80.8142C110.612 81.5335 110.417 82.1083 110.027 82.5385C109.637 82.9755 109.076 83.194 108.343 83.194ZM114.293 83.194C113.802 83.194 113.375 83.0932 113.012 82.8915C112.649 82.6965 112.373 82.4276 112.185 82.0848C111.997 81.7486 111.903 81.3721 111.903 80.9553C111.903 80.7268 111.93 80.5083 111.983 80.2999L112.992 80.3503C112.958 80.5184 112.941 80.6864 112.941 80.8545C112.941 81.3251 113.062 81.6948 113.304 81.9637C113.546 82.2394 113.876 82.3772 114.293 82.3772C114.71 82.3772 115.036 82.2427 115.271 81.9738C115.513 81.7116 115.634 81.352 115.634 80.8948C115.634 80.4444 115.516 80.0948 115.281 79.8461C115.046 79.5974 114.71 79.473 114.273 79.473H114.041V78.636H114.283C114.699 78.636 115.012 78.5284 115.22 78.3133C115.436 78.0915 115.543 77.789 115.543 77.4058C115.543 77.0495 115.429 76.7604 115.2 76.5385C114.978 76.31 114.686 76.1957 114.323 76.1957C113.973 76.1957 113.688 76.3066 113.466 76.5284C113.251 76.7436 113.143 77.036 113.143 77.4058C113.143 77.5066 113.153 77.6175 113.173 77.7385L112.125 77.7688C112.098 77.6074 112.084 77.4663 112.084 77.3453C112.084 76.9553 112.182 76.6091 112.377 76.3066C112.572 76.0041 112.841 75.7688 113.183 75.6007C113.526 75.4327 113.906 75.3486 114.323 75.3486C114.746 75.3486 115.13 75.436 115.473 75.6108C115.822 75.7856 116.094 76.0242 116.289 76.3268C116.491 76.6293 116.592 76.9721 116.592 77.3553C116.592 77.7721 116.481 78.1251 116.259 78.4142C116.044 78.7032 115.718 78.9049 115.281 79.0192V79.0898C115.731 79.1772 116.078 79.3923 116.32 79.7352C116.568 80.0713 116.693 80.4848 116.693 80.9755C116.693 81.3789 116.595 81.7486 116.4 82.0848C116.212 82.4276 115.936 82.6965 115.573 82.8915C115.21 83.0932 114.783 83.194 114.293 83.194ZM120.042 83.194C119.551 83.194 119.131 83.0932 118.781 82.8915C118.439 82.6898 118.176 82.4108 117.995 82.0545C117.82 81.7049 117.733 81.3049 117.733 80.8545C117.733 80.5318 117.78 80.2192 117.874 79.9167L118.902 79.957C118.828 80.2192 118.791 80.4948 118.791 80.7839C118.791 81.3016 118.899 81.6982 119.114 81.9738C119.336 82.2495 119.649 82.3873 120.052 82.3873C120.449 82.3873 120.754 82.2495 120.97 81.9738C121.185 81.6982 121.292 81.3083 121.292 80.8041V77.5873C121.292 77.0831 121.185 76.72 120.97 76.4982C120.761 76.2696 120.486 76.1553 120.143 76.1553C119.813 76.1553 119.548 76.2629 119.346 76.478C119.151 76.6932 119.054 77.0158 119.054 77.4461C119.054 77.5873 119.074 77.7789 119.114 78.0209L118.055 78.0511C118.008 77.836 117.985 77.6142 117.985 77.3856C117.985 76.9688 118.075 76.6091 118.257 76.3066C118.445 75.9974 118.701 75.7621 119.023 75.6007C119.346 75.4327 119.712 75.3486 120.123 75.3486C120.781 75.3486 121.309 75.5436 121.706 75.9335C122.109 76.3234 122.311 76.8679 122.311 77.5671V80.8142C122.311 81.5335 122.116 82.1083 121.726 82.5385C121.336 82.9755 120.775 83.194 120.042 83.194ZM126.005 80.1587C125.528 80.1587 125.111 80.0579 124.754 79.8562C124.398 79.6545 124.126 79.3721 123.938 79.0091C123.749 78.6461 123.655 78.2327 123.655 77.7688V74.3402C123.655 73.7419 123.84 73.2713 124.21 72.9284C124.58 72.5789 125.081 72.4041 125.712 72.4041C125.954 72.4041 126.21 72.4209 126.479 72.4545C126.788 72.4814 127.023 72.4948 127.185 72.4948C127.474 72.4948 127.719 72.4713 127.921 72.4242V73.3217C127.726 73.3957 127.504 73.4327 127.255 73.4327C127.081 73.4327 126.832 73.399 126.509 73.3318C126.476 73.3251 126.381 73.3083 126.227 73.2814C126.079 73.2545 125.931 73.2411 125.783 73.2411C125.44 73.2411 125.165 73.3352 124.956 73.5234C124.754 73.7116 124.657 73.9873 124.664 74.3503L124.684 75.399C124.684 75.6411 124.66 75.9032 124.613 76.1856H124.684C124.832 75.9167 125.04 75.7116 125.309 75.5705C125.585 75.4226 125.894 75.3486 126.237 75.3486C126.647 75.3486 127.01 75.4528 127.326 75.6612C127.649 75.8629 127.897 76.1486 128.072 76.5184C128.254 76.8814 128.344 77.2982 128.344 77.7688C128.344 78.2327 128.25 78.6461 128.062 79.0091C127.874 79.3721 127.602 79.6545 127.245 79.8562C126.896 80.0579 126.482 80.1587 126.005 80.1587ZM124.684 77.8898C124.684 78.3268 124.805 78.6797 125.047 78.9486C125.289 79.2175 125.605 79.352 125.995 79.352C126.378 79.352 126.687 79.2108 126.923 78.9284C127.165 78.6394 127.286 78.2495 127.286 77.7587C127.286 77.2545 127.168 76.8612 126.933 76.5789C126.704 76.2965 126.391 76.1553 125.995 76.1553C125.605 76.1553 125.289 76.2864 125.047 76.5486C124.805 76.8041 124.684 77.1637 124.684 77.6276V77.8898ZM136.937 83.1234C136.857 82.7133 136.631 82.3873 136.262 82.1453C135.892 81.91 135.455 81.7923 134.951 81.7923H134.769C134.5 81.7923 134.241 81.8158 133.993 81.8629C133.744 81.9167 133.482 82.0041 133.206 82.1251L132.894 81.4696C133.236 81.315 133.697 81.2242 134.275 81.1974V81.1369C133.542 80.9621 132.957 80.5957 132.52 80.0377C132.09 79.473 131.875 78.7705 131.875 77.9301C131.875 77.352 131.973 76.8713 132.168 76.4881C132.362 76.0982 132.621 75.8125 132.944 75.631C133.267 75.4427 133.62 75.3486 134.003 75.3486C134.581 75.3486 135.062 75.5974 135.445 76.0948H135.515C135.704 75.8595 135.942 75.678 136.231 75.5503C136.527 75.4158 136.857 75.3486 137.22 75.3486C137.643 75.3486 138.023 75.4427 138.359 75.631C138.702 75.8192 138.971 76.0881 139.166 76.4377C139.361 76.7806 139.458 77.1839 139.458 77.6478C139.458 78.0915 139.361 78.4881 139.166 78.8377C138.971 79.1873 138.699 79.4595 138.349 79.6545C138.006 79.8495 137.62 79.9469 137.189 79.9469C136.759 79.9469 136.369 79.8495 136.02 79.6545C135.677 79.4595 135.408 79.1873 135.213 78.8377C135.018 78.4881 134.92 78.0915 134.92 77.6478C134.92 77.2377 134.994 76.8848 135.142 76.589C134.86 76.3066 134.541 76.1654 134.184 76.1654C133.808 76.1654 133.502 76.3066 133.267 76.589C133.038 76.8713 132.924 77.315 132.924 77.92C132.924 78.7469 133.142 79.399 133.579 79.8763C134.023 80.3537 134.631 80.6831 135.404 80.8646L135.757 80.9553C136.383 81.11 136.887 81.3688 137.27 81.7318C137.66 82.1016 137.889 82.552 137.956 83.0831L136.937 83.1234ZM135.959 77.6478C135.959 78.0982 136.073 78.4646 136.302 78.7469C136.531 79.0226 136.826 79.1604 137.189 79.1604C137.559 79.1604 137.855 79.0226 138.077 78.7469C138.305 78.4646 138.42 78.0982 138.42 77.6478C138.42 77.1637 138.309 76.7906 138.087 76.5284C137.865 76.2595 137.566 76.1251 137.189 76.1251C136.82 76.1251 136.52 76.2595 136.292 76.5284C136.07 76.7974 135.959 77.1705 135.959 77.6478ZM143.182 75.4495C143.175 75.6646 143.229 75.8495 143.343 76.0041C143.464 76.152 143.646 76.3335 143.888 76.5486C144.096 76.7301 144.264 76.8915 144.392 77.0327C144.527 77.1671 144.638 77.3419 144.725 77.557C144.819 77.7654 144.866 78.0142 144.866 78.3032C144.866 78.6797 144.769 79.0091 144.574 79.2915C144.379 79.5671 144.113 79.7822 143.777 79.9369C143.441 80.0848 143.071 80.1587 142.668 80.1587C142.258 80.1587 141.885 80.0848 141.549 79.9369C141.219 79.789 140.957 79.5738 140.762 79.2915C140.574 79.0091 140.48 78.6763 140.48 78.2932C140.48 78.1184 140.503 77.9604 140.55 77.8192L141.559 77.8595C141.538 77.9604 141.528 78.0747 141.528 78.2024C141.528 78.5587 141.633 78.8411 141.841 79.0495C142.049 79.2579 142.325 79.3621 142.668 79.3621C143.011 79.3621 143.29 79.2646 143.505 79.0696C143.72 78.8747 143.828 78.6091 143.828 78.273C143.828 78.0108 143.76 77.7957 143.626 77.6276C143.498 77.4528 143.3 77.2579 143.031 77.0427C142.822 76.8679 142.658 76.7167 142.537 76.589C142.416 76.4612 142.315 76.3032 142.234 76.115C142.16 75.9268 142.13 75.7049 142.143 75.4495H143.182ZM148.181 83.194C147.697 83.194 147.264 83.0864 146.881 82.8713C146.504 82.6629 146.208 82.3637 145.993 81.9738C145.778 81.5906 145.671 81.1469 145.671 80.6427C145.671 80.1789 145.768 79.7587 145.963 79.3822C146.158 78.999 146.437 78.6932 146.8 78.4646C147.163 78.236 147.59 78.1116 148.081 78.0915C148.181 78.078 148.299 78.078 148.434 78.0915C148.615 77.9503 148.76 77.799 148.867 77.6377C148.981 77.4696 149.039 77.2747 149.039 77.0528C149.039 76.757 148.955 76.5318 148.786 76.3772C148.625 76.2226 148.393 76.1453 148.091 76.1453C147.802 76.1453 147.57 76.2293 147.395 76.3974C147.22 76.5587 147.126 76.7839 147.113 77.073L146.034 77.0327C146.067 76.5419 146.269 76.1385 146.639 75.8226C147.008 75.5066 147.496 75.3486 148.101 75.3486C148.511 75.3486 148.867 75.4192 149.17 75.5604C149.472 75.7016 149.704 75.8965 149.865 76.1453C150.027 76.3873 150.107 76.6629 150.107 76.9721C150.107 77.2545 150.03 77.5066 149.876 77.7284C149.728 77.9436 149.523 78.1217 149.26 78.2629V78.3335C149.731 78.5217 150.087 78.8209 150.329 79.231C150.571 79.6343 150.692 80.1016 150.692 80.6327C150.692 81.1369 150.585 81.5839 150.37 81.9738C150.155 82.3637 149.855 82.6629 149.472 82.8713C149.096 83.0864 148.665 83.194 148.181 83.194ZM146.729 80.6327C146.729 81.1772 146.864 81.6041 147.133 81.9133C147.402 82.2293 147.751 82.3873 148.181 82.3873C148.605 82.3873 148.951 82.2293 149.22 81.9133C149.496 81.6041 149.634 81.1772 149.634 80.6327C149.634 80.0948 149.496 79.6713 149.22 79.3621C148.951 79.0461 148.605 78.8881 148.181 78.8881C147.751 78.8881 147.402 79.0461 147.133 79.3621C146.864 79.6713 146.729 80.0948 146.729 80.6327ZM154.097 83.194C153.606 83.194 153.179 83.0932 152.816 82.8915C152.453 82.6965 152.178 82.4276 151.99 82.0848C151.801 81.7486 151.707 81.3721 151.707 80.9553C151.707 80.7268 151.734 80.5083 151.788 80.2999L152.796 80.3503C152.763 80.5184 152.746 80.6864 152.746 80.8545C152.746 81.3251 152.867 81.6948 153.109 81.9637C153.351 82.2394 153.68 82.3772 154.097 82.3772C154.514 82.3772 154.84 82.2427 155.075 81.9738C155.317 81.7116 155.438 81.352 155.438 80.8948C155.438 80.4444 155.321 80.0948 155.085 79.8461C154.85 79.5974 154.514 79.473 154.077 79.473H153.845V78.636H154.087C154.504 78.636 154.816 78.5284 155.025 78.3133C155.24 78.0915 155.347 77.789 155.347 77.4058C155.347 77.0495 155.233 76.7604 155.005 76.5385C154.783 76.31 154.49 76.1957 154.127 76.1957C153.778 76.1957 153.492 76.3066 153.27 76.5284C153.055 76.7436 152.947 77.036 152.947 77.4058C152.947 77.5066 152.958 77.6175 152.978 77.7385L151.929 77.7688C151.902 77.6074 151.889 77.4663 151.889 77.3453C151.889 76.9553 151.986 76.6091 152.181 76.3066C152.376 76.0041 152.645 75.7688 152.988 75.6007C153.331 75.4327 153.711 75.3486 154.127 75.3486C154.551 75.3486 154.934 75.436 155.277 75.6108C155.626 75.7856 155.899 76.0242 156.094 76.3268C156.295 76.6293 156.396 76.9721 156.396 77.3553C156.396 77.7721 156.285 78.1251 156.063 78.4142C155.848 78.7032 155.522 78.9049 155.085 79.0192V79.0898C155.536 79.1772 155.882 79.3923 156.124 79.7352C156.373 80.0713 156.497 80.4848 156.497 80.9755C156.497 81.3789 156.4 81.7486 156.205 82.0848C156.016 82.4276 155.741 82.6965 155.378 82.8915C155.015 83.0932 154.588 83.194 154.097 83.194ZM158.021 80.0579C157.866 79.6545 157.745 79.2747 157.658 78.9184C157.577 78.5621 157.537 78.1923 157.537 77.8091C157.537 77.2915 157.634 76.8478 157.829 76.478C158.031 76.1083 158.307 75.8293 158.656 75.6411C159.006 75.4461 159.406 75.3486 159.856 75.3486C160.313 75.3486 160.717 75.4461 161.066 75.6411C161.423 75.8293 161.698 76.1083 161.893 76.478C162.095 76.8478 162.196 77.2915 162.196 77.8091C162.196 78.1923 162.152 78.5621 162.065 78.9184C161.984 79.2679 161.863 79.6478 161.702 80.0579H160.734C160.875 79.6478 160.979 79.2713 161.046 78.9284C161.113 78.5856 161.147 78.2259 161.147 77.8495C161.147 77.3116 161.033 76.8948 160.804 76.599C160.576 76.2965 160.26 76.1453 159.856 76.1453C159.453 76.1453 159.137 76.2965 158.908 76.599C158.687 76.8948 158.576 77.3116 158.576 77.8495C158.576 78.2192 158.609 78.5789 158.676 78.9284C158.744 79.278 158.851 79.6545 158.999 80.0579H158.021ZM166.447 75.3789C166.601 75.6747 166.712 75.9436 166.78 76.1856C166.847 76.4209 166.88 76.6763 166.88 76.952C166.88 77.3352 166.78 77.6713 166.578 77.9604C166.376 78.2495 166.101 78.4478 165.751 78.5553V78.6259C166.242 78.7133 166.628 78.9587 166.911 79.3621C167.193 79.7587 167.334 80.2192 167.334 80.7436C167.334 81.2074 167.24 81.6242 167.052 81.994C166.864 82.3705 166.588 82.6629 166.225 82.8713C165.869 83.0864 165.442 83.194 164.944 83.194C164.454 83.194 164.033 83.0932 163.684 82.8915C163.334 82.6965 163.069 82.4276 162.887 82.0848C162.706 81.7486 162.615 81.3688 162.615 80.9453C162.615 80.7234 162.642 80.5083 162.696 80.2999L163.704 80.3503C163.67 80.5385 163.654 80.6999 163.654 80.8343C163.654 81.3184 163.764 81.6948 163.986 81.9637C164.215 82.2394 164.531 82.3772 164.934 82.3772C165.358 82.3772 165.687 82.2259 165.922 81.9234C166.158 81.6276 166.275 81.2175 166.275 80.6932C166.275 80.2024 166.154 79.8058 165.912 79.5032C165.677 79.2007 165.344 79.0495 164.914 79.0495H164.591V78.2125H164.763C165.132 78.2125 165.401 78.0948 165.569 77.8595C165.744 77.6242 165.832 77.3251 165.832 76.9621C165.832 76.6999 165.795 76.4511 165.721 76.2158C165.654 75.9806 165.553 75.7251 165.418 75.4495L166.447 75.3789ZM170.913 75.4495C170.906 75.6646 170.96 75.8495 171.075 76.0041C171.196 76.152 171.377 76.3335 171.619 76.5486C171.828 76.7301 171.996 76.8915 172.123 77.0327C172.258 77.1671 172.369 77.3419 172.456 77.557C172.55 77.7654 172.597 78.0142 172.597 78.3032C172.597 78.6797 172.5 79.0091 172.305 79.2915C172.11 79.5671 171.844 79.7822 171.508 79.9369C171.172 80.0848 170.802 80.1587 170.399 80.1587C169.989 80.1587 169.616 80.0848 169.28 79.9369C168.95 79.789 168.688 79.5738 168.493 79.2915C168.305 79.0091 168.211 78.6763 168.211 78.2932C168.211 78.1184 168.234 77.9604 168.281 77.8192L169.29 77.8595C169.27 77.9604 169.259 78.0747 169.259 78.2024C169.259 78.5587 169.364 78.8411 169.572 79.0495C169.78 79.2579 170.056 79.3621 170.399 79.3621C170.742 79.3621 171.021 79.2646 171.236 79.0696C171.451 78.8747 171.559 78.6091 171.559 78.273C171.559 78.0108 171.491 77.7957 171.357 77.6276C171.229 77.4528 171.031 77.2579 170.762 77.0427C170.554 76.8679 170.389 76.7167 170.268 76.589C170.147 76.4612 170.046 76.3032 169.965 76.115C169.891 75.9268 169.861 75.7049 169.875 75.4495H170.913ZM175.821 83.194C175.33 83.194 174.903 83.0932 174.54 82.8915C174.177 82.6965 173.902 82.4276 173.714 82.0848C173.525 81.7486 173.431 81.3721 173.431 80.9553C173.431 80.7268 173.458 80.5083 173.512 80.2999L174.52 80.3503C174.487 80.5184 174.47 80.6864 174.47 80.8545C174.47 81.3251 174.591 81.6948 174.833 81.9637C175.075 82.2394 175.404 82.3772 175.821 82.3772C176.238 82.3772 176.564 82.2427 176.799 81.9738C177.041 81.7116 177.162 81.352 177.162 80.8948C177.162 80.4444 177.045 80.0948 176.809 79.8461C176.574 79.5974 176.238 79.473 175.801 79.473H175.569V78.636H175.811C176.228 78.636 176.54 78.5284 176.749 78.3133C176.964 78.0915 177.071 77.789 177.071 77.4058C177.071 77.0495 176.957 76.7604 176.729 76.5385C176.507 76.31 176.214 76.1957 175.851 76.1957C175.502 76.1957 175.216 76.3066 174.994 76.5284C174.779 76.7436 174.671 77.036 174.671 77.4058C174.671 77.5066 174.682 77.6175 174.702 77.7385L173.653 77.7688C173.626 77.6074 173.613 77.4663 173.613 77.3453C173.613 76.9553 173.71 76.6091 173.905 76.3066C174.1 76.0041 174.369 75.7688 174.712 75.6007C175.055 75.4327 175.435 75.3486 175.851 75.3486C176.275 75.3486 176.658 75.436 177.001 75.6108C177.35 75.7856 177.623 76.0242 177.818 76.3268C178.019 76.6293 178.12 76.9721 178.12 77.3553C178.12 77.7721 178.009 78.1251 177.787 78.4142C177.572 78.7032 177.246 78.9049 176.809 79.0192V79.0898C177.26 79.1772 177.606 79.3923 177.848 79.7352C178.097 80.0713 178.221 80.4848 178.221 80.9755C178.221 81.3789 178.124 81.7486 177.929 82.0848C177.74 82.4276 177.465 82.6965 177.102 82.8915C176.739 83.0932 176.312 83.194 175.821 83.194ZM181.588 80.1587C181.118 80.1587 180.704 80.0579 180.348 79.8562C179.998 79.6545 179.73 79.3755 179.541 79.0192C179.353 78.6629 179.259 78.2595 179.259 77.8091C179.259 77.3587 179.346 76.9553 179.521 76.599C179.703 76.2427 179.951 75.9637 180.267 75.7621C180.59 75.5604 180.956 75.4595 181.367 75.4595C181.709 75.4595 182.015 75.5335 182.284 75.6814C182.56 75.8293 182.772 76.0343 182.919 76.2965H182.99C182.95 76.0343 182.93 75.7721 182.93 75.51L182.94 74.0679C182.94 73.7856 182.866 73.5671 182.718 73.4125C182.577 73.2579 182.392 73.1805 182.163 73.1805C181.935 73.1805 181.75 73.2612 181.609 73.4226C181.467 73.5772 181.397 73.7789 181.397 74.0276V74.6125H180.398V74.0276C180.398 73.7856 180.335 73.5873 180.207 73.4327C180.086 73.278 179.921 73.2007 179.713 73.2007C179.37 73.2007 179.101 73.352 178.906 73.6545L178.23 73.1805C178.392 72.9251 178.597 72.7301 178.845 72.5957C179.094 72.4545 179.37 72.3839 179.672 72.3839C179.961 72.3839 180.22 72.4646 180.449 72.6259C180.677 72.7873 180.835 73.0192 180.923 73.3217H180.993C181.088 73.0192 181.259 72.7873 181.508 72.6259C181.756 72.4646 182.049 72.3839 182.385 72.3839C182.856 72.3839 183.232 72.5318 183.514 72.8276C183.803 73.1167 183.948 73.4965 183.948 73.9671V77.8192C183.948 78.2696 183.851 78.673 183.656 79.0293C183.467 79.3789 183.195 79.6545 182.839 79.8562C182.482 80.0579 182.066 80.1587 181.588 80.1587ZM180.308 77.8192C180.308 78.2831 180.429 78.6562 180.671 78.9385C180.913 79.2142 181.222 79.352 181.598 79.352C181.988 79.352 182.304 79.2209 182.546 78.9587C182.788 78.6965 182.909 78.3604 182.909 77.9503V77.6881C182.909 77.2444 182.788 76.8982 182.546 76.6495C182.304 76.394 181.988 76.2663 181.598 76.2663C181.209 76.2663 180.896 76.4074 180.661 76.6898C180.425 76.9654 180.308 77.3419 180.308 77.8192ZM185.663 80.0579C185.509 79.6545 185.388 79.2747 185.3 78.9184C185.22 78.5621 185.179 78.1923 185.179 77.8091C185.179 77.2915 185.277 76.8478 185.472 76.478C185.674 76.1083 185.949 75.8293 186.299 75.6411C186.648 75.4461 187.048 75.3486 187.499 75.3486C187.956 75.3486 188.359 75.4461 188.709 75.6411C189.065 75.8293 189.341 76.1083 189.536 76.478C189.737 76.8478 189.838 77.2915 189.838 77.8091C189.838 78.1923 189.795 78.5621 189.707 78.9184C189.627 79.2679 189.506 79.6478 189.344 80.0579H188.376C188.517 79.6478 188.621 79.2713 188.689 78.9284C188.756 78.5856 188.79 78.2259 188.79 77.8495C188.79 77.3116 188.675 76.8948 188.447 76.599C188.218 76.2965 187.902 76.1453 187.499 76.1453C187.095 76.1453 186.779 76.2965 186.551 76.599C186.329 76.8948 186.218 77.3116 186.218 77.8495C186.218 78.2192 186.252 78.5789 186.319 78.9284C186.386 79.278 186.494 79.6545 186.642 80.0579H185.663ZM191.416 80.0579C191.093 79.2175 190.932 78.2259 190.932 77.0831C190.932 75.994 191.127 75.1369 191.517 74.5116C191.906 73.8797 192.374 73.436 192.918 73.1805C193.463 72.9184 194.064 72.7335 194.723 72.6259L196.246 72.3839V73.3217L194.683 73.5738C194.105 73.6612 193.611 73.8024 193.201 73.9974C192.791 74.1856 192.444 74.4713 192.162 74.8545C191.886 75.2377 191.698 75.7453 191.597 76.3772H191.648C191.816 76.0142 192.024 75.752 192.273 75.5906C192.522 75.4293 192.811 75.3486 193.14 75.3486C193.469 75.3486 193.769 75.4461 194.038 75.6411C194.313 75.836 194.498 76.1385 194.592 76.5486H194.653C194.767 76.1385 194.975 75.836 195.278 75.6411C195.58 75.4461 195.92 75.3486 196.296 75.3486C196.666 75.3486 196.999 75.436 197.295 75.6108C197.597 75.7856 197.836 76.0545 198.011 76.4175C198.192 76.7806 198.283 77.2343 198.283 77.7789C198.283 78.1822 198.243 78.5587 198.162 78.9083C198.081 79.2579 197.96 79.6411 197.799 80.0579H196.77C196.932 79.6679 197.049 79.2948 197.123 78.9385C197.197 78.5755 197.238 78.2024 197.244 77.8192C197.238 77.2612 197.133 76.8444 196.932 76.5688C196.73 76.2864 196.468 76.1453 196.145 76.1453C195.836 76.1453 195.584 76.2562 195.389 76.478C195.201 76.6932 195.106 77.0394 195.106 77.5167V78.9184H194.098V77.5167C194.098 77.0394 194.004 76.6932 193.816 76.478C193.634 76.2562 193.389 76.1453 193.08 76.1453C192.75 76.1453 192.485 76.2831 192.283 76.5587C192.081 76.8343 191.98 77.2545 191.98 77.8192C191.98 78.2024 192.017 78.5755 192.091 78.9385C192.165 79.2948 192.283 79.6679 192.444 80.0579H191.416ZM204.492 83.1234C204.412 82.7133 204.187 82.3873 203.817 82.1453C203.447 81.91 203.01 81.7923 202.506 81.7923H202.324C202.055 81.7923 201.797 81.8158 201.548 81.8629C201.299 81.9167 201.037 82.0041 200.761 82.1251L200.449 81.4696C200.792 81.315 201.252 81.2242 201.83 81.1974V81.1369C201.097 80.9621 200.513 80.5957 200.076 80.0377C199.645 79.473 199.43 78.7705 199.43 77.9301C199.43 77.352 199.528 76.8713 199.723 76.4881C199.918 76.0982 200.176 75.8125 200.499 75.631C200.822 75.4427 201.175 75.3486 201.558 75.3486C202.136 75.3486 202.617 75.5974 203 76.0948H203.071C203.259 75.8595 203.497 75.678 203.787 75.5503C204.082 75.4158 204.412 75.3486 204.775 75.3486C205.198 75.3486 205.578 75.4427 205.914 75.631C206.257 75.8192 206.526 76.0881 206.721 76.4377C206.916 76.7806 207.013 77.1839 207.013 77.6478C207.013 78.0915 206.916 78.4881 206.721 78.8377C206.526 79.1873 206.254 79.4595 205.904 79.6545C205.561 79.8495 205.175 79.9469 204.745 79.9469C204.314 79.9469 203.924 79.8495 203.575 79.6545C203.232 79.4595 202.963 79.1873 202.768 78.8377C202.573 78.4881 202.476 78.0915 202.476 77.6478C202.476 77.2377 202.55 76.8848 202.697 76.589C202.415 76.3066 202.096 76.1654 201.739 76.1654C201.363 76.1654 201.057 76.3066 200.822 76.589C200.593 76.8713 200.479 77.315 200.479 77.92C200.479 78.7469 200.697 79.399 201.134 79.8763C201.578 80.3537 202.187 80.6831 202.96 80.8646L203.313 80.9553C203.938 81.11 204.442 81.3688 204.825 81.7318C205.215 82.1016 205.444 82.552 205.511 83.0831L204.492 83.1234ZM203.514 77.6478C203.514 78.0982 203.629 78.4646 203.857 78.7469C204.086 79.0226 204.381 79.1604 204.745 79.1604C205.114 79.1604 205.41 79.0226 205.632 78.7469C205.86 78.4646 205.975 78.0982 205.975 77.6478C205.975 77.1637 205.864 76.7906 205.642 76.5284C205.42 76.2595 205.121 76.1251 204.745 76.1251C204.375 76.1251 204.076 76.2595 203.847 76.5284C203.625 76.7974 203.514 77.1705 203.514 77.6478ZM208.599 80.0579C208.444 79.6545 208.323 79.2747 208.236 78.9184C208.155 78.5621 208.115 78.1923 208.115 77.8091C208.115 77.2915 208.212 76.8478 208.407 76.478C208.609 76.1083 208.884 75.8293 209.234 75.6411C209.584 75.4461 209.984 75.3486 210.434 75.3486C210.891 75.3486 211.295 75.4461 211.644 75.6411C212 75.8293 212.276 76.1083 212.471 76.478C212.673 76.8478 212.774 77.2915 212.774 77.8091C212.774 78.1923 212.73 78.5621 212.642 78.9184C212.562 79.2679 212.441 79.6478 212.279 80.0579H211.311C211.453 79.6478 211.557 79.2713 211.624 78.9284C211.691 78.5856 211.725 78.2259 211.725 77.8495C211.725 77.3116 211.611 76.8948 211.382 76.599C211.153 76.2965 210.837 76.1453 210.434 76.1453C210.031 76.1453 209.715 76.2965 209.486 76.599C209.264 76.8948 209.153 77.3116 209.153 77.8495C209.153 78.2192 209.187 78.5789 209.254 78.9284C209.321 79.278 209.429 79.6545 209.577 80.0579H208.599ZM216.186 80.1587C215.743 80.1587 215.346 80.0612 214.996 79.8663C214.647 79.6646 214.371 79.3822 214.169 79.0192C213.968 78.6562 213.867 78.2327 213.867 77.7486C213.867 77.2713 213.964 76.8511 214.159 76.4881C214.361 76.1251 214.637 75.8461 214.986 75.6511C215.336 75.4495 215.729 75.3486 216.166 75.3486C216.543 75.3486 216.882 75.4192 217.185 75.5604C217.494 75.7016 217.743 75.9133 217.931 76.1957H218.001C218.452 75.631 219 75.3486 219.645 75.3486C220.21 75.3486 220.67 75.5537 221.027 75.9637C221.39 76.3671 221.571 76.9721 221.571 77.7789C221.571 78.1957 221.527 78.5789 221.44 78.9284C221.359 79.278 221.235 79.6545 221.067 80.0579H220.059C220.213 79.6747 220.327 79.3049 220.401 78.9486C220.475 78.5923 220.512 78.2192 220.512 77.8293C220.512 77.2646 220.411 76.8478 220.21 76.5789C220.008 76.3032 219.736 76.1654 219.393 76.1654C218.969 76.1654 218.6 76.3436 218.284 76.6999C218.425 77.0226 218.496 77.3755 218.496 77.7587C218.496 78.236 218.395 78.6562 218.193 79.0192C217.991 79.3822 217.716 79.6646 217.366 79.8663C217.017 80.0612 216.623 80.1587 216.186 80.1587ZM214.926 77.7587C214.926 78.2629 215.04 78.6562 215.269 78.9385C215.497 79.2142 215.803 79.352 216.186 79.352C216.563 79.352 216.865 79.2142 217.094 78.9385C217.322 78.6562 217.437 78.2629 217.437 77.7587C217.437 77.2545 217.322 76.8612 217.094 76.5789C216.865 76.2898 216.563 76.1453 216.186 76.1453C215.803 76.1453 215.497 76.2898 215.269 76.5789C215.04 76.8612 214.926 77.2545 214.926 77.7587ZM227.705 75.4495C227.698 75.6646 227.752 75.8495 227.866 76.0041C227.987 76.152 228.169 76.3335 228.411 76.5486C228.619 76.7301 228.787 76.8915 228.915 77.0327C229.049 77.1671 229.16 77.3419 229.248 77.557C229.342 77.7654 229.389 78.0142 229.389 78.3032C229.389 78.6797 229.291 79.0091 229.096 79.2915C228.901 79.5671 228.636 79.7822 228.3 79.9369C227.964 80.0848 227.594 80.1587 227.191 80.1587C226.78 80.1587 226.407 80.0848 226.071 79.9369C225.742 79.789 225.48 79.5738 225.285 79.2915C225.096 79.0091 225.002 78.6763 225.002 78.2932C225.002 78.1184 225.026 77.9604 225.073 77.8192L226.081 77.8595C226.061 77.9604 226.051 78.0747 226.051 78.2024C226.051 78.5587 226.155 78.8411 226.364 79.0495C226.572 79.2579 226.848 79.3621 227.191 79.3621C227.533 79.3621 227.812 79.2646 228.028 79.0696C228.243 78.8747 228.35 78.6091 228.35 78.273C228.35 78.0108 228.283 77.7957 228.149 77.6276C228.021 77.4528 227.822 77.2579 227.554 77.0427C227.345 76.8679 227.18 76.7167 227.059 76.589C226.938 76.4612 226.838 76.3032 226.757 76.115C226.683 75.9268 226.653 75.7049 226.666 75.4495H227.705ZM230.925 80.0579C230.602 79.2175 230.441 78.2259 230.441 77.0831C230.441 75.994 230.636 75.1369 231.025 74.5116C231.415 73.8797 231.883 73.436 232.427 73.1805C232.972 72.9184 233.573 72.7335 234.232 72.6259L235.755 72.3839V73.3217L234.192 73.5738C233.614 73.6612 233.12 73.8024 232.71 73.9974C232.299 74.1856 231.953 74.4713 231.671 74.8545C231.395 75.2377 231.207 75.7453 231.106 76.3772H231.157C231.325 76.0142 231.533 75.752 231.782 75.5906C232.031 75.4293 232.32 75.3486 232.649 75.3486C232.978 75.3486 233.278 75.4461 233.546 75.6411C233.822 75.836 234.007 76.1385 234.101 76.5486H234.162C234.276 76.1385 234.484 75.836 234.787 75.6411C235.089 75.4461 235.429 75.3486 235.805 75.3486C236.175 75.3486 236.508 75.436 236.804 75.6108C237.106 75.7856 237.345 76.0545 237.52 76.4175C237.701 76.7806 237.792 77.2343 237.792 77.7789C237.792 78.1822 237.752 78.5587 237.671 78.9083C237.59 79.2579 237.469 79.6411 237.308 80.0579H236.279C236.441 79.6679 236.558 79.2948 236.632 78.9385C236.706 78.5755 236.746 78.2024 236.753 77.8192C236.746 77.2612 236.642 76.8444 236.441 76.5688C236.239 76.2864 235.977 76.1453 235.654 76.1453C235.345 76.1453 235.093 76.2562 234.898 76.478C234.71 76.6932 234.615 77.0394 234.615 77.5167V78.9184H233.607V77.5167C233.607 77.0394 233.513 76.6932 233.325 76.478C233.143 76.2562 232.898 76.1453 232.589 76.1453C232.259 76.1453 231.994 76.2831 231.792 76.5587C231.59 76.8343 231.489 77.2545 231.489 77.8192C231.489 78.2024 231.526 78.5755 231.6 78.9385C231.674 79.2948 231.792 79.6679 231.953 80.0579H230.925ZM241.541 75.4495C241.534 75.6646 241.588 75.8495 241.702 76.0041C241.823 76.152 242.005 76.3335 242.247 76.5486C242.455 76.7301 242.623 76.8915 242.751 77.0327C242.885 77.1671 242.996 77.3419 243.084 77.557C243.178 77.7654 243.225 78.0142 243.225 78.3032C243.225 78.6797 243.127 79.0091 242.932 79.2915C242.737 79.5671 242.472 79.7822 242.136 79.9369C241.8 80.0848 241.43 80.1587 241.027 80.1587C240.616 80.1587 240.243 80.0848 239.907 79.9369C239.578 79.789 239.316 79.5738 239.121 79.2915C238.932 79.0091 238.838 78.6763 238.838 78.2932C238.838 78.1184 238.862 77.9604 238.909 77.8192L239.917 77.8595C239.897 77.9604 239.887 78.0747 239.887 78.2024C239.887 78.5587 239.991 78.8411 240.2 79.0495C240.408 79.2579 240.684 79.3621 241.027 79.3621C241.369 79.3621 241.648 79.2646 241.864 79.0696C242.079 78.8747 242.186 78.6091 242.186 78.273C242.186 78.0108 242.119 77.7957 241.985 77.6276C241.857 77.4528 241.658 77.2579 241.39 77.0427C241.181 76.8679 241.016 76.7167 240.895 76.589C240.774 76.4612 240.674 76.3032 240.593 76.115C240.519 75.9268 240.489 75.7049 240.502 75.4495H241.541ZM246.61 80.1688C246.139 80.1688 245.729 80.0713 245.38 79.8763C245.03 79.6814 244.761 79.4091 244.573 79.0595C244.392 78.71 244.301 78.3066 244.301 77.8495V72.4948H245.329V77.8999C245.329 78.357 245.447 78.7167 245.682 78.9789C245.918 79.2343 246.223 79.3621 246.6 79.3621C246.97 79.3621 247.272 79.2377 247.508 78.989C247.743 78.7335 247.86 78.4108 247.86 78.0209C247.86 77.7856 247.834 77.5839 247.78 77.4158C247.726 77.2478 247.645 77.0528 247.538 76.831C247.423 76.5822 247.336 76.3604 247.276 76.1654C247.222 75.9705 247.202 75.7318 247.215 75.4495H248.244C248.237 75.678 248.26 75.8797 248.314 76.0545C248.368 76.2226 248.449 76.4142 248.556 76.6293C248.677 76.878 248.768 77.1066 248.829 77.315C248.889 77.5234 248.919 77.7789 248.919 78.0814C248.919 78.4579 248.825 78.8041 248.637 79.12C248.455 79.436 248.19 79.6915 247.84 79.8864C247.491 80.0747 247.081 80.1688 246.61 80.1688ZM252.659 75.4495C252.652 75.6646 252.706 75.8495 252.82 76.0041C252.941 76.152 253.123 76.3335 253.365 76.5486C253.573 76.7301 253.741 76.8915 253.869 77.0327C254.003 77.1671 254.114 77.3419 254.202 77.557C254.296 77.7654 254.343 78.0142 254.343 78.3032C254.343 78.6797 254.245 79.0091 254.05 79.2915C253.856 79.5671 253.59 79.7822 253.254 79.9369C252.918 80.0848 252.548 80.1587 252.145 80.1587C251.735 80.1587 251.361 80.0848 251.025 79.9369C250.696 79.789 250.434 79.5738 250.239 79.2915C250.05 79.0091 249.956 78.6763 249.956 78.2932C249.956 78.1184 249.98 77.9604 250.027 77.8192L251.035 77.8595C251.015 77.9604 251.005 78.0747 251.005 78.2024C251.005 78.5587 251.109 78.8411 251.318 79.0495C251.526 79.2579 251.802 79.3621 252.145 79.3621C252.487 79.3621 252.766 79.2646 252.982 79.0696C253.197 78.8747 253.304 78.6091 253.304 78.273C253.304 78.0108 253.237 77.7957 253.103 77.6276C252.975 77.4528 252.777 77.2579 252.508 77.0427C252.299 76.8679 252.135 76.7167 252.014 76.589C251.893 76.4612 251.792 76.3032 251.711 76.115C251.637 75.9268 251.607 75.7049 251.62 75.4495H252.659ZM257.734 80.1587C257.257 80.1587 256.84 80.0579 256.484 79.8562C256.134 79.6545 255.865 79.3721 255.677 79.0091C255.489 78.6461 255.395 78.2327 255.395 77.7688C255.395 77.2982 255.482 76.8814 255.657 76.5184C255.838 76.1486 256.087 75.8629 256.403 75.6612C256.726 75.4528 257.092 75.3486 257.502 75.3486C257.845 75.3486 258.151 75.4226 258.42 75.5705C258.696 75.7184 258.907 75.9234 259.055 76.1856H259.126C259.079 75.9032 259.055 75.6411 259.055 75.399L259.075 74.5419C259.082 74.0982 258.961 73.7621 258.712 73.5335C258.464 73.3049 258.144 73.1906 257.754 73.1906C257.378 73.1906 257.072 73.2948 256.837 73.5032C256.608 73.7116 256.487 73.9637 256.474 74.2595L255.425 74.2293C255.432 73.8932 255.536 73.5839 255.738 73.3016C255.939 73.0192 256.215 72.7974 256.564 72.636C256.921 72.4679 257.314 72.3839 257.744 72.3839C258.188 72.3839 258.588 72.4747 258.944 72.6562C259.301 72.831 259.58 73.0831 259.781 73.4125C259.983 73.7419 260.084 74.1184 260.084 74.5419V77.7688C260.084 78.2327 259.99 78.6461 259.801 79.0091C259.613 79.3721 259.341 79.6545 258.985 79.8562C258.628 80.0579 258.211 80.1587 257.734 80.1587ZM256.453 77.7587C256.453 78.2495 256.571 78.6394 256.806 78.9284C257.048 79.2108 257.361 79.352 257.744 79.352C258.134 79.352 258.45 79.2175 258.692 78.9486C258.934 78.6797 259.055 78.3268 259.055 77.8898V77.6276C259.055 77.1637 258.934 76.8041 258.692 76.5486C258.45 76.2864 258.134 76.1553 257.744 76.1553C257.348 76.1553 257.032 76.2965 256.796 76.5789C256.568 76.8612 256.453 77.2545 256.453 77.7587ZM264.156 83.194C263.638 83.194 263.194 83.0898 262.825 82.8814C262.455 82.673 262.172 82.3906 261.977 82.0343C261.789 81.6848 261.695 81.2915 261.695 80.8545C261.695 80.5251 261.746 80.2125 261.846 79.9167L262.865 79.957C262.791 80.2663 262.754 80.5419 262.754 80.7839C262.754 81.2679 262.875 81.6545 263.117 81.9436C263.366 82.2394 263.709 82.3873 264.146 82.3873C264.562 82.3873 264.895 82.236 265.144 81.9335C265.399 81.631 265.527 81.231 265.527 80.7335V77.1133C265.527 76.8041 265.446 76.5688 265.285 76.4074C265.13 76.2461 264.925 76.1654 264.67 76.1654C264.414 76.1654 264.206 76.2461 264.045 76.4074C263.89 76.5688 263.813 76.8041 263.813 77.1133V78.4041H262.814V77.0831C262.814 76.8209 262.747 76.6226 262.613 76.4881C262.485 76.3469 262.3 76.2763 262.058 76.2763C261.998 76.2763 261.907 76.2831 261.786 76.2965C261.685 76.3167 261.584 76.3268 261.483 76.3268C261.362 76.3268 261.255 76.31 261.161 76.2763V75.399C261.262 75.4327 261.376 75.4495 261.504 75.4495C261.577 75.4495 261.682 75.4427 261.816 75.4293C261.917 75.4091 262.025 75.399 262.139 75.399C262.428 75.399 262.673 75.4663 262.875 75.6007C263.083 75.7352 263.238 75.9806 263.339 76.3369H263.409C263.504 75.9873 263.688 75.7352 263.964 75.5805C264.24 75.4259 264.539 75.3486 264.862 75.3486C265.372 75.3486 265.779 75.51 266.082 75.8327C266.391 76.1553 266.546 76.5688 266.546 77.073V80.7436C266.546 81.4763 266.344 82.0679 265.941 82.5184C265.537 82.9688 264.942 83.194 264.156 83.194ZM270.139 80.1587C269.668 80.1587 269.255 80.0579 268.898 79.8562C268.549 79.6545 268.28 79.3755 268.092 79.0192C267.903 78.6629 267.809 78.2595 267.809 77.8091C267.809 77.3587 267.897 76.9553 268.072 76.599C268.253 76.2427 268.502 75.9637 268.818 75.7621C269.14 75.5604 269.507 75.4595 269.917 75.4595C270.26 75.4595 270.566 75.5335 270.835 75.6814C271.11 75.8293 271.322 76.0343 271.47 76.2965H271.54C271.5 76.0343 271.48 75.7721 271.48 75.51L271.49 74.0679C271.49 73.7856 271.416 73.5671 271.268 73.4125C271.127 73.2579 270.942 73.1805 270.714 73.1805C270.485 73.1805 270.3 73.2612 270.159 73.4226C270.018 73.5772 269.947 73.7789 269.947 74.0276V74.6125H268.949V74.0276C268.949 73.7856 268.885 73.5873 268.757 73.4327C268.636 73.278 268.472 73.2007 268.263 73.2007C267.92 73.2007 267.651 73.352 267.456 73.6545L266.781 73.1805C266.942 72.9251 267.147 72.7301 267.396 72.5957C267.645 72.4545 267.92 72.3839 268.223 72.3839C268.512 72.3839 268.771 72.4646 268.999 72.6259C269.228 72.7873 269.386 73.0192 269.473 73.3217H269.544C269.638 73.0192 269.809 72.7873 270.058 72.6259C270.307 72.4646 270.599 72.3839 270.935 72.3839C271.406 72.3839 271.782 72.5318 272.065 72.8276C272.354 73.1167 272.498 73.4965 272.498 73.9671V77.8192C272.498 78.2696 272.401 78.673 272.206 79.0293C272.018 79.3789 271.746 79.6545 271.389 79.8562C271.033 80.0579 270.616 80.1587 270.139 80.1587ZM268.858 77.8192C268.858 78.2831 268.979 78.6562 269.221 78.9385C269.463 79.2142 269.772 79.352 270.149 79.352C270.539 79.352 270.855 79.2209 271.097 78.9587C271.339 78.6965 271.46 78.3604 271.46 77.9503V77.6881C271.46 77.2444 271.339 76.8982 271.097 76.6495C270.855 76.394 270.539 76.2663 270.149 76.2663C269.759 76.2663 269.446 76.4074 269.211 76.6898C268.976 76.9654 268.858 77.3419 268.858 77.8192ZM276.215 75.4495C276.208 75.6646 276.262 75.8495 276.376 76.0041C276.497 76.152 276.678 76.3335 276.92 76.5486C277.129 76.7301 277.297 76.8915 277.425 77.0327C277.559 77.1671 277.67 77.3419 277.757 77.557C277.852 77.7654 277.899 78.0142 277.899 78.3032C277.899 78.6797 277.801 79.0091 277.606 79.2915C277.411 79.5671 277.146 79.7822 276.81 79.9369C276.473 80.0848 276.104 80.1587 275.7 80.1587C275.29 80.1587 274.917 80.0848 274.581 79.9369C274.252 79.789 273.989 79.5738 273.794 79.2915C273.606 79.0091 273.512 78.6763 273.512 78.2932C273.512 78.1184 273.536 77.9604 273.583 77.8192L274.591 77.8595C274.571 77.9604 274.561 78.0747 274.561 78.2024C274.561 78.5587 274.665 78.8411 274.873 79.0495C275.082 79.2579 275.357 79.3621 275.7 79.3621C276.043 79.3621 276.322 79.2646 276.537 79.0696C276.752 78.8747 276.86 78.6091 276.86 78.273C276.86 78.0108 276.793 77.7957 276.658 77.6276C276.531 77.4528 276.332 77.2579 276.063 77.0427C275.855 76.8679 275.69 76.7167 275.569 76.589C275.448 76.4612 275.347 76.3032 275.267 76.115C275.193 75.9268 275.162 75.7049 275.176 75.4495H276.215ZM279.434 80.0579C279.273 79.6545 279.152 79.278 279.071 78.9284C278.991 78.5721 278.95 78.189 278.95 77.7789C278.95 77.2343 279.041 76.7806 279.223 76.4175C279.404 76.0545 279.646 75.7856 279.949 75.6108C280.251 75.436 280.587 75.3486 280.957 75.3486C281.347 75.3486 281.69 75.4427 281.986 75.631C282.281 75.8192 282.486 76.1251 282.601 76.5486H282.671C282.786 76.1318 282.991 75.8293 283.286 75.6411C283.589 75.4461 283.932 75.3486 284.315 75.3486C284.685 75.3486 285.018 75.436 285.313 75.6108C285.616 75.7789 285.855 76.0377 286.029 76.3873C286.211 76.7369 286.302 77.1671 286.302 77.678C286.302 77.9873 286.275 78.2696 286.221 78.5251C286.167 78.7806 286.083 79.036 285.969 79.2915V79.3116H287.179L287.108 80.0579H284.789C284.944 79.6747 285.058 79.3049 285.132 78.9486C285.206 78.5923 285.243 78.2192 285.243 77.8293C285.243 77.2646 285.142 76.8444 284.94 76.5688C284.745 76.2864 284.486 76.1453 284.164 76.1453C283.855 76.1453 283.602 76.2562 283.407 76.478C283.219 76.6932 283.125 77.0394 283.125 77.5167V78.9184H282.117V77.5167C282.117 77.0394 282.023 76.6932 281.834 76.478C281.646 76.2562 281.397 76.1453 281.088 76.1453C280.759 76.1453 280.493 76.2831 280.292 76.5587C280.09 76.8343 279.989 77.2545 279.989 77.8192C279.989 78.2024 280.026 78.5755 280.1 78.9385C280.174 79.2948 280.295 79.6679 280.463 80.0579H279.434ZM102.323 98.1234C102.242 97.7133 102.017 97.3873 101.647 97.1453C101.277 96.91 100.84 96.7923 100.336 96.7923H100.155C99.8857 96.7923 99.6268 96.8158 99.3781 96.8629C99.1294 96.9167 98.8672 97.0041 98.5916 97.1251L98.2789 96.4696C98.6218 96.315 99.0823 96.2242 99.6605 96.1974V96.1369C98.9277 95.9621 98.3428 95.5957 97.9058 95.0377C97.4756 94.473 97.2605 93.7705 97.2605 92.9301C97.2605 92.352 97.3579 91.8713 97.5529 91.4881C97.7479 91.0982 98.0067 90.8125 98.3294 90.631C98.6521 90.4427 99.005 90.3486 99.3882 90.3486C99.9663 90.3486 100.447 90.5974 100.83 91.0948H100.901C101.089 90.8595 101.328 90.678 101.617 90.5503C101.913 90.4158 102.242 90.3486 102.605 90.3486C103.029 90.3486 103.408 90.4427 103.744 90.631C104.087 90.8192 104.356 91.0881 104.551 91.4377C104.746 91.7806 104.844 92.1839 104.844 92.6478C104.844 93.0915 104.746 93.4881 104.551 93.8377C104.356 94.1873 104.084 94.4595 103.734 94.6545C103.392 94.8495 103.005 94.9469 102.575 94.9469C102.144 94.9469 101.755 94.8495 101.405 94.6545C101.062 94.4595 100.793 94.1873 100.598 93.8377C100.403 93.4881 100.306 93.0915 100.306 92.6478C100.306 92.2377 100.38 91.8848 100.528 91.589C100.245 91.3066 99.926 91.1654 99.5697 91.1654C99.1932 91.1654 98.8873 91.3066 98.6521 91.589C98.4235 91.8713 98.3092 92.315 98.3092 92.92C98.3092 93.7469 98.5277 94.399 98.9647 94.8763C99.4084 95.3537 100.017 95.6831 100.79 95.8646L101.143 95.9553C101.768 96.11 102.272 96.3688 102.655 96.7318C103.045 97.1016 103.274 97.552 103.341 98.0831L102.323 98.1234ZM101.344 92.6478C101.344 93.0982 101.459 93.4646 101.687 93.7469C101.916 94.0226 102.212 94.1604 102.575 94.1604C102.944 94.1604 103.24 94.0226 103.462 93.7469C103.691 93.4646 103.805 93.0982 103.805 92.6478C103.805 92.1637 103.694 91.7906 103.472 91.5284C103.25 91.2595 102.951 91.1251 102.575 91.1251C102.205 91.1251 101.906 91.2595 101.677 91.5284C101.455 91.7974 101.344 92.1705 101.344 92.6478ZM106.479 95.0579C106.157 94.2175 105.995 93.2259 105.995 92.0831C105.995 90.994 106.19 90.1369 106.58 89.5116C106.97 88.8797 107.437 88.436 107.982 88.1805C108.526 87.9184 109.128 87.7335 109.787 87.6259L111.31 87.3839V88.3217L109.747 88.5738C109.168 88.6612 108.674 88.8024 108.264 88.9974C107.854 89.1856 107.508 89.4713 107.226 89.8545C106.95 90.2377 106.762 90.7453 106.661 91.3772H106.711C106.879 91.0142 107.088 90.752 107.337 90.5906C107.585 90.4293 107.874 90.3486 108.204 90.3486C108.533 90.3486 108.832 90.4461 109.101 90.6411C109.377 90.836 109.562 91.1385 109.656 91.5486H109.716C109.831 91.1385 110.039 90.836 110.342 90.6411C110.644 90.4461 110.984 90.3486 111.36 90.3486C111.73 90.3486 112.063 90.436 112.358 90.6108C112.661 90.7856 112.9 91.0545 113.074 91.4175C113.256 91.7806 113.347 92.2343 113.347 92.7789C113.347 93.1822 113.306 93.5587 113.226 93.9083C113.145 94.2579 113.024 94.6411 112.863 95.0579H111.834C111.995 94.6679 112.113 94.2948 112.187 93.9385C112.261 93.5755 112.301 93.2024 112.308 92.8192C112.301 92.2612 112.197 91.8444 111.995 91.5688C111.794 91.2864 111.531 91.1453 111.209 91.1453C110.9 91.1453 110.647 91.2562 110.453 91.478C110.264 91.6932 110.17 92.0394 110.17 92.5167V93.9184H109.162V92.5167C109.162 92.0394 109.068 91.6932 108.879 91.478C108.698 91.2562 108.453 91.1453 108.143 91.1453C107.814 91.1453 107.548 91.2831 107.347 91.5587C107.145 91.8343 107.044 92.2545 107.044 92.8192C107.044 93.2024 107.081 93.5755 107.155 93.9385C107.229 94.2948 107.347 94.6679 107.508 95.0579H106.479ZM114.978 95.0579C114.817 94.6545 114.696 94.278 114.615 93.9284C114.534 93.5721 114.494 93.189 114.494 92.7789C114.494 92.2343 114.585 91.7806 114.766 91.4175C114.948 91.0545 115.19 90.7856 115.492 90.6108C115.795 90.436 116.131 90.3486 116.501 90.3486C116.891 90.3486 117.233 90.4427 117.529 90.631C117.825 90.8192 118.03 91.1251 118.144 91.5486H118.215C118.329 91.1318 118.534 90.8293 118.83 90.6411C119.133 90.4461 119.475 90.3486 119.859 90.3486C120.228 90.3486 120.561 90.436 120.857 90.6108C121.159 90.7789 121.398 91.0377 121.573 91.3873C121.754 91.7369 121.845 92.1671 121.845 92.678C121.845 92.9873 121.818 93.2696 121.765 93.5251C121.711 93.7806 121.627 94.036 121.512 94.2915V94.3116H122.722L122.652 95.0579H120.333C120.487 94.6747 120.601 94.3049 120.675 93.9486C120.749 93.5923 120.786 93.2192 120.786 92.8293C120.786 92.2646 120.686 91.8444 120.484 91.5688C120.289 91.2864 120.03 91.1453 119.707 91.1453C119.398 91.1453 119.146 91.2562 118.951 91.478C118.763 91.6932 118.669 92.0394 118.669 92.5167V93.9184H117.66V92.5167C117.66 92.0394 117.566 91.6932 117.378 91.478C117.19 91.2562 116.941 91.1453 116.632 91.1453C116.302 91.1453 116.037 91.2831 115.835 91.5587C115.633 91.8343 115.533 92.2545 115.533 92.8192C115.533 93.2024 115.57 93.5755 115.643 93.9385C115.717 94.2948 115.838 94.6679 116.007 95.0579H114.978ZM125.868 95.1688C125.397 95.1688 124.987 95.0713 124.637 94.8763C124.288 94.6814 124.019 94.4091 123.831 94.0595C123.649 93.71 123.558 93.3066 123.558 92.8495V87.4948H124.587V92.8999C124.587 93.357 124.704 93.7167 124.94 93.9789C125.175 94.2343 125.481 94.3621 125.857 94.3621C126.227 94.3621 126.53 94.2377 126.765 93.989C127 93.7335 127.118 93.4108 127.118 93.0209C127.118 92.7856 127.091 92.5839 127.037 92.4158C126.983 92.2478 126.903 92.0528 126.795 91.831C126.681 91.5822 126.594 91.3604 126.533 91.1654C126.479 90.9705 126.459 90.7318 126.473 90.4495H127.501C127.494 90.678 127.518 90.8797 127.572 91.0545C127.626 91.2226 127.706 91.4142 127.814 91.6293C127.935 91.878 128.026 92.1066 128.086 92.315C128.147 92.5234 128.177 92.7789 128.177 93.0814C128.177 93.4579 128.083 93.8041 127.894 94.12C127.713 94.436 127.447 94.6915 127.098 94.8864C126.748 95.0747 126.338 95.1688 125.868 95.1688ZM129.607 87.515H130.767L130.706 92.9705H129.668L129.607 87.515ZM129.537 94.5032C129.537 94.3217 129.6 94.1671 129.728 94.0394C129.856 93.9116 130.01 93.8478 130.192 93.8478C130.374 93.8478 130.528 93.9116 130.656 94.0394C130.784 94.1671 130.847 94.3217 130.847 94.5032C130.847 94.6915 130.784 94.8495 130.656 94.9772C130.528 95.0982 130.374 95.1587 130.192 95.1587C130.01 95.1587 129.856 95.0982 129.728 94.9772C129.6 94.8495 129.537 94.6915 129.537 94.5032Z" fill="#101828"/>
<rect width="310.084" height="57.1429" transform="translate(29.459 161.815)" fill="white"/>
<g clip-path="url(#clip0_956_40771)">
<path d="M48.5066 191.787C48.5066 191.787 49.557 193.188 51.3077 193.188C53.0584 193.188 54.1089 191.787 54.1089 191.787M53.4086 188.286H53.4156M49.2069 188.286H49.2139M58.3105 190.387C58.3105 194.254 55.1753 197.39 51.3077 197.39C47.4402 197.39 44.3049 194.254 44.3049 190.387C44.3049 186.519 47.4402 183.384 51.3077 183.384C55.1753 183.384 58.3105 186.519 58.3105 190.387ZM53.7587 188.286C53.7587 188.479 53.602 188.636 53.4086 188.636C53.2152 188.636 53.0584 188.479 53.0584 188.286C53.0584 188.093 53.2152 187.936 53.4086 187.936C53.602 187.936 53.7587 188.093 53.7587 188.286ZM49.557 188.286C49.557 188.479 49.4003 188.636 49.2069 188.636C49.0135 188.636 48.8568 188.479 48.8568 188.286C48.8568 188.093 49.0135 187.936 49.2069 187.936C49.4003 187.936 49.557 188.093 49.557 188.286Z" stroke="#667085" stroke-width="1.2605" stroke-linecap="round" stroke-linejoin="round"/>
</g>
<path d="M67.8345 187.85C67.8345 187.605 67.8345 187.482 67.8447 187.379C67.9434 186.382 68.7317 185.594 69.7282 185.495C69.8315 185.485 69.9608 185.485 70.2193 185.485C70.319 185.485 70.3688 185.485 70.4111 185.482C70.9511 185.45 71.4241 185.109 71.6259 184.607C71.6417 184.567 71.6565 184.523 71.686 184.434C71.7156 184.346 71.7303 184.301 71.7461 184.262C71.948 183.76 72.4209 183.419 72.961 183.387C73.0032 183.384 73.05 183.384 73.1434 183.384H76.5312C76.6246 183.384 76.6713 183.384 76.7136 183.387C77.2537 183.419 77.7266 183.76 77.9284 184.262C77.9442 184.301 77.959 184.346 77.9885 184.434C78.0181 184.523 78.0329 184.567 78.0487 184.607C78.2505 185.109 78.7234 185.45 79.2635 185.482C79.3058 185.485 79.3556 185.485 79.4552 185.485C79.7138 185.485 79.8431 185.485 79.9464 185.495C80.9428 185.594 81.7311 186.382 81.8298 187.379C81.8401 187.482 81.8401 187.605 81.8401 187.85V193.328C81.8401 194.505 81.8401 195.093 81.6111 195.542C81.4097 195.938 81.0883 196.259 80.693 196.46C80.2436 196.689 79.6553 196.689 78.4787 196.689H71.1958C70.0192 196.689 69.4309 196.689 68.9816 196.46C68.5863 196.259 68.2649 195.938 68.0635 195.542C67.8345 195.093 67.8345 194.505 67.8345 193.328V187.85Z" stroke="#667085" stroke-width="1.2605" stroke-linecap="round" stroke-linejoin="round"/>
<path d="M74.8373 193.538C76.3843 193.538 77.6384 192.284 77.6384 190.737C77.6384 189.19 76.3843 187.936 74.8373 187.936C73.2903 187.936 72.0362 189.19 72.0362 190.737C72.0362 192.284 73.2903 193.538 74.8373 193.538Z" stroke="#667085" stroke-width="1.2605" stroke-linecap="round" stroke-linejoin="round"/>
<path d="M104.776 189.616L98.4625 195.93C97.0268 197.365 94.699 197.365 93.2632 195.93C91.8275 194.494 91.8275 192.166 93.2632 190.73L99.5767 184.417C100.534 183.46 102.086 183.46 103.043 184.417C104 185.374 104 186.926 103.043 187.883L96.977 193.949C96.4984 194.428 95.7225 194.428 95.2439 193.949C94.7653 193.47 94.7653 192.694 95.2439 192.216L100.567 186.893" stroke="#667085" stroke-width="1.2605" stroke-linecap="round" stroke-linejoin="round"/>
<g filter="url(#filter1_d_956_40771)">
<path d="M113.493 180.303C113.493 176.59 116.502 173.58 120.215 173.58H319.375C323.088 173.58 326.098 176.59 326.098 180.303V200.471C326.098 204.184 323.088 207.194 319.375 207.194H120.215C116.502 207.194 113.493 204.184 113.493 200.471V180.303Z" fill="white"/>
<path d="M120.215 174H319.375C322.856 174 325.677 176.822 325.677 180.303V200.471C325.677 203.952 322.856 206.773 319.375 206.773H120.215C116.734 206.773 113.913 203.952 113.913 200.471V180.303C113.913 176.822 116.734 174 120.215 174Z" stroke="#D0D5DD" stroke-width="0.840336"/>
<path d="M304.879 192.278L312.232 184.925M304.968 192.508L306.809 197.24C306.971 197.657 307.052 197.865 307.169 197.926C307.27 197.979 307.39 197.979 307.492 197.926C307.609 197.866 307.69 197.657 307.853 197.241L312.468 185.415C312.614 185.038 312.688 184.85 312.648 184.73C312.613 184.626 312.531 184.544 312.427 184.509C312.306 184.469 312.118 184.542 311.742 184.689L299.916 189.304C299.499 189.467 299.291 189.548 299.23 189.665C299.177 189.766 299.178 189.887 299.23 189.988C299.291 190.105 299.5 190.186 299.917 190.348L304.649 192.188C304.734 192.221 304.776 192.238 304.812 192.263C304.843 192.286 304.871 192.313 304.893 192.345C304.919 192.381 304.935 192.423 304.968 192.508Z" stroke="#8C64F0" stroke-width="1.40056" stroke-linecap="round" stroke-linejoin="round"/>
</g>
</g>
<defs>
<filter id="filter0_dd_956_40771" x="10.1303" y="14.1933" width="348.739" height="233.613" filterUnits="userSpaceOnUse" color-interpolation-filters="sRGB">
<feFlood flood-opacity="0" result="BackgroundImageFix"/>
<feColorMatrix in="SourceAlpha" type="matrix" values="0 0 0 0 0 0 0 0 0 0 0 0 0 0 0 0 0 0 127 0" result="hardAlpha"/>
<feMorphology radius="3.36134" operator="erode" in="SourceAlpha" result="effect1_dropShadow_956_40771"/>
<feOffset dy="6.72269"/>
<feGaussianBlur stdDeviation="3.36134"/>
<feComposite in2="hardAlpha" operator="out"/>
<feColorMatrix type="matrix" values="0 0 0 0 0.0627451 0 0 0 0 0.0941176 0 0 0 0 0.156863 0 0 0 0.03 0"/>
<feBlend mode="normal" in2="BackgroundImageFix" result="effect1_dropShadow_956_40771"/>
<feColorMatrix in="SourceAlpha" type="matrix" values="0 0 0 0 0 0 0 0 0 0 0 0 0 0 0 0 0 0 127 0" result="hardAlpha"/>
<feMorphology radius="3.36134" operator="erode" in="SourceAlpha" result="effect2_dropShadow_956_40771"/>
<feOffset dy="7"/>
<feGaussianBlur stdDeviation="10.084"/>
<feComposite in2="hardAlpha" operator="out"/>
<feColorMatrix type="matrix" values="0 0 0 0 0.0627451 0 0 0 0 0.0941176 0 0 0 0 0.156863 0 0 0 0.08 0"/>
<feBlend mode="normal" in2="effect1_dropShadow_956_40771" result="effect2_dropShadow_956_40771"/>
<feBlend mode="normal" in="SourceGraphic" in2="effect2_dropShadow_956_40771" result="shape"/>
</filter>
<filter id="filter1_d_956_40771" x="111.812" y="172.74" width="215.966" height="36.9749" filterUnits="userSpaceOnUse" color-interpolation-filters="sRGB">
<feFlood flood-opacity="0" result="BackgroundImageFix"/>
<feColorMatrix in="SourceAlpha" type="matrix" values="0 0 0 0 0 0 0 0 0 0 0 0 0 0 0 0 0 0 127 0" result="hardAlpha"/>
<feOffset dy="0.840336"/>
<feGaussianBlur stdDeviation="0.840336"/>
<feComposite in2="hardAlpha" operator="out"/>
<feColorMatrix type="matrix" values="0 0 0 0 0.0627451 0 0 0 0 0.0941176 0 0 0 0 0.156863 0 0 0 0.05 0"/>
<feBlend mode="normal" in2="BackgroundImageFix" result="effect1_dropShadow_956_40771"/>
<feBlend mode="normal" in="SourceGraphic" in2="effect1_dropShadow_956_40771" result="shape"/>
</filter>
<clipPath id="clip0_956_40771">
<rect width="16.8067" height="16.8067" fill="white" transform="translate(42.9044 181.983)"/>
</clipPath>
</defs>
</svg>
